  0
SECTION
  2
HEADER
  9
$ANGBASE
  50
0.0
  9
$ANGDIR
  70
  1
  9
$MEASUREMENT
  70
0
  0
ENDSEC
  0
SECTION
  2
TABLES
  0
TABLE
  2
LTYPE
  70
1
  0
LTYPE
  2
CONTINUOUS
  70
0
  3
Solid line
  72
65
  73
0
  40
0.0
  0
ENDTAB
  0
TABLE
  2
STYLE
  70
4
  0
STYLE
  2
KICAD
  70
0
  40
0
  41
1
  42
1
  50
0
  71
0
  3
isocp.shx
  0
STYLE
  2
KICADB
  70
0
  40
0
  41
1
  42
1
  50
0
  71
0
  3
isocp.shx
  0
STYLE
  2
KICADI
  70
0
  40
0
  41
1
  42
1
  50
15
  71
0
  3
isocp.shx
  0
STYLE
  2
KICADBI
  70
0
  40
0
  41
1
  42
1
  50
15
  71
0
  3
isocp.shx
  0
ENDTAB
  0
TABLE
  2
LAYER
  70
30
  0
LAYER
  2
BLACK
  70
0
  62
7
  6
CONTINUOUS
  0
LAYER
  2
GRAY1
  70
0
  62
251
  6
CONTINUOUS
  0
LAYER
  2
GRAY2
  70
0
  62
8
  6
CONTINUOUS
  0
LAYER
  2
GRAY3
  70
0
  62
9
  6
CONTINUOUS
  0
LAYER
  2
WHITE
  70
0
  62
7
  6
CONTINUOUS
  0
LAYER
  2
LYELLOW
  70
0
  62
51
  6
CONTINUOUS
  0
LAYER
  2
BLUE1
  70
0
  62
178
  6
CONTINUOUS
  0
LAYER
  2
GREEN1
  70
0
  62
98
  6
CONTINUOUS
  0
LAYER
  2
CYAN1
  70
0
  62
138
  6
CONTINUOUS
  0
LAYER
  2
RED1
  70
0
  62
18
  6
CONTINUOUS
  0
LAYER
  2
MAGENTA1
  70
0
  62
228
  6
CONTINUOUS
  0
LAYER
  2
BROWN1
  70
0
  62
58
  6
CONTINUOUS
  0
LAYER
  2
BLUE2
  70
0
  62
5
  6
CONTINUOUS
  0
LAYER
  2
GREEN2
  70
0
  62
3
  6
CONTINUOUS
  0
LAYER
  2
CYAN2
  70
0
  62
4
  6
CONTINUOUS
  0
LAYER
  2
RED2
  70
0
  62
1
  6
CONTINUOUS
  0
LAYER
  2
MAGENTA2
  70
0
  62
6
  6
CONTINUOUS
  0
LAYER
  2
BROWN2
  70
0
  62
54
  6
CONTINUOUS
  0
LAYER
  2
BLUE3
  70
0
  62
171
  6
CONTINUOUS
  0
LAYER
  2
GREEN3
  70
0
  62
91
  6
CONTINUOUS
  0
LAYER
  2
CYAN3
  70
0
  62
131
  6
CONTINUOUS
  0
LAYER
  2
RED3
  70
0
  62
11
  6
CONTINUOUS
  0
LAYER
  2
MAGENTA3
  70
0
  62
221
  6
CONTINUOUS
  0
LAYER
  2
YELLOW3
  70
0
  62
2
  6
CONTINUOUS
  0
LAYER
  2
BLUE4
  70
0
  62
5
  6
CONTINUOUS
  0
LAYER
  2
GREEN4
  70
0
  62
3
  6
CONTINUOUS
  0
LAYER
  2
CYAN4
  70
0
  62
4
  6
CONTINUOUS
  0
LAYER
  2
RED4
  70
0
  62
1
  6
CONTINUOUS
  0
LAYER
  2
MAGENTA4
  70
0
  62
6
  6
CONTINUOUS
  0
LAYER
  2
YELLOW4
  70
0
  62
2
  6
CONTINUOUS
  0
ENDTAB
  0
ENDSEC
  0
SECTION
  2
ENTITIES
0
LINE
8
Black
10
148.501
20
-110.401
11
147.501
21
-110.401
0
LINE
8
Black
10
147.501
20
-110.401
11
147.501
21
-108.801
0
LINE
8
Black
10
147.501
20
-108.801
11
148.501
21
-108.801
0
LINE
8
Black
10
148.501
20
-108.801
11
148.501
21
-110.401
0
LINE
8
Black
10
144.501
20
-110.401
11
143.501
21
-110.401
0
LINE
8
Black
10
143.501
20
-110.401
11
143.501
21
-108.801
0
LINE
8
Black
10
143.501
20
-108.801
11
144.501
21
-108.801
0
LINE
8
Black
10
144.501
20
-108.801
11
144.501
21
-110.401
0
LINE
8
Black
10
132.501
20
-110.401
11
131.501
21
-110.401
0
LINE
8
Black
10
131.501
20
-110.401
11
131.501
21
-108.801
0
LINE
8
Black
10
131.501
20
-108.801
11
132.501
21
-108.801
0
LINE
8
Black
10
132.501
20
-108.801
11
132.501
21
-110.401
0
LINE
8
Black
10
136.501
20
-110.401
11
135.501
21
-110.401
0
LINE
8
Black
10
135.501
20
-110.401
11
135.501
21
-108.801
0
LINE
8
Black
10
135.501
20
-108.801
11
136.501
21
-108.801
0
LINE
8
Black
10
136.501
20
-108.801
11
136.501
21
-110.401
0
LINE
8
Black
10
140.501
20
-110.401
11
139.501
21
-110.401
0
LINE
8
Black
10
139.501
20
-110.401
11
139.501
21
-108.801
0
LINE
8
Black
10
139.501
20
-108.801
11
140.501
21
-108.801
0
LINE
8
Black
10
140.501
20
-108.801
11
140.501
21
-110.401
0
LINE
8
Black
10
146.181
20
-107.506
11
146.34
21
-107.597
0
LINE
8
Black
10
146.34
20
-107.597
11
146.457
21
-107.737
0
LINE
8
Black
10
146.457
20
-107.737
11
146.52
21
-107.909
0
LINE
8
Black
10
146.52
20
-107.909
11
146.52
21
-108.092
0
LINE
8
Black
10
146.52
20
-108.092
11
146.457
21
-108.264
0
LINE
8
Black
10
146.457
20
-108.264
11
146.34
21
-108.405
0
LINE
8
Black
10
146.34
20
-108.405
11
146.181
21
-108.496
0
LINE
8
Black
10
146.181
20
-108.496
11
146.001
21
-108.528
0
LINE
8
Black
10
146.001
20
-108.528
11
145.821
21
-108.496
0
LINE
8
Black
10
145.821
20
-108.496
11
145.662
21
-108.405
0
LINE
8
Black
10
145.662
20
-108.405
11
145.545
21
-108.264
0
LINE
8
Black
10
145.545
20
-108.264
11
145.482
21
-108.092
0
LINE
8
Black
10
145.482
20
-108.092
11
145.482
21
-107.909
0
LINE
8
Black
10
145.482
20
-107.909
11
145.545
21
-107.737
0
LINE
8
Black
10
145.545
20
-107.737
11
145.662
21
-107.597
0
LINE
8
Black
10
145.662
20
-107.597
11
145.821
21
-107.506
0
LINE
8
Black
10
145.821
20
-107.506
11
146.001
21
-107.474
0
LINE
8
Black
10
146.001
20
-107.474
11
146.181
21
-107.506
0
LINE
8
Black
10
130.181
20
-107.506
11
130.34
21
-107.597
0
LINE
8
Black
10
130.34
20
-107.597
11
130.457
21
-107.737
0
LINE
8
Black
10
130.457
20
-107.737
11
130.52
21
-107.909
0
LINE
8
Black
10
130.52
20
-107.909
11
130.52
21
-108.092
0
LINE
8
Black
10
130.52
20
-108.092
11
130.457
21
-108.264
0
LINE
8
Black
10
130.457
20
-108.264
11
130.34
21
-108.405
0
LINE
8
Black
10
130.34
20
-108.405
11
130.181
21
-108.496
0
LINE
8
Black
10
130.181
20
-108.496
11
130.001
21
-108.528
0
LINE
8
Black
10
130.001
20
-108.528
11
129.821
21
-108.496
0
LINE
8
Black
10
129.821
20
-108.496
11
129.662
21
-108.405
0
LINE
8
Black
10
129.662
20
-108.405
11
129.545
21
-108.264
0
LINE
8
Black
10
129.545
20
-108.264
11
129.482
21
-108.092
0
LINE
8
Black
10
129.482
20
-108.092
11
129.482
21
-107.909
0
LINE
8
Black
10
129.482
20
-107.909
11
129.545
21
-107.737
0
LINE
8
Black
10
129.545
20
-107.737
11
129.662
21
-107.597
0
LINE
8
Black
10
129.662
20
-107.597
11
129.821
21
-107.506
0
LINE
8
Black
10
129.821
20
-107.506
11
130.001
21
-107.474
0
LINE
8
Black
10
130.001
20
-107.474
11
130.181
21
-107.506
0
LINE
8
Black
10
134.181
20
-107.506
11
134.34
21
-107.597
0
LINE
8
Black
10
134.34
20
-107.597
11
134.457
21
-107.737
0
LINE
8
Black
10
134.457
20
-107.737
11
134.52
21
-107.909
0
LINE
8
Black
10
134.52
20
-107.909
11
134.52
21
-108.092
0
LINE
8
Black
10
134.52
20
-108.092
11
134.457
21
-108.264
0
LINE
8
Black
10
134.457
20
-108.264
11
134.34
21
-108.405
0
LINE
8
Black
10
134.34
20
-108.405
11
134.181
21
-108.496
0
LINE
8
Black
10
134.181
20
-108.496
11
134.001
21
-108.528
0
LINE
8
Black
10
134.001
20
-108.528
11
133.821
21
-108.496
0
LINE
8
Black
10
133.821
20
-108.496
11
133.662
21
-108.405
0
LINE
8
Black
10
133.662
20
-108.405
11
133.545
21
-108.264
0
LINE
8
Black
10
133.545
20
-108.264
11
133.482
21
-108.092
0
LINE
8
Black
10
133.482
20
-108.092
11
133.482
21
-107.909
0
LINE
8
Black
10
133.482
20
-107.909
11
133.545
21
-107.737
0
LINE
8
Black
10
133.545
20
-107.737
11
133.662
21
-107.597
0
LINE
8
Black
10
133.662
20
-107.597
11
133.821
21
-107.506
0
LINE
8
Black
10
133.821
20
-107.506
11
134.001
21
-107.474
0
LINE
8
Black
10
134.001
20
-107.474
11
134.181
21
-107.506
0
LINE
8
Black
10
132.181
20
-107.506
11
132.34
21
-107.597
0
LINE
8
Black
10
132.34
20
-107.597
11
132.457
21
-107.737
0
LINE
8
Black
10
132.457
20
-107.737
11
132.52
21
-107.909
0
LINE
8
Black
10
132.52
20
-107.909
11
132.52
21
-108.092
0
LINE
8
Black
10
132.52
20
-108.092
11
132.457
21
-108.264
0
LINE
8
Black
10
132.457
20
-108.264
11
132.34
21
-108.405
0
LINE
8
Black
10
132.34
20
-108.405
11
132.181
21
-108.496
0
LINE
8
Black
10
132.181
20
-108.496
11
132.001
21
-108.528
0
LINE
8
Black
10
132.001
20
-108.528
11
131.821
21
-108.496
0
LINE
8
Black
10
131.821
20
-108.496
11
131.662
21
-108.405
0
LINE
8
Black
10
131.662
20
-108.405
11
131.545
21
-108.264
0
LINE
8
Black
10
131.545
20
-108.264
11
131.482
21
-108.092
0
LINE
8
Black
10
131.482
20
-108.092
11
131.482
21
-107.909
0
LINE
8
Black
10
131.482
20
-107.909
11
131.545
21
-107.737
0
LINE
8
Black
10
131.545
20
-107.737
11
131.662
21
-107.597
0
LINE
8
Black
10
131.662
20
-107.597
11
131.821
21
-107.506
0
LINE
8
Black
10
131.821
20
-107.506
11
132.001
21
-107.474
0
LINE
8
Black
10
132.001
20
-107.474
11
132.181
21
-107.506
0
LINE
8
Black
10
144.181
20
-107.506
11
144.34
21
-107.597
0
LINE
8
Black
10
144.34
20
-107.597
11
144.457
21
-107.737
0
LINE
8
Black
10
144.457
20
-107.737
11
144.52
21
-107.909
0
LINE
8
Black
10
144.52
20
-107.909
11
144.52
21
-108.092
0
LINE
8
Black
10
144.52
20
-108.092
11
144.457
21
-108.264
0
LINE
8
Black
10
144.457
20
-108.264
11
144.34
21
-108.405
0
LINE
8
Black
10
144.34
20
-108.405
11
144.181
21
-108.496
0
LINE
8
Black
10
144.181
20
-108.496
11
144.001
21
-108.528
0
LINE
8
Black
10
144.001
20
-108.528
11
143.821
21
-108.496
0
LINE
8
Black
10
143.821
20
-108.496
11
143.662
21
-108.405
0
LINE
8
Black
10
143.662
20
-108.405
11
143.545
21
-108.264
0
LINE
8
Black
10
143.545
20
-108.264
11
143.482
21
-108.092
0
LINE
8
Black
10
143.482
20
-108.092
11
143.482
21
-107.909
0
LINE
8
Black
10
143.482
20
-107.909
11
143.545
21
-107.737
0
LINE
8
Black
10
143.545
20
-107.737
11
143.662
21
-107.597
0
LINE
8
Black
10
143.662
20
-107.597
11
143.821
21
-107.506
0
LINE
8
Black
10
143.821
20
-107.506
11
144.001
21
-107.474
0
LINE
8
Black
10
144.001
20
-107.474
11
144.181
21
-107.506
0
LINE
8
Black
10
142.181
20
-107.506
11
142.34
21
-107.597
0
LINE
8
Black
10
142.34
20
-107.597
11
142.457
21
-107.737
0
LINE
8
Black
10
142.457
20
-107.737
11
142.52
21
-107.909
0
LINE
8
Black
10
142.52
20
-107.909
11
142.52
21
-108.092
0
LINE
8
Black
10
142.52
20
-108.092
11
142.457
21
-108.264
0
LINE
8
Black
10
142.457
20
-108.264
11
142.34
21
-108.405
0
LINE
8
Black
10
142.34
20
-108.405
11
142.181
21
-108.496
0
LINE
8
Black
10
142.181
20
-108.496
11
142.001
21
-108.528
0
LINE
8
Black
10
142.001
20
-108.528
11
141.821
21
-108.496
0
LINE
8
Black
10
141.821
20
-108.496
11
141.662
21
-108.405
0
LINE
8
Black
10
141.662
20
-108.405
11
141.545
21
-108.264
0
LINE
8
Black
10
141.545
20
-108.264
11
141.482
21
-108.092
0
LINE
8
Black
10
141.482
20
-108.092
11
141.482
21
-107.909
0
LINE
8
Black
10
141.482
20
-107.909
11
141.545
21
-107.737
0
LINE
8
Black
10
141.545
20
-107.737
11
141.662
21
-107.597
0
LINE
8
Black
10
141.662
20
-107.597
11
141.821
21
-107.506
0
LINE
8
Black
10
141.821
20
-107.506
11
142.001
21
-107.474
0
LINE
8
Black
10
142.001
20
-107.474
11
142.181
21
-107.506
0
LINE
8
Black
10
136.181
20
-107.506
11
136.34
21
-107.597
0
LINE
8
Black
10
136.34
20
-107.597
11
136.457
21
-107.737
0
LINE
8
Black
10
136.457
20
-107.737
11
136.52
21
-107.909
0
LINE
8
Black
10
136.52
20
-107.909
11
136.52
21
-108.092
0
LINE
8
Black
10
136.52
20
-108.092
11
136.457
21
-108.264
0
LINE
8
Black
10
136.457
20
-108.264
11
136.34
21
-108.405
0
LINE
8
Black
10
136.34
20
-108.405
11
136.181
21
-108.496
0
LINE
8
Black
10
136.181
20
-108.496
11
136.001
21
-108.528
0
LINE
8
Black
10
136.001
20
-108.528
11
135.821
21
-108.496
0
LINE
8
Black
10
135.821
20
-108.496
11
135.662
21
-108.405
0
LINE
8
Black
10
135.662
20
-108.405
11
135.545
21
-108.264
0
LINE
8
Black
10
135.545
20
-108.264
11
135.482
21
-108.092
0
LINE
8
Black
10
135.482
20
-108.092
11
135.482
21
-107.909
0
LINE
8
Black
10
135.482
20
-107.909
11
135.545
21
-107.737
0
LINE
8
Black
10
135.545
20
-107.737
11
135.662
21
-107.597
0
LINE
8
Black
10
135.662
20
-107.597
11
135.821
21
-107.506
0
LINE
8
Black
10
135.821
20
-107.506
11
136.001
21
-107.474
0
LINE
8
Black
10
136.001
20
-107.474
11
136.181
21
-107.506
0
LINE
8
Black
10
138.181
20
-107.506
11
138.34
21
-107.597
0
LINE
8
Black
10
138.34
20
-107.597
11
138.457
21
-107.737
0
LINE
8
Black
10
138.457
20
-107.737
11
138.52
21
-107.909
0
LINE
8
Black
10
138.52
20
-107.909
11
138.52
21
-108.092
0
LINE
8
Black
10
138.52
20
-108.092
11
138.457
21
-108.264
0
LINE
8
Black
10
138.457
20
-108.264
11
138.34
21
-108.405
0
LINE
8
Black
10
138.34
20
-108.405
11
138.181
21
-108.496
0
LINE
8
Black
10
138.181
20
-108.496
11
138.001
21
-108.528
0
LINE
8
Black
10
138.001
20
-108.528
11
137.821
21
-108.496
0
LINE
8
Black
10
137.821
20
-108.496
11
137.662
21
-108.405
0
LINE
8
Black
10
137.662
20
-108.405
11
137.545
21
-108.264
0
LINE
8
Black
10
137.545
20
-108.264
11
137.482
21
-108.092
0
LINE
8
Black
10
137.482
20
-108.092
11
137.482
21
-107.909
0
LINE
8
Black
10
137.482
20
-107.909
11
137.545
21
-107.737
0
LINE
8
Black
10
137.545
20
-107.737
11
137.662
21
-107.597
0
LINE
8
Black
10
137.662
20
-107.597
11
137.821
21
-107.506
0
LINE
8
Black
10
137.821
20
-107.506
11
138.001
21
-107.474
0
LINE
8
Black
10
138.001
20
-107.474
11
138.181
21
-107.506
0
LINE
8
Black
10
140.181
20
-107.506
11
140.34
21
-107.597
0
LINE
8
Black
10
140.34
20
-107.597
11
140.457
21
-107.737
0
LINE
8
Black
10
140.457
20
-107.737
11
140.52
21
-107.909
0
LINE
8
Black
10
140.52
20
-107.909
11
140.52
21
-108.092
0
LINE
8
Black
10
140.52
20
-108.092
11
140.457
21
-108.264
0
LINE
8
Black
10
140.457
20
-108.264
11
140.34
21
-108.405
0
LINE
8
Black
10
140.34
20
-108.405
11
140.181
21
-108.496
0
LINE
8
Black
10
140.181
20
-108.496
11
140.001
21
-108.528
0
LINE
8
Black
10
140.001
20
-108.528
11
139.821
21
-108.496
0
LINE
8
Black
10
139.821
20
-108.496
11
139.662
21
-108.405
0
LINE
8
Black
10
139.662
20
-108.405
11
139.545
21
-108.264
0
LINE
8
Black
10
139.545
20
-108.264
11
139.482
21
-108.092
0
LINE
8
Black
10
139.482
20
-108.092
11
139.482
21
-107.909
0
LINE
8
Black
10
139.482
20
-107.909
11
139.545
21
-107.737
0
LINE
8
Black
10
139.545
20
-107.737
11
139.662
21
-107.597
0
LINE
8
Black
10
139.662
20
-107.597
11
139.821
21
-107.506
0
LINE
8
Black
10
139.821
20
-107.506
11
140.001
21
-107.474
0
LINE
8
Black
10
140.001
20
-107.474
11
140.181
21
-107.506
0
LINE
8
Black
10
148.012
20
-107.476
11
148.526
21
-107.476
0
LINE
8
Black
10
148.526
20
-107.476
11
148.526
21
-108.526
0
LINE
8
Black
10
148.526
20
-108.526
11
148.012
21
-108.526
0
LINE
8
Black
10
148.012
20
-108.526
11
148.001
21
-108.528
0
LINE
8
Black
10
148.001
20
-108.528
11
147.99
21
-108.526
0
LINE
8
Black
10
147.99
20
-108.526
11
147.476
21
-108.526
0
LINE
8
Black
10
147.476
20
-108.526
11
147.476
21
-107.476
0
LINE
8
Black
10
147.476
20
-107.476
11
147.99
21
-107.476
0
LINE
8
Black
10
147.99
20
-107.476
11
148.001
21
-107.474
0
LINE
8
Black
10
148.001
20
-107.474
11
148.012
21
-107.476
0
LINE
8
Black
10
142.501
20
-107.201
11
141.501
21
-107.201
0
LINE
8
Black
10
141.501
20
-107.201
11
141.501
21
-105.601
0
LINE
8
Black
10
141.501
20
-105.601
11
142.501
21
-105.601
0
LINE
8
Black
10
142.501
20
-105.601
11
142.501
21
-107.201
0
LINE
8
Black
10
146.501
20
-107.201
11
145.501
21
-107.201
0
LINE
8
Black
10
145.501
20
-107.201
11
145.501
21
-105.601
0
LINE
8
Black
10
145.501
20
-105.601
11
146.501
21
-105.601
0
LINE
8
Black
10
146.501
20
-105.601
11
146.501
21
-107.201
0
LINE
8
Black
10
138.501
20
-107.201
11
137.501
21
-107.201
0
LINE
8
Black
10
137.501
20
-107.201
11
137.501
21
-105.601
0
LINE
8
Black
10
137.501
20
-105.601
11
138.501
21
-105.601
0
LINE
8
Black
10
138.501
20
-105.601
11
138.501
21
-107.201
0
LINE
8
Black
10
134.501
20
-107.201
11
133.501
21
-107.201
0
LINE
8
Black
10
133.501
20
-107.201
11
133.501
21
-105.601
0
LINE
8
Black
10
133.501
20
-105.601
11
134.501
21
-105.601
0
LINE
8
Black
10
134.501
20
-105.601
11
134.501
21
-107.201
0
LINE
8
Black
10
130.501
20
-107.201
11
129.501
21
-107.201
0
LINE
8
Black
10
129.501
20
-107.201
11
129.501
21
-105.601
0
LINE
8
Black
10
129.501
20
-105.601
11
130.501
21
-105.601
0
LINE
8
Black
10
130.501
20
-105.601
11
130.501
21
-107.201
0
LINE
8
Black
10
148.501
20
-88.4009
11
147.501
21
-88.4009
0
LINE
8
Black
10
147.501
20
-88.4009
11
147.501
21
-86.8009
0
LINE
8
Black
10
147.501
20
-86.8009
11
148.501
21
-86.8009
0
LINE
8
Black
10
148.501
20
-86.8009
11
148.501
21
-88.4009
0
LINE
8
Black
10
140.501
20
-88.4009
11
139.501
21
-88.4009
0
LINE
8
Black
10
139.501
20
-88.4009
11
139.501
21
-86.8009
0
LINE
8
Black
10
139.501
20
-86.8009
11
140.501
21
-86.8009
0
LINE
8
Black
10
140.501
20
-86.8009
11
140.501
21
-88.4009
0
LINE
8
Black
10
136.501
20
-88.4009
11
135.501
21
-88.4009
0
LINE
8
Black
10
135.501
20
-88.4009
11
135.501
21
-86.8009
0
LINE
8
Black
10
135.501
20
-86.8009
11
136.501
21
-86.8009
0
LINE
8
Black
10
136.501
20
-86.8009
11
136.501
21
-88.4009
0
LINE
8
Black
10
144.501
20
-88.4009
11
143.501
21
-88.4009
0
LINE
8
Black
10
143.501
20
-88.4009
11
143.501
21
-86.8009
0
LINE
8
Black
10
143.501
20
-86.8009
11
144.501
21
-86.8009
0
LINE
8
Black
10
144.501
20
-86.8009
11
144.501
21
-88.4009
0
LINE
8
Black
10
132.501
20
-88.4009
11
131.501
21
-88.4009
0
LINE
8
Black
10
131.501
20
-88.4009
11
131.501
21
-86.8009
0
LINE
8
Black
10
131.501
20
-86.8009
11
132.501
21
-86.8009
0
LINE
8
Black
10
132.501
20
-86.8009
11
132.501
21
-88.4009
0
LINE
8
Black
10
146.181
20
-85.5057
11
146.34
21
-85.5972
0
LINE
8
Black
10
146.34
20
-85.5972
11
146.457
21
-85.7374
0
LINE
8
Black
10
146.457
20
-85.7374
11
146.52
21
-85.9094
0
LINE
8
Black
10
146.52
20
-85.9094
11
146.52
21
-86.0924
0
LINE
8
Black
10
146.52
20
-86.0924
11
146.457
21
-86.2644
0
LINE
8
Black
10
146.457
20
-86.2644
11
146.34
21
-86.4046
0
LINE
8
Black
10
146.34
20
-86.4046
11
146.181
21
-86.4961
0
LINE
8
Black
10
146.181
20
-86.4961
11
146.001
21
-86.5279
0
LINE
8
Black
10
146.001
20
-86.5279
11
145.821
21
-86.4961
0
LINE
8
Black
10
145.821
20
-86.4961
11
145.662
21
-86.4046
0
LINE
8
Black
10
145.662
20
-86.4046
11
145.545
21
-86.2644
0
LINE
8
Black
10
145.545
20
-86.2644
11
145.482
21
-86.0924
0
LINE
8
Black
10
145.482
20
-86.0924
11
145.482
21
-85.9094
0
LINE
8
Black
10
145.482
20
-85.9094
11
145.545
21
-85.7374
0
LINE
8
Black
10
145.545
20
-85.7374
11
145.662
21
-85.5972
0
LINE
8
Black
10
145.662
20
-85.5972
11
145.821
21
-85.5057
0
LINE
8
Black
10
145.821
20
-85.5057
11
146.001
21
-85.4739
0
LINE
8
Black
10
146.001
20
-85.4739
11
146.181
21
-85.5057
0
LINE
8
Black
10
140.181
20
-85.5057
11
140.34
21
-85.5972
0
LINE
8
Black
10
140.34
20
-85.5972
11
140.457
21
-85.7374
0
LINE
8
Black
10
140.457
20
-85.7374
11
140.52
21
-85.9094
0
LINE
8
Black
10
140.52
20
-85.9094
11
140.52
21
-86.0924
0
LINE
8
Black
10
140.52
20
-86.0924
11
140.457
21
-86.2644
0
LINE
8
Black
10
140.457
20
-86.2644
11
140.34
21
-86.4046
0
LINE
8
Black
10
140.34
20
-86.4046
11
140.181
21
-86.4961
0
LINE
8
Black
10
140.181
20
-86.4961
11
140.001
21
-86.5279
0
LINE
8
Black
10
140.001
20
-86.5279
11
139.821
21
-86.4961
0
LINE
8
Black
10
139.821
20
-86.4961
11
139.662
21
-86.4046
0
LINE
8
Black
10
139.662
20
-86.4046
11
139.545
21
-86.2644
0
LINE
8
Black
10
139.545
20
-86.2644
11
139.482
21
-86.0924
0
LINE
8
Black
10
139.482
20
-86.0924
11
139.482
21
-85.9094
0
LINE
8
Black
10
139.482
20
-85.9094
11
139.545
21
-85.7374
0
LINE
8
Black
10
139.545
20
-85.7374
11
139.662
21
-85.5972
0
LINE
8
Black
10
139.662
20
-85.5972
11
139.821
21
-85.5057
0
LINE
8
Black
10
139.821
20
-85.5057
11
140.001
21
-85.4739
0
LINE
8
Black
10
140.001
20
-85.4739
11
140.181
21
-85.5057
0
LINE
8
Black
10
138.181
20
-85.5057
11
138.34
21
-85.5972
0
LINE
8
Black
10
138.34
20
-85.5972
11
138.457
21
-85.7374
0
LINE
8
Black
10
138.457
20
-85.7374
11
138.52
21
-85.9094
0
LINE
8
Black
10
138.52
20
-85.9094
11
138.52
21
-86.0924
0
LINE
8
Black
10
138.52
20
-86.0924
11
138.457
21
-86.2644
0
LINE
8
Black
10
138.457
20
-86.2644
11
138.34
21
-86.4046
0
LINE
8
Black
10
138.34
20
-86.4046
11
138.181
21
-86.4961
0
LINE
8
Black
10
138.181
20
-86.4961
11
138.001
21
-86.5279
0
LINE
8
Black
10
138.001
20
-86.5279
11
137.821
21
-86.4961
0
LINE
8
Black
10
137.821
20
-86.4961
11
137.662
21
-86.4046
0
LINE
8
Black
10
137.662
20
-86.4046
11
137.545
21
-86.2644
0
LINE
8
Black
10
137.545
20
-86.2644
11
137.482
21
-86.0924
0
LINE
8
Black
10
137.482
20
-86.0924
11
137.482
21
-85.9094
0
LINE
8
Black
10
137.482
20
-85.9094
11
137.545
21
-85.7374
0
LINE
8
Black
10
137.545
20
-85.7374
11
137.662
21
-85.5972
0
LINE
8
Black
10
137.662
20
-85.5972
11
137.821
21
-85.5057
0
LINE
8
Black
10
137.821
20
-85.5057
11
138.001
21
-85.4739
0
LINE
8
Black
10
138.001
20
-85.4739
11
138.181
21
-85.5057
0
LINE
8
Black
10
136.181
20
-85.5057
11
136.34
21
-85.5972
0
LINE
8
Black
10
136.34
20
-85.5972
11
136.457
21
-85.7374
0
LINE
8
Black
10
136.457
20
-85.7374
11
136.52
21
-85.9094
0
LINE
8
Black
10
136.52
20
-85.9094
11
136.52
21
-86.0924
0
LINE
8
Black
10
136.52
20
-86.0924
11
136.457
21
-86.2644
0
LINE
8
Black
10
136.457
20
-86.2644
11
136.34
21
-86.4046
0
LINE
8
Black
10
136.34
20
-86.4046
11
136.181
21
-86.4961
0
LINE
8
Black
10
136.181
20
-86.4961
11
136.001
21
-86.5279
0
LINE
8
Black
10
136.001
20
-86.5279
11
135.821
21
-86.4961
0
LINE
8
Black
10
135.821
20
-86.4961
11
135.662
21
-86.4046
0
LINE
8
Black
10
135.662
20
-86.4046
11
135.545
21
-86.2644
0
LINE
8
Black
10
135.545
20
-86.2644
11
135.482
21
-86.0924
0
LINE
8
Black
10
135.482
20
-86.0924
11
135.482
21
-85.9094
0
LINE
8
Black
10
135.482
20
-85.9094
11
135.545
21
-85.7374
0
LINE
8
Black
10
135.545
20
-85.7374
11
135.662
21
-85.5972
0
LINE
8
Black
10
135.662
20
-85.5972
11
135.821
21
-85.5057
0
LINE
8
Black
10
135.821
20
-85.5057
11
136.001
21
-85.4739
0
LINE
8
Black
10
136.001
20
-85.4739
11
136.181
21
-85.5057
0
LINE
8
Black
10
142.181
20
-85.5057
11
142.34
21
-85.5972
0
LINE
8
Black
10
142.34
20
-85.5972
11
142.457
21
-85.7374
0
LINE
8
Black
10
142.457
20
-85.7374
11
142.52
21
-85.9094
0
LINE
8
Black
10
142.52
20
-85.9094
11
142.52
21
-86.0924
0
LINE
8
Black
10
142.52
20
-86.0924
11
142.457
21
-86.2644
0
LINE
8
Black
10
142.457
20
-86.2644
11
142.34
21
-86.4046
0
LINE
8
Black
10
142.34
20
-86.4046
11
142.181
21
-86.4961
0
LINE
8
Black
10
142.181
20
-86.4961
11
142.001
21
-86.5279
0
LINE
8
Black
10
142.001
20
-86.5279
11
141.821
21
-86.4961
0
LINE
8
Black
10
141.821
20
-86.4961
11
141.662
21
-86.4046
0
LINE
8
Black
10
141.662
20
-86.4046
11
141.545
21
-86.2644
0
LINE
8
Black
10
141.545
20
-86.2644
11
141.482
21
-86.0924
0
LINE
8
Black
10
141.482
20
-86.0924
11
141.482
21
-85.9094
0
LINE
8
Black
10
141.482
20
-85.9094
11
141.545
21
-85.7374
0
LINE
8
Black
10
141.545
20
-85.7374
11
141.662
21
-85.5972
0
LINE
8
Black
10
141.662
20
-85.5972
11
141.821
21
-85.5057
0
LINE
8
Black
10
141.821
20
-85.5057
11
142.001
21
-85.4739
0
LINE
8
Black
10
142.001
20
-85.4739
11
142.181
21
-85.5057
0
LINE
8
Black
10
144.181
20
-85.5057
11
144.34
21
-85.5972
0
LINE
8
Black
10
144.34
20
-85.5972
11
144.457
21
-85.7374
0
LINE
8
Black
10
144.457
20
-85.7374
11
144.52
21
-85.9094
0
LINE
8
Black
10
144.52
20
-85.9094
11
144.52
21
-86.0924
0
LINE
8
Black
10
144.52
20
-86.0924
11
144.457
21
-86.2644
0
LINE
8
Black
10
144.457
20
-86.2644
11
144.34
21
-86.4046
0
LINE
8
Black
10
144.34
20
-86.4046
11
144.181
21
-86.4961
0
LINE
8
Black
10
144.181
20
-86.4961
11
144.001
21
-86.5279
0
LINE
8
Black
10
144.001
20
-86.5279
11
143.821
21
-86.4961
0
LINE
8
Black
10
143.821
20
-86.4961
11
143.662
21
-86.4046
0
LINE
8
Black
10
143.662
20
-86.4046
11
143.545
21
-86.2644
0
LINE
8
Black
10
143.545
20
-86.2644
11
143.482
21
-86.0924
0
LINE
8
Black
10
143.482
20
-86.0924
11
143.482
21
-85.9094
0
LINE
8
Black
10
143.482
20
-85.9094
11
143.545
21
-85.7374
0
LINE
8
Black
10
143.545
20
-85.7374
11
143.662
21
-85.5972
0
LINE
8
Black
10
143.662
20
-85.5972
11
143.821
21
-85.5057
0
LINE
8
Black
10
143.821
20
-85.5057
11
144.001
21
-85.4739
0
LINE
8
Black
10
144.001
20
-85.4739
11
144.181
21
-85.5057
0
LINE
8
Black
10
132.181
20
-85.5057
11
132.34
21
-85.5972
0
LINE
8
Black
10
132.34
20
-85.5972
11
132.457
21
-85.7374
0
LINE
8
Black
10
132.457
20
-85.7374
11
132.52
21
-85.9094
0
LINE
8
Black
10
132.52
20
-85.9094
11
132.52
21
-86.0924
0
LINE
8
Black
10
132.52
20
-86.0924
11
132.457
21
-86.2644
0
LINE
8
Black
10
132.457
20
-86.2644
11
132.34
21
-86.4046
0
LINE
8
Black
10
132.34
20
-86.4046
11
132.181
21
-86.4961
0
LINE
8
Black
10
132.181
20
-86.4961
11
132.001
21
-86.5279
0
LINE
8
Black
10
132.001
20
-86.5279
11
131.821
21
-86.4961
0
LINE
8
Black
10
131.821
20
-86.4961
11
131.662
21
-86.4046
0
LINE
8
Black
10
131.662
20
-86.4046
11
131.545
21
-86.2644
0
LINE
8
Black
10
131.545
20
-86.2644
11
131.482
21
-86.0924
0
LINE
8
Black
10
131.482
20
-86.0924
11
131.482
21
-85.9094
0
LINE
8
Black
10
131.482
20
-85.9094
11
131.545
21
-85.7374
0
LINE
8
Black
10
131.545
20
-85.7374
11
131.662
21
-85.5972
0
LINE
8
Black
10
131.662
20
-85.5972
11
131.821
21
-85.5057
0
LINE
8
Black
10
131.821
20
-85.5057
11
132.001
21
-85.4739
0
LINE
8
Black
10
132.001
20
-85.4739
11
132.181
21
-85.5057
0
LINE
8
Black
10
134.181
20
-85.5057
11
134.34
21
-85.5972
0
LINE
8
Black
10
134.34
20
-85.5972
11
134.457
21
-85.7374
0
LINE
8
Black
10
134.457
20
-85.7374
11
134.52
21
-85.9094
0
LINE
8
Black
10
134.52
20
-85.9094
11
134.52
21
-86.0924
0
LINE
8
Black
10
134.52
20
-86.0924
11
134.457
21
-86.2644
0
LINE
8
Black
10
134.457
20
-86.2644
11
134.34
21
-86.4046
0
LINE
8
Black
10
134.34
20
-86.4046
11
134.181
21
-86.4961
0
LINE
8
Black
10
134.181
20
-86.4961
11
134.001
21
-86.5279
0
LINE
8
Black
10
134.001
20
-86.5279
11
133.821
21
-86.4961
0
LINE
8
Black
10
133.821
20
-86.4961
11
133.662
21
-86.4046
0
LINE
8
Black
10
133.662
20
-86.4046
11
133.545
21
-86.2644
0
LINE
8
Black
10
133.545
20
-86.2644
11
133.482
21
-86.0924
0
LINE
8
Black
10
133.482
20
-86.0924
11
133.482
21
-85.9094
0
LINE
8
Black
10
133.482
20
-85.9094
11
133.545
21
-85.7374
0
LINE
8
Black
10
133.545
20
-85.7374
11
133.662
21
-85.5972
0
LINE
8
Black
10
133.662
20
-85.5972
11
133.821
21
-85.5057
0
LINE
8
Black
10
133.821
20
-85.5057
11
134.001
21
-85.4739
0
LINE
8
Black
10
134.001
20
-85.4739
11
134.181
21
-85.5057
0
LINE
8
Black
10
148.012
20
-85.4759
11
148.526
21
-85.4759
0
LINE
8
Black
10
148.526
20
-85.4759
11
148.526
21
-86.5259
0
LINE
8
Black
10
148.526
20
-86.5259
11
148.012
21
-86.5259
0
LINE
8
Black
10
148.012
20
-86.5259
11
148.001
21
-86.5279
0
LINE
8
Black
10
148.001
20
-86.5279
11
147.99
21
-86.5259
0
LINE
8
Black
10
147.99
20
-86.5259
11
147.476
21
-86.5259
0
LINE
8
Black
10
147.476
20
-86.5259
11
147.476
21
-85.4759
0
LINE
8
Black
10
147.476
20
-85.4759
11
147.99
21
-85.4759
0
LINE
8
Black
10
147.99
20
-85.4759
11
148.001
21
-85.4739
0
LINE
8
Black
10
148.001
20
-85.4739
11
148.012
21
-85.4759
0
LINE
8
Black
10
130.181
20
-85.5057
11
130.34
21
-85.5972
0
LINE
8
Black
10
130.34
20
-85.5972
11
130.457
21
-85.7374
0
LINE
8
Black
10
130.457
20
-85.7374
11
130.52
21
-85.9094
0
LINE
8
Black
10
130.52
20
-85.9094
11
130.52
21
-86.0924
0
LINE
8
Black
10
130.52
20
-86.0924
11
130.457
21
-86.2644
0
LINE
8
Black
10
130.457
20
-86.2644
11
130.34
21
-86.4046
0
LINE
8
Black
10
130.34
20
-86.4046
11
130.181
21
-86.4961
0
LINE
8
Black
10
130.181
20
-86.4961
11
130.001
21
-86.5279
0
LINE
8
Black
10
130.001
20
-86.5279
11
129.821
21
-86.4961
0
LINE
8
Black
10
129.821
20
-86.4961
11
129.662
21
-86.4046
0
LINE
8
Black
10
129.662
20
-86.4046
11
129.545
21
-86.2644
0
LINE
8
Black
10
129.545
20
-86.2644
11
129.482
21
-86.0924
0
LINE
8
Black
10
129.482
20
-86.0924
11
129.482
21
-85.9094
0
LINE
8
Black
10
129.482
20
-85.9094
11
129.545
21
-85.7374
0
LINE
8
Black
10
129.545
20
-85.7374
11
129.662
21
-85.5972
0
LINE
8
Black
10
129.662
20
-85.5972
11
129.821
21
-85.5057
0
LINE
8
Black
10
129.821
20
-85.5057
11
130.001
21
-85.4739
0
LINE
8
Black
10
130.001
20
-85.4739
11
130.181
21
-85.5057
0
LINE
8
Black
10
142.501
20
-85.2009
11
141.501
21
-85.2009
0
LINE
8
Black
10
141.501
20
-85.2009
11
141.501
21
-83.6009
0
LINE
8
Black
10
141.501
20
-83.6009
11
142.501
21
-83.6009
0
LINE
8
Black
10
142.501
20
-83.6009
11
142.501
21
-85.2009
0
LINE
8
Black
10
138.501
20
-85.2009
11
137.501
21
-85.2009
0
LINE
8
Black
10
137.501
20
-85.2009
11
137.501
21
-83.6009
0
LINE
8
Black
10
137.501
20
-83.6009
11
138.501
21
-83.6009
0
LINE
8
Black
10
138.501
20
-83.6009
11
138.501
21
-85.2009
0
LINE
8
Black
10
134.501
20
-85.2009
11
133.501
21
-85.2009
0
LINE
8
Black
10
133.501
20
-85.2009
11
133.501
21
-83.6009
0
LINE
8
Black
10
133.501
20
-83.6009
11
134.501
21
-83.6009
0
LINE
8
Black
10
134.501
20
-83.6009
11
134.501
21
-85.2009
0
LINE
8
Black
10
130.501
20
-85.2009
11
129.501
21
-85.2009
0
LINE
8
Black
10
129.501
20
-85.2009
11
129.501
21
-83.6009
0
LINE
8
Black
10
129.501
20
-83.6009
11
130.501
21
-83.6009
0
LINE
8
Black
10
130.501
20
-83.6009
11
130.501
21
-85.2009
0
LINE
8
Black
10
146.501
20
-85.2009
11
145.501
21
-85.2009
0
LINE
8
Black
10
145.501
20
-85.2009
11
145.501
21
-83.6009
0
LINE
8
Black
10
145.501
20
-83.6009
11
146.501
21
-83.6009
0
LINE
8
Black
10
146.501
20
-83.6009
11
146.501
21
-85.2009
  0
ENDSEC
  0
EOF
