  0
SECTION
  2
HEADER
  9
$ANGBASE
  50
0.0
  9
$ANGDIR
  70
  1
  9
$MEASUREMENT
  70
0
  0
ENDSEC
  0
SECTION
  2
TABLES
  0
TABLE
  2
LTYPE
  70
1
  0
LTYPE
  2
CONTINUOUS
  70
0
  3
Solid line
  72
65
  73
0
  40
0.0
  0
ENDTAB
  0
TABLE
  2
STYLE
  70
4
  0
STYLE
  2
KICAD
  70
0
  40
0
  41
1
  42
1
  50
0
  71
0
  3
isocp.shx
  0
STYLE
  2
KICADB
  70
0
  40
0
  41
1
  42
1
  50
0
  71
0
  3
isocp.shx
  0
STYLE
  2
KICADI
  70
0
  40
0
  41
1
  42
1
  50
15
  71
0
  3
isocp.shx
  0
STYLE
  2
KICADBI
  70
0
  40
0
  41
1
  42
1
  50
15
  71
0
  3
isocp.shx
  0
ENDTAB
  0
TABLE
  2
LAYER
  70
30
  0
LAYER
  2
BLACK
  70
0
  62
7
  6
CONTINUOUS
  0
LAYER
  2
GRAY1
  70
0
  62
251
  6
CONTINUOUS
  0
LAYER
  2
GRAY2
  70
0
  62
8
  6
CONTINUOUS
  0
LAYER
  2
GRAY3
  70
0
  62
9
  6
CONTINUOUS
  0
LAYER
  2
WHITE
  70
0
  62
7
  6
CONTINUOUS
  0
LAYER
  2
LYELLOW
  70
0
  62
51
  6
CONTINUOUS
  0
LAYER
  2
BLUE1
  70
0
  62
178
  6
CONTINUOUS
  0
LAYER
  2
GREEN1
  70
0
  62
98
  6
CONTINUOUS
  0
LAYER
  2
CYAN1
  70
0
  62
138
  6
CONTINUOUS
  0
LAYER
  2
RED1
  70
0
  62
18
  6
CONTINUOUS
  0
LAYER
  2
MAGENTA1
  70
0
  62
228
  6
CONTINUOUS
  0
LAYER
  2
BROWN1
  70
0
  62
58
  6
CONTINUOUS
  0
LAYER
  2
BLUE2
  70
0
  62
5
  6
CONTINUOUS
  0
LAYER
  2
GREEN2
  70
0
  62
3
  6
CONTINUOUS
  0
LAYER
  2
CYAN2
  70
0
  62
4
  6
CONTINUOUS
  0
LAYER
  2
RED2
  70
0
  62
1
  6
CONTINUOUS
  0
LAYER
  2
MAGENTA2
  70
0
  62
6
  6
CONTINUOUS
  0
LAYER
  2
BROWN2
  70
0
  62
54
  6
CONTINUOUS
  0
LAYER
  2
BLUE3
  70
0
  62
171
  6
CONTINUOUS
  0
LAYER
  2
GREEN3
  70
0
  62
91
  6
CONTINUOUS
  0
LAYER
  2
CYAN3
  70
0
  62
131
  6
CONTINUOUS
  0
LAYER
  2
RED3
  70
0
  62
11
  6
CONTINUOUS
  0
LAYER
  2
MAGENTA3
  70
0
  62
221
  6
CONTINUOUS
  0
LAYER
  2
YELLOW3
  70
0
  62
2
  6
CONTINUOUS
  0
LAYER
  2
BLUE4
  70
0
  62
5
  6
CONTINUOUS
  0
LAYER
  2
GREEN4
  70
0
  62
3
  6
CONTINUOUS
  0
LAYER
  2
CYAN4
  70
0
  62
4
  6
CONTINUOUS
  0
LAYER
  2
RED4
  70
0
  62
1
  6
CONTINUOUS
  0
LAYER
  2
MAGENTA4
  70
0
  62
6
  6
CONTINUOUS
  0
LAYER
  2
YELLOW4
  70
0
  62
2
  6
CONTINUOUS
  0
ENDTAB
  0
ENDSEC
  0
SECTION
  2
ENTITIES
0
LINE
8
Black
10
129.048
20
-110.725
11
129.044
21
-110.726
0
LINE
8
Black
10
129.044
20
-110.726
11
129.035
21
-110.723
0
LINE
8
Black
10
129.035
20
-110.723
11
129.025
21
-110.721
0
LINE
8
Black
10
129.025
20
-110.721
11
129.022
21
-110.72
0
LINE
8
Black
10
129.022
20
-110.72
11
129.019
21
-110.719
0
LINE
8
Black
10
129.019
20
-110.719
11
129.011
21
-110.713
0
LINE
8
Black
10
129.011
20
-110.713
11
129.003
21
-110.708
0
LINE
8
Black
10
129.003
20
-110.708
11
129.001
21
-110.706
0
LINE
8
Black
10
129.001
20
-110.706
11
128.998
21
-110.704
0
LINE
8
Black
10
128.998
20
-110.704
11
128.248
21
-109.954
0
LINE
8
Black
10
128.248
20
-109.954
11
126.348
21
-108.054
0
LINE
8
Black
10
126.348
20
-108.054
11
126.346
21
-108.051
0
LINE
8
Black
10
126.346
20
-108.051
11
126.344
21
-108.049
0
LINE
8
Black
10
126.344
20
-108.049
11
126.339
21
-108.041
0
LINE
8
Black
10
126.339
20
-108.041
11
126.333
21
-108.033
0
LINE
8
Black
10
126.333
20
-108.033
11
126.332
21
-108.029
0
LINE
8
Black
10
126.332
20
-108.029
11
126.331
21
-108.027
0
LINE
8
Black
10
126.331
20
-108.027
11
126.329
21
-108.017
0
LINE
8
Black
10
126.329
20
-108.017
11
126.326
21
-108.007
0
LINE
8
Black
10
126.326
20
-108.007
11
126.327
21
-108.004
0
LINE
8
Black
10
126.327
20
-108.004
11
126.326
21
-108.001
0
LINE
8
Black
10
126.326
20
-108.001
11
126.326
21
-86.0009
0
LINE
8
Black
10
126.326
20
-86.0009
11
126.327
21
-85.9977
0
LINE
8
Black
10
126.327
20
-85.9977
11
126.326
21
-85.9944
0
LINE
8
Black
10
126.326
20
-85.9944
11
126.329
21
-85.9849
0
LINE
8
Black
10
126.329
20
-85.9849
11
126.331
21
-85.9753
0
LINE
8
Black
10
126.331
20
-85.9753
11
126.332
21
-85.9724
0
LINE
8
Black
10
126.332
20
-85.9724
11
126.333
21
-85.9692
0
LINE
8
Black
10
126.333
20
-85.9692
11
126.339
21
-85.9612
0
LINE
8
Black
10
126.339
20
-85.9612
11
126.344
21
-85.9527
0
LINE
8
Black
10
126.344
20
-85.9527
11
126.346
21
-85.9506
0
LINE
8
Black
10
126.346
20
-85.9506
11
126.348
21
-85.9479
0
LINE
8
Black
10
126.348
20
-85.9479
11
128.248
21
-84.0479
0
LINE
8
Black
10
128.248
20
-84.0479
11
128.998
21
-83.2979
0
LINE
8
Black
10
128.998
20
-83.2979
11
129.001
21
-83.296
0
LINE
8
Black
10
129.001
20
-83.296
11
129.003
21
-83.2935
0
LINE
8
Black
10
129.003
20
-83.2935
11
129.011
21
-83.2886
0
LINE
8
Black
10
129.011
20
-83.2886
11
129.019
21
-83.2829
0
LINE
8
Black
10
129.019
20
-83.2829
11
129.022
21
-83.2821
0
LINE
8
Black
10
129.022
20
-83.2821
11
129.025
21
-83.2804
0
LINE
8
Black
10
129.025
20
-83.2804
11
129.035
21
-83.2787
0
LINE
8
Black
10
129.035
20
-83.2787
11
129.044
21
-83.2762
0
LINE
8
Black
10
129.044
20
-83.2762
11
129.048
21
-83.2765
0
LINE
8
Black
10
129.048
20
-83.2765
11
129.051
21
-83.2759
0
LINE
8
Black
10
129.051
20
-83.2759
11
141.751
21
-83.2759
0
LINE
8
Black
10
141.751
20
-83.2759
11
148.951
21
-83.2759
0
LINE
8
Black
10
148.951
20
-83.2759
11
148.954
21
-83.2765
0
LINE
8
Black
10
148.954
20
-83.2765
11
148.958
21
-83.2762
0
LINE
8
Black
10
148.958
20
-83.2762
11
148.967
21
-83.2787
0
LINE
8
Black
10
148.967
20
-83.2787
11
148.977
21
-83.2804
0
LINE
8
Black
10
148.977
20
-83.2804
11
148.98
21
-83.2821
0
LINE
8
Black
10
148.98
20
-83.2821
11
148.983
21
-83.2829
0
LINE
8
Black
10
148.983
20
-83.2829
11
148.991
21
-83.2886
0
LINE
8
Black
10
148.991
20
-83.2886
11
148.999
21
-83.2935
0
LINE
8
Black
10
148.999
20
-83.2935
11
149.001
21
-83.296
0
LINE
8
Black
10
149.001
20
-83.296
11
149.004
21
-83.2979
0
LINE
8
Black
10
149.004
20
-83.2979
11
149.754
21
-84.0479
0
LINE
8
Black
10
149.754
20
-84.0479
11
151.654
21
-85.9479
0
LINE
8
Black
10
151.654
20
-85.9479
11
151.656
21
-85.9506
0
LINE
8
Black
10
151.656
20
-85.9506
11
151.658
21
-85.9527
0
LINE
8
Black
10
151.658
20
-85.9527
11
151.663
21
-85.9612
0
LINE
8
Black
10
151.663
20
-85.9612
11
151.669
21
-85.9692
0
LINE
8
Black
10
151.669
20
-85.9692
11
151.67
21
-85.9724
0
LINE
8
Black
10
151.67
20
-85.9724
11
151.671
21
-85.9753
0
LINE
8
Black
10
151.671
20
-85.9753
11
151.673
21
-85.9849
0
LINE
8
Black
10
151.673
20
-85.9849
11
151.676
21
-85.9944
0
LINE
8
Black
10
151.676
20
-85.9944
11
151.675
21
-85.9977
0
LINE
8
Black
10
151.675
20
-85.9977
11
151.676
21
-86.0009
0
LINE
8
Black
10
151.676
20
-86.0009
11
151.676
21
-106.201
0
LINE
8
Black
10
151.676
20
-106.201
11
151.676
21
-108.001
0
LINE
8
Black
10
151.676
20
-108.001
11
151.675
21
-108.004
0
LINE
8
Black
10
151.675
20
-108.004
11
151.676
21
-108.007
0
LINE
8
Black
10
151.676
20
-108.007
11
151.673
21
-108.017
0
LINE
8
Black
10
151.673
20
-108.017
11
151.671
21
-108.027
0
LINE
8
Black
10
151.671
20
-108.027
11
151.67
21
-108.029
0
LINE
8
Black
10
151.67
20
-108.029
11
151.669
21
-108.033
0
LINE
8
Black
10
151.669
20
-108.033
11
151.663
21
-108.041
0
LINE
8
Black
10
151.663
20
-108.041
11
151.658
21
-108.049
0
LINE
8
Black
10
151.658
20
-108.049
11
151.656
21
-108.051
0
LINE
8
Black
10
151.656
20
-108.051
11
151.654
21
-108.054
0
LINE
8
Black
10
151.654
20
-108.054
11
149.754
21
-109.954
0
LINE
8
Black
10
149.754
20
-109.954
11
149.004
21
-110.704
0
LINE
8
Black
10
149.004
20
-110.704
11
149.001
21
-110.706
0
LINE
8
Black
10
149.001
20
-110.706
11
148.999
21
-110.708
0
LINE
8
Black
10
148.999
20
-110.708
11
148.991
21
-110.713
0
LINE
8
Black
10
148.991
20
-110.713
11
148.983
21
-110.719
0
LINE
8
Black
10
148.983
20
-110.719
11
148.98
21
-110.72
0
LINE
8
Black
10
148.98
20
-110.72
11
148.977
21
-110.721
0
LINE
8
Black
10
148.977
20
-110.721
11
148.967
21
-110.723
0
LINE
8
Black
10
148.967
20
-110.723
11
148.958
21
-110.726
0
LINE
8
Black
10
148.958
20
-110.726
11
148.954
21
-110.725
0
LINE
8
Black
10
148.954
20
-110.725
11
148.951
21
-110.726
0
LINE
8
Black
10
148.951
20
-110.726
11
139.001
21
-110.726
0
LINE
8
Black
10
139.001
20
-110.726
11
129.051
21
-110.726
0
LINE
8
Black
10
129.051
20
-110.726
11
129.048
21
-110.725
0
LINE
8
Black
10
128.354
20
-84.154
11
126.476
21
-86.032
0
LINE
8
Black
10
126.476
20
-86.032
11
126.476
21
-107.97
0
LINE
8
Black
10
126.476
20
-107.97
11
128.354
21
-109.848
0
LINE
8
Black
10
128.354
20
-109.848
11
129.082
21
-110.576
0
LINE
8
Black
10
129.082
20
-110.576
11
139.001
21
-110.576
0
LINE
8
Black
10
139.001
20
-110.576
11
148.92
21
-110.576
0
LINE
8
Black
10
148.92
20
-110.576
11
149.648
21
-109.848
0
LINE
8
Black
10
149.648
20
-109.848
11
151.526
21
-107.97
0
LINE
8
Black
10
151.526
20
-107.97
11
151.526
21
-106.201
0
LINE
8
Black
10
151.526
20
-106.201
11
151.526
21
-86.032
0
LINE
8
Black
10
151.526
20
-86.032
11
149.648
21
-84.154
0
LINE
8
Black
10
149.648
20
-84.154
11
148.92
21
-83.4259
0
LINE
8
Black
10
148.92
20
-83.4259
11
141.751
21
-83.4259
0
LINE
8
Black
10
141.751
20
-83.4259
11
129.082
21
-83.4259
0
LINE
8
Black
10
129.082
20
-83.4259
11
128.354
21
-84.154
  0
ENDSEC
  0
EOF
