  0
SECTION
  2
HEADER
  9
$ANGBASE
  50
0.0
  9
$ANGDIR
  70
  1
  9
$MEASUREMENT
  70
0
  0
ENDSEC
  0
SECTION
  2
TABLES
  0
TABLE
  2
LTYPE
  70
1
  0
LTYPE
  2
CONTINUOUS
  70
0
  3
Solid line
  72
65
  73
0
  40
0.0
  0
ENDTAB
  0
TABLE
  2
STYLE
  70
4
  0
STYLE
  2
KICAD
  70
0
  40
0
  41
1
  42
1
  50
0
  71
0
  3
isocp.shx
  0
STYLE
  2
KICADB
  70
0
  40
0
  41
1
  42
1
  50
0
  71
0
  3
isocp.shx
  0
STYLE
  2
KICADI
  70
0
  40
0
  41
1
  42
1
  50
15
  71
0
  3
isocp.shx
  0
STYLE
  2
KICADBI
  70
0
  40
0
  41
1
  42
1
  50
15
  71
0
  3
isocp.shx
  0
ENDTAB
  0
TABLE
  2
LAYER
  70
30
  0
LAYER
  2
BLACK
  70
0
  62
7
  6
CONTINUOUS
  0
LAYER
  2
GRAY1
  70
0
  62
251
  6
CONTINUOUS
  0
LAYER
  2
GRAY2
  70
0
  62
8
  6
CONTINUOUS
  0
LAYER
  2
GRAY3
  70
0
  62
9
  6
CONTINUOUS
  0
LAYER
  2
WHITE
  70
0
  62
7
  6
CONTINUOUS
  0
LAYER
  2
LYELLOW
  70
0
  62
51
  6
CONTINUOUS
  0
LAYER
  2
BLUE1
  70
0
  62
178
  6
CONTINUOUS
  0
LAYER
  2
GREEN1
  70
0
  62
98
  6
CONTINUOUS
  0
LAYER
  2
CYAN1
  70
0
  62
138
  6
CONTINUOUS
  0
LAYER
  2
RED1
  70
0
  62
18
  6
CONTINUOUS
  0
LAYER
  2
MAGENTA1
  70
0
  62
228
  6
CONTINUOUS
  0
LAYER
  2
BROWN1
  70
0
  62
58
  6
CONTINUOUS
  0
LAYER
  2
BLUE2
  70
0
  62
5
  6
CONTINUOUS
  0
LAYER
  2
GREEN2
  70
0
  62
3
  6
CONTINUOUS
  0
LAYER
  2
CYAN2
  70
0
  62
4
  6
CONTINUOUS
  0
LAYER
  2
RED2
  70
0
  62
1
  6
CONTINUOUS
  0
LAYER
  2
MAGENTA2
  70
0
  62
6
  6
CONTINUOUS
  0
LAYER
  2
BROWN2
  70
0
  62
54
  6
CONTINUOUS
  0
LAYER
  2
BLUE3
  70
0
  62
171
  6
CONTINUOUS
  0
LAYER
  2
GREEN3
  70
0
  62
91
  6
CONTINUOUS
  0
LAYER
  2
CYAN3
  70
0
  62
131
  6
CONTINUOUS
  0
LAYER
  2
RED3
  70
0
  62
11
  6
CONTINUOUS
  0
LAYER
  2
MAGENTA3
  70
0
  62
221
  6
CONTINUOUS
  0
LAYER
  2
YELLOW3
  70
0
  62
2
  6
CONTINUOUS
  0
LAYER
  2
BLUE4
  70
0
  62
5
  6
CONTINUOUS
  0
LAYER
  2
GREEN4
  70
0
  62
3
  6
CONTINUOUS
  0
LAYER
  2
CYAN4
  70
0
  62
4
  6
CONTINUOUS
  0
LAYER
  2
RED4
  70
0
  62
1
  6
CONTINUOUS
  0
LAYER
  2
MAGENTA4
  70
0
  62
6
  6
CONTINUOUS
  0
LAYER
  2
YELLOW4
  70
0
  62
2
  6
CONTINUOUS
  0
ENDTAB
  0
ENDSEC
  0
SECTION
  2
ENTITIES
0
LINE
8
Black
10
132.501
20
-110.401
11
131.501
21
-110.401
0
LINE
8
Black
10
131.501
20
-110.401
11
131.501
21
-108.801
0
LINE
8
Black
10
131.501
20
-108.801
11
132.501
21
-108.801
0
LINE
8
Black
10
132.501
20
-108.801
11
132.501
21
-110.401
0
LINE
8
Black
10
136.501
20
-110.401
11
135.501
21
-110.401
0
LINE
8
Black
10
135.501
20
-110.401
11
135.501
21
-108.801
0
LINE
8
Black
10
135.501
20
-108.801
11
136.501
21
-108.801
0
LINE
8
Black
10
136.501
20
-108.801
11
136.501
21
-110.401
0
LINE
8
Black
10
140.501
20
-110.401
11
139.501
21
-110.401
0
LINE
8
Black
10
139.501
20
-110.401
11
139.501
21
-108.801
0
LINE
8
Black
10
139.501
20
-108.801
11
140.501
21
-108.801
0
LINE
8
Black
10
140.501
20
-108.801
11
140.501
21
-110.401
0
LINE
8
Black
10
144.501
20
-110.401
11
143.501
21
-110.401
0
LINE
8
Black
10
143.501
20
-110.401
11
143.501
21
-108.801
0
LINE
8
Black
10
143.501
20
-108.801
11
144.501
21
-108.801
0
LINE
8
Black
10
144.501
20
-108.801
11
144.501
21
-110.401
0
LINE
8
Black
10
148.501
20
-110.401
11
147.501
21
-110.401
0
LINE
8
Black
10
147.501
20
-110.401
11
147.501
21
-108.801
0
LINE
8
Black
10
147.501
20
-108.801
11
148.501
21
-108.801
0
LINE
8
Black
10
148.501
20
-108.801
11
148.501
21
-110.401
0
LINE
8
Black
10
130.164
20
-107.553
11
130.307
21
-107.636
0
LINE
8
Black
10
130.307
20
-107.636
11
130.414
21
-107.763
0
LINE
8
Black
10
130.414
20
-107.763
11
130.471
21
-107.918
0
LINE
8
Black
10
130.471
20
-107.918
11
130.471
21
-108.084
0
LINE
8
Black
10
130.471
20
-108.084
11
130.414
21
-108.239
0
LINE
8
Black
10
130.414
20
-108.239
11
130.307
21
-108.366
0
LINE
8
Black
10
130.307
20
-108.366
11
130.164
21
-108.449
0
LINE
8
Black
10
130.164
20
-108.449
11
130.001
21
-108.478
0
LINE
8
Black
10
130.001
20
-108.478
11
129.838
21
-108.449
0
LINE
8
Black
10
129.838
20
-108.449
11
129.695
21
-108.366
0
LINE
8
Black
10
129.695
20
-108.366
11
129.588
21
-108.239
0
LINE
8
Black
10
129.588
20
-108.239
11
129.531
21
-108.084
0
LINE
8
Black
10
129.531
20
-108.084
11
129.531
21
-107.918
0
LINE
8
Black
10
129.531
20
-107.918
11
129.588
21
-107.763
0
LINE
8
Black
10
129.588
20
-107.763
11
129.695
21
-107.636
0
LINE
8
Black
10
129.695
20
-107.636
11
129.838
21
-107.553
0
LINE
8
Black
10
129.838
20
-107.553
11
130.001
21
-107.524
0
LINE
8
Black
10
130.001
20
-107.524
11
130.164
21
-107.553
0
LINE
8
Black
10
132.164
20
-107.553
11
132.307
21
-107.636
0
LINE
8
Black
10
132.307
20
-107.636
11
132.414
21
-107.763
0
LINE
8
Black
10
132.414
20
-107.763
11
132.471
21
-107.918
0
LINE
8
Black
10
132.471
20
-107.918
11
132.471
21
-108.084
0
LINE
8
Black
10
132.471
20
-108.084
11
132.414
21
-108.239
0
LINE
8
Black
10
132.414
20
-108.239
11
132.307
21
-108.366
0
LINE
8
Black
10
132.307
20
-108.366
11
132.164
21
-108.449
0
LINE
8
Black
10
132.164
20
-108.449
11
132.001
21
-108.478
0
LINE
8
Black
10
132.001
20
-108.478
11
131.838
21
-108.449
0
LINE
8
Black
10
131.838
20
-108.449
11
131.695
21
-108.366
0
LINE
8
Black
10
131.695
20
-108.366
11
131.588
21
-108.239
0
LINE
8
Black
10
131.588
20
-108.239
11
131.531
21
-108.084
0
LINE
8
Black
10
131.531
20
-108.084
11
131.531
21
-107.918
0
LINE
8
Black
10
131.531
20
-107.918
11
131.588
21
-107.763
0
LINE
8
Black
10
131.588
20
-107.763
11
131.695
21
-107.636
0
LINE
8
Black
10
131.695
20
-107.636
11
131.838
21
-107.553
0
LINE
8
Black
10
131.838
20
-107.553
11
132.001
21
-107.524
0
LINE
8
Black
10
132.001
20
-107.524
11
132.164
21
-107.553
0
LINE
8
Black
10
134.164
20
-107.553
11
134.307
21
-107.636
0
LINE
8
Black
10
134.307
20
-107.636
11
134.414
21
-107.763
0
LINE
8
Black
10
134.414
20
-107.763
11
134.471
21
-107.918
0
LINE
8
Black
10
134.471
20
-107.918
11
134.471
21
-108.084
0
LINE
8
Black
10
134.471
20
-108.084
11
134.414
21
-108.239
0
LINE
8
Black
10
134.414
20
-108.239
11
134.307
21
-108.366
0
LINE
8
Black
10
134.307
20
-108.366
11
134.164
21
-108.449
0
LINE
8
Black
10
134.164
20
-108.449
11
134.001
21
-108.478
0
LINE
8
Black
10
134.001
20
-108.478
11
133.838
21
-108.449
0
LINE
8
Black
10
133.838
20
-108.449
11
133.695
21
-108.366
0
LINE
8
Black
10
133.695
20
-108.366
11
133.588
21
-108.239
0
LINE
8
Black
10
133.588
20
-108.239
11
133.531
21
-108.084
0
LINE
8
Black
10
133.531
20
-108.084
11
133.531
21
-107.918
0
LINE
8
Black
10
133.531
20
-107.918
11
133.588
21
-107.763
0
LINE
8
Black
10
133.588
20
-107.763
11
133.695
21
-107.636
0
LINE
8
Black
10
133.695
20
-107.636
11
133.838
21
-107.553
0
LINE
8
Black
10
133.838
20
-107.553
11
134.001
21
-107.524
0
LINE
8
Black
10
134.001
20
-107.524
11
134.164
21
-107.553
0
LINE
8
Black
10
136.164
20
-107.553
11
136.307
21
-107.636
0
LINE
8
Black
10
136.307
20
-107.636
11
136.414
21
-107.763
0
LINE
8
Black
10
136.414
20
-107.763
11
136.471
21
-107.918
0
LINE
8
Black
10
136.471
20
-107.918
11
136.471
21
-108.084
0
LINE
8
Black
10
136.471
20
-108.084
11
136.414
21
-108.239
0
LINE
8
Black
10
136.414
20
-108.239
11
136.307
21
-108.366
0
LINE
8
Black
10
136.307
20
-108.366
11
136.164
21
-108.449
0
LINE
8
Black
10
136.164
20
-108.449
11
136.001
21
-108.478
0
LINE
8
Black
10
136.001
20
-108.478
11
135.838
21
-108.449
0
LINE
8
Black
10
135.838
20
-108.449
11
135.695
21
-108.366
0
LINE
8
Black
10
135.695
20
-108.366
11
135.588
21
-108.239
0
LINE
8
Black
10
135.588
20
-108.239
11
135.531
21
-108.084
0
LINE
8
Black
10
135.531
20
-108.084
11
135.531
21
-107.918
0
LINE
8
Black
10
135.531
20
-107.918
11
135.588
21
-107.763
0
LINE
8
Black
10
135.588
20
-107.763
11
135.695
21
-107.636
0
LINE
8
Black
10
135.695
20
-107.636
11
135.838
21
-107.553
0
LINE
8
Black
10
135.838
20
-107.553
11
136.001
21
-107.524
0
LINE
8
Black
10
136.001
20
-107.524
11
136.164
21
-107.553
0
LINE
8
Black
10
138.164
20
-107.553
11
138.307
21
-107.636
0
LINE
8
Black
10
138.307
20
-107.636
11
138.414
21
-107.763
0
LINE
8
Black
10
138.414
20
-107.763
11
138.471
21
-107.918
0
LINE
8
Black
10
138.471
20
-107.918
11
138.471
21
-108.084
0
LINE
8
Black
10
138.471
20
-108.084
11
138.414
21
-108.239
0
LINE
8
Black
10
138.414
20
-108.239
11
138.307
21
-108.366
0
LINE
8
Black
10
138.307
20
-108.366
11
138.164
21
-108.449
0
LINE
8
Black
10
138.164
20
-108.449
11
138.001
21
-108.478
0
LINE
8
Black
10
138.001
20
-108.478
11
137.838
21
-108.449
0
LINE
8
Black
10
137.838
20
-108.449
11
137.695
21
-108.366
0
LINE
8
Black
10
137.695
20
-108.366
11
137.588
21
-108.239
0
LINE
8
Black
10
137.588
20
-108.239
11
137.531
21
-108.084
0
LINE
8
Black
10
137.531
20
-108.084
11
137.531
21
-107.918
0
LINE
8
Black
10
137.531
20
-107.918
11
137.588
21
-107.763
0
LINE
8
Black
10
137.588
20
-107.763
11
137.695
21
-107.636
0
LINE
8
Black
10
137.695
20
-107.636
11
137.838
21
-107.553
0
LINE
8
Black
10
137.838
20
-107.553
11
138.001
21
-107.524
0
LINE
8
Black
10
138.001
20
-107.524
11
138.164
21
-107.553
0
LINE
8
Black
10
140.164
20
-107.553
11
140.307
21
-107.636
0
LINE
8
Black
10
140.307
20
-107.636
11
140.414
21
-107.763
0
LINE
8
Black
10
140.414
20
-107.763
11
140.471
21
-107.918
0
LINE
8
Black
10
140.471
20
-107.918
11
140.471
21
-108.084
0
LINE
8
Black
10
140.471
20
-108.084
11
140.414
21
-108.239
0
LINE
8
Black
10
140.414
20
-108.239
11
140.307
21
-108.366
0
LINE
8
Black
10
140.307
20
-108.366
11
140.164
21
-108.449
0
LINE
8
Black
10
140.164
20
-108.449
11
140.001
21
-108.478
0
LINE
8
Black
10
140.001
20
-108.478
11
139.838
21
-108.449
0
LINE
8
Black
10
139.838
20
-108.449
11
139.695
21
-108.366
0
LINE
8
Black
10
139.695
20
-108.366
11
139.588
21
-108.239
0
LINE
8
Black
10
139.588
20
-108.239
11
139.531
21
-108.084
0
LINE
8
Black
10
139.531
20
-108.084
11
139.531
21
-107.918
0
LINE
8
Black
10
139.531
20
-107.918
11
139.588
21
-107.763
0
LINE
8
Black
10
139.588
20
-107.763
11
139.695
21
-107.636
0
LINE
8
Black
10
139.695
20
-107.636
11
139.838
21
-107.553
0
LINE
8
Black
10
139.838
20
-107.553
11
140.001
21
-107.524
0
LINE
8
Black
10
140.001
20
-107.524
11
140.164
21
-107.553
0
LINE
8
Black
10
142.164
20
-107.553
11
142.307
21
-107.636
0
LINE
8
Black
10
142.307
20
-107.636
11
142.414
21
-107.763
0
LINE
8
Black
10
142.414
20
-107.763
11
142.471
21
-107.918
0
LINE
8
Black
10
142.471
20
-107.918
11
142.471
21
-108.084
0
LINE
8
Black
10
142.471
20
-108.084
11
142.414
21
-108.239
0
LINE
8
Black
10
142.414
20
-108.239
11
142.307
21
-108.366
0
LINE
8
Black
10
142.307
20
-108.366
11
142.164
21
-108.449
0
LINE
8
Black
10
142.164
20
-108.449
11
142.001
21
-108.478
0
LINE
8
Black
10
142.001
20
-108.478
11
141.838
21
-108.449
0
LINE
8
Black
10
141.838
20
-108.449
11
141.695
21
-108.366
0
LINE
8
Black
10
141.695
20
-108.366
11
141.588
21
-108.239
0
LINE
8
Black
10
141.588
20
-108.239
11
141.531
21
-108.084
0
LINE
8
Black
10
141.531
20
-108.084
11
141.531
21
-107.918
0
LINE
8
Black
10
141.531
20
-107.918
11
141.588
21
-107.763
0
LINE
8
Black
10
141.588
20
-107.763
11
141.695
21
-107.636
0
LINE
8
Black
10
141.695
20
-107.636
11
141.838
21
-107.553
0
LINE
8
Black
10
141.838
20
-107.553
11
142.001
21
-107.524
0
LINE
8
Black
10
142.001
20
-107.524
11
142.164
21
-107.553
0
LINE
8
Black
10
144.164
20
-107.553
11
144.307
21
-107.636
0
LINE
8
Black
10
144.307
20
-107.636
11
144.414
21
-107.763
0
LINE
8
Black
10
144.414
20
-107.763
11
144.471
21
-107.918
0
LINE
8
Black
10
144.471
20
-107.918
11
144.471
21
-108.084
0
LINE
8
Black
10
144.471
20
-108.084
11
144.414
21
-108.239
0
LINE
8
Black
10
144.414
20
-108.239
11
144.307
21
-108.366
0
LINE
8
Black
10
144.307
20
-108.366
11
144.164
21
-108.449
0
LINE
8
Black
10
144.164
20
-108.449
11
144.001
21
-108.478
0
LINE
8
Black
10
144.001
20
-108.478
11
143.838
21
-108.449
0
LINE
8
Black
10
143.838
20
-108.449
11
143.695
21
-108.366
0
LINE
8
Black
10
143.695
20
-108.366
11
143.588
21
-108.239
0
LINE
8
Black
10
143.588
20
-108.239
11
143.531
21
-108.084
0
LINE
8
Black
10
143.531
20
-108.084
11
143.531
21
-107.918
0
LINE
8
Black
10
143.531
20
-107.918
11
143.588
21
-107.763
0
LINE
8
Black
10
143.588
20
-107.763
11
143.695
21
-107.636
0
LINE
8
Black
10
143.695
20
-107.636
11
143.838
21
-107.553
0
LINE
8
Black
10
143.838
20
-107.553
11
144.001
21
-107.524
0
LINE
8
Black
10
144.001
20
-107.524
11
144.164
21
-107.553
0
LINE
8
Black
10
146.164
20
-107.553
11
146.307
21
-107.636
0
LINE
8
Black
10
146.307
20
-107.636
11
146.414
21
-107.763
0
LINE
8
Black
10
146.414
20
-107.763
11
146.471
21
-107.918
0
LINE
8
Black
10
146.471
20
-107.918
11
146.471
21
-108.084
0
LINE
8
Black
10
146.471
20
-108.084
11
146.414
21
-108.239
0
LINE
8
Black
10
146.414
20
-108.239
11
146.307
21
-108.366
0
LINE
8
Black
10
146.307
20
-108.366
11
146.164
21
-108.449
0
LINE
8
Black
10
146.164
20
-108.449
11
146.001
21
-108.478
0
LINE
8
Black
10
146.001
20
-108.478
11
145.838
21
-108.449
0
LINE
8
Black
10
145.838
20
-108.449
11
145.695
21
-108.366
0
LINE
8
Black
10
145.695
20
-108.366
11
145.588
21
-108.239
0
LINE
8
Black
10
145.588
20
-108.239
11
145.531
21
-108.084
0
LINE
8
Black
10
145.531
20
-108.084
11
145.531
21
-107.918
0
LINE
8
Black
10
145.531
20
-107.918
11
145.588
21
-107.763
0
LINE
8
Black
10
145.588
20
-107.763
11
145.695
21
-107.636
0
LINE
8
Black
10
145.695
20
-107.636
11
145.838
21
-107.553
0
LINE
8
Black
10
145.838
20
-107.553
11
146.001
21
-107.524
0
LINE
8
Black
10
146.001
20
-107.524
11
146.164
21
-107.553
0
LINE
8
Black
10
148.164
20
-107.553
11
148.307
21
-107.636
0
LINE
8
Black
10
148.307
20
-107.636
11
148.414
21
-107.763
0
LINE
8
Black
10
148.414
20
-107.763
11
148.471
21
-107.918
0
LINE
8
Black
10
148.471
20
-107.918
11
148.471
21
-108.084
0
LINE
8
Black
10
148.471
20
-108.084
11
148.414
21
-108.239
0
LINE
8
Black
10
148.414
20
-108.239
11
148.307
21
-108.366
0
LINE
8
Black
10
148.307
20
-108.366
11
148.164
21
-108.449
0
LINE
8
Black
10
148.164
20
-108.449
11
148.001
21
-108.478
0
LINE
8
Black
10
148.001
20
-108.478
11
147.838
21
-108.449
0
LINE
8
Black
10
147.838
20
-108.449
11
147.695
21
-108.366
0
LINE
8
Black
10
147.695
20
-108.366
11
147.588
21
-108.239
0
LINE
8
Black
10
147.588
20
-108.239
11
147.531
21
-108.084
0
LINE
8
Black
10
147.531
20
-108.084
11
147.531
21
-107.918
0
LINE
8
Black
10
147.531
20
-107.918
11
147.588
21
-107.763
0
LINE
8
Black
10
147.588
20
-107.763
11
147.695
21
-107.636
0
LINE
8
Black
10
147.695
20
-107.636
11
147.838
21
-107.553
0
LINE
8
Black
10
147.838
20
-107.553
11
148.001
21
-107.524
0
LINE
8
Black
10
148.001
20
-107.524
11
148.164
21
-107.553
0
LINE
8
Black
10
130.501
20
-107.201
11
129.501
21
-107.201
0
LINE
8
Black
10
129.501
20
-107.201
11
129.501
21
-105.601
0
LINE
8
Black
10
129.501
20
-105.601
11
130.501
21
-105.601
0
LINE
8
Black
10
130.501
20
-105.601
11
130.501
21
-107.201
0
LINE
8
Black
10
146.501
20
-107.201
11
145.501
21
-107.201
0
LINE
8
Black
10
145.501
20
-107.201
11
145.501
21
-105.601
0
LINE
8
Black
10
145.501
20
-105.601
11
146.501
21
-105.601
0
LINE
8
Black
10
146.501
20
-105.601
11
146.501
21
-107.201
0
LINE
8
Black
10
134.501
20
-107.201
11
133.501
21
-107.201
0
LINE
8
Black
10
133.501
20
-107.201
11
133.501
21
-105.601
0
LINE
8
Black
10
133.501
20
-105.601
11
134.501
21
-105.601
0
LINE
8
Black
10
134.501
20
-105.601
11
134.501
21
-107.201
0
LINE
8
Black
10
142.501
20
-107.201
11
141.501
21
-107.201
0
LINE
8
Black
10
141.501
20
-107.201
11
141.501
21
-105.601
0
LINE
8
Black
10
141.501
20
-105.601
11
142.501
21
-105.601
0
LINE
8
Black
10
142.501
20
-105.601
11
142.501
21
-107.201
0
LINE
8
Black
10
138.501
20
-107.201
11
137.501
21
-107.201
0
LINE
8
Black
10
137.501
20
-107.201
11
137.501
21
-105.601
0
LINE
8
Black
10
137.501
20
-105.601
11
138.501
21
-105.601
0
LINE
8
Black
10
138.501
20
-105.601
11
138.501
21
-107.201
0
LINE
8
Black
10
148.501
20
-88.4009
11
147.501
21
-88.4009
0
LINE
8
Black
10
147.501
20
-88.4009
11
147.501
21
-86.8009
0
LINE
8
Black
10
147.501
20
-86.8009
11
148.501
21
-86.8009
0
LINE
8
Black
10
148.501
20
-86.8009
11
148.501
21
-88.4009
0
LINE
8
Black
10
144.501
20
-88.4009
11
143.501
21
-88.4009
0
LINE
8
Black
10
143.501
20
-88.4009
11
143.501
21
-86.8009
0
LINE
8
Black
10
143.501
20
-86.8009
11
144.501
21
-86.8009
0
LINE
8
Black
10
144.501
20
-86.8009
11
144.501
21
-88.4009
0
LINE
8
Black
10
140.501
20
-88.4009
11
139.501
21
-88.4009
0
LINE
8
Black
10
139.501
20
-88.4009
11
139.501
21
-86.8009
0
LINE
8
Black
10
139.501
20
-86.8009
11
140.501
21
-86.8009
0
LINE
8
Black
10
140.501
20
-86.8009
11
140.501
21
-88.4009
0
LINE
8
Black
10
136.501
20
-88.4009
11
135.501
21
-88.4009
0
LINE
8
Black
10
135.501
20
-88.4009
11
135.501
21
-86.8009
0
LINE
8
Black
10
135.501
20
-86.8009
11
136.501
21
-86.8009
0
LINE
8
Black
10
136.501
20
-86.8009
11
136.501
21
-88.4009
0
LINE
8
Black
10
132.501
20
-88.4009
11
131.501
21
-88.4009
0
LINE
8
Black
10
131.501
20
-88.4009
11
131.501
21
-86.8009
0
LINE
8
Black
10
131.501
20
-86.8009
11
132.501
21
-86.8009
0
LINE
8
Black
10
132.501
20
-86.8009
11
132.501
21
-88.4009
0
LINE
8
Black
10
144.164
20
-85.5529
11
144.307
21
-85.6357
0
LINE
8
Black
10
144.307
20
-85.6357
11
144.414
21
-85.7625
0
LINE
8
Black
10
144.414
20
-85.7625
11
144.471
21
-85.9181
0
LINE
8
Black
10
144.471
20
-85.9181
11
144.471
21
-86.0837
0
LINE
8
Black
10
144.471
20
-86.0837
11
144.414
21
-86.2393
0
LINE
8
Black
10
144.414
20
-86.2393
11
144.307
21
-86.3662
0
LINE
8
Black
10
144.307
20
-86.3662
11
144.164
21
-86.449
0
LINE
8
Black
10
144.164
20
-86.449
11
144.001
21
-86.4777
0
LINE
8
Black
10
144.001
20
-86.4777
11
143.838
21
-86.449
0
LINE
8
Black
10
143.838
20
-86.449
11
143.695
21
-86.3662
0
LINE
8
Black
10
143.695
20
-86.3662
11
143.588
21
-86.2393
0
LINE
8
Black
10
143.588
20
-86.2393
11
143.531
21
-86.0837
0
LINE
8
Black
10
143.531
20
-86.0837
11
143.531
21
-85.9181
0
LINE
8
Black
10
143.531
20
-85.9181
11
143.588
21
-85.7625
0
LINE
8
Black
10
143.588
20
-85.7625
11
143.695
21
-85.6357
0
LINE
8
Black
10
143.695
20
-85.6357
11
143.838
21
-85.5529
0
LINE
8
Black
10
143.838
20
-85.5529
11
144.001
21
-85.5241
0
LINE
8
Black
10
144.001
20
-85.5241
11
144.164
21
-85.5529
0
LINE
8
Black
10
146.164
20
-85.5529
11
146.307
21
-85.6357
0
LINE
8
Black
10
146.307
20
-85.6357
11
146.414
21
-85.7625
0
LINE
8
Black
10
146.414
20
-85.7625
11
146.471
21
-85.9181
0
LINE
8
Black
10
146.471
20
-85.9181
11
146.471
21
-86.0837
0
LINE
8
Black
10
146.471
20
-86.0837
11
146.414
21
-86.2393
0
LINE
8
Black
10
146.414
20
-86.2393
11
146.307
21
-86.3662
0
LINE
8
Black
10
146.307
20
-86.3662
11
146.164
21
-86.449
0
LINE
8
Black
10
146.164
20
-86.449
11
146.001
21
-86.4777
0
LINE
8
Black
10
146.001
20
-86.4777
11
145.838
21
-86.449
0
LINE
8
Black
10
145.838
20
-86.449
11
145.695
21
-86.3662
0
LINE
8
Black
10
145.695
20
-86.3662
11
145.588
21
-86.2393
0
LINE
8
Black
10
145.588
20
-86.2393
11
145.531
21
-86.0837
0
LINE
8
Black
10
145.531
20
-86.0837
11
145.531
21
-85.9181
0
LINE
8
Black
10
145.531
20
-85.9181
11
145.588
21
-85.7625
0
LINE
8
Black
10
145.588
20
-85.7625
11
145.695
21
-85.6357
0
LINE
8
Black
10
145.695
20
-85.6357
11
145.838
21
-85.5529
0
LINE
8
Black
10
145.838
20
-85.5529
11
146.001
21
-85.5241
0
LINE
8
Black
10
146.001
20
-85.5241
11
146.164
21
-85.5529
0
LINE
8
Black
10
142.164
20
-85.5529
11
142.307
21
-85.6357
0
LINE
8
Black
10
142.307
20
-85.6357
11
142.414
21
-85.7625
0
LINE
8
Black
10
142.414
20
-85.7625
11
142.471
21
-85.9181
0
LINE
8
Black
10
142.471
20
-85.9181
11
142.471
21
-86.0837
0
LINE
8
Black
10
142.471
20
-86.0837
11
142.414
21
-86.2393
0
LINE
8
Black
10
142.414
20
-86.2393
11
142.307
21
-86.3662
0
LINE
8
Black
10
142.307
20
-86.3662
11
142.164
21
-86.449
0
LINE
8
Black
10
142.164
20
-86.449
11
142.001
21
-86.4777
0
LINE
8
Black
10
142.001
20
-86.4777
11
141.838
21
-86.449
0
LINE
8
Black
10
141.838
20
-86.449
11
141.695
21
-86.3662
0
LINE
8
Black
10
141.695
20
-86.3662
11
141.588
21
-86.2393
0
LINE
8
Black
10
141.588
20
-86.2393
11
141.531
21
-86.0837
0
LINE
8
Black
10
141.531
20
-86.0837
11
141.531
21
-85.9181
0
LINE
8
Black
10
141.531
20
-85.9181
11
141.588
21
-85.7625
0
LINE
8
Black
10
141.588
20
-85.7625
11
141.695
21
-85.6357
0
LINE
8
Black
10
141.695
20
-85.6357
11
141.838
21
-85.5529
0
LINE
8
Black
10
141.838
20
-85.5529
11
142.001
21
-85.5241
0
LINE
8
Black
10
142.001
20
-85.5241
11
142.164
21
-85.5529
0
LINE
8
Black
10
148.164
20
-85.5529
11
148.307
21
-85.6357
0
LINE
8
Black
10
148.307
20
-85.6357
11
148.414
21
-85.7625
0
LINE
8
Black
10
148.414
20
-85.7625
11
148.471
21
-85.9181
0
LINE
8
Black
10
148.471
20
-85.9181
11
148.471
21
-86.0837
0
LINE
8
Black
10
148.471
20
-86.0837
11
148.414
21
-86.2393
0
LINE
8
Black
10
148.414
20
-86.2393
11
148.307
21
-86.3662
0
LINE
8
Black
10
148.307
20
-86.3662
11
148.164
21
-86.449
0
LINE
8
Black
10
148.164
20
-86.449
11
148.001
21
-86.4777
0
LINE
8
Black
10
148.001
20
-86.4777
11
147.838
21
-86.449
0
LINE
8
Black
10
147.838
20
-86.449
11
147.695
21
-86.3662
0
LINE
8
Black
10
147.695
20
-86.3662
11
147.588
21
-86.2393
0
LINE
8
Black
10
147.588
20
-86.2393
11
147.531
21
-86.0837
0
LINE
8
Black
10
147.531
20
-86.0837
11
147.531
21
-85.9181
0
LINE
8
Black
10
147.531
20
-85.9181
11
147.588
21
-85.7625
0
LINE
8
Black
10
147.588
20
-85.7625
11
147.695
21
-85.6357
0
LINE
8
Black
10
147.695
20
-85.6357
11
147.838
21
-85.5529
0
LINE
8
Black
10
147.838
20
-85.5529
11
148.001
21
-85.5241
0
LINE
8
Black
10
148.001
20
-85.5241
11
148.164
21
-85.5529
0
LINE
8
Black
10
140.164
20
-85.5529
11
140.307
21
-85.6357
0
LINE
8
Black
10
140.307
20
-85.6357
11
140.414
21
-85.7625
0
LINE
8
Black
10
140.414
20
-85.7625
11
140.471
21
-85.9181
0
LINE
8
Black
10
140.471
20
-85.9181
11
140.471
21
-86.0837
0
LINE
8
Black
10
140.471
20
-86.0837
11
140.414
21
-86.2393
0
LINE
8
Black
10
140.414
20
-86.2393
11
140.307
21
-86.3662
0
LINE
8
Black
10
140.307
20
-86.3662
11
140.164
21
-86.449
0
LINE
8
Black
10
140.164
20
-86.449
11
140.001
21
-86.4777
0
LINE
8
Black
10
140.001
20
-86.4777
11
139.838
21
-86.449
0
LINE
8
Black
10
139.838
20
-86.449
11
139.695
21
-86.3662
0
LINE
8
Black
10
139.695
20
-86.3662
11
139.588
21
-86.2393
0
LINE
8
Black
10
139.588
20
-86.2393
11
139.531
21
-86.0837
0
LINE
8
Black
10
139.531
20
-86.0837
11
139.531
21
-85.9181
0
LINE
8
Black
10
139.531
20
-85.9181
11
139.588
21
-85.7625
0
LINE
8
Black
10
139.588
20
-85.7625
11
139.695
21
-85.6357
0
LINE
8
Black
10
139.695
20
-85.6357
11
139.838
21
-85.5529
0
LINE
8
Black
10
139.838
20
-85.5529
11
140.001
21
-85.5241
0
LINE
8
Black
10
140.001
20
-85.5241
11
140.164
21
-85.5529
0
LINE
8
Black
10
130.164
20
-85.5529
11
130.307
21
-85.6357
0
LINE
8
Black
10
130.307
20
-85.6357
11
130.414
21
-85.7625
0
LINE
8
Black
10
130.414
20
-85.7625
11
130.471
21
-85.9181
0
LINE
8
Black
10
130.471
20
-85.9181
11
130.471
21
-86.0837
0
LINE
8
Black
10
130.471
20
-86.0837
11
130.414
21
-86.2393
0
LINE
8
Black
10
130.414
20
-86.2393
11
130.307
21
-86.3662
0
LINE
8
Black
10
130.307
20
-86.3662
11
130.164
21
-86.449
0
LINE
8
Black
10
130.164
20
-86.449
11
130.001
21
-86.4777
0
LINE
8
Black
10
130.001
20
-86.4777
11
129.838
21
-86.449
0
LINE
8
Black
10
129.838
20
-86.449
11
129.695
21
-86.3662
0
LINE
8
Black
10
129.695
20
-86.3662
11
129.588
21
-86.2393
0
LINE
8
Black
10
129.588
20
-86.2393
11
129.531
21
-86.0837
0
LINE
8
Black
10
129.531
20
-86.0837
11
129.531
21
-85.9181
0
LINE
8
Black
10
129.531
20
-85.9181
11
129.588
21
-85.7625
0
LINE
8
Black
10
129.588
20
-85.7625
11
129.695
21
-85.6357
0
LINE
8
Black
10
129.695
20
-85.6357
11
129.838
21
-85.5529
0
LINE
8
Black
10
129.838
20
-85.5529
11
130.001
21
-85.5241
0
LINE
8
Black
10
130.001
20
-85.5241
11
130.164
21
-85.5529
0
LINE
8
Black
10
132.164
20
-85.5529
11
132.307
21
-85.6357
0
LINE
8
Black
10
132.307
20
-85.6357
11
132.414
21
-85.7625
0
LINE
8
Black
10
132.414
20
-85.7625
11
132.471
21
-85.9181
0
LINE
8
Black
10
132.471
20
-85.9181
11
132.471
21
-86.0837
0
LINE
8
Black
10
132.471
20
-86.0837
11
132.414
21
-86.2393
0
LINE
8
Black
10
132.414
20
-86.2393
11
132.307
21
-86.3662
0
LINE
8
Black
10
132.307
20
-86.3662
11
132.164
21
-86.449
0
LINE
8
Black
10
132.164
20
-86.449
11
132.001
21
-86.4777
0
LINE
8
Black
10
132.001
20
-86.4777
11
131.838
21
-86.449
0
LINE
8
Black
10
131.838
20
-86.449
11
131.695
21
-86.3662
0
LINE
8
Black
10
131.695
20
-86.3662
11
131.588
21
-86.2393
0
LINE
8
Black
10
131.588
20
-86.2393
11
131.531
21
-86.0837
0
LINE
8
Black
10
131.531
20
-86.0837
11
131.531
21
-85.9181
0
LINE
8
Black
10
131.531
20
-85.9181
11
131.588
21
-85.7625
0
LINE
8
Black
10
131.588
20
-85.7625
11
131.695
21
-85.6357
0
LINE
8
Black
10
131.695
20
-85.6357
11
131.838
21
-85.5529
0
LINE
8
Black
10
131.838
20
-85.5529
11
132.001
21
-85.5241
0
LINE
8
Black
10
132.001
20
-85.5241
11
132.164
21
-85.5529
0
LINE
8
Black
10
134.164
20
-85.5529
11
134.307
21
-85.6357
0
LINE
8
Black
10
134.307
20
-85.6357
11
134.414
21
-85.7625
0
LINE
8
Black
10
134.414
20
-85.7625
11
134.471
21
-85.9181
0
LINE
8
Black
10
134.471
20
-85.9181
11
134.471
21
-86.0837
0
LINE
8
Black
10
134.471
20
-86.0837
11
134.414
21
-86.2393
0
LINE
8
Black
10
134.414
20
-86.2393
11
134.307
21
-86.3662
0
LINE
8
Black
10
134.307
20
-86.3662
11
134.164
21
-86.449
0
LINE
8
Black
10
134.164
20
-86.449
11
134.001
21
-86.4777
0
LINE
8
Black
10
134.001
20
-86.4777
11
133.838
21
-86.449
0
LINE
8
Black
10
133.838
20
-86.449
11
133.695
21
-86.3662
0
LINE
8
Black
10
133.695
20
-86.3662
11
133.588
21
-86.2393
0
LINE
8
Black
10
133.588
20
-86.2393
11
133.531
21
-86.0837
0
LINE
8
Black
10
133.531
20
-86.0837
11
133.531
21
-85.9181
0
LINE
8
Black
10
133.531
20
-85.9181
11
133.588
21
-85.7625
0
LINE
8
Black
10
133.588
20
-85.7625
11
133.695
21
-85.6357
0
LINE
8
Black
10
133.695
20
-85.6357
11
133.838
21
-85.5529
0
LINE
8
Black
10
133.838
20
-85.5529
11
134.001
21
-85.5241
0
LINE
8
Black
10
134.001
20
-85.5241
11
134.164
21
-85.5529
0
LINE
8
Black
10
136.164
20
-85.5529
11
136.307
21
-85.6357
0
LINE
8
Black
10
136.307
20
-85.6357
11
136.414
21
-85.7625
0
LINE
8
Black
10
136.414
20
-85.7625
11
136.471
21
-85.9181
0
LINE
8
Black
10
136.471
20
-85.9181
11
136.471
21
-86.0837
0
LINE
8
Black
10
136.471
20
-86.0837
11
136.414
21
-86.2393
0
LINE
8
Black
10
136.414
20
-86.2393
11
136.307
21
-86.3662
0
LINE
8
Black
10
136.307
20
-86.3662
11
136.164
21
-86.449
0
LINE
8
Black
10
136.164
20
-86.449
11
136.001
21
-86.4777
0
LINE
8
Black
10
136.001
20
-86.4777
11
135.838
21
-86.449
0
LINE
8
Black
10
135.838
20
-86.449
11
135.695
21
-86.3662
0
LINE
8
Black
10
135.695
20
-86.3662
11
135.588
21
-86.2393
0
LINE
8
Black
10
135.588
20
-86.2393
11
135.531
21
-86.0837
0
LINE
8
Black
10
135.531
20
-86.0837
11
135.531
21
-85.9181
0
LINE
8
Black
10
135.531
20
-85.9181
11
135.588
21
-85.7625
0
LINE
8
Black
10
135.588
20
-85.7625
11
135.695
21
-85.6357
0
LINE
8
Black
10
135.695
20
-85.6357
11
135.838
21
-85.5529
0
LINE
8
Black
10
135.838
20
-85.5529
11
136.001
21
-85.5241
0
LINE
8
Black
10
136.001
20
-85.5241
11
136.164
21
-85.5529
0
LINE
8
Black
10
138.164
20
-85.5529
11
138.307
21
-85.6357
0
LINE
8
Black
10
138.307
20
-85.6357
11
138.414
21
-85.7625
0
LINE
8
Black
10
138.414
20
-85.7625
11
138.471
21
-85.9181
0
LINE
8
Black
10
138.471
20
-85.9181
11
138.471
21
-86.0837
0
LINE
8
Black
10
138.471
20
-86.0837
11
138.414
21
-86.2393
0
LINE
8
Black
10
138.414
20
-86.2393
11
138.307
21
-86.3662
0
LINE
8
Black
10
138.307
20
-86.3662
11
138.164
21
-86.449
0
LINE
8
Black
10
138.164
20
-86.449
11
138.001
21
-86.4777
0
LINE
8
Black
10
138.001
20
-86.4777
11
137.838
21
-86.449
0
LINE
8
Black
10
137.838
20
-86.449
11
137.695
21
-86.3662
0
LINE
8
Black
10
137.695
20
-86.3662
11
137.588
21
-86.2393
0
LINE
8
Black
10
137.588
20
-86.2393
11
137.531
21
-86.0837
0
LINE
8
Black
10
137.531
20
-86.0837
11
137.531
21
-85.9181
0
LINE
8
Black
10
137.531
20
-85.9181
11
137.588
21
-85.7625
0
LINE
8
Black
10
137.588
20
-85.7625
11
137.695
21
-85.6357
0
LINE
8
Black
10
137.695
20
-85.6357
11
137.838
21
-85.5529
0
LINE
8
Black
10
137.838
20
-85.5529
11
138.001
21
-85.5241
0
LINE
8
Black
10
138.001
20
-85.5241
11
138.164
21
-85.5529
0
LINE
8
Black
10
130.501
20
-85.2009
11
129.501
21
-85.2009
0
LINE
8
Black
10
129.501
20
-85.2009
11
129.501
21
-83.6009
0
LINE
8
Black
10
129.501
20
-83.6009
11
130.501
21
-83.6009
0
LINE
8
Black
10
130.501
20
-83.6009
11
130.501
21
-85.2009
0
LINE
8
Black
10
134.501
20
-85.2009
11
133.501
21
-85.2009
0
LINE
8
Black
10
133.501
20
-85.2009
11
133.501
21
-83.6009
0
LINE
8
Black
10
133.501
20
-83.6009
11
134.501
21
-83.6009
0
LINE
8
Black
10
134.501
20
-83.6009
11
134.501
21
-85.2009
0
LINE
8
Black
10
138.501
20
-85.2009
11
137.501
21
-85.2009
0
LINE
8
Black
10
137.501
20
-85.2009
11
137.501
21
-83.6009
0
LINE
8
Black
10
137.501
20
-83.6009
11
138.501
21
-83.6009
0
LINE
8
Black
10
138.501
20
-83.6009
11
138.501
21
-85.2009
0
LINE
8
Black
10
142.501
20
-85.2009
11
141.501
21
-85.2009
0
LINE
8
Black
10
141.501
20
-85.2009
11
141.501
21
-83.6009
0
LINE
8
Black
10
141.501
20
-83.6009
11
142.501
21
-83.6009
0
LINE
8
Black
10
142.501
20
-83.6009
11
142.501
21
-85.2009
0
LINE
8
Black
10
146.501
20
-85.2009
11
145.501
21
-85.2009
0
LINE
8
Black
10
145.501
20
-85.2009
11
145.501
21
-83.6009
0
LINE
8
Black
10
145.501
20
-83.6009
11
146.501
21
-83.6009
0
LINE
8
Black
10
146.501
20
-83.6009
11
146.501
21
-85.2009
  0
ENDSEC
  0
EOF
