  0
SECTION
  2
HEADER
  9
$ANGBASE
  50
0.0
  9
$ANGDIR
  70
  1
  9
$MEASUREMENT
  70
0
  0
ENDSEC
  0
SECTION
  2
TABLES
  0
TABLE
  2
LTYPE
  70
1
  0
LTYPE
  2
CONTINUOUS
  70
0
  3
Solid line
  72
65
  73
0
  40
0.0
  0
ENDTAB
  0
TABLE
  2
STYLE
  70
4
  0
STYLE
  2
KICAD
  70
0
  40
0
  41
1
  42
1
  50
0
  71
0
  3
isocp.shx
  0
STYLE
  2
KICADB
  70
0
  40
0
  41
1
  42
1
  50
0
  71
0
  3
isocp.shx
  0
STYLE
  2
KICADI
  70
0
  40
0
  41
1
  42
1
  50
15
  71
0
  3
isocp.shx
  0
STYLE
  2
KICADBI
  70
0
  40
0
  41
1
  42
1
  50
15
  71
0
  3
isocp.shx
  0
ENDTAB
  0
TABLE
  2
LAYER
  70
30
  0
LAYER
  2
BLACK
  70
0
  62
7
  6
CONTINUOUS
  0
LAYER
  2
GRAY1
  70
0
  62
251
  6
CONTINUOUS
  0
LAYER
  2
GRAY2
  70
0
  62
8
  6
CONTINUOUS
  0
LAYER
  2
GRAY3
  70
0
  62
9
  6
CONTINUOUS
  0
LAYER
  2
WHITE
  70
0
  62
7
  6
CONTINUOUS
  0
LAYER
  2
LYELLOW
  70
0
  62
51
  6
CONTINUOUS
  0
LAYER
  2
BLUE1
  70
0
  62
178
  6
CONTINUOUS
  0
LAYER
  2
GREEN1
  70
0
  62
98
  6
CONTINUOUS
  0
LAYER
  2
CYAN1
  70
0
  62
138
  6
CONTINUOUS
  0
LAYER
  2
RED1
  70
0
  62
18
  6
CONTINUOUS
  0
LAYER
  2
MAGENTA1
  70
0
  62
228
  6
CONTINUOUS
  0
LAYER
  2
BROWN1
  70
0
  62
58
  6
CONTINUOUS
  0
LAYER
  2
BLUE2
  70
0
  62
5
  6
CONTINUOUS
  0
LAYER
  2
GREEN2
  70
0
  62
3
  6
CONTINUOUS
  0
LAYER
  2
CYAN2
  70
0
  62
4
  6
CONTINUOUS
  0
LAYER
  2
RED2
  70
0
  62
1
  6
CONTINUOUS
  0
LAYER
  2
MAGENTA2
  70
0
  62
6
  6
CONTINUOUS
  0
LAYER
  2
BROWN2
  70
0
  62
54
  6
CONTINUOUS
  0
LAYER
  2
BLUE3
  70
0
  62
171
  6
CONTINUOUS
  0
LAYER
  2
GREEN3
  70
0
  62
91
  6
CONTINUOUS
  0
LAYER
  2
CYAN3
  70
0
  62
131
  6
CONTINUOUS
  0
LAYER
  2
RED3
  70
0
  62
11
  6
CONTINUOUS
  0
LAYER
  2
MAGENTA3
  70
0
  62
221
  6
CONTINUOUS
  0
LAYER
  2
YELLOW3
  70
0
  62
2
  6
CONTINUOUS
  0
LAYER
  2
BLUE4
  70
0
  62
5
  6
CONTINUOUS
  0
LAYER
  2
GREEN4
  70
0
  62
3
  6
CONTINUOUS
  0
LAYER
  2
CYAN4
  70
0
  62
4
  6
CONTINUOUS
  0
LAYER
  2
RED4
  70
0
  62
1
  6
CONTINUOUS
  0
LAYER
  2
MAGENTA4
  70
0
  62
6
  6
CONTINUOUS
  0
LAYER
  2
YELLOW4
  70
0
  62
2
  6
CONTINUOUS
  0
ENDTAB
  0
ENDSEC
  0
SECTION
  2
ENTITIES
0
LINE
8
Black
10
129.632
20
-109.364
11
129.637
21
-109.364
0
LINE
8
Black
10
129.637
20
-109.364
11
129.649
21
-109.368
0
LINE
8
Black
10
129.649
20
-109.368
11
129.66
21
-109.371
0
LINE
8
Black
10
129.66
20
-109.371
11
129.665
21
-109.374
0
LINE
8
Black
10
129.665
20
-109.374
11
129.67
21
-109.376
0
LINE
8
Black
10
129.67
20
-109.376
11
129.679
21
-109.384
0
LINE
8
Black
10
129.679
20
-109.384
11
129.689
21
-109.391
0
LINE
8
Black
10
129.689
20
-109.391
11
129.692
21
-109.395
0
LINE
8
Black
10
129.692
20
-109.395
11
129.697
21
-109.399
0
LINE
8
Black
10
129.697
20
-109.399
11
129.703
21
-109.409
0
LINE
8
Black
10
129.703
20
-109.409
11
129.71
21
-109.419
0
LINE
8
Black
10
129.71
20
-109.419
11
129.711
21
-109.424
0
LINE
8
Black
10
129.711
20
-109.424
11
129.714
21
-109.429
0
LINE
8
Black
10
129.714
20
-109.429
11
129.716
21
-109.44
0
LINE
8
Black
10
129.716
20
-109.44
11
129.719
21
-109.452
0
LINE
8
Black
10
129.719
20
-109.452
11
129.719
21
-109.457
0
LINE
8
Black
10
129.719
20
-109.457
11
129.72
21
-109.463
0
LINE
8
Black
10
129.72
20
-109.463
11
129.72
21
-110.163
0
LINE
8
Black
10
129.72
20
-110.163
11
129.849
21
-110.163
0
LINE
8
Black
10
129.849
20
-110.163
11
129.883
21
-110.169
0
LINE
8
Black
10
129.883
20
-110.169
11
129.913
21
-110.186
0
LINE
8
Black
10
129.913
20
-110.186
11
129.935
21
-110.213
0
LINE
8
Black
10
129.935
20
-110.213
11
129.947
21
-110.245
0
LINE
8
Black
10
129.947
20
-110.245
11
129.947
21
-110.28
0
LINE
8
Black
10
129.947
20
-110.28
11
129.935
21
-110.313
0
LINE
8
Black
10
129.935
20
-110.313
11
129.913
21
-110.339
0
LINE
8
Black
10
129.913
20
-110.339
11
129.883
21
-110.357
0
LINE
8
Black
10
129.883
20
-110.357
11
129.849
21
-110.363
0
LINE
8
Black
10
129.849
20
-110.363
11
129.391
21
-110.363
0
LINE
8
Black
10
129.391
20
-110.363
11
129.357
21
-110.357
0
LINE
8
Black
10
129.357
20
-110.357
11
129.327
21
-110.339
0
LINE
8
Black
10
129.327
20
-110.339
11
129.305
21
-110.313
0
LINE
8
Black
10
129.305
20
-110.313
11
129.293
21
-110.28
0
LINE
8
Black
10
129.293
20
-110.28
11
129.293
21
-110.245
0
LINE
8
Black
10
129.293
20
-110.245
11
129.305
21
-110.213
0
LINE
8
Black
10
129.305
20
-110.213
11
129.327
21
-110.186
0
LINE
8
Black
10
129.327
20
-110.186
11
129.357
21
-110.169
0
LINE
8
Black
10
129.357
20
-110.169
11
129.391
21
-110.163
0
LINE
8
Black
10
129.391
20
-110.163
11
129.52
21
-110.163
0
LINE
8
Black
10
129.52
20
-110.163
11
129.52
21
-109.737
0
LINE
8
Black
10
129.52
20
-109.737
11
129.512
21
-109.743
0
LINE
8
Black
10
129.512
20
-109.743
11
129.436
21
-109.781
0
LINE
8
Black
10
129.436
20
-109.781
11
129.403
21
-109.791
0
LINE
8
Black
10
129.403
20
-109.791
11
129.368
21
-109.789
0
LINE
8
Black
10
129.368
20
-109.789
11
129.336
21
-109.775
0
LINE
8
Black
10
129.336
20
-109.775
11
129.311
21
-109.751
0
LINE
8
Black
10
129.311
20
-109.751
11
129.296
21
-109.72
0
LINE
8
Black
10
129.296
20
-109.72
11
129.292
21
-109.685
0
LINE
8
Black
10
129.292
20
-109.685
11
129.3
21
-109.652
0
LINE
8
Black
10
129.3
20
-109.652
11
129.319
21
-109.623
0
LINE
8
Black
10
129.319
20
-109.623
11
129.347
21
-109.602
0
LINE
8
Black
10
129.347
20
-109.602
11
129.408
21
-109.571
0
LINE
8
Black
10
129.408
20
-109.571
11
129.466
21
-109.513
0
LINE
8
Black
10
129.466
20
-109.513
11
129.537
21
-109.407
0
LINE
8
Black
10
129.537
20
-109.407
11
129.541
21
-109.403
0
LINE
8
Black
10
129.541
20
-109.403
11
129.543
21
-109.399
0
LINE
8
Black
10
129.543
20
-109.399
11
129.553
21
-109.391
0
LINE
8
Black
10
129.553
20
-109.391
11
129.561
21
-109.382
0
LINE
8
Black
10
129.561
20
-109.382
11
129.566
21
-109.38
0
LINE
8
Black
10
129.566
20
-109.38
11
129.57
21
-109.376
0
LINE
8
Black
10
129.57
20
-109.376
11
129.581
21
-109.372
0
LINE
8
Black
10
129.581
20
-109.372
11
129.592
21
-109.367
0
LINE
8
Black
10
129.592
20
-109.367
11
129.597
21
-109.366
0
LINE
8
Black
10
129.597
20
-109.366
11
129.603
21
-109.364
0
LINE
8
Black
10
129.603
20
-109.364
11
129.615
21
-109.364
0
LINE
8
Black
10
129.615
20
-109.364
11
129.626
21
-109.363
0
LINE
8
Black
10
129.626
20
-109.363
11
129.632
21
-109.364
0
LINE
8
Black
10
130.426
20
-109.364
11
130.431
21
-109.363
0
LINE
8
Black
10
130.431
20
-109.363
11
130.443
21
-109.367
0
LINE
8
Black
10
130.443
20
-109.367
11
130.454
21
-109.369
0
LINE
8
Black
10
130.454
20
-109.369
11
130.459
21
-109.372
0
LINE
8
Black
10
130.459
20
-109.372
11
130.465
21
-109.373
0
LINE
8
Black
10
130.465
20
-109.373
11
130.541
21
-109.411
0
LINE
8
Black
10
130.541
20
-109.411
11
130.554
21
-109.421
0
LINE
8
Black
10
130.554
20
-109.421
11
130.567
21
-109.43
0
LINE
8
Black
10
130.567
20
-109.43
11
130.605
21
-109.468
0
LINE
8
Black
10
130.605
20
-109.468
11
130.614
21
-109.481
0
LINE
8
Black
10
130.614
20
-109.481
11
130.624
21
-109.494
0
LINE
8
Black
10
130.624
20
-109.494
11
130.662
21
-109.57
0
LINE
8
Black
10
130.662
20
-109.57
11
130.665
21
-109.581
0
LINE
8
Black
10
130.665
20
-109.581
11
130.669
21
-109.591
0
LINE
8
Black
10
130.669
20
-109.591
11
130.708
21
-109.743
0
LINE
8
Black
10
130.708
20
-109.743
11
130.708
21
-109.756
0
LINE
8
Black
10
130.708
20
-109.756
11
130.711
21
-109.768
0
LINE
8
Black
10
130.711
20
-109.768
11
130.711
21
-109.958
0
LINE
8
Black
10
130.711
20
-109.958
11
130.708
21
-109.97
0
LINE
8
Black
10
130.708
20
-109.97
11
130.708
21
-109.982
0
LINE
8
Black
10
130.708
20
-109.982
11
130.669
21
-110.135
0
LINE
8
Black
10
130.669
20
-110.135
11
130.665
21
-110.145
0
LINE
8
Black
10
130.665
20
-110.145
11
130.662
21
-110.155
0
LINE
8
Black
10
130.662
20
-110.155
11
130.624
21
-110.231
0
LINE
8
Black
10
130.624
20
-110.231
11
130.614
21
-110.244
0
LINE
8
Black
10
130.614
20
-110.244
11
130.605
21
-110.257
0
LINE
8
Black
10
130.605
20
-110.257
11
130.567
21
-110.295
0
LINE
8
Black
10
130.567
20
-110.295
11
130.554
21
-110.305
0
LINE
8
Black
10
130.554
20
-110.305
11
130.541
21
-110.314
0
LINE
8
Black
10
130.541
20
-110.314
11
130.465
21
-110.352
0
LINE
8
Black
10
130.465
20
-110.352
11
130.459
21
-110.354
0
LINE
8
Black
10
130.459
20
-110.354
11
130.454
21
-110.357
0
LINE
8
Black
10
130.454
20
-110.357
11
130.443
21
-110.359
0
LINE
8
Black
10
130.443
20
-110.359
11
130.431
21
-110.362
0
LINE
8
Black
10
130.431
20
-110.362
11
130.426
21
-110.362
0
LINE
8
Black
10
130.426
20
-110.362
11
130.42
21
-110.363
0
LINE
8
Black
10
130.42
20
-110.363
11
130.344
21
-110.363
0
LINE
8
Black
10
130.344
20
-110.363
11
130.338
21
-110.362
0
LINE
8
Black
10
130.338
20
-110.362
11
130.332
21
-110.362
0
LINE
8
Black
10
130.332
20
-110.362
11
130.321
21
-110.359
0
LINE
8
Black
10
130.321
20
-110.359
11
130.31
21
-110.357
0
LINE
8
Black
10
130.31
20
-110.357
11
130.305
21
-110.354
0
LINE
8
Black
10
130.305
20
-110.354
11
130.299
21
-110.352
0
LINE
8
Black
10
130.299
20
-110.352
11
130.223
21
-110.314
0
LINE
8
Black
10
130.223
20
-110.314
11
130.21
21
-110.305
0
LINE
8
Black
10
130.21
20
-110.305
11
130.197
21
-110.295
0
LINE
8
Black
10
130.197
20
-110.295
11
130.159
21
-110.257
0
LINE
8
Black
10
130.159
20
-110.257
11
130.15
21
-110.244
0
LINE
8
Black
10
130.15
20
-110.244
11
130.14
21
-110.231
0
LINE
8
Black
10
130.14
20
-110.231
11
130.102
21
-110.155
0
LINE
8
Black
10
130.102
20
-110.155
11
130.099
21
-110.145
0
LINE
8
Black
10
130.099
20
-110.145
11
130.094
21
-110.135
0
LINE
8
Black
10
130.094
20
-110.135
11
130.056
21
-109.982
0
LINE
8
Black
10
130.056
20
-109.982
11
130.056
21
-109.97
0
LINE
8
Black
10
130.056
20
-109.97
11
130.053
21
-109.958
0
LINE
8
Black
10
130.053
20
-109.958
11
130.053
21
-109.768
0
LINE
8
Black
10
130.053
20
-109.768
11
130.056
21
-109.756
0
LINE
8
Black
10
130.056
20
-109.756
11
130.056
21
-109.743
0
LINE
8
Black
10
130.056
20
-109.743
11
130.094
21
-109.591
0
LINE
8
Black
10
130.094
20
-109.591
11
130.099
21
-109.581
0
LINE
8
Black
10
130.099
20
-109.581
11
130.102
21
-109.57
0
LINE
8
Black
10
130.102
20
-109.57
11
130.14
21
-109.494
0
LINE
8
Black
10
130.14
20
-109.494
11
130.15
21
-109.481
0
LINE
8
Black
10
130.15
20
-109.481
11
130.159
21
-109.468
0
LINE
8
Black
10
130.159
20
-109.468
11
130.197
21
-109.43
0
LINE
8
Black
10
130.197
20
-109.43
11
130.21
21
-109.421
0
LINE
8
Black
10
130.21
20
-109.421
11
130.223
21
-109.411
0
LINE
8
Black
10
130.223
20
-109.411
11
130.299
21
-109.373
0
LINE
8
Black
10
130.299
20
-109.373
11
130.305
21
-109.372
0
LINE
8
Black
10
130.305
20
-109.372
11
130.31
21
-109.369
0
LINE
8
Black
10
130.31
20
-109.369
11
130.321
21
-109.367
0
LINE
8
Black
10
130.321
20
-109.367
11
130.332
21
-109.363
0
LINE
8
Black
10
130.332
20
-109.363
11
130.338
21
-109.364
0
LINE
8
Black
10
130.338
20
-109.364
11
130.344
21
-109.363
0
LINE
8
Black
10
130.344
20
-109.363
11
130.42
21
-109.363
0
LINE
8
Black
10
130.42
20
-109.363
11
130.426
21
-109.364
0
LINE
8
Black
10
130.367
20
-109.563
11
130.327
21
-109.583
0
LINE
8
Black
10
130.327
20
-109.583
11
130.312
21
-109.598
0
LINE
8
Black
10
130.312
20
-109.598
11
130.286
21
-109.65
0
LINE
8
Black
10
130.286
20
-109.65
11
130.253
21
-109.78
0
LINE
8
Black
10
130.253
20
-109.78
11
130.253
21
-109.946
0
LINE
8
Black
10
130.253
20
-109.946
11
130.286
21
-110.076
0
LINE
8
Black
10
130.286
20
-110.076
11
130.312
21
-110.127
0
LINE
8
Black
10
130.312
20
-110.127
11
130.327
21
-110.143
0
LINE
8
Black
10
130.327
20
-110.143
11
130.367
21
-110.163
0
LINE
8
Black
10
130.367
20
-110.163
11
130.396
21
-110.163
0
LINE
8
Black
10
130.396
20
-110.163
11
130.437
21
-110.143
0
LINE
8
Black
10
130.437
20
-110.143
11
130.452
21
-110.127
0
LINE
8
Black
10
130.452
20
-110.127
11
130.478
21
-110.076
0
LINE
8
Black
10
130.478
20
-110.076
11
130.511
21
-109.946
0
LINE
8
Black
10
130.511
20
-109.946
11
130.511
21
-109.78
0
LINE
8
Black
10
130.511
20
-109.78
11
130.478
21
-109.65
0
LINE
8
Black
10
130.478
20
-109.65
11
130.452
21
-109.598
0
LINE
8
Black
10
130.452
20
-109.598
11
130.437
21
-109.583
0
LINE
8
Black
10
130.437
20
-109.583
11
130.396
21
-109.563
0
LINE
8
Black
10
130.396
20
-109.563
11
130.367
21
-109.563
0
LINE
8
Black
10
129.135
20
-106.707
11
129.165
21
-106.724
0
LINE
8
Black
10
129.165
20
-106.724
11
129.188
21
-106.751
0
LINE
8
Black
10
129.188
20
-106.751
11
129.199
21
-106.784
0
LINE
8
Black
10
129.199
20
-106.784
11
129.199
21
-106.818
0
LINE
8
Black
10
129.199
20
-106.818
11
129.188
21
-106.851
0
LINE
8
Black
10
129.188
20
-106.851
11
129.165
21
-106.878
0
LINE
8
Black
10
129.165
20
-106.878
11
129.135
21
-106.895
0
LINE
8
Black
10
129.135
20
-106.895
11
129.101
21
-106.901
0
LINE
8
Black
10
129.101
20
-106.901
11
128.801
21
-106.901
0
LINE
8
Black
10
128.801
20
-106.901
11
128.801
21
-109.101
0
LINE
8
Black
10
128.801
20
-109.101
11
131.101
21
-109.101
0
LINE
8
Black
10
131.101
20
-109.101
11
131.135
21
-109.107
0
LINE
8
Black
10
131.135
20
-109.107
11
131.165
21
-109.124
0
LINE
8
Black
10
131.165
20
-109.124
11
131.188
21
-109.151
0
LINE
8
Black
10
131.188
20
-109.151
11
131.199
21
-109.184
0
LINE
8
Black
10
131.199
20
-109.184
11
131.199
21
-109.218
0
LINE
8
Black
10
131.199
20
-109.218
11
131.188
21
-109.251
0
LINE
8
Black
10
131.188
20
-109.251
11
131.165
21
-109.278
0
LINE
8
Black
10
131.165
20
-109.278
11
131.135
21
-109.295
0
LINE
8
Black
10
131.135
20
-109.295
11
131.101
21
-109.301
0
LINE
8
Black
10
131.101
20
-109.301
11
128.701
21
-109.301
0
LINE
8
Black
10
128.701
20
-109.301
11
128.692
21
-109.299
0
LINE
8
Black
10
128.692
20
-109.299
11
128.684
21
-109.299
0
LINE
8
Black
10
128.684
20
-109.299
11
128.675
21
-109.296
0
LINE
8
Black
10
128.675
20
-109.296
11
128.667
21
-109.295
0
LINE
8
Black
10
128.667
20
-109.295
11
128.659
21
-109.291
0
LINE
8
Black
10
128.659
20
-109.291
11
128.651
21
-109.288
0
LINE
8
Black
10
128.651
20
-109.288
11
128.644
21
-109.282
0
LINE
8
Black
10
128.644
20
-109.282
11
128.637
21
-109.278
0
LINE
8
Black
10
128.637
20
-109.278
11
128.631
21
-109.271
0
LINE
8
Black
10
128.631
20
-109.271
11
128.624
21
-109.265
0
LINE
8
Black
10
128.624
20
-109.265
11
128.62
21
-109.258
0
LINE
8
Black
10
128.62
20
-109.258
11
128.614
21
-109.251
0
LINE
8
Black
10
128.614
20
-109.251
11
128.611
21
-109.243
0
LINE
8
Black
10
128.611
20
-109.243
11
128.607
21
-109.235
0
LINE
8
Black
10
128.607
20
-109.235
11
128.606
21
-109.227
0
LINE
8
Black
10
128.606
20
-109.227
11
128.603
21
-109.218
0
LINE
8
Black
10
128.603
20
-109.218
11
128.603
21
-109.21
0
LINE
8
Black
10
128.603
20
-109.21
11
128.601
21
-109.201
0
LINE
8
Black
10
128.601
20
-109.201
11
128.601
21
-106.801
0
LINE
8
Black
10
128.601
20
-106.801
11
128.603
21
-106.792
0
LINE
8
Black
10
128.603
20
-106.792
11
128.603
21
-106.784
0
LINE
8
Black
10
128.603
20
-106.784
11
128.606
21
-106.775
0
LINE
8
Black
10
128.606
20
-106.775
11
128.607
21
-106.767
0
LINE
8
Black
10
128.607
20
-106.767
11
128.611
21
-106.759
0
LINE
8
Black
10
128.611
20
-106.759
11
128.614
21
-106.751
0
LINE
8
Black
10
128.614
20
-106.751
11
128.62
21
-106.744
0
LINE
8
Black
10
128.62
20
-106.744
11
128.624
21
-106.737
0
LINE
8
Black
10
128.624
20
-106.737
11
128.631
21
-106.731
0
LINE
8
Black
10
128.631
20
-106.731
11
128.637
21
-106.724
0
LINE
8
Black
10
128.637
20
-106.724
11
128.644
21
-106.72
0
LINE
8
Black
10
128.644
20
-106.72
11
128.651
21
-106.714
0
LINE
8
Black
10
128.651
20
-106.714
11
128.659
21
-106.711
0
LINE
8
Black
10
128.659
20
-106.711
11
128.667
21
-106.707
0
LINE
8
Black
10
128.667
20
-106.707
11
128.675
21
-106.705
0
LINE
8
Black
10
128.675
20
-106.705
11
128.684
21
-106.702
0
LINE
8
Black
10
128.684
20
-106.702
11
128.692
21
-106.702
0
LINE
8
Black
10
128.692
20
-106.702
11
128.701
21
-106.701
0
LINE
8
Black
10
128.701
20
-106.701
11
129.101
21
-106.701
0
LINE
8
Black
10
129.101
20
-106.701
11
129.135
21
-106.707
0
LINE
8
Black
10
135.135
20
-109.107
11
135.165
21
-109.124
0
LINE
8
Black
10
135.165
20
-109.124
11
135.188
21
-109.151
0
LINE
8
Black
10
135.188
20
-109.151
11
135.199
21
-109.184
0
LINE
8
Black
10
135.199
20
-109.184
11
135.199
21
-109.218
0
LINE
8
Black
10
135.199
20
-109.218
11
135.188
21
-109.251
0
LINE
8
Black
10
135.188
20
-109.251
11
135.165
21
-109.278
0
LINE
8
Black
10
135.165
20
-109.278
11
135.135
21
-109.295
0
LINE
8
Black
10
135.135
20
-109.295
11
135.101
21
-109.301
0
LINE
8
Black
10
135.101
20
-109.301
11
132.901
21
-109.301
0
LINE
8
Black
10
132.901
20
-109.301
11
132.867
21
-109.295
0
LINE
8
Black
10
132.867
20
-109.295
11
132.837
21
-109.278
0
LINE
8
Black
10
132.837
20
-109.278
11
132.814
21
-109.251
0
LINE
8
Black
10
132.814
20
-109.251
11
132.803
21
-109.218
0
LINE
8
Black
10
132.803
20
-109.218
11
132.803
21
-109.184
0
LINE
8
Black
10
132.803
20
-109.184
11
132.814
21
-109.151
0
LINE
8
Black
10
132.814
20
-109.151
11
132.837
21
-109.124
0
LINE
8
Black
10
132.837
20
-109.124
11
132.867
21
-109.107
0
LINE
8
Black
10
132.867
20
-109.107
11
132.901
21
-109.101
0
LINE
8
Black
10
132.901
20
-109.101
11
135.101
21
-109.101
0
LINE
8
Black
10
135.101
20
-109.101
11
135.135
21
-109.107
0
LINE
8
Black
10
139.135
20
-109.107
11
139.165
21
-109.124
0
LINE
8
Black
10
139.165
20
-109.124
11
139.188
21
-109.151
0
LINE
8
Black
10
139.188
20
-109.151
11
139.199
21
-109.184
0
LINE
8
Black
10
139.199
20
-109.184
11
139.199
21
-109.218
0
LINE
8
Black
10
139.199
20
-109.218
11
139.188
21
-109.251
0
LINE
8
Black
10
139.188
20
-109.251
11
139.165
21
-109.278
0
LINE
8
Black
10
139.165
20
-109.278
11
139.135
21
-109.295
0
LINE
8
Black
10
139.135
20
-109.295
11
139.101
21
-109.301
0
LINE
8
Black
10
139.101
20
-109.301
11
136.901
21
-109.301
0
LINE
8
Black
10
136.901
20
-109.301
11
136.867
21
-109.295
0
LINE
8
Black
10
136.867
20
-109.295
11
136.837
21
-109.278
0
LINE
8
Black
10
136.837
20
-109.278
11
136.814
21
-109.251
0
LINE
8
Black
10
136.814
20
-109.251
11
136.803
21
-109.218
0
LINE
8
Black
10
136.803
20
-109.218
11
136.803
21
-109.184
0
LINE
8
Black
10
136.803
20
-109.184
11
136.814
21
-109.151
0
LINE
8
Black
10
136.814
20
-109.151
11
136.837
21
-109.124
0
LINE
8
Black
10
136.837
20
-109.124
11
136.867
21
-109.107
0
LINE
8
Black
10
136.867
20
-109.107
11
136.901
21
-109.101
0
LINE
8
Black
10
136.901
20
-109.101
11
139.101
21
-109.101
0
LINE
8
Black
10
139.101
20
-109.101
11
139.135
21
-109.107
0
LINE
8
Black
10
143.135
20
-109.107
11
143.165
21
-109.124
0
LINE
8
Black
10
143.165
20
-109.124
11
143.188
21
-109.151
0
LINE
8
Black
10
143.188
20
-109.151
11
143.199
21
-109.184
0
LINE
8
Black
10
143.199
20
-109.184
11
143.199
21
-109.218
0
LINE
8
Black
10
143.199
20
-109.218
11
143.188
21
-109.251
0
LINE
8
Black
10
143.188
20
-109.251
11
143.165
21
-109.278
0
LINE
8
Black
10
143.165
20
-109.278
11
143.135
21
-109.295
0
LINE
8
Black
10
143.135
20
-109.295
11
143.101
21
-109.301
0
LINE
8
Black
10
143.101
20
-109.301
11
140.901
21
-109.301
0
LINE
8
Black
10
140.901
20
-109.301
11
140.867
21
-109.295
0
LINE
8
Black
10
140.867
20
-109.295
11
140.837
21
-109.278
0
LINE
8
Black
10
140.837
20
-109.278
11
140.814
21
-109.251
0
LINE
8
Black
10
140.814
20
-109.251
11
140.803
21
-109.218
0
LINE
8
Black
10
140.803
20
-109.218
11
140.803
21
-109.184
0
LINE
8
Black
10
140.803
20
-109.184
11
140.814
21
-109.151
0
LINE
8
Black
10
140.814
20
-109.151
11
140.837
21
-109.124
0
LINE
8
Black
10
140.837
20
-109.124
11
140.867
21
-109.107
0
LINE
8
Black
10
140.867
20
-109.107
11
140.901
21
-109.101
0
LINE
8
Black
10
140.901
20
-109.101
11
143.101
21
-109.101
0
LINE
8
Black
10
143.101
20
-109.101
11
143.135
21
-109.107
0
LINE
8
Black
10
147.135
20
-109.107
11
147.165
21
-109.124
0
LINE
8
Black
10
147.165
20
-109.124
11
147.188
21
-109.151
0
LINE
8
Black
10
147.188
20
-109.151
11
147.199
21
-109.184
0
LINE
8
Black
10
147.199
20
-109.184
11
147.199
21
-109.218
0
LINE
8
Black
10
147.199
20
-109.218
11
147.188
21
-109.251
0
LINE
8
Black
10
147.188
20
-109.251
11
147.165
21
-109.278
0
LINE
8
Black
10
147.165
20
-109.278
11
147.135
21
-109.295
0
LINE
8
Black
10
147.135
20
-109.295
11
147.101
21
-109.301
0
LINE
8
Black
10
147.101
20
-109.301
11
144.901
21
-109.301
0
LINE
8
Black
10
144.901
20
-109.301
11
144.867
21
-109.295
0
LINE
8
Black
10
144.867
20
-109.295
11
144.837
21
-109.278
0
LINE
8
Black
10
144.837
20
-109.278
11
144.814
21
-109.251
0
LINE
8
Black
10
144.814
20
-109.251
11
144.803
21
-109.218
0
LINE
8
Black
10
144.803
20
-109.218
11
144.803
21
-109.184
0
LINE
8
Black
10
144.803
20
-109.184
11
144.814
21
-109.151
0
LINE
8
Black
10
144.814
20
-109.151
11
144.837
21
-109.124
0
LINE
8
Black
10
144.837
20
-109.124
11
144.867
21
-109.107
0
LINE
8
Black
10
144.867
20
-109.107
11
144.901
21
-109.101
0
LINE
8
Black
10
144.901
20
-109.101
11
147.101
21
-109.101
0
LINE
8
Black
10
147.101
20
-109.101
11
147.135
21
-109.107
0
LINE
8
Black
10
149.31
20
-106.702
11
149.318
21
-106.702
0
LINE
8
Black
10
149.318
20
-106.702
11
149.327
21
-106.705
0
LINE
8
Black
10
149.327
20
-106.705
11
149.335
21
-106.707
0
LINE
8
Black
10
149.335
20
-106.707
11
149.343
21
-106.711
0
LINE
8
Black
10
149.343
20
-106.711
11
149.351
21
-106.714
0
LINE
8
Black
10
149.351
20
-106.714
11
149.358
21
-106.72
0
LINE
8
Black
10
149.358
20
-106.72
11
149.365
21
-106.724
0
LINE
8
Black
10
149.365
20
-106.724
11
149.371
21
-106.731
0
LINE
8
Black
10
149.371
20
-106.731
11
149.378
21
-106.737
0
LINE
8
Black
10
149.378
20
-106.737
11
149.382
21
-106.744
0
LINE
8
Black
10
149.382
20
-106.744
11
149.388
21
-106.751
0
LINE
8
Black
10
149.388
20
-106.751
11
149.391
21
-106.759
0
LINE
8
Black
10
149.391
20
-106.759
11
149.395
21
-106.767
0
LINE
8
Black
10
149.395
20
-106.767
11
149.396
21
-106.775
0
LINE
8
Black
10
149.396
20
-106.775
11
149.399
21
-106.784
0
LINE
8
Black
10
149.399
20
-106.784
11
149.399
21
-106.792
0
LINE
8
Black
10
149.399
20
-106.792
11
149.401
21
-106.801
0
LINE
8
Black
10
149.401
20
-106.801
11
149.401
21
-109.201
0
LINE
8
Black
10
149.401
20
-109.201
11
149.399
21
-109.21
0
LINE
8
Black
10
149.399
20
-109.21
11
149.399
21
-109.218
0
LINE
8
Black
10
149.399
20
-109.218
11
149.396
21
-109.227
0
LINE
8
Black
10
149.396
20
-109.227
11
149.395
21
-109.235
0
LINE
8
Black
10
149.395
20
-109.235
11
149.391
21
-109.243
0
LINE
8
Black
10
149.391
20
-109.243
11
149.388
21
-109.251
0
LINE
8
Black
10
149.388
20
-109.251
11
149.382
21
-109.258
0
LINE
8
Black
10
149.382
20
-109.258
11
149.378
21
-109.265
0
LINE
8
Black
10
149.378
20
-109.265
11
149.371
21
-109.271
0
LINE
8
Black
10
149.371
20
-109.271
11
149.365
21
-109.278
0
LINE
8
Black
10
149.365
20
-109.278
11
149.358
21
-109.282
0
LINE
8
Black
10
149.358
20
-109.282
11
149.351
21
-109.288
0
LINE
8
Black
10
149.351
20
-109.288
11
149.343
21
-109.291
0
LINE
8
Black
10
149.343
20
-109.291
11
149.335
21
-109.295
0
LINE
8
Black
10
149.335
20
-109.295
11
149.327
21
-109.296
0
LINE
8
Black
10
149.327
20
-109.296
11
149.318
21
-109.299
0
LINE
8
Black
10
149.318
20
-109.299
11
149.31
21
-109.299
0
LINE
8
Black
10
149.31
20
-109.299
11
149.301
21
-109.301
0
LINE
8
Black
10
149.301
20
-109.301
11
148.901
21
-109.301
0
LINE
8
Black
10
148.901
20
-109.301
11
148.867
21
-109.295
0
LINE
8
Black
10
148.867
20
-109.295
11
148.837
21
-109.278
0
LINE
8
Black
10
148.837
20
-109.278
11
148.814
21
-109.251
0
LINE
8
Black
10
148.814
20
-109.251
11
148.803
21
-109.218
0
LINE
8
Black
10
148.803
20
-109.218
11
148.803
21
-109.184
0
LINE
8
Black
10
148.803
20
-109.184
11
148.814
21
-109.151
0
LINE
8
Black
10
148.814
20
-109.151
11
148.837
21
-109.124
0
LINE
8
Black
10
148.837
20
-109.124
11
148.867
21
-109.107
0
LINE
8
Black
10
148.867
20
-109.107
11
148.901
21
-109.101
0
LINE
8
Black
10
148.901
20
-109.101
11
149.201
21
-109.101
0
LINE
8
Black
10
149.201
20
-109.101
11
149.201
21
-106.901
0
LINE
8
Black
10
149.201
20
-106.901
11
146.901
21
-106.901
0
LINE
8
Black
10
146.901
20
-106.901
11
146.867
21
-106.895
0
LINE
8
Black
10
146.867
20
-106.895
11
146.837
21
-106.878
0
LINE
8
Black
10
146.837
20
-106.878
11
146.814
21
-106.851
0
LINE
8
Black
10
146.814
20
-106.851
11
146.803
21
-106.818
0
LINE
8
Black
10
146.803
20
-106.818
11
146.803
21
-106.784
0
LINE
8
Black
10
146.803
20
-106.784
11
146.814
21
-106.751
0
LINE
8
Black
10
146.814
20
-106.751
11
146.837
21
-106.724
0
LINE
8
Black
10
146.837
20
-106.724
11
146.867
21
-106.707
0
LINE
8
Black
10
146.867
20
-106.707
11
146.901
21
-106.701
0
LINE
8
Black
10
146.901
20
-106.701
11
149.301
21
-106.701
0
LINE
8
Black
10
149.301
20
-106.701
11
149.31
21
-106.702
0
LINE
8
Black
10
140.181
20
-107.506
11
140.34
21
-107.597
0
LINE
8
Black
10
140.34
20
-107.597
11
140.457
21
-107.737
0
LINE
8
Black
10
140.457
20
-107.737
11
140.52
21
-107.909
0
LINE
8
Black
10
140.52
20
-107.909
11
140.52
21
-108.092
0
LINE
8
Black
10
140.52
20
-108.092
11
140.457
21
-108.264
0
LINE
8
Black
10
140.457
20
-108.264
11
140.34
21
-108.405
0
LINE
8
Black
10
140.34
20
-108.405
11
140.181
21
-108.496
0
LINE
8
Black
10
140.181
20
-108.496
11
140.001
21
-108.528
0
LINE
8
Black
10
140.001
20
-108.528
11
139.821
21
-108.496
0
LINE
8
Black
10
139.821
20
-108.496
11
139.662
21
-108.405
0
LINE
8
Black
10
139.662
20
-108.405
11
139.545
21
-108.264
0
LINE
8
Black
10
139.545
20
-108.264
11
139.482
21
-108.092
0
LINE
8
Black
10
139.482
20
-108.092
11
139.482
21
-107.909
0
LINE
8
Black
10
139.482
20
-107.909
11
139.545
21
-107.737
0
LINE
8
Black
10
139.545
20
-107.737
11
139.662
21
-107.597
0
LINE
8
Black
10
139.662
20
-107.597
11
139.821
21
-107.506
0
LINE
8
Black
10
139.821
20
-107.506
11
140.001
21
-107.474
0
LINE
8
Black
10
140.001
20
-107.474
11
140.181
21
-107.506
0
LINE
8
Black
10
138.181
20
-107.506
11
138.34
21
-107.597
0
LINE
8
Black
10
138.34
20
-107.597
11
138.457
21
-107.737
0
LINE
8
Black
10
138.457
20
-107.737
11
138.52
21
-107.909
0
LINE
8
Black
10
138.52
20
-107.909
11
138.52
21
-108.092
0
LINE
8
Black
10
138.52
20
-108.092
11
138.457
21
-108.264
0
LINE
8
Black
10
138.457
20
-108.264
11
138.34
21
-108.405
0
LINE
8
Black
10
138.34
20
-108.405
11
138.181
21
-108.496
0
LINE
8
Black
10
138.181
20
-108.496
11
138.001
21
-108.528
0
LINE
8
Black
10
138.001
20
-108.528
11
137.821
21
-108.496
0
LINE
8
Black
10
137.821
20
-108.496
11
137.662
21
-108.405
0
LINE
8
Black
10
137.662
20
-108.405
11
137.545
21
-108.264
0
LINE
8
Black
10
137.545
20
-108.264
11
137.482
21
-108.092
0
LINE
8
Black
10
137.482
20
-108.092
11
137.482
21
-107.909
0
LINE
8
Black
10
137.482
20
-107.909
11
137.545
21
-107.737
0
LINE
8
Black
10
137.545
20
-107.737
11
137.662
21
-107.597
0
LINE
8
Black
10
137.662
20
-107.597
11
137.821
21
-107.506
0
LINE
8
Black
10
137.821
20
-107.506
11
138.001
21
-107.474
0
LINE
8
Black
10
138.001
20
-107.474
11
138.181
21
-107.506
0
LINE
8
Black
10
136.181
20
-107.506
11
136.34
21
-107.597
0
LINE
8
Black
10
136.34
20
-107.597
11
136.457
21
-107.737
0
LINE
8
Black
10
136.457
20
-107.737
11
136.52
21
-107.909
0
LINE
8
Black
10
136.52
20
-107.909
11
136.52
21
-108.092
0
LINE
8
Black
10
136.52
20
-108.092
11
136.457
21
-108.264
0
LINE
8
Black
10
136.457
20
-108.264
11
136.34
21
-108.405
0
LINE
8
Black
10
136.34
20
-108.405
11
136.181
21
-108.496
0
LINE
8
Black
10
136.181
20
-108.496
11
136.001
21
-108.528
0
LINE
8
Black
10
136.001
20
-108.528
11
135.821
21
-108.496
0
LINE
8
Black
10
135.821
20
-108.496
11
135.662
21
-108.405
0
LINE
8
Black
10
135.662
20
-108.405
11
135.545
21
-108.264
0
LINE
8
Black
10
135.545
20
-108.264
11
135.482
21
-108.092
0
LINE
8
Black
10
135.482
20
-108.092
11
135.482
21
-107.909
0
LINE
8
Black
10
135.482
20
-107.909
11
135.545
21
-107.737
0
LINE
8
Black
10
135.545
20
-107.737
11
135.662
21
-107.597
0
LINE
8
Black
10
135.662
20
-107.597
11
135.821
21
-107.506
0
LINE
8
Black
10
135.821
20
-107.506
11
136.001
21
-107.474
0
LINE
8
Black
10
136.001
20
-107.474
11
136.181
21
-107.506
0
LINE
8
Black
10
142.181
20
-107.506
11
142.34
21
-107.597
0
LINE
8
Black
10
142.34
20
-107.597
11
142.457
21
-107.737
0
LINE
8
Black
10
142.457
20
-107.737
11
142.52
21
-107.909
0
LINE
8
Black
10
142.52
20
-107.909
11
142.52
21
-108.092
0
LINE
8
Black
10
142.52
20
-108.092
11
142.457
21
-108.264
0
LINE
8
Black
10
142.457
20
-108.264
11
142.34
21
-108.405
0
LINE
8
Black
10
142.34
20
-108.405
11
142.181
21
-108.496
0
LINE
8
Black
10
142.181
20
-108.496
11
142.001
21
-108.528
0
LINE
8
Black
10
142.001
20
-108.528
11
141.821
21
-108.496
0
LINE
8
Black
10
141.821
20
-108.496
11
141.662
21
-108.405
0
LINE
8
Black
10
141.662
20
-108.405
11
141.545
21
-108.264
0
LINE
8
Black
10
141.545
20
-108.264
11
141.482
21
-108.092
0
LINE
8
Black
10
141.482
20
-108.092
11
141.482
21
-107.909
0
LINE
8
Black
10
141.482
20
-107.909
11
141.545
21
-107.737
0
LINE
8
Black
10
141.545
20
-107.737
11
141.662
21
-107.597
0
LINE
8
Black
10
141.662
20
-107.597
11
141.821
21
-107.506
0
LINE
8
Black
10
141.821
20
-107.506
11
142.001
21
-107.474
0
LINE
8
Black
10
142.001
20
-107.474
11
142.181
21
-107.506
0
LINE
8
Black
10
144.181
20
-107.506
11
144.34
21
-107.597
0
LINE
8
Black
10
144.34
20
-107.597
11
144.457
21
-107.737
0
LINE
8
Black
10
144.457
20
-107.737
11
144.52
21
-107.909
0
LINE
8
Black
10
144.52
20
-107.909
11
144.52
21
-108.092
0
LINE
8
Black
10
144.52
20
-108.092
11
144.457
21
-108.264
0
LINE
8
Black
10
144.457
20
-108.264
11
144.34
21
-108.405
0
LINE
8
Black
10
144.34
20
-108.405
11
144.181
21
-108.496
0
LINE
8
Black
10
144.181
20
-108.496
11
144.001
21
-108.528
0
LINE
8
Black
10
144.001
20
-108.528
11
143.821
21
-108.496
0
LINE
8
Black
10
143.821
20
-108.496
11
143.662
21
-108.405
0
LINE
8
Black
10
143.662
20
-108.405
11
143.545
21
-108.264
0
LINE
8
Black
10
143.545
20
-108.264
11
143.482
21
-108.092
0
LINE
8
Black
10
143.482
20
-108.092
11
143.482
21
-107.909
0
LINE
8
Black
10
143.482
20
-107.909
11
143.545
21
-107.737
0
LINE
8
Black
10
143.545
20
-107.737
11
143.662
21
-107.597
0
LINE
8
Black
10
143.662
20
-107.597
11
143.821
21
-107.506
0
LINE
8
Black
10
143.821
20
-107.506
11
144.001
21
-107.474
0
LINE
8
Black
10
144.001
20
-107.474
11
144.181
21
-107.506
0
LINE
8
Black
10
132.181
20
-107.506
11
132.34
21
-107.597
0
LINE
8
Black
10
132.34
20
-107.597
11
132.457
21
-107.737
0
LINE
8
Black
10
132.457
20
-107.737
11
132.52
21
-107.909
0
LINE
8
Black
10
132.52
20
-107.909
11
132.52
21
-108.092
0
LINE
8
Black
10
132.52
20
-108.092
11
132.457
21
-108.264
0
LINE
8
Black
10
132.457
20
-108.264
11
132.34
21
-108.405
0
LINE
8
Black
10
132.34
20
-108.405
11
132.181
21
-108.496
0
LINE
8
Black
10
132.181
20
-108.496
11
132.001
21
-108.528
0
LINE
8
Black
10
132.001
20
-108.528
11
131.821
21
-108.496
0
LINE
8
Black
10
131.821
20
-108.496
11
131.662
21
-108.405
0
LINE
8
Black
10
131.662
20
-108.405
11
131.545
21
-108.264
0
LINE
8
Black
10
131.545
20
-108.264
11
131.482
21
-108.092
0
LINE
8
Black
10
131.482
20
-108.092
11
131.482
21
-107.909
0
LINE
8
Black
10
131.482
20
-107.909
11
131.545
21
-107.737
0
LINE
8
Black
10
131.545
20
-107.737
11
131.662
21
-107.597
0
LINE
8
Black
10
131.662
20
-107.597
11
131.821
21
-107.506
0
LINE
8
Black
10
131.821
20
-107.506
11
132.001
21
-107.474
0
LINE
8
Black
10
132.001
20
-107.474
11
132.181
21
-107.506
0
LINE
8
Black
10
134.181
20
-107.506
11
134.34
21
-107.597
0
LINE
8
Black
10
134.34
20
-107.597
11
134.457
21
-107.737
0
LINE
8
Black
10
134.457
20
-107.737
11
134.52
21
-107.909
0
LINE
8
Black
10
134.52
20
-107.909
11
134.52
21
-108.092
0
LINE
8
Black
10
134.52
20
-108.092
11
134.457
21
-108.264
0
LINE
8
Black
10
134.457
20
-108.264
11
134.34
21
-108.405
0
LINE
8
Black
10
134.34
20
-108.405
11
134.181
21
-108.496
0
LINE
8
Black
10
134.181
20
-108.496
11
134.001
21
-108.528
0
LINE
8
Black
10
134.001
20
-108.528
11
133.821
21
-108.496
0
LINE
8
Black
10
133.821
20
-108.496
11
133.662
21
-108.405
0
LINE
8
Black
10
133.662
20
-108.405
11
133.545
21
-108.264
0
LINE
8
Black
10
133.545
20
-108.264
11
133.482
21
-108.092
0
LINE
8
Black
10
133.482
20
-108.092
11
133.482
21
-107.909
0
LINE
8
Black
10
133.482
20
-107.909
11
133.545
21
-107.737
0
LINE
8
Black
10
133.545
20
-107.737
11
133.662
21
-107.597
0
LINE
8
Black
10
133.662
20
-107.597
11
133.821
21
-107.506
0
LINE
8
Black
10
133.821
20
-107.506
11
134.001
21
-107.474
0
LINE
8
Black
10
134.001
20
-107.474
11
134.181
21
-107.506
0
LINE
8
Black
10
146.181
20
-107.506
11
146.34
21
-107.597
0
LINE
8
Black
10
146.34
20
-107.597
11
146.457
21
-107.737
0
LINE
8
Black
10
146.457
20
-107.737
11
146.52
21
-107.909
0
LINE
8
Black
10
146.52
20
-107.909
11
146.52
21
-108.092
0
LINE
8
Black
10
146.52
20
-108.092
11
146.457
21
-108.264
0
LINE
8
Black
10
146.457
20
-108.264
11
146.34
21
-108.405
0
LINE
8
Black
10
146.34
20
-108.405
11
146.181
21
-108.496
0
LINE
8
Black
10
146.181
20
-108.496
11
146.001
21
-108.528
0
LINE
8
Black
10
146.001
20
-108.528
11
145.821
21
-108.496
0
LINE
8
Black
10
145.821
20
-108.496
11
145.662
21
-108.405
0
LINE
8
Black
10
145.662
20
-108.405
11
145.545
21
-108.264
0
LINE
8
Black
10
145.545
20
-108.264
11
145.482
21
-108.092
0
LINE
8
Black
10
145.482
20
-108.092
11
145.482
21
-107.909
0
LINE
8
Black
10
145.482
20
-107.909
11
145.545
21
-107.737
0
LINE
8
Black
10
145.545
20
-107.737
11
145.662
21
-107.597
0
LINE
8
Black
10
145.662
20
-107.597
11
145.821
21
-107.506
0
LINE
8
Black
10
145.821
20
-107.506
11
146.001
21
-107.474
0
LINE
8
Black
10
146.001
20
-107.474
11
146.181
21
-107.506
0
LINE
8
Black
10
130.181
20
-107.506
11
130.34
21
-107.597
0
LINE
8
Black
10
130.34
20
-107.597
11
130.457
21
-107.737
0
LINE
8
Black
10
130.457
20
-107.737
11
130.52
21
-107.909
0
LINE
8
Black
10
130.52
20
-107.909
11
130.52
21
-108.092
0
LINE
8
Black
10
130.52
20
-108.092
11
130.457
21
-108.264
0
LINE
8
Black
10
130.457
20
-108.264
11
130.34
21
-108.405
0
LINE
8
Black
10
130.34
20
-108.405
11
130.181
21
-108.496
0
LINE
8
Black
10
130.181
20
-108.496
11
130.001
21
-108.528
0
LINE
8
Black
10
130.001
20
-108.528
11
129.821
21
-108.496
0
LINE
8
Black
10
129.821
20
-108.496
11
129.662
21
-108.405
0
LINE
8
Black
10
129.662
20
-108.405
11
129.545
21
-108.264
0
LINE
8
Black
10
129.545
20
-108.264
11
129.482
21
-108.092
0
LINE
8
Black
10
129.482
20
-108.092
11
129.482
21
-107.909
0
LINE
8
Black
10
129.482
20
-107.909
11
129.545
21
-107.737
0
LINE
8
Black
10
129.545
20
-107.737
11
129.662
21
-107.597
0
LINE
8
Black
10
129.662
20
-107.597
11
129.821
21
-107.506
0
LINE
8
Black
10
129.821
20
-107.506
11
130.001
21
-107.474
0
LINE
8
Black
10
130.001
20
-107.474
11
130.181
21
-107.506
0
LINE
8
Black
10
148.526
20
-108.526
11
147.476
21
-108.526
0
LINE
8
Black
10
147.476
20
-108.526
11
147.476
21
-107.476
0
LINE
8
Black
10
147.476
20
-107.476
11
148.526
21
-107.476
0
LINE
8
Black
10
148.526
20
-107.476
11
148.526
21
-108.526
0
LINE
8
Black
10
139.301
20
-107.578
11
139.304
21
-107.577
0
LINE
8
Black
10
139.304
20
-107.577
11
139.31
21
-107.579
0
LINE
8
Black
10
139.31
20
-107.579
11
139.316
21
-107.58
0
LINE
8
Black
10
139.316
20
-107.58
11
139.318
21
-107.582
0
LINE
8
Black
10
139.318
20
-107.582
11
139.321
21
-107.582
0
LINE
8
Black
10
139.321
20
-107.582
11
139.369
21
-107.606
0
LINE
8
Black
10
139.369
20
-107.606
11
139.375
21
-107.611
0
LINE
8
Black
10
139.375
20
-107.611
11
139.382
21
-107.616
0
LINE
8
Black
10
139.382
20
-107.616
11
139.405
21
-107.639
0
LINE
8
Black
10
139.405
20
-107.639
11
139.41
21
-107.646
0
LINE
8
Black
10
139.41
20
-107.646
11
139.415
21
-107.652
0
LINE
8
Black
10
139.415
20
-107.652
11
139.439
21
-107.7
0
LINE
8
Black
10
139.439
20
-107.7
11
139.439
21
-107.703
0
LINE
8
Black
10
139.439
20
-107.703
11
139.441
21
-107.705
0
LINE
8
Black
10
139.441
20
-107.705
11
139.442
21
-107.711
0
LINE
8
Black
10
139.442
20
-107.711
11
139.444
21
-107.717
0
LINE
8
Black
10
139.444
20
-107.717
11
139.443
21
-107.72
0
LINE
8
Black
10
139.443
20
-107.72
11
139.444
21
-107.722
0
LINE
8
Black
10
139.444
20
-107.722
11
139.444
21
-107.77
0
LINE
8
Black
10
139.444
20
-107.77
11
139.442
21
-107.778
0
LINE
8
Black
10
139.442
20
-107.778
11
139.441
21
-107.786
0
LINE
8
Black
10
139.441
20
-107.786
11
139.417
21
-107.857
0
LINE
8
Black
10
139.417
20
-107.857
11
139.416
21
-107.86
0
LINE
8
Black
10
139.416
20
-107.86
11
139.415
21
-107.863
0
LINE
8
Black
10
139.415
20
-107.863
11
139.412
21
-107.867
0
LINE
8
Black
10
139.412
20
-107.867
11
139.409
21
-107.872
0
LINE
8
Black
10
139.409
20
-107.872
11
139.407
21
-107.874
0
LINE
8
Black
10
139.407
20
-107.874
11
139.405
21
-107.877
0
LINE
8
Black
10
139.405
20
-107.877
11
139.205
21
-108.077
0
LINE
8
Black
10
139.205
20
-108.077
11
139.394
21
-108.077
0
LINE
8
Black
10
139.394
20
-108.077
11
139.411
21
-108.08
0
LINE
8
Black
10
139.411
20
-108.08
11
139.426
21
-108.089
0
LINE
8
Black
10
139.426
20
-108.089
11
139.437
21
-108.102
0
LINE
8
Black
10
139.437
20
-108.102
11
139.443
21
-108.118
0
LINE
8
Black
10
139.443
20
-108.118
11
139.443
21
-108.136
0
LINE
8
Black
10
139.443
20
-108.136
11
139.437
21
-108.152
0
LINE
8
Black
10
139.437
20
-108.152
11
139.426
21
-108.165
0
LINE
8
Black
10
139.426
20
-108.165
11
139.411
21
-108.174
0
LINE
8
Black
10
139.411
20
-108.174
11
139.394
21
-108.177
0
LINE
8
Black
10
139.394
20
-108.177
11
139.084
21
-108.177
0
LINE
8
Black
10
139.084
20
-108.177
11
139.078
21
-108.176
0
LINE
8
Black
10
139.078
20
-108.176
11
139.071
21
-108.175
0
LINE
8
Black
10
139.071
20
-108.175
11
139.069
21
-108.174
0
LINE
8
Black
10
139.069
20
-108.174
11
139.067
21
-108.174
0
LINE
8
Black
10
139.067
20
-108.174
11
139.062
21
-108.171
0
LINE
8
Black
10
139.062
20
-108.171
11
139.056
21
-108.168
0
LINE
8
Black
10
139.056
20
-108.168
11
139.054
21
-108.167
0
LINE
8
Black
10
139.054
20
-108.167
11
139.052
21
-108.165
0
LINE
8
Black
10
139.052
20
-108.165
11
139.048
21
-108.16
0
LINE
8
Black
10
139.048
20
-108.16
11
139.043
21
-108.156
0
LINE
8
Black
10
139.043
20
-108.156
11
139.042
21
-108.154
0
LINE
8
Black
10
139.042
20
-108.154
11
139.041
21
-108.152
0
LINE
8
Black
10
139.041
20
-108.152
11
139.039
21
-108.146
0
LINE
8
Black
10
139.039
20
-108.146
11
139.036
21
-108.14
0
LINE
8
Black
10
139.036
20
-108.14
11
139.036
21
-108.138
0
LINE
8
Black
10
139.036
20
-108.138
11
139.035
21
-108.136
0
LINE
8
Black
10
139.035
20
-108.136
11
139.035
21
-108.129
0
LINE
8
Black
10
139.035
20
-108.129
11
139.035
21
-108.123
0
LINE
8
Black
10
139.035
20
-108.123
11
139.035
21
-108.121
0
LINE
8
Black
10
139.035
20
-108.121
11
139.035
21
-108.118
0
LINE
8
Black
10
139.035
20
-108.118
11
139.037
21
-108.112
0
LINE
8
Black
10
139.037
20
-108.112
11
139.039
21
-108.106
0
LINE
8
Black
10
139.039
20
-108.106
11
139.04
21
-108.104
0
LINE
8
Black
10
139.04
20
-108.104
11
139.041
21
-108.102
0
LINE
8
Black
10
139.041
20
-108.102
11
139.045
21
-108.097
0
LINE
8
Black
10
139.045
20
-108.097
11
139.049
21
-108.092
0
LINE
8
Black
10
139.049
20
-108.092
11
139.326
21
-107.814
0
LINE
8
Black
10
139.326
20
-107.814
11
139.344
21
-107.762
0
LINE
8
Black
10
139.344
20
-107.762
11
139.344
21
-107.734
0
LINE
8
Black
10
139.344
20
-107.734
11
139.329
21
-107.704
0
LINE
8
Black
10
139.329
20
-107.704
11
139.317
21
-107.692
0
LINE
8
Black
10
139.317
20
-107.692
11
139.287
21
-107.677
0
LINE
8
Black
10
139.287
20
-107.677
11
139.191
21
-107.677
0
LINE
8
Black
10
139.191
20
-107.677
11
139.162
21
-107.692
0
LINE
8
Black
10
139.162
20
-107.692
11
139.143
21
-107.71
0
LINE
8
Black
10
139.143
20
-107.71
11
139.129
21
-107.72
0
LINE
8
Black
10
139.129
20
-107.72
11
139.113
21
-107.725
0
LINE
8
Black
10
139.113
20
-107.725
11
139.095
21
-107.723
0
LINE
8
Black
10
139.095
20
-107.723
11
139.079
21
-107.716
0
LINE
8
Black
10
139.079
20
-107.716
11
139.067
21
-107.703
0
LINE
8
Black
10
139.067
20
-107.703
11
139.06
21
-107.688
0
LINE
8
Black
10
139.06
20
-107.688
11
139.058
21
-107.67
0
LINE
8
Black
10
139.058
20
-107.67
11
139.063
21
-107.654
0
LINE
8
Black
10
139.063
20
-107.654
11
139.073
21
-107.639
0
LINE
8
Black
10
139.073
20
-107.639
11
139.097
21
-107.616
0
LINE
8
Black
10
139.097
20
-107.616
11
139.103
21
-107.611
0
LINE
8
Black
10
139.103
20
-107.611
11
139.11
21
-107.606
0
LINE
8
Black
10
139.11
20
-107.606
11
139.157
21
-107.582
0
LINE
8
Black
10
139.157
20
-107.582
11
139.16
21
-107.582
0
LINE
8
Black
10
139.16
20
-107.582
11
139.162
21
-107.58
0
LINE
8
Black
10
139.162
20
-107.58
11
139.168
21
-107.579
0
LINE
8
Black
10
139.168
20
-107.579
11
139.174
21
-107.577
0
LINE
8
Black
10
139.174
20
-107.577
11
139.177
21
-107.578
0
LINE
8
Black
10
139.177
20
-107.578
11
139.18
21
-107.577
0
LINE
8
Black
10
139.18
20
-107.577
11
139.299
21
-107.577
0
LINE
8
Black
10
139.299
20
-107.577
11
139.301
21
-107.578
0
LINE
8
Black
10
138.825
20
-107.578
11
138.828
21
-107.577
0
LINE
8
Black
10
138.828
20
-107.577
11
138.834
21
-107.579
0
LINE
8
Black
10
138.834
20
-107.579
11
138.84
21
-107.58
0
LINE
8
Black
10
138.84
20
-107.58
11
138.842
21
-107.582
0
LINE
8
Black
10
138.842
20
-107.582
11
138.845
21
-107.582
0
LINE
8
Black
10
138.845
20
-107.582
11
138.892
21
-107.606
0
LINE
8
Black
10
138.892
20
-107.606
11
138.899
21
-107.611
0
LINE
8
Black
10
138.899
20
-107.611
11
138.905
21
-107.616
0
LINE
8
Black
10
138.905
20
-107.616
11
138.929
21
-107.639
0
LINE
8
Black
10
138.929
20
-107.639
11
138.934
21
-107.646
0
LINE
8
Black
10
138.934
20
-107.646
11
138.939
21
-107.652
0
LINE
8
Black
10
138.939
20
-107.652
11
138.962
21
-107.7
0
LINE
8
Black
10
138.962
20
-107.7
11
138.963
21
-107.703
0
LINE
8
Black
10
138.963
20
-107.703
11
138.965
21
-107.705
0
LINE
8
Black
10
138.965
20
-107.705
11
138.966
21
-107.711
0
LINE
8
Black
10
138.966
20
-107.711
11
138.967
21
-107.717
0
LINE
8
Black
10
138.967
20
-107.717
11
138.967
21
-107.72
0
LINE
8
Black
10
138.967
20
-107.72
11
138.968
21
-107.722
0
LINE
8
Black
10
138.968
20
-107.722
11
138.968
21
-107.794
0
LINE
8
Black
10
138.968
20
-107.794
11
138.967
21
-107.797
0
LINE
8
Black
10
138.967
20
-107.797
11
138.967
21
-107.799
0
LINE
8
Black
10
138.967
20
-107.799
11
138.966
21
-107.805
0
LINE
8
Black
10
138.966
20
-107.805
11
138.965
21
-107.811
0
LINE
8
Black
10
138.965
20
-107.811
11
138.963
21
-107.813
0
LINE
8
Black
10
138.963
20
-107.813
11
138.962
21
-107.816
0
LINE
8
Black
10
138.962
20
-107.816
11
138.939
21
-107.864
0
LINE
8
Black
10
138.939
20
-107.864
11
138.934
21
-107.87
0
LINE
8
Black
10
138.934
20
-107.87
11
138.929
21
-107.877
0
LINE
8
Black
10
138.929
20
-107.877
11
138.905
21
-107.901
0
LINE
8
Black
10
138.905
20
-107.901
11
138.899
21
-107.905
0
LINE
8
Black
10
138.899
20
-107.905
11
138.892
21
-107.91
0
LINE
8
Black
10
138.892
20
-107.91
11
138.845
21
-107.934
0
LINE
8
Black
10
138.845
20
-107.934
11
138.842
21
-107.935
0
LINE
8
Black
10
138.842
20
-107.935
11
138.84
21
-107.936
0
LINE
8
Black
10
138.84
20
-107.936
11
138.834
21
-107.937
0
LINE
8
Black
10
138.834
20
-107.937
11
138.828
21
-107.939
0
LINE
8
Black
10
138.828
20
-107.939
11
138.825
21
-107.939
0
LINE
8
Black
10
138.825
20
-107.939
11
138.822
21
-107.939
0
LINE
8
Black
10
138.822
20
-107.939
11
138.682
21
-107.939
0
LINE
8
Black
10
138.682
20
-107.939
11
138.682
21
-108.127
0
LINE
8
Black
10
138.682
20
-108.127
11
138.679
21
-108.144
0
LINE
8
Black
10
138.679
20
-108.144
11
138.67
21
-108.159
0
LINE
8
Black
10
138.67
20
-108.159
11
138.657
21
-108.17
0
LINE
8
Black
10
138.657
20
-108.17
11
138.641
21
-108.176
0
LINE
8
Black
10
138.641
20
-108.176
11
138.623
21
-108.176
0
LINE
8
Black
10
138.623
20
-108.176
11
138.607
21
-108.17
0
LINE
8
Black
10
138.607
20
-108.17
11
138.594
21
-108.159
0
LINE
8
Black
10
138.594
20
-108.159
11
138.585
21
-108.144
0
LINE
8
Black
10
138.585
20
-108.144
11
138.582
21
-108.127
0
LINE
8
Black
10
138.582
20
-108.127
11
138.582
21
-107.627
0
LINE
8
Black
10
138.582
20
-107.627
11
138.583
21
-107.623
0
LINE
8
Black
10
138.583
20
-107.623
11
138.583
21
-107.618
0
LINE
8
Black
10
138.583
20
-107.618
11
138.584
21
-107.614
0
LINE
8
Black
10
138.584
20
-107.614
11
138.585
21
-107.61
0
LINE
8
Black
10
138.585
20
-107.61
11
138.587
21
-107.606
0
LINE
8
Black
10
138.587
20
-107.606
11
138.589
21
-107.602
0
LINE
8
Black
10
138.589
20
-107.602
11
138.591
21
-107.599
0
LINE
8
Black
10
138.591
20
-107.599
11
138.594
21
-107.595
0
LINE
8
Black
10
138.594
20
-107.595
11
138.597
21
-107.592
0
LINE
8
Black
10
138.597
20
-107.592
11
138.6
21
-107.589
0
LINE
8
Black
10
138.6
20
-107.589
11
138.604
21
-107.587
0
LINE
8
Black
10
138.604
20
-107.587
11
138.607
21
-107.584
0
LINE
8
Black
10
138.607
20
-107.584
11
138.611
21
-107.582
0
LINE
8
Black
10
138.611
20
-107.582
11
138.615
21
-107.58
0
LINE
8
Black
10
138.615
20
-107.58
11
138.619
21
-107.579
0
LINE
8
Black
10
138.619
20
-107.579
11
138.623
21
-107.578
0
LINE
8
Black
10
138.623
20
-107.578
11
138.628
21
-107.578
0
LINE
8
Black
10
138.628
20
-107.578
11
138.632
21
-107.577
0
LINE
8
Black
10
138.632
20
-107.577
11
138.822
21
-107.577
0
LINE
8
Black
10
138.822
20
-107.577
11
138.825
21
-107.578
0
LINE
8
Black
10
138.682
20
-107.677
11
138.682
21
-107.839
0
LINE
8
Black
10
138.682
20
-107.839
11
138.811
21
-107.839
0
LINE
8
Black
10
138.811
20
-107.839
11
138.84
21
-107.824
0
LINE
8
Black
10
138.84
20
-107.824
11
138.853
21
-107.812
0
LINE
8
Black
10
138.853
20
-107.812
11
138.868
21
-107.782
0
LINE
8
Black
10
138.868
20
-107.782
11
138.868
21
-107.734
0
LINE
8
Black
10
138.868
20
-107.734
11
138.853
21
-107.704
0
LINE
8
Black
10
138.853
20
-107.704
11
138.84
21
-107.692
0
LINE
8
Black
10
138.84
20
-107.692
11
138.811
21
-107.677
0
LINE
8
Black
10
138.811
20
-107.677
11
138.682
21
-107.677
0
LINE
8
Black
10
137.135
20
-106.707
11
137.165
21
-106.724
0
LINE
8
Black
10
137.165
20
-106.724
11
137.188
21
-106.751
0
LINE
8
Black
10
137.188
20
-106.751
11
137.199
21
-106.784
0
LINE
8
Black
10
137.199
20
-106.784
11
137.199
21
-106.818
0
LINE
8
Black
10
137.199
20
-106.818
11
137.188
21
-106.851
0
LINE
8
Black
10
137.188
20
-106.851
11
137.165
21
-106.878
0
LINE
8
Black
10
137.165
20
-106.878
11
137.135
21
-106.895
0
LINE
8
Black
10
137.135
20
-106.895
11
137.101
21
-106.901
0
LINE
8
Black
10
137.101
20
-106.901
11
134.901
21
-106.901
0
LINE
8
Black
10
134.901
20
-106.901
11
134.867
21
-106.895
0
LINE
8
Black
10
134.867
20
-106.895
11
134.837
21
-106.878
0
LINE
8
Black
10
134.837
20
-106.878
11
134.814
21
-106.851
0
LINE
8
Black
10
134.814
20
-106.851
11
134.803
21
-106.818
0
LINE
8
Black
10
134.803
20
-106.818
11
134.803
21
-106.784
0
LINE
8
Black
10
134.803
20
-106.784
11
134.814
21
-106.751
0
LINE
8
Black
10
134.814
20
-106.751
11
134.837
21
-106.724
0
LINE
8
Black
10
134.837
20
-106.724
11
134.867
21
-106.707
0
LINE
8
Black
10
134.867
20
-106.707
11
134.901
21
-106.701
0
LINE
8
Black
10
134.901
20
-106.701
11
137.101
21
-106.701
0
LINE
8
Black
10
137.101
20
-106.701
11
137.135
21
-106.707
0
LINE
8
Black
10
145.135
20
-106.707
11
145.165
21
-106.724
0
LINE
8
Black
10
145.165
20
-106.724
11
145.188
21
-106.751
0
LINE
8
Black
10
145.188
20
-106.751
11
145.199
21
-106.784
0
LINE
8
Black
10
145.199
20
-106.784
11
145.199
21
-106.818
0
LINE
8
Black
10
145.199
20
-106.818
11
145.188
21
-106.851
0
LINE
8
Black
10
145.188
20
-106.851
11
145.165
21
-106.878
0
LINE
8
Black
10
145.165
20
-106.878
11
145.135
21
-106.895
0
LINE
8
Black
10
145.135
20
-106.895
11
145.101
21
-106.901
0
LINE
8
Black
10
145.101
20
-106.901
11
142.701
21
-106.901
0
LINE
8
Black
10
142.701
20
-106.901
11
142.667
21
-106.895
0
LINE
8
Black
10
142.667
20
-106.895
11
142.637
21
-106.878
0
LINE
8
Black
10
142.637
20
-106.878
11
142.614
21
-106.851
0
LINE
8
Black
10
142.614
20
-106.851
11
142.603
21
-106.818
0
LINE
8
Black
10
142.603
20
-106.818
11
142.603
21
-106.784
0
LINE
8
Black
10
142.603
20
-106.784
11
142.614
21
-106.751
0
LINE
8
Black
10
142.614
20
-106.751
11
142.637
21
-106.724
0
LINE
8
Black
10
142.637
20
-106.724
11
142.667
21
-106.707
0
LINE
8
Black
10
142.667
20
-106.707
11
142.701
21
-106.701
0
LINE
8
Black
10
142.701
20
-106.701
11
145.101
21
-106.701
0
LINE
8
Black
10
145.101
20
-106.701
11
145.135
21
-106.707
0
LINE
8
Black
10
133.135
20
-106.707
11
133.165
21
-106.724
0
LINE
8
Black
10
133.165
20
-106.724
11
133.188
21
-106.751
0
LINE
8
Black
10
133.188
20
-106.751
11
133.199
21
-106.784
0
LINE
8
Black
10
133.199
20
-106.784
11
133.199
21
-106.818
0
LINE
8
Black
10
133.199
20
-106.818
11
133.188
21
-106.851
0
LINE
8
Black
10
133.188
20
-106.851
11
133.165
21
-106.878
0
LINE
8
Black
10
133.165
20
-106.878
11
133.135
21
-106.895
0
LINE
8
Black
10
133.135
20
-106.895
11
133.101
21
-106.901
0
LINE
8
Black
10
133.101
20
-106.901
11
130.901
21
-106.901
0
LINE
8
Black
10
130.901
20
-106.901
11
130.867
21
-106.895
0
LINE
8
Black
10
130.867
20
-106.895
11
130.837
21
-106.878
0
LINE
8
Black
10
130.837
20
-106.878
11
130.814
21
-106.851
0
LINE
8
Black
10
130.814
20
-106.851
11
130.803
21
-106.818
0
LINE
8
Black
10
130.803
20
-106.818
11
130.803
21
-106.784
0
LINE
8
Black
10
130.803
20
-106.784
11
130.814
21
-106.751
0
LINE
8
Black
10
130.814
20
-106.751
11
130.837
21
-106.724
0
LINE
8
Black
10
130.837
20
-106.724
11
130.867
21
-106.707
0
LINE
8
Black
10
130.867
20
-106.707
11
130.901
21
-106.701
0
LINE
8
Black
10
130.901
20
-106.701
11
133.101
21
-106.701
0
LINE
8
Black
10
133.101
20
-106.701
11
133.135
21
-106.707
0
LINE
8
Black
10
140.935
20
-106.707
11
140.965
21
-106.724
0
LINE
8
Black
10
140.965
20
-106.724
11
140.988
21
-106.751
0
LINE
8
Black
10
140.988
20
-106.751
11
140.999
21
-106.784
0
LINE
8
Black
10
140.999
20
-106.784
11
140.999
21
-106.818
0
LINE
8
Black
10
140.999
20
-106.818
11
140.988
21
-106.851
0
LINE
8
Black
10
140.988
20
-106.851
11
140.965
21
-106.878
0
LINE
8
Black
10
140.965
20
-106.878
11
140.935
21
-106.895
0
LINE
8
Black
10
140.935
20
-106.895
11
140.901
21
-106.901
0
LINE
8
Black
10
140.901
20
-106.901
11
138.901
21
-106.901
0
LINE
8
Black
10
138.901
20
-106.901
11
138.867
21
-106.895
0
LINE
8
Black
10
138.867
20
-106.895
11
138.837
21
-106.878
0
LINE
8
Black
10
138.837
20
-106.878
11
138.814
21
-106.851
0
LINE
8
Black
10
138.814
20
-106.851
11
138.803
21
-106.818
0
LINE
8
Black
10
138.803
20
-106.818
11
138.803
21
-106.784
0
LINE
8
Black
10
138.803
20
-106.784
11
138.814
21
-106.751
0
LINE
8
Black
10
138.814
20
-106.751
11
138.837
21
-106.724
0
LINE
8
Black
10
138.837
20
-106.724
11
138.867
21
-106.707
0
LINE
8
Black
10
138.867
20
-106.707
11
138.901
21
-106.701
0
LINE
8
Black
10
138.901
20
-106.701
11
140.901
21
-106.701
0
LINE
8
Black
10
140.901
20
-106.701
11
140.935
21
-106.707
0
LINE
8
Black
10
148.013
20
-105.464
11
148.018
21
-105.464
0
LINE
8
Black
10
148.018
20
-105.464
11
148.03
21
-105.468
0
LINE
8
Black
10
148.03
20
-105.468
11
148.041
21
-105.471
0
LINE
8
Black
10
148.041
20
-105.471
11
148.046
21
-105.474
0
LINE
8
Black
10
148.046
20
-105.474
11
148.051
21
-105.476
0
LINE
8
Black
10
148.051
20
-105.476
11
148.06
21
-105.484
0
LINE
8
Black
10
148.06
20
-105.484
11
148.07
21
-105.491
0
LINE
8
Black
10
148.07
20
-105.491
11
148.073
21
-105.495
0
LINE
8
Black
10
148.073
20
-105.495
11
148.078
21
-105.499
0
LINE
8
Black
10
148.078
20
-105.499
11
148.084
21
-105.509
0
LINE
8
Black
10
148.084
20
-105.509
11
148.091
21
-105.519
0
LINE
8
Black
10
148.091
20
-105.519
11
148.092
21
-105.524
0
LINE
8
Black
10
148.092
20
-105.524
11
148.095
21
-105.529
0
LINE
8
Black
10
148.095
20
-105.529
11
148.097
21
-105.54
0
LINE
8
Black
10
148.097
20
-105.54
11
148.1
21
-105.552
0
LINE
8
Black
10
148.1
20
-105.552
11
148.1
21
-105.557
0
LINE
8
Black
10
148.1
20
-105.557
11
148.101
21
-105.563
0
LINE
8
Black
10
148.101
20
-105.563
11
148.101
21
-106.263
0
LINE
8
Black
10
148.101
20
-106.263
11
148.23
21
-106.263
0
LINE
8
Black
10
148.23
20
-106.263
11
148.264
21
-106.269
0
LINE
8
Black
10
148.264
20
-106.269
11
148.294
21
-106.286
0
LINE
8
Black
10
148.294
20
-106.286
11
148.316
21
-106.313
0
LINE
8
Black
10
148.316
20
-106.313
11
148.328
21
-106.345
0
LINE
8
Black
10
148.328
20
-106.345
11
148.328
21
-106.38
0
LINE
8
Black
10
148.328
20
-106.38
11
148.316
21
-106.413
0
LINE
8
Black
10
148.316
20
-106.413
11
148.294
21
-106.439
0
LINE
8
Black
10
148.294
20
-106.439
11
148.264
21
-106.457
0
LINE
8
Black
10
148.264
20
-106.457
11
148.23
21
-106.463
0
LINE
8
Black
10
148.23
20
-106.463
11
147.772
21
-106.463
0
LINE
8
Black
10
147.772
20
-106.463
11
147.738
21
-106.457
0
LINE
8
Black
10
147.738
20
-106.457
11
147.708
21
-106.439
0
LINE
8
Black
10
147.708
20
-106.439
11
147.686
21
-106.413
0
LINE
8
Black
10
147.686
20
-106.413
11
147.674
21
-106.38
0
LINE
8
Black
10
147.674
20
-106.38
11
147.674
21
-106.345
0
LINE
8
Black
10
147.674
20
-106.345
11
147.686
21
-106.313
0
LINE
8
Black
10
147.686
20
-106.313
11
147.708
21
-106.286
0
LINE
8
Black
10
147.708
20
-106.286
11
147.738
21
-106.269
0
LINE
8
Black
10
147.738
20
-106.269
11
147.772
21
-106.263
0
LINE
8
Black
10
147.772
20
-106.263
11
147.901
21
-106.263
0
LINE
8
Black
10
147.901
20
-106.263
11
147.901
21
-105.837
0
LINE
8
Black
10
147.901
20
-105.837
11
147.893
21
-105.843
0
LINE
8
Black
10
147.893
20
-105.843
11
147.817
21
-105.881
0
LINE
8
Black
10
147.817
20
-105.881
11
147.784
21
-105.891
0
LINE
8
Black
10
147.784
20
-105.891
11
147.749
21
-105.889
0
LINE
8
Black
10
147.749
20
-105.889
11
147.717
21
-105.875
0
LINE
8
Black
10
147.717
20
-105.875
11
147.692
21
-105.851
0
LINE
8
Black
10
147.692
20
-105.851
11
147.677
21
-105.82
0
LINE
8
Black
10
147.677
20
-105.82
11
147.673
21
-105.785
0
LINE
8
Black
10
147.673
20
-105.785
11
147.681
21
-105.752
0
LINE
8
Black
10
147.681
20
-105.752
11
147.7
21
-105.723
0
LINE
8
Black
10
147.7
20
-105.723
11
147.728
21
-105.702
0
LINE
8
Black
10
147.728
20
-105.702
11
147.789
21
-105.671
0
LINE
8
Black
10
147.789
20
-105.671
11
147.847
21
-105.613
0
LINE
8
Black
10
147.847
20
-105.613
11
147.918
21
-105.507
0
LINE
8
Black
10
147.918
20
-105.507
11
147.922
21
-105.503
0
LINE
8
Black
10
147.922
20
-105.503
11
147.924
21
-105.499
0
LINE
8
Black
10
147.924
20
-105.499
11
147.934
21
-105.491
0
LINE
8
Black
10
147.934
20
-105.491
11
147.942
21
-105.482
0
LINE
8
Black
10
147.942
20
-105.482
11
147.947
21
-105.48
0
LINE
8
Black
10
147.947
20
-105.48
11
147.951
21
-105.476
0
LINE
8
Black
10
147.951
20
-105.476
11
147.962
21
-105.472
0
LINE
8
Black
10
147.962
20
-105.472
11
147.973
21
-105.467
0
LINE
8
Black
10
147.973
20
-105.467
11
147.978
21
-105.466
0
LINE
8
Black
10
147.978
20
-105.466
11
147.984
21
-105.464
0
LINE
8
Black
10
147.984
20
-105.464
11
147.996
21
-105.464
0
LINE
8
Black
10
147.996
20
-105.464
11
148.007
21
-105.463
0
LINE
8
Black
10
148.007
20
-105.463
11
148.013
21
-105.464
0
LINE
8
Black
10
139.606
20
-104.928
11
139.621
21
-104.936
0
LINE
8
Black
10
139.621
20
-104.936
11
139.632
21
-104.95
0
LINE
8
Black
10
139.632
20
-104.95
11
139.638
21
-104.966
0
LINE
8
Black
10
139.638
20
-104.966
11
139.638
21
-104.983
0
LINE
8
Black
10
139.638
20
-104.983
11
139.632
21
-105
0
LINE
8
Black
10
139.632
20
-105
11
139.621
21
-105.013
0
LINE
8
Black
10
139.621
20
-105.013
11
139.606
21
-105.022
0
LINE
8
Black
10
139.606
20
-105.022
11
139.589
21
-105.025
0
LINE
8
Black
10
139.589
20
-105.025
11
139.208
21
-105.025
0
LINE
8
Black
10
139.208
20
-105.025
11
139.191
21
-105.022
0
LINE
8
Black
10
139.191
20
-105.022
11
139.176
21
-105.013
0
LINE
8
Black
10
139.176
20
-105.013
11
139.165
21
-105
0
LINE
8
Black
10
139.165
20
-105
11
139.159
21
-104.983
0
LINE
8
Black
10
139.159
20
-104.983
11
139.159
21
-104.966
0
LINE
8
Black
10
139.159
20
-104.966
11
139.165
21
-104.95
0
LINE
8
Black
10
139.165
20
-104.95
11
139.176
21
-104.936
0
LINE
8
Black
10
139.176
20
-104.936
11
139.191
21
-104.928
0
LINE
8
Black
10
139.191
20
-104.928
11
139.208
21
-104.925
0
LINE
8
Black
10
139.208
20
-104.925
11
139.589
21
-104.925
0
LINE
8
Black
10
139.589
20
-104.925
11
139.606
21
-104.928
0
LINE
8
Black
10
137.797
20
-104.928
11
137.812
21
-104.936
0
LINE
8
Black
10
137.812
20
-104.936
11
137.823
21
-104.95
0
LINE
8
Black
10
137.823
20
-104.95
11
137.829
21
-104.966
0
LINE
8
Black
10
137.829
20
-104.966
11
137.829
21
-104.983
0
LINE
8
Black
10
137.829
20
-104.983
11
137.823
21
-105
0
LINE
8
Black
10
137.823
20
-105
11
137.812
21
-105.013
0
LINE
8
Black
10
137.812
20
-105.013
11
137.797
21
-105.022
0
LINE
8
Black
10
137.797
20
-105.022
11
137.78
21
-105.025
0
LINE
8
Black
10
137.78
20
-105.025
11
137.399
21
-105.025
0
LINE
8
Black
10
137.399
20
-105.025
11
137.382
21
-105.022
0
LINE
8
Black
10
137.382
20
-105.022
11
137.366
21
-105.013
0
LINE
8
Black
10
137.366
20
-105.013
11
137.355
21
-105
0
LINE
8
Black
10
137.355
20
-105
11
137.349
21
-104.983
0
LINE
8
Black
10
137.349
20
-104.983
11
137.349
21
-104.966
0
LINE
8
Black
10
137.349
20
-104.966
11
137.355
21
-104.95
0
LINE
8
Black
10
137.355
20
-104.95
11
137.366
21
-104.936
0
LINE
8
Black
10
137.366
20
-104.936
11
137.382
21
-104.928
0
LINE
8
Black
10
137.382
20
-104.928
11
137.399
21
-104.925
0
LINE
8
Black
10
137.399
20
-104.925
11
137.78
21
-104.925
0
LINE
8
Black
10
137.78
20
-104.925
11
137.797
21
-104.928
0
LINE
8
Black
10
140.663
20
-104.378
11
140.666
21
-104.377
0
LINE
8
Black
10
140.666
20
-104.377
11
140.672
21
-104.379
0
LINE
8
Black
10
140.672
20
-104.379
11
140.678
21
-104.38
0
LINE
8
Black
10
140.678
20
-104.38
11
140.68
21
-104.382
0
LINE
8
Black
10
140.68
20
-104.382
11
140.683
21
-104.382
0
LINE
8
Black
10
140.683
20
-104.382
11
140.731
21
-104.406
0
LINE
8
Black
10
140.731
20
-104.406
11
140.744
21
-104.417
0
LINE
8
Black
10
140.744
20
-104.417
11
140.754
21
-104.431
0
LINE
8
Black
10
140.754
20
-104.431
11
140.758
21
-104.448
0
LINE
8
Black
10
140.758
20
-104.448
11
140.756
21
-104.465
0
LINE
8
Black
10
140.756
20
-104.465
11
140.748
21
-104.481
0
LINE
8
Black
10
140.748
20
-104.481
11
140.736
21
-104.493
0
LINE
8
Black
10
140.736
20
-104.493
11
140.72
21
-104.5
0
LINE
8
Black
10
140.72
20
-104.5
11
140.702
21
-104.501
0
LINE
8
Black
10
140.702
20
-104.501
11
140.686
21
-104.496
0
LINE
8
Black
10
140.686
20
-104.496
11
140.649
21
-104.477
0
LINE
8
Black
10
140.649
20
-104.477
11
140.597
21
-104.477
0
LINE
8
Black
10
140.597
20
-104.477
11
140.545
21
-104.495
0
LINE
8
Black
10
140.545
20
-104.495
11
140.511
21
-104.528
0
LINE
8
Black
10
140.511
20
-104.528
11
140.493
21
-104.564
0
LINE
8
Black
10
140.493
20
-104.564
11
140.472
21
-104.648
0
LINE
8
Black
10
140.472
20
-104.648
11
140.472
21
-104.707
0
LINE
8
Black
10
140.472
20
-104.707
11
140.493
21
-104.791
0
LINE
8
Black
10
140.493
20
-104.791
11
140.511
21
-104.826
0
LINE
8
Black
10
140.511
20
-104.826
11
140.545
21
-104.86
0
LINE
8
Black
10
140.545
20
-104.86
11
140.597
21
-104.877
0
LINE
8
Black
10
140.597
20
-104.877
11
140.629
21
-104.877
0
LINE
8
Black
10
140.629
20
-104.877
11
140.681
21
-104.86
0
LINE
8
Black
10
140.681
20
-104.86
11
140.682
21
-104.859
0
LINE
8
Black
10
140.682
20
-104.859
11
140.682
21
-104.763
0
LINE
8
Black
10
140.682
20
-104.763
11
140.637
21
-104.763
0
LINE
8
Black
10
140.637
20
-104.763
11
140.62
21
-104.76
0
LINE
8
Black
10
140.62
20
-104.76
11
140.605
21
-104.751
0
LINE
8
Black
10
140.605
20
-104.751
11
140.593
21
-104.738
0
LINE
8
Black
10
140.593
20
-104.738
11
140.587
21
-104.722
0
LINE
8
Black
10
140.587
20
-104.722
11
140.587
21
-104.704
0
LINE
8
Black
10
140.587
20
-104.704
11
140.593
21
-104.688
0
LINE
8
Black
10
140.593
20
-104.688
11
140.605
21
-104.675
0
LINE
8
Black
10
140.605
20
-104.675
11
140.62
21
-104.666
0
LINE
8
Black
10
140.62
20
-104.666
11
140.637
21
-104.663
0
LINE
8
Black
10
140.637
20
-104.663
11
140.732
21
-104.663
0
LINE
8
Black
10
140.732
20
-104.663
11
140.736
21
-104.664
0
LINE
8
Black
10
140.736
20
-104.664
11
140.741
21
-104.664
0
LINE
8
Black
10
140.741
20
-104.664
11
140.745
21
-104.665
0
LINE
8
Black
10
140.745
20
-104.665
11
140.749
21
-104.666
0
LINE
8
Black
10
140.749
20
-104.666
11
140.753
21
-104.668
0
LINE
8
Black
10
140.753
20
-104.668
11
140.757
21
-104.67
0
LINE
8
Black
10
140.757
20
-104.67
11
140.76
21
-104.672
0
LINE
8
Black
10
140.76
20
-104.672
11
140.764
21
-104.675
0
LINE
8
Black
10
140.764
20
-104.675
11
140.767
21
-104.678
0
LINE
8
Black
10
140.767
20
-104.678
11
140.77
21
-104.681
0
LINE
8
Black
10
140.77
20
-104.681
11
140.772
21
-104.684
0
LINE
8
Black
10
140.772
20
-104.684
11
140.775
21
-104.688
0
LINE
8
Black
10
140.775
20
-104.688
11
140.777
21
-104.692
0
LINE
8
Black
10
140.777
20
-104.692
11
140.779
21
-104.696
0
LINE
8
Black
10
140.779
20
-104.696
11
140.78
21
-104.7
0
LINE
8
Black
10
140.78
20
-104.7
11
140.781
21
-104.704
0
LINE
8
Black
10
140.781
20
-104.704
11
140.781
21
-104.709
0
LINE
8
Black
10
140.781
20
-104.709
11
140.782
21
-104.713
0
LINE
8
Black
10
140.782
20
-104.713
11
140.782
21
-104.879
0
LINE
8
Black
10
140.782
20
-104.879
11
140.782
21
-104.882
0
LINE
8
Black
10
140.782
20
-104.882
11
140.782
21
-104.884
0
LINE
8
Black
10
140.782
20
-104.884
11
140.78
21
-104.89
0
LINE
8
Black
10
140.78
20
-104.89
11
140.779
21
-104.897
0
LINE
8
Black
10
140.779
20
-104.897
11
140.778
21
-104.898
0
LINE
8
Black
10
140.778
20
-104.898
11
140.777
21
-104.901
0
LINE
8
Black
10
140.777
20
-104.901
11
140.774
21
-104.906
0
LINE
8
Black
10
140.774
20
-104.906
11
140.77
21
-104.912
0
LINE
8
Black
10
140.77
20
-104.912
11
140.769
21
-104.913
0
LINE
8
Black
10
140.769
20
-104.913
11
140.767
21
-104.915
0
LINE
8
Black
10
140.767
20
-104.915
11
140.743
21
-104.939
0
LINE
8
Black
10
140.743
20
-104.939
11
140.741
21
-104.94
0
LINE
8
Black
10
140.741
20
-104.94
11
140.739
21
-104.942
0
LINE
8
Black
10
140.739
20
-104.942
11
140.734
21
-104.945
0
LINE
8
Black
10
140.734
20
-104.945
11
140.729
21
-104.949
0
LINE
8
Black
10
140.729
20
-104.949
11
140.726
21
-104.949
0
LINE
8
Black
10
140.726
20
-104.949
11
140.724
21
-104.951
0
LINE
8
Black
10
140.724
20
-104.951
11
140.653
21
-104.975
0
LINE
8
Black
10
140.653
20
-104.975
11
140.645
21
-104.976
0
LINE
8
Black
10
140.645
20
-104.976
11
140.637
21
-104.977
0
LINE
8
Black
10
140.637
20
-104.977
11
140.589
21
-104.977
0
LINE
8
Black
10
140.589
20
-104.977
11
140.581
21
-104.976
0
LINE
8
Black
10
140.581
20
-104.976
11
140.573
21
-104.975
0
LINE
8
Black
10
140.573
20
-104.975
11
140.502
21
-104.951
0
LINE
8
Black
10
140.502
20
-104.951
11
140.499
21
-104.949
0
LINE
8
Black
10
140.499
20
-104.949
11
140.497
21
-104.949
0
LINE
8
Black
10
140.497
20
-104.949
11
140.492
21
-104.945
0
LINE
8
Black
10
140.492
20
-104.945
11
140.487
21
-104.942
0
LINE
8
Black
10
140.487
20
-104.942
11
140.485
21
-104.94
0
LINE
8
Black
10
140.485
20
-104.94
11
140.482
21
-104.939
0
LINE
8
Black
10
140.482
20
-104.939
11
140.435
21
-104.891
0
LINE
8
Black
10
140.435
20
-104.891
11
140.43
21
-104.884
0
LINE
8
Black
10
140.43
20
-104.884
11
140.425
21
-104.878
0
LINE
8
Black
10
140.425
20
-104.878
11
140.402
21
-104.83
0
LINE
8
Black
10
140.402
20
-104.83
11
140.4
21
-104.825
0
LINE
8
Black
10
140.4
20
-104.825
11
140.398
21
-104.82
0
LINE
8
Black
10
140.398
20
-104.82
11
140.374
21
-104.725
0
LINE
8
Black
10
140.374
20
-104.725
11
140.373
21
-104.719
0
LINE
8
Black
10
140.373
20
-104.719
11
140.372
21
-104.713
0
LINE
8
Black
10
140.372
20
-104.713
11
140.372
21
-104.641
0
LINE
8
Black
10
140.372
20
-104.641
11
140.373
21
-104.635
0
LINE
8
Black
10
140.373
20
-104.635
11
140.374
21
-104.629
0
LINE
8
Black
10
140.374
20
-104.629
11
140.398
21
-104.534
0
LINE
8
Black
10
140.398
20
-104.534
11
140.4
21
-104.529
0
LINE
8
Black
10
140.4
20
-104.529
11
140.402
21
-104.524
0
LINE
8
Black
10
140.402
20
-104.524
11
140.425
21
-104.476
0
LINE
8
Black
10
140.425
20
-104.476
11
140.43
21
-104.47
0
LINE
8
Black
10
140.43
20
-104.47
11
140.435
21
-104.463
0
LINE
8
Black
10
140.435
20
-104.463
11
140.482
21
-104.416
0
LINE
8
Black
10
140.482
20
-104.416
11
140.485
21
-104.414
0
LINE
8
Black
10
140.485
20
-104.414
11
140.487
21
-104.412
0
LINE
8
Black
10
140.487
20
-104.412
11
140.492
21
-104.409
0
LINE
8
Black
10
140.492
20
-104.409
11
140.497
21
-104.406
0
LINE
8
Black
10
140.497
20
-104.406
11
140.499
21
-104.405
0
LINE
8
Black
10
140.499
20
-104.405
11
140.502
21
-104.403
0
LINE
8
Black
10
140.502
20
-104.403
11
140.573
21
-104.38
0
LINE
8
Black
10
140.573
20
-104.38
11
140.581
21
-104.379
0
LINE
8
Black
10
140.581
20
-104.379
11
140.589
21
-104.377
0
LINE
8
Black
10
140.589
20
-104.377
11
140.661
21
-104.377
0
LINE
8
Black
10
140.661
20
-104.377
11
140.663
21
-104.378
0
LINE
8
Black
10
136.787
20
-104.379
11
136.795
21
-104.38
0
LINE
8
Black
10
136.795
20
-104.38
11
136.867
21
-104.403
0
LINE
8
Black
10
136.867
20
-104.403
11
136.869
21
-104.405
0
LINE
8
Black
10
136.869
20
-104.405
11
136.872
21
-104.406
0
LINE
8
Black
10
136.872
20
-104.406
11
136.877
21
-104.409
0
LINE
8
Black
10
136.877
20
-104.409
11
136.882
21
-104.412
0
LINE
8
Black
10
136.882
20
-104.412
11
136.884
21
-104.414
0
LINE
8
Black
10
136.884
20
-104.414
11
136.886
21
-104.416
0
LINE
8
Black
10
136.886
20
-104.416
11
136.91
21
-104.439
0
LINE
8
Black
10
136.91
20
-104.439
11
136.92
21
-104.454
0
LINE
8
Black
10
136.92
20
-104.454
11
136.925
21
-104.47
0
LINE
8
Black
10
136.925
20
-104.47
11
136.923
21
-104.488
0
LINE
8
Black
10
136.923
20
-104.488
11
136.916
21
-104.503
0
LINE
8
Black
10
136.916
20
-104.503
11
136.903
21
-104.516
0
LINE
8
Black
10
136.903
20
-104.516
11
136.888
21
-104.523
0
LINE
8
Black
10
136.888
20
-104.523
11
136.87
21
-104.525
0
LINE
8
Black
10
136.87
20
-104.525
11
136.854
21
-104.52
0
LINE
8
Black
10
136.854
20
-104.52
11
136.839
21
-104.51
0
LINE
8
Black
10
136.839
20
-104.51
11
136.824
21
-104.495
0
LINE
8
Black
10
136.824
20
-104.495
11
136.771
21
-104.477
0
LINE
8
Black
10
136.771
20
-104.477
11
136.74
21
-104.477
0
LINE
8
Black
10
136.74
20
-104.477
11
136.688
21
-104.495
0
LINE
8
Black
10
136.688
20
-104.495
11
136.654
21
-104.528
0
LINE
8
Black
10
136.654
20
-104.528
11
136.636
21
-104.564
0
LINE
8
Black
10
136.636
20
-104.564
11
136.615
21
-104.648
0
LINE
8
Black
10
136.615
20
-104.648
11
136.615
21
-104.707
0
LINE
8
Black
10
136.615
20
-104.707
11
136.636
21
-104.791
0
LINE
8
Black
10
136.636
20
-104.791
11
136.654
21
-104.826
0
LINE
8
Black
10
136.654
20
-104.826
11
136.688
21
-104.86
0
LINE
8
Black
10
136.688
20
-104.86
11
136.74
21
-104.877
0
LINE
8
Black
10
136.74
20
-104.877
11
136.771
21
-104.877
0
LINE
8
Black
10
136.771
20
-104.877
11
136.824
21
-104.86
0
LINE
8
Black
10
136.824
20
-104.86
11
136.839
21
-104.844
0
LINE
8
Black
10
136.839
20
-104.844
11
136.854
21
-104.834
0
LINE
8
Black
10
136.854
20
-104.834
11
136.87
21
-104.83
0
LINE
8
Black
10
136.87
20
-104.83
11
136.888
21
-104.831
0
LINE
8
Black
10
136.888
20
-104.831
11
136.903
21
-104.839
0
LINE
8
Black
10
136.903
20
-104.839
11
136.916
21
-104.851
0
LINE
8
Black
10
136.916
20
-104.851
11
136.923
21
-104.867
0
LINE
8
Black
10
136.923
20
-104.867
11
136.925
21
-104.884
0
LINE
8
Black
10
136.925
20
-104.884
11
136.92
21
-104.901
0
LINE
8
Black
10
136.92
20
-104.901
11
136.91
21
-104.915
0
LINE
8
Black
10
136.91
20
-104.915
11
136.886
21
-104.939
0
LINE
8
Black
10
136.886
20
-104.939
11
136.884
21
-104.94
0
LINE
8
Black
10
136.884
20
-104.94
11
136.882
21
-104.942
0
LINE
8
Black
10
136.882
20
-104.942
11
136.877
21
-104.945
0
LINE
8
Black
10
136.877
20
-104.945
11
136.872
21
-104.949
0
LINE
8
Black
10
136.872
20
-104.949
11
136.869
21
-104.949
0
LINE
8
Black
10
136.869
20
-104.949
11
136.867
21
-104.951
0
LINE
8
Black
10
136.867
20
-104.951
11
136.795
21
-104.975
0
LINE
8
Black
10
136.795
20
-104.975
11
136.787
21
-104.976
0
LINE
8
Black
10
136.787
20
-104.976
11
136.78
21
-104.977
0
LINE
8
Black
10
136.78
20
-104.977
11
136.732
21
-104.977
0
LINE
8
Black
10
136.732
20
-104.977
11
136.724
21
-104.976
0
LINE
8
Black
10
136.724
20
-104.976
11
136.716
21
-104.975
0
LINE
8
Black
10
136.716
20
-104.975
11
136.645
21
-104.951
0
LINE
8
Black
10
136.645
20
-104.951
11
136.642
21
-104.949
0
LINE
8
Black
10
136.642
20
-104.949
11
136.639
21
-104.949
0
LINE
8
Black
10
136.639
20
-104.949
11
136.635
21
-104.945
0
LINE
8
Black
10
136.635
20
-104.945
11
136.629
21
-104.942
0
LINE
8
Black
10
136.629
20
-104.942
11
136.628
21
-104.94
0
LINE
8
Black
10
136.628
20
-104.94
11
136.625
21
-104.939
0
LINE
8
Black
10
136.625
20
-104.939
11
136.578
21
-104.891
0
LINE
8
Black
10
136.578
20
-104.891
11
136.573
21
-104.884
0
LINE
8
Black
10
136.573
20
-104.884
11
136.568
21
-104.878
0
LINE
8
Black
10
136.568
20
-104.878
11
136.544
21
-104.83
0
LINE
8
Black
10
136.544
20
-104.83
11
136.543
21
-104.825
0
LINE
8
Black
10
136.543
20
-104.825
11
136.541
21
-104.82
0
LINE
8
Black
10
136.541
20
-104.82
11
136.517
21
-104.725
0
LINE
8
Black
10
136.517
20
-104.725
11
136.516
21
-104.719
0
LINE
8
Black
10
136.516
20
-104.719
11
136.515
21
-104.713
0
LINE
8
Black
10
136.515
20
-104.713
11
136.515
21
-104.641
0
LINE
8
Black
10
136.515
20
-104.641
11
136.516
21
-104.635
0
LINE
8
Black
10
136.516
20
-104.635
11
136.517
21
-104.629
0
LINE
8
Black
10
136.517
20
-104.629
11
136.541
21
-104.534
0
LINE
8
Black
10
136.541
20
-104.534
11
136.543
21
-104.529
0
LINE
8
Black
10
136.543
20
-104.529
11
136.544
21
-104.524
0
LINE
8
Black
10
136.544
20
-104.524
11
136.568
21
-104.476
0
LINE
8
Black
10
136.568
20
-104.476
11
136.573
21
-104.47
0
LINE
8
Black
10
136.573
20
-104.47
11
136.578
21
-104.463
0
LINE
8
Black
10
136.578
20
-104.463
11
136.625
21
-104.416
0
LINE
8
Black
10
136.625
20
-104.416
11
136.628
21
-104.414
0
LINE
8
Black
10
136.628
20
-104.414
11
136.629
21
-104.412
0
LINE
8
Black
10
136.629
20
-104.412
11
136.635
21
-104.409
0
LINE
8
Black
10
136.635
20
-104.409
11
136.639
21
-104.406
0
LINE
8
Black
10
136.639
20
-104.406
11
136.642
21
-104.405
0
LINE
8
Black
10
136.642
20
-104.405
11
136.645
21
-104.403
0
LINE
8
Black
10
136.645
20
-104.403
11
136.716
21
-104.38
0
LINE
8
Black
10
136.716
20
-104.38
11
136.724
21
-104.379
0
LINE
8
Black
10
136.724
20
-104.379
11
136.732
21
-104.377
0
LINE
8
Black
10
136.732
20
-104.377
11
136.78
21
-104.377
0
LINE
8
Black
10
136.78
20
-104.377
11
136.787
21
-104.379
0
LINE
8
Black
10
138.154
20
-104.38
11
138.169
21
-104.389
0
LINE
8
Black
10
138.169
20
-104.389
11
138.18
21
-104.402
0
LINE
8
Black
10
138.18
20
-104.402
11
138.186
21
-104.418
0
LINE
8
Black
10
138.186
20
-104.418
11
138.186
21
-104.436
0
LINE
8
Black
10
138.186
20
-104.436
11
138.18
21
-104.452
0
LINE
8
Black
10
138.18
20
-104.452
11
138.169
21
-104.465
0
LINE
8
Black
10
138.169
20
-104.465
11
138.154
21
-104.474
0
LINE
8
Black
10
138.154
20
-104.474
11
138.137
21
-104.477
0
LINE
8
Black
10
138.137
20
-104.477
11
137.949
21
-104.477
0
LINE
8
Black
10
137.949
20
-104.477
11
137.949
21
-104.615
0
LINE
8
Black
10
137.949
20
-104.615
11
138.065
21
-104.615
0
LINE
8
Black
10
138.065
20
-104.615
11
138.082
21
-104.618
0
LINE
8
Black
10
138.082
20
-104.618
11
138.097
21
-104.627
0
LINE
8
Black
10
138.097
20
-104.627
11
138.109
21
-104.64
0
LINE
8
Black
10
138.109
20
-104.64
11
138.115
21
-104.657
0
LINE
8
Black
10
138.115
20
-104.657
11
138.115
21
-104.674
0
LINE
8
Black
10
138.115
20
-104.674
11
138.109
21
-104.69
0
LINE
8
Black
10
138.109
20
-104.69
11
138.097
21
-104.704
0
LINE
8
Black
10
138.097
20
-104.704
11
138.082
21
-104.712
0
LINE
8
Black
10
138.082
20
-104.712
11
138.065
21
-104.715
0
LINE
8
Black
10
138.065
20
-104.715
11
137.949
21
-104.715
0
LINE
8
Black
10
137.949
20
-104.715
11
137.949
21
-104.877
0
LINE
8
Black
10
137.949
20
-104.877
11
138.137
21
-104.877
0
LINE
8
Black
10
138.137
20
-104.877
11
138.154
21
-104.88
0
LINE
8
Black
10
138.154
20
-104.88
11
138.169
21
-104.889
0
LINE
8
Black
10
138.169
20
-104.889
11
138.18
21
-104.902
0
LINE
8
Black
10
138.18
20
-104.902
11
138.186
21
-104.918
0
LINE
8
Black
10
138.186
20
-104.918
11
138.186
21
-104.936
0
LINE
8
Black
10
138.186
20
-104.936
11
138.18
21
-104.952
0
LINE
8
Black
10
138.18
20
-104.952
11
138.169
21
-104.965
0
LINE
8
Black
10
138.169
20
-104.965
11
138.154
21
-104.974
0
LINE
8
Black
10
138.154
20
-104.974
11
138.137
21
-104.977
0
LINE
8
Black
10
138.137
20
-104.977
11
137.899
21
-104.977
0
LINE
8
Black
10
137.899
20
-104.977
11
137.894
21
-104.976
0
LINE
8
Black
10
137.894
20
-104.976
11
137.89
21
-104.976
0
LINE
8
Black
10
137.89
20
-104.976
11
137.886
21
-104.975
0
LINE
8
Black
10
137.886
20
-104.975
11
137.882
21
-104.974
0
LINE
8
Black
10
137.882
20
-104.974
11
137.878
21
-104.972
0
LINE
8
Black
10
137.878
20
-104.972
11
137.874
21
-104.97
0
LINE
8
Black
10
137.874
20
-104.97
11
137.87
21
-104.968
0
LINE
8
Black
10
137.87
20
-104.968
11
137.866
21
-104.965
0
LINE
8
Black
10
137.866
20
-104.965
11
137.864
21
-104.962
0
LINE
8
Black
10
137.864
20
-104.962
11
137.86
21
-104.959
0
LINE
8
Black
10
137.86
20
-104.959
11
137.858
21
-104.955
0
LINE
8
Black
10
137.858
20
-104.955
11
137.855
21
-104.952
0
LINE
8
Black
10
137.855
20
-104.952
11
137.854
21
-104.948
0
LINE
8
Black
10
137.854
20
-104.948
11
137.852
21
-104.944
0
LINE
8
Black
10
137.852
20
-104.944
11
137.851
21
-104.94
0
LINE
8
Black
10
137.851
20
-104.94
11
137.849
21
-104.936
0
LINE
8
Black
10
137.849
20
-104.936
11
137.849
21
-104.931
0
LINE
8
Black
10
137.849
20
-104.931
11
137.849
21
-104.927
0
LINE
8
Black
10
137.849
20
-104.927
11
137.849
21
-104.427
0
LINE
8
Black
10
137.849
20
-104.427
11
137.849
21
-104.423
0
LINE
8
Black
10
137.849
20
-104.423
11
137.849
21
-104.418
0
LINE
8
Black
10
137.849
20
-104.418
11
137.851
21
-104.414
0
LINE
8
Black
10
137.851
20
-104.414
11
137.852
21
-104.41
0
LINE
8
Black
10
137.852
20
-104.41
11
137.854
21
-104.406
0
LINE
8
Black
10
137.854
20
-104.406
11
137.855
21
-104.402
0
LINE
8
Black
10
137.855
20
-104.402
11
137.858
21
-104.399
0
LINE
8
Black
10
137.858
20
-104.399
11
137.86
21
-104.395
0
LINE
8
Black
10
137.86
20
-104.395
11
137.864
21
-104.392
0
LINE
8
Black
10
137.864
20
-104.392
11
137.866
21
-104.389
0
LINE
8
Black
10
137.866
20
-104.389
11
137.87
21
-104.387
0
LINE
8
Black
10
137.87
20
-104.387
11
137.874
21
-104.384
0
LINE
8
Black
10
137.874
20
-104.384
11
137.878
21
-104.382
0
LINE
8
Black
10
137.878
20
-104.382
11
137.882
21
-104.38
0
LINE
8
Black
10
137.882
20
-104.38
11
137.886
21
-104.379
0
LINE
8
Black
10
137.886
20
-104.379
11
137.89
21
-104.378
0
LINE
8
Black
10
137.89
20
-104.378
11
137.894
21
-104.378
0
LINE
8
Black
10
137.894
20
-104.378
11
137.899
21
-104.377
0
LINE
8
Black
10
137.899
20
-104.377
11
138.137
21
-104.377
0
LINE
8
Black
10
138.137
20
-104.377
11
138.154
21
-104.38
0
LINE
8
Black
10
138.657
20
-104.381
11
138.671
21
-104.391
0
LINE
8
Black
10
138.671
20
-104.391
11
138.682
21
-104.405
0
LINE
8
Black
10
138.682
20
-104.405
11
138.686
21
-104.422
0
LINE
8
Black
10
138.686
20
-104.422
11
138.685
21
-104.439
0
LINE
8
Black
10
138.685
20
-104.439
11
138.678
21
-104.455
0
LINE
8
Black
10
138.678
20
-104.455
11
138.53
21
-104.677
0
LINE
8
Black
10
138.53
20
-104.677
11
138.678
21
-104.899
0
LINE
8
Black
10
138.678
20
-104.899
11
138.685
21
-104.915
0
LINE
8
Black
10
138.685
20
-104.915
11
138.686
21
-104.933
0
LINE
8
Black
10
138.686
20
-104.933
11
138.682
21
-104.949
0
LINE
8
Black
10
138.682
20
-104.949
11
138.671
21
-104.963
0
LINE
8
Black
10
138.671
20
-104.963
11
138.657
21
-104.973
0
LINE
8
Black
10
138.657
20
-104.973
11
138.64
21
-104.977
0
LINE
8
Black
10
138.64
20
-104.977
11
138.623
21
-104.975
0
LINE
8
Black
10
138.623
20
-104.975
11
138.607
21
-104.967
0
LINE
8
Black
10
138.607
20
-104.967
11
138.595
21
-104.955
0
LINE
8
Black
10
138.595
20
-104.955
11
138.47
21
-104.767
0
LINE
8
Black
10
138.47
20
-104.767
11
138.345
21
-104.955
0
LINE
8
Black
10
138.345
20
-104.955
11
138.333
21
-104.967
0
LINE
8
Black
10
138.333
20
-104.967
11
138.317
21
-104.975
0
LINE
8
Black
10
138.317
20
-104.975
11
138.3
21
-104.977
0
LINE
8
Black
10
138.3
20
-104.977
11
138.283
21
-104.973
0
LINE
8
Black
10
138.283
20
-104.973
11
138.269
21
-104.963
0
LINE
8
Black
10
138.269
20
-104.963
11
138.259
21
-104.949
0
LINE
8
Black
10
138.259
20
-104.949
11
138.254
21
-104.933
0
LINE
8
Black
10
138.254
20
-104.933
11
138.255
21
-104.915
0
LINE
8
Black
10
138.255
20
-104.915
11
138.262
21
-104.899
0
LINE
8
Black
10
138.262
20
-104.899
11
138.41
21
-104.677
0
LINE
8
Black
10
138.41
20
-104.677
11
138.262
21
-104.455
0
LINE
8
Black
10
138.262
20
-104.455
11
138.255
21
-104.439
0
LINE
8
Black
10
138.255
20
-104.439
11
138.254
21
-104.422
0
LINE
8
Black
10
138.254
20
-104.422
11
138.259
21
-104.405
0
LINE
8
Black
10
138.259
20
-104.405
11
138.269
21
-104.391
0
LINE
8
Black
10
138.269
20
-104.391
11
138.283
21
-104.381
0
LINE
8
Black
10
138.283
20
-104.381
11
138.3
21
-104.377
0
LINE
8
Black
10
138.3
20
-104.377
11
138.317
21
-104.379
0
LINE
8
Black
10
138.317
20
-104.379
11
138.333
21
-104.387
0
LINE
8
Black
10
138.333
20
-104.387
11
138.345
21
-104.399
0
LINE
8
Black
10
138.345
20
-104.399
11
138.47
21
-104.587
0
LINE
8
Black
10
138.47
20
-104.587
11
138.595
21
-104.399
0
LINE
8
Black
10
138.595
20
-104.399
11
138.607
21
-104.387
0
LINE
8
Black
10
138.607
20
-104.387
11
138.623
21
-104.379
0
LINE
8
Black
10
138.623
20
-104.379
11
138.64
21
-104.377
0
LINE
8
Black
10
138.64
20
-104.377
11
138.657
21
-104.381
0
LINE
8
Black
10
139.901
20
-104.378
11
139.904
21
-104.377
0
LINE
8
Black
10
139.904
20
-104.377
11
139.91
21
-104.379
0
LINE
8
Black
10
139.91
20
-104.379
11
139.916
21
-104.38
0
LINE
8
Black
10
139.916
20
-104.38
11
139.918
21
-104.382
0
LINE
8
Black
10
139.918
20
-104.382
11
139.921
21
-104.382
0
LINE
8
Black
10
139.921
20
-104.382
11
139.969
21
-104.406
0
LINE
8
Black
10
139.969
20
-104.406
11
139.975
21
-104.411
0
LINE
8
Black
10
139.975
20
-104.411
11
139.982
21
-104.416
0
LINE
8
Black
10
139.982
20
-104.416
11
140.005
21
-104.439
0
LINE
8
Black
10
140.005
20
-104.439
11
140.01
21
-104.446
0
LINE
8
Black
10
140.01
20
-104.446
11
140.015
21
-104.452
0
LINE
8
Black
10
140.015
20
-104.452
11
140.039
21
-104.5
0
LINE
8
Black
10
140.039
20
-104.5
11
140.039
21
-104.503
0
LINE
8
Black
10
140.039
20
-104.503
11
140.041
21
-104.505
0
LINE
8
Black
10
140.041
20
-104.505
11
140.042
21
-104.511
0
LINE
8
Black
10
140.042
20
-104.511
11
140.044
21
-104.517
0
LINE
8
Black
10
140.044
20
-104.517
11
140.043
21
-104.52
0
LINE
8
Black
10
140.043
20
-104.52
11
140.044
21
-104.522
0
LINE
8
Black
10
140.044
20
-104.522
11
140.044
21
-104.594
0
LINE
8
Black
10
140.044
20
-104.594
11
140.043
21
-104.597
0
LINE
8
Black
10
140.043
20
-104.597
11
140.044
21
-104.599
0
LINE
8
Black
10
140.044
20
-104.599
11
140.042
21
-104.605
0
LINE
8
Black
10
140.042
20
-104.605
11
140.041
21
-104.611
0
LINE
8
Black
10
140.041
20
-104.611
11
140.039
21
-104.613
0
LINE
8
Black
10
140.039
20
-104.613
11
140.039
21
-104.616
0
LINE
8
Black
10
140.039
20
-104.616
11
140.015
21
-104.664
0
LINE
8
Black
10
140.015
20
-104.664
11
140.01
21
-104.67
0
LINE
8
Black
10
140.01
20
-104.67
11
140.005
21
-104.677
0
LINE
8
Black
10
140.005
20
-104.677
11
139.982
21
-104.701
0
LINE
8
Black
10
139.982
20
-104.701
11
139.975
21
-104.705
0
LINE
8
Black
10
139.975
20
-104.705
11
139.969
21
-104.71
0
LINE
8
Black
10
139.969
20
-104.71
11
139.921
21
-104.734
0
LINE
8
Black
10
139.921
20
-104.734
11
139.92
21
-104.734
0
LINE
8
Black
10
139.92
20
-104.734
11
140.035
21
-104.898
0
LINE
8
Black
10
140.035
20
-104.898
11
140.042
21
-104.914
0
LINE
8
Black
10
140.042
20
-104.914
11
140.044
21
-104.931
0
LINE
8
Black
10
140.044
20
-104.931
11
140.039
21
-104.948
0
LINE
8
Black
10
140.039
20
-104.948
11
140.029
21
-104.962
0
LINE
8
Black
10
140.029
20
-104.962
11
140.015
21
-104.972
0
LINE
8
Black
10
140.015
20
-104.972
11
139.998
21
-104.977
0
LINE
8
Black
10
139.998
20
-104.977
11
139.981
21
-104.975
0
LINE
8
Black
10
139.981
20
-104.975
11
139.965
21
-104.968
0
LINE
8
Black
10
139.965
20
-104.968
11
139.953
21
-104.956
0
LINE
8
Black
10
139.953
20
-104.956
11
139.801
21
-104.739
0
LINE
8
Black
10
139.801
20
-104.739
11
139.758
21
-104.739
0
LINE
8
Black
10
139.758
20
-104.739
11
139.758
21
-104.927
0
LINE
8
Black
10
139.758
20
-104.927
11
139.755
21
-104.944
0
LINE
8
Black
10
139.755
20
-104.944
11
139.746
21
-104.959
0
LINE
8
Black
10
139.746
20
-104.959
11
139.733
21
-104.97
0
LINE
8
Black
10
139.733
20
-104.97
11
139.717
21
-104.976
0
LINE
8
Black
10
139.717
20
-104.976
11
139.699
21
-104.976
0
LINE
8
Black
10
139.699
20
-104.976
11
139.683
21
-104.97
0
LINE
8
Black
10
139.683
20
-104.97
11
139.67
21
-104.959
0
LINE
8
Black
10
139.67
20
-104.959
11
139.661
21
-104.944
0
LINE
8
Black
10
139.661
20
-104.944
11
139.658
21
-104.927
0
LINE
8
Black
10
139.658
20
-104.927
11
139.658
21
-104.427
0
LINE
8
Black
10
139.658
20
-104.427
11
139.659
21
-104.423
0
LINE
8
Black
10
139.659
20
-104.423
11
139.659
21
-104.418
0
LINE
8
Black
10
139.659
20
-104.418
11
139.66
21
-104.414
0
LINE
8
Black
10
139.66
20
-104.414
11
139.661
21
-104.41
0
LINE
8
Black
10
139.661
20
-104.41
11
139.663
21
-104.406
0
LINE
8
Black
10
139.663
20
-104.406
11
139.665
21
-104.402
0
LINE
8
Black
10
139.665
20
-104.402
11
139.668
21
-104.399
0
LINE
8
Black
10
139.668
20
-104.399
11
139.67
21
-104.395
0
LINE
8
Black
10
139.67
20
-104.395
11
139.673
21
-104.392
0
LINE
8
Black
10
139.673
20
-104.392
11
139.676
21
-104.389
0
LINE
8
Black
10
139.676
20
-104.389
11
139.68
21
-104.387
0
LINE
8
Black
10
139.68
20
-104.387
11
139.683
21
-104.384
0
LINE
8
Black
10
139.683
20
-104.384
11
139.687
21
-104.382
0
LINE
8
Black
10
139.687
20
-104.382
11
139.691
21
-104.38
0
LINE
8
Black
10
139.691
20
-104.38
11
139.695
21
-104.379
0
LINE
8
Black
10
139.695
20
-104.379
11
139.699
21
-104.378
0
LINE
8
Black
10
139.699
20
-104.378
11
139.704
21
-104.378
0
LINE
8
Black
10
139.704
20
-104.378
11
139.708
21
-104.377
0
LINE
8
Black
10
139.708
20
-104.377
11
139.899
21
-104.377
0
LINE
8
Black
10
139.899
20
-104.377
11
139.901
21
-104.378
0
LINE
8
Black
10
139.758
20
-104.477
11
139.758
21
-104.639
0
LINE
8
Black
10
139.758
20
-104.639
11
139.887
21
-104.639
0
LINE
8
Black
10
139.887
20
-104.639
11
139.917
21
-104.624
0
LINE
8
Black
10
139.917
20
-104.624
11
139.929
21
-104.612
0
LINE
8
Black
10
139.929
20
-104.612
11
139.944
21
-104.582
0
LINE
8
Black
10
139.944
20
-104.582
11
139.944
21
-104.534
0
LINE
8
Black
10
139.944
20
-104.534
11
139.929
21
-104.504
0
LINE
8
Black
10
139.929
20
-104.504
11
139.917
21
-104.492
0
LINE
8
Black
10
139.917
20
-104.492
11
139.887
21
-104.477
0
LINE
8
Black
10
139.887
20
-104.477
11
139.758
21
-104.477
0
LINE
8
Black
10
139.021
20
-104.378
11
139.023
21
-104.377
0
LINE
8
Black
10
139.023
20
-104.377
11
139.029
21
-104.379
0
LINE
8
Black
10
139.029
20
-104.379
11
139.035
21
-104.38
0
LINE
8
Black
10
139.035
20
-104.38
11
139.037
21
-104.382
0
LINE
8
Black
10
139.037
20
-104.382
11
139.04
21
-104.382
0
LINE
8
Black
10
139.04
20
-104.382
11
139.088
21
-104.406
0
LINE
8
Black
10
139.088
20
-104.406
11
139.094
21
-104.411
0
LINE
8
Black
10
139.094
20
-104.411
11
139.101
21
-104.416
0
LINE
8
Black
10
139.101
20
-104.416
11
139.124
21
-104.439
0
LINE
8
Black
10
139.124
20
-104.439
11
139.129
21
-104.446
0
LINE
8
Black
10
139.129
20
-104.446
11
139.134
21
-104.452
0
LINE
8
Black
10
139.134
20
-104.452
11
139.158
21
-104.5
0
LINE
8
Black
10
139.158
20
-104.5
11
139.158
21
-104.503
0
LINE
8
Black
10
139.158
20
-104.503
11
139.16
21
-104.505
0
LINE
8
Black
10
139.16
20
-104.505
11
139.161
21
-104.511
0
LINE
8
Black
10
139.161
20
-104.511
11
139.163
21
-104.517
0
LINE
8
Black
10
139.163
20
-104.517
11
139.162
21
-104.52
0
LINE
8
Black
10
139.162
20
-104.52
11
139.163
21
-104.522
0
LINE
8
Black
10
139.163
20
-104.522
11
139.163
21
-104.594
0
LINE
8
Black
10
139.163
20
-104.594
11
139.162
21
-104.597
0
LINE
8
Black
10
139.162
20
-104.597
11
139.163
21
-104.599
0
LINE
8
Black
10
139.163
20
-104.599
11
139.161
21
-104.605
0
LINE
8
Black
10
139.161
20
-104.605
11
139.16
21
-104.611
0
LINE
8
Black
10
139.16
20
-104.611
11
139.158
21
-104.613
0
LINE
8
Black
10
139.158
20
-104.613
11
139.158
21
-104.616
0
LINE
8
Black
10
139.158
20
-104.616
11
139.134
21
-104.664
0
LINE
8
Black
10
139.134
20
-104.664
11
139.129
21
-104.67
0
LINE
8
Black
10
139.129
20
-104.67
11
139.124
21
-104.677
0
LINE
8
Black
10
139.124
20
-104.677
11
139.101
21
-104.701
0
LINE
8
Black
10
139.101
20
-104.701
11
139.094
21
-104.705
0
LINE
8
Black
10
139.094
20
-104.705
11
139.088
21
-104.71
0
LINE
8
Black
10
139.088
20
-104.71
11
139.04
21
-104.734
0
LINE
8
Black
10
139.04
20
-104.734
11
139.037
21
-104.735
0
LINE
8
Black
10
139.037
20
-104.735
11
139.035
21
-104.736
0
LINE
8
Black
10
139.035
20
-104.736
11
139.029
21
-104.737
0
LINE
8
Black
10
139.029
20
-104.737
11
139.023
21
-104.739
0
LINE
8
Black
10
139.023
20
-104.739
11
139.021
21
-104.739
0
LINE
8
Black
10
139.021
20
-104.739
11
139.018
21
-104.739
0
LINE
8
Black
10
139.018
20
-104.739
11
138.877
21
-104.739
0
LINE
8
Black
10
138.877
20
-104.739
11
138.877
21
-104.927
0
LINE
8
Black
10
138.877
20
-104.927
11
138.874
21
-104.944
0
LINE
8
Black
10
138.874
20
-104.944
11
138.865
21
-104.959
0
LINE
8
Black
10
138.865
20
-104.959
11
138.852
21
-104.97
0
LINE
8
Black
10
138.852
20
-104.97
11
138.836
21
-104.976
0
LINE
8
Black
10
138.836
20
-104.976
11
138.819
21
-104.976
0
LINE
8
Black
10
138.819
20
-104.976
11
138.802
21
-104.97
0
LINE
8
Black
10
138.802
20
-104.97
11
138.789
21
-104.959
0
LINE
8
Black
10
138.789
20
-104.959
11
138.78
21
-104.944
0
LINE
8
Black
10
138.78
20
-104.944
11
138.777
21
-104.927
0
LINE
8
Black
10
138.777
20
-104.927
11
138.777
21
-104.427
0
LINE
8
Black
10
138.777
20
-104.427
11
138.778
21
-104.423
0
LINE
8
Black
10
138.778
20
-104.423
11
138.778
21
-104.418
0
LINE
8
Black
10
138.778
20
-104.418
11
138.779
21
-104.414
0
LINE
8
Black
10
138.779
20
-104.414
11
138.78
21
-104.41
0
LINE
8
Black
10
138.78
20
-104.41
11
138.782
21
-104.406
0
LINE
8
Black
10
138.782
20
-104.406
11
138.784
21
-104.402
0
LINE
8
Black
10
138.784
20
-104.402
11
138.787
21
-104.399
0
LINE
8
Black
10
138.787
20
-104.399
11
138.789
21
-104.395
0
LINE
8
Black
10
138.789
20
-104.395
11
138.792
21
-104.392
0
LINE
8
Black
10
138.792
20
-104.392
11
138.795
21
-104.389
0
LINE
8
Black
10
138.795
20
-104.389
11
138.799
21
-104.387
0
LINE
8
Black
10
138.799
20
-104.387
11
138.802
21
-104.384
0
LINE
8
Black
10
138.802
20
-104.384
11
138.806
21
-104.382
0
LINE
8
Black
10
138.806
20
-104.382
11
138.81
21
-104.38
0
LINE
8
Black
10
138.81
20
-104.38
11
138.814
21
-104.379
0
LINE
8
Black
10
138.814
20
-104.379
11
138.819
21
-104.378
0
LINE
8
Black
10
138.819
20
-104.378
11
138.823
21
-104.378
0
LINE
8
Black
10
138.823
20
-104.378
11
138.827
21
-104.377
0
LINE
8
Black
10
138.827
20
-104.377
11
139.018
21
-104.377
0
LINE
8
Black
10
139.018
20
-104.377
11
139.021
21
-104.378
0
LINE
8
Black
10
138.877
20
-104.477
11
138.877
21
-104.639
0
LINE
8
Black
10
138.877
20
-104.639
11
139.006
21
-104.639
0
LINE
8
Black
10
139.006
20
-104.639
11
139.036
21
-104.624
0
LINE
8
Black
10
139.036
20
-104.624
11
139.048
21
-104.612
0
LINE
8
Black
10
139.048
20
-104.612
11
139.063
21
-104.582
0
LINE
8
Black
10
139.063
20
-104.582
11
139.063
21
-104.534
0
LINE
8
Black
10
139.063
20
-104.534
11
139.048
21
-104.504
0
LINE
8
Black
10
139.048
20
-104.504
11
139.036
21
-104.492
0
LINE
8
Black
10
139.036
20
-104.492
11
139.006
21
-104.477
0
LINE
8
Black
10
139.006
20
-104.477
11
138.877
21
-104.477
0
LINE
8
Black
10
137.344
20
-104.38
11
137.359
21
-104.389
0
LINE
8
Black
10
137.359
20
-104.389
11
137.37
21
-104.402
0
LINE
8
Black
10
137.37
20
-104.402
11
137.376
21
-104.418
0
LINE
8
Black
10
137.376
20
-104.418
11
137.376
21
-104.436
0
LINE
8
Black
10
137.376
20
-104.436
11
137.37
21
-104.452
0
LINE
8
Black
10
137.37
20
-104.452
11
137.359
21
-104.465
0
LINE
8
Black
10
137.359
20
-104.465
11
137.344
21
-104.474
0
LINE
8
Black
10
137.344
20
-104.474
11
137.327
21
-104.477
0
LINE
8
Black
10
137.327
20
-104.477
11
137.139
21
-104.477
0
LINE
8
Black
10
137.139
20
-104.477
11
137.139
21
-104.615
0
LINE
8
Black
10
137.139
20
-104.615
11
137.256
21
-104.615
0
LINE
8
Black
10
137.256
20
-104.615
11
137.273
21
-104.618
0
LINE
8
Black
10
137.273
20
-104.618
11
137.288
21
-104.627
0
LINE
8
Black
10
137.288
20
-104.627
11
137.299
21
-104.64
0
LINE
8
Black
10
137.299
20
-104.64
11
137.305
21
-104.657
0
LINE
8
Black
10
137.305
20
-104.657
11
137.305
21
-104.674
0
LINE
8
Black
10
137.305
20
-104.674
11
137.299
21
-104.69
0
LINE
8
Black
10
137.299
20
-104.69
11
137.288
21
-104.704
0
LINE
8
Black
10
137.288
20
-104.704
11
137.273
21
-104.712
0
LINE
8
Black
10
137.273
20
-104.712
11
137.256
21
-104.715
0
LINE
8
Black
10
137.256
20
-104.715
11
137.139
21
-104.715
0
LINE
8
Black
10
137.139
20
-104.715
11
137.139
21
-104.927
0
LINE
8
Black
10
137.139
20
-104.927
11
137.136
21
-104.944
0
LINE
8
Black
10
137.136
20
-104.944
11
137.127
21
-104.959
0
LINE
8
Black
10
137.127
20
-104.959
11
137.114
21
-104.97
0
LINE
8
Black
10
137.114
20
-104.97
11
137.098
21
-104.976
0
LINE
8
Black
10
137.098
20
-104.976
11
137.08
21
-104.976
0
LINE
8
Black
10
137.08
20
-104.976
11
137.064
21
-104.97
0
LINE
8
Black
10
137.064
20
-104.97
11
137.051
21
-104.959
0
LINE
8
Black
10
137.051
20
-104.959
11
137.042
21
-104.944
0
LINE
8
Black
10
137.042
20
-104.944
11
137.039
21
-104.927
0
LINE
8
Black
10
137.039
20
-104.927
11
137.039
21
-104.427
0
LINE
8
Black
10
137.039
20
-104.427
11
137.04
21
-104.423
0
LINE
8
Black
10
137.04
20
-104.423
11
137.04
21
-104.418
0
LINE
8
Black
10
137.04
20
-104.418
11
137.041
21
-104.414
0
LINE
8
Black
10
137.041
20
-104.414
11
137.042
21
-104.41
0
LINE
8
Black
10
137.042
20
-104.41
11
137.044
21
-104.406
0
LINE
8
Black
10
137.044
20
-104.406
11
137.046
21
-104.402
0
LINE
8
Black
10
137.046
20
-104.402
11
137.049
21
-104.399
0
LINE
8
Black
10
137.049
20
-104.399
11
137.051
21
-104.395
0
LINE
8
Black
10
137.051
20
-104.395
11
137.054
21
-104.392
0
LINE
8
Black
10
137.054
20
-104.392
11
137.057
21
-104.389
0
LINE
8
Black
10
137.057
20
-104.389
11
137.061
21
-104.387
0
LINE
8
Black
10
137.061
20
-104.387
11
137.064
21
-104.384
0
LINE
8
Black
10
137.064
20
-104.384
11
137.068
21
-104.382
0
LINE
8
Black
10
137.068
20
-104.382
11
137.072
21
-104.38
0
LINE
8
Black
10
137.072
20
-104.38
11
137.076
21
-104.379
0
LINE
8
Black
10
137.076
20
-104.379
11
137.08
21
-104.378
0
LINE
8
Black
10
137.08
20
-104.378
11
137.085
21
-104.378
0
LINE
8
Black
10
137.085
20
-104.378
11
137.089
21
-104.377
0
LINE
8
Black
10
137.089
20
-104.377
11
137.327
21
-104.377
0
LINE
8
Black
10
137.327
20
-104.377
11
137.344
21
-104.38
0
LINE
8
Black
10
140.233
20
-104.384
11
140.246
21
-104.395
0
LINE
8
Black
10
140.246
20
-104.395
11
140.255
21
-104.41
0
LINE
8
Black
10
140.255
20
-104.41
11
140.258
21
-104.427
0
LINE
8
Black
10
140.258
20
-104.427
11
140.258
21
-104.927
0
LINE
8
Black
10
140.258
20
-104.927
11
140.255
21
-104.944
0
LINE
8
Black
10
140.255
20
-104.944
11
140.246
21
-104.959
0
LINE
8
Black
10
140.246
20
-104.959
11
140.233
21
-104.97
0
LINE
8
Black
10
140.233
20
-104.97
11
140.217
21
-104.976
0
LINE
8
Black
10
140.217
20
-104.976
11
140.199
21
-104.976
0
LINE
8
Black
10
140.199
20
-104.976
11
140.183
21
-104.97
0
LINE
8
Black
10
140.183
20
-104.97
11
140.17
21
-104.959
0
LINE
8
Black
10
140.17
20
-104.959
11
140.161
21
-104.944
0
LINE
8
Black
10
140.161
20
-104.944
11
140.158
21
-104.927
0
LINE
8
Black
10
140.158
20
-104.927
11
140.158
21
-104.427
0
LINE
8
Black
10
140.158
20
-104.427
11
140.161
21
-104.41
0
LINE
8
Black
10
140.161
20
-104.41
11
140.17
21
-104.395
0
LINE
8
Black
10
140.17
20
-104.395
11
140.183
21
-104.384
0
LINE
8
Black
10
140.183
20
-104.384
11
140.199
21
-104.378
0
LINE
8
Black
10
140.199
20
-104.378
11
140.217
21
-104.378
0
LINE
8
Black
10
140.217
20
-104.378
11
140.233
21
-104.384
0
LINE
8
Black
10
140.971
20
-104.384
11
140.985
21
-104.395
0
LINE
8
Black
10
140.985
20
-104.395
11
140.993
21
-104.41
0
LINE
8
Black
10
140.993
20
-104.41
11
140.996
21
-104.427
0
LINE
8
Black
10
140.996
20
-104.427
11
140.996
21
-104.615
0
LINE
8
Black
10
140.996
20
-104.615
11
141.182
21
-104.615
0
LINE
8
Black
10
141.182
20
-104.615
11
141.182
21
-104.427
0
LINE
8
Black
10
141.182
20
-104.427
11
141.185
21
-104.41
0
LINE
8
Black
10
141.185
20
-104.41
11
141.194
21
-104.395
0
LINE
8
Black
10
141.194
20
-104.395
11
141.207
21
-104.384
0
LINE
8
Black
10
141.207
20
-104.384
11
141.223
21
-104.378
0
LINE
8
Black
10
141.223
20
-104.378
11
141.241
21
-104.378
0
LINE
8
Black
10
141.241
20
-104.378
11
141.257
21
-104.384
0
LINE
8
Black
10
141.257
20
-104.384
11
141.27
21
-104.395
0
LINE
8
Black
10
141.27
20
-104.395
11
141.279
21
-104.41
0
LINE
8
Black
10
141.279
20
-104.41
11
141.282
21
-104.427
0
LINE
8
Black
10
141.282
20
-104.427
11
141.282
21
-104.927
0
LINE
8
Black
10
141.282
20
-104.927
11
141.279
21
-104.944
0
LINE
8
Black
10
141.279
20
-104.944
11
141.27
21
-104.959
0
LINE
8
Black
10
141.27
20
-104.959
11
141.257
21
-104.97
0
LINE
8
Black
10
141.257
20
-104.97
11
141.241
21
-104.976
0
LINE
8
Black
10
141.241
20
-104.976
11
141.223
21
-104.976
0
LINE
8
Black
10
141.223
20
-104.976
11
141.207
21
-104.97
0
LINE
8
Black
10
141.207
20
-104.97
11
141.194
21
-104.959
0
LINE
8
Black
10
141.194
20
-104.959
11
141.185
21
-104.944
0
LINE
8
Black
10
141.185
20
-104.944
11
141.182
21
-104.927
0
LINE
8
Black
10
141.182
20
-104.927
11
141.182
21
-104.715
0
LINE
8
Black
10
141.182
20
-104.715
11
140.996
21
-104.715
0
LINE
8
Black
10
140.996
20
-104.715
11
140.996
21
-104.927
0
LINE
8
Black
10
140.996
20
-104.927
11
140.993
21
-104.944
0
LINE
8
Black
10
140.993
20
-104.944
11
140.985
21
-104.959
0
LINE
8
Black
10
140.985
20
-104.959
11
140.971
21
-104.97
0
LINE
8
Black
10
140.971
20
-104.97
11
140.955
21
-104.976
0
LINE
8
Black
10
140.955
20
-104.976
11
140.938
21
-104.976
0
LINE
8
Black
10
140.938
20
-104.976
11
140.921
21
-104.97
0
LINE
8
Black
10
140.921
20
-104.97
11
140.908
21
-104.959
0
LINE
8
Black
10
140.908
20
-104.959
11
140.899
21
-104.944
0
LINE
8
Black
10
140.899
20
-104.944
11
140.896
21
-104.927
0
LINE
8
Black
10
140.896
20
-104.927
11
140.896
21
-104.427
0
LINE
8
Black
10
140.896
20
-104.427
11
140.899
21
-104.41
0
LINE
8
Black
10
140.899
20
-104.41
11
140.908
21
-104.395
0
LINE
8
Black
10
140.908
20
-104.395
11
140.921
21
-104.384
0
LINE
8
Black
10
140.921
20
-104.384
11
140.938
21
-104.378
0
LINE
8
Black
10
140.938
20
-104.378
11
140.955
21
-104.378
0
LINE
8
Black
10
140.955
20
-104.378
11
140.971
21
-104.384
0
LINE
8
Black
10
141.701
20
-104.38
11
141.716
21
-104.389
0
LINE
8
Black
10
141.716
20
-104.389
11
141.728
21
-104.402
0
LINE
8
Black
10
141.728
20
-104.402
11
141.734
21
-104.418
0
LINE
8
Black
10
141.734
20
-104.418
11
141.734
21
-104.436
0
LINE
8
Black
10
141.734
20
-104.436
11
141.728
21
-104.452
0
LINE
8
Black
10
141.728
20
-104.452
11
141.716
21
-104.465
0
LINE
8
Black
10
141.716
20
-104.465
11
141.701
21
-104.474
0
LINE
8
Black
10
141.701
20
-104.474
11
141.684
21
-104.477
0
LINE
8
Black
10
141.684
20
-104.477
11
141.591
21
-104.477
0
LINE
8
Black
10
141.591
20
-104.477
11
141.591
21
-104.927
0
LINE
8
Black
10
141.591
20
-104.927
11
141.588
21
-104.944
0
LINE
8
Black
10
141.588
20
-104.944
11
141.58
21
-104.959
0
LINE
8
Black
10
141.58
20
-104.959
11
141.566
21
-104.97
0
LINE
8
Black
10
141.566
20
-104.97
11
141.55
21
-104.976
0
LINE
8
Black
10
141.55
20
-104.976
11
141.533
21
-104.976
0
LINE
8
Black
10
141.533
20
-104.976
11
141.516
21
-104.97
0
LINE
8
Black
10
141.516
20
-104.97
11
141.503
21
-104.959
0
LINE
8
Black
10
141.503
20
-104.959
11
141.494
21
-104.944
0
LINE
8
Black
10
141.494
20
-104.944
11
141.491
21
-104.927
0
LINE
8
Black
10
141.491
20
-104.927
11
141.491
21
-104.477
0
LINE
8
Black
10
141.491
20
-104.477
11
141.399
21
-104.477
0
LINE
8
Black
10
141.399
20
-104.477
11
141.382
21
-104.474
0
LINE
8
Black
10
141.382
20
-104.474
11
141.366
21
-104.465
0
LINE
8
Black
10
141.366
20
-104.465
11
141.355
21
-104.452
0
LINE
8
Black
10
141.355
20
-104.452
11
141.349
21
-104.436
0
LINE
8
Black
10
141.349
20
-104.436
11
141.349
21
-104.418
0
LINE
8
Black
10
141.349
20
-104.418
11
141.355
21
-104.402
0
LINE
8
Black
10
141.355
20
-104.402
11
141.366
21
-104.389
0
LINE
8
Black
10
141.366
20
-104.389
11
141.382
21
-104.38
0
LINE
8
Black
10
141.382
20
-104.38
11
141.399
21
-104.377
0
LINE
8
Black
10
141.399
20
-104.377
11
141.684
21
-104.377
0
LINE
8
Black
10
141.684
20
-104.377
11
141.701
21
-104.38
0
LINE
8
Black
10
149.189
20
-96.3294
11
149.395
21
-96.5025
0
LINE
8
Black
10
149.395
20
-96.5025
11
149.53
21
-96.7357
0
LINE
8
Black
10
149.53
20
-96.7357
11
149.563
21
-96.9259
0
LINE
8
Black
10
149.563
20
-96.9259
11
150.401
21
-96.9259
0
LINE
8
Black
10
150.401
20
-96.9259
11
150.152
21
-96.7074
0
LINE
8
Black
10
150.152
20
-96.7074
11
150.135
21
-96.6871
0
LINE
8
Black
10
150.135
20
-96.6871
11
150.127
21
-96.6624
0
LINE
8
Black
10
150.127
20
-96.6624
11
150.127
21
-96.6364
0
LINE
8
Black
10
150.127
20
-96.6364
11
150.137
21
-96.6121
0
LINE
8
Black
10
150.137
20
-96.6121
11
150.154
21
-96.5925
0
LINE
8
Black
10
150.154
20
-96.5925
11
150.177
21
-96.5799
0
LINE
8
Black
10
150.177
20
-96.5799
11
150.203
21
-96.5759
0
LINE
8
Black
10
150.203
20
-96.5759
11
150.228
21
-96.581
0
LINE
8
Black
10
150.228
20
-96.581
11
150.25
21
-96.5945
0
LINE
8
Black
10
150.25
20
-96.5945
11
150.65
21
-96.9445
0
LINE
8
Black
10
150.65
20
-96.9445
11
150.658
21
-96.9534
0
LINE
8
Black
10
150.658
20
-96.9534
11
150.665
21
-96.9621
0
LINE
8
Black
10
150.665
20
-96.9621
11
150.665
21
-96.9628
0
LINE
8
Black
10
150.665
20
-96.9628
11
150.666
21
-96.9634
0
LINE
8
Black
10
150.666
20
-96.9634
11
150.666
21
-96.9642
0
LINE
8
Black
10
150.666
20
-96.9642
11
150.667
21
-96.9648
0
LINE
8
Black
10
150.667
20
-96.9648
11
150.67
21
-96.9757
0
LINE
8
Black
10
150.67
20
-96.9757
11
150.675
21
-96.9864
0
LINE
8
Black
10
150.675
20
-96.9864
11
150.675
21
-96.9872
0
LINE
8
Black
10
150.675
20
-96.9872
11
150.675
21
-96.9879
0
LINE
8
Black
10
150.675
20
-96.9879
11
150.675
21
-96.9887
0
LINE
8
Black
10
150.675
20
-96.9887
11
150.675
21
-96.9894
0
LINE
8
Black
10
150.675
20
-96.9894
11
150.675
21
-97.0009
0
LINE
8
Black
10
150.675
20
-97.0009
11
150.675
21
-97.0124
0
LINE
8
Black
10
150.675
20
-97.0124
11
150.675
21
-97.0132
0
LINE
8
Black
10
150.675
20
-97.0132
11
150.675
21
-97.0139
0
LINE
8
Black
10
150.675
20
-97.0139
11
150.675
21
-97.0147
0
LINE
8
Black
10
150.675
20
-97.0147
11
150.675
21
-97.0155
0
LINE
8
Black
10
150.675
20
-97.0155
11
150.67
21
-97.0262
0
LINE
8
Black
10
150.67
20
-97.0262
11
150.667
21
-97.0371
0
LINE
8
Black
10
150.667
20
-97.0371
11
150.666
21
-97.0377
0
LINE
8
Black
10
150.666
20
-97.0377
11
150.666
21
-97.0384
0
LINE
8
Black
10
150.666
20
-97.0384
11
150.665
21
-97.039
0
LINE
8
Black
10
150.665
20
-97.039
11
150.665
21
-97.0398
0
LINE
8
Black
10
150.665
20
-97.0398
11
150.658
21
-97.0484
0
LINE
8
Black
10
150.658
20
-97.0484
11
150.65
21
-97.0574
0
LINE
8
Black
10
150.65
20
-97.0574
11
150.25
21
-97.4074
0
LINE
8
Black
10
150.25
20
-97.4074
11
150.228
21
-97.4209
0
LINE
8
Black
10
150.228
20
-97.4209
11
150.203
21
-97.4259
0
LINE
8
Black
10
150.203
20
-97.4259
11
150.177
21
-97.4219
0
LINE
8
Black
10
150.177
20
-97.4219
11
150.154
21
-97.4094
0
LINE
8
Black
10
150.154
20
-97.4094
11
150.137
21
-97.3898
0
LINE
8
Black
10
150.137
20
-97.3898
11
150.127
21
-97.3655
0
LINE
8
Black
10
150.127
20
-97.3655
11
150.127
21
-97.3394
0
LINE
8
Black
10
150.127
20
-97.3394
11
150.135
21
-97.3148
0
LINE
8
Black
10
150.135
20
-97.3148
11
150.152
21
-97.2945
0
LINE
8
Black
10
150.152
20
-97.2945
11
150.401
21
-97.0759
0
LINE
8
Black
10
150.401
20
-97.0759
11
149.563
21
-97.0759
0
LINE
8
Black
10
149.563
20
-97.0759
11
149.53
21
-97.2661
0
LINE
8
Black
10
149.53
20
-97.2661
11
149.395
21
-97.4994
0
LINE
8
Black
10
149.395
20
-97.4994
11
149.189
21
-97.6725
0
LINE
8
Black
10
149.189
20
-97.6725
11
148.936
21
-97.7646
0
LINE
8
Black
10
148.936
20
-97.7646
11
148.666
21
-97.7646
0
LINE
8
Black
10
148.666
20
-97.7646
11
148.413
21
-97.6725
0
LINE
8
Black
10
148.413
20
-97.6725
11
148.207
21
-97.4994
0
LINE
8
Black
10
148.207
20
-97.4994
11
148.072
21
-97.2661
0
LINE
8
Black
10
148.072
20
-97.2661
11
148.026
21
-97.0009
0
LINE
8
Black
10
148.026
20
-97.0009
11
148.072
21
-96.7357
0
LINE
8
Black
10
148.072
20
-96.7357
11
148.207
21
-96.5025
0
LINE
8
Black
10
148.207
20
-96.5025
11
148.413
21
-96.3294
0
LINE
8
Black
10
148.413
20
-96.3294
11
148.666
21
-96.2373
0
LINE
8
Black
10
148.666
20
-96.2373
11
148.936
21
-96.2373
0
LINE
8
Black
10
148.936
20
-96.2373
11
149.189
21
-96.3294
0
LINE
8
Black
10
149.28
20
-96.5989
11
149.114
21
-96.4593
0
LINE
8
Black
10
149.114
20
-96.4593
11
148.91
21
-96.385
0
LINE
8
Black
10
148.91
20
-96.385
11
148.692
21
-96.385
0
LINE
8
Black
10
148.692
20
-96.385
11
148.488
21
-96.4593
0
LINE
8
Black
10
148.488
20
-96.4593
11
148.322
21
-96.5989
0
LINE
8
Black
10
148.322
20
-96.5989
11
148.213
21
-96.787
0
LINE
8
Black
10
148.213
20
-96.787
11
148.176
21
-97.0009
0
LINE
8
Black
10
148.176
20
-97.0009
11
148.213
21
-97.2148
0
LINE
8
Black
10
148.213
20
-97.2148
11
148.322
21
-97.4029
0
LINE
8
Black
10
148.322
20
-97.4029
11
148.488
21
-97.5426
0
LINE
8
Black
10
148.488
20
-97.5426
11
148.692
21
-97.6169
0
LINE
8
Black
10
148.692
20
-97.6169
11
148.91
21
-97.6169
0
LINE
8
Black
10
148.91
20
-97.6169
11
149.114
21
-97.5426
0
LINE
8
Black
10
149.114
20
-97.5426
11
149.28
21
-97.4029
0
LINE
8
Black
10
149.28
20
-97.4029
11
149.389
21
-97.2148
0
LINE
8
Black
10
149.389
20
-97.2148
11
149.426
21
-97.0009
0
LINE
8
Black
10
149.426
20
-97.0009
11
149.389
21
-96.787
0
LINE
8
Black
10
149.389
20
-96.787
11
149.28
21
-96.5989
0
LINE
8
Black
10
148.919
20
-97.0999
11
148.878
21
-97.1343
0
LINE
8
Black
10
148.878
20
-97.1343
11
148.828
21
-97.1526
0
LINE
8
Black
10
148.828
20
-97.1526
11
148.774
21
-97.1526
0
LINE
8
Black
10
148.774
20
-97.1526
11
148.724
21
-97.1343
0
LINE
8
Black
10
148.724
20
-97.1343
11
148.683
21
-97.0999
0
LINE
8
Black
10
148.683
20
-97.0999
11
148.656
21
-97.0536
0
LINE
8
Black
10
148.656
20
-97.0536
11
148.647
21
-97.0009
0
LINE
8
Black
10
148.647
20
-97.0009
11
148.656
21
-96.9482
0
LINE
8
Black
10
148.656
20
-96.9482
11
148.683
21
-96.9019
0
LINE
8
Black
10
148.683
20
-96.9019
11
148.724
21
-96.8675
0
LINE
8
Black
10
148.724
20
-96.8675
11
148.774
21
-96.8492
0
LINE
8
Black
10
148.774
20
-96.8492
11
148.828
21
-96.8492
0
LINE
8
Black
10
148.828
20
-96.8492
11
148.878
21
-96.8675
0
LINE
8
Black
10
148.878
20
-96.8675
11
148.919
21
-96.9019
0
LINE
8
Black
10
148.919
20
-96.9019
11
148.946
21
-96.9482
0
LINE
8
Black
10
148.946
20
-96.9482
11
148.955
21
-97.0009
0
LINE
8
Black
10
148.955
20
-97.0009
11
148.946
21
-97.0536
0
LINE
8
Black
10
148.946
20
-97.0536
11
148.919
21
-97.0999
0
LINE
8
Black
10
148.804
20
-96.9983
11
148.803
21
-96.9974
0
LINE
8
Black
10
148.803
20
-96.9974
11
148.802
21
-96.9969
0
LINE
8
Black
10
148.802
20
-96.9969
11
148.8
21
-96.9969
0
LINE
8
Black
10
148.8
20
-96.9969
11
148.799
21
-96.9974
0
LINE
8
Black
10
148.799
20
-96.9974
11
148.798
21
-96.9983
0
LINE
8
Black
10
148.798
20
-96.9983
11
148.797
21
-96.9995
0
LINE
8
Black
10
148.797
20
-96.9995
11
148.797
21
-97.0009
0
LINE
8
Black
10
148.797
20
-97.0009
11
148.797
21
-97.0023
0
LINE
8
Black
10
148.797
20
-97.0023
11
148.798
21
-97.0035
0
LINE
8
Black
10
148.798
20
-97.0035
11
148.799
21
-97.0044
0
LINE
8
Black
10
148.799
20
-97.0044
11
148.8
21
-97.0049
0
LINE
8
Black
10
148.8
20
-97.0049
11
148.802
21
-97.0049
0
LINE
8
Black
10
148.802
20
-97.0049
11
148.803
21
-97.0044
0
LINE
8
Black
10
148.803
20
-97.0044
11
148.804
21
-97.0035
0
LINE
8
Black
10
148.804
20
-97.0035
11
148.805
21
-97.0023
0
LINE
8
Black
10
148.805
20
-97.0023
11
148.805
21
-97.0009
0
LINE
8
Black
10
148.805
20
-97.0009
11
148.805
21
-96.9995
0
LINE
8
Black
10
148.805
20
-96.9995
11
148.804
21
-96.9983
0
LINE
8
Black
10
139.744
20
-89.6277
11
139.759
21
-89.6364
0
LINE
8
Black
10
139.759
20
-89.6364
11
139.77
21
-89.6497
0
LINE
8
Black
10
139.77
20
-89.6497
11
139.776
21
-89.666
0
LINE
8
Black
10
139.776
20
-89.666
11
139.776
21
-89.6834
0
LINE
8
Black
10
139.776
20
-89.6834
11
139.77
21
-89.6997
0
LINE
8
Black
10
139.77
20
-89.6997
11
139.759
21
-89.713
0
LINE
8
Black
10
139.759
20
-89.713
11
139.744
21
-89.7217
0
LINE
8
Black
10
139.744
20
-89.7217
11
139.727
21
-89.7247
0
LINE
8
Black
10
139.727
20
-89.7247
11
139.346
21
-89.7247
0
LINE
8
Black
10
139.346
20
-89.7247
11
139.329
21
-89.7217
0
LINE
8
Black
10
139.329
20
-89.7217
11
139.314
21
-89.713
0
LINE
8
Black
10
139.314
20
-89.713
11
139.303
21
-89.6997
0
LINE
8
Black
10
139.303
20
-89.6997
11
139.297
21
-89.6834
0
LINE
8
Black
10
139.297
20
-89.6834
11
139.297
21
-89.666
0
LINE
8
Black
10
139.297
20
-89.666
11
139.303
21
-89.6497
0
LINE
8
Black
10
139.303
20
-89.6497
11
139.314
21
-89.6364
0
LINE
8
Black
10
139.314
20
-89.6364
11
139.329
21
-89.6277
0
LINE
8
Black
10
139.329
20
-89.6277
11
139.346
21
-89.6247
0
LINE
8
Black
10
139.346
20
-89.6247
11
139.727
21
-89.6247
0
LINE
8
Black
10
139.727
20
-89.6247
11
139.744
21
-89.6277
0
LINE
8
Black
10
137.935
20
-89.6277
11
137.95
21
-89.6364
0
LINE
8
Black
10
137.95
20
-89.6364
11
137.961
21
-89.6497
0
LINE
8
Black
10
137.961
20
-89.6497
11
137.967
21
-89.666
0
LINE
8
Black
10
137.967
20
-89.666
11
137.967
21
-89.6834
0
LINE
8
Black
10
137.967
20
-89.6834
11
137.961
21
-89.6997
0
LINE
8
Black
10
137.961
20
-89.6997
11
137.95
21
-89.713
0
LINE
8
Black
10
137.95
20
-89.713
11
137.935
21
-89.7217
0
LINE
8
Black
10
137.935
20
-89.7217
11
137.918
21
-89.7247
0
LINE
8
Black
10
137.918
20
-89.7247
11
137.537
21
-89.7247
0
LINE
8
Black
10
137.537
20
-89.7247
11
137.52
21
-89.7217
0
LINE
8
Black
10
137.52
20
-89.7217
11
137.505
21
-89.713
0
LINE
8
Black
10
137.505
20
-89.713
11
137.493
21
-89.6997
0
LINE
8
Black
10
137.493
20
-89.6997
11
137.487
21
-89.6834
0
LINE
8
Black
10
137.487
20
-89.6834
11
137.487
21
-89.666
0
LINE
8
Black
10
137.487
20
-89.666
11
137.493
21
-89.6497
0
LINE
8
Black
10
137.493
20
-89.6497
11
137.505
21
-89.6364
0
LINE
8
Black
10
137.505
20
-89.6364
11
137.52
21
-89.6277
0
LINE
8
Black
10
137.52
20
-89.6277
11
137.537
21
-89.6247
0
LINE
8
Black
10
137.537
20
-89.6247
11
137.918
21
-89.6247
0
LINE
8
Black
10
137.918
20
-89.6247
11
137.935
21
-89.6277
0
LINE
8
Black
10
139.871
20
-89.0838
11
139.885
21
-89.095
0
LINE
8
Black
10
139.885
20
-89.095
11
139.893
21
-89.11
0
LINE
8
Black
10
139.893
20
-89.11
11
139.896
21
-89.1271
0
LINE
8
Black
10
139.896
20
-89.1271
11
139.896
21
-89.5771
0
LINE
8
Black
10
139.896
20
-89.5771
11
140.084
21
-89.5771
0
LINE
8
Black
10
140.084
20
-89.5771
11
140.101
21
-89.5801
0
LINE
8
Black
10
140.101
20
-89.5801
11
140.116
21
-89.5888
0
LINE
8
Black
10
140.116
20
-89.5888
11
140.128
21
-89.6021
0
LINE
8
Black
10
140.128
20
-89.6021
11
140.134
21
-89.6184
0
LINE
8
Black
10
140.134
20
-89.6184
11
140.134
21
-89.6358
0
LINE
8
Black
10
140.134
20
-89.6358
11
140.128
21
-89.6521
0
LINE
8
Black
10
140.128
20
-89.6521
11
140.116
21
-89.6654
0
LINE
8
Black
10
140.116
20
-89.6654
11
140.101
21
-89.6741
0
LINE
8
Black
10
140.101
20
-89.6741
11
140.084
21
-89.6771
0
LINE
8
Black
10
140.084
20
-89.6771
11
139.846
21
-89.6771
0
LINE
8
Black
10
139.846
20
-89.6771
11
139.842
21
-89.6764
0
LINE
8
Black
10
139.842
20
-89.6764
11
139.838
21
-89.6764
0
LINE
8
Black
10
139.838
20
-89.6764
11
139.833
21
-89.6749
0
LINE
8
Black
10
139.833
20
-89.6749
11
139.829
21
-89.6741
0
LINE
8
Black
10
139.829
20
-89.6741
11
139.825
21
-89.6719
0
LINE
8
Black
10
139.825
20
-89.6719
11
139.821
21
-89.6704
0
LINE
8
Black
10
139.821
20
-89.6704
11
139.818
21
-89.6676
0
LINE
8
Black
10
139.818
20
-89.6676
11
139.814
21
-89.6654
0
LINE
8
Black
10
139.814
20
-89.6654
11
139.811
21
-89.6621
0
LINE
8
Black
10
139.811
20
-89.6621
11
139.808
21
-89.6592
0
LINE
8
Black
10
139.808
20
-89.6592
11
139.806
21
-89.6555
0
LINE
8
Black
10
139.806
20
-89.6555
11
139.803
21
-89.6521
0
LINE
8
Black
10
139.803
20
-89.6521
11
139.801
21
-89.648
0
LINE
8
Black
10
139.801
20
-89.648
11
139.799
21
-89.6442
0
LINE
8
Black
10
139.799
20
-89.6442
11
139.798
21
-89.6399
0
LINE
8
Black
10
139.798
20
-89.6399
11
139.797
21
-89.6358
0
LINE
8
Black
10
139.797
20
-89.6358
11
139.797
21
-89.6314
0
LINE
8
Black
10
139.797
20
-89.6314
11
139.796
21
-89.6271
0
LINE
8
Black
10
139.796
20
-89.6271
11
139.796
21
-89.1271
0
LINE
8
Black
10
139.796
20
-89.1271
11
139.799
21
-89.11
0
LINE
8
Black
10
139.799
20
-89.11
11
139.808
21
-89.095
0
LINE
8
Black
10
139.808
20
-89.095
11
139.821
21
-89.0838
0
LINE
8
Black
10
139.821
20
-89.0838
11
139.838
21
-89.0779
0
LINE
8
Black
10
139.838
20
-89.0779
11
139.855
21
-89.0779
0
LINE
8
Black
10
139.855
20
-89.0779
11
139.871
21
-89.0838
0
LINE
8
Black
10
140.506
20
-89.0801
11
140.521
21
-89.0888
0
LINE
8
Black
10
140.521
20
-89.0888
11
140.532
21
-89.1021
0
LINE
8
Black
10
140.532
20
-89.1021
11
140.538
21
-89.1184
0
LINE
8
Black
10
140.538
20
-89.1184
11
140.538
21
-89.1358
0
LINE
8
Black
10
140.538
20
-89.1358
11
140.532
21
-89.1521
0
LINE
8
Black
10
140.532
20
-89.1521
11
140.521
21
-89.1654
0
LINE
8
Black
10
140.521
20
-89.1654
11
140.506
21
-89.1741
0
LINE
8
Black
10
140.506
20
-89.1741
11
140.489
21
-89.1771
0
LINE
8
Black
10
140.489
20
-89.1771
11
140.301
21
-89.1771
0
LINE
8
Black
10
140.301
20
-89.1771
11
140.301
21
-89.3152
0
LINE
8
Black
10
140.301
20
-89.3152
11
140.418
21
-89.3152
0
LINE
8
Black
10
140.418
20
-89.3152
11
140.435
21
-89.3182
0
LINE
8
Black
10
140.435
20
-89.3182
11
140.45
21
-89.3269
0
LINE
8
Black
10
140.45
20
-89.3269
11
140.461
21
-89.3402
0
LINE
8
Black
10
140.461
20
-89.3402
11
140.467
21
-89.3565
0
LINE
8
Black
10
140.467
20
-89.3565
11
140.467
21
-89.3739
0
LINE
8
Black
10
140.467
20
-89.3739
11
140.461
21
-89.3902
0
LINE
8
Black
10
140.461
20
-89.3902
11
140.45
21
-89.4035
0
LINE
8
Black
10
140.45
20
-89.4035
11
140.435
21
-89.4122
0
LINE
8
Black
10
140.435
20
-89.4122
11
140.418
21
-89.4152
0
LINE
8
Black
10
140.418
20
-89.4152
11
140.301
21
-89.4152
0
LINE
8
Black
10
140.301
20
-89.4152
11
140.301
21
-89.5771
0
LINE
8
Black
10
140.301
20
-89.5771
11
140.489
21
-89.5771
0
LINE
8
Black
10
140.489
20
-89.5771
11
140.506
21
-89.5801
0
LINE
8
Black
10
140.506
20
-89.5801
11
140.521
21
-89.5888
0
LINE
8
Black
10
140.521
20
-89.5888
11
140.532
21
-89.6021
0
LINE
8
Black
10
140.532
20
-89.6021
11
140.538
21
-89.6184
0
LINE
8
Black
10
140.538
20
-89.6184
11
140.538
21
-89.6358
0
LINE
8
Black
10
140.538
20
-89.6358
11
140.532
21
-89.6521
0
LINE
8
Black
10
140.532
20
-89.6521
11
140.521
21
-89.6654
0
LINE
8
Black
10
140.521
20
-89.6654
11
140.506
21
-89.6741
0
LINE
8
Black
10
140.506
20
-89.6741
11
140.489
21
-89.6771
0
LINE
8
Black
10
140.489
20
-89.6771
11
140.251
21
-89.6771
0
LINE
8
Black
10
140.251
20
-89.6771
11
140.247
21
-89.6764
0
LINE
8
Black
10
140.247
20
-89.6764
11
140.242
21
-89.6764
0
LINE
8
Black
10
140.242
20
-89.6764
11
140.238
21
-89.6749
0
LINE
8
Black
10
140.238
20
-89.6749
11
140.234
21
-89.6741
0
LINE
8
Black
10
140.234
20
-89.6741
11
140.23
21
-89.6719
0
LINE
8
Black
10
140.23
20
-89.6719
11
140.226
21
-89.6704
0
LINE
8
Black
10
140.226
20
-89.6704
11
140.223
21
-89.6676
0
LINE
8
Black
10
140.223
20
-89.6676
11
140.219
21
-89.6654
0
LINE
8
Black
10
140.219
20
-89.6654
11
140.216
21
-89.6621
0
LINE
8
Black
10
140.216
20
-89.6621
11
140.213
21
-89.6592
0
LINE
8
Black
10
140.213
20
-89.6592
11
140.211
21
-89.6555
0
LINE
8
Black
10
140.211
20
-89.6555
11
140.208
21
-89.6521
0
LINE
8
Black
10
140.208
20
-89.6521
11
140.206
21
-89.648
0
LINE
8
Black
10
140.206
20
-89.648
11
140.204
21
-89.6442
0
LINE
8
Black
10
140.204
20
-89.6442
11
140.203
21
-89.6399
0
LINE
8
Black
10
140.203
20
-89.6399
11
140.202
21
-89.6358
0
LINE
8
Black
10
140.202
20
-89.6358
11
140.202
21
-89.6314
0
LINE
8
Black
10
140.202
20
-89.6314
11
140.201
21
-89.6271
0
LINE
8
Black
10
140.201
20
-89.6271
11
140.201
21
-89.1271
0
LINE
8
Black
10
140.201
20
-89.1271
11
140.202
21
-89.1228
0
LINE
8
Black
10
140.202
20
-89.1228
11
140.202
21
-89.1184
0
LINE
8
Black
10
140.202
20
-89.1184
11
140.203
21
-89.1143
0
LINE
8
Black
10
140.203
20
-89.1143
11
140.204
21
-89.11
0
LINE
8
Black
10
140.204
20
-89.11
11
140.206
21
-89.1062
0
LINE
8
Black
10
140.206
20
-89.1062
11
140.208
21
-89.1021
0
LINE
8
Black
10
140.208
20
-89.1021
11
140.211
21
-89.0988
0
LINE
8
Black
10
140.211
20
-89.0988
11
140.213
21
-89.095
0
LINE
8
Black
10
140.213
20
-89.095
11
140.216
21
-89.0922
0
LINE
8
Black
10
140.216
20
-89.0922
11
140.219
21
-89.0888
0
LINE
8
Black
10
140.219
20
-89.0888
11
140.223
21
-89.0866
0
LINE
8
Black
10
140.223
20
-89.0866
11
140.226
21
-89.0838
0
LINE
8
Black
10
140.226
20
-89.0838
11
140.23
21
-89.0823
0
LINE
8
Black
10
140.23
20
-89.0823
11
140.234
21
-89.0801
0
LINE
8
Black
10
140.234
20
-89.0801
11
140.238
21
-89.0794
0
LINE
8
Black
10
140.238
20
-89.0794
11
140.242
21
-89.0779
0
LINE
8
Black
10
140.242
20
-89.0779
11
140.247
21
-89.0779
0
LINE
8
Black
10
140.247
20
-89.0779
11
140.251
21
-89.0771
0
LINE
8
Black
10
140.251
20
-89.0771
11
140.489
21
-89.0771
0
LINE
8
Black
10
140.489
20
-89.0771
11
140.506
21
-89.0801
0
LINE
8
Black
10
136.926
20
-89.0785
11
136.933
21
-89.0797
0
LINE
8
Black
10
136.933
20
-89.0797
11
137.005
21
-89.1035
0
LINE
8
Black
10
137.005
20
-89.1035
11
137.007
21
-89.1049
0
LINE
8
Black
10
137.007
20
-89.1049
11
137.01
21
-89.1056
0
LINE
8
Black
10
137.01
20
-89.1056
11
137.015
21
-89.109
0
LINE
8
Black
10
137.015
20
-89.109
11
137.02
21
-89.1118
0
LINE
8
Black
10
137.02
20
-89.1118
11
137.022
21
-89.1139
0
LINE
8
Black
10
137.022
20
-89.1139
11
137.024
21
-89.1156
0
LINE
8
Black
10
137.024
20
-89.1156
11
137.048
21
-89.1394
0
LINE
8
Black
10
137.048
20
-89.1394
11
137.058
21
-89.1536
0
LINE
8
Black
10
137.058
20
-89.1536
11
137.063
21
-89.1704
0
LINE
8
Black
10
137.063
20
-89.1704
11
137.061
21
-89.1877
0
LINE
8
Black
10
137.061
20
-89.1877
11
137.054
21
-89.2034
0
LINE
8
Black
10
137.054
20
-89.2034
11
137.042
21
-89.2157
0
LINE
8
Black
10
137.042
20
-89.2157
11
137.026
21
-89.223
0
LINE
8
Black
10
137.026
20
-89.223
11
137.009
21
-89.2245
0
LINE
8
Black
10
137.009
20
-89.2245
11
136.992
21
-89.22
0
LINE
8
Black
10
136.992
20
-89.22
11
136.978
21
-89.2101
0
LINE
8
Black
10
136.978
20
-89.2101
11
136.962
21
-89.1946
0
LINE
8
Black
10
136.962
20
-89.1946
11
136.91
21
-89.1771
0
LINE
8
Black
10
136.91
20
-89.1771
11
136.878
21
-89.1771
0
LINE
8
Black
10
136.878
20
-89.1771
11
136.826
21
-89.1946
0
LINE
8
Black
10
136.826
20
-89.1946
11
136.792
21
-89.2282
0
LINE
8
Black
10
136.792
20
-89.2282
11
136.774
21
-89.2636
0
LINE
8
Black
10
136.774
20
-89.2636
11
136.753
21
-89.3476
0
LINE
8
Black
10
136.753
20
-89.3476
11
136.753
21
-89.4067
0
LINE
8
Black
10
136.753
20
-89.4067
11
136.774
21
-89.4906
0
LINE
8
Black
10
136.774
20
-89.4906
11
136.792
21
-89.5261
0
LINE
8
Black
10
136.792
20
-89.5261
11
136.826
21
-89.5596
0
LINE
8
Black
10
136.826
20
-89.5596
11
136.878
21
-89.5771
0
LINE
8
Black
10
136.878
20
-89.5771
11
136.91
21
-89.5771
0
LINE
8
Black
10
136.91
20
-89.5771
11
136.962
21
-89.5596
0
LINE
8
Black
10
136.962
20
-89.5596
11
136.978
21
-89.5441
0
LINE
8
Black
10
136.978
20
-89.5441
11
136.992
21
-89.5342
0
LINE
8
Black
10
136.992
20
-89.5342
11
137.009
21
-89.5297
0
LINE
8
Black
10
137.009
20
-89.5297
11
137.026
21
-89.5312
0
LINE
8
Black
10
137.026
20
-89.5312
11
137.042
21
-89.5385
0
LINE
8
Black
10
137.042
20
-89.5385
11
137.054
21
-89.5508
0
LINE
8
Black
10
137.054
20
-89.5508
11
137.061
21
-89.5666
0
LINE
8
Black
10
137.061
20
-89.5666
11
137.063
21
-89.5838
0
LINE
8
Black
10
137.063
20
-89.5838
11
137.058
21
-89.6006
0
LINE
8
Black
10
137.058
20
-89.6006
11
137.048
21
-89.6148
0
LINE
8
Black
10
137.048
20
-89.6148
11
137.024
21
-89.6387
0
LINE
8
Black
10
137.024
20
-89.6387
11
137.022
21
-89.6403
0
LINE
8
Black
10
137.022
20
-89.6403
11
137.02
21
-89.6425
0
LINE
8
Black
10
137.02
20
-89.6425
11
137.015
21
-89.6453
0
LINE
8
Black
10
137.015
20
-89.6453
11
137.01
21
-89.6486
0
LINE
8
Black
10
137.01
20
-89.6486
11
137.007
21
-89.6494
0
LINE
8
Black
10
137.007
20
-89.6494
11
137.005
21
-89.6507
0
LINE
8
Black
10
137.005
20
-89.6507
11
136.933
21
-89.6745
0
LINE
8
Black
10
136.933
20
-89.6745
11
136.926
21
-89.6757
0
LINE
8
Black
10
136.926
20
-89.6757
11
136.918
21
-89.6771
0
LINE
8
Black
10
136.918
20
-89.6771
11
136.87
21
-89.6771
0
LINE
8
Black
10
136.87
20
-89.6771
11
136.862
21
-89.6757
0
LINE
8
Black
10
136.862
20
-89.6757
11
136.854
21
-89.6745
0
LINE
8
Black
10
136.854
20
-89.6745
11
136.783
21
-89.6507
0
LINE
8
Black
10
136.783
20
-89.6507
11
136.78
21
-89.6494
0
LINE
8
Black
10
136.78
20
-89.6494
11
136.777
21
-89.6486
0
LINE
8
Black
10
136.777
20
-89.6486
11
136.773
21
-89.6453
0
LINE
8
Black
10
136.773
20
-89.6453
11
136.768
21
-89.6425
0
LINE
8
Black
10
136.768
20
-89.6425
11
136.766
21
-89.6403
0
LINE
8
Black
10
136.766
20
-89.6403
11
136.763
21
-89.6387
0
LINE
8
Black
10
136.763
20
-89.6387
11
136.716
21
-89.591
0
LINE
8
Black
10
136.716
20
-89.591
11
136.711
21
-89.5845
0
LINE
8
Black
10
136.711
20
-89.5845
11
136.706
21
-89.578
0
LINE
8
Black
10
136.706
20
-89.578
11
136.682
21
-89.5304
0
LINE
8
Black
10
136.682
20
-89.5304
11
136.681
21
-89.5252
0
LINE
8
Black
10
136.681
20
-89.5252
11
136.679
21
-89.5202
0
LINE
8
Black
10
136.679
20
-89.5202
11
136.655
21
-89.425
0
LINE
8
Black
10
136.655
20
-89.425
11
136.654
21
-89.4188
0
LINE
8
Black
10
136.654
20
-89.4188
11
136.653
21
-89.4128
0
LINE
8
Black
10
136.653
20
-89.4128
11
136.653
21
-89.3414
0
LINE
8
Black
10
136.653
20
-89.3414
11
136.654
21
-89.3354
0
LINE
8
Black
10
136.654
20
-89.3354
11
136.655
21
-89.3293
0
LINE
8
Black
10
136.655
20
-89.3293
11
136.679
21
-89.234
0
LINE
8
Black
10
136.679
20
-89.234
11
136.681
21
-89.229
0
LINE
8
Black
10
136.681
20
-89.229
11
136.682
21
-89.2238
0
LINE
8
Black
10
136.682
20
-89.2238
11
136.706
21
-89.1762
0
LINE
8
Black
10
136.706
20
-89.1762
11
136.711
21
-89.1697
0
LINE
8
Black
10
136.711
20
-89.1697
11
136.716
21
-89.1632
0
LINE
8
Black
10
136.716
20
-89.1632
11
136.763
21
-89.1156
0
LINE
8
Black
10
136.763
20
-89.1156
11
136.766
21
-89.1139
0
LINE
8
Black
10
136.766
20
-89.1139
11
136.768
21
-89.1118
0
LINE
8
Black
10
136.768
20
-89.1118
11
136.773
21
-89.109
0
LINE
8
Black
10
136.773
20
-89.109
11
136.777
21
-89.1056
0
LINE
8
Black
10
136.777
20
-89.1056
11
136.78
21
-89.1049
0
LINE
8
Black
10
136.78
20
-89.1049
11
136.783
21
-89.1035
0
LINE
8
Black
10
136.783
20
-89.1035
11
136.854
21
-89.0797
0
LINE
8
Black
10
136.854
20
-89.0797
11
136.862
21
-89.0785
0
LINE
8
Black
10
136.862
20
-89.0785
11
136.87
21
-89.0771
0
LINE
8
Black
10
136.87
20
-89.0771
11
136.918
21
-89.0771
0
LINE
8
Black
10
136.918
20
-89.0771
11
136.926
21
-89.0785
0
LINE
8
Black
10
138.292
20
-89.0801
11
138.307
21
-89.0888
0
LINE
8
Black
10
138.307
20
-89.0888
11
138.318
21
-89.1021
0
LINE
8
Black
10
138.318
20
-89.1021
11
138.324
21
-89.1184
0
LINE
8
Black
10
138.324
20
-89.1184
11
138.324
21
-89.1358
0
LINE
8
Black
10
138.324
20
-89.1358
11
138.318
21
-89.1521
0
LINE
8
Black
10
138.318
20
-89.1521
11
138.307
21
-89.1654
0
LINE
8
Black
10
138.307
20
-89.1654
11
138.292
21
-89.1741
0
LINE
8
Black
10
138.292
20
-89.1741
11
138.275
21
-89.1771
0
LINE
8
Black
10
138.275
20
-89.1771
11
138.087
21
-89.1771
0
LINE
8
Black
10
138.087
20
-89.1771
11
138.087
21
-89.3152
0
LINE
8
Black
10
138.087
20
-89.3152
11
138.203
21
-89.3152
0
LINE
8
Black
10
138.203
20
-89.3152
11
138.22
21
-89.3182
0
LINE
8
Black
10
138.22
20
-89.3182
11
138.236
21
-89.3269
0
LINE
8
Black
10
138.236
20
-89.3269
11
138.247
21
-89.3402
0
LINE
8
Black
10
138.247
20
-89.3402
11
138.253
21
-89.3565
0
LINE
8
Black
10
138.253
20
-89.3565
11
138.253
21
-89.3739
0
LINE
8
Black
10
138.253
20
-89.3739
11
138.247
21
-89.3902
0
LINE
8
Black
10
138.247
20
-89.3902
11
138.236
21
-89.4035
0
LINE
8
Black
10
138.236
20
-89.4035
11
138.22
21
-89.4122
0
LINE
8
Black
10
138.22
20
-89.4122
11
138.203
21
-89.4152
0
LINE
8
Black
10
138.203
20
-89.4152
11
138.087
21
-89.4152
0
LINE
8
Black
10
138.087
20
-89.4152
11
138.087
21
-89.5771
0
LINE
8
Black
10
138.087
20
-89.5771
11
138.275
21
-89.5771
0
LINE
8
Black
10
138.275
20
-89.5771
11
138.292
21
-89.5801
0
LINE
8
Black
10
138.292
20
-89.5801
11
138.307
21
-89.5888
0
LINE
8
Black
10
138.307
20
-89.5888
11
138.318
21
-89.6021
0
LINE
8
Black
10
138.318
20
-89.6021
11
138.324
21
-89.6184
0
LINE
8
Black
10
138.324
20
-89.6184
11
138.324
21
-89.6358
0
LINE
8
Black
10
138.324
20
-89.6358
11
138.318
21
-89.6521
0
LINE
8
Black
10
138.318
20
-89.6521
11
138.307
21
-89.6654
0
LINE
8
Black
10
138.307
20
-89.6654
11
138.292
21
-89.6741
0
LINE
8
Black
10
138.292
20
-89.6741
11
138.275
21
-89.6771
0
LINE
8
Black
10
138.275
20
-89.6771
11
138.037
21
-89.6771
0
LINE
8
Black
10
138.037
20
-89.6771
11
138.032
21
-89.6764
0
LINE
8
Black
10
138.032
20
-89.6764
11
138.028
21
-89.6764
0
LINE
8
Black
10
138.028
20
-89.6764
11
138.024
21
-89.6749
0
LINE
8
Black
10
138.024
20
-89.6749
11
138.02
21
-89.6741
0
LINE
8
Black
10
138.02
20
-89.6741
11
138.016
21
-89.6719
0
LINE
8
Black
10
138.016
20
-89.6719
11
138.012
21
-89.6704
0
LINE
8
Black
10
138.012
20
-89.6704
11
138.008
21
-89.6676
0
LINE
8
Black
10
138.008
20
-89.6676
11
138.005
21
-89.6654
0
LINE
8
Black
10
138.005
20
-89.6654
11
138.002
21
-89.6621
0
LINE
8
Black
10
138.002
20
-89.6621
11
137.998
21
-89.6592
0
LINE
8
Black
10
137.998
20
-89.6592
11
137.996
21
-89.6555
0
LINE
8
Black
10
137.996
20
-89.6555
11
137.993
21
-89.6521
0
LINE
8
Black
10
137.993
20
-89.6521
11
137.992
21
-89.648
0
LINE
8
Black
10
137.992
20
-89.648
11
137.99
21
-89.6442
0
LINE
8
Black
10
137.99
20
-89.6442
11
137.989
21
-89.6399
0
LINE
8
Black
10
137.989
20
-89.6399
11
137.987
21
-89.6358
0
LINE
8
Black
10
137.987
20
-89.6358
11
137.987
21
-89.6314
0
LINE
8
Black
10
137.987
20
-89.6314
11
137.987
21
-89.6271
0
LINE
8
Black
10
137.987
20
-89.6271
11
137.987
21
-89.1271
0
LINE
8
Black
10
137.987
20
-89.1271
11
137.987
21
-89.1228
0
LINE
8
Black
10
137.987
20
-89.1228
11
137.987
21
-89.1184
0
LINE
8
Black
10
137.987
20
-89.1184
11
137.989
21
-89.1143
0
LINE
8
Black
10
137.989
20
-89.1143
11
137.99
21
-89.11
0
LINE
8
Black
10
137.99
20
-89.11
11
137.992
21
-89.1062
0
LINE
8
Black
10
137.992
20
-89.1062
11
137.993
21
-89.1021
0
LINE
8
Black
10
137.993
20
-89.1021
11
137.996
21
-89.0988
0
LINE
8
Black
10
137.996
20
-89.0988
11
137.998
21
-89.095
0
LINE
8
Black
10
137.998
20
-89.095
11
138.002
21
-89.0922
0
LINE
8
Black
10
138.002
20
-89.0922
11
138.005
21
-89.0888
0
LINE
8
Black
10
138.005
20
-89.0888
11
138.008
21
-89.0866
0
LINE
8
Black
10
138.008
20
-89.0866
11
138.012
21
-89.0838
0
LINE
8
Black
10
138.012
20
-89.0838
11
138.016
21
-89.0823
0
LINE
8
Black
10
138.016
20
-89.0823
11
138.02
21
-89.0801
0
LINE
8
Black
10
138.02
20
-89.0801
11
138.024
21
-89.0794
0
LINE
8
Black
10
138.024
20
-89.0794
11
138.028
21
-89.0779
0
LINE
8
Black
10
138.028
20
-89.0779
11
138.032
21
-89.0779
0
LINE
8
Black
10
138.032
20
-89.0779
11
138.037
21
-89.0771
0
LINE
8
Black
10
138.037
20
-89.0771
11
138.275
21
-89.0771
0
LINE
8
Black
10
138.275
20
-89.0771
11
138.292
21
-89.0801
0
LINE
8
Black
10
138.795
20
-89.0813
11
138.809
21
-89.091
0
LINE
8
Black
10
138.809
20
-89.091
11
138.82
21
-89.1049
0
LINE
8
Black
10
138.82
20
-89.1049
11
138.825
21
-89.1216
0
LINE
8
Black
10
138.825
20
-89.1216
11
138.823
21
-89.1389
0
LINE
8
Black
10
138.823
20
-89.1389
11
138.816
21
-89.1548
0
LINE
8
Black
10
138.816
20
-89.1548
11
138.668
21
-89.3771
0
LINE
8
Black
10
138.668
20
-89.3771
11
138.816
21
-89.5994
0
LINE
8
Black
10
138.816
20
-89.5994
11
138.823
21
-89.6153
0
LINE
8
Black
10
138.823
20
-89.6153
11
138.825
21
-89.6326
0
LINE
8
Black
10
138.825
20
-89.6326
11
138.82
21
-89.6493
0
LINE
8
Black
10
138.82
20
-89.6493
11
138.809
21
-89.6633
0
LINE
8
Black
10
138.809
20
-89.6633
11
138.795
21
-89.6729
0
LINE
8
Black
10
138.795
20
-89.6729
11
138.778
21
-89.677
0
LINE
8
Black
10
138.778
20
-89.677
11
138.761
21
-89.6751
0
LINE
8
Black
10
138.761
20
-89.6751
11
138.745
21
-89.6674
0
LINE
8
Black
10
138.745
20
-89.6674
11
138.733
21
-89.6548
0
LINE
8
Black
10
138.733
20
-89.6548
11
138.608
21
-89.4673
0
LINE
8
Black
10
138.608
20
-89.4673
11
138.483
21
-89.6548
0
LINE
8
Black
10
138.483
20
-89.6548
11
138.471
21
-89.6674
0
LINE
8
Black
10
138.471
20
-89.6674
11
138.456
21
-89.6751
0
LINE
8
Black
10
138.456
20
-89.6751
11
138.438
21
-89.677
0
LINE
8
Black
10
138.438
20
-89.677
11
138.421
21
-89.6729
0
LINE
8
Black
10
138.421
20
-89.6729
11
138.407
21
-89.6633
0
LINE
8
Black
10
138.407
20
-89.6633
11
138.397
21
-89.6493
0
LINE
8
Black
10
138.397
20
-89.6493
11
138.392
21
-89.6326
0
LINE
8
Black
10
138.392
20
-89.6326
11
138.393
21
-89.6153
0
LINE
8
Black
10
138.393
20
-89.6153
11
138.4
21
-89.5994
0
LINE
8
Black
10
138.4
20
-89.5994
11
138.548
21
-89.3771
0
LINE
8
Black
10
138.548
20
-89.3771
11
138.4
21
-89.1548
0
LINE
8
Black
10
138.4
20
-89.1548
11
138.393
21
-89.1389
0
LINE
8
Black
10
138.393
20
-89.1389
11
138.392
21
-89.1216
0
LINE
8
Black
10
138.392
20
-89.1216
11
138.397
21
-89.1049
0
LINE
8
Black
10
138.397
20
-89.1049
11
138.407
21
-89.091
0
LINE
8
Black
10
138.407
20
-89.091
11
138.421
21
-89.0813
0
LINE
8
Black
10
138.421
20
-89.0813
11
138.438
21
-89.0772
0
LINE
8
Black
10
138.438
20
-89.0772
11
138.456
21
-89.0791
0
LINE
8
Black
10
138.456
20
-89.0791
11
138.471
21
-89.0868
0
LINE
8
Black
10
138.471
20
-89.0868
11
138.483
21
-89.0994
0
LINE
8
Black
10
138.483
20
-89.0994
11
138.608
21
-89.287
0
LINE
8
Black
10
138.608
20
-89.287
11
138.733
21
-89.0994
0
LINE
8
Black
10
138.733
20
-89.0994
11
138.745
21
-89.0868
0
LINE
8
Black
10
138.745
20
-89.0868
11
138.761
21
-89.0791
0
LINE
8
Black
10
138.761
20
-89.0791
11
138.778
21
-89.0772
0
LINE
8
Black
10
138.778
20
-89.0772
11
138.795
21
-89.0813
0
LINE
8
Black
10
137.482
20
-89.0801
11
137.497
21
-89.0888
0
LINE
8
Black
10
137.497
20
-89.0888
11
137.509
21
-89.1021
0
LINE
8
Black
10
137.509
20
-89.1021
11
137.515
21
-89.1184
0
LINE
8
Black
10
137.515
20
-89.1184
11
137.515
21
-89.1358
0
LINE
8
Black
10
137.515
20
-89.1358
11
137.509
21
-89.1521
0
LINE
8
Black
10
137.509
20
-89.1521
11
137.497
21
-89.1654
0
LINE
8
Black
10
137.497
20
-89.1654
11
137.482
21
-89.1741
0
LINE
8
Black
10
137.482
20
-89.1741
11
137.465
21
-89.1771
0
LINE
8
Black
10
137.465
20
-89.1771
11
137.277
21
-89.1771
0
LINE
8
Black
10
137.277
20
-89.1771
11
137.277
21
-89.3152
0
LINE
8
Black
10
137.277
20
-89.3152
11
137.394
21
-89.3152
0
LINE
8
Black
10
137.394
20
-89.3152
11
137.411
21
-89.3182
0
LINE
8
Black
10
137.411
20
-89.3182
11
137.426
21
-89.3269
0
LINE
8
Black
10
137.426
20
-89.3269
11
137.437
21
-89.3402
0
LINE
8
Black
10
137.437
20
-89.3402
11
137.443
21
-89.3565
0
LINE
8
Black
10
137.443
20
-89.3565
11
137.443
21
-89.3739
0
LINE
8
Black
10
137.443
20
-89.3739
11
137.437
21
-89.3902
0
LINE
8
Black
10
137.437
20
-89.3902
11
137.426
21
-89.4035
0
LINE
8
Black
10
137.426
20
-89.4035
11
137.411
21
-89.4122
0
LINE
8
Black
10
137.411
20
-89.4122
11
137.394
21
-89.4152
0
LINE
8
Black
10
137.394
20
-89.4152
11
137.277
21
-89.4152
0
LINE
8
Black
10
137.277
20
-89.4152
11
137.277
21
-89.6271
0
LINE
8
Black
10
137.277
20
-89.6271
11
137.274
21
-89.6442
0
LINE
8
Black
10
137.274
20
-89.6442
11
137.265
21
-89.6592
0
LINE
8
Black
10
137.265
20
-89.6592
11
137.252
21
-89.6704
0
LINE
8
Black
10
137.252
20
-89.6704
11
137.236
21
-89.6764
0
LINE
8
Black
10
137.236
20
-89.6764
11
137.219
21
-89.6764
0
LINE
8
Black
10
137.219
20
-89.6764
11
137.202
21
-89.6704
0
LINE
8
Black
10
137.202
20
-89.6704
11
137.189
21
-89.6592
0
LINE
8
Black
10
137.189
20
-89.6592
11
137.18
21
-89.6442
0
LINE
8
Black
10
137.18
20
-89.6442
11
137.177
21
-89.6271
0
LINE
8
Black
10
137.177
20
-89.6271
11
137.177
21
-89.1271
0
LINE
8
Black
10
137.177
20
-89.1271
11
137.178
21
-89.1228
0
LINE
8
Black
10
137.178
20
-89.1228
11
137.178
21
-89.1184
0
LINE
8
Black
10
137.178
20
-89.1184
11
137.179
21
-89.1143
0
LINE
8
Black
10
137.179
20
-89.1143
11
137.18
21
-89.11
0
LINE
8
Black
10
137.18
20
-89.11
11
137.182
21
-89.1062
0
LINE
8
Black
10
137.182
20
-89.1062
11
137.184
21
-89.1021
0
LINE
8
Black
10
137.184
20
-89.1021
11
137.187
21
-89.0988
0
LINE
8
Black
10
137.187
20
-89.0988
11
137.189
21
-89.095
0
LINE
8
Black
10
137.189
20
-89.095
11
137.192
21
-89.0922
0
LINE
8
Black
10
137.192
20
-89.0922
11
137.195
21
-89.0888
0
LINE
8
Black
10
137.195
20
-89.0888
11
137.199
21
-89.0866
0
LINE
8
Black
10
137.199
20
-89.0866
11
137.202
21
-89.0838
0
LINE
8
Black
10
137.202
20
-89.0838
11
137.206
21
-89.0823
0
LINE
8
Black
10
137.206
20
-89.0823
11
137.21
21
-89.0801
0
LINE
8
Black
10
137.21
20
-89.0801
11
137.214
21
-89.0794
0
LINE
8
Black
10
137.214
20
-89.0794
11
137.219
21
-89.0779
0
LINE
8
Black
10
137.219
20
-89.0779
11
137.223
21
-89.0779
0
LINE
8
Black
10
137.223
20
-89.0779
11
137.227
21
-89.0771
0
LINE
8
Black
10
137.227
20
-89.0771
11
137.465
21
-89.0771
0
LINE
8
Black
10
137.465
20
-89.0771
11
137.482
21
-89.0801
0
LINE
8
Black
10
139.159
20
-89.0776
11
139.161
21
-89.0774
0
LINE
8
Black
10
139.161
20
-89.0774
11
139.167
21
-89.0791
0
LINE
8
Black
10
139.167
20
-89.0791
11
139.173
21
-89.0801
0
LINE
8
Black
10
139.173
20
-89.0801
11
139.175
21
-89.0816
0
LINE
8
Black
10
139.175
20
-89.0816
11
139.178
21
-89.0824
0
LINE
8
Black
10
139.178
20
-89.0824
11
139.226
21
-89.1062
0
LINE
8
Black
10
139.226
20
-89.1062
11
139.232
21
-89.111
0
LINE
8
Black
10
139.232
20
-89.111
11
139.239
21
-89.1156
0
LINE
8
Black
10
139.239
20
-89.1156
11
139.263
21
-89.1394
0
LINE
8
Black
10
139.263
20
-89.1394
11
139.267
21
-89.1459
0
LINE
8
Black
10
139.267
20
-89.1459
11
139.272
21
-89.1524
0
LINE
8
Black
10
139.272
20
-89.1524
11
139.296
21
-89.2
0
LINE
8
Black
10
139.296
20
-89.2
11
139.297
21
-89.2028
0
LINE
8
Black
10
139.297
20
-89.2028
11
139.298
21
-89.2052
0
LINE
8
Black
10
139.298
20
-89.2052
11
139.299
21
-89.211
0
LINE
8
Black
10
139.299
20
-89.211
11
139.301
21
-89.2166
0
LINE
8
Black
10
139.301
20
-89.2166
11
139.3
21
-89.2195
0
LINE
8
Black
10
139.3
20
-89.2195
11
139.301
21
-89.2223
0
LINE
8
Black
10
139.301
20
-89.2223
11
139.301
21
-89.2938
0
LINE
8
Black
10
139.301
20
-89.2938
11
139.3
21
-89.2966
0
LINE
8
Black
10
139.3
20
-89.2966
11
139.301
21
-89.2995
0
LINE
8
Black
10
139.301
20
-89.2995
11
139.299
21
-89.3051
0
LINE
8
Black
10
139.299
20
-89.3051
11
139.298
21
-89.3109
0
LINE
8
Black
10
139.298
20
-89.3109
11
139.297
21
-89.3134
0
LINE
8
Black
10
139.297
20
-89.3134
11
139.296
21
-89.3161
0
LINE
8
Black
10
139.296
20
-89.3161
11
139.272
21
-89.3638
0
LINE
8
Black
10
139.272
20
-89.3638
11
139.267
21
-89.3702
0
LINE
8
Black
10
139.267
20
-89.3702
11
139.263
21
-89.3768
0
LINE
8
Black
10
139.263
20
-89.3768
11
139.239
21
-89.4006
0
LINE
8
Black
10
139.239
20
-89.4006
11
139.232
21
-89.4052
0
LINE
8
Black
10
139.232
20
-89.4052
11
139.226
21
-89.4099
0
LINE
8
Black
10
139.226
20
-89.4099
11
139.178
21
-89.4337
0
LINE
8
Black
10
139.178
20
-89.4337
11
139.175
21
-89.4346
0
LINE
8
Black
10
139.175
20
-89.4346
11
139.173
21
-89.436
0
LINE
8
Black
10
139.173
20
-89.436
11
139.167
21
-89.437
0
LINE
8
Black
10
139.167
20
-89.437
11
139.161
21
-89.4387
0
LINE
8
Black
10
139.161
20
-89.4387
11
139.159
21
-89.4385
0
LINE
8
Black
10
139.159
20
-89.4385
11
139.156
21
-89.439
0
LINE
8
Black
10
139.156
20
-89.439
11
139.015
21
-89.439
0
LINE
8
Black
10
139.015
20
-89.439
11
139.015
21
-89.6271
0
LINE
8
Black
10
139.015
20
-89.6271
11
139.012
21
-89.6442
0
LINE
8
Black
10
139.012
20
-89.6442
11
139.004
21
-89.6592
0
LINE
8
Black
10
139.004
20
-89.6592
11
138.99
21
-89.6704
0
LINE
8
Black
10
138.99
20
-89.6704
11
138.974
21
-89.6764
0
LINE
8
Black
10
138.974
20
-89.6764
11
138.957
21
-89.6764
0
LINE
8
Black
10
138.957
20
-89.6764
11
138.94
21
-89.6704
0
LINE
8
Black
10
138.94
20
-89.6704
11
138.927
21
-89.6592
0
LINE
8
Black
10
138.927
20
-89.6592
11
138.918
21
-89.6442
0
LINE
8
Black
10
138.918
20
-89.6442
11
138.915
21
-89.6271
0
LINE
8
Black
10
138.915
20
-89.6271
11
138.915
21
-89.1271
0
LINE
8
Black
10
138.915
20
-89.1271
11
138.916
21
-89.1228
0
LINE
8
Black
10
138.916
20
-89.1228
11
138.916
21
-89.1184
0
LINE
8
Black
10
138.916
20
-89.1184
11
138.918
21
-89.1143
0
LINE
8
Black
10
138.918
20
-89.1143
11
138.918
21
-89.11
0
LINE
8
Black
10
138.918
20
-89.11
11
138.92
21
-89.1062
0
LINE
8
Black
10
138.92
20
-89.1062
11
138.922
21
-89.1021
0
LINE
8
Black
10
138.922
20
-89.1021
11
138.925
21
-89.0988
0
LINE
8
Black
10
138.925
20
-89.0988
11
138.927
21
-89.095
0
LINE
8
Black
10
138.927
20
-89.095
11
138.93
21
-89.0922
0
LINE
8
Black
10
138.93
20
-89.0922
11
138.933
21
-89.0888
0
LINE
8
Black
10
138.933
20
-89.0888
11
138.937
21
-89.0866
0
LINE
8
Black
10
138.937
20
-89.0866
11
138.94
21
-89.0838
0
LINE
8
Black
10
138.94
20
-89.0838
11
138.944
21
-89.0823
0
LINE
8
Black
10
138.944
20
-89.0823
11
138.948
21
-89.0801
0
LINE
8
Black
10
138.948
20
-89.0801
11
138.952
21
-89.0794
0
LINE
8
Black
10
138.952
20
-89.0794
11
138.957
21
-89.0779
0
LINE
8
Black
10
138.957
20
-89.0779
11
138.961
21
-89.0779
0
LINE
8
Black
10
138.961
20
-89.0779
11
138.965
21
-89.0771
0
LINE
8
Black
10
138.965
20
-89.0771
11
139.156
21
-89.0771
0
LINE
8
Black
10
139.156
20
-89.0771
11
139.159
21
-89.0776
0
LINE
8
Black
10
139.015
20
-89.1771
11
139.015
21
-89.339
0
LINE
8
Black
10
139.015
20
-89.339
11
139.144
21
-89.339
0
LINE
8
Black
10
139.144
20
-89.339
11
139.174
21
-89.3241
0
LINE
8
Black
10
139.174
20
-89.3241
11
139.186
21
-89.3118
0
LINE
8
Black
10
139.186
20
-89.3118
11
139.201
21
-89.282
0
LINE
8
Black
10
139.201
20
-89.282
11
139.201
21
-89.2342
0
LINE
8
Black
10
139.201
20
-89.2342
11
139.186
21
-89.2043
0
LINE
8
Black
10
139.186
20
-89.2043
11
139.174
21
-89.192
0
LINE
8
Black
10
139.174
20
-89.192
11
139.144
21
-89.1771
0
LINE
8
Black
10
139.144
20
-89.1771
11
139.015
21
-89.1771
0
LINE
8
Black
10
141.363
20
-89.0801
11
141.378
21
-89.0888
0
LINE
8
Black
10
141.378
20
-89.0888
11
141.39
21
-89.1021
0
LINE
8
Black
10
141.39
20
-89.1021
11
141.395
21
-89.1184
0
LINE
8
Black
10
141.395
20
-89.1184
11
141.395
21
-89.1358
0
LINE
8
Black
10
141.395
20
-89.1358
11
141.39
21
-89.1521
0
LINE
8
Black
10
141.39
20
-89.1521
11
141.378
21
-89.1654
0
LINE
8
Black
10
141.378
20
-89.1654
11
141.363
21
-89.1741
0
LINE
8
Black
10
141.363
20
-89.1741
11
141.346
21
-89.1771
0
LINE
8
Black
10
141.346
20
-89.1771
11
141.253
21
-89.1771
0
LINE
8
Black
10
141.253
20
-89.1771
11
141.253
21
-89.6271
0
LINE
8
Black
10
141.253
20
-89.6271
11
141.25
21
-89.6442
0
LINE
8
Black
10
141.25
20
-89.6442
11
141.242
21
-89.6592
0
LINE
8
Black
10
141.242
20
-89.6592
11
141.228
21
-89.6704
0
LINE
8
Black
10
141.228
20
-89.6704
11
141.212
21
-89.6764
0
LINE
8
Black
10
141.212
20
-89.6764
11
141.195
21
-89.6764
0
LINE
8
Black
10
141.195
20
-89.6764
11
141.178
21
-89.6704
0
LINE
8
Black
10
141.178
20
-89.6704
11
141.165
21
-89.6592
0
LINE
8
Black
10
141.165
20
-89.6592
11
141.156
21
-89.6442
0
LINE
8
Black
10
141.156
20
-89.6442
11
141.153
21
-89.6271
0
LINE
8
Black
10
141.153
20
-89.6271
11
141.153
21
-89.1771
0
LINE
8
Black
10
141.153
20
-89.1771
11
141.061
21
-89.1771
0
LINE
8
Black
10
141.061
20
-89.1771
11
141.043
21
-89.1741
0
LINE
8
Black
10
141.043
20
-89.1741
11
141.028
21
-89.1654
0
LINE
8
Black
10
141.028
20
-89.1654
11
141.017
21
-89.1521
0
LINE
8
Black
10
141.017
20
-89.1521
11
141.011
21
-89.1358
0
LINE
8
Black
10
141.011
20
-89.1358
11
141.011
21
-89.1184
0
LINE
8
Black
10
141.011
20
-89.1184
11
141.017
21
-89.1021
0
LINE
8
Black
10
141.017
20
-89.1021
11
141.028
21
-89.0888
0
LINE
8
Black
10
141.028
20
-89.0888
11
141.043
21
-89.0801
0
LINE
8
Black
10
141.043
20
-89.0801
11
141.061
21
-89.0771
0
LINE
8
Black
10
141.061
20
-89.0771
11
141.346
21
-89.0771
0
LINE
8
Black
10
141.346
20
-89.0771
11
141.363
21
-89.0801
0
LINE
8
Black
10
140.959
20
-89.0801
11
140.974
21
-89.0888
0
LINE
8
Black
10
140.974
20
-89.0888
11
140.985
21
-89.1021
0
LINE
8
Black
10
140.985
20
-89.1021
11
140.991
21
-89.1184
0
LINE
8
Black
10
140.991
20
-89.1184
11
140.991
21
-89.1358
0
LINE
8
Black
10
140.991
20
-89.1358
11
140.985
21
-89.1521
0
LINE
8
Black
10
140.985
20
-89.1521
11
140.974
21
-89.1654
0
LINE
8
Black
10
140.974
20
-89.1654
11
140.959
21
-89.1741
0
LINE
8
Black
10
140.959
20
-89.1741
11
140.941
21
-89.1771
0
LINE
8
Black
10
140.941
20
-89.1771
11
140.753
21
-89.1771
0
LINE
8
Black
10
140.753
20
-89.1771
11
140.753
21
-89.3152
0
LINE
8
Black
10
140.753
20
-89.3152
11
140.87
21
-89.3152
0
LINE
8
Black
10
140.87
20
-89.3152
11
140.887
21
-89.3182
0
LINE
8
Black
10
140.887
20
-89.3182
11
140.902
21
-89.3269
0
LINE
8
Black
10
140.902
20
-89.3269
11
140.913
21
-89.3402
0
LINE
8
Black
10
140.913
20
-89.3402
11
140.919
21
-89.3565
0
LINE
8
Black
10
140.919
20
-89.3565
11
140.919
21
-89.3739
0
LINE
8
Black
10
140.919
20
-89.3739
11
140.913
21
-89.3902
0
LINE
8
Black
10
140.913
20
-89.3902
11
140.902
21
-89.4035
0
LINE
8
Black
10
140.902
20
-89.4035
11
140.887
21
-89.4122
0
LINE
8
Black
10
140.887
20
-89.4122
11
140.87
21
-89.4152
0
LINE
8
Black
10
140.87
20
-89.4152
11
140.753
21
-89.4152
0
LINE
8
Black
10
140.753
20
-89.4152
11
140.753
21
-89.6271
0
LINE
8
Black
10
140.753
20
-89.6271
11
140.75
21
-89.6442
0
LINE
8
Black
10
140.75
20
-89.6442
11
140.742
21
-89.6592
0
LINE
8
Black
10
140.742
20
-89.6592
11
140.728
21
-89.6704
0
LINE
8
Black
10
140.728
20
-89.6704
11
140.712
21
-89.6764
0
LINE
8
Black
10
140.712
20
-89.6764
11
140.695
21
-89.6764
0
LINE
8
Black
10
140.695
20
-89.6764
11
140.678
21
-89.6704
0
LINE
8
Black
10
140.678
20
-89.6704
11
140.665
21
-89.6592
0
LINE
8
Black
10
140.665
20
-89.6592
11
140.656
21
-89.6442
0
LINE
8
Black
10
140.656
20
-89.6442
11
140.653
21
-89.6271
0
LINE
8
Black
10
140.653
20
-89.6271
11
140.653
21
-89.1271
0
LINE
8
Black
10
140.653
20
-89.1271
11
140.654
21
-89.1228
0
LINE
8
Black
10
140.654
20
-89.1228
11
140.654
21
-89.1184
0
LINE
8
Black
10
140.654
20
-89.1184
11
140.656
21
-89.1143
0
LINE
8
Black
10
140.656
20
-89.1143
11
140.656
21
-89.11
0
LINE
8
Black
10
140.656
20
-89.11
11
140.659
21
-89.1062
0
LINE
8
Black
10
140.659
20
-89.1062
11
140.66
21
-89.1021
0
LINE
8
Black
10
140.66
20
-89.1021
11
140.663
21
-89.0988
0
LINE
8
Black
10
140.663
20
-89.0988
11
140.665
21
-89.095
0
LINE
8
Black
10
140.665
20
-89.095
11
140.668
21
-89.0922
0
LINE
8
Black
10
140.668
20
-89.0922
11
140.671
21
-89.0888
0
LINE
8
Black
10
140.671
20
-89.0888
11
140.675
21
-89.0866
0
LINE
8
Black
10
140.675
20
-89.0866
11
140.678
21
-89.0838
0
LINE
8
Black
10
140.678
20
-89.0838
11
140.682
21
-89.0823
0
LINE
8
Black
10
140.682
20
-89.0823
11
140.686
21
-89.0801
0
LINE
8
Black
10
140.686
20
-89.0801
11
140.691
21
-89.0794
0
LINE
8
Black
10
140.691
20
-89.0794
11
140.695
21
-89.0779
0
LINE
8
Black
10
140.695
20
-89.0779
11
140.699
21
-89.0779
0
LINE
8
Black
10
140.699
20
-89.0779
11
140.703
21
-89.0771
0
LINE
8
Black
10
140.703
20
-89.0771
11
140.941
21
-89.0771
0
LINE
8
Black
10
140.941
20
-89.0771
11
140.959
21
-89.0801
0
LINE
8
Black
10
130.426
20
-87.3638
11
130.431
21
-87.3635
0
LINE
8
Black
10
130.431
20
-87.3635
11
130.443
21
-87.3668
0
LINE
8
Black
10
130.443
20
-87.3668
11
130.454
21
-87.3689
0
LINE
8
Black
10
130.454
20
-87.3689
11
130.459
21
-87.3717
0
LINE
8
Black
10
130.459
20
-87.3717
11
130.465
21
-87.3734
0
LINE
8
Black
10
130.465
20
-87.3734
11
130.541
21
-87.4115
0
LINE
8
Black
10
130.541
20
-87.4115
11
130.554
21
-87.421
0
LINE
8
Black
10
130.554
20
-87.421
11
130.567
21
-87.4302
0
LINE
8
Black
10
130.567
20
-87.4302
11
130.605
21
-87.4683
0
LINE
8
Black
10
130.605
20
-87.4683
11
130.614
21
-87.4814
0
LINE
8
Black
10
130.614
20
-87.4814
11
130.624
21
-87.4943
0
LINE
8
Black
10
130.624
20
-87.4943
11
130.662
21
-87.5705
0
LINE
8
Black
10
130.662
20
-87.5705
11
130.665
21
-87.581
0
LINE
8
Black
10
130.665
20
-87.581
11
130.669
21
-87.591
0
LINE
8
Black
10
130.669
20
-87.591
11
130.708
21
-87.7433
0
LINE
8
Black
10
130.708
20
-87.7433
11
130.708
21
-87.7555
0
LINE
8
Black
10
130.708
20
-87.7555
11
130.711
21
-87.7676
0
LINE
8
Black
10
130.711
20
-87.7676
11
130.711
21
-87.9581
0
LINE
8
Black
10
130.711
20
-87.9581
11
130.708
21
-87.9701
0
LINE
8
Black
10
130.708
20
-87.9701
11
130.708
21
-87.9823
0
LINE
8
Black
10
130.708
20
-87.9823
11
130.669
21
-88.1347
0
LINE
8
Black
10
130.669
20
-88.1347
11
130.665
21
-88.1447
0
LINE
8
Black
10
130.665
20
-88.1447
11
130.662
21
-88.1552
0
LINE
8
Black
10
130.662
20
-88.1552
11
130.624
21
-88.2314
0
LINE
8
Black
10
130.624
20
-88.2314
11
130.614
21
-88.2442
0
LINE
8
Black
10
130.614
20
-88.2442
11
130.605
21
-88.2573
0
LINE
8
Black
10
130.605
20
-88.2573
11
130.567
21
-88.2954
0
LINE
8
Black
10
130.567
20
-88.2954
11
130.554
21
-88.3046
0
LINE
8
Black
10
130.554
20
-88.3046
11
130.541
21
-88.3142
0
LINE
8
Black
10
130.541
20
-88.3142
11
130.465
21
-88.3523
0
LINE
8
Black
10
130.465
20
-88.3523
11
130.459
21
-88.3539
0
LINE
8
Black
10
130.459
20
-88.3539
11
130.454
21
-88.3568
0
LINE
8
Black
10
130.454
20
-88.3568
11
130.443
21
-88.3588
0
LINE
8
Black
10
130.443
20
-88.3588
11
130.431
21
-88.3622
0
LINE
8
Black
10
130.431
20
-88.3622
11
130.426
21
-88.3618
0
LINE
8
Black
10
130.426
20
-88.3618
11
130.42
21
-88.3628
0
LINE
8
Black
10
130.42
20
-88.3628
11
130.344
21
-88.3628
0
LINE
8
Black
10
130.344
20
-88.3628
11
130.338
21
-88.3618
0
LINE
8
Black
10
130.338
20
-88.3618
11
130.332
21
-88.3622
0
LINE
8
Black
10
130.332
20
-88.3622
11
130.321
21
-88.3588
0
LINE
8
Black
10
130.321
20
-88.3588
11
130.31
21
-88.3568
0
LINE
8
Black
10
130.31
20
-88.3568
11
130.305
21
-88.3539
0
LINE
8
Black
10
130.305
20
-88.3539
11
130.299
21
-88.3523
0
LINE
8
Black
10
130.299
20
-88.3523
11
130.223
21
-88.3142
0
LINE
8
Black
10
130.223
20
-88.3142
11
130.21
21
-88.3046
0
LINE
8
Black
10
130.21
20
-88.3046
11
130.197
21
-88.2954
0
LINE
8
Black
10
130.197
20
-88.2954
11
130.159
21
-88.2573
0
LINE
8
Black
10
130.159
20
-88.2573
11
130.15
21
-88.2442
0
LINE
8
Black
10
130.15
20
-88.2442
11
130.14
21
-88.2314
0
LINE
8
Black
10
130.14
20
-88.2314
11
130.102
21
-88.1552
0
LINE
8
Black
10
130.102
20
-88.1552
11
130.099
21
-88.1447
0
LINE
8
Black
10
130.099
20
-88.1447
11
130.094
21
-88.1347
0
LINE
8
Black
10
130.094
20
-88.1347
11
130.056
21
-87.9823
0
LINE
8
Black
10
130.056
20
-87.9823
11
130.056
21
-87.9701
0
LINE
8
Black
10
130.056
20
-87.9701
11
130.053
21
-87.9581
0
LINE
8
Black
10
130.053
20
-87.9581
11
130.053
21
-87.7676
0
LINE
8
Black
10
130.053
20
-87.7676
11
130.056
21
-87.7555
0
LINE
8
Black
10
130.056
20
-87.7555
11
130.056
21
-87.7433
0
LINE
8
Black
10
130.056
20
-87.7433
11
130.094
21
-87.591
0
LINE
8
Black
10
130.094
20
-87.591
11
130.099
21
-87.581
0
LINE
8
Black
10
130.099
20
-87.581
11
130.102
21
-87.5705
0
LINE
8
Black
10
130.102
20
-87.5705
11
130.14
21
-87.4943
0
LINE
8
Black
10
130.14
20
-87.4943
11
130.15
21
-87.4814
0
LINE
8
Black
10
130.15
20
-87.4814
11
130.159
21
-87.4683
0
LINE
8
Black
10
130.159
20
-87.4683
11
130.197
21
-87.4302
0
LINE
8
Black
10
130.197
20
-87.4302
11
130.21
21
-87.421
0
LINE
8
Black
10
130.21
20
-87.421
11
130.223
21
-87.4115
0
LINE
8
Black
10
130.223
20
-87.4115
11
130.299
21
-87.3734
0
LINE
8
Black
10
130.299
20
-87.3734
11
130.305
21
-87.3717
0
LINE
8
Black
10
130.305
20
-87.3717
11
130.31
21
-87.3689
0
LINE
8
Black
10
130.31
20
-87.3689
11
130.321
21
-87.3668
0
LINE
8
Black
10
130.321
20
-87.3668
11
130.332
21
-87.3635
0
LINE
8
Black
10
130.332
20
-87.3635
11
130.338
21
-87.3638
0
LINE
8
Black
10
130.338
20
-87.3638
11
130.344
21
-87.3628
0
LINE
8
Black
10
130.344
20
-87.3628
11
130.42
21
-87.3628
0
LINE
8
Black
10
130.42
20
-87.3628
11
130.426
21
-87.3638
0
LINE
8
Black
10
130.367
20
-87.5628
11
130.327
21
-87.5831
0
LINE
8
Black
10
130.327
20
-87.5831
11
130.312
21
-87.5983
0
LINE
8
Black
10
130.312
20
-87.5983
11
130.286
21
-87.6501
0
LINE
8
Black
10
130.286
20
-87.6501
11
130.253
21
-87.7799
0
LINE
8
Black
10
130.253
20
-87.7799
11
130.253
21
-87.9458
0
LINE
8
Black
10
130.253
20
-87.9458
11
130.286
21
-88.0755
0
LINE
8
Black
10
130.286
20
-88.0755
11
130.312
21
-88.1274
0
LINE
8
Black
10
130.312
20
-88.1274
11
130.327
21
-88.1425
0
LINE
8
Black
10
130.327
20
-88.1425
11
130.367
21
-88.1628
0
LINE
8
Black
10
130.367
20
-88.1628
11
130.396
21
-88.1628
0
LINE
8
Black
10
130.396
20
-88.1628
11
130.437
21
-88.1425
0
LINE
8
Black
10
130.437
20
-88.1425
11
130.452
21
-88.1274
0
LINE
8
Black
10
130.452
20
-88.1274
11
130.478
21
-88.0755
0
LINE
8
Black
10
130.478
20
-88.0755
11
130.511
21
-87.9458
0
LINE
8
Black
10
130.511
20
-87.9458
11
130.511
21
-87.7799
0
LINE
8
Black
10
130.511
20
-87.7799
11
130.478
21
-87.6501
0
LINE
8
Black
10
130.478
20
-87.6501
11
130.452
21
-87.5983
0
LINE
8
Black
10
130.452
20
-87.5983
11
130.437
21
-87.5831
0
LINE
8
Black
10
130.437
20
-87.5831
11
130.396
21
-87.5628
0
LINE
8
Black
10
130.396
20
-87.5628
11
130.367
21
-87.5628
0
LINE
8
Black
10
129.632
20
-87.3643
11
129.637
21
-87.3643
0
LINE
8
Black
10
129.637
20
-87.3643
11
129.649
21
-87.3684
0
LINE
8
Black
10
129.649
20
-87.3684
11
129.66
21
-87.3713
0
LINE
8
Black
10
129.66
20
-87.3713
11
129.665
21
-87.3743
0
LINE
8
Black
10
129.665
20
-87.3743
11
129.67
21
-87.3762
0
LINE
8
Black
10
129.67
20
-87.3762
11
129.679
21
-87.3839
0
LINE
8
Black
10
129.679
20
-87.3839
11
129.689
21
-87.3905
0
LINE
8
Black
10
129.689
20
-87.3905
11
129.692
21
-87.395
0
LINE
8
Black
10
129.692
20
-87.395
11
129.697
21
-87.3985
0
LINE
8
Black
10
129.697
20
-87.3985
11
129.703
21
-87.4089
0
LINE
8
Black
10
129.703
20
-87.4089
11
129.71
21
-87.4185
0
LINE
8
Black
10
129.71
20
-87.4185
11
129.711
21
-87.4238
0
LINE
8
Black
10
129.711
20
-87.4238
11
129.714
21
-87.4286
0
LINE
8
Black
10
129.714
20
-87.4286
11
129.716
21
-87.4404
0
LINE
8
Black
10
129.716
20
-87.4404
11
129.719
21
-87.4518
0
LINE
8
Black
10
129.719
20
-87.4518
11
129.719
21
-87.4574
0
LINE
8
Black
10
129.719
20
-87.4574
11
129.72
21
-87.4628
0
LINE
8
Black
10
129.72
20
-87.4628
11
129.72
21
-88.1628
0
LINE
8
Black
10
129.72
20
-88.1628
11
129.849
21
-88.1628
0
LINE
8
Black
10
129.849
20
-88.1628
11
129.883
21
-88.1689
0
LINE
8
Black
10
129.883
20
-88.1689
11
129.913
21
-88.1862
0
LINE
8
Black
10
129.913
20
-88.1862
11
129.935
21
-88.2128
0
LINE
8
Black
10
129.935
20
-88.2128
11
129.947
21
-88.2455
0
LINE
8
Black
10
129.947
20
-88.2455
11
129.947
21
-88.2802
0
LINE
8
Black
10
129.947
20
-88.2802
11
129.935
21
-88.3128
0
LINE
8
Black
10
129.935
20
-88.3128
11
129.913
21
-88.3394
0
LINE
8
Black
10
129.913
20
-88.3394
11
129.883
21
-88.3568
0
LINE
8
Black
10
129.883
20
-88.3568
11
129.849
21
-88.3628
0
LINE
8
Black
10
129.849
20
-88.3628
11
129.391
21
-88.3628
0
LINE
8
Black
10
129.391
20
-88.3628
11
129.357
21
-88.3568
0
LINE
8
Black
10
129.357
20
-88.3568
11
129.327
21
-88.3394
0
LINE
8
Black
10
129.327
20
-88.3394
11
129.305
21
-88.3128
0
LINE
8
Black
10
129.305
20
-88.3128
11
129.293
21
-88.2802
0
LINE
8
Black
10
129.293
20
-88.2802
11
129.293
21
-88.2455
0
LINE
8
Black
10
129.293
20
-88.2455
11
129.305
21
-88.2128
0
LINE
8
Black
10
129.305
20
-88.2128
11
129.327
21
-88.1862
0
LINE
8
Black
10
129.327
20
-88.1862
11
129.357
21
-88.1689
0
LINE
8
Black
10
129.357
20
-88.1689
11
129.391
21
-88.1628
0
LINE
8
Black
10
129.391
20
-88.1628
11
129.52
21
-88.1628
0
LINE
8
Black
10
129.52
20
-88.1628
11
129.52
21
-87.7371
0
LINE
8
Black
10
129.52
20
-87.7371
11
129.512
21
-87.7427
0
LINE
8
Black
10
129.512
20
-87.7427
11
129.436
21
-87.7808
0
LINE
8
Black
10
129.436
20
-87.7808
11
129.403
21
-87.7907
0
LINE
8
Black
10
129.403
20
-87.7907
11
129.368
21
-87.7887
0
LINE
8
Black
10
129.368
20
-87.7887
11
129.336
21
-87.7748
0
LINE
8
Black
10
129.336
20
-87.7748
11
129.311
21
-87.751
0
LINE
8
Black
10
129.311
20
-87.751
11
129.296
21
-87.7199
0
LINE
8
Black
10
129.296
20
-87.7199
11
129.292
21
-87.6854
0
LINE
8
Black
10
129.292
20
-87.6854
11
129.3
21
-87.6516
0
LINE
8
Black
10
129.3
20
-87.6516
11
129.319
21
-87.6226
0
LINE
8
Black
10
129.319
20
-87.6226
11
129.347
21
-87.602
0
LINE
8
Black
10
129.347
20
-87.602
11
129.408
21
-87.5711
0
LINE
8
Black
10
129.408
20
-87.5711
11
129.466
21
-87.5134
0
LINE
8
Black
10
129.466
20
-87.5134
11
129.537
21
-87.4074
0
LINE
8
Black
10
129.537
20
-87.4074
11
129.541
21
-87.4033
0
LINE
8
Black
10
129.541
20
-87.4033
11
129.543
21
-87.3985
0
LINE
8
Black
10
129.543
20
-87.3985
11
129.553
21
-87.3909
0
LINE
8
Black
10
129.553
20
-87.3909
11
129.561
21
-87.3822
0
LINE
8
Black
10
129.561
20
-87.3822
11
129.566
21
-87.3798
0
LINE
8
Black
10
129.566
20
-87.3798
11
129.57
21
-87.3762
0
LINE
8
Black
10
129.57
20
-87.3762
11
129.581
21
-87.3721
0
LINE
8
Black
10
129.581
20
-87.3721
11
129.592
21
-87.3669
0
LINE
8
Black
10
129.592
20
-87.3669
11
129.597
21
-87.3662
0
LINE
8
Black
10
129.597
20
-87.3662
11
129.603
21
-87.3643
0
LINE
8
Black
10
129.603
20
-87.3643
11
129.615
21
-87.3643
0
LINE
8
Black
10
129.615
20
-87.3643
11
129.626
21
-87.363
0
LINE
8
Black
10
129.626
20
-87.363
11
129.632
21
-87.3643
0
LINE
8
Black
10
139.135
20
-87.107
11
139.165
21
-87.1243
0
LINE
8
Black
10
139.165
20
-87.1243
11
139.188
21
-87.1509
0
LINE
8
Black
10
139.188
20
-87.1509
11
139.199
21
-87.1836
0
LINE
8
Black
10
139.199
20
-87.1836
11
139.199
21
-87.2183
0
LINE
8
Black
10
139.199
20
-87.2183
11
139.188
21
-87.2509
0
LINE
8
Black
10
139.188
20
-87.2509
11
139.165
21
-87.2775
0
LINE
8
Black
10
139.165
20
-87.2775
11
139.135
21
-87.2949
0
LINE
8
Black
10
139.135
20
-87.2949
11
139.101
21
-87.3009
0
LINE
8
Black
10
139.101
20
-87.3009
11
136.901
21
-87.3009
0
LINE
8
Black
10
136.901
20
-87.3009
11
136.867
21
-87.2949
0
LINE
8
Black
10
136.867
20
-87.2949
11
136.837
21
-87.2775
0
LINE
8
Black
10
136.837
20
-87.2775
11
136.814
21
-87.2509
0
LINE
8
Black
10
136.814
20
-87.2509
11
136.803
21
-87.2183
0
LINE
8
Black
10
136.803
20
-87.2183
11
136.803
21
-87.1836
0
LINE
8
Black
10
136.803
20
-87.1836
11
136.814
21
-87.1509
0
LINE
8
Black
10
136.814
20
-87.1509
11
136.837
21
-87.1243
0
LINE
8
Black
10
136.837
20
-87.1243
11
136.867
21
-87.107
0
LINE
8
Black
10
136.867
20
-87.107
11
136.901
21
-87.1009
0
LINE
8
Black
10
136.901
20
-87.1009
11
139.101
21
-87.1009
0
LINE
8
Black
10
139.101
20
-87.1009
11
139.135
21
-87.107
0
LINE
8
Black
10
149.31
20
-84.7024
11
149.318
21
-84.7024
0
LINE
8
Black
10
149.318
20
-84.7024
11
149.327
21
-84.7054
0
LINE
8
Black
10
149.327
20
-84.7054
11
149.335
21
-84.707
0
LINE
8
Black
10
149.335
20
-84.707
11
149.343
21
-84.7113
0
LINE
8
Black
10
149.343
20
-84.7113
11
149.351
21
-84.7143
0
LINE
8
Black
10
149.351
20
-84.7143
11
149.358
21
-84.7199
0
LINE
8
Black
10
149.358
20
-84.7199
11
149.365
21
-84.7243
0
LINE
8
Black
10
149.365
20
-84.7243
11
149.371
21
-84.731
0
LINE
8
Black
10
149.371
20
-84.731
11
149.378
21
-84.7366
0
LINE
8
Black
10
149.378
20
-84.7366
11
149.382
21
-84.7442
0
LINE
8
Black
10
149.382
20
-84.7442
11
149.388
21
-84.7509
0
LINE
8
Black
10
149.388
20
-84.7509
11
149.391
21
-84.7591
0
LINE
8
Black
10
149.391
20
-84.7591
11
149.395
21
-84.7667
0
LINE
8
Black
10
149.395
20
-84.7667
11
149.396
21
-84.7753
0
LINE
8
Black
10
149.396
20
-84.7753
11
149.399
21
-84.7836
0
LINE
8
Black
10
149.399
20
-84.7836
11
149.399
21
-84.7923
0
LINE
8
Black
10
149.399
20
-84.7923
11
149.401
21
-84.8009
0
LINE
8
Black
10
149.401
20
-84.8009
11
149.401
21
-87.2009
0
LINE
8
Black
10
149.401
20
-87.2009
11
149.399
21
-87.2095
0
LINE
8
Black
10
149.399
20
-87.2095
11
149.399
21
-87.2183
0
LINE
8
Black
10
149.399
20
-87.2183
11
149.396
21
-87.2265
0
LINE
8
Black
10
149.396
20
-87.2265
11
149.395
21
-87.2351
0
LINE
8
Black
10
149.395
20
-87.2351
11
149.391
21
-87.2427
0
LINE
8
Black
10
149.391
20
-87.2427
11
149.388
21
-87.2509
0
LINE
8
Black
10
149.388
20
-87.2509
11
149.382
21
-87.2576
0
LINE
8
Black
10
149.382
20
-87.2576
11
149.378
21
-87.2652
0
LINE
8
Black
10
149.378
20
-87.2652
11
149.371
21
-87.2708
0
LINE
8
Black
10
149.371
20
-87.2708
11
149.365
21
-87.2775
0
LINE
8
Black
10
149.365
20
-87.2775
11
149.358
21
-87.2819
0
LINE
8
Black
10
149.358
20
-87.2819
11
149.351
21
-87.2875
0
LINE
8
Black
10
149.351
20
-87.2875
11
149.343
21
-87.2905
0
LINE
8
Black
10
149.343
20
-87.2905
11
149.335
21
-87.2949
0
LINE
8
Black
10
149.335
20
-87.2949
11
149.327
21
-87.2964
0
LINE
8
Black
10
149.327
20
-87.2964
11
149.318
21
-87.2994
0
LINE
8
Black
10
149.318
20
-87.2994
11
149.31
21
-87.2994
0
LINE
8
Black
10
149.31
20
-87.2994
11
149.301
21
-87.3009
0
LINE
8
Black
10
149.301
20
-87.3009
11
148.901
21
-87.3009
0
LINE
8
Black
10
148.901
20
-87.3009
11
148.867
21
-87.2949
0
LINE
8
Black
10
148.867
20
-87.2949
11
148.837
21
-87.2775
0
LINE
8
Black
10
148.837
20
-87.2775
11
148.814
21
-87.2509
0
LINE
8
Black
10
148.814
20
-87.2509
11
148.803
21
-87.2183
0
LINE
8
Black
10
148.803
20
-87.2183
11
148.803
21
-87.1836
0
LINE
8
Black
10
148.803
20
-87.1836
11
148.814
21
-87.1509
0
LINE
8
Black
10
148.814
20
-87.1509
11
148.837
21
-87.1243
0
LINE
8
Black
10
148.837
20
-87.1243
11
148.867
21
-87.107
0
LINE
8
Black
10
148.867
20
-87.107
11
148.901
21
-87.1009
0
LINE
8
Black
10
148.901
20
-87.1009
11
149.201
21
-87.1009
0
LINE
8
Black
10
149.201
20
-87.1009
11
149.201
21
-84.9009
0
LINE
8
Black
10
149.201
20
-84.9009
11
146.901
21
-84.9009
0
LINE
8
Black
10
146.901
20
-84.9009
11
146.867
21
-84.8949
0
LINE
8
Black
10
146.867
20
-84.8949
11
146.837
21
-84.8775
0
LINE
8
Black
10
146.837
20
-84.8775
11
146.814
21
-84.8509
0
LINE
8
Black
10
146.814
20
-84.8509
11
146.803
21
-84.8183
0
LINE
8
Black
10
146.803
20
-84.8183
11
146.803
21
-84.7836
0
LINE
8
Black
10
146.803
20
-84.7836
11
146.814
21
-84.7509
0
LINE
8
Black
10
146.814
20
-84.7509
11
146.837
21
-84.7243
0
LINE
8
Black
10
146.837
20
-84.7243
11
146.867
21
-84.707
0
LINE
8
Black
10
146.867
20
-84.707
11
146.901
21
-84.7009
0
LINE
8
Black
10
146.901
20
-84.7009
11
149.301
21
-84.7009
0
LINE
8
Black
10
149.301
20
-84.7009
11
149.31
21
-84.7024
0
LINE
8
Black
10
147.135
20
-87.107
11
147.165
21
-87.1243
0
LINE
8
Black
10
147.165
20
-87.1243
11
147.188
21
-87.1509
0
LINE
8
Black
10
147.188
20
-87.1509
11
147.199
21
-87.1836
0
LINE
8
Black
10
147.199
20
-87.1836
11
147.199
21
-87.2183
0
LINE
8
Black
10
147.199
20
-87.2183
11
147.188
21
-87.2509
0
LINE
8
Black
10
147.188
20
-87.2509
11
147.165
21
-87.2775
0
LINE
8
Black
10
147.165
20
-87.2775
11
147.135
21
-87.2949
0
LINE
8
Black
10
147.135
20
-87.2949
11
147.101
21
-87.3009
0
LINE
8
Black
10
147.101
20
-87.3009
11
144.901
21
-87.3009
0
LINE
8
Black
10
144.901
20
-87.3009
11
144.867
21
-87.2949
0
LINE
8
Black
10
144.867
20
-87.2949
11
144.837
21
-87.2775
0
LINE
8
Black
10
144.837
20
-87.2775
11
144.814
21
-87.2509
0
LINE
8
Black
10
144.814
20
-87.2509
11
144.803
21
-87.2183
0
LINE
8
Black
10
144.803
20
-87.2183
11
144.803
21
-87.1836
0
LINE
8
Black
10
144.803
20
-87.1836
11
144.814
21
-87.1509
0
LINE
8
Black
10
144.814
20
-87.1509
11
144.837
21
-87.1243
0
LINE
8
Black
10
144.837
20
-87.1243
11
144.867
21
-87.107
0
LINE
8
Black
10
144.867
20
-87.107
11
144.901
21
-87.1009
0
LINE
8
Black
10
144.901
20
-87.1009
11
147.101
21
-87.1009
0
LINE
8
Black
10
147.101
20
-87.1009
11
147.135
21
-87.107
0
LINE
8
Black
10
135.135
20
-87.107
11
135.165
21
-87.1243
0
LINE
8
Black
10
135.165
20
-87.1243
11
135.188
21
-87.1509
0
LINE
8
Black
10
135.188
20
-87.1509
11
135.199
21
-87.1836
0
LINE
8
Black
10
135.199
20
-87.1836
11
135.199
21
-87.2183
0
LINE
8
Black
10
135.199
20
-87.2183
11
135.188
21
-87.2509
0
LINE
8
Black
10
135.188
20
-87.2509
11
135.165
21
-87.2775
0
LINE
8
Black
10
135.165
20
-87.2775
11
135.135
21
-87.2949
0
LINE
8
Black
10
135.135
20
-87.2949
11
135.101
21
-87.3009
0
LINE
8
Black
10
135.101
20
-87.3009
11
132.901
21
-87.3009
0
LINE
8
Black
10
132.901
20
-87.3009
11
132.867
21
-87.2949
0
LINE
8
Black
10
132.867
20
-87.2949
11
132.837
21
-87.2775
0
LINE
8
Black
10
132.837
20
-87.2775
11
132.814
21
-87.2509
0
LINE
8
Black
10
132.814
20
-87.2509
11
132.803
21
-87.2183
0
LINE
8
Black
10
132.803
20
-87.2183
11
132.803
21
-87.1836
0
LINE
8
Black
10
132.803
20
-87.1836
11
132.814
21
-87.1509
0
LINE
8
Black
10
132.814
20
-87.1509
11
132.837
21
-87.1243
0
LINE
8
Black
10
132.837
20
-87.1243
11
132.867
21
-87.107
0
LINE
8
Black
10
132.867
20
-87.107
11
132.901
21
-87.1009
0
LINE
8
Black
10
132.901
20
-87.1009
11
135.101
21
-87.1009
0
LINE
8
Black
10
135.101
20
-87.1009
11
135.135
21
-87.107
0
LINE
8
Black
10
129.135
20
-84.707
11
129.165
21
-84.7243
0
LINE
8
Black
10
129.165
20
-84.7243
11
129.188
21
-84.7509
0
LINE
8
Black
10
129.188
20
-84.7509
11
129.199
21
-84.7836
0
LINE
8
Black
10
129.199
20
-84.7836
11
129.199
21
-84.8183
0
LINE
8
Black
10
129.199
20
-84.8183
11
129.188
21
-84.8509
0
LINE
8
Black
10
129.188
20
-84.8509
11
129.165
21
-84.8775
0
LINE
8
Black
10
129.165
20
-84.8775
11
129.135
21
-84.8949
0
LINE
8
Black
10
129.135
20
-84.8949
11
129.101
21
-84.9009
0
LINE
8
Black
10
129.101
20
-84.9009
11
128.801
21
-84.9009
0
LINE
8
Black
10
128.801
20
-84.9009
11
128.801
21
-87.1009
0
LINE
8
Black
10
128.801
20
-87.1009
11
131.101
21
-87.1009
0
LINE
8
Black
10
131.101
20
-87.1009
11
131.135
21
-87.107
0
LINE
8
Black
10
131.135
20
-87.107
11
131.165
21
-87.1243
0
LINE
8
Black
10
131.165
20
-87.1243
11
131.188
21
-87.1509
0
LINE
8
Black
10
131.188
20
-87.1509
11
131.199
21
-87.1836
0
LINE
8
Black
10
131.199
20
-87.1836
11
131.199
21
-87.2183
0
LINE
8
Black
10
131.199
20
-87.2183
11
131.188
21
-87.2509
0
LINE
8
Black
10
131.188
20
-87.2509
11
131.165
21
-87.2775
0
LINE
8
Black
10
131.165
20
-87.2775
11
131.135
21
-87.2949
0
LINE
8
Black
10
131.135
20
-87.2949
11
131.101
21
-87.3009
0
LINE
8
Black
10
131.101
20
-87.3009
11
128.701
21
-87.3009
0
LINE
8
Black
10
128.701
20
-87.3009
11
128.692
21
-87.2994
0
LINE
8
Black
10
128.692
20
-87.2994
11
128.684
21
-87.2994
0
LINE
8
Black
10
128.684
20
-87.2994
11
128.675
21
-87.2964
0
LINE
8
Black
10
128.675
20
-87.2964
11
128.667
21
-87.2949
0
LINE
8
Black
10
128.667
20
-87.2949
11
128.659
21
-87.2905
0
LINE
8
Black
10
128.659
20
-87.2905
11
128.651
21
-87.2875
0
LINE
8
Black
10
128.651
20
-87.2875
11
128.644
21
-87.2819
0
LINE
8
Black
10
128.644
20
-87.2819
11
128.637
21
-87.2775
0
LINE
8
Black
10
128.637
20
-87.2775
11
128.631
21
-87.2708
0
LINE
8
Black
10
128.631
20
-87.2708
11
128.624
21
-87.2652
0
LINE
8
Black
10
128.624
20
-87.2652
11
128.62
21
-87.2576
0
LINE
8
Black
10
128.62
20
-87.2576
11
128.614
21
-87.2509
0
LINE
8
Black
10
128.614
20
-87.2509
11
128.611
21
-87.2427
0
LINE
8
Black
10
128.611
20
-87.2427
11
128.607
21
-87.2351
0
LINE
8
Black
10
128.607
20
-87.2351
11
128.606
21
-87.2265
0
LINE
8
Black
10
128.606
20
-87.2265
11
128.603
21
-87.2183
0
LINE
8
Black
10
128.603
20
-87.2183
11
128.603
21
-87.2095
0
LINE
8
Black
10
128.603
20
-87.2095
11
128.601
21
-87.2009
0
LINE
8
Black
10
128.601
20
-87.2009
11
128.601
21
-84.8009
0
LINE
8
Black
10
128.601
20
-84.8009
11
128.603
21
-84.7923
0
LINE
8
Black
10
128.603
20
-84.7923
11
128.603
21
-84.7836
0
LINE
8
Black
10
128.603
20
-84.7836
11
128.606
21
-84.7753
0
LINE
8
Black
10
128.606
20
-84.7753
11
128.607
21
-84.7667
0
LINE
8
Black
10
128.607
20
-84.7667
11
128.611
21
-84.7591
0
LINE
8
Black
10
128.611
20
-84.7591
11
128.614
21
-84.7509
0
LINE
8
Black
10
128.614
20
-84.7509
11
128.62
21
-84.7442
0
LINE
8
Black
10
128.62
20
-84.7442
11
128.624
21
-84.7366
0
LINE
8
Black
10
128.624
20
-84.7366
11
128.631
21
-84.731
0
LINE
8
Black
10
128.631
20
-84.731
11
128.637
21
-84.7243
0
LINE
8
Black
10
128.637
20
-84.7243
11
128.644
21
-84.7199
0
LINE
8
Black
10
128.644
20
-84.7199
11
128.651
21
-84.7143
0
LINE
8
Black
10
128.651
20
-84.7143
11
128.659
21
-84.7113
0
LINE
8
Black
10
128.659
20
-84.7113
11
128.667
21
-84.707
0
LINE
8
Black
10
128.667
20
-84.707
11
128.675
21
-84.7054
0
LINE
8
Black
10
128.675
20
-84.7054
11
128.684
21
-84.7024
0
LINE
8
Black
10
128.684
20
-84.7024
11
128.692
21
-84.7024
0
LINE
8
Black
10
128.692
20
-84.7024
11
128.701
21
-84.7009
0
LINE
8
Black
10
128.701
20
-84.7009
11
129.101
21
-84.7009
0
LINE
8
Black
10
129.101
20
-84.7009
11
129.135
21
-84.707
0
LINE
8
Black
10
143.135
20
-87.107
11
143.165
21
-87.1243
0
LINE
8
Black
10
143.165
20
-87.1243
11
143.188
21
-87.1509
0
LINE
8
Black
10
143.188
20
-87.1509
11
143.199
21
-87.1836
0
LINE
8
Black
10
143.199
20
-87.1836
11
143.199
21
-87.2183
0
LINE
8
Black
10
143.199
20
-87.2183
11
143.188
21
-87.2509
0
LINE
8
Black
10
143.188
20
-87.2509
11
143.165
21
-87.2775
0
LINE
8
Black
10
143.165
20
-87.2775
11
143.135
21
-87.2949
0
LINE
8
Black
10
143.135
20
-87.2949
11
143.101
21
-87.3009
0
LINE
8
Black
10
143.101
20
-87.3009
11
140.901
21
-87.3009
0
LINE
8
Black
10
140.901
20
-87.3009
11
140.867
21
-87.2949
0
LINE
8
Black
10
140.867
20
-87.2949
11
140.837
21
-87.2775
0
LINE
8
Black
10
140.837
20
-87.2775
11
140.814
21
-87.2509
0
LINE
8
Black
10
140.814
20
-87.2509
11
140.803
21
-87.2183
0
LINE
8
Black
10
140.803
20
-87.2183
11
140.803
21
-87.1836
0
LINE
8
Black
10
140.803
20
-87.1836
11
140.814
21
-87.1509
0
LINE
8
Black
10
140.814
20
-87.1509
11
140.837
21
-87.1243
0
LINE
8
Black
10
140.837
20
-87.1243
11
140.867
21
-87.107
0
LINE
8
Black
10
140.867
20
-87.107
11
140.901
21
-87.1009
0
LINE
8
Black
10
140.901
20
-87.1009
11
143.101
21
-87.1009
0
LINE
8
Black
10
143.101
20
-87.1009
11
143.135
21
-87.107
0
LINE
8
Black
10
140.181
20
-85.5057
11
140.34
21
-85.5972
0
LINE
8
Black
10
140.34
20
-85.5972
11
140.457
21
-85.7374
0
LINE
8
Black
10
140.457
20
-85.7374
11
140.52
21
-85.9094
0
LINE
8
Black
10
140.52
20
-85.9094
11
140.52
21
-86.0924
0
LINE
8
Black
10
140.52
20
-86.0924
11
140.457
21
-86.2644
0
LINE
8
Black
10
140.457
20
-86.2644
11
140.34
21
-86.4046
0
LINE
8
Black
10
140.34
20
-86.4046
11
140.181
21
-86.4961
0
LINE
8
Black
10
140.181
20
-86.4961
11
140.001
21
-86.5279
0
LINE
8
Black
10
140.001
20
-86.5279
11
139.821
21
-86.4961
0
LINE
8
Black
10
139.821
20
-86.4961
11
139.662
21
-86.4046
0
LINE
8
Black
10
139.662
20
-86.4046
11
139.545
21
-86.2644
0
LINE
8
Black
10
139.545
20
-86.2644
11
139.482
21
-86.0924
0
LINE
8
Black
10
139.482
20
-86.0924
11
139.482
21
-85.9094
0
LINE
8
Black
10
139.482
20
-85.9094
11
139.545
21
-85.7374
0
LINE
8
Black
10
139.545
20
-85.7374
11
139.662
21
-85.5972
0
LINE
8
Black
10
139.662
20
-85.5972
11
139.821
21
-85.5057
0
LINE
8
Black
10
139.821
20
-85.5057
11
140.001
21
-85.4739
0
LINE
8
Black
10
140.001
20
-85.4739
11
140.181
21
-85.5057
0
LINE
8
Black
10
130.181
20
-85.5057
11
130.34
21
-85.5972
0
LINE
8
Black
10
130.34
20
-85.5972
11
130.457
21
-85.7374
0
LINE
8
Black
10
130.457
20
-85.7374
11
130.52
21
-85.9094
0
LINE
8
Black
10
130.52
20
-85.9094
11
130.52
21
-86.0924
0
LINE
8
Black
10
130.52
20
-86.0924
11
130.457
21
-86.2644
0
LINE
8
Black
10
130.457
20
-86.2644
11
130.34
21
-86.4046
0
LINE
8
Black
10
130.34
20
-86.4046
11
130.181
21
-86.4961
0
LINE
8
Black
10
130.181
20
-86.4961
11
130.001
21
-86.5279
0
LINE
8
Black
10
130.001
20
-86.5279
11
129.821
21
-86.4961
0
LINE
8
Black
10
129.821
20
-86.4961
11
129.662
21
-86.4046
0
LINE
8
Black
10
129.662
20
-86.4046
11
129.545
21
-86.2644
0
LINE
8
Black
10
129.545
20
-86.2644
11
129.482
21
-86.0924
0
LINE
8
Black
10
129.482
20
-86.0924
11
129.482
21
-85.9094
0
LINE
8
Black
10
129.482
20
-85.9094
11
129.545
21
-85.7374
0
LINE
8
Black
10
129.545
20
-85.7374
11
129.662
21
-85.5972
0
LINE
8
Black
10
129.662
20
-85.5972
11
129.821
21
-85.5057
0
LINE
8
Black
10
129.821
20
-85.5057
11
130.001
21
-85.4739
0
LINE
8
Black
10
130.001
20
-85.4739
11
130.181
21
-85.5057
0
LINE
8
Black
10
146.181
20
-85.5057
11
146.34
21
-85.5972
0
LINE
8
Black
10
146.34
20
-85.5972
11
146.457
21
-85.7374
0
LINE
8
Black
10
146.457
20
-85.7374
11
146.52
21
-85.9094
0
LINE
8
Black
10
146.52
20
-85.9094
11
146.52
21
-86.0924
0
LINE
8
Black
10
146.52
20
-86.0924
11
146.457
21
-86.2644
0
LINE
8
Black
10
146.457
20
-86.2644
11
146.34
21
-86.4046
0
LINE
8
Black
10
146.34
20
-86.4046
11
146.181
21
-86.4961
0
LINE
8
Black
10
146.181
20
-86.4961
11
146.001
21
-86.5279
0
LINE
8
Black
10
146.001
20
-86.5279
11
145.821
21
-86.4961
0
LINE
8
Black
10
145.821
20
-86.4961
11
145.662
21
-86.4046
0
LINE
8
Black
10
145.662
20
-86.4046
11
145.545
21
-86.2644
0
LINE
8
Black
10
145.545
20
-86.2644
11
145.482
21
-86.0924
0
LINE
8
Black
10
145.482
20
-86.0924
11
145.482
21
-85.9094
0
LINE
8
Black
10
145.482
20
-85.9094
11
145.545
21
-85.7374
0
LINE
8
Black
10
145.545
20
-85.7374
11
145.662
21
-85.5972
0
LINE
8
Black
10
145.662
20
-85.5972
11
145.821
21
-85.5057
0
LINE
8
Black
10
145.821
20
-85.5057
11
146.001
21
-85.4739
0
LINE
8
Black
10
146.001
20
-85.4739
11
146.181
21
-85.5057
0
LINE
8
Black
10
134.181
20
-85.5057
11
134.34
21
-85.5972
0
LINE
8
Black
10
134.34
20
-85.5972
11
134.457
21
-85.7374
0
LINE
8
Black
10
134.457
20
-85.7374
11
134.52
21
-85.9094
0
LINE
8
Black
10
134.52
20
-85.9094
11
134.52
21
-86.0924
0
LINE
8
Black
10
134.52
20
-86.0924
11
134.457
21
-86.2644
0
LINE
8
Black
10
134.457
20
-86.2644
11
134.34
21
-86.4046
0
LINE
8
Black
10
134.34
20
-86.4046
11
134.181
21
-86.4961
0
LINE
8
Black
10
134.181
20
-86.4961
11
134.001
21
-86.5279
0
LINE
8
Black
10
134.001
20
-86.5279
11
133.821
21
-86.4961
0
LINE
8
Black
10
133.821
20
-86.4961
11
133.662
21
-86.4046
0
LINE
8
Black
10
133.662
20
-86.4046
11
133.545
21
-86.2644
0
LINE
8
Black
10
133.545
20
-86.2644
11
133.482
21
-86.0924
0
LINE
8
Black
10
133.482
20
-86.0924
11
133.482
21
-85.9094
0
LINE
8
Black
10
133.482
20
-85.9094
11
133.545
21
-85.7374
0
LINE
8
Black
10
133.545
20
-85.7374
11
133.662
21
-85.5972
0
LINE
8
Black
10
133.662
20
-85.5972
11
133.821
21
-85.5057
0
LINE
8
Black
10
133.821
20
-85.5057
11
134.001
21
-85.4739
0
LINE
8
Black
10
134.001
20
-85.4739
11
134.181
21
-85.5057
0
LINE
8
Black
10
132.181
20
-85.5057
11
132.34
21
-85.5972
0
LINE
8
Black
10
132.34
20
-85.5972
11
132.457
21
-85.7374
0
LINE
8
Black
10
132.457
20
-85.7374
11
132.52
21
-85.9094
0
LINE
8
Black
10
132.52
20
-85.9094
11
132.52
21
-86.0924
0
LINE
8
Black
10
132.52
20
-86.0924
11
132.457
21
-86.2644
0
LINE
8
Black
10
132.457
20
-86.2644
11
132.34
21
-86.4046
0
LINE
8
Black
10
132.34
20
-86.4046
11
132.181
21
-86.4961
0
LINE
8
Black
10
132.181
20
-86.4961
11
132.001
21
-86.5279
0
LINE
8
Black
10
132.001
20
-86.5279
11
131.821
21
-86.4961
0
LINE
8
Black
10
131.821
20
-86.4961
11
131.662
21
-86.4046
0
LINE
8
Black
10
131.662
20
-86.4046
11
131.545
21
-86.2644
0
LINE
8
Black
10
131.545
20
-86.2644
11
131.482
21
-86.0924
0
LINE
8
Black
10
131.482
20
-86.0924
11
131.482
21
-85.9094
0
LINE
8
Black
10
131.482
20
-85.9094
11
131.545
21
-85.7374
0
LINE
8
Black
10
131.545
20
-85.7374
11
131.662
21
-85.5972
0
LINE
8
Black
10
131.662
20
-85.5972
11
131.821
21
-85.5057
0
LINE
8
Black
10
131.821
20
-85.5057
11
132.001
21
-85.4739
0
LINE
8
Black
10
132.001
20
-85.4739
11
132.181
21
-85.5057
0
LINE
8
Black
10
144.181
20
-85.5057
11
144.34
21
-85.5972
0
LINE
8
Black
10
144.34
20
-85.5972
11
144.457
21
-85.7374
0
LINE
8
Black
10
144.457
20
-85.7374
11
144.52
21
-85.9094
0
LINE
8
Black
10
144.52
20
-85.9094
11
144.52
21
-86.0924
0
LINE
8
Black
10
144.52
20
-86.0924
11
144.457
21
-86.2644
0
LINE
8
Black
10
144.457
20
-86.2644
11
144.34
21
-86.4046
0
LINE
8
Black
10
144.34
20
-86.4046
11
144.181
21
-86.4961
0
LINE
8
Black
10
144.181
20
-86.4961
11
144.001
21
-86.5279
0
LINE
8
Black
10
144.001
20
-86.5279
11
143.821
21
-86.4961
0
LINE
8
Black
10
143.821
20
-86.4961
11
143.662
21
-86.4046
0
LINE
8
Black
10
143.662
20
-86.4046
11
143.545
21
-86.2644
0
LINE
8
Black
10
143.545
20
-86.2644
11
143.482
21
-86.0924
0
LINE
8
Black
10
143.482
20
-86.0924
11
143.482
21
-85.9094
0
LINE
8
Black
10
143.482
20
-85.9094
11
143.545
21
-85.7374
0
LINE
8
Black
10
143.545
20
-85.7374
11
143.662
21
-85.5972
0
LINE
8
Black
10
143.662
20
-85.5972
11
143.821
21
-85.5057
0
LINE
8
Black
10
143.821
20
-85.5057
11
144.001
21
-85.4739
0
LINE
8
Black
10
144.001
20
-85.4739
11
144.181
21
-85.5057
0
LINE
8
Black
10
142.181
20
-85.5057
11
142.34
21
-85.5972
0
LINE
8
Black
10
142.34
20
-85.5972
11
142.457
21
-85.7374
0
LINE
8
Black
10
142.457
20
-85.7374
11
142.52
21
-85.9094
0
LINE
8
Black
10
142.52
20
-85.9094
11
142.52
21
-86.0924
0
LINE
8
Black
10
142.52
20
-86.0924
11
142.457
21
-86.2644
0
LINE
8
Black
10
142.457
20
-86.2644
11
142.34
21
-86.4046
0
LINE
8
Black
10
142.34
20
-86.4046
11
142.181
21
-86.4961
0
LINE
8
Black
10
142.181
20
-86.4961
11
142.001
21
-86.5279
0
LINE
8
Black
10
142.001
20
-86.5279
11
141.821
21
-86.4961
0
LINE
8
Black
10
141.821
20
-86.4961
11
141.662
21
-86.4046
0
LINE
8
Black
10
141.662
20
-86.4046
11
141.545
21
-86.2644
0
LINE
8
Black
10
141.545
20
-86.2644
11
141.482
21
-86.0924
0
LINE
8
Black
10
141.482
20
-86.0924
11
141.482
21
-85.9094
0
LINE
8
Black
10
141.482
20
-85.9094
11
141.545
21
-85.7374
0
LINE
8
Black
10
141.545
20
-85.7374
11
141.662
21
-85.5972
0
LINE
8
Black
10
141.662
20
-85.5972
11
141.821
21
-85.5057
0
LINE
8
Black
10
141.821
20
-85.5057
11
142.001
21
-85.4739
0
LINE
8
Black
10
142.001
20
-85.4739
11
142.181
21
-85.5057
0
LINE
8
Black
10
136.181
20
-85.5057
11
136.34
21
-85.5972
0
LINE
8
Black
10
136.34
20
-85.5972
11
136.457
21
-85.7374
0
LINE
8
Black
10
136.457
20
-85.7374
11
136.52
21
-85.9094
0
LINE
8
Black
10
136.52
20
-85.9094
11
136.52
21
-86.0924
0
LINE
8
Black
10
136.52
20
-86.0924
11
136.457
21
-86.2644
0
LINE
8
Black
10
136.457
20
-86.2644
11
136.34
21
-86.4046
0
LINE
8
Black
10
136.34
20
-86.4046
11
136.181
21
-86.4961
0
LINE
8
Black
10
136.181
20
-86.4961
11
136.001
21
-86.5279
0
LINE
8
Black
10
136.001
20
-86.5279
11
135.821
21
-86.4961
0
LINE
8
Black
10
135.821
20
-86.4961
11
135.662
21
-86.4046
0
LINE
8
Black
10
135.662
20
-86.4046
11
135.545
21
-86.2644
0
LINE
8
Black
10
135.545
20
-86.2644
11
135.482
21
-86.0924
0
LINE
8
Black
10
135.482
20
-86.0924
11
135.482
21
-85.9094
0
LINE
8
Black
10
135.482
20
-85.9094
11
135.545
21
-85.7374
0
LINE
8
Black
10
135.545
20
-85.7374
11
135.662
21
-85.5972
0
LINE
8
Black
10
135.662
20
-85.5972
11
135.821
21
-85.5057
0
LINE
8
Black
10
135.821
20
-85.5057
11
136.001
21
-85.4739
0
LINE
8
Black
10
136.001
20
-85.4739
11
136.181
21
-85.5057
0
LINE
8
Black
10
138.181
20
-85.5057
11
138.34
21
-85.5972
0
LINE
8
Black
10
138.34
20
-85.5972
11
138.457
21
-85.7374
0
LINE
8
Black
10
138.457
20
-85.7374
11
138.52
21
-85.9094
0
LINE
8
Black
10
138.52
20
-85.9094
11
138.52
21
-86.0924
0
LINE
8
Black
10
138.52
20
-86.0924
11
138.457
21
-86.2644
0
LINE
8
Black
10
138.457
20
-86.2644
11
138.34
21
-86.4046
0
LINE
8
Black
10
138.34
20
-86.4046
11
138.181
21
-86.4961
0
LINE
8
Black
10
138.181
20
-86.4961
11
138.001
21
-86.5279
0
LINE
8
Black
10
138.001
20
-86.5279
11
137.821
21
-86.4961
0
LINE
8
Black
10
137.821
20
-86.4961
11
137.662
21
-86.4046
0
LINE
8
Black
10
137.662
20
-86.4046
11
137.545
21
-86.2644
0
LINE
8
Black
10
137.545
20
-86.2644
11
137.482
21
-86.0924
0
LINE
8
Black
10
137.482
20
-86.0924
11
137.482
21
-85.9094
0
LINE
8
Black
10
137.482
20
-85.9094
11
137.545
21
-85.7374
0
LINE
8
Black
10
137.545
20
-85.7374
11
137.662
21
-85.5972
0
LINE
8
Black
10
137.662
20
-85.5972
11
137.821
21
-85.5057
0
LINE
8
Black
10
137.821
20
-85.5057
11
138.001
21
-85.4739
0
LINE
8
Black
10
138.001
20
-85.4739
11
138.181
21
-85.5057
0
LINE
8
Black
10
148.526
20
-86.5259
11
147.476
21
-86.5259
0
LINE
8
Black
10
147.476
20
-86.5259
11
147.476
21
-85.4759
0
LINE
8
Black
10
147.476
20
-85.4759
11
148.526
21
-85.4759
0
LINE
8
Black
10
148.526
20
-85.4759
11
148.526
21
-86.5259
0
LINE
8
Black
10
139.257
20
-85.5779
11
139.26
21
-85.5779
0
LINE
8
Black
10
139.26
20
-85.5779
11
139.265
21
-85.5799
0
LINE
8
Black
10
139.265
20
-85.5799
11
139.271
21
-85.5813
0
LINE
8
Black
10
139.271
20
-85.5813
11
139.273
21
-85.5829
0
LINE
8
Black
10
139.273
20
-85.5829
11
139.276
21
-85.5838
0
LINE
8
Black
10
139.276
20
-85.5838
11
139.281
21
-85.5876
0
LINE
8
Black
10
139.281
20
-85.5876
11
139.286
21
-85.591
0
LINE
8
Black
10
139.286
20
-85.591
11
139.287
21
-85.5932
0
LINE
8
Black
10
139.287
20
-85.5932
11
139.289
21
-85.595
0
LINE
8
Black
10
139.289
20
-85.595
11
139.292
21
-85.6001
0
LINE
8
Black
10
139.292
20
-85.6001
11
139.296
21
-85.6049
0
LINE
8
Black
10
139.296
20
-85.6049
11
139.297
21
-85.6076
0
LINE
8
Black
10
139.297
20
-85.6076
11
139.298
21
-85.61
0
LINE
8
Black
10
139.298
20
-85.61
11
139.299
21
-85.6159
0
LINE
8
Black
10
139.299
20
-85.6159
11
139.301
21
-85.6216
0
LINE
8
Black
10
139.301
20
-85.6216
11
139.301
21
-85.6244
0
LINE
8
Black
10
139.301
20
-85.6244
11
139.301
21
-85.6271
0
LINE
8
Black
10
139.301
20
-85.6271
11
139.301
21
-86.0771
0
LINE
8
Black
10
139.301
20
-86.0771
11
139.394
21
-86.0771
0
LINE
8
Black
10
139.394
20
-86.0771
11
139.411
21
-86.0801
0
LINE
8
Black
10
139.411
20
-86.0801
11
139.426
21
-86.0888
0
LINE
8
Black
10
139.426
20
-86.0888
11
139.437
21
-86.1021
0
LINE
8
Black
10
139.437
20
-86.1021
11
139.443
21
-86.1184
0
LINE
8
Black
10
139.443
20
-86.1184
11
139.443
21
-86.1358
0
LINE
8
Black
10
139.443
20
-86.1358
11
139.437
21
-86.1521
0
LINE
8
Black
10
139.437
20
-86.1521
11
139.426
21
-86.1654
0
LINE
8
Black
10
139.426
20
-86.1654
11
139.411
21
-86.1741
0
LINE
8
Black
10
139.411
20
-86.1741
11
139.394
21
-86.1771
0
LINE
8
Black
10
139.394
20
-86.1771
11
139.108
21
-86.1771
0
LINE
8
Black
10
139.108
20
-86.1771
11
139.091
21
-86.1741
0
LINE
8
Black
10
139.091
20
-86.1741
11
139.076
21
-86.1654
0
LINE
8
Black
10
139.076
20
-86.1654
11
139.065
21
-86.1521
0
LINE
8
Black
10
139.065
20
-86.1521
11
139.059
21
-86.1358
0
LINE
8
Black
10
139.059
20
-86.1358
11
139.059
21
-86.1184
0
LINE
8
Black
10
139.059
20
-86.1184
11
139.065
21
-86.1021
0
LINE
8
Black
10
139.065
20
-86.1021
11
139.076
21
-86.0888
0
LINE
8
Black
10
139.076
20
-86.0888
11
139.091
21
-86.0801
0
LINE
8
Black
10
139.091
20
-86.0801
11
139.108
21
-86.0771
0
LINE
8
Black
10
139.108
20
-86.0771
11
139.201
21
-86.0771
0
LINE
8
Black
10
139.201
20
-86.0771
11
139.201
21
-85.7716
0
LINE
8
Black
10
139.201
20
-85.7716
11
139.191
21
-85.7815
0
LINE
8
Black
10
139.191
20
-85.7815
11
139.185
21
-85.7861
0
LINE
8
Black
10
139.185
20
-85.7861
11
139.178
21
-85.7909
0
LINE
8
Black
10
139.178
20
-85.7909
11
139.131
21
-85.8147
0
LINE
8
Black
10
139.131
20
-85.8147
11
139.114
21
-85.8196
0
LINE
8
Black
10
139.114
20
-85.8196
11
139.097
21
-85.8186
0
LINE
8
Black
10
139.097
20
-85.8186
11
139.081
21
-85.8117
0
LINE
8
Black
10
139.081
20
-85.8117
11
139.068
21
-85.7998
0
LINE
8
Black
10
139.068
20
-85.7998
11
139.06
21
-85.7842
0
LINE
8
Black
10
139.06
20
-85.7842
11
139.058
21
-85.767
0
LINE
8
Black
10
139.058
20
-85.767
11
139.062
21
-85.7501
0
LINE
8
Black
10
139.062
20
-85.7501
11
139.072
21
-85.7356
0
LINE
8
Black
10
139.072
20
-85.7356
11
139.086
21
-85.7252
0
LINE
8
Black
10
139.086
20
-85.7252
11
139.126
21
-85.7051
0
LINE
8
Black
10
139.126
20
-85.7051
11
139.165
21
-85.6667
0
LINE
8
Black
10
139.165
20
-85.6667
11
139.209
21
-85.5994
0
LINE
8
Black
10
139.209
20
-85.5994
11
139.211
21
-85.5974
0
LINE
8
Black
10
139.211
20
-85.5974
11
139.213
21
-85.595
0
LINE
8
Black
10
139.213
20
-85.595
11
139.217
21
-85.5911
0
LINE
8
Black
10
139.217
20
-85.5911
11
139.221
21
-85.5868
0
LINE
8
Black
10
139.221
20
-85.5868
11
139.224
21
-85.5856
0
LINE
8
Black
10
139.224
20
-85.5856
11
139.226
21
-85.5838
0
LINE
8
Black
10
139.226
20
-85.5838
11
139.232
21
-85.5818
0
LINE
8
Black
10
139.232
20
-85.5818
11
139.237
21
-85.5791
0
LINE
8
Black
10
139.237
20
-85.5791
11
139.24
21
-85.5788
0
LINE
8
Black
10
139.24
20
-85.5788
11
139.242
21
-85.5779
0
LINE
8
Black
10
139.242
20
-85.5779
11
139.248
21
-85.5779
0
LINE
8
Black
10
139.248
20
-85.5779
11
139.254
21
-85.5772
0
LINE
8
Black
10
139.254
20
-85.5772
11
139.257
21
-85.5779
0
LINE
8
Black
10
138.825
20
-85.5776
11
138.828
21
-85.5774
0
LINE
8
Black
10
138.828
20
-85.5774
11
138.834
21
-85.5791
0
LINE
8
Black
10
138.834
20
-85.5791
11
138.84
21
-85.5801
0
LINE
8
Black
10
138.84
20
-85.5801
11
138.842
21
-85.5816
0
LINE
8
Black
10
138.842
20
-85.5816
11
138.845
21
-85.5824
0
LINE
8
Black
10
138.845
20
-85.5824
11
138.892
21
-85.6062
0
LINE
8
Black
10
138.892
20
-85.6062
11
138.899
21
-85.611
0
LINE
8
Black
10
138.899
20
-85.611
11
138.905
21
-85.6156
0
LINE
8
Black
10
138.905
20
-85.6156
11
138.929
21
-85.6394
0
LINE
8
Black
10
138.929
20
-85.6394
11
138.934
21
-85.6459
0
LINE
8
Black
10
138.934
20
-85.6459
11
138.939
21
-85.6524
0
LINE
8
Black
10
138.939
20
-85.6524
11
138.962
21
-85.7
0
LINE
8
Black
10
138.962
20
-85.7
11
138.963
21
-85.7028
0
LINE
8
Black
10
138.963
20
-85.7028
11
138.965
21
-85.7052
0
LINE
8
Black
10
138.965
20
-85.7052
11
138.966
21
-85.711
0
LINE
8
Black
10
138.966
20
-85.711
11
138.967
21
-85.7166
0
LINE
8
Black
10
138.967
20
-85.7166
11
138.967
21
-85.7195
0
LINE
8
Black
10
138.967
20
-85.7195
11
138.968
21
-85.7223
0
LINE
8
Black
10
138.968
20
-85.7223
11
138.968
21
-85.7938
0
LINE
8
Black
10
138.968
20
-85.7938
11
138.967
21
-85.7966
0
LINE
8
Black
10
138.967
20
-85.7966
11
138.967
21
-85.7995
0
LINE
8
Black
10
138.967
20
-85.7995
11
138.966
21
-85.8051
0
LINE
8
Black
10
138.966
20
-85.8051
11
138.965
21
-85.8109
0
LINE
8
Black
10
138.965
20
-85.8109
11
138.963
21
-85.8134
0
LINE
8
Black
10
138.963
20
-85.8134
11
138.962
21
-85.8161
0
LINE
8
Black
10
138.962
20
-85.8161
11
138.939
21
-85.8638
0
LINE
8
Black
10
138.939
20
-85.8638
11
138.934
21
-85.8702
0
LINE
8
Black
10
138.934
20
-85.8702
11
138.929
21
-85.8768
0
LINE
8
Black
10
138.929
20
-85.8768
11
138.905
21
-85.9006
0
LINE
8
Black
10
138.905
20
-85.9006
11
138.899
21
-85.9052
0
LINE
8
Black
10
138.899
20
-85.9052
11
138.892
21
-85.9099
0
LINE
8
Black
10
138.892
20
-85.9099
11
138.845
21
-85.9337
0
LINE
8
Black
10
138.845
20
-85.9337
11
138.842
21
-85.9346
0
LINE
8
Black
10
138.842
20
-85.9346
11
138.84
21
-85.936
0
LINE
8
Black
10
138.84
20
-85.936
11
138.834
21
-85.937
0
LINE
8
Black
10
138.834
20
-85.937
11
138.828
21
-85.9387
0
LINE
8
Black
10
138.828
20
-85.9387
11
138.825
21
-85.9385
0
LINE
8
Black
10
138.825
20
-85.9385
11
138.822
21
-85.939
0
LINE
8
Black
10
138.822
20
-85.939
11
138.682
21
-85.939
0
LINE
8
Black
10
138.682
20
-85.939
11
138.682
21
-86.1271
0
LINE
8
Black
10
138.682
20
-86.1271
11
138.679
21
-86.1442
0
LINE
8
Black
10
138.679
20
-86.1442
11
138.67
21
-86.1592
0
LINE
8
Black
10
138.67
20
-86.1592
11
138.657
21
-86.1704
0
LINE
8
Black
10
138.657
20
-86.1704
11
138.641
21
-86.1764
0
LINE
8
Black
10
138.641
20
-86.1764
11
138.623
21
-86.1764
0
LINE
8
Black
10
138.623
20
-86.1764
11
138.607
21
-86.1704
0
LINE
8
Black
10
138.607
20
-86.1704
11
138.594
21
-86.1592
0
LINE
8
Black
10
138.594
20
-86.1592
11
138.585
21
-86.1442
0
LINE
8
Black
10
138.585
20
-86.1442
11
138.582
21
-86.1271
0
LINE
8
Black
10
138.582
20
-86.1271
11
138.582
21
-85.6271
0
LINE
8
Black
10
138.582
20
-85.6271
11
138.583
21
-85.6228
0
LINE
8
Black
10
138.583
20
-85.6228
11
138.583
21
-85.6184
0
LINE
8
Black
10
138.583
20
-85.6184
11
138.584
21
-85.6143
0
LINE
8
Black
10
138.584
20
-85.6143
11
138.585
21
-85.61
0
LINE
8
Black
10
138.585
20
-85.61
11
138.587
21
-85.6062
0
LINE
8
Black
10
138.587
20
-85.6062
11
138.589
21
-85.6021
0
LINE
8
Black
10
138.589
20
-85.6021
11
138.591
21
-85.5988
0
LINE
8
Black
10
138.591
20
-85.5988
11
138.594
21
-85.595
0
LINE
8
Black
10
138.594
20
-85.595
11
138.597
21
-85.5922
0
LINE
8
Black
10
138.597
20
-85.5922
11
138.6
21
-85.5888
0
LINE
8
Black
10
138.6
20
-85.5888
11
138.604
21
-85.5866
0
LINE
8
Black
10
138.604
20
-85.5866
11
138.607
21
-85.5838
0
LINE
8
Black
10
138.607
20
-85.5838
11
138.611
21
-85.5823
0
LINE
8
Black
10
138.611
20
-85.5823
11
138.615
21
-85.5801
0
LINE
8
Black
10
138.615
20
-85.5801
11
138.619
21
-85.5794
0
LINE
8
Black
10
138.619
20
-85.5794
11
138.623
21
-85.5779
0
LINE
8
Black
10
138.623
20
-85.5779
11
138.628
21
-85.5779
0
LINE
8
Black
10
138.628
20
-85.5779
11
138.632
21
-85.5771
0
LINE
8
Black
10
138.632
20
-85.5771
11
138.822
21
-85.5771
0
LINE
8
Black
10
138.822
20
-85.5771
11
138.825
21
-85.5776
0
LINE
8
Black
10
138.682
20
-85.6771
11
138.682
21
-85.839
0
LINE
8
Black
10
138.682
20
-85.839
11
138.811
21
-85.839
0
LINE
8
Black
10
138.811
20
-85.839
11
138.84
21
-85.8241
0
LINE
8
Black
10
138.84
20
-85.8241
11
138.853
21
-85.8118
0
LINE
8
Black
10
138.853
20
-85.8118
11
138.868
21
-85.782
0
LINE
8
Black
10
138.868
20
-85.782
11
138.868
21
-85.7342
0
LINE
8
Black
10
138.868
20
-85.7342
11
138.853
21
-85.7043
0
LINE
8
Black
10
138.853
20
-85.7043
11
138.84
21
-85.692
0
LINE
8
Black
10
138.84
20
-85.692
11
138.811
21
-85.6771
0
LINE
8
Black
10
138.811
20
-85.6771
11
138.682
21
-85.6771
0
LINE
8
Black
10
133.135
20
-84.707
11
133.165
21
-84.7243
0
LINE
8
Black
10
133.165
20
-84.7243
11
133.188
21
-84.7509
0
LINE
8
Black
10
133.188
20
-84.7509
11
133.199
21
-84.7836
0
LINE
8
Black
10
133.199
20
-84.7836
11
133.199
21
-84.8183
0
LINE
8
Black
10
133.199
20
-84.8183
11
133.188
21
-84.8509
0
LINE
8
Black
10
133.188
20
-84.8509
11
133.165
21
-84.8775
0
LINE
8
Black
10
133.165
20
-84.8775
11
133.135
21
-84.8949
0
LINE
8
Black
10
133.135
20
-84.8949
11
133.101
21
-84.9009
0
LINE
8
Black
10
133.101
20
-84.9009
11
130.901
21
-84.9009
0
LINE
8
Black
10
130.901
20
-84.9009
11
130.867
21
-84.8949
0
LINE
8
Black
10
130.867
20
-84.8949
11
130.837
21
-84.8775
0
LINE
8
Black
10
130.837
20
-84.8775
11
130.814
21
-84.8509
0
LINE
8
Black
10
130.814
20
-84.8509
11
130.803
21
-84.8183
0
LINE
8
Black
10
130.803
20
-84.8183
11
130.803
21
-84.7836
0
LINE
8
Black
10
130.803
20
-84.7836
11
130.814
21
-84.7509
0
LINE
8
Black
10
130.814
20
-84.7509
11
130.837
21
-84.7243
0
LINE
8
Black
10
130.837
20
-84.7243
11
130.867
21
-84.707
0
LINE
8
Black
10
130.867
20
-84.707
11
130.901
21
-84.7009
0
LINE
8
Black
10
130.901
20
-84.7009
11
133.101
21
-84.7009
0
LINE
8
Black
10
133.101
20
-84.7009
11
133.135
21
-84.707
0
LINE
8
Black
10
140.935
20
-84.707
11
140.965
21
-84.7243
0
LINE
8
Black
10
140.965
20
-84.7243
11
140.988
21
-84.7509
0
LINE
8
Black
10
140.988
20
-84.7509
11
140.999
21
-84.7836
0
LINE
8
Black
10
140.999
20
-84.7836
11
140.999
21
-84.8183
0
LINE
8
Black
10
140.999
20
-84.8183
11
140.988
21
-84.8509
0
LINE
8
Black
10
140.988
20
-84.8509
11
140.965
21
-84.8775
0
LINE
8
Black
10
140.965
20
-84.8775
11
140.935
21
-84.8949
0
LINE
8
Black
10
140.935
20
-84.8949
11
140.901
21
-84.9009
0
LINE
8
Black
10
140.901
20
-84.9009
11
138.901
21
-84.9009
0
LINE
8
Black
10
138.901
20
-84.9009
11
138.867
21
-84.8949
0
LINE
8
Black
10
138.867
20
-84.8949
11
138.837
21
-84.8775
0
LINE
8
Black
10
138.837
20
-84.8775
11
138.814
21
-84.8509
0
LINE
8
Black
10
138.814
20
-84.8509
11
138.803
21
-84.8183
0
LINE
8
Black
10
138.803
20
-84.8183
11
138.803
21
-84.7836
0
LINE
8
Black
10
138.803
20
-84.7836
11
138.814
21
-84.7509
0
LINE
8
Black
10
138.814
20
-84.7509
11
138.837
21
-84.7243
0
LINE
8
Black
10
138.837
20
-84.7243
11
138.867
21
-84.707
0
LINE
8
Black
10
138.867
20
-84.707
11
138.901
21
-84.7009
0
LINE
8
Black
10
138.901
20
-84.7009
11
140.901
21
-84.7009
0
LINE
8
Black
10
140.901
20
-84.7009
11
140.935
21
-84.707
0
LINE
8
Black
10
137.135
20
-84.707
11
137.165
21
-84.7243
0
LINE
8
Black
10
137.165
20
-84.7243
11
137.188
21
-84.7509
0
LINE
8
Black
10
137.188
20
-84.7509
11
137.199
21
-84.7836
0
LINE
8
Black
10
137.199
20
-84.7836
11
137.199
21
-84.8183
0
LINE
8
Black
10
137.199
20
-84.8183
11
137.188
21
-84.8509
0
LINE
8
Black
10
137.188
20
-84.8509
11
137.165
21
-84.8775
0
LINE
8
Black
10
137.165
20
-84.8775
11
137.135
21
-84.8949
0
LINE
8
Black
10
137.135
20
-84.8949
11
137.101
21
-84.9009
0
LINE
8
Black
10
137.101
20
-84.9009
11
134.901
21
-84.9009
0
LINE
8
Black
10
134.901
20
-84.9009
11
134.867
21
-84.8949
0
LINE
8
Black
10
134.867
20
-84.8949
11
134.837
21
-84.8775
0
LINE
8
Black
10
134.837
20
-84.8775
11
134.814
21
-84.8509
0
LINE
8
Black
10
134.814
20
-84.8509
11
134.803
21
-84.8183
0
LINE
8
Black
10
134.803
20
-84.8183
11
134.803
21
-84.7836
0
LINE
8
Black
10
134.803
20
-84.7836
11
134.814
21
-84.7509
0
LINE
8
Black
10
134.814
20
-84.7509
11
134.837
21
-84.7243
0
LINE
8
Black
10
134.837
20
-84.7243
11
134.867
21
-84.707
0
LINE
8
Black
10
134.867
20
-84.707
11
134.901
21
-84.7009
0
LINE
8
Black
10
134.901
20
-84.7009
11
137.101
21
-84.7009
0
LINE
8
Black
10
137.101
20
-84.7009
11
137.135
21
-84.707
0
LINE
8
Black
10
145.135
20
-84.707
11
145.165
21
-84.7243
0
LINE
8
Black
10
145.165
20
-84.7243
11
145.188
21
-84.7509
0
LINE
8
Black
10
145.188
20
-84.7509
11
145.199
21
-84.7836
0
LINE
8
Black
10
145.199
20
-84.7836
11
145.199
21
-84.8183
0
LINE
8
Black
10
145.199
20
-84.8183
11
145.188
21
-84.8509
0
LINE
8
Black
10
145.188
20
-84.8509
11
145.165
21
-84.8775
0
LINE
8
Black
10
145.165
20
-84.8775
11
145.135
21
-84.8949
0
LINE
8
Black
10
145.135
20
-84.8949
11
145.101
21
-84.9009
0
LINE
8
Black
10
145.101
20
-84.9009
11
142.701
21
-84.9009
0
LINE
8
Black
10
142.701
20
-84.9009
11
142.667
21
-84.8949
0
LINE
8
Black
10
142.667
20
-84.8949
11
142.637
21
-84.8775
0
LINE
8
Black
10
142.637
20
-84.8775
11
142.614
21
-84.8509
0
LINE
8
Black
10
142.614
20
-84.8509
11
142.603
21
-84.8183
0
LINE
8
Black
10
142.603
20
-84.8183
11
142.603
21
-84.7836
0
LINE
8
Black
10
142.603
20
-84.7836
11
142.614
21
-84.7509
0
LINE
8
Black
10
142.614
20
-84.7509
11
142.637
21
-84.7243
0
LINE
8
Black
10
142.637
20
-84.7243
11
142.667
21
-84.707
0
LINE
8
Black
10
142.667
20
-84.707
11
142.701
21
-84.7009
0
LINE
8
Black
10
142.701
20
-84.7009
11
145.101
21
-84.7009
0
LINE
8
Black
10
145.101
20
-84.7009
11
145.135
21
-84.707
0
LINE
8
Black
10
148.013
20
-83.4643
11
148.018
21
-83.4643
0
LINE
8
Black
10
148.018
20
-83.4643
11
148.03
21
-83.4684
0
LINE
8
Black
10
148.03
20
-83.4684
11
148.041
21
-83.4713
0
LINE
8
Black
10
148.041
20
-83.4713
11
148.046
21
-83.4743
0
LINE
8
Black
10
148.046
20
-83.4743
11
148.051
21
-83.4762
0
LINE
8
Black
10
148.051
20
-83.4762
11
148.06
21
-83.4839
0
LINE
8
Black
10
148.06
20
-83.4839
11
148.07
21
-83.4905
0
LINE
8
Black
10
148.07
20
-83.4905
11
148.073
21
-83.495
0
LINE
8
Black
10
148.073
20
-83.495
11
148.078
21
-83.4985
0
LINE
8
Black
10
148.078
20
-83.4985
11
148.084
21
-83.5089
0
LINE
8
Black
10
148.084
20
-83.5089
11
148.091
21
-83.5185
0
LINE
8
Black
10
148.091
20
-83.5185
11
148.092
21
-83.5238
0
LINE
8
Black
10
148.092
20
-83.5238
11
148.095
21
-83.5286
0
LINE
8
Black
10
148.095
20
-83.5286
11
148.097
21
-83.5404
0
LINE
8
Black
10
148.097
20
-83.5404
11
148.1
21
-83.5518
0
LINE
8
Black
10
148.1
20
-83.5518
11
148.1
21
-83.5574
0
LINE
8
Black
10
148.1
20
-83.5574
11
148.101
21
-83.5628
0
LINE
8
Black
10
148.101
20
-83.5628
11
148.101
21
-84.2628
0
LINE
8
Black
10
148.101
20
-84.2628
11
148.23
21
-84.2628
0
LINE
8
Black
10
148.23
20
-84.2628
11
148.264
21
-84.2689
0
LINE
8
Black
10
148.264
20
-84.2689
11
148.294
21
-84.2862
0
LINE
8
Black
10
148.294
20
-84.2862
11
148.316
21
-84.3128
0
LINE
8
Black
10
148.316
20
-84.3128
11
148.328
21
-84.3455
0
LINE
8
Black
10
148.328
20
-84.3455
11
148.328
21
-84.3802
0
LINE
8
Black
10
148.328
20
-84.3802
11
148.316
21
-84.4128
0
LINE
8
Black
10
148.316
20
-84.4128
11
148.294
21
-84.4394
0
LINE
8
Black
10
148.294
20
-84.4394
11
148.264
21
-84.4568
0
LINE
8
Black
10
148.264
20
-84.4568
11
148.23
21
-84.4628
0
LINE
8
Black
10
148.23
20
-84.4628
11
147.772
21
-84.4628
0
LINE
8
Black
10
147.772
20
-84.4628
11
147.738
21
-84.4568
0
LINE
8
Black
10
147.738
20
-84.4568
11
147.708
21
-84.4394
0
LINE
8
Black
10
147.708
20
-84.4394
11
147.686
21
-84.4128
0
LINE
8
Black
10
147.686
20
-84.4128
11
147.674
21
-84.3802
0
LINE
8
Black
10
147.674
20
-84.3802
11
147.674
21
-84.3455
0
LINE
8
Black
10
147.674
20
-84.3455
11
147.686
21
-84.3128
0
LINE
8
Black
10
147.686
20
-84.3128
11
147.708
21
-84.2862
0
LINE
8
Black
10
147.708
20
-84.2862
11
147.738
21
-84.2689
0
LINE
8
Black
10
147.738
20
-84.2689
11
147.772
21
-84.2628
0
LINE
8
Black
10
147.772
20
-84.2628
11
147.901
21
-84.2628
0
LINE
8
Black
10
147.901
20
-84.2628
11
147.901
21
-83.8371
0
LINE
8
Black
10
147.901
20
-83.8371
11
147.893
21
-83.8427
0
LINE
8
Black
10
147.893
20
-83.8427
11
147.817
21
-83.8808
0
LINE
8
Black
10
147.817
20
-83.8808
11
147.784
21
-83.8907
0
LINE
8
Black
10
147.784
20
-83.8907
11
147.749
21
-83.8887
0
LINE
8
Black
10
147.749
20
-83.8887
11
147.717
21
-83.8748
0
LINE
8
Black
10
147.717
20
-83.8748
11
147.692
21
-83.851
0
LINE
8
Black
10
147.692
20
-83.851
11
147.677
21
-83.8199
0
LINE
8
Black
10
147.677
20
-83.8199
11
147.673
21
-83.7854
0
LINE
8
Black
10
147.673
20
-83.7854
11
147.681
21
-83.7516
0
LINE
8
Black
10
147.681
20
-83.7516
11
147.7
21
-83.7226
0
LINE
8
Black
10
147.7
20
-83.7226
11
147.728
21
-83.702
0
LINE
8
Black
10
147.728
20
-83.702
11
147.789
21
-83.6711
0
LINE
8
Black
10
147.789
20
-83.6711
11
147.847
21
-83.6134
0
LINE
8
Black
10
147.847
20
-83.6134
11
147.918
21
-83.5074
0
LINE
8
Black
10
147.918
20
-83.5074
11
147.922
21
-83.5033
0
LINE
8
Black
10
147.922
20
-83.5033
11
147.924
21
-83.4985
0
LINE
8
Black
10
147.924
20
-83.4985
11
147.934
21
-83.4909
0
LINE
8
Black
10
147.934
20
-83.4909
11
147.942
21
-83.4822
0
LINE
8
Black
10
147.942
20
-83.4822
11
147.947
21
-83.4798
0
LINE
8
Black
10
147.947
20
-83.4798
11
147.951
21
-83.4762
0
LINE
8
Black
10
147.951
20
-83.4762
11
147.962
21
-83.4721
0
LINE
8
Black
10
147.962
20
-83.4721
11
147.973
21
-83.4669
0
LINE
8
Black
10
147.973
20
-83.4669
11
147.978
21
-83.4662
0
LINE
8
Black
10
147.978
20
-83.4662
11
147.984
21
-83.4643
0
LINE
8
Black
10
147.984
20
-83.4643
11
147.996
21
-83.4643
0
LINE
8
Black
10
147.996
20
-83.4643
11
148.007
21
-83.463
0
LINE
8
Black
10
148.007
20
-83.463
11
148.013
21
-83.4643
  0
ENDSEC
  0
EOF
