  0
SECTION
  2
HEADER
  9
$ANGBASE
  50
0.0
  9
$ANGDIR
  70
  1
  9
$MEASUREMENT
  70
0
  0
ENDSEC
  0
SECTION
  2
TABLES
  0
TABLE
  2
LTYPE
  70
1
  0
LTYPE
  2
CONTINUOUS
  70
0
  3
Solid line
  72
65
  73
0
  40
0.0
  0
ENDTAB
  0
TABLE
  2
STYLE
  70
4
  0
STYLE
  2
KICAD
  70
0
  40
0
  41
1
  42
1
  50
0
  71
0
  3
isocp.shx
  0
STYLE
  2
KICADB
  70
0
  40
0
  41
1
  42
1
  50
0
  71
0
  3
isocp.shx
  0
STYLE
  2
KICADI
  70
0
  40
0
  41
1
  42
1
  50
15
  71
0
  3
isocp.shx
  0
STYLE
  2
KICADBI
  70
0
  40
0
  41
1
  42
1
  50
15
  71
0
  3
isocp.shx
  0
ENDTAB
  0
TABLE
  2
LAYER
  70
30
  0
LAYER
  2
BLACK
  70
0
  62
7
  6
CONTINUOUS
  0
LAYER
  2
GRAY1
  70
0
  62
251
  6
CONTINUOUS
  0
LAYER
  2
GRAY2
  70
0
  62
8
  6
CONTINUOUS
  0
LAYER
  2
GRAY3
  70
0
  62
9
  6
CONTINUOUS
  0
LAYER
  2
WHITE
  70
0
  62
7
  6
CONTINUOUS
  0
LAYER
  2
LYELLOW
  70
0
  62
51
  6
CONTINUOUS
  0
LAYER
  2
BLUE1
  70
0
  62
178
  6
CONTINUOUS
  0
LAYER
  2
GREEN1
  70
0
  62
98
  6
CONTINUOUS
  0
LAYER
  2
CYAN1
  70
0
  62
138
  6
CONTINUOUS
  0
LAYER
  2
RED1
  70
0
  62
18
  6
CONTINUOUS
  0
LAYER
  2
MAGENTA1
  70
0
  62
228
  6
CONTINUOUS
  0
LAYER
  2
BROWN1
  70
0
  62
58
  6
CONTINUOUS
  0
LAYER
  2
BLUE2
  70
0
  62
5
  6
CONTINUOUS
  0
LAYER
  2
GREEN2
  70
0
  62
3
  6
CONTINUOUS
  0
LAYER
  2
CYAN2
  70
0
  62
4
  6
CONTINUOUS
  0
LAYER
  2
RED2
  70
0
  62
1
  6
CONTINUOUS
  0
LAYER
  2
MAGENTA2
  70
0
  62
6
  6
CONTINUOUS
  0
LAYER
  2
BROWN2
  70
0
  62
54
  6
CONTINUOUS
  0
LAYER
  2
BLUE3
  70
0
  62
171
  6
CONTINUOUS
  0
LAYER
  2
GREEN3
  70
0
  62
91
  6
CONTINUOUS
  0
LAYER
  2
CYAN3
  70
0
  62
131
  6
CONTINUOUS
  0
LAYER
  2
RED3
  70
0
  62
11
  6
CONTINUOUS
  0
LAYER
  2
MAGENTA3
  70
0
  62
221
  6
CONTINUOUS
  0
LAYER
  2
YELLOW3
  70
0
  62
2
  6
CONTINUOUS
  0
LAYER
  2
BLUE4
  70
0
  62
5
  6
CONTINUOUS
  0
LAYER
  2
GREEN4
  70
0
  62
3
  6
CONTINUOUS
  0
LAYER
  2
CYAN4
  70
0
  62
4
  6
CONTINUOUS
  0
LAYER
  2
RED4
  70
0
  62
1
  6
CONTINUOUS
  0
LAYER
  2
MAGENTA4
  70
0
  62
6
  6
CONTINUOUS
  0
LAYER
  2
YELLOW4
  70
0
  62
2
  6
CONTINUOUS
  0
ENDTAB
  0
ENDSEC
  0
SECTION
  2
ENTITIES
0
LINE
8
Black
10
132.451
20
-110.338
11
131.551
21
-110.338
0
LINE
8
Black
10
131.551
20
-110.338
11
131.551
21
-108.863
0
LINE
8
Black
10
131.551
20
-108.863
11
132.451
21
-108.863
0
LINE
8
Black
10
132.451
20
-108.863
11
132.451
21
-110.338
0
LINE
8
Black
10
136.451
20
-110.338
11
135.551
21
-110.338
0
LINE
8
Black
10
135.551
20
-110.338
11
135.551
21
-108.863
0
LINE
8
Black
10
135.551
20
-108.863
11
136.451
21
-108.863
0
LINE
8
Black
10
136.451
20
-108.863
11
136.451
21
-110.338
0
LINE
8
Black
10
140.451
20
-110.338
11
139.551
21
-110.338
0
LINE
8
Black
10
139.551
20
-110.338
11
139.551
21
-108.863
0
LINE
8
Black
10
139.551
20
-108.863
11
140.451
21
-108.863
0
LINE
8
Black
10
140.451
20
-108.863
11
140.451
21
-110.338
0
LINE
8
Black
10
144.451
20
-110.338
11
143.551
21
-110.338
0
LINE
8
Black
10
143.551
20
-110.338
11
143.551
21
-108.863
0
LINE
8
Black
10
143.551
20
-108.863
11
144.451
21
-108.863
0
LINE
8
Black
10
144.451
20
-108.863
11
144.451
21
-110.338
0
LINE
8
Black
10
148.451
20
-110.338
11
147.551
21
-110.338
0
LINE
8
Black
10
147.551
20
-110.338
11
147.551
21
-108.863
0
LINE
8
Black
10
147.551
20
-108.863
11
148.451
21
-108.863
0
LINE
8
Black
10
148.451
20
-108.863
11
148.451
21
-110.338
0
LINE
8
Black
10
130.451
20
-107.138
11
129.551
21
-107.138
0
LINE
8
Black
10
129.551
20
-107.138
11
129.551
21
-105.663
0
LINE
8
Black
10
129.551
20
-105.663
11
130.451
21
-105.663
0
LINE
8
Black
10
130.451
20
-105.663
11
130.451
21
-107.138
0
LINE
8
Black
10
134.451
20
-107.138
11
133.551
21
-107.138
0
LINE
8
Black
10
133.551
20
-107.138
11
133.551
21
-105.663
0
LINE
8
Black
10
133.551
20
-105.663
11
134.451
21
-105.663
0
LINE
8
Black
10
134.451
20
-105.663
11
134.451
21
-107.138
0
LINE
8
Black
10
138.451
20
-107.138
11
137.551
21
-107.138
0
LINE
8
Black
10
137.551
20
-107.138
11
137.551
21
-105.663
0
LINE
8
Black
10
137.551
20
-105.663
11
138.451
21
-105.663
0
LINE
8
Black
10
138.451
20
-105.663
11
138.451
21
-107.138
0
LINE
8
Black
10
142.451
20
-107.138
11
141.551
21
-107.138
0
LINE
8
Black
10
141.551
20
-107.138
11
141.551
21
-105.663
0
LINE
8
Black
10
141.551
20
-105.663
11
142.451
21
-105.663
0
LINE
8
Black
10
142.451
20
-105.663
11
142.451
21
-107.138
0
LINE
8
Black
10
146.451
20
-107.138
11
145.551
21
-107.138
0
LINE
8
Black
10
145.551
20
-107.138
11
145.551
21
-105.663
0
LINE
8
Black
10
145.551
20
-105.663
11
146.451
21
-105.663
0
LINE
8
Black
10
146.451
20
-105.663
11
146.451
21
-107.138
0
LINE
8
Black
10
132.451
20
-88.3384
11
131.551
21
-88.3384
0
LINE
8
Black
10
131.551
20
-88.3384
11
131.551
21
-86.8634
0
LINE
8
Black
10
131.551
20
-86.8634
11
132.451
21
-86.8634
0
LINE
8
Black
10
132.451
20
-86.8634
11
132.451
21
-88.3384
0
LINE
8
Black
10
136.451
20
-88.3384
11
135.551
21
-88.3384
0
LINE
8
Black
10
135.551
20
-88.3384
11
135.551
21
-86.8634
0
LINE
8
Black
10
135.551
20
-86.8634
11
136.451
21
-86.8634
0
LINE
8
Black
10
136.451
20
-86.8634
11
136.451
21
-88.3384
0
LINE
8
Black
10
140.451
20
-88.3384
11
139.551
21
-88.3384
0
LINE
8
Black
10
139.551
20
-88.3384
11
139.551
21
-86.8634
0
LINE
8
Black
10
139.551
20
-86.8634
11
140.451
21
-86.8634
0
LINE
8
Black
10
140.451
20
-86.8634
11
140.451
21
-88.3384
0
LINE
8
Black
10
144.451
20
-88.3384
11
143.551
21
-88.3384
0
LINE
8
Black
10
143.551
20
-88.3384
11
143.551
21
-86.8634
0
LINE
8
Black
10
143.551
20
-86.8634
11
144.451
21
-86.8634
0
LINE
8
Black
10
144.451
20
-86.8634
11
144.451
21
-88.3384
0
LINE
8
Black
10
148.451
20
-88.3384
11
147.551
21
-88.3384
0
LINE
8
Black
10
147.551
20
-88.3384
11
147.551
21
-86.8634
0
LINE
8
Black
10
147.551
20
-86.8634
11
148.451
21
-86.8634
0
LINE
8
Black
10
148.451
20
-86.8634
11
148.451
21
-88.3384
0
LINE
8
Black
10
130.451
20
-85.1384
11
129.551
21
-85.1384
0
LINE
8
Black
10
129.551
20
-85.1384
11
129.551
21
-83.6634
0
LINE
8
Black
10
129.551
20
-83.6634
11
130.451
21
-83.6634
0
LINE
8
Black
10
130.451
20
-83.6634
11
130.451
21
-85.1384
0
LINE
8
Black
10
134.451
20
-85.1384
11
133.551
21
-85.1384
0
LINE
8
Black
10
133.551
20
-85.1384
11
133.551
21
-83.6634
0
LINE
8
Black
10
133.551
20
-83.6634
11
134.451
21
-83.6634
0
LINE
8
Black
10
134.451
20
-83.6634
11
134.451
21
-85.1384
0
LINE
8
Black
10
138.451
20
-85.1384
11
137.551
21
-85.1384
0
LINE
8
Black
10
137.551
20
-85.1384
11
137.551
21
-83.6634
0
LINE
8
Black
10
137.551
20
-83.6634
11
138.451
21
-83.6634
0
LINE
8
Black
10
138.451
20
-83.6634
11
138.451
21
-85.1384
0
LINE
8
Black
10
142.451
20
-85.1384
11
141.551
21
-85.1384
0
LINE
8
Black
10
141.551
20
-85.1384
11
141.551
21
-83.6634
0
LINE
8
Black
10
141.551
20
-83.6634
11
142.451
21
-83.6634
0
LINE
8
Black
10
142.451
20
-83.6634
11
142.451
21
-85.1384
0
LINE
8
Black
10
146.451
20
-85.1384
11
145.551
21
-85.1384
0
LINE
8
Black
10
145.551
20
-85.1384
11
145.551
21
-83.6634
0
LINE
8
Black
10
145.551
20
-83.6634
11
146.451
21
-83.6634
0
LINE
8
Black
10
146.451
20
-83.6634
11
146.451
21
-85.1384
  0
ENDSEC
  0
EOF
