G04 #@! TF.FileFunction,Copper,L1,Top,Signal*
%FSLAX46Y46*%
G04 Gerber Fmt 4.6, Leading zero omitted, Abs format (unit mm)*
G04 Created by KiCad (PCBNEW 4.0.7-e2-6376~58~ubuntu16.04.1) date Wed Aug  1 08:34:46 2018*
%MOMM*%
%LPD*%
G01*
G04 APERTURE LIST*
%ADD10C,0.100000*%
%ADD11R,0.500000X0.600000*%
%ADD12R,0.500000X0.500000*%
%ADD13R,0.250000X0.250000*%
%ADD14C,0.600000*%
%ADD15C,0.250000*%
G04 APERTURE END LIST*
D10*
D11*
X119075000Y-64450000D03*
X119075000Y-65550000D03*
X109075000Y-64450000D03*
X109075000Y-65550000D03*
X99075000Y-64450000D03*
X99075000Y-65550000D03*
X89075000Y-64450000D03*
X89075000Y-65550000D03*
X79075000Y-64450000D03*
X79075000Y-65550000D03*
X119075000Y-56450000D03*
X119075000Y-57550000D03*
X109075000Y-56450000D03*
X109075000Y-57550000D03*
X99075000Y-56450000D03*
X99075000Y-57550000D03*
X89075000Y-56450000D03*
X89075000Y-57550000D03*
X79075000Y-56450000D03*
X79075000Y-57550000D03*
X119075000Y-48450000D03*
X119075000Y-49550000D03*
X109075000Y-48450000D03*
X109075000Y-49550000D03*
X99075000Y-48450000D03*
X99075000Y-49550000D03*
X89075000Y-48450000D03*
X89075000Y-49550000D03*
D12*
X117050000Y-67050000D03*
X116250000Y-67050000D03*
X115450000Y-67050000D03*
X114650000Y-67050000D03*
X113850000Y-67050000D03*
X113850000Y-66250000D03*
X113850000Y-65450000D03*
X114650000Y-65450000D03*
X115450000Y-65450000D03*
X116250000Y-65450000D03*
X117050000Y-65450000D03*
X117050000Y-66250000D03*
D13*
X117350000Y-66925000D03*
D12*
X107050000Y-67050000D03*
X106250000Y-67050000D03*
X105450000Y-67050000D03*
X104650000Y-67050000D03*
X103850000Y-67050000D03*
X103850000Y-66250000D03*
X103850000Y-65450000D03*
X104650000Y-65450000D03*
X105450000Y-65450000D03*
X106250000Y-65450000D03*
X107050000Y-65450000D03*
X107050000Y-66250000D03*
D13*
X107350000Y-66925000D03*
D12*
X97050000Y-67050000D03*
X96250000Y-67050000D03*
X95450000Y-67050000D03*
X94650000Y-67050000D03*
X93850000Y-67050000D03*
X93850000Y-66250000D03*
X93850000Y-65450000D03*
X94650000Y-65450000D03*
X95450000Y-65450000D03*
X96250000Y-65450000D03*
X97050000Y-65450000D03*
X97050000Y-66250000D03*
D13*
X97350000Y-66925000D03*
D12*
X87050000Y-67050000D03*
X86250000Y-67050000D03*
X85450000Y-67050000D03*
X84650000Y-67050000D03*
X83850000Y-67050000D03*
X83850000Y-66250000D03*
X83850000Y-65450000D03*
X84650000Y-65450000D03*
X85450000Y-65450000D03*
X86250000Y-65450000D03*
X87050000Y-65450000D03*
X87050000Y-66250000D03*
D13*
X87350000Y-66925000D03*
D12*
X77050000Y-67050000D03*
X76250000Y-67050000D03*
X75450000Y-67050000D03*
X74650000Y-67050000D03*
X73850000Y-67050000D03*
X73850000Y-66250000D03*
X73850000Y-65450000D03*
X74650000Y-65450000D03*
X75450000Y-65450000D03*
X76250000Y-65450000D03*
X77050000Y-65450000D03*
X77050000Y-66250000D03*
D13*
X77350000Y-66925000D03*
D12*
X117050000Y-59050000D03*
X116250000Y-59050000D03*
X115450000Y-59050000D03*
X114650000Y-59050000D03*
X113850000Y-59050000D03*
X113850000Y-58250000D03*
X113850000Y-57450000D03*
X114650000Y-57450000D03*
X115450000Y-57450000D03*
X116250000Y-57450000D03*
X117050000Y-57450000D03*
X117050000Y-58250000D03*
D13*
X117350000Y-58925000D03*
D12*
X107050000Y-59050000D03*
X106250000Y-59050000D03*
X105450000Y-59050000D03*
X104650000Y-59050000D03*
X103850000Y-59050000D03*
X103850000Y-58250000D03*
X103850000Y-57450000D03*
X104650000Y-57450000D03*
X105450000Y-57450000D03*
X106250000Y-57450000D03*
X107050000Y-57450000D03*
X107050000Y-58250000D03*
D13*
X107350000Y-58925000D03*
D12*
X97050000Y-59050000D03*
X96250000Y-59050000D03*
X95450000Y-59050000D03*
X94650000Y-59050000D03*
X93850000Y-59050000D03*
X93850000Y-58250000D03*
X93850000Y-57450000D03*
X94650000Y-57450000D03*
X95450000Y-57450000D03*
X96250000Y-57450000D03*
X97050000Y-57450000D03*
X97050000Y-58250000D03*
D13*
X97350000Y-58925000D03*
D12*
X87050000Y-59050000D03*
X86250000Y-59050000D03*
X85450000Y-59050000D03*
X84650000Y-59050000D03*
X83850000Y-59050000D03*
X83850000Y-58250000D03*
X83850000Y-57450000D03*
X84650000Y-57450000D03*
X85450000Y-57450000D03*
X86250000Y-57450000D03*
X87050000Y-57450000D03*
X87050000Y-58250000D03*
D13*
X87350000Y-58925000D03*
D12*
X77050000Y-59050000D03*
X76250000Y-59050000D03*
X75450000Y-59050000D03*
X74650000Y-59050000D03*
X73850000Y-59050000D03*
X73850000Y-58250000D03*
X73850000Y-57450000D03*
X74650000Y-57450000D03*
X75450000Y-57450000D03*
X76250000Y-57450000D03*
X77050000Y-57450000D03*
X77050000Y-58250000D03*
D13*
X77350000Y-58925000D03*
D12*
X117050000Y-51050000D03*
X116250000Y-51050000D03*
X115450000Y-51050000D03*
X114650000Y-51050000D03*
X113850000Y-51050000D03*
X113850000Y-50250000D03*
X113850000Y-49450000D03*
X114650000Y-49450000D03*
X115450000Y-49450000D03*
X116250000Y-49450000D03*
X117050000Y-49450000D03*
X117050000Y-50250000D03*
D13*
X117350000Y-50925000D03*
D12*
X107050000Y-51050000D03*
X106250000Y-51050000D03*
X105450000Y-51050000D03*
X104650000Y-51050000D03*
X103850000Y-51050000D03*
X103850000Y-50250000D03*
X103850000Y-49450000D03*
X104650000Y-49450000D03*
X105450000Y-49450000D03*
X106250000Y-49450000D03*
X107050000Y-49450000D03*
X107050000Y-50250000D03*
D13*
X107350000Y-50925000D03*
D12*
X97050000Y-51050000D03*
X96250000Y-51050000D03*
X95450000Y-51050000D03*
X94650000Y-51050000D03*
X93850000Y-51050000D03*
X93850000Y-50250000D03*
X93850000Y-49450000D03*
X94650000Y-49450000D03*
X95450000Y-49450000D03*
X96250000Y-49450000D03*
X97050000Y-49450000D03*
X97050000Y-50250000D03*
D13*
X97350000Y-50925000D03*
D12*
X87050000Y-51050000D03*
X86250000Y-51050000D03*
X85450000Y-51050000D03*
X84650000Y-51050000D03*
X83850000Y-51050000D03*
X83850000Y-50250000D03*
X83850000Y-49450000D03*
X84650000Y-49450000D03*
X85450000Y-49450000D03*
X86250000Y-49450000D03*
X87050000Y-49450000D03*
X87050000Y-50250000D03*
D13*
X87350000Y-50925000D03*
D11*
X119075000Y-68050000D03*
X119075000Y-66950000D03*
X109075000Y-68050000D03*
X109075000Y-66950000D03*
X99075000Y-68050000D03*
X99075000Y-66950000D03*
X89075000Y-68050000D03*
X89075000Y-66950000D03*
X79075000Y-68050000D03*
X79075000Y-66950000D03*
X119075000Y-60050000D03*
X119075000Y-58950000D03*
X109075000Y-60050000D03*
X109075000Y-58950000D03*
X99075000Y-60050000D03*
X99075000Y-58950000D03*
X89075000Y-60050000D03*
X89075000Y-58950000D03*
X79075000Y-60050000D03*
X79075000Y-58950000D03*
X119075000Y-52050000D03*
X119075000Y-50950000D03*
X109075000Y-52050000D03*
X109075000Y-50950000D03*
X99075000Y-52050000D03*
X99075000Y-50950000D03*
X89075000Y-52050000D03*
X89075000Y-50950000D03*
D12*
X77050000Y-51050000D03*
X76250000Y-51050000D03*
X75450000Y-51050000D03*
X74650000Y-51050000D03*
X73850000Y-51050000D03*
X73850000Y-50250000D03*
X73850000Y-49450000D03*
X74650000Y-49450000D03*
X75450000Y-49450000D03*
X76250000Y-49450000D03*
X77050000Y-49450000D03*
X77050000Y-50250000D03*
D13*
X77350000Y-50925000D03*
D11*
X79075000Y-52050000D03*
X79075000Y-50950000D03*
X79075000Y-48450000D03*
X79075000Y-49550000D03*
D14*
X119900000Y-64450000D03*
X109900000Y-64450000D03*
X99900000Y-64450000D03*
X89900000Y-64450000D03*
X79900000Y-64450000D03*
X119900000Y-56450000D03*
X109900000Y-56450000D03*
X99900000Y-56450000D03*
X89900000Y-56450000D03*
X79900000Y-56450000D03*
X119900000Y-48450000D03*
X109900000Y-48450000D03*
X99900000Y-48450000D03*
X89900000Y-48450000D03*
X117675000Y-68450000D03*
X107675000Y-68450000D03*
X97675000Y-68450000D03*
X87675000Y-68450000D03*
X77675000Y-68450000D03*
X117675000Y-60450000D03*
X107675000Y-60450000D03*
X97675000Y-60450000D03*
X87675000Y-60450000D03*
X77675000Y-60450000D03*
X117675000Y-52450000D03*
X107675000Y-52450000D03*
X97675000Y-52450000D03*
X87675000Y-52450000D03*
X79900000Y-48450000D03*
X77675000Y-52450000D03*
X114735000Y-67850000D03*
X104735000Y-67850000D03*
X94735000Y-67850000D03*
X84735000Y-67850000D03*
X74735000Y-67850000D03*
X114735000Y-59850000D03*
X104735000Y-59850000D03*
X94735000Y-59850000D03*
X84735000Y-59850000D03*
X74735000Y-59850000D03*
X114735000Y-51850000D03*
X104735000Y-51850000D03*
X94735000Y-51850000D03*
X84735000Y-51850000D03*
X74735000Y-51850000D03*
X116975000Y-64300000D03*
X106975000Y-64300000D03*
X96975000Y-64300000D03*
X86975000Y-64300000D03*
X76975000Y-64300000D03*
X116975000Y-56300000D03*
X106975000Y-56300000D03*
X96975000Y-56300000D03*
X86975000Y-56300000D03*
X76975000Y-56300000D03*
X116975000Y-48300000D03*
X106975000Y-48300000D03*
X96975000Y-48300000D03*
X86975000Y-48300000D03*
X76975000Y-48300000D03*
X112675000Y-65200000D03*
X102675000Y-65200000D03*
X92675000Y-65200000D03*
X82675000Y-65200000D03*
X72675000Y-65200000D03*
X112675000Y-57200000D03*
X102675000Y-57200000D03*
X92675000Y-57200000D03*
X82675000Y-57200000D03*
X72675000Y-57200000D03*
X112675000Y-49200000D03*
X102675000Y-49200000D03*
X92675000Y-49200000D03*
X82675000Y-49200000D03*
X72675000Y-49200000D03*
X113875000Y-64370000D03*
X103875000Y-64370000D03*
X93875000Y-64370000D03*
X83875000Y-64370000D03*
X73875000Y-64370000D03*
X113875000Y-56370000D03*
X103875000Y-56370000D03*
X93875000Y-56370000D03*
X83875000Y-56370000D03*
X73875000Y-56370000D03*
X113875000Y-48370000D03*
X103875000Y-48370000D03*
X93875000Y-48370000D03*
X83875000Y-48370000D03*
X73875000Y-48370000D03*
D15*
X118550000Y-68050000D02*
X119075000Y-68050000D01*
X108550000Y-68050000D02*
X109075000Y-68050000D01*
X98550000Y-68050000D02*
X99075000Y-68050000D01*
X88550000Y-68050000D02*
X89075000Y-68050000D01*
X78550000Y-68050000D02*
X79075000Y-68050000D01*
X118550000Y-60050000D02*
X119075000Y-60050000D01*
X108550000Y-60050000D02*
X109075000Y-60050000D01*
X98550000Y-60050000D02*
X99075000Y-60050000D01*
X88550000Y-60050000D02*
X89075000Y-60050000D01*
X78550000Y-60050000D02*
X79075000Y-60050000D01*
X118550000Y-52050000D02*
X119075000Y-52050000D01*
X108550000Y-52050000D02*
X109075000Y-52050000D01*
X98550000Y-52050000D02*
X99075000Y-52050000D01*
X88550000Y-52050000D02*
X89075000Y-52050000D01*
X117550000Y-67050000D02*
X118550000Y-68050000D01*
X107550000Y-67050000D02*
X108550000Y-68050000D01*
X97550000Y-67050000D02*
X98550000Y-68050000D01*
X87550000Y-67050000D02*
X88550000Y-68050000D01*
X77550000Y-67050000D02*
X78550000Y-68050000D01*
X117550000Y-59050000D02*
X118550000Y-60050000D01*
X107550000Y-59050000D02*
X108550000Y-60050000D01*
X97550000Y-59050000D02*
X98550000Y-60050000D01*
X87550000Y-59050000D02*
X88550000Y-60050000D01*
X77550000Y-59050000D02*
X78550000Y-60050000D01*
X117550000Y-51050000D02*
X118550000Y-52050000D01*
X107550000Y-51050000D02*
X108550000Y-52050000D01*
X97550000Y-51050000D02*
X98550000Y-52050000D01*
X87550000Y-51050000D02*
X88550000Y-52050000D01*
X119075000Y-68050000D02*
X118075000Y-68050000D01*
X109075000Y-68050000D02*
X108075000Y-68050000D01*
X99075000Y-68050000D02*
X98075000Y-68050000D01*
X89075000Y-68050000D02*
X88075000Y-68050000D01*
X79075000Y-68050000D02*
X78075000Y-68050000D01*
X119075000Y-60050000D02*
X118075000Y-60050000D01*
X109075000Y-60050000D02*
X108075000Y-60050000D01*
X99075000Y-60050000D02*
X98075000Y-60050000D01*
X89075000Y-60050000D02*
X88075000Y-60050000D01*
X79075000Y-60050000D02*
X78075000Y-60050000D01*
X119075000Y-52050000D02*
X118075000Y-52050000D01*
X109075000Y-52050000D02*
X108075000Y-52050000D01*
X99075000Y-52050000D02*
X98075000Y-52050000D01*
X89075000Y-52050000D02*
X88075000Y-52050000D01*
X118075000Y-68050000D02*
X117675000Y-68450000D01*
X108075000Y-68050000D02*
X107675000Y-68450000D01*
X98075000Y-68050000D02*
X97675000Y-68450000D01*
X88075000Y-68050000D02*
X87675000Y-68450000D01*
X78075000Y-68050000D02*
X77675000Y-68450000D01*
X118075000Y-60050000D02*
X117675000Y-60450000D01*
X108075000Y-60050000D02*
X107675000Y-60450000D01*
X98075000Y-60050000D02*
X97675000Y-60450000D01*
X88075000Y-60050000D02*
X87675000Y-60450000D01*
X78075000Y-60050000D02*
X77675000Y-60450000D01*
X118075000Y-52050000D02*
X117675000Y-52450000D01*
X108075000Y-52050000D02*
X107675000Y-52450000D01*
X98075000Y-52050000D02*
X97675000Y-52450000D01*
X88075000Y-52050000D02*
X87675000Y-52450000D01*
X117225000Y-67050000D02*
X117350000Y-66925000D01*
X107225000Y-67050000D02*
X107350000Y-66925000D01*
X97225000Y-67050000D02*
X97350000Y-66925000D01*
X87225000Y-67050000D02*
X87350000Y-66925000D01*
X77225000Y-67050000D02*
X77350000Y-66925000D01*
X117225000Y-59050000D02*
X117350000Y-58925000D01*
X107225000Y-59050000D02*
X107350000Y-58925000D01*
X97225000Y-59050000D02*
X97350000Y-58925000D01*
X87225000Y-59050000D02*
X87350000Y-58925000D01*
X77225000Y-59050000D02*
X77350000Y-58925000D01*
X117225000Y-51050000D02*
X117350000Y-50925000D01*
X107225000Y-51050000D02*
X107350000Y-50925000D01*
X97225000Y-51050000D02*
X97350000Y-50925000D01*
X87225000Y-51050000D02*
X87350000Y-50925000D01*
X117050000Y-67050000D02*
X117225000Y-67050000D01*
X107050000Y-67050000D02*
X107225000Y-67050000D01*
X97050000Y-67050000D02*
X97225000Y-67050000D01*
X87050000Y-67050000D02*
X87225000Y-67050000D01*
X77050000Y-67050000D02*
X77225000Y-67050000D01*
X117050000Y-59050000D02*
X117225000Y-59050000D01*
X107050000Y-59050000D02*
X107225000Y-59050000D01*
X97050000Y-59050000D02*
X97225000Y-59050000D01*
X87050000Y-59050000D02*
X87225000Y-59050000D01*
X77050000Y-59050000D02*
X77225000Y-59050000D01*
X117050000Y-51050000D02*
X117225000Y-51050000D01*
X107050000Y-51050000D02*
X107225000Y-51050000D01*
X97050000Y-51050000D02*
X97225000Y-51050000D01*
X87050000Y-51050000D02*
X87225000Y-51050000D01*
X117050000Y-67050000D02*
X117550000Y-67050000D01*
X107050000Y-67050000D02*
X107550000Y-67050000D01*
X97050000Y-67050000D02*
X97550000Y-67050000D01*
X87050000Y-67050000D02*
X87550000Y-67050000D01*
X77050000Y-67050000D02*
X77550000Y-67050000D01*
X117050000Y-59050000D02*
X117550000Y-59050000D01*
X107050000Y-59050000D02*
X107550000Y-59050000D01*
X97050000Y-59050000D02*
X97550000Y-59050000D01*
X87050000Y-59050000D02*
X87550000Y-59050000D01*
X77050000Y-59050000D02*
X77550000Y-59050000D01*
X117050000Y-51050000D02*
X117550000Y-51050000D01*
X107050000Y-51050000D02*
X107550000Y-51050000D01*
X97050000Y-51050000D02*
X97550000Y-51050000D01*
X87050000Y-51050000D02*
X87550000Y-51050000D01*
X119900000Y-64450000D02*
X119075000Y-64450000D01*
X109900000Y-64450000D02*
X109075000Y-64450000D01*
X99900000Y-64450000D02*
X99075000Y-64450000D01*
X89900000Y-64450000D02*
X89075000Y-64450000D01*
X79900000Y-64450000D02*
X79075000Y-64450000D01*
X119900000Y-56450000D02*
X119075000Y-56450000D01*
X109900000Y-56450000D02*
X109075000Y-56450000D01*
X99900000Y-56450000D02*
X99075000Y-56450000D01*
X89900000Y-56450000D02*
X89075000Y-56450000D01*
X79900000Y-56450000D02*
X79075000Y-56450000D01*
X119900000Y-48450000D02*
X119075000Y-48450000D01*
X109900000Y-48450000D02*
X109075000Y-48450000D01*
X99900000Y-48450000D02*
X99075000Y-48450000D01*
X89900000Y-48450000D02*
X89075000Y-48450000D01*
X117050000Y-65450000D02*
X117575000Y-65450000D01*
X107050000Y-65450000D02*
X107575000Y-65450000D01*
X97050000Y-65450000D02*
X97575000Y-65450000D01*
X87050000Y-65450000D02*
X87575000Y-65450000D01*
X77050000Y-65450000D02*
X77575000Y-65450000D01*
X117050000Y-57450000D02*
X117575000Y-57450000D01*
X107050000Y-57450000D02*
X107575000Y-57450000D01*
X97050000Y-57450000D02*
X97575000Y-57450000D01*
X87050000Y-57450000D02*
X87575000Y-57450000D01*
X77050000Y-57450000D02*
X77575000Y-57450000D01*
X117050000Y-49450000D02*
X117575000Y-49450000D01*
X107050000Y-49450000D02*
X107575000Y-49450000D01*
X97050000Y-49450000D02*
X97575000Y-49450000D01*
X87050000Y-49450000D02*
X87575000Y-49450000D01*
X118575000Y-64450000D02*
X119075000Y-64450000D01*
X108575000Y-64450000D02*
X109075000Y-64450000D01*
X98575000Y-64450000D02*
X99075000Y-64450000D01*
X88575000Y-64450000D02*
X89075000Y-64450000D01*
X78575000Y-64450000D02*
X79075000Y-64450000D01*
X118575000Y-56450000D02*
X119075000Y-56450000D01*
X108575000Y-56450000D02*
X109075000Y-56450000D01*
X98575000Y-56450000D02*
X99075000Y-56450000D01*
X88575000Y-56450000D02*
X89075000Y-56450000D01*
X78575000Y-56450000D02*
X79075000Y-56450000D01*
X118575000Y-48450000D02*
X119075000Y-48450000D01*
X108575000Y-48450000D02*
X109075000Y-48450000D01*
X98575000Y-48450000D02*
X99075000Y-48450000D01*
X88575000Y-48450000D02*
X89075000Y-48450000D01*
X117575000Y-65450000D02*
X118575000Y-64450000D01*
X107575000Y-65450000D02*
X108575000Y-64450000D01*
X97575000Y-65450000D02*
X98575000Y-64450000D01*
X87575000Y-65450000D02*
X88575000Y-64450000D01*
X77575000Y-65450000D02*
X78575000Y-64450000D01*
X117575000Y-57450000D02*
X118575000Y-56450000D01*
X107575000Y-57450000D02*
X108575000Y-56450000D01*
X97575000Y-57450000D02*
X98575000Y-56450000D01*
X87575000Y-57450000D02*
X88575000Y-56450000D01*
X77575000Y-57450000D02*
X78575000Y-56450000D01*
X117575000Y-49450000D02*
X118575000Y-48450000D01*
X107575000Y-49450000D02*
X108575000Y-48450000D01*
X97575000Y-49450000D02*
X98575000Y-48450000D01*
X87575000Y-49450000D02*
X88575000Y-48450000D01*
X79900000Y-48450000D02*
X79075000Y-48450000D01*
X79075000Y-52050000D02*
X78075000Y-52050000D01*
X78075000Y-52050000D02*
X77675000Y-52450000D01*
X77050000Y-51050000D02*
X77550000Y-51050000D01*
X78550000Y-52050000D02*
X79075000Y-52050000D01*
X77550000Y-51050000D02*
X78550000Y-52050000D01*
X77050000Y-49450000D02*
X77575000Y-49450000D01*
X77575000Y-49450000D02*
X78575000Y-48450000D01*
X78575000Y-48450000D02*
X79075000Y-48450000D01*
X77050000Y-51050000D02*
X77225000Y-51050000D01*
X77225000Y-51050000D02*
X77350000Y-50925000D01*
X114735000Y-67050000D02*
X114735000Y-67850000D01*
X104735000Y-67050000D02*
X104735000Y-67850000D01*
X94735000Y-67050000D02*
X94735000Y-67850000D01*
X84735000Y-67050000D02*
X84735000Y-67850000D01*
X74735000Y-67050000D02*
X74735000Y-67850000D01*
X114735000Y-59050000D02*
X114735000Y-59850000D01*
X104735000Y-59050000D02*
X104735000Y-59850000D01*
X94735000Y-59050000D02*
X94735000Y-59850000D01*
X84735000Y-59050000D02*
X84735000Y-59850000D01*
X74735000Y-59050000D02*
X74735000Y-59850000D01*
X114735000Y-51050000D02*
X114735000Y-51850000D01*
X104735000Y-51050000D02*
X104735000Y-51850000D01*
X94735000Y-51050000D02*
X94735000Y-51850000D01*
X84735000Y-51050000D02*
X84735000Y-51850000D01*
X113850000Y-66250000D02*
X114475000Y-66250000D01*
X103850000Y-66250000D02*
X104475000Y-66250000D01*
X93850000Y-66250000D02*
X94475000Y-66250000D01*
X83850000Y-66250000D02*
X84475000Y-66250000D01*
X73850000Y-66250000D02*
X74475000Y-66250000D01*
X113850000Y-58250000D02*
X114475000Y-58250000D01*
X103850000Y-58250000D02*
X104475000Y-58250000D01*
X93850000Y-58250000D02*
X94475000Y-58250000D01*
X83850000Y-58250000D02*
X84475000Y-58250000D01*
X73850000Y-58250000D02*
X74475000Y-58250000D01*
X113850000Y-50250000D02*
X114475000Y-50250000D01*
X103850000Y-50250000D02*
X104475000Y-50250000D01*
X93850000Y-50250000D02*
X94475000Y-50250000D01*
X83850000Y-50250000D02*
X84475000Y-50250000D01*
X119075000Y-66250000D02*
X119075000Y-66950000D01*
X109075000Y-66250000D02*
X109075000Y-66950000D01*
X99075000Y-66250000D02*
X99075000Y-66950000D01*
X89075000Y-66250000D02*
X89075000Y-66950000D01*
X79075000Y-66250000D02*
X79075000Y-66950000D01*
X119075000Y-58250000D02*
X119075000Y-58950000D01*
X109075000Y-58250000D02*
X109075000Y-58950000D01*
X99075000Y-58250000D02*
X99075000Y-58950000D01*
X89075000Y-58250000D02*
X89075000Y-58950000D01*
X79075000Y-58250000D02*
X79075000Y-58950000D01*
X119075000Y-50250000D02*
X119075000Y-50950000D01*
X109075000Y-50250000D02*
X109075000Y-50950000D01*
X99075000Y-50250000D02*
X99075000Y-50950000D01*
X89075000Y-50250000D02*
X89075000Y-50950000D01*
X116250000Y-66425000D02*
X116075000Y-66250000D01*
X106250000Y-66425000D02*
X106075000Y-66250000D01*
X96250000Y-66425000D02*
X96075000Y-66250000D01*
X86250000Y-66425000D02*
X86075000Y-66250000D01*
X76250000Y-66425000D02*
X76075000Y-66250000D01*
X116250000Y-58425000D02*
X116075000Y-58250000D01*
X106250000Y-58425000D02*
X106075000Y-58250000D01*
X96250000Y-58425000D02*
X96075000Y-58250000D01*
X86250000Y-58425000D02*
X86075000Y-58250000D01*
X76250000Y-58425000D02*
X76075000Y-58250000D01*
X116250000Y-50425000D02*
X116075000Y-50250000D01*
X106250000Y-50425000D02*
X106075000Y-50250000D01*
X96250000Y-50425000D02*
X96075000Y-50250000D01*
X86250000Y-50425000D02*
X86075000Y-50250000D01*
X116250000Y-67050000D02*
X116250000Y-66425000D01*
X106250000Y-67050000D02*
X106250000Y-66425000D01*
X96250000Y-67050000D02*
X96250000Y-66425000D01*
X86250000Y-67050000D02*
X86250000Y-66425000D01*
X76250000Y-67050000D02*
X76250000Y-66425000D01*
X116250000Y-59050000D02*
X116250000Y-58425000D01*
X106250000Y-59050000D02*
X106250000Y-58425000D01*
X96250000Y-59050000D02*
X96250000Y-58425000D01*
X86250000Y-59050000D02*
X86250000Y-58425000D01*
X76250000Y-59050000D02*
X76250000Y-58425000D01*
X116250000Y-51050000D02*
X116250000Y-50425000D01*
X106250000Y-51050000D02*
X106250000Y-50425000D01*
X96250000Y-51050000D02*
X96250000Y-50425000D01*
X86250000Y-51050000D02*
X86250000Y-50425000D01*
X116075000Y-66250000D02*
X117050000Y-66250000D01*
X106075000Y-66250000D02*
X107050000Y-66250000D01*
X96075000Y-66250000D02*
X97050000Y-66250000D01*
X86075000Y-66250000D02*
X87050000Y-66250000D01*
X76075000Y-66250000D02*
X77050000Y-66250000D01*
X116075000Y-58250000D02*
X117050000Y-58250000D01*
X106075000Y-58250000D02*
X107050000Y-58250000D01*
X96075000Y-58250000D02*
X97050000Y-58250000D01*
X86075000Y-58250000D02*
X87050000Y-58250000D01*
X76075000Y-58250000D02*
X77050000Y-58250000D01*
X116075000Y-50250000D02*
X117050000Y-50250000D01*
X106075000Y-50250000D02*
X107050000Y-50250000D01*
X96075000Y-50250000D02*
X97050000Y-50250000D01*
X86075000Y-50250000D02*
X87050000Y-50250000D01*
X115450000Y-66450000D02*
X115250000Y-66250000D01*
X105450000Y-66450000D02*
X105250000Y-66250000D01*
X95450000Y-66450000D02*
X95250000Y-66250000D01*
X85450000Y-66450000D02*
X85250000Y-66250000D01*
X75450000Y-66450000D02*
X75250000Y-66250000D01*
X115450000Y-58450000D02*
X115250000Y-58250000D01*
X105450000Y-58450000D02*
X105250000Y-58250000D01*
X95450000Y-58450000D02*
X95250000Y-58250000D01*
X85450000Y-58450000D02*
X85250000Y-58250000D01*
X75450000Y-58450000D02*
X75250000Y-58250000D01*
X115450000Y-50450000D02*
X115250000Y-50250000D01*
X105450000Y-50450000D02*
X105250000Y-50250000D01*
X95450000Y-50450000D02*
X95250000Y-50250000D01*
X85450000Y-50450000D02*
X85250000Y-50250000D01*
X114475000Y-66250000D02*
X115250000Y-66250000D01*
X104475000Y-66250000D02*
X105250000Y-66250000D01*
X94475000Y-66250000D02*
X95250000Y-66250000D01*
X84475000Y-66250000D02*
X85250000Y-66250000D01*
X74475000Y-66250000D02*
X75250000Y-66250000D01*
X114475000Y-58250000D02*
X115250000Y-58250000D01*
X104475000Y-58250000D02*
X105250000Y-58250000D01*
X94475000Y-58250000D02*
X95250000Y-58250000D01*
X84475000Y-58250000D02*
X85250000Y-58250000D01*
X74475000Y-58250000D02*
X75250000Y-58250000D01*
X114475000Y-50250000D02*
X115250000Y-50250000D01*
X104475000Y-50250000D02*
X105250000Y-50250000D01*
X94475000Y-50250000D02*
X95250000Y-50250000D01*
X84475000Y-50250000D02*
X85250000Y-50250000D01*
X115250000Y-66250000D02*
X116075000Y-66250000D01*
X105250000Y-66250000D02*
X106075000Y-66250000D01*
X95250000Y-66250000D02*
X96075000Y-66250000D01*
X85250000Y-66250000D02*
X86075000Y-66250000D01*
X75250000Y-66250000D02*
X76075000Y-66250000D01*
X115250000Y-58250000D02*
X116075000Y-58250000D01*
X105250000Y-58250000D02*
X106075000Y-58250000D01*
X95250000Y-58250000D02*
X96075000Y-58250000D01*
X85250000Y-58250000D02*
X86075000Y-58250000D01*
X75250000Y-58250000D02*
X76075000Y-58250000D01*
X115250000Y-50250000D02*
X116075000Y-50250000D01*
X105250000Y-50250000D02*
X106075000Y-50250000D01*
X95250000Y-50250000D02*
X96075000Y-50250000D01*
X85250000Y-50250000D02*
X86075000Y-50250000D01*
X114650000Y-66425000D02*
X114475000Y-66250000D01*
X104650000Y-66425000D02*
X104475000Y-66250000D01*
X94650000Y-66425000D02*
X94475000Y-66250000D01*
X84650000Y-66425000D02*
X84475000Y-66250000D01*
X74650000Y-66425000D02*
X74475000Y-66250000D01*
X114650000Y-58425000D02*
X114475000Y-58250000D01*
X104650000Y-58425000D02*
X104475000Y-58250000D01*
X94650000Y-58425000D02*
X94475000Y-58250000D01*
X84650000Y-58425000D02*
X84475000Y-58250000D01*
X74650000Y-58425000D02*
X74475000Y-58250000D01*
X114650000Y-50425000D02*
X114475000Y-50250000D01*
X104650000Y-50425000D02*
X104475000Y-50250000D01*
X94650000Y-50425000D02*
X94475000Y-50250000D01*
X84650000Y-50425000D02*
X84475000Y-50250000D01*
X114650000Y-67050000D02*
X114650000Y-66425000D01*
X104650000Y-67050000D02*
X104650000Y-66425000D01*
X94650000Y-67050000D02*
X94650000Y-66425000D01*
X84650000Y-67050000D02*
X84650000Y-66425000D01*
X74650000Y-67050000D02*
X74650000Y-66425000D01*
X114650000Y-59050000D02*
X114650000Y-58425000D01*
X104650000Y-59050000D02*
X104650000Y-58425000D01*
X94650000Y-59050000D02*
X94650000Y-58425000D01*
X84650000Y-59050000D02*
X84650000Y-58425000D01*
X74650000Y-59050000D02*
X74650000Y-58425000D01*
X114650000Y-51050000D02*
X114650000Y-50425000D01*
X104650000Y-51050000D02*
X104650000Y-50425000D01*
X94650000Y-51050000D02*
X94650000Y-50425000D01*
X84650000Y-51050000D02*
X84650000Y-50425000D01*
X115450000Y-67050000D02*
X115450000Y-66450000D01*
X105450000Y-67050000D02*
X105450000Y-66450000D01*
X95450000Y-67050000D02*
X95450000Y-66450000D01*
X85450000Y-67050000D02*
X85450000Y-66450000D01*
X75450000Y-67050000D02*
X75450000Y-66450000D01*
X115450000Y-59050000D02*
X115450000Y-58450000D01*
X105450000Y-59050000D02*
X105450000Y-58450000D01*
X95450000Y-59050000D02*
X95450000Y-58450000D01*
X85450000Y-59050000D02*
X85450000Y-58450000D01*
X75450000Y-59050000D02*
X75450000Y-58450000D01*
X115450000Y-51050000D02*
X115450000Y-50450000D01*
X105450000Y-51050000D02*
X105450000Y-50450000D01*
X95450000Y-51050000D02*
X95450000Y-50450000D01*
X85450000Y-51050000D02*
X85450000Y-50450000D01*
X119075000Y-65500000D02*
X119075000Y-66250000D01*
X109075000Y-65500000D02*
X109075000Y-66250000D01*
X99075000Y-65500000D02*
X99075000Y-66250000D01*
X89075000Y-65500000D02*
X89075000Y-66250000D01*
X79075000Y-65500000D02*
X79075000Y-66250000D01*
X119075000Y-57500000D02*
X119075000Y-58250000D01*
X109075000Y-57500000D02*
X109075000Y-58250000D01*
X99075000Y-57500000D02*
X99075000Y-58250000D01*
X89075000Y-57500000D02*
X89075000Y-58250000D01*
X79075000Y-57500000D02*
X79075000Y-58250000D01*
X119075000Y-49500000D02*
X119075000Y-50250000D01*
X109075000Y-49500000D02*
X109075000Y-50250000D01*
X99075000Y-49500000D02*
X99075000Y-50250000D01*
X89075000Y-49500000D02*
X89075000Y-50250000D01*
X117050000Y-66250000D02*
X119075000Y-66250000D01*
X107050000Y-66250000D02*
X109075000Y-66250000D01*
X97050000Y-66250000D02*
X99075000Y-66250000D01*
X87050000Y-66250000D02*
X89075000Y-66250000D01*
X77050000Y-66250000D02*
X79075000Y-66250000D01*
X117050000Y-58250000D02*
X119075000Y-58250000D01*
X107050000Y-58250000D02*
X109075000Y-58250000D01*
X97050000Y-58250000D02*
X99075000Y-58250000D01*
X87050000Y-58250000D02*
X89075000Y-58250000D01*
X77050000Y-58250000D02*
X79075000Y-58250000D01*
X117050000Y-50250000D02*
X119075000Y-50250000D01*
X107050000Y-50250000D02*
X109075000Y-50250000D01*
X97050000Y-50250000D02*
X99075000Y-50250000D01*
X87050000Y-50250000D02*
X89075000Y-50250000D01*
X76250000Y-51050000D02*
X76250000Y-50425000D01*
X76250000Y-50425000D02*
X76075000Y-50250000D01*
X75450000Y-51050000D02*
X75450000Y-50450000D01*
X75450000Y-50450000D02*
X75250000Y-50250000D01*
X74650000Y-51050000D02*
X74650000Y-50425000D01*
X74650000Y-50425000D02*
X74475000Y-50250000D01*
X79075000Y-49500000D02*
X79075000Y-50250000D01*
X77050000Y-50250000D02*
X79075000Y-50250000D01*
X79075000Y-50250000D02*
X79075000Y-50950000D01*
X73850000Y-50250000D02*
X74475000Y-50250000D01*
X74475000Y-50250000D02*
X75250000Y-50250000D01*
X75250000Y-50250000D02*
X76075000Y-50250000D01*
X76075000Y-50250000D02*
X77050000Y-50250000D01*
X74735000Y-51050000D02*
X74735000Y-51850000D01*
X116250000Y-64575000D02*
X116525000Y-64300000D01*
X106250000Y-64575000D02*
X106525000Y-64300000D01*
X96250000Y-64575000D02*
X96525000Y-64300000D01*
X86250000Y-64575000D02*
X86525000Y-64300000D01*
X76250000Y-64575000D02*
X76525000Y-64300000D01*
X116250000Y-56575000D02*
X116525000Y-56300000D01*
X106250000Y-56575000D02*
X106525000Y-56300000D01*
X96250000Y-56575000D02*
X96525000Y-56300000D01*
X86250000Y-56575000D02*
X86525000Y-56300000D01*
X76250000Y-56575000D02*
X76525000Y-56300000D01*
X116250000Y-48575000D02*
X116525000Y-48300000D01*
X106250000Y-48575000D02*
X106525000Y-48300000D01*
X96250000Y-48575000D02*
X96525000Y-48300000D01*
X86250000Y-48575000D02*
X86525000Y-48300000D01*
X116250000Y-65450000D02*
X116250000Y-64575000D01*
X106250000Y-65450000D02*
X106250000Y-64575000D01*
X96250000Y-65450000D02*
X96250000Y-64575000D01*
X86250000Y-65450000D02*
X86250000Y-64575000D01*
X76250000Y-65450000D02*
X76250000Y-64575000D01*
X116250000Y-57450000D02*
X116250000Y-56575000D01*
X106250000Y-57450000D02*
X106250000Y-56575000D01*
X96250000Y-57450000D02*
X96250000Y-56575000D01*
X86250000Y-57450000D02*
X86250000Y-56575000D01*
X76250000Y-57450000D02*
X76250000Y-56575000D01*
X116250000Y-49450000D02*
X116250000Y-48575000D01*
X106250000Y-49450000D02*
X106250000Y-48575000D01*
X96250000Y-49450000D02*
X96250000Y-48575000D01*
X86250000Y-49450000D02*
X86250000Y-48575000D01*
X116525000Y-64300000D02*
X116975000Y-64300000D01*
X106525000Y-64300000D02*
X106975000Y-64300000D01*
X96525000Y-64300000D02*
X96975000Y-64300000D01*
X86525000Y-64300000D02*
X86975000Y-64300000D01*
X76525000Y-64300000D02*
X76975000Y-64300000D01*
X116525000Y-56300000D02*
X116975000Y-56300000D01*
X106525000Y-56300000D02*
X106975000Y-56300000D01*
X96525000Y-56300000D02*
X96975000Y-56300000D01*
X86525000Y-56300000D02*
X86975000Y-56300000D01*
X76525000Y-56300000D02*
X76975000Y-56300000D01*
X116525000Y-48300000D02*
X116975000Y-48300000D01*
X106525000Y-48300000D02*
X106975000Y-48300000D01*
X96525000Y-48300000D02*
X96975000Y-48300000D01*
X86525000Y-48300000D02*
X86975000Y-48300000D01*
X76250000Y-49450000D02*
X76250000Y-48575000D01*
X76525000Y-48300000D02*
X76975000Y-48300000D01*
X76250000Y-48575000D02*
X76525000Y-48300000D01*
X113850000Y-67050000D02*
X113175000Y-67050000D01*
X103850000Y-67050000D02*
X103175000Y-67050000D01*
X93850000Y-67050000D02*
X93175000Y-67050000D01*
X83850000Y-67050000D02*
X83175000Y-67050000D01*
X73850000Y-67050000D02*
X73175000Y-67050000D01*
X113850000Y-59050000D02*
X113175000Y-59050000D01*
X103850000Y-59050000D02*
X103175000Y-59050000D01*
X93850000Y-59050000D02*
X93175000Y-59050000D01*
X83850000Y-59050000D02*
X83175000Y-59050000D01*
X73850000Y-59050000D02*
X73175000Y-59050000D01*
X113850000Y-51050000D02*
X113175000Y-51050000D01*
X103850000Y-51050000D02*
X103175000Y-51050000D01*
X93850000Y-51050000D02*
X93175000Y-51050000D01*
X83850000Y-51050000D02*
X83175000Y-51050000D01*
X112675000Y-66550000D02*
X112675000Y-65200000D01*
X102675000Y-66550000D02*
X102675000Y-65200000D01*
X92675000Y-66550000D02*
X92675000Y-65200000D01*
X82675000Y-66550000D02*
X82675000Y-65200000D01*
X72675000Y-66550000D02*
X72675000Y-65200000D01*
X112675000Y-58550000D02*
X112675000Y-57200000D01*
X102675000Y-58550000D02*
X102675000Y-57200000D01*
X92675000Y-58550000D02*
X92675000Y-57200000D01*
X82675000Y-58550000D02*
X82675000Y-57200000D01*
X72675000Y-58550000D02*
X72675000Y-57200000D01*
X112675000Y-50550000D02*
X112675000Y-49200000D01*
X102675000Y-50550000D02*
X102675000Y-49200000D01*
X92675000Y-50550000D02*
X92675000Y-49200000D01*
X82675000Y-50550000D02*
X82675000Y-49200000D01*
X113175000Y-67050000D02*
X112675000Y-66550000D01*
X103175000Y-67050000D02*
X102675000Y-66550000D01*
X93175000Y-67050000D02*
X92675000Y-66550000D01*
X83175000Y-67050000D02*
X82675000Y-66550000D01*
X73175000Y-67050000D02*
X72675000Y-66550000D01*
X113175000Y-59050000D02*
X112675000Y-58550000D01*
X103175000Y-59050000D02*
X102675000Y-58550000D01*
X93175000Y-59050000D02*
X92675000Y-58550000D01*
X83175000Y-59050000D02*
X82675000Y-58550000D01*
X73175000Y-59050000D02*
X72675000Y-58550000D01*
X113175000Y-51050000D02*
X112675000Y-50550000D01*
X103175000Y-51050000D02*
X102675000Y-50550000D01*
X93175000Y-51050000D02*
X92675000Y-50550000D01*
X83175000Y-51050000D02*
X82675000Y-50550000D01*
X73850000Y-51050000D02*
X73175000Y-51050000D01*
X72675000Y-50550000D02*
X72675000Y-49200000D01*
X73175000Y-51050000D02*
X72675000Y-50550000D01*
X115450000Y-65450000D02*
X115450000Y-64725000D01*
X105450000Y-65450000D02*
X105450000Y-64725000D01*
X95450000Y-65450000D02*
X95450000Y-64725000D01*
X85450000Y-65450000D02*
X85450000Y-64725000D01*
X75450000Y-65450000D02*
X75450000Y-64725000D01*
X115450000Y-57450000D02*
X115450000Y-56725000D01*
X105450000Y-57450000D02*
X105450000Y-56725000D01*
X95450000Y-57450000D02*
X95450000Y-56725000D01*
X85450000Y-57450000D02*
X85450000Y-56725000D01*
X75450000Y-57450000D02*
X75450000Y-56725000D01*
X115450000Y-49450000D02*
X115450000Y-48725000D01*
X105450000Y-49450000D02*
X105450000Y-48725000D01*
X95450000Y-49450000D02*
X95450000Y-48725000D01*
X85450000Y-49450000D02*
X85450000Y-48725000D01*
X115450000Y-64725000D02*
X115095000Y-64370000D01*
X105450000Y-64725000D02*
X105095000Y-64370000D01*
X95450000Y-64725000D02*
X95095000Y-64370000D01*
X85450000Y-64725000D02*
X85095000Y-64370000D01*
X75450000Y-64725000D02*
X75095000Y-64370000D01*
X115450000Y-56725000D02*
X115095000Y-56370000D01*
X105450000Y-56725000D02*
X105095000Y-56370000D01*
X95450000Y-56725000D02*
X95095000Y-56370000D01*
X85450000Y-56725000D02*
X85095000Y-56370000D01*
X75450000Y-56725000D02*
X75095000Y-56370000D01*
X115450000Y-48725000D02*
X115095000Y-48370000D01*
X105450000Y-48725000D02*
X105095000Y-48370000D01*
X95450000Y-48725000D02*
X95095000Y-48370000D01*
X85450000Y-48725000D02*
X85095000Y-48370000D01*
X115095000Y-64370000D02*
X113875000Y-64370000D01*
X105095000Y-64370000D02*
X103875000Y-64370000D01*
X95095000Y-64370000D02*
X93875000Y-64370000D01*
X85095000Y-64370000D02*
X83875000Y-64370000D01*
X75095000Y-64370000D02*
X73875000Y-64370000D01*
X115095000Y-56370000D02*
X113875000Y-56370000D01*
X105095000Y-56370000D02*
X103875000Y-56370000D01*
X95095000Y-56370000D02*
X93875000Y-56370000D01*
X85095000Y-56370000D02*
X83875000Y-56370000D01*
X75095000Y-56370000D02*
X73875000Y-56370000D01*
X115095000Y-48370000D02*
X113875000Y-48370000D01*
X105095000Y-48370000D02*
X103875000Y-48370000D01*
X95095000Y-48370000D02*
X93875000Y-48370000D01*
X85095000Y-48370000D02*
X83875000Y-48370000D01*
X75450000Y-49450000D02*
X75450000Y-48725000D01*
X75095000Y-48370000D02*
X73875000Y-48370000D01*
X75450000Y-48725000D02*
X75095000Y-48370000D01*
M02*
