M48
;DRILL file {KiCad 4.0.7-e2-6376~58~ubuntu16.04.1} date Wed Aug  1 08:34:49 2018
;FORMAT={-:-/ absolute / metric / decimal}
FMAT,2
METRIC,TZ
T1C0.400
%
G90
G05
M71
T1
X72.675Y-49.2
X72.675Y-57.2
X72.675Y-65.2
X73.875Y-48.37
X73.875Y-56.37
X73.875Y-64.37
X74.735Y-51.85
X74.735Y-59.85
X74.735Y-67.85
X76.975Y-48.3
X76.975Y-56.3
X76.975Y-64.3
X77.675Y-52.45
X77.675Y-60.45
X77.675Y-68.45
X79.9Y-48.45
X79.9Y-56.45
X79.9Y-64.45
X82.675Y-49.2
X82.675Y-57.2
X82.675Y-65.2
X83.875Y-48.37
X83.875Y-56.37
X83.875Y-64.37
X84.735Y-51.85
X84.735Y-59.85
X84.735Y-67.85
X86.975Y-48.3
X86.975Y-56.3
X86.975Y-64.3
X87.675Y-52.45
X87.675Y-60.45
X87.675Y-68.45
X89.9Y-48.45
X89.9Y-56.45
X89.9Y-64.45
X92.675Y-49.2
X92.675Y-57.2
X92.675Y-65.2
X93.875Y-48.37
X93.875Y-56.37
X93.875Y-64.37
X94.735Y-51.85
X94.735Y-59.85
X94.735Y-67.85
X96.975Y-48.3
X96.975Y-56.3
X96.975Y-64.3
X97.675Y-52.45
X97.675Y-60.45
X97.675Y-68.45
X99.9Y-48.45
X99.9Y-56.45
X99.9Y-64.45
X102.675Y-49.2
X102.675Y-57.2
X102.675Y-65.2
X103.875Y-48.37
X103.875Y-56.37
X103.875Y-64.37
X104.735Y-51.85
X104.735Y-59.85
X104.735Y-67.85
X106.975Y-48.3
X106.975Y-56.3
X106.975Y-64.3
X107.675Y-52.45
X107.675Y-60.45
X107.675Y-68.45
X109.9Y-48.45
X109.9Y-56.45
X109.9Y-64.45
X112.675Y-49.2
X112.675Y-57.2
X112.675Y-65.2
X113.875Y-48.37
X113.875Y-56.37
X113.875Y-64.37
X114.735Y-51.85
X114.735Y-59.85
X114.735Y-67.85
X116.975Y-48.3
X116.975Y-56.3
X116.975Y-64.3
X117.675Y-52.45
X117.675Y-60.45
X117.675Y-68.45
X119.9Y-48.45
X119.9Y-56.45
X119.9Y-64.45
T0
M30
