G04 #@! TF.FileFunction,Paste,Bot*
%FSLAX46Y46*%
G04 Gerber Fmt 4.6, Leading zero omitted, Abs format (unit mm)*
G04 Created by KiCad (PCBNEW 4.0.7-e2-6376~58~ubuntu16.04.1) date Wed Aug  1 08:34:46 2018*
%MOMM*%
%LPD*%
G01*
G04 APERTURE LIST*
%ADD10C,0.100000*%
%ADD11R,1.000000X1.500000*%
G04 APERTURE END LIST*
D10*
D11*
X117575000Y-65200000D03*
X115075000Y-65200000D03*
X107575000Y-65200000D03*
X105075000Y-65200000D03*
X97575000Y-65200000D03*
X95075000Y-65200000D03*
X87575000Y-65200000D03*
X85075000Y-65200000D03*
X77575000Y-65200000D03*
X75075000Y-65200000D03*
X117575000Y-57200000D03*
X115075000Y-57200000D03*
X107575000Y-57200000D03*
X105075000Y-57200000D03*
X97575000Y-57200000D03*
X95075000Y-57200000D03*
X87575000Y-57200000D03*
X85075000Y-57200000D03*
X77575000Y-57200000D03*
X75075000Y-57200000D03*
X117575000Y-49200000D03*
X115075000Y-49200000D03*
X107575000Y-49200000D03*
X105075000Y-49200000D03*
X97575000Y-49200000D03*
X95075000Y-49200000D03*
X87575000Y-49200000D03*
X85075000Y-49200000D03*
X118835000Y-67500000D03*
X116335000Y-67500000D03*
X113835000Y-67500000D03*
X108835000Y-67500000D03*
X106335000Y-67500000D03*
X103835000Y-67500000D03*
X98835000Y-67500000D03*
X96335000Y-67500000D03*
X93835000Y-67500000D03*
X88835000Y-67500000D03*
X86335000Y-67500000D03*
X83835000Y-67500000D03*
X78835000Y-67500000D03*
X76335000Y-67500000D03*
X73835000Y-67500000D03*
X118835000Y-59500000D03*
X116335000Y-59500000D03*
X113835000Y-59500000D03*
X108835000Y-59500000D03*
X106335000Y-59500000D03*
X103835000Y-59500000D03*
X98835000Y-59500000D03*
X96335000Y-59500000D03*
X93835000Y-59500000D03*
X88835000Y-59500000D03*
X86335000Y-59500000D03*
X83835000Y-59500000D03*
X78835000Y-59500000D03*
X76335000Y-59500000D03*
X73835000Y-59500000D03*
X118835000Y-51500000D03*
X116335000Y-51500000D03*
X113835000Y-51500000D03*
X108835000Y-51500000D03*
X106335000Y-51500000D03*
X103835000Y-51500000D03*
X98835000Y-51500000D03*
X96335000Y-51500000D03*
X93835000Y-51500000D03*
X88835000Y-51500000D03*
X86335000Y-51500000D03*
X83835000Y-51500000D03*
X77575000Y-49200000D03*
X75075000Y-49200000D03*
X78835000Y-51500000D03*
X76335000Y-51500000D03*
X73835000Y-51500000D03*
M02*
