G04 #@! TF.FileFunction,Soldermask,Top*
%FSLAX46Y46*%
G04 Gerber Fmt 4.6, Leading zero omitted, Abs format (unit mm)*
G04 Created by KiCad (PCBNEW 4.0.7-e2-6376~58~ubuntu16.04.1) date Wed Aug  1 08:34:46 2018*
%MOMM*%
%LPD*%
G01*
G04 APERTURE LIST*
%ADD10C,0.100000*%
%ADD11R,0.900000X1.000000*%
%ADD12R,0.900000X0.900000*%
%ADD13R,0.650000X0.650000*%
G04 APERTURE END LIST*
D10*
D11*
X119075000Y-64450000D03*
X119075000Y-65550000D03*
X109075000Y-64450000D03*
X109075000Y-65550000D03*
X99075000Y-64450000D03*
X99075000Y-65550000D03*
X89075000Y-64450000D03*
X89075000Y-65550000D03*
X79075000Y-64450000D03*
X79075000Y-65550000D03*
X119075000Y-56450000D03*
X119075000Y-57550000D03*
X109075000Y-56450000D03*
X109075000Y-57550000D03*
X99075000Y-56450000D03*
X99075000Y-57550000D03*
X89075000Y-56450000D03*
X89075000Y-57550000D03*
X79075000Y-56450000D03*
X79075000Y-57550000D03*
X119075000Y-48450000D03*
X119075000Y-49550000D03*
X109075000Y-48450000D03*
X109075000Y-49550000D03*
X99075000Y-48450000D03*
X99075000Y-49550000D03*
X89075000Y-48450000D03*
X89075000Y-49550000D03*
D12*
X117050000Y-67050000D03*
X116250000Y-67050000D03*
X115450000Y-67050000D03*
X114650000Y-67050000D03*
X113850000Y-67050000D03*
X113850000Y-66250000D03*
X113850000Y-65450000D03*
X114650000Y-65450000D03*
X115450000Y-65450000D03*
X116250000Y-65450000D03*
X117050000Y-65450000D03*
X117050000Y-66250000D03*
D13*
X117350000Y-66925000D03*
D12*
X107050000Y-67050000D03*
X106250000Y-67050000D03*
X105450000Y-67050000D03*
X104650000Y-67050000D03*
X103850000Y-67050000D03*
X103850000Y-66250000D03*
X103850000Y-65450000D03*
X104650000Y-65450000D03*
X105450000Y-65450000D03*
X106250000Y-65450000D03*
X107050000Y-65450000D03*
X107050000Y-66250000D03*
D13*
X107350000Y-66925000D03*
D12*
X97050000Y-67050000D03*
X96250000Y-67050000D03*
X95450000Y-67050000D03*
X94650000Y-67050000D03*
X93850000Y-67050000D03*
X93850000Y-66250000D03*
X93850000Y-65450000D03*
X94650000Y-65450000D03*
X95450000Y-65450000D03*
X96250000Y-65450000D03*
X97050000Y-65450000D03*
X97050000Y-66250000D03*
D13*
X97350000Y-66925000D03*
D12*
X87050000Y-67050000D03*
X86250000Y-67050000D03*
X85450000Y-67050000D03*
X84650000Y-67050000D03*
X83850000Y-67050000D03*
X83850000Y-66250000D03*
X83850000Y-65450000D03*
X84650000Y-65450000D03*
X85450000Y-65450000D03*
X86250000Y-65450000D03*
X87050000Y-65450000D03*
X87050000Y-66250000D03*
D13*
X87350000Y-66925000D03*
D12*
X77050000Y-67050000D03*
X76250000Y-67050000D03*
X75450000Y-67050000D03*
X74650000Y-67050000D03*
X73850000Y-67050000D03*
X73850000Y-66250000D03*
X73850000Y-65450000D03*
X74650000Y-65450000D03*
X75450000Y-65450000D03*
X76250000Y-65450000D03*
X77050000Y-65450000D03*
X77050000Y-66250000D03*
D13*
X77350000Y-66925000D03*
D12*
X117050000Y-59050000D03*
X116250000Y-59050000D03*
X115450000Y-59050000D03*
X114650000Y-59050000D03*
X113850000Y-59050000D03*
X113850000Y-58250000D03*
X113850000Y-57450000D03*
X114650000Y-57450000D03*
X115450000Y-57450000D03*
X116250000Y-57450000D03*
X117050000Y-57450000D03*
X117050000Y-58250000D03*
D13*
X117350000Y-58925000D03*
D12*
X107050000Y-59050000D03*
X106250000Y-59050000D03*
X105450000Y-59050000D03*
X104650000Y-59050000D03*
X103850000Y-59050000D03*
X103850000Y-58250000D03*
X103850000Y-57450000D03*
X104650000Y-57450000D03*
X105450000Y-57450000D03*
X106250000Y-57450000D03*
X107050000Y-57450000D03*
X107050000Y-58250000D03*
D13*
X107350000Y-58925000D03*
D12*
X97050000Y-59050000D03*
X96250000Y-59050000D03*
X95450000Y-59050000D03*
X94650000Y-59050000D03*
X93850000Y-59050000D03*
X93850000Y-58250000D03*
X93850000Y-57450000D03*
X94650000Y-57450000D03*
X95450000Y-57450000D03*
X96250000Y-57450000D03*
X97050000Y-57450000D03*
X97050000Y-58250000D03*
D13*
X97350000Y-58925000D03*
D12*
X87050000Y-59050000D03*
X86250000Y-59050000D03*
X85450000Y-59050000D03*
X84650000Y-59050000D03*
X83850000Y-59050000D03*
X83850000Y-58250000D03*
X83850000Y-57450000D03*
X84650000Y-57450000D03*
X85450000Y-57450000D03*
X86250000Y-57450000D03*
X87050000Y-57450000D03*
X87050000Y-58250000D03*
D13*
X87350000Y-58925000D03*
D12*
X77050000Y-59050000D03*
X76250000Y-59050000D03*
X75450000Y-59050000D03*
X74650000Y-59050000D03*
X73850000Y-59050000D03*
X73850000Y-58250000D03*
X73850000Y-57450000D03*
X74650000Y-57450000D03*
X75450000Y-57450000D03*
X76250000Y-57450000D03*
X77050000Y-57450000D03*
X77050000Y-58250000D03*
D13*
X77350000Y-58925000D03*
D12*
X117050000Y-51050000D03*
X116250000Y-51050000D03*
X115450000Y-51050000D03*
X114650000Y-51050000D03*
X113850000Y-51050000D03*
X113850000Y-50250000D03*
X113850000Y-49450000D03*
X114650000Y-49450000D03*
X115450000Y-49450000D03*
X116250000Y-49450000D03*
X117050000Y-49450000D03*
X117050000Y-50250000D03*
D13*
X117350000Y-50925000D03*
D12*
X107050000Y-51050000D03*
X106250000Y-51050000D03*
X105450000Y-51050000D03*
X104650000Y-51050000D03*
X103850000Y-51050000D03*
X103850000Y-50250000D03*
X103850000Y-49450000D03*
X104650000Y-49450000D03*
X105450000Y-49450000D03*
X106250000Y-49450000D03*
X107050000Y-49450000D03*
X107050000Y-50250000D03*
D13*
X107350000Y-50925000D03*
D12*
X97050000Y-51050000D03*
X96250000Y-51050000D03*
X95450000Y-51050000D03*
X94650000Y-51050000D03*
X93850000Y-51050000D03*
X93850000Y-50250000D03*
X93850000Y-49450000D03*
X94650000Y-49450000D03*
X95450000Y-49450000D03*
X96250000Y-49450000D03*
X97050000Y-49450000D03*
X97050000Y-50250000D03*
D13*
X97350000Y-50925000D03*
D12*
X87050000Y-51050000D03*
X86250000Y-51050000D03*
X85450000Y-51050000D03*
X84650000Y-51050000D03*
X83850000Y-51050000D03*
X83850000Y-50250000D03*
X83850000Y-49450000D03*
X84650000Y-49450000D03*
X85450000Y-49450000D03*
X86250000Y-49450000D03*
X87050000Y-49450000D03*
X87050000Y-50250000D03*
D13*
X87350000Y-50925000D03*
D11*
X119075000Y-68050000D03*
X119075000Y-66950000D03*
X109075000Y-68050000D03*
X109075000Y-66950000D03*
X99075000Y-68050000D03*
X99075000Y-66950000D03*
X89075000Y-68050000D03*
X89075000Y-66950000D03*
X79075000Y-68050000D03*
X79075000Y-66950000D03*
X119075000Y-60050000D03*
X119075000Y-58950000D03*
X109075000Y-60050000D03*
X109075000Y-58950000D03*
X99075000Y-60050000D03*
X99075000Y-58950000D03*
X89075000Y-60050000D03*
X89075000Y-58950000D03*
X79075000Y-60050000D03*
X79075000Y-58950000D03*
X119075000Y-52050000D03*
X119075000Y-50950000D03*
X109075000Y-52050000D03*
X109075000Y-50950000D03*
X99075000Y-52050000D03*
X99075000Y-50950000D03*
X89075000Y-52050000D03*
X89075000Y-50950000D03*
D12*
X77050000Y-51050000D03*
X76250000Y-51050000D03*
X75450000Y-51050000D03*
X74650000Y-51050000D03*
X73850000Y-51050000D03*
X73850000Y-50250000D03*
X73850000Y-49450000D03*
X74650000Y-49450000D03*
X75450000Y-49450000D03*
X76250000Y-49450000D03*
X77050000Y-49450000D03*
X77050000Y-50250000D03*
D13*
X77350000Y-50925000D03*
D11*
X79075000Y-52050000D03*
X79075000Y-50950000D03*
X79075000Y-48450000D03*
X79075000Y-49550000D03*
M02*
