G04 #@! TF.FileFunction,Legend,Bot*
%FSLAX46Y46*%
G04 Gerber Fmt 4.6, Leading zero omitted, Abs format (unit mm)*
G04 Created by KiCad (PCBNEW 4.0.7-e2-6376~58~ubuntu16.04.1) date Tue Jul 31 21:03:08 2018*
%MOMM*%
%LPD*%
G01*
G04 APERTURE LIST*
%ADD10C,0.100000*%
%ADD11C,0.200000*%
%ADD12C,0.150000*%
G04 APERTURE END LIST*
D10*
D11*
X152830000Y-95160000D02*
X152830000Y-95190000D01*
X133080000Y-95160000D02*
X152830000Y-95160000D01*
X143610000Y-89240000D02*
X143610000Y-107070000D01*
X142390000Y-89240000D02*
X143610000Y-89240000D01*
X142390000Y-107060000D02*
X142390000Y-89240000D01*
X152830000Y-101110000D02*
X152830000Y-101130000D01*
X133060000Y-101110000D02*
X152830000Y-101110000D01*
X133080000Y-107070000D02*
X133080000Y-101100000D01*
X133080000Y-89240000D02*
X133080000Y-107070000D01*
X152830000Y-89240000D02*
X133080000Y-89240000D01*
X152830000Y-107070000D02*
X152830000Y-89240000D01*
X133080000Y-107070000D02*
X152830000Y-107070000D01*
D12*
X150550000Y-103800000D02*
X150550000Y-102650000D01*
X150550000Y-102650000D02*
X150550000Y-102600000D01*
X150550000Y-102100000D02*
X146650000Y-102100000D01*
X146650000Y-102600000D02*
X146600000Y-102600000D01*
X146600000Y-102600000D02*
X146600000Y-103750000D01*
X146600000Y-103750000D02*
X146600000Y-103950000D01*
X146600000Y-103950000D02*
X146600000Y-104000000D01*
X146600000Y-104000000D02*
X150550000Y-104000000D01*
X150550000Y-104000000D02*
X150550000Y-103800000D01*
X151760000Y-105600000D02*
X151760000Y-104450000D01*
X151760000Y-104450000D02*
X151760000Y-104400000D01*
X151760000Y-104400000D02*
X145410000Y-104400000D01*
X145410000Y-104400000D02*
X145360000Y-104400000D01*
X145360000Y-104400000D02*
X145360000Y-105750000D01*
X145360000Y-105750000D02*
X145360000Y-105800000D01*
X145360000Y-106300000D02*
X151760000Y-106300000D01*
X151760000Y-105800000D02*
X151760000Y-105600000D01*
X150540000Y-97910000D02*
X150540000Y-96760000D01*
X150540000Y-96760000D02*
X150540000Y-96710000D01*
X150540000Y-96210000D02*
X146640000Y-96210000D01*
X146640000Y-96710000D02*
X146590000Y-96710000D01*
X146590000Y-96710000D02*
X146590000Y-97860000D01*
X146590000Y-97860000D02*
X146590000Y-98060000D01*
X146590000Y-98060000D02*
X146590000Y-98110000D01*
X146590000Y-98110000D02*
X150540000Y-98110000D01*
X150540000Y-98110000D02*
X150540000Y-97910000D01*
X151760000Y-99740000D02*
X151760000Y-98590000D01*
X151760000Y-98590000D02*
X151760000Y-98540000D01*
X151760000Y-98540000D02*
X145410000Y-98540000D01*
X145410000Y-98540000D02*
X145360000Y-98540000D01*
X145360000Y-98540000D02*
X145360000Y-99890000D01*
X145360000Y-99890000D02*
X145360000Y-99940000D01*
X145360000Y-100440000D02*
X151760000Y-100440000D01*
X151760000Y-99940000D02*
X151760000Y-99740000D01*
X150540000Y-91860000D02*
X150540000Y-90710000D01*
X150540000Y-90710000D02*
X150540000Y-90660000D01*
X150540000Y-90160000D02*
X146640000Y-90160000D01*
X146640000Y-90660000D02*
X146590000Y-90660000D01*
X146590000Y-90660000D02*
X146590000Y-91810000D01*
X146590000Y-91810000D02*
X146590000Y-92010000D01*
X146590000Y-92010000D02*
X146590000Y-92060000D01*
X146590000Y-92060000D02*
X150540000Y-92060000D01*
X150540000Y-92060000D02*
X150540000Y-91860000D01*
X151760000Y-93650000D02*
X151760000Y-92500000D01*
X151760000Y-92500000D02*
X151760000Y-92450000D01*
X151760000Y-92450000D02*
X145410000Y-92450000D01*
X145410000Y-92450000D02*
X145360000Y-92450000D01*
X145360000Y-92450000D02*
X145360000Y-93800000D01*
X145360000Y-93800000D02*
X145360000Y-93850000D01*
X145360000Y-94350000D02*
X151760000Y-94350000D01*
X151760000Y-93850000D02*
X151760000Y-93650000D01*
X139990000Y-103800000D02*
X139990000Y-102650000D01*
X139990000Y-102650000D02*
X139990000Y-102600000D01*
X139990000Y-102100000D02*
X136090000Y-102100000D01*
X136090000Y-102600000D02*
X136040000Y-102600000D01*
X136040000Y-102600000D02*
X136040000Y-103750000D01*
X136040000Y-103750000D02*
X136040000Y-103950000D01*
X136040000Y-103950000D02*
X136040000Y-104000000D01*
X136040000Y-104000000D02*
X139990000Y-104000000D01*
X139990000Y-104000000D02*
X139990000Y-103800000D01*
X141170000Y-105590000D02*
X141170000Y-104440000D01*
X141170000Y-104440000D02*
X141170000Y-104390000D01*
X141170000Y-104390000D02*
X134820000Y-104390000D01*
X134820000Y-104390000D02*
X134770000Y-104390000D01*
X134770000Y-104390000D02*
X134770000Y-105740000D01*
X134770000Y-105740000D02*
X134770000Y-105790000D01*
X134770000Y-106290000D02*
X141170000Y-106290000D01*
X141170000Y-105790000D02*
X141170000Y-105590000D01*
X139990000Y-97920000D02*
X139990000Y-96770000D01*
X139990000Y-96770000D02*
X139990000Y-96720000D01*
X139990000Y-96220000D02*
X136090000Y-96220000D01*
X136090000Y-96720000D02*
X136040000Y-96720000D01*
X136040000Y-96720000D02*
X136040000Y-97870000D01*
X136040000Y-97870000D02*
X136040000Y-98070000D01*
X136040000Y-98070000D02*
X136040000Y-98120000D01*
X136040000Y-98120000D02*
X139990000Y-98120000D01*
X139990000Y-98120000D02*
X139990000Y-97920000D01*
X141170000Y-99730000D02*
X141170000Y-98580000D01*
X141170000Y-98580000D02*
X141170000Y-98530000D01*
X141170000Y-98530000D02*
X134820000Y-98530000D01*
X134820000Y-98530000D02*
X134770000Y-98530000D01*
X134770000Y-98530000D02*
X134770000Y-99880000D01*
X134770000Y-99880000D02*
X134770000Y-99930000D01*
X134770000Y-100430000D02*
X141170000Y-100430000D01*
X141170000Y-99930000D02*
X141170000Y-99730000D01*
X139990000Y-91860000D02*
X139990000Y-90710000D01*
X139990000Y-90710000D02*
X139990000Y-90660000D01*
X139990000Y-90160000D02*
X136090000Y-90160000D01*
X136090000Y-90660000D02*
X136040000Y-90660000D01*
X136040000Y-90660000D02*
X136040000Y-91810000D01*
X136040000Y-91810000D02*
X136040000Y-92010000D01*
X136040000Y-92010000D02*
X136040000Y-92060000D01*
X136040000Y-92060000D02*
X139990000Y-92060000D01*
X139990000Y-92060000D02*
X139990000Y-91860000D01*
X141170000Y-93650000D02*
X141170000Y-92500000D01*
X141170000Y-92500000D02*
X141170000Y-92450000D01*
X141170000Y-92450000D02*
X134820000Y-92450000D01*
X134820000Y-92450000D02*
X134770000Y-92450000D01*
X134770000Y-92450000D02*
X134770000Y-93800000D01*
X134770000Y-93800000D02*
X134770000Y-93850000D01*
X134770000Y-94350000D02*
X141170000Y-94350000D01*
X141170000Y-93850000D02*
X141170000Y-93650000D01*
M02*
