M48
;DRILL file {KiCad 4.0.7-e2-6376~58~ubuntu16.04.1} date Tue Jul 31 21:03:11 2018
;FORMAT={-:-/ absolute / metric / decimal}
FMAT,2
METRIC,TZ
T1C0.400
%
G90
G05
M71
T1
X134.21Y-102.15
X134.23Y-90.22
X134.27Y-96.29
X135.44Y-96.24
X135.46Y-102.03
X135.49Y-90.16
X136.37Y-93.94
X136.39Y-100.08
X136.39Y-105.77
X138.54Y-90.16
X138.54Y-96.22
X138.54Y-102.1
X139.55Y-93.84
X139.57Y-99.91
X139.65Y-105.65
X141.56Y-96.33
X141.57Y-90.32
X141.59Y-102.1
X144.72Y-90.3
X144.72Y-96.4
X144.9Y-102.18
X145.87Y-96.18
X145.97Y-90.18
X146.1Y-102.22
X146.96Y-93.85
X146.96Y-100.06
X146.96Y-105.7
X149.09Y-90.16
X149.15Y-96.27
X149.2Y-102.15
X150.06Y-105.67
X150.13Y-99.79
X150.25Y-93.74
X151.81Y-96.45
X151.9Y-102.28
X152.13Y-90.26
T0
M30
