G04 #@! TF.FileFunction,Soldermask,Top*
%FSLAX46Y46*%
G04 Gerber Fmt 4.6, Leading zero omitted, Abs format (unit mm)*
G04 Created by KiCad (PCBNEW 4.0.7-e2-6376~58~ubuntu16.04.1) date Tue Jul 31 21:03:08 2018*
%MOMM*%
%LPD*%
G01*
G04 APERTURE LIST*
%ADD10C,0.100000*%
%ADD11R,0.900000X0.900000*%
%ADD12R,0.650000X0.650000*%
%ADD13R,1.000000X0.900000*%
G04 APERTURE END LIST*
D10*
D11*
X148560000Y-104900000D03*
X147760000Y-104900000D03*
X146960000Y-104900000D03*
X146160000Y-104900000D03*
X145360000Y-104900000D03*
X145360000Y-104100000D03*
X145360000Y-103300000D03*
X146160000Y-103300000D03*
X146960000Y-103300000D03*
X147760000Y-103300000D03*
X148560000Y-103300000D03*
X148560000Y-104100000D03*
D12*
X148860000Y-104775000D03*
D13*
X150620000Y-105030000D03*
X151720000Y-105030000D03*
X150620000Y-103300000D03*
X151720000Y-103300000D03*
X150550000Y-98950000D03*
X151650000Y-98950000D03*
X150550000Y-97450000D03*
X151650000Y-97450000D03*
X150730000Y-92950000D03*
X151830000Y-92950000D03*
X140100000Y-104890000D03*
X141200000Y-104890000D03*
X150730000Y-91370000D03*
X151830000Y-91370000D03*
X140080000Y-103290000D03*
X141180000Y-103290000D03*
X140090000Y-99080000D03*
X141190000Y-99080000D03*
X140130000Y-92940000D03*
X141230000Y-92940000D03*
X140090000Y-97480000D03*
X141190000Y-97480000D03*
X140140000Y-91340000D03*
X141240000Y-91340000D03*
D11*
X148560000Y-99040000D03*
X147760000Y-99040000D03*
X146960000Y-99040000D03*
X146160000Y-99040000D03*
X145360000Y-99040000D03*
X145360000Y-98240000D03*
X145360000Y-97440000D03*
X146160000Y-97440000D03*
X146960000Y-97440000D03*
X147760000Y-97440000D03*
X148560000Y-97440000D03*
X148560000Y-98240000D03*
D12*
X148860000Y-98915000D03*
D11*
X148560000Y-92950000D03*
X147760000Y-92950000D03*
X146960000Y-92950000D03*
X146160000Y-92950000D03*
X145360000Y-92950000D03*
X145360000Y-92150000D03*
X145360000Y-91350000D03*
X146160000Y-91350000D03*
X146960000Y-91350000D03*
X147760000Y-91350000D03*
X148560000Y-91350000D03*
X148560000Y-92150000D03*
D12*
X148860000Y-92825000D03*
D11*
X137990000Y-104890000D03*
X137190000Y-104890000D03*
X136390000Y-104890000D03*
X135590000Y-104890000D03*
X134790000Y-104890000D03*
X134790000Y-104090000D03*
X134790000Y-103290000D03*
X135590000Y-103290000D03*
X136390000Y-103290000D03*
X137190000Y-103290000D03*
X137990000Y-103290000D03*
X137990000Y-104090000D03*
D12*
X138290000Y-104765000D03*
D11*
X137990000Y-99040000D03*
X137190000Y-99040000D03*
X136390000Y-99040000D03*
X135590000Y-99040000D03*
X134790000Y-99040000D03*
X134790000Y-98240000D03*
X134790000Y-97440000D03*
X135590000Y-97440000D03*
X136390000Y-97440000D03*
X137190000Y-97440000D03*
X137990000Y-97440000D03*
X137990000Y-98240000D03*
D12*
X138290000Y-98915000D03*
D11*
X137970000Y-92950000D03*
X137170000Y-92950000D03*
X136370000Y-92950000D03*
X135570000Y-92950000D03*
X134770000Y-92950000D03*
X134770000Y-92150000D03*
X134770000Y-91350000D03*
X135570000Y-91350000D03*
X136370000Y-91350000D03*
X137170000Y-91350000D03*
X137970000Y-91350000D03*
X137970000Y-92150000D03*
D12*
X138270000Y-92825000D03*
M02*
