G04 #@! TF.FileFunction,Copper,L1,Top,Signal*
%FSLAX46Y46*%
G04 Gerber Fmt 4.6, Leading zero omitted, Abs format (unit mm)*
G04 Created by KiCad (PCBNEW 4.0.7-e2-6376~58~ubuntu16.04.1) date Tue Jul 31 21:03:08 2018*
%MOMM*%
%LPD*%
G01*
G04 APERTURE LIST*
%ADD10C,0.100000*%
%ADD11R,0.500000X0.500000*%
%ADD12R,0.250000X0.250000*%
%ADD13R,0.600000X0.500000*%
%ADD14C,0.600000*%
%ADD15C,0.250000*%
G04 APERTURE END LIST*
D10*
D11*
X148560000Y-104900000D03*
X147760000Y-104900000D03*
X146960000Y-104900000D03*
X146160000Y-104900000D03*
X145360000Y-104900000D03*
X145360000Y-104100000D03*
X145360000Y-103300000D03*
X146160000Y-103300000D03*
X146960000Y-103300000D03*
X147760000Y-103300000D03*
X148560000Y-103300000D03*
X148560000Y-104100000D03*
D12*
X148860000Y-104775000D03*
D13*
X150620000Y-105030000D03*
X151720000Y-105030000D03*
X150620000Y-103300000D03*
X151720000Y-103300000D03*
X150550000Y-98950000D03*
X151650000Y-98950000D03*
X150550000Y-97450000D03*
X151650000Y-97450000D03*
X150730000Y-92950000D03*
X151830000Y-92950000D03*
X140100000Y-104890000D03*
X141200000Y-104890000D03*
X150730000Y-91370000D03*
X151830000Y-91370000D03*
X140080000Y-103290000D03*
X141180000Y-103290000D03*
X140090000Y-99080000D03*
X141190000Y-99080000D03*
X140130000Y-92940000D03*
X141230000Y-92940000D03*
X140090000Y-97480000D03*
X141190000Y-97480000D03*
X140140000Y-91340000D03*
X141240000Y-91340000D03*
D11*
X148560000Y-99040000D03*
X147760000Y-99040000D03*
X146960000Y-99040000D03*
X146160000Y-99040000D03*
X145360000Y-99040000D03*
X145360000Y-98240000D03*
X145360000Y-97440000D03*
X146160000Y-97440000D03*
X146960000Y-97440000D03*
X147760000Y-97440000D03*
X148560000Y-97440000D03*
X148560000Y-98240000D03*
D12*
X148860000Y-98915000D03*
D11*
X148560000Y-92950000D03*
X147760000Y-92950000D03*
X146960000Y-92950000D03*
X146160000Y-92950000D03*
X145360000Y-92950000D03*
X145360000Y-92150000D03*
X145360000Y-91350000D03*
X146160000Y-91350000D03*
X146960000Y-91350000D03*
X147760000Y-91350000D03*
X148560000Y-91350000D03*
X148560000Y-92150000D03*
D12*
X148860000Y-92825000D03*
D11*
X137990000Y-104890000D03*
X137190000Y-104890000D03*
X136390000Y-104890000D03*
X135590000Y-104890000D03*
X134790000Y-104890000D03*
X134790000Y-104090000D03*
X134790000Y-103290000D03*
X135590000Y-103290000D03*
X136390000Y-103290000D03*
X137190000Y-103290000D03*
X137990000Y-103290000D03*
X137990000Y-104090000D03*
D12*
X138290000Y-104765000D03*
D11*
X137990000Y-99040000D03*
X137190000Y-99040000D03*
X136390000Y-99040000D03*
X135590000Y-99040000D03*
X134790000Y-99040000D03*
X134790000Y-98240000D03*
X134790000Y-97440000D03*
X135590000Y-97440000D03*
X136390000Y-97440000D03*
X137190000Y-97440000D03*
X137990000Y-97440000D03*
X137990000Y-98240000D03*
D12*
X138290000Y-98915000D03*
D11*
X137970000Y-92950000D03*
X137170000Y-92950000D03*
X136370000Y-92950000D03*
X135570000Y-92950000D03*
X134770000Y-92950000D03*
X134770000Y-92150000D03*
X134770000Y-91350000D03*
X135570000Y-91350000D03*
X136370000Y-91350000D03*
X137170000Y-91350000D03*
X137970000Y-91350000D03*
X137970000Y-92150000D03*
D12*
X138270000Y-92825000D03*
D14*
X151900000Y-102280000D03*
X150060000Y-105670000D03*
X146960000Y-105700000D03*
X149200000Y-102150000D03*
X144900000Y-102180000D03*
X146100000Y-102220000D03*
X150130000Y-99790000D03*
X151810000Y-96450000D03*
X146960000Y-100060000D03*
X150250000Y-93740000D03*
X152130000Y-90260000D03*
X146960000Y-93850000D03*
X139650000Y-105650000D03*
X141590000Y-102100000D03*
X136390000Y-105770000D03*
X139570000Y-99910000D03*
X141560000Y-96330000D03*
X136390000Y-100080000D03*
X139550000Y-93840000D03*
X141570000Y-90320000D03*
X136370000Y-93940000D03*
X149150000Y-96270000D03*
X144720000Y-96400000D03*
X145870000Y-96180000D03*
X149090000Y-90160000D03*
X144720000Y-90300000D03*
X145970000Y-90180000D03*
X138540000Y-102100000D03*
X134210000Y-102150000D03*
X135460000Y-102030000D03*
X138540000Y-96220000D03*
X134270000Y-96290000D03*
X135440000Y-96240000D03*
X138540000Y-90160000D03*
X134230000Y-90220000D03*
X135490000Y-90160000D03*
D15*
X150620000Y-102550000D02*
X150620000Y-103300000D01*
X150890000Y-102280000D02*
X150620000Y-102550000D01*
X151900000Y-102280000D02*
X150890000Y-102280000D01*
X150060000Y-105670000D02*
X150060000Y-105030000D01*
X150060000Y-105030000D02*
X150060000Y-105130000D01*
X150060000Y-105130000D02*
X150060000Y-105030000D01*
X150620000Y-103300000D02*
X148560000Y-103300000D01*
X150620000Y-105030000D02*
X150060000Y-105030000D01*
X150060000Y-105030000D02*
X149630000Y-105030000D01*
X149500000Y-104900000D02*
X148560000Y-104900000D01*
X149630000Y-105030000D02*
X149500000Y-104900000D01*
X148560000Y-104900000D02*
X148735000Y-104900000D01*
X148735000Y-104900000D02*
X148860000Y-104775000D01*
X146960000Y-104900000D02*
X146960000Y-105700000D01*
X146160000Y-104900000D02*
X146160000Y-104330000D01*
X146160000Y-104330000D02*
X145930000Y-104100000D01*
X148560000Y-104100000D02*
X151650000Y-104100000D01*
X151650000Y-104100000D02*
X151720000Y-104170000D01*
X151720000Y-103300000D02*
X151720000Y-104170000D01*
X151720000Y-104170000D02*
X151720000Y-105030000D01*
X148560000Y-104100000D02*
X147650000Y-104100000D01*
X147760000Y-104900000D02*
X147760000Y-104210000D01*
X147650000Y-104100000D02*
X146810000Y-104100000D01*
X147760000Y-104210000D02*
X147650000Y-104100000D01*
X145360000Y-104100000D02*
X145930000Y-104100000D01*
X145930000Y-104100000D02*
X146810000Y-104100000D01*
X146960000Y-104250000D02*
X146960000Y-104900000D01*
X146810000Y-104100000D02*
X146960000Y-104250000D01*
X147760000Y-103300000D02*
X147760000Y-102470000D01*
X148080000Y-102150000D02*
X149200000Y-102150000D01*
X147760000Y-102470000D02*
X148080000Y-102150000D01*
X145360000Y-104900000D02*
X144600000Y-104900000D01*
X144510000Y-102570000D02*
X144900000Y-102180000D01*
X144510000Y-104810000D02*
X144510000Y-102570000D01*
X144600000Y-104900000D02*
X144510000Y-104810000D01*
X146100000Y-102220000D02*
X146680000Y-102220000D01*
X146960000Y-102500000D02*
X146960000Y-103300000D01*
X146680000Y-102220000D02*
X146960000Y-102500000D01*
X146960000Y-103080000D02*
X146960000Y-103300000D01*
X150550000Y-99370000D02*
X150550000Y-98950000D01*
X150130000Y-99790000D02*
X150550000Y-99370000D01*
X150550000Y-97450000D02*
X150550000Y-96960000D01*
X151060000Y-96450000D02*
X151810000Y-96450000D01*
X150550000Y-96960000D02*
X151060000Y-96450000D01*
X150550000Y-97450000D02*
X148570000Y-97450000D01*
X148570000Y-97450000D02*
X148560000Y-97440000D01*
X150550000Y-98950000D02*
X148650000Y-98950000D01*
X148650000Y-98950000D02*
X148560000Y-99040000D01*
X148560000Y-99040000D02*
X148735000Y-99040000D01*
X148735000Y-99040000D02*
X148860000Y-98915000D01*
X146960000Y-99040000D02*
X146960000Y-100060000D01*
X151650000Y-97450000D02*
X151650000Y-98090000D01*
X151650000Y-98090000D02*
X151500000Y-98240000D01*
X148560000Y-98240000D02*
X151500000Y-98240000D01*
X151500000Y-98240000D02*
X151640000Y-98240000D01*
X151650000Y-98250000D02*
X151650000Y-98950000D01*
X151640000Y-98240000D02*
X151650000Y-98250000D01*
X147760000Y-99040000D02*
X147760000Y-98450000D01*
X147760000Y-98450000D02*
X147550000Y-98240000D01*
X146960000Y-99040000D02*
X146960000Y-98440000D01*
X146960000Y-98440000D02*
X146760000Y-98240000D01*
X146160000Y-99040000D02*
X146160000Y-98440000D01*
X146160000Y-98440000D02*
X145960000Y-98240000D01*
X145360000Y-98240000D02*
X145960000Y-98240000D01*
X145960000Y-98240000D02*
X146760000Y-98240000D01*
X146760000Y-98240000D02*
X147550000Y-98240000D01*
X147550000Y-98240000D02*
X148560000Y-98240000D01*
X150730000Y-92950000D02*
X150730000Y-93260000D01*
X150730000Y-93260000D02*
X150250000Y-93740000D01*
X150730000Y-90740000D02*
X150730000Y-91370000D01*
X151210000Y-90260000D02*
X150730000Y-90740000D01*
X152130000Y-90260000D02*
X151210000Y-90260000D01*
X150730000Y-91370000D02*
X148580000Y-91370000D01*
X148580000Y-91370000D02*
X148560000Y-91350000D01*
X150730000Y-92950000D02*
X148560000Y-92950000D01*
X148560000Y-92950000D02*
X148735000Y-92950000D01*
X148735000Y-92950000D02*
X148860000Y-92825000D01*
X146960000Y-93850000D02*
X146960000Y-92950000D01*
X147760000Y-92950000D02*
X147760000Y-92350000D01*
X147760000Y-92350000D02*
X147560000Y-92150000D01*
X146960000Y-92950000D02*
X146960000Y-92360000D01*
X146960000Y-92360000D02*
X146750000Y-92150000D01*
X146160000Y-92950000D02*
X146160000Y-92290000D01*
X146160000Y-92290000D02*
X146020000Y-92150000D01*
X145360000Y-92150000D02*
X146020000Y-92150000D01*
X146020000Y-92150000D02*
X146750000Y-92150000D01*
X146750000Y-92150000D02*
X147560000Y-92150000D01*
X147560000Y-92150000D02*
X148560000Y-92150000D01*
X148560000Y-92150000D02*
X151670000Y-92150000D01*
X151670000Y-92150000D02*
X151830000Y-92310000D01*
X151830000Y-91370000D02*
X151830000Y-92310000D01*
X151830000Y-92310000D02*
X151830000Y-92950000D01*
X140100000Y-105200000D02*
X140100000Y-104890000D01*
X139650000Y-105650000D02*
X140100000Y-105200000D01*
X140080000Y-103290000D02*
X140080000Y-102820000D01*
X140800000Y-102100000D02*
X141590000Y-102100000D01*
X140080000Y-102820000D02*
X140800000Y-102100000D01*
X140080000Y-103290000D02*
X137990000Y-103290000D01*
X137990000Y-104890000D02*
X138165000Y-104890000D01*
X138165000Y-104890000D02*
X138290000Y-104765000D01*
X140100000Y-104890000D02*
X137990000Y-104890000D01*
X136390000Y-104890000D02*
X136390000Y-105770000D01*
X141200000Y-104890000D02*
X141200000Y-104230000D01*
X141200000Y-104230000D02*
X141060000Y-104090000D01*
X137990000Y-104090000D02*
X141060000Y-104090000D01*
X141060000Y-104090000D02*
X141200000Y-104090000D01*
X141180000Y-104070000D02*
X141180000Y-103290000D01*
X141200000Y-104090000D02*
X141180000Y-104070000D01*
X137190000Y-104890000D02*
X137190000Y-104300000D01*
X137190000Y-104300000D02*
X136980000Y-104090000D01*
X136390000Y-104890000D02*
X136390000Y-104310000D01*
X136390000Y-104310000D02*
X136170000Y-104090000D01*
X135590000Y-104890000D02*
X135590000Y-104280000D01*
X135590000Y-104280000D02*
X135400000Y-104090000D01*
X134790000Y-104090000D02*
X135400000Y-104090000D01*
X135400000Y-104090000D02*
X136170000Y-104090000D01*
X136170000Y-104090000D02*
X136980000Y-104090000D01*
X136980000Y-104090000D02*
X137990000Y-104090000D01*
X140090000Y-99080000D02*
X140090000Y-99390000D01*
X140090000Y-99390000D02*
X139570000Y-99910000D01*
X140090000Y-97480000D02*
X140090000Y-96960000D01*
X140720000Y-96330000D02*
X141560000Y-96330000D01*
X140090000Y-96960000D02*
X140720000Y-96330000D01*
X140090000Y-99080000D02*
X138030000Y-99080000D01*
X138030000Y-99080000D02*
X137990000Y-99040000D01*
X137990000Y-99040000D02*
X138165000Y-99040000D01*
X138165000Y-99040000D02*
X138290000Y-98915000D01*
X137990000Y-97440000D02*
X140050000Y-97440000D01*
X140050000Y-97440000D02*
X140090000Y-97480000D01*
X136390000Y-100080000D02*
X136390000Y-99040000D01*
X141190000Y-99080000D02*
X141190000Y-98240000D01*
X137990000Y-98240000D02*
X141190000Y-98240000D01*
X141190000Y-98240000D02*
X141190000Y-97480000D01*
X137190000Y-99040000D02*
X137190000Y-98470000D01*
X137190000Y-98470000D02*
X136960000Y-98240000D01*
X136390000Y-99040000D02*
X136390000Y-98450000D01*
X136390000Y-98450000D02*
X136180000Y-98240000D01*
X135590000Y-99040000D02*
X135590000Y-98430000D01*
X135590000Y-98430000D02*
X135400000Y-98240000D01*
X134790000Y-98240000D02*
X135400000Y-98240000D01*
X135400000Y-98240000D02*
X136180000Y-98240000D01*
X136180000Y-98240000D02*
X136960000Y-98240000D01*
X136960000Y-98240000D02*
X137990000Y-98240000D01*
X140130000Y-93260000D02*
X140130000Y-92940000D01*
X139550000Y-93840000D02*
X140130000Y-93260000D01*
X140140000Y-91340000D02*
X140140000Y-90780000D01*
X140600000Y-90320000D02*
X141570000Y-90320000D01*
X140140000Y-90780000D02*
X140600000Y-90320000D01*
X137970000Y-92950000D02*
X140120000Y-92950000D01*
X140120000Y-92950000D02*
X140130000Y-92940000D01*
X137970000Y-92950000D02*
X138145000Y-92950000D01*
X138145000Y-92950000D02*
X138270000Y-92825000D01*
X137970000Y-91350000D02*
X140130000Y-91350000D01*
X140130000Y-91350000D02*
X140140000Y-91340000D01*
X136370000Y-92950000D02*
X136370000Y-93920000D01*
X136370000Y-93920000D02*
X136370000Y-93940000D01*
X141230000Y-92940000D02*
X141230000Y-92160000D01*
X141230000Y-92160000D02*
X141240000Y-92150000D01*
X137970000Y-92150000D02*
X141240000Y-92150000D01*
X141240000Y-92150000D02*
X141240000Y-91340000D01*
X137170000Y-92950000D02*
X137170000Y-92320000D01*
X137170000Y-92320000D02*
X137000000Y-92150000D01*
X136370000Y-92950000D02*
X136370000Y-92370000D01*
X136370000Y-92370000D02*
X136150000Y-92150000D01*
X135570000Y-92950000D02*
X135570000Y-92320000D01*
X135570000Y-92320000D02*
X135400000Y-92150000D01*
X134770000Y-92150000D02*
X135400000Y-92150000D01*
X135400000Y-92150000D02*
X136150000Y-92150000D01*
X136150000Y-92150000D02*
X137000000Y-92150000D01*
X137000000Y-92150000D02*
X137970000Y-92150000D01*
X147760000Y-97440000D02*
X147760000Y-96590000D01*
X148080000Y-96270000D02*
X149150000Y-96270000D01*
X147760000Y-96590000D02*
X148080000Y-96270000D01*
X145360000Y-99040000D02*
X144540000Y-99040000D01*
X144420000Y-96700000D02*
X144720000Y-96400000D01*
X144420000Y-98920000D02*
X144420000Y-96700000D01*
X144540000Y-99040000D02*
X144420000Y-98920000D01*
X145870000Y-96180000D02*
X146500000Y-96180000D01*
X146500000Y-96180000D02*
X146960000Y-96640000D01*
X146960000Y-97440000D02*
X146960000Y-96640000D01*
X147760000Y-91350000D02*
X147760000Y-90490000D01*
X148090000Y-90160000D02*
X149090000Y-90160000D01*
X147760000Y-90490000D02*
X148090000Y-90160000D01*
X145360000Y-92950000D02*
X144750000Y-92950000D01*
X144430000Y-90590000D02*
X144720000Y-90300000D01*
X144430000Y-92630000D02*
X144430000Y-90590000D01*
X144750000Y-92950000D02*
X144430000Y-92630000D01*
X146960000Y-90180000D02*
X146960000Y-91350000D01*
X145970000Y-90180000D02*
X146960000Y-90180000D01*
X137190000Y-103290000D02*
X137190000Y-102430000D01*
X137520000Y-102100000D02*
X138540000Y-102100000D01*
X137190000Y-102430000D02*
X137520000Y-102100000D01*
X134790000Y-104890000D02*
X134140000Y-104890000D01*
X133850000Y-102510000D02*
X134210000Y-102150000D01*
X133850000Y-104600000D02*
X133850000Y-102510000D01*
X134140000Y-104890000D02*
X133850000Y-104600000D01*
X136390000Y-102090000D02*
X136390000Y-103290000D01*
X136450000Y-102030000D02*
X136390000Y-102090000D01*
X135460000Y-102030000D02*
X136450000Y-102030000D01*
X137190000Y-97440000D02*
X137190000Y-96440000D01*
X137410000Y-96220000D02*
X138540000Y-96220000D01*
X137190000Y-96440000D02*
X137410000Y-96220000D01*
X134790000Y-99040000D02*
X134170000Y-99040000D01*
X133960000Y-96600000D02*
X134270000Y-96290000D01*
X133960000Y-98830000D02*
X133960000Y-96600000D01*
X134170000Y-99040000D02*
X133960000Y-98830000D01*
X136390000Y-96410000D02*
X136390000Y-97440000D01*
X136220000Y-96240000D02*
X136390000Y-96410000D01*
X135440000Y-96240000D02*
X136220000Y-96240000D01*
X137170000Y-91350000D02*
X137170000Y-90510000D01*
X137520000Y-90160000D02*
X138540000Y-90160000D01*
X137170000Y-90510000D02*
X137520000Y-90160000D01*
X134770000Y-92950000D02*
X134320000Y-92950000D01*
X133880000Y-90570000D02*
X134230000Y-90220000D01*
X133880000Y-92510000D02*
X133880000Y-90570000D01*
X134320000Y-92950000D02*
X133880000Y-92510000D01*
X136370000Y-90430000D02*
X136370000Y-91350000D01*
X136110000Y-90170000D02*
X136370000Y-90430000D01*
X135500000Y-90170000D02*
X136110000Y-90170000D01*
X135490000Y-90160000D02*
X135500000Y-90170000D01*
M02*
