G04 #@! TF.FileFunction,Legend,Top*
%FSLAX46Y46*%
G04 Gerber Fmt 4.6, Leading zero omitted, Abs format (unit mm)*
G04 Created by KiCad (PCBNEW 4.0.7-e2-6376~58~ubuntu16.04.1) date Tue Jul 31 21:03:08 2018*
%MOMM*%
%LPD*%
G01*
G04 APERTURE LIST*
%ADD10C,0.100000*%
%ADD11C,0.200000*%
%ADD12C,0.150000*%
%ADD13C,0.120000*%
G04 APERTURE END LIST*
D10*
D11*
X133080000Y-101110000D02*
X152830000Y-101110000D01*
X152830000Y-95160000D02*
X152830000Y-95140000D01*
X133080000Y-95160000D02*
X152830000Y-95160000D01*
X143610000Y-107060000D02*
X143610000Y-89240000D01*
X142390000Y-89230000D02*
X142390000Y-107070000D01*
X133080000Y-89240000D02*
X133080000Y-89330000D01*
X152830000Y-89240000D02*
X133080000Y-89240000D01*
X152830000Y-107070000D02*
X152830000Y-89240000D01*
X133080000Y-107070000D02*
X152830000Y-107070000D01*
X133080000Y-89340000D02*
X133080000Y-107070000D01*
D12*
X149487475Y-105400000D02*
G75*
G03X149487475Y-105400000I-127475J0D01*
G01*
X148560000Y-105400000D02*
X144560000Y-105400000D01*
X144560000Y-105400000D02*
X144560000Y-102800000D01*
X144560000Y-102800000D02*
X149360000Y-102800000D01*
X149360000Y-102800000D02*
X149360000Y-105400000D01*
X149360000Y-105400000D02*
X148560000Y-105400000D01*
D13*
X151420000Y-104560000D02*
X150920000Y-104560000D01*
X150920000Y-105500000D02*
X151420000Y-105500000D01*
X151420000Y-102830000D02*
X150920000Y-102830000D01*
X150920000Y-103770000D02*
X151420000Y-103770000D01*
X151350000Y-98480000D02*
X150850000Y-98480000D01*
X150850000Y-99420000D02*
X151350000Y-99420000D01*
X151350000Y-96980000D02*
X150850000Y-96980000D01*
X150850000Y-97920000D02*
X151350000Y-97920000D01*
X151530000Y-92480000D02*
X151030000Y-92480000D01*
X151030000Y-93420000D02*
X151530000Y-93420000D01*
X140900000Y-104420000D02*
X140400000Y-104420000D01*
X140400000Y-105360000D02*
X140900000Y-105360000D01*
X151530000Y-90900000D02*
X151030000Y-90900000D01*
X151030000Y-91840000D02*
X151530000Y-91840000D01*
X140880000Y-102820000D02*
X140380000Y-102820000D01*
X140380000Y-103760000D02*
X140880000Y-103760000D01*
X140890000Y-98610000D02*
X140390000Y-98610000D01*
X140390000Y-99550000D02*
X140890000Y-99550000D01*
X140930000Y-92470000D02*
X140430000Y-92470000D01*
X140430000Y-93410000D02*
X140930000Y-93410000D01*
X140890000Y-97010000D02*
X140390000Y-97010000D01*
X140390000Y-97950000D02*
X140890000Y-97950000D01*
X140940000Y-90870000D02*
X140440000Y-90870000D01*
X140440000Y-91810000D02*
X140940000Y-91810000D01*
D12*
X149487475Y-99540000D02*
G75*
G03X149487475Y-99540000I-127475J0D01*
G01*
X148560000Y-99540000D02*
X144560000Y-99540000D01*
X144560000Y-99540000D02*
X144560000Y-96940000D01*
X144560000Y-96940000D02*
X149360000Y-96940000D01*
X149360000Y-96940000D02*
X149360000Y-99540000D01*
X149360000Y-99540000D02*
X148560000Y-99540000D01*
X149487475Y-93450000D02*
G75*
G03X149487475Y-93450000I-127475J0D01*
G01*
X148560000Y-93450000D02*
X144560000Y-93450000D01*
X144560000Y-93450000D02*
X144560000Y-90850000D01*
X144560000Y-90850000D02*
X149360000Y-90850000D01*
X149360000Y-90850000D02*
X149360000Y-93450000D01*
X149360000Y-93450000D02*
X148560000Y-93450000D01*
X138917475Y-105390000D02*
G75*
G03X138917475Y-105390000I-127475J0D01*
G01*
X137990000Y-105390000D02*
X133990000Y-105390000D01*
X133990000Y-105390000D02*
X133990000Y-102790000D01*
X133990000Y-102790000D02*
X138790000Y-102790000D01*
X138790000Y-102790000D02*
X138790000Y-105390000D01*
X138790000Y-105390000D02*
X137990000Y-105390000D01*
X138917475Y-99540000D02*
G75*
G03X138917475Y-99540000I-127475J0D01*
G01*
X137990000Y-99540000D02*
X133990000Y-99540000D01*
X133990000Y-99540000D02*
X133990000Y-96940000D01*
X133990000Y-96940000D02*
X138790000Y-96940000D01*
X138790000Y-96940000D02*
X138790000Y-99540000D01*
X138790000Y-99540000D02*
X137990000Y-99540000D01*
X138897475Y-93450000D02*
G75*
G03X138897475Y-93450000I-127475J0D01*
G01*
X137970000Y-93450000D02*
X133970000Y-93450000D01*
X133970000Y-93450000D02*
X133970000Y-90850000D01*
X133970000Y-90850000D02*
X138770000Y-90850000D01*
X138770000Y-90850000D02*
X138770000Y-93450000D01*
X138770000Y-93450000D02*
X137970000Y-93450000D01*
D10*
X144319048Y-105666190D02*
X144319048Y-106070952D01*
X144342857Y-106118571D01*
X144366667Y-106142381D01*
X144414286Y-106166190D01*
X144509524Y-106166190D01*
X144557143Y-106142381D01*
X144580952Y-106118571D01*
X144604762Y-106070952D01*
X144604762Y-105666190D01*
X145104762Y-106166190D02*
X144819048Y-106166190D01*
X144961905Y-106166190D02*
X144961905Y-105666190D01*
X144914286Y-105737619D01*
X144866667Y-105785238D01*
X144819048Y-105809048D01*
X150976667Y-106108571D02*
X150952857Y-106132381D01*
X150881429Y-106156190D01*
X150833810Y-106156190D01*
X150762381Y-106132381D01*
X150714762Y-106084762D01*
X150690953Y-106037143D01*
X150667143Y-105941905D01*
X150667143Y-105870476D01*
X150690953Y-105775238D01*
X150714762Y-105727619D01*
X150762381Y-105680000D01*
X150833810Y-105656190D01*
X150881429Y-105656190D01*
X150952857Y-105680000D01*
X150976667Y-105703810D01*
X151452857Y-106156190D02*
X151167143Y-106156190D01*
X151310000Y-106156190D02*
X151310000Y-105656190D01*
X151262381Y-105727619D01*
X151214762Y-105775238D01*
X151167143Y-105799048D01*
X150976667Y-102448571D02*
X150952857Y-102472381D01*
X150881429Y-102496190D01*
X150833810Y-102496190D01*
X150762381Y-102472381D01*
X150714762Y-102424762D01*
X150690953Y-102377143D01*
X150667143Y-102281905D01*
X150667143Y-102210476D01*
X150690953Y-102115238D01*
X150714762Y-102067619D01*
X150762381Y-102020000D01*
X150833810Y-101996190D01*
X150881429Y-101996190D01*
X150952857Y-102020000D01*
X150976667Y-102043810D01*
X151167143Y-102043810D02*
X151190953Y-102020000D01*
X151238572Y-101996190D01*
X151357619Y-101996190D01*
X151405238Y-102020000D01*
X151429048Y-102043810D01*
X151452857Y-102091429D01*
X151452857Y-102139048D01*
X151429048Y-102210476D01*
X151143334Y-102496190D01*
X151452857Y-102496190D01*
X151006667Y-99998571D02*
X150982857Y-100022381D01*
X150911429Y-100046190D01*
X150863810Y-100046190D01*
X150792381Y-100022381D01*
X150744762Y-99974762D01*
X150720953Y-99927143D01*
X150697143Y-99831905D01*
X150697143Y-99760476D01*
X150720953Y-99665238D01*
X150744762Y-99617619D01*
X150792381Y-99570000D01*
X150863810Y-99546190D01*
X150911429Y-99546190D01*
X150982857Y-99570000D01*
X151006667Y-99593810D01*
X151173334Y-99546190D02*
X151482857Y-99546190D01*
X151316191Y-99736667D01*
X151387619Y-99736667D01*
X151435238Y-99760476D01*
X151459048Y-99784286D01*
X151482857Y-99831905D01*
X151482857Y-99950952D01*
X151459048Y-99998571D01*
X151435238Y-100022381D01*
X151387619Y-100046190D01*
X151244762Y-100046190D01*
X151197143Y-100022381D01*
X151173334Y-99998571D01*
X151036667Y-96638571D02*
X151012857Y-96662381D01*
X150941429Y-96686190D01*
X150893810Y-96686190D01*
X150822381Y-96662381D01*
X150774762Y-96614762D01*
X150750953Y-96567143D01*
X150727143Y-96471905D01*
X150727143Y-96400476D01*
X150750953Y-96305238D01*
X150774762Y-96257619D01*
X150822381Y-96210000D01*
X150893810Y-96186190D01*
X150941429Y-96186190D01*
X151012857Y-96210000D01*
X151036667Y-96233810D01*
X151465238Y-96352857D02*
X151465238Y-96686190D01*
X151346191Y-96162381D02*
X151227143Y-96519524D01*
X151536667Y-96519524D01*
X151156667Y-94018571D02*
X151132857Y-94042381D01*
X151061429Y-94066190D01*
X151013810Y-94066190D01*
X150942381Y-94042381D01*
X150894762Y-93994762D01*
X150870953Y-93947143D01*
X150847143Y-93851905D01*
X150847143Y-93780476D01*
X150870953Y-93685238D01*
X150894762Y-93637619D01*
X150942381Y-93590000D01*
X151013810Y-93566190D01*
X151061429Y-93566190D01*
X151132857Y-93590000D01*
X151156667Y-93613810D01*
X151609048Y-93566190D02*
X151370953Y-93566190D01*
X151347143Y-93804286D01*
X151370953Y-93780476D01*
X151418572Y-93756667D01*
X151537619Y-93756667D01*
X151585238Y-93780476D01*
X151609048Y-93804286D01*
X151632857Y-93851905D01*
X151632857Y-93970952D01*
X151609048Y-94018571D01*
X151585238Y-94042381D01*
X151537619Y-94066190D01*
X151418572Y-94066190D01*
X151370953Y-94042381D01*
X151347143Y-94018571D01*
X140546667Y-105988571D02*
X140522857Y-106012381D01*
X140451429Y-106036190D01*
X140403810Y-106036190D01*
X140332381Y-106012381D01*
X140284762Y-105964762D01*
X140260953Y-105917143D01*
X140237143Y-105821905D01*
X140237143Y-105750476D01*
X140260953Y-105655238D01*
X140284762Y-105607619D01*
X140332381Y-105560000D01*
X140403810Y-105536190D01*
X140451429Y-105536190D01*
X140522857Y-105560000D01*
X140546667Y-105583810D01*
X140975238Y-105536190D02*
X140880000Y-105536190D01*
X140832381Y-105560000D01*
X140808572Y-105583810D01*
X140760953Y-105655238D01*
X140737143Y-105750476D01*
X140737143Y-105940952D01*
X140760953Y-105988571D01*
X140784762Y-106012381D01*
X140832381Y-106036190D01*
X140927619Y-106036190D01*
X140975238Y-106012381D01*
X140999048Y-105988571D01*
X141022857Y-105940952D01*
X141022857Y-105821905D01*
X140999048Y-105774286D01*
X140975238Y-105750476D01*
X140927619Y-105726667D01*
X140832381Y-105726667D01*
X140784762Y-105750476D01*
X140760953Y-105774286D01*
X140737143Y-105821905D01*
X151196667Y-90608571D02*
X151172857Y-90632381D01*
X151101429Y-90656190D01*
X151053810Y-90656190D01*
X150982381Y-90632381D01*
X150934762Y-90584762D01*
X150910953Y-90537143D01*
X150887143Y-90441905D01*
X150887143Y-90370476D01*
X150910953Y-90275238D01*
X150934762Y-90227619D01*
X150982381Y-90180000D01*
X151053810Y-90156190D01*
X151101429Y-90156190D01*
X151172857Y-90180000D01*
X151196667Y-90203810D01*
X151363334Y-90156190D02*
X151696667Y-90156190D01*
X151482381Y-90656190D01*
X140566667Y-102508571D02*
X140542857Y-102532381D01*
X140471429Y-102556190D01*
X140423810Y-102556190D01*
X140352381Y-102532381D01*
X140304762Y-102484762D01*
X140280953Y-102437143D01*
X140257143Y-102341905D01*
X140257143Y-102270476D01*
X140280953Y-102175238D01*
X140304762Y-102127619D01*
X140352381Y-102080000D01*
X140423810Y-102056190D01*
X140471429Y-102056190D01*
X140542857Y-102080000D01*
X140566667Y-102103810D01*
X140852381Y-102270476D02*
X140804762Y-102246667D01*
X140780953Y-102222857D01*
X140757143Y-102175238D01*
X140757143Y-102151429D01*
X140780953Y-102103810D01*
X140804762Y-102080000D01*
X140852381Y-102056190D01*
X140947619Y-102056190D01*
X140995238Y-102080000D01*
X141019048Y-102103810D01*
X141042857Y-102151429D01*
X141042857Y-102175238D01*
X141019048Y-102222857D01*
X140995238Y-102246667D01*
X140947619Y-102270476D01*
X140852381Y-102270476D01*
X140804762Y-102294286D01*
X140780953Y-102318095D01*
X140757143Y-102365714D01*
X140757143Y-102460952D01*
X140780953Y-102508571D01*
X140804762Y-102532381D01*
X140852381Y-102556190D01*
X140947619Y-102556190D01*
X140995238Y-102532381D01*
X141019048Y-102508571D01*
X141042857Y-102460952D01*
X141042857Y-102365714D01*
X141019048Y-102318095D01*
X140995238Y-102294286D01*
X140947619Y-102270476D01*
X140446667Y-100188571D02*
X140422857Y-100212381D01*
X140351429Y-100236190D01*
X140303810Y-100236190D01*
X140232381Y-100212381D01*
X140184762Y-100164762D01*
X140160953Y-100117143D01*
X140137143Y-100021905D01*
X140137143Y-99950476D01*
X140160953Y-99855238D01*
X140184762Y-99807619D01*
X140232381Y-99760000D01*
X140303810Y-99736190D01*
X140351429Y-99736190D01*
X140422857Y-99760000D01*
X140446667Y-99783810D01*
X140684762Y-100236190D02*
X140780000Y-100236190D01*
X140827619Y-100212381D01*
X140851429Y-100188571D01*
X140899048Y-100117143D01*
X140922857Y-100021905D01*
X140922857Y-99831429D01*
X140899048Y-99783810D01*
X140875238Y-99760000D01*
X140827619Y-99736190D01*
X140732381Y-99736190D01*
X140684762Y-99760000D01*
X140660953Y-99783810D01*
X140637143Y-99831429D01*
X140637143Y-99950476D01*
X140660953Y-99998095D01*
X140684762Y-100021905D01*
X140732381Y-100045714D01*
X140827619Y-100045714D01*
X140875238Y-100021905D01*
X140899048Y-99998095D01*
X140922857Y-99950476D01*
X140308572Y-94018571D02*
X140284762Y-94042381D01*
X140213334Y-94066190D01*
X140165715Y-94066190D01*
X140094286Y-94042381D01*
X140046667Y-93994762D01*
X140022858Y-93947143D01*
X139999048Y-93851905D01*
X139999048Y-93780476D01*
X140022858Y-93685238D01*
X140046667Y-93637619D01*
X140094286Y-93590000D01*
X140165715Y-93566190D01*
X140213334Y-93566190D01*
X140284762Y-93590000D01*
X140308572Y-93613810D01*
X140784762Y-94066190D02*
X140499048Y-94066190D01*
X140641905Y-94066190D02*
X140641905Y-93566190D01*
X140594286Y-93637619D01*
X140546667Y-93685238D01*
X140499048Y-93709048D01*
X141094286Y-93566190D02*
X141141905Y-93566190D01*
X141189524Y-93590000D01*
X141213333Y-93613810D01*
X141237143Y-93661429D01*
X141260952Y-93756667D01*
X141260952Y-93875714D01*
X141237143Y-93970952D01*
X141213333Y-94018571D01*
X141189524Y-94042381D01*
X141141905Y-94066190D01*
X141094286Y-94066190D01*
X141046667Y-94042381D01*
X141022857Y-94018571D01*
X140999048Y-93970952D01*
X140975238Y-93875714D01*
X140975238Y-93756667D01*
X140999048Y-93661429D01*
X141022857Y-93613810D01*
X141046667Y-93590000D01*
X141094286Y-93566190D01*
X140318572Y-96688571D02*
X140294762Y-96712381D01*
X140223334Y-96736190D01*
X140175715Y-96736190D01*
X140104286Y-96712381D01*
X140056667Y-96664762D01*
X140032858Y-96617143D01*
X140009048Y-96521905D01*
X140009048Y-96450476D01*
X140032858Y-96355238D01*
X140056667Y-96307619D01*
X140104286Y-96260000D01*
X140175715Y-96236190D01*
X140223334Y-96236190D01*
X140294762Y-96260000D01*
X140318572Y-96283810D01*
X140794762Y-96736190D02*
X140509048Y-96736190D01*
X140651905Y-96736190D02*
X140651905Y-96236190D01*
X140604286Y-96307619D01*
X140556667Y-96355238D01*
X140509048Y-96379048D01*
X141270952Y-96736190D02*
X140985238Y-96736190D01*
X141128095Y-96736190D02*
X141128095Y-96236190D01*
X141080476Y-96307619D01*
X141032857Y-96355238D01*
X140985238Y-96379048D01*
X140428572Y-90598571D02*
X140404762Y-90622381D01*
X140333334Y-90646190D01*
X140285715Y-90646190D01*
X140214286Y-90622381D01*
X140166667Y-90574762D01*
X140142858Y-90527143D01*
X140119048Y-90431905D01*
X140119048Y-90360476D01*
X140142858Y-90265238D01*
X140166667Y-90217619D01*
X140214286Y-90170000D01*
X140285715Y-90146190D01*
X140333334Y-90146190D01*
X140404762Y-90170000D01*
X140428572Y-90193810D01*
X140904762Y-90646190D02*
X140619048Y-90646190D01*
X140761905Y-90646190D02*
X140761905Y-90146190D01*
X140714286Y-90217619D01*
X140666667Y-90265238D01*
X140619048Y-90289048D01*
X141095238Y-90193810D02*
X141119048Y-90170000D01*
X141166667Y-90146190D01*
X141285714Y-90146190D01*
X141333333Y-90170000D01*
X141357143Y-90193810D01*
X141380952Y-90241429D01*
X141380952Y-90289048D01*
X141357143Y-90360476D01*
X141071429Y-90646190D01*
X141380952Y-90646190D01*
X144329048Y-99786190D02*
X144329048Y-100190952D01*
X144352857Y-100238571D01*
X144376667Y-100262381D01*
X144424286Y-100286190D01*
X144519524Y-100286190D01*
X144567143Y-100262381D01*
X144590952Y-100238571D01*
X144614762Y-100190952D01*
X144614762Y-99786190D01*
X144829048Y-99833810D02*
X144852858Y-99810000D01*
X144900477Y-99786190D01*
X145019524Y-99786190D01*
X145067143Y-99810000D01*
X145090953Y-99833810D01*
X145114762Y-99881429D01*
X145114762Y-99929048D01*
X145090953Y-100000476D01*
X144805239Y-100286190D01*
X145114762Y-100286190D01*
X144319048Y-93786190D02*
X144319048Y-94190952D01*
X144342857Y-94238571D01*
X144366667Y-94262381D01*
X144414286Y-94286190D01*
X144509524Y-94286190D01*
X144557143Y-94262381D01*
X144580952Y-94238571D01*
X144604762Y-94190952D01*
X144604762Y-93786190D01*
X144795239Y-93786190D02*
X145104762Y-93786190D01*
X144938096Y-93976667D01*
X145009524Y-93976667D01*
X145057143Y-94000476D01*
X145080953Y-94024286D01*
X145104762Y-94071905D01*
X145104762Y-94190952D01*
X145080953Y-94238571D01*
X145057143Y-94262381D01*
X145009524Y-94286190D01*
X144866667Y-94286190D01*
X144819048Y-94262381D01*
X144795239Y-94238571D01*
X133749048Y-105766190D02*
X133749048Y-106170952D01*
X133772857Y-106218571D01*
X133796667Y-106242381D01*
X133844286Y-106266190D01*
X133939524Y-106266190D01*
X133987143Y-106242381D01*
X134010952Y-106218571D01*
X134034762Y-106170952D01*
X134034762Y-105766190D01*
X134487143Y-105932857D02*
X134487143Y-106266190D01*
X134368096Y-105742381D02*
X134249048Y-106099524D01*
X134558572Y-106099524D01*
X133699048Y-99906190D02*
X133699048Y-100310952D01*
X133722857Y-100358571D01*
X133746667Y-100382381D01*
X133794286Y-100406190D01*
X133889524Y-100406190D01*
X133937143Y-100382381D01*
X133960952Y-100358571D01*
X133984762Y-100310952D01*
X133984762Y-99906190D01*
X134460953Y-99906190D02*
X134222858Y-99906190D01*
X134199048Y-100144286D01*
X134222858Y-100120476D01*
X134270477Y-100096667D01*
X134389524Y-100096667D01*
X134437143Y-100120476D01*
X134460953Y-100144286D01*
X134484762Y-100191905D01*
X134484762Y-100310952D01*
X134460953Y-100358571D01*
X134437143Y-100382381D01*
X134389524Y-100406190D01*
X134270477Y-100406190D01*
X134222858Y-100382381D01*
X134199048Y-100358571D01*
X133719048Y-93846190D02*
X133719048Y-94250952D01*
X133742857Y-94298571D01*
X133766667Y-94322381D01*
X133814286Y-94346190D01*
X133909524Y-94346190D01*
X133957143Y-94322381D01*
X133980952Y-94298571D01*
X134004762Y-94250952D01*
X134004762Y-93846190D01*
X134457143Y-93846190D02*
X134361905Y-93846190D01*
X134314286Y-93870000D01*
X134290477Y-93893810D01*
X134242858Y-93965238D01*
X134219048Y-94060476D01*
X134219048Y-94250952D01*
X134242858Y-94298571D01*
X134266667Y-94322381D01*
X134314286Y-94346190D01*
X134409524Y-94346190D01*
X134457143Y-94322381D01*
X134480953Y-94298571D01*
X134504762Y-94250952D01*
X134504762Y-94131905D01*
X134480953Y-94084286D01*
X134457143Y-94060476D01*
X134409524Y-94036667D01*
X134314286Y-94036667D01*
X134266667Y-94060476D01*
X134242858Y-94084286D01*
X134219048Y-94131905D01*
M02*
