G04 #@! TF.FileFunction,Copper,L2,Bot,Signal*
%FSLAX46Y46*%
G04 Gerber Fmt 4.6, Leading zero omitted, Abs format (unit mm)*
G04 Created by KiCad (PCBNEW 4.0.7-e2-6376~58~ubuntu16.04.1) date Tue Jul 31 21:03:08 2018*
%MOMM*%
%LPD*%
G01*
G04 APERTURE LIST*
%ADD10C,0.100000*%
%ADD11R,1.000000X1.500000*%
%ADD12C,0.600000*%
%ADD13C,0.250000*%
G04 APERTURE END LIST*
D10*
D11*
X149800000Y-103050000D03*
X147300000Y-103050000D03*
X151060000Y-105350000D03*
X148560000Y-105350000D03*
X146060000Y-105350000D03*
X149790000Y-97160000D03*
X147290000Y-97160000D03*
X151060000Y-99490000D03*
X148560000Y-99490000D03*
X146060000Y-99490000D03*
X149790000Y-91110000D03*
X147290000Y-91110000D03*
X151060000Y-93400000D03*
X148560000Y-93400000D03*
X146060000Y-93400000D03*
X139240000Y-103050000D03*
X136740000Y-103050000D03*
X140470000Y-105340000D03*
X137970000Y-105340000D03*
X135470000Y-105340000D03*
X139240000Y-97170000D03*
X136740000Y-97170000D03*
X140470000Y-99480000D03*
X137970000Y-99480000D03*
X135470000Y-99480000D03*
X139240000Y-91110000D03*
X136740000Y-91110000D03*
X140470000Y-93400000D03*
X137970000Y-93400000D03*
X135470000Y-93400000D03*
D12*
X151900000Y-102280000D03*
X150060000Y-105670000D03*
X146960000Y-105700000D03*
X149200000Y-102150000D03*
X144900000Y-102180000D03*
X146100000Y-102220000D03*
X150130000Y-99790000D03*
X151810000Y-96450000D03*
X146960000Y-100060000D03*
X150250000Y-93740000D03*
X152130000Y-90260000D03*
X146960000Y-93850000D03*
X139650000Y-105650000D03*
X141590000Y-102100000D03*
X136390000Y-105770000D03*
X139570000Y-99910000D03*
X141560000Y-96330000D03*
X136390000Y-100080000D03*
X139550000Y-93840000D03*
X141570000Y-90320000D03*
X136370000Y-93940000D03*
X149150000Y-96270000D03*
X144720000Y-96400000D03*
X145870000Y-96180000D03*
X149090000Y-90160000D03*
X144720000Y-90300000D03*
X145970000Y-90180000D03*
X138540000Y-102100000D03*
X134210000Y-102150000D03*
X135460000Y-102030000D03*
X138540000Y-96220000D03*
X134270000Y-96290000D03*
X135440000Y-96240000D03*
X138540000Y-90160000D03*
X134230000Y-90220000D03*
X135490000Y-90160000D03*
D13*
X151060000Y-105350000D02*
X151060000Y-103120000D01*
X151060000Y-103120000D02*
X151900000Y-102280000D01*
X151060000Y-105350000D02*
X150380000Y-105350000D01*
X150380000Y-105350000D02*
X150060000Y-105670000D01*
X146610000Y-105350000D02*
X146060000Y-105350000D01*
X146960000Y-105700000D02*
X146610000Y-105350000D01*
X149200000Y-102150000D02*
X149800000Y-102750000D01*
X149800000Y-102750000D02*
X149800000Y-103050000D01*
X145770000Y-103050000D02*
X147300000Y-103050000D01*
X144900000Y-102180000D02*
X145770000Y-103050000D01*
X148560000Y-105350000D02*
X148560000Y-102260000D01*
X146360000Y-101960000D02*
X146100000Y-102220000D01*
X148260000Y-101960000D02*
X146360000Y-101960000D01*
X148560000Y-102260000D02*
X148260000Y-101960000D01*
X151060000Y-99490000D02*
X150430000Y-99490000D01*
X150430000Y-99490000D02*
X150130000Y-99790000D01*
X151060000Y-97200000D02*
X151060000Y-99490000D01*
X151810000Y-96450000D02*
X151060000Y-97200000D01*
X146960000Y-100060000D02*
X146390000Y-99490000D01*
X146390000Y-99490000D02*
X146060000Y-99490000D01*
X150250000Y-93740000D02*
X150590000Y-93400000D01*
X150590000Y-93400000D02*
X151060000Y-93400000D01*
X151060000Y-93400000D02*
X151060000Y-91330000D01*
X151060000Y-91330000D02*
X152130000Y-90260000D01*
X146060000Y-93400000D02*
X146510000Y-93400000D01*
X146510000Y-93400000D02*
X146960000Y-93850000D01*
X140470000Y-105340000D02*
X139960000Y-105340000D01*
X139960000Y-105340000D02*
X139650000Y-105650000D01*
X140470000Y-103220000D02*
X140470000Y-105340000D01*
X141590000Y-102100000D02*
X140470000Y-103220000D01*
X136390000Y-105770000D02*
X135960000Y-105340000D01*
X135960000Y-105340000D02*
X135470000Y-105340000D01*
X139570000Y-99910000D02*
X140000000Y-99480000D01*
X140000000Y-99480000D02*
X140470000Y-99480000D01*
X140470000Y-97420000D02*
X140470000Y-99480000D01*
X141560000Y-96330000D02*
X140470000Y-97420000D01*
X135470000Y-99480000D02*
X135790000Y-99480000D01*
X135790000Y-99480000D02*
X136390000Y-100080000D01*
X140470000Y-93400000D02*
X139990000Y-93400000D01*
X139990000Y-93400000D02*
X139550000Y-93840000D01*
X140470000Y-91420000D02*
X140470000Y-93400000D01*
X141570000Y-90320000D02*
X140470000Y-91420000D01*
X136370000Y-93940000D02*
X135830000Y-93400000D01*
X135830000Y-93400000D02*
X135470000Y-93400000D01*
X149150000Y-96270000D02*
X149790000Y-96910000D01*
X149790000Y-96910000D02*
X149790000Y-97160000D01*
X145480000Y-97160000D02*
X147290000Y-97160000D01*
X144720000Y-96400000D02*
X145480000Y-97160000D01*
X145870000Y-96180000D02*
X146120000Y-96180000D01*
X146260000Y-96040000D02*
X148070000Y-96040000D01*
X146120000Y-96180000D02*
X146260000Y-96040000D01*
X148560000Y-99490000D02*
X148560000Y-96530000D01*
X148560000Y-96530000D02*
X148070000Y-96040000D01*
X149090000Y-90160000D02*
X149790000Y-90860000D01*
X149790000Y-90860000D02*
X149790000Y-91110000D01*
X145530000Y-91110000D02*
X147290000Y-91110000D01*
X144720000Y-90300000D02*
X145530000Y-91110000D01*
X148560000Y-93400000D02*
X148560000Y-90510000D01*
X146130000Y-90020000D02*
X145970000Y-90180000D01*
X148070000Y-90020000D02*
X146130000Y-90020000D01*
X148560000Y-90510000D02*
X148070000Y-90020000D01*
X138540000Y-102100000D02*
X139240000Y-102800000D01*
X139240000Y-102800000D02*
X139240000Y-103050000D01*
X135110000Y-103050000D02*
X136740000Y-103050000D01*
X134210000Y-102150000D02*
X135110000Y-103050000D01*
X137970000Y-105340000D02*
X137970000Y-102400000D01*
X135530000Y-101960000D02*
X135460000Y-102030000D01*
X137530000Y-101960000D02*
X135530000Y-101960000D01*
X137970000Y-102400000D02*
X137530000Y-101960000D01*
X138540000Y-96220000D02*
X139240000Y-96920000D01*
X139240000Y-96920000D02*
X139240000Y-97170000D01*
X135150000Y-97170000D02*
X136740000Y-97170000D01*
X134270000Y-96290000D02*
X135150000Y-97170000D01*
X137970000Y-99480000D02*
X137970000Y-96520000D01*
X135630000Y-96050000D02*
X135440000Y-96240000D01*
X137500000Y-96050000D02*
X135630000Y-96050000D01*
X137970000Y-96520000D02*
X137500000Y-96050000D01*
X138540000Y-90160000D02*
X139240000Y-90860000D01*
X139240000Y-90860000D02*
X139240000Y-91110000D01*
X135120000Y-91110000D02*
X136740000Y-91110000D01*
X134230000Y-90220000D02*
X135120000Y-91110000D01*
X137970000Y-93400000D02*
X137970000Y-90500000D01*
X135660000Y-89990000D02*
X135490000Y-90160000D01*
X137460000Y-89990000D02*
X135660000Y-89990000D01*
X137970000Y-90500000D02*
X137460000Y-89990000D01*
M02*
