G04 #@! TF.FileFunction,Soldermask,Top*
%FSLAX46Y46*%
G04 Gerber Fmt 4.6, Leading zero omitted, Abs format (unit mm)*
G04 Created by KiCad (PCBNEW 4.0.7-e2-6376~58~ubuntu16.04.1) date Fri Aug  3 20:43:21 2018*
%MOMM*%
%LPD*%
G01*
G04 APERTURE LIST*
%ADD10C,0.100000*%
%ADD11R,0.800000X0.800000*%
%ADD12R,2.400000X0.800000*%
%ADD13R,0.800000X1.400000*%
%ADD14R,0.800000X2.400000*%
%ADD15C,1.450000*%
%ADD16R,1.450000X1.450000*%
%ADD17R,0.900000X1.650000*%
%ADD18R,0.900000X0.900000*%
%ADD19R,0.650000X0.650000*%
%ADD20R,1.650000X0.900000*%
%ADD21R,1.000000X0.900000*%
%ADD22R,1.100000X1.000000*%
%ADD23R,1.000000X0.800000*%
%ADD24R,4.000000X1.200000*%
%ADD25R,3.000000X1.100000*%
%ADD26R,3.000000X1.200000*%
%ADD27R,0.900000X1.000000*%
%ADD28R,0.800000X1.900000*%
%ADD29R,0.800000X3.400000*%
%ADD30R,1.400000X0.800000*%
%ADD31R,3.400000X0.800000*%
%ADD32C,0.800000*%
G04 APERTURE END LIST*
D10*
D11*
X136780000Y-74910000D03*
D12*
X135330000Y-74910000D03*
X141130000Y-74910000D03*
X138230000Y-74910000D03*
D11*
X139680000Y-74910000D03*
X139680000Y-68510000D03*
D12*
X138230000Y-68510000D03*
X141130000Y-68510000D03*
X135330000Y-68510000D03*
D13*
X142330000Y-71710000D03*
D14*
X142330000Y-73710000D03*
X142330000Y-69710000D03*
X134130000Y-69710000D03*
X134130000Y-73710000D03*
D13*
X134130000Y-71710000D03*
D11*
X136780000Y-68510000D03*
D15*
X129600000Y-95750000D03*
X145600000Y-95750000D03*
D16*
X147600000Y-95750000D03*
D15*
X133600000Y-95750000D03*
X131600000Y-95750000D03*
X143600000Y-95750000D03*
X141600000Y-95750000D03*
X135600000Y-95750000D03*
X137600000Y-95750000D03*
X139600000Y-95750000D03*
D17*
X131830000Y-90290000D03*
X129330000Y-90290000D03*
X126830000Y-90290000D03*
X141110000Y-90320000D03*
X138610000Y-90320000D03*
X136110000Y-90320000D03*
X150380000Y-90300000D03*
X147880000Y-90300000D03*
X145380000Y-90300000D03*
X145390000Y-123200000D03*
X147890000Y-123200000D03*
X150390000Y-123200000D03*
X126820000Y-123140000D03*
X129320000Y-123140000D03*
X131820000Y-123140000D03*
D18*
X138940000Y-107310000D03*
X138140000Y-107310000D03*
X137340000Y-107310000D03*
X136540000Y-107310000D03*
X135740000Y-107310000D03*
X135740000Y-106510000D03*
X135740000Y-105710000D03*
X136540000Y-105710000D03*
X137340000Y-105710000D03*
X138140000Y-105710000D03*
X138940000Y-105710000D03*
X138940000Y-106510000D03*
D19*
X139240000Y-107185000D03*
D10*
G36*
X157639328Y-97882602D02*
X156472602Y-99049328D01*
X155836206Y-98412932D01*
X157002932Y-97246206D01*
X157639328Y-97882602D01*
X157639328Y-97882602D01*
G37*
G36*
X155871561Y-96114835D02*
X154704835Y-97281561D01*
X154068439Y-96645165D01*
X155235165Y-95478439D01*
X155871561Y-96114835D01*
X155871561Y-96114835D01*
G37*
G36*
X154103794Y-94347068D02*
X152937068Y-95513794D01*
X152300672Y-94877398D01*
X153467398Y-93710672D01*
X154103794Y-94347068D01*
X154103794Y-94347068D01*
G37*
D20*
X156720000Y-109250000D03*
X156720000Y-106750000D03*
X156720000Y-104250000D03*
X120460000Y-104260000D03*
X120460000Y-106760000D03*
X120460000Y-109260000D03*
D17*
X136100000Y-123200000D03*
X138600000Y-123200000D03*
X141100000Y-123200000D03*
D10*
G36*
X119560672Y-115677398D02*
X120727398Y-114510672D01*
X121363794Y-115147068D01*
X120197068Y-116313794D01*
X119560672Y-115677398D01*
X119560672Y-115677398D01*
G37*
G36*
X121328439Y-117445165D02*
X122495165Y-116278439D01*
X123131561Y-116914835D01*
X121964835Y-118081561D01*
X121328439Y-117445165D01*
X121328439Y-117445165D01*
G37*
G36*
X123096206Y-119212932D02*
X124262932Y-118046206D01*
X124899328Y-118682602D01*
X123732602Y-119849328D01*
X123096206Y-119212932D01*
X123096206Y-119212932D01*
G37*
G36*
X153487398Y-119819328D02*
X152320672Y-118652602D01*
X152957068Y-118016206D01*
X154123794Y-119182932D01*
X153487398Y-119819328D01*
X153487398Y-119819328D01*
G37*
G36*
X155255165Y-118051561D02*
X154088439Y-116884835D01*
X154724835Y-116248439D01*
X155891561Y-117415165D01*
X155255165Y-118051561D01*
X155255165Y-118051561D01*
G37*
G36*
X157022932Y-116283794D02*
X155856206Y-115117068D01*
X156492602Y-114480672D01*
X157659328Y-115647398D01*
X157022932Y-116283794D01*
X157022932Y-116283794D01*
G37*
G36*
X123752602Y-93700672D02*
X124919328Y-94867398D01*
X124282932Y-95503794D01*
X123116206Y-94337068D01*
X123752602Y-93700672D01*
X123752602Y-93700672D01*
G37*
G36*
X121984835Y-95468439D02*
X123151561Y-96635165D01*
X122515165Y-97271561D01*
X121348439Y-96104835D01*
X121984835Y-95468439D01*
X121984835Y-95468439D01*
G37*
G36*
X120217068Y-97236206D02*
X121383794Y-98402932D01*
X120747398Y-99039328D01*
X119580672Y-97872602D01*
X120217068Y-97236206D01*
X120217068Y-97236206D01*
G37*
D21*
X138950000Y-109400000D03*
X140050000Y-109400000D03*
X140250000Y-103425000D03*
X139150000Y-103425000D03*
D22*
X150625000Y-106150000D03*
X150625000Y-107250000D03*
D23*
X150625000Y-103950000D03*
X150625000Y-104850000D03*
X133750000Y-106950000D03*
X133750000Y-106050000D03*
D15*
X129600000Y-117750000D03*
X145600000Y-117750000D03*
D16*
X147600000Y-117750000D03*
D15*
X133600000Y-117750000D03*
X131600000Y-117750000D03*
X143600000Y-117750000D03*
X141600000Y-117750000D03*
X135600000Y-117750000D03*
X137600000Y-117750000D03*
X139600000Y-117750000D03*
D23*
X158410000Y-77775000D03*
X158410000Y-78675000D03*
X158410000Y-75175000D03*
X158410000Y-76075000D03*
X158410000Y-72275000D03*
X158410000Y-73175000D03*
D24*
X163660000Y-70775000D03*
D25*
X163160000Y-76275000D03*
X163160000Y-77545000D03*
X163160000Y-78815000D03*
X163160000Y-75005000D03*
X163160000Y-73735000D03*
X169260000Y-73735000D03*
X169260000Y-78815000D03*
X169260000Y-77545000D03*
X169260000Y-76275000D03*
X169260000Y-75005000D03*
D26*
X169260000Y-70775000D03*
X169260000Y-81775000D03*
X163160000Y-81775000D03*
D27*
X176235000Y-50370000D03*
X176235000Y-51470000D03*
X176235000Y-53920000D03*
X176235000Y-52820000D03*
X117515000Y-53925000D03*
X117515000Y-52825000D03*
X117515000Y-50350000D03*
X117515000Y-51450000D03*
D18*
X174285000Y-52920000D03*
X173485000Y-52920000D03*
X172685000Y-52920000D03*
X171885000Y-52920000D03*
X171085000Y-52920000D03*
X171085000Y-52120000D03*
X171085000Y-51320000D03*
X171885000Y-51320000D03*
X172685000Y-51320000D03*
X173485000Y-51320000D03*
X174285000Y-51320000D03*
X174285000Y-52120000D03*
D19*
X174585000Y-52795000D03*
D18*
X115565000Y-52925000D03*
X114765000Y-52925000D03*
X113965000Y-52925000D03*
X113165000Y-52925000D03*
X112365000Y-52925000D03*
X112365000Y-52125000D03*
X112365000Y-51325000D03*
X113165000Y-51325000D03*
X113965000Y-51325000D03*
X114765000Y-51325000D03*
X115565000Y-51325000D03*
X115565000Y-52125000D03*
D19*
X115865000Y-52800000D03*
D27*
X129245000Y-53925000D03*
X129245000Y-52825000D03*
X129245000Y-50375000D03*
X129245000Y-51475000D03*
X176255000Y-63995000D03*
X176255000Y-62895000D03*
X176255000Y-60445000D03*
X176255000Y-61545000D03*
X140965000Y-73655000D03*
X140965000Y-72555000D03*
X140965000Y-70105000D03*
X140965000Y-71205000D03*
D18*
X127295000Y-52925000D03*
X126495000Y-52925000D03*
X125695000Y-52925000D03*
X124895000Y-52925000D03*
X124095000Y-52925000D03*
X124095000Y-52125000D03*
X124095000Y-51325000D03*
X124895000Y-51325000D03*
X125695000Y-51325000D03*
X126495000Y-51325000D03*
X127295000Y-51325000D03*
X127295000Y-52125000D03*
D19*
X127595000Y-52800000D03*
D18*
X174305000Y-62995000D03*
X173505000Y-62995000D03*
X172705000Y-62995000D03*
X171905000Y-62995000D03*
X171105000Y-62995000D03*
X171105000Y-62195000D03*
X171105000Y-61395000D03*
X171905000Y-61395000D03*
X172705000Y-61395000D03*
X173505000Y-61395000D03*
X174305000Y-61395000D03*
X174305000Y-62195000D03*
D19*
X174605000Y-62870000D03*
D18*
X139015000Y-72655000D03*
X138215000Y-72655000D03*
X137415000Y-72655000D03*
X136615000Y-72655000D03*
X135815000Y-72655000D03*
X135815000Y-71855000D03*
X135815000Y-71055000D03*
X136615000Y-71055000D03*
X137415000Y-71055000D03*
X138215000Y-71055000D03*
X139015000Y-71055000D03*
X139015000Y-71855000D03*
D19*
X139315000Y-72530000D03*
D27*
X164490000Y-53970000D03*
X164490000Y-52870000D03*
X164490000Y-50420000D03*
X164490000Y-51520000D03*
D18*
X162540000Y-52970000D03*
X161740000Y-52970000D03*
X160940000Y-52970000D03*
X160140000Y-52970000D03*
X159340000Y-52970000D03*
X159340000Y-52170000D03*
X159340000Y-51370000D03*
X160140000Y-51370000D03*
X160940000Y-51370000D03*
X161740000Y-51370000D03*
X162540000Y-51370000D03*
X162540000Y-52170000D03*
D19*
X162840000Y-52845000D03*
D27*
X117570000Y-73590000D03*
X117570000Y-72490000D03*
X117570000Y-70070000D03*
X117570000Y-71170000D03*
X152780000Y-54010000D03*
X152780000Y-52910000D03*
X152780000Y-50440000D03*
X152780000Y-51540000D03*
X129270000Y-63980000D03*
X129270000Y-62880000D03*
X129260000Y-60450000D03*
X129260000Y-61550000D03*
X117490000Y-63950000D03*
X117490000Y-62850000D03*
X117490000Y-60400000D03*
X117490000Y-61500000D03*
X141040000Y-53980000D03*
X141040000Y-52880000D03*
X141040000Y-50410000D03*
X141040000Y-51510000D03*
X164470000Y-64030000D03*
X164470000Y-62930000D03*
X164470000Y-60480000D03*
X164470000Y-61580000D03*
X129350000Y-73660000D03*
X129350000Y-72560000D03*
X129350000Y-70120000D03*
X129350000Y-71220000D03*
X152680000Y-64000000D03*
X152680000Y-62900000D03*
X152680000Y-60480000D03*
X152680000Y-61580000D03*
X140910000Y-64000000D03*
X140910000Y-62900000D03*
X140920000Y-60450000D03*
X140920000Y-61550000D03*
D18*
X115640000Y-72595000D03*
X114840000Y-72595000D03*
X114040000Y-72595000D03*
X113240000Y-72595000D03*
X112440000Y-72595000D03*
X112440000Y-71795000D03*
X112440000Y-70995000D03*
X113240000Y-70995000D03*
X114040000Y-70995000D03*
X114840000Y-70995000D03*
X115640000Y-70995000D03*
X115640000Y-71795000D03*
D19*
X115940000Y-72470000D03*
D18*
X150800000Y-52980000D03*
X150000000Y-52980000D03*
X149200000Y-52980000D03*
X148400000Y-52980000D03*
X147600000Y-52980000D03*
X147600000Y-52180000D03*
X147600000Y-51380000D03*
X148400000Y-51380000D03*
X149200000Y-51380000D03*
X150000000Y-51380000D03*
X150800000Y-51380000D03*
X150800000Y-52180000D03*
D19*
X151100000Y-52855000D03*
D18*
X127320000Y-62970000D03*
X126520000Y-62970000D03*
X125720000Y-62970000D03*
X124920000Y-62970000D03*
X124120000Y-62970000D03*
X124120000Y-62170000D03*
X124120000Y-61370000D03*
X124920000Y-61370000D03*
X125720000Y-61370000D03*
X126520000Y-61370000D03*
X127320000Y-61370000D03*
X127320000Y-62170000D03*
D19*
X127620000Y-62845000D03*
D18*
X115560000Y-62945000D03*
X114760000Y-62945000D03*
X113960000Y-62945000D03*
X113160000Y-62945000D03*
X112360000Y-62945000D03*
X112360000Y-62145000D03*
X112360000Y-61345000D03*
X113160000Y-61345000D03*
X113960000Y-61345000D03*
X114760000Y-61345000D03*
X115560000Y-61345000D03*
X115560000Y-62145000D03*
D19*
X115860000Y-62820000D03*
D18*
X139110000Y-52990000D03*
X138310000Y-52990000D03*
X137510000Y-52990000D03*
X136710000Y-52990000D03*
X135910000Y-52990000D03*
X135910000Y-52190000D03*
X135910000Y-51390000D03*
X136710000Y-51390000D03*
X137510000Y-51390000D03*
X138310000Y-51390000D03*
X139110000Y-51390000D03*
X139110000Y-52190000D03*
D19*
X139410000Y-52865000D03*
D18*
X162530000Y-63010000D03*
X161730000Y-63010000D03*
X160930000Y-63010000D03*
X160130000Y-63010000D03*
X159330000Y-63010000D03*
X159330000Y-62210000D03*
X159330000Y-61410000D03*
X160130000Y-61410000D03*
X160930000Y-61410000D03*
X161730000Y-61410000D03*
X162530000Y-61410000D03*
X162530000Y-62210000D03*
D19*
X162830000Y-62885000D03*
D18*
X127370000Y-72670000D03*
X126570000Y-72670000D03*
X125770000Y-72670000D03*
X124970000Y-72670000D03*
X124170000Y-72670000D03*
X124170000Y-71870000D03*
X124170000Y-71070000D03*
X124970000Y-71070000D03*
X125770000Y-71070000D03*
X126570000Y-71070000D03*
X127370000Y-71070000D03*
X127370000Y-71870000D03*
D19*
X127670000Y-72545000D03*
D18*
X150740000Y-63010000D03*
X149940000Y-63010000D03*
X149140000Y-63010000D03*
X148340000Y-63010000D03*
X147540000Y-63010000D03*
X147540000Y-62210000D03*
X147540000Y-61410000D03*
X148340000Y-61410000D03*
X149140000Y-61410000D03*
X149940000Y-61410000D03*
X150740000Y-61410000D03*
X150740000Y-62210000D03*
D19*
X151040000Y-62885000D03*
D18*
X138970000Y-62970000D03*
X138170000Y-62970000D03*
X137370000Y-62970000D03*
X136570000Y-62970000D03*
X135770000Y-62970000D03*
X135770000Y-62170000D03*
X135770000Y-61370000D03*
X136570000Y-61370000D03*
X137370000Y-61370000D03*
X138170000Y-61370000D03*
X138970000Y-61370000D03*
X138970000Y-62170000D03*
D19*
X139270000Y-62845000D03*
D11*
X113310000Y-74910000D03*
D12*
X111860000Y-74910000D03*
X117660000Y-74910000D03*
X114760000Y-74910000D03*
D11*
X116210000Y-74910000D03*
X116210000Y-68510000D03*
D12*
X114760000Y-68510000D03*
X117660000Y-68510000D03*
X111860000Y-68510000D03*
D13*
X118860000Y-71710000D03*
D14*
X118860000Y-73710000D03*
X118860000Y-69710000D03*
X110660000Y-69710000D03*
X110660000Y-73710000D03*
D13*
X110660000Y-71710000D03*
D11*
X113310000Y-68510000D03*
X125050000Y-74900000D03*
D12*
X123600000Y-74900000D03*
X129400000Y-74900000D03*
X126500000Y-74900000D03*
D11*
X127950000Y-74900000D03*
X127950000Y-68500000D03*
D12*
X126500000Y-68500000D03*
X129400000Y-68500000D03*
X123600000Y-68500000D03*
D13*
X130600000Y-71700000D03*
D14*
X130600000Y-73700000D03*
X130600000Y-69700000D03*
X122400000Y-69700000D03*
X122400000Y-73700000D03*
D13*
X122400000Y-71700000D03*
D11*
X125050000Y-68500000D03*
X113300000Y-65250000D03*
D12*
X111850000Y-65250000D03*
X117650000Y-65250000D03*
X114750000Y-65250000D03*
D11*
X116200000Y-65250000D03*
X116200000Y-58850000D03*
D12*
X114750000Y-58850000D03*
X117650000Y-58850000D03*
X111850000Y-58850000D03*
D13*
X118850000Y-62050000D03*
D14*
X118850000Y-64050000D03*
X118850000Y-60050000D03*
X110650000Y-60050000D03*
X110650000Y-64050000D03*
D13*
X110650000Y-62050000D03*
D11*
X113300000Y-58850000D03*
X125050000Y-65250000D03*
D12*
X123600000Y-65250000D03*
X129400000Y-65250000D03*
X126500000Y-65250000D03*
D11*
X127950000Y-65250000D03*
X127950000Y-58850000D03*
D12*
X126500000Y-58850000D03*
X129400000Y-58850000D03*
X123600000Y-58850000D03*
D13*
X130600000Y-62050000D03*
D14*
X130600000Y-64050000D03*
X130600000Y-60050000D03*
X122400000Y-60050000D03*
X122400000Y-64050000D03*
D13*
X122400000Y-62050000D03*
D11*
X125050000Y-58850000D03*
X136800000Y-65250000D03*
D12*
X135350000Y-65250000D03*
X141150000Y-65250000D03*
X138250000Y-65250000D03*
D11*
X139700000Y-65250000D03*
X139700000Y-58850000D03*
D12*
X138250000Y-58850000D03*
X141150000Y-58850000D03*
X135350000Y-58850000D03*
D13*
X142350000Y-62050000D03*
D14*
X142350000Y-64050000D03*
X142350000Y-60050000D03*
X134150000Y-60050000D03*
X134150000Y-64050000D03*
D13*
X134150000Y-62050000D03*
D11*
X136800000Y-58850000D03*
X148550000Y-65250000D03*
D12*
X147100000Y-65250000D03*
X152900000Y-65250000D03*
X150000000Y-65250000D03*
D11*
X151450000Y-65250000D03*
X151450000Y-58850000D03*
D12*
X150000000Y-58850000D03*
X152900000Y-58850000D03*
X147100000Y-58850000D03*
D13*
X154100000Y-62050000D03*
D14*
X154100000Y-64050000D03*
X154100000Y-60050000D03*
X145900000Y-60050000D03*
X145900000Y-64050000D03*
D13*
X145900000Y-62050000D03*
D11*
X148550000Y-58850000D03*
X160300000Y-65250000D03*
D12*
X158850000Y-65250000D03*
X164650000Y-65250000D03*
X161750000Y-65250000D03*
D11*
X163200000Y-65250000D03*
X163200000Y-58850000D03*
D12*
X161750000Y-58850000D03*
X164650000Y-58850000D03*
X158850000Y-58850000D03*
D13*
X165850000Y-62050000D03*
D14*
X165850000Y-64050000D03*
X165850000Y-60050000D03*
X157650000Y-60050000D03*
X157650000Y-64050000D03*
D13*
X157650000Y-62050000D03*
D11*
X160300000Y-58850000D03*
X172050000Y-65250000D03*
D12*
X170600000Y-65250000D03*
X176400000Y-65250000D03*
X173500000Y-65250000D03*
D11*
X174950000Y-65250000D03*
X174950000Y-58850000D03*
D12*
X173500000Y-58850000D03*
X176400000Y-58850000D03*
X170600000Y-58850000D03*
D13*
X177600000Y-62050000D03*
D14*
X177600000Y-64050000D03*
X177600000Y-60050000D03*
X169400000Y-60050000D03*
X169400000Y-64050000D03*
D13*
X169400000Y-62050000D03*
D11*
X172050000Y-58850000D03*
X172050000Y-55200000D03*
D12*
X170600000Y-55200000D03*
X176400000Y-55200000D03*
X173500000Y-55200000D03*
D11*
X174950000Y-55200000D03*
X174950000Y-48800000D03*
D12*
X173500000Y-48800000D03*
X176400000Y-48800000D03*
X170600000Y-48800000D03*
D13*
X177600000Y-52000000D03*
D14*
X177600000Y-54000000D03*
X177600000Y-50000000D03*
X169400000Y-50000000D03*
X169400000Y-54000000D03*
D13*
X169400000Y-52000000D03*
D11*
X172050000Y-48800000D03*
X160300000Y-55200000D03*
D12*
X158850000Y-55200000D03*
X164650000Y-55200000D03*
X161750000Y-55200000D03*
D11*
X163200000Y-55200000D03*
X163200000Y-48800000D03*
D12*
X161750000Y-48800000D03*
X164650000Y-48800000D03*
X158850000Y-48800000D03*
D13*
X165850000Y-52000000D03*
D14*
X165850000Y-54000000D03*
X165850000Y-50000000D03*
X157650000Y-50000000D03*
X157650000Y-54000000D03*
D13*
X157650000Y-52000000D03*
D11*
X160300000Y-48800000D03*
X148550000Y-55200000D03*
D12*
X147100000Y-55200000D03*
X152900000Y-55200000D03*
X150000000Y-55200000D03*
D11*
X151450000Y-55200000D03*
X151450000Y-48800000D03*
D12*
X150000000Y-48800000D03*
X152900000Y-48800000D03*
X147100000Y-48800000D03*
D13*
X154100000Y-52000000D03*
D14*
X154100000Y-54000000D03*
X154100000Y-50000000D03*
X145900000Y-50000000D03*
X145900000Y-54000000D03*
D13*
X145900000Y-52000000D03*
D11*
X148550000Y-48800000D03*
X136800000Y-55200000D03*
D12*
X135350000Y-55200000D03*
X141150000Y-55200000D03*
X138250000Y-55200000D03*
D11*
X139700000Y-55200000D03*
X139700000Y-48800000D03*
D12*
X138250000Y-48800000D03*
X141150000Y-48800000D03*
X135350000Y-48800000D03*
D13*
X142350000Y-52000000D03*
D14*
X142350000Y-54000000D03*
X142350000Y-50000000D03*
X134150000Y-50000000D03*
X134150000Y-54000000D03*
D13*
X134150000Y-52000000D03*
D11*
X136800000Y-48800000D03*
X125050000Y-55200000D03*
D12*
X123600000Y-55200000D03*
X129400000Y-55200000D03*
X126500000Y-55200000D03*
D11*
X127950000Y-55200000D03*
X127950000Y-48800000D03*
D12*
X126500000Y-48800000D03*
X129400000Y-48800000D03*
X123600000Y-48800000D03*
D13*
X130600000Y-52000000D03*
D14*
X130600000Y-54000000D03*
X130600000Y-50000000D03*
X122400000Y-50000000D03*
X122400000Y-54000000D03*
D13*
X122400000Y-52000000D03*
D11*
X125050000Y-48800000D03*
X113300000Y-55200000D03*
D12*
X111850000Y-55200000D03*
X117650000Y-55200000D03*
X114750000Y-55200000D03*
D11*
X116200000Y-55200000D03*
X116200000Y-48800000D03*
D12*
X114750000Y-48800000D03*
X117650000Y-48800000D03*
X111850000Y-48800000D03*
D13*
X118850000Y-52000000D03*
D14*
X118850000Y-54000000D03*
X118850000Y-50000000D03*
X110650000Y-50000000D03*
X110650000Y-54000000D03*
D13*
X110650000Y-52000000D03*
D11*
X113300000Y-48800000D03*
D28*
X156650000Y-82250000D03*
D29*
X156650000Y-76250000D03*
X156650000Y-72900000D03*
X156650000Y-79650000D03*
D28*
X156650000Y-70250000D03*
X171650000Y-70250000D03*
D29*
X171650000Y-79650000D03*
X171650000Y-72900000D03*
D30*
X166350000Y-69150000D03*
D31*
X164150000Y-69150000D03*
X159700000Y-69150000D03*
X168600000Y-69150000D03*
D30*
X170800000Y-69150000D03*
X161900000Y-69150000D03*
X157500000Y-69150000D03*
X157500000Y-83350000D03*
X161900000Y-83350000D03*
X170800000Y-83350000D03*
D31*
X168600000Y-83350000D03*
X159700000Y-83350000D03*
D32*
X171500000Y-83200000D03*
X171500000Y-69300000D03*
X156800000Y-69300000D03*
X156800000Y-83200000D03*
D31*
X164150000Y-83350000D03*
D30*
X166350000Y-83350000D03*
D29*
X171650000Y-76250000D03*
D28*
X171650000Y-82250000D03*
M02*
