M48
;DRILL file {KiCad 4.0.7-e2-6376~58~ubuntu16.04.1} date Fri Aug  3 16:41:58 2018
;FORMAT={-:-/ absolute / metric / decimal}
FMAT,2
METRIC,TZ
T1C0.400
T2C0.800
%
G90
G05
M71
T1
X111.35Y-61.43
X111.44Y-50.99
X111.64Y-71.48
X113.41Y-63.48
X113.48Y-52.83
X113.75Y-73.64
X114.71Y-59.36
X114.77Y-48.79
X114.99Y-69.38
X115.96Y-59.84
X116.02Y-49.3
X116.25Y-69.9
X116.64Y-52.98
X116.7Y-63.52
X116.9Y-73.54
X117.44Y-59.37
X117.52Y-48.94
X117.7Y-69.52
X120.65Y-102.83
X120.65Y-113.23
X121.63Y-108.
X122.2Y-98.09
X122.77Y-106.75
X123.11Y-71.54
X123.24Y-61.47
X123.33Y-50.9
X123.82Y-97.94
X123.87Y-115.51
X123.96Y-101.62
X123.97Y-109.24
X123.97Y-117.19
X124.84Y-93.91
X125.18Y-73.6
X125.33Y-63.54
X125.36Y-52.85
X126.325Y-122.325
X126.41Y-116.51
X126.5Y-69.4
X126.62Y-59.39
X126.64Y-48.85
X126.82Y-96.6
X127.49Y-103.08
X127.74Y-69.93
X127.87Y-59.9
X127.9Y-49.33
X128.08Y-91.56
X128.35Y-106.525
X128.39Y-73.58
X128.55Y-52.98
X128.59Y-63.53
X129.24Y-69.48
X129.33Y-92.43
X129.34Y-59.42
X129.34Y-120.97
X129.39Y-48.81
X129.75Y-111.63
X130.17Y-103.38
X130.58Y-122.04
X131.49Y-101.76
X131.82Y-102.99
X131.83Y-119.77
X132.825Y-102.95
X133.1Y-90.5
X133.93Y-102.99
X134.Y-111.64
X134.57Y-123.06
X135.465Y-71.635
X135.52Y-61.47
X135.63Y-50.78
X136.11Y-93.59
X137.07Y-104.45
X137.36Y-91.56
X137.515Y-73.36
X137.62Y-53.01
X137.64Y-63.64
X137.75Y-103.81
X138.61Y-92.43
X138.61Y-120.97
X138.765Y-69.435
X138.87Y-59.36
X138.96Y-48.8
X139.86Y-119.78
X139.86Y-122.04
X140.015Y-69.56
X140.12Y-59.89
X140.21Y-49.33
X140.765Y-73.535
X140.87Y-63.55
X140.93Y-52.98
X141.5Y-69.35
X141.61Y-59.34
X141.7Y-48.84
X142.225Y-109.375
X142.32Y-90.5
X143.6Y-93.59
X144.05Y-123.06
X146.63Y-91.56
X147.89Y-92.43
X147.89Y-120.96
X148.32Y-61.43
X148.6Y-50.94
X149.14Y-122.04
X150.37Y-117.1
X150.46Y-63.62
X150.62Y-108.69
X150.71Y-53.13
X150.97Y-96.83
X151.02Y-90.39
X151.75Y-59.33
X151.91Y-48.81
X152.18Y-119.78
X152.99Y-59.85
X153.16Y-49.33
X153.26Y-96.32
X153.425Y-103.425
X153.43Y-113.98
X153.49Y-115.65
X153.52Y-97.82
X153.74Y-63.5
X153.89Y-53.01
X154.43Y-59.37
X154.57Y-106.75
X154.68Y-48.9
X155.01Y-115.4
X155.5Y-105.5
X156.57Y-99.93
X156.57Y-110.66
X160.11Y-70.8
X160.11Y-73.55
X160.11Y-76.3
X160.11Y-81.8
X160.785Y-77.675
X161.21Y-61.44
X161.37Y-51.02
X163.31Y-63.6
X163.34Y-52.93
X164.58Y-59.33
X164.59Y-48.83
X164.66Y-76.275
X165.01Y-78.15
X165.83Y-59.87
X165.85Y-49.34
X166.06Y-72.8
X166.58Y-63.53
X166.59Y-52.97
X167.31Y-59.34
X167.32Y-48.81
X167.76Y-75.
X167.76Y-77.55
X173.06Y-61.5
X173.485Y-51.045
X175.12Y-63.51
X175.535Y-52.845
X176.41Y-59.37
X176.735Y-48.82
X177.65Y-59.88
X177.985Y-49.045
X178.32Y-63.55
X178.735Y-52.97
X179.12Y-59.41
X179.47Y-48.81
T2
X129.6Y-95.75
X129.6Y-117.75
X131.6Y-95.75
X131.6Y-117.75
X133.6Y-95.75
X133.6Y-117.75
X135.6Y-95.75
X135.6Y-117.75
X137.6Y-95.75
X137.6Y-117.75
X139.6Y-95.75
X139.6Y-117.75
X141.6Y-95.75
X141.6Y-117.75
X143.6Y-95.75
X143.6Y-117.75
X145.6Y-95.75
X145.6Y-117.75
X147.6Y-95.75
X147.6Y-117.75
T0
M30
