G04 #@! TF.FileFunction,Copper,L3,Inr,Signal*
%FSLAX46Y46*%
G04 Gerber Fmt 4.6, Leading zero omitted, Abs format (unit mm)*
G04 Created by KiCad (PCBNEW 4.0.7-e2-6376~58~ubuntu16.04.1) date Fri Aug  3 16:41:56 2018*
%MOMM*%
%LPD*%
G01*
G04 APERTURE LIST*
%ADD10C,0.100000*%
%ADD11C,1.050000*%
%ADD12R,1.050000X1.050000*%
%ADD13C,0.600000*%
%ADD14C,0.500000*%
G04 APERTURE END LIST*
D10*
D11*
X129600000Y-95750000D03*
X145600000Y-95750000D03*
D12*
X147600000Y-95750000D03*
D11*
X133600000Y-95750000D03*
X131600000Y-95750000D03*
X143600000Y-95750000D03*
X141600000Y-95750000D03*
X135600000Y-95750000D03*
X137600000Y-95750000D03*
X139600000Y-95750000D03*
X129600000Y-117750000D03*
X145600000Y-117750000D03*
D12*
X147600000Y-117750000D03*
D11*
X133600000Y-117750000D03*
X131600000Y-117750000D03*
X143600000Y-117750000D03*
X141600000Y-117750000D03*
X135600000Y-117750000D03*
X137600000Y-117750000D03*
X139600000Y-117750000D03*
D13*
X142225000Y-109375000D03*
X129750000Y-111630000D03*
X134000000Y-111640000D03*
X126325000Y-122325000D03*
X151020000Y-90390000D03*
X133100000Y-90500000D03*
X142320000Y-90500000D03*
X156570000Y-99930000D03*
X156570000Y-110660000D03*
X152180000Y-119780000D03*
X144050000Y-123060000D03*
X134570000Y-123060000D03*
X120650000Y-113230000D03*
X124840000Y-93910000D03*
X120650000Y-102830000D03*
X132825000Y-102950000D03*
X153425000Y-103425000D03*
X127490000Y-103080000D03*
X131820000Y-102990000D03*
X126410000Y-116510000D03*
X153430000Y-113980000D03*
X131830000Y-119770000D03*
X139860000Y-119780000D03*
X150370000Y-117100000D03*
X136110000Y-93590000D03*
X126820000Y-96600000D03*
X123960000Y-101620000D03*
X123970000Y-109240000D03*
X150970000Y-96830000D03*
X143600000Y-93590000D03*
X150620000Y-108690000D03*
X133930000Y-102990000D03*
X131490000Y-101760000D03*
X137070000Y-104450000D03*
X123870000Y-115510000D03*
X138610000Y-120970000D03*
X123820000Y-97940000D03*
X122770000Y-106750000D03*
X147890000Y-120960000D03*
X153490000Y-115650000D03*
X154570000Y-106750000D03*
X153520000Y-97820000D03*
X138610000Y-92430000D03*
X129330000Y-92430000D03*
X147890000Y-92430000D03*
X129340000Y-120970000D03*
X137750000Y-103810000D03*
X130170000Y-103380000D03*
X122200000Y-98090000D03*
X121630000Y-108000000D03*
X123970000Y-117190000D03*
X130580000Y-122040000D03*
X139860000Y-122040000D03*
X149140000Y-122040000D03*
X155010000Y-115400000D03*
X155500000Y-105500000D03*
X153260000Y-96320000D03*
X137360000Y-91560000D03*
X146630000Y-91560000D03*
X128080000Y-91560000D03*
X128350000Y-106525000D03*
X165010000Y-78150000D03*
X160110000Y-81800000D03*
X166060000Y-72800000D03*
X160110000Y-70800000D03*
X167760000Y-77550000D03*
X167760000Y-75000000D03*
X160785000Y-77675000D03*
X164660000Y-76275000D03*
X160110000Y-76300000D03*
X160110000Y-73550000D03*
X179470000Y-48810000D03*
X178735000Y-52970000D03*
X175535000Y-52845000D03*
X117520000Y-48940000D03*
X116640000Y-52980000D03*
X113480000Y-52830000D03*
X177985000Y-49045000D03*
X173485000Y-51045000D03*
X176735000Y-48820000D03*
X116020000Y-49300000D03*
X111440000Y-50990000D03*
X114770000Y-48790000D03*
X129390000Y-48810000D03*
X128550000Y-52980000D03*
X125360000Y-52850000D03*
X179120000Y-59410000D03*
X178320000Y-63550000D03*
X175120000Y-63510000D03*
X141500000Y-69350000D03*
X140765000Y-73535000D03*
X137515000Y-73360000D03*
X127900000Y-49330000D03*
X123330000Y-50900000D03*
X126640000Y-48850000D03*
X177650000Y-59880000D03*
X173060000Y-61500000D03*
X176410000Y-59370000D03*
X140015000Y-69560000D03*
X135465000Y-71635000D03*
X138765000Y-69435000D03*
X167320000Y-48810000D03*
X166590000Y-52970000D03*
X163340000Y-52930000D03*
X165850000Y-49340000D03*
X161370000Y-51020000D03*
X164590000Y-48830000D03*
X117700000Y-69520000D03*
X116900000Y-73540000D03*
X113750000Y-73640000D03*
X154680000Y-48900000D03*
X153890000Y-53010000D03*
X150710000Y-53130000D03*
X129340000Y-59420000D03*
X128590000Y-63530000D03*
X125330000Y-63540000D03*
X117440000Y-59370000D03*
X116700000Y-63520000D03*
X113410000Y-63480000D03*
X141700000Y-48840000D03*
X140930000Y-52980000D03*
X137620000Y-53010000D03*
X167310000Y-59340000D03*
X166580000Y-63530000D03*
X163310000Y-63600000D03*
X129240000Y-69480000D03*
X128390000Y-73580000D03*
X125180000Y-73600000D03*
X154430000Y-59370000D03*
X153740000Y-63500000D03*
X150460000Y-63620000D03*
X141610000Y-59340000D03*
X140870000Y-63550000D03*
X137640000Y-63640000D03*
X116250000Y-69900000D03*
X111640000Y-71480000D03*
X114990000Y-69380000D03*
X153160000Y-49330000D03*
X148600000Y-50940000D03*
X151910000Y-48810000D03*
X127870000Y-59900000D03*
X123240000Y-61470000D03*
X126620000Y-59390000D03*
X115960000Y-59840000D03*
X111350000Y-61430000D03*
X114710000Y-59360000D03*
X140210000Y-49330000D03*
X135630000Y-50780000D03*
X138960000Y-48800000D03*
X165830000Y-59870000D03*
X161210000Y-61440000D03*
X164580000Y-59330000D03*
X127740000Y-69930000D03*
X123110000Y-71540000D03*
X126500000Y-69400000D03*
X152990000Y-59850000D03*
X148320000Y-61430000D03*
X151750000Y-59330000D03*
X140120000Y-59890000D03*
X135520000Y-61470000D03*
X138870000Y-59360000D03*
D14*
X126325000Y-122325000D02*
X126977500Y-121672500D01*
X126977500Y-121672500D02*
X126977500Y-121647500D01*
X151075000Y-90445000D02*
X151075000Y-92685000D01*
X151020000Y-90390000D02*
X151075000Y-90445000D01*
X134570000Y-123060000D02*
X128390000Y-123060000D01*
X128390000Y-123060000D02*
X126977500Y-121647500D01*
X126977500Y-121647500D02*
X126830000Y-121500000D01*
X120650000Y-102830000D02*
X120650000Y-98100000D01*
X120650000Y-98100000D02*
X124840000Y-93910000D01*
X150390000Y-92010000D02*
X150395000Y-92005000D01*
X150395000Y-92005000D02*
X150390000Y-92010000D01*
X150390000Y-92010000D02*
X150390000Y-92000000D01*
X152180000Y-119780000D02*
X152190000Y-119790000D01*
X152190000Y-119790000D02*
X152180000Y-119780000D01*
X152180000Y-119780000D02*
X152180000Y-119800000D01*
X124840000Y-93910000D02*
X126520000Y-92230000D01*
X126520000Y-92230000D02*
X126520000Y-91350000D01*
X126520000Y-91350000D02*
X127370000Y-90500000D01*
X127370000Y-90500000D02*
X133100000Y-90500000D01*
X120650000Y-115320000D02*
X120650000Y-113230000D01*
X126830000Y-121500000D02*
X120650000Y-115320000D01*
X120650000Y-113230000D02*
X120650000Y-102830000D01*
X150030000Y-123060000D02*
X144050000Y-123060000D01*
X144050000Y-123060000D02*
X134570000Y-123060000D01*
X150540000Y-122550000D02*
X150030000Y-123060000D01*
X150540000Y-121440000D02*
X150540000Y-122550000D01*
X156570000Y-115410000D02*
X152180000Y-119800000D01*
X152180000Y-119800000D02*
X150540000Y-121440000D01*
X156570000Y-98180000D02*
X156570000Y-99930000D01*
X156570000Y-99930000D02*
X156570000Y-110660000D01*
X156570000Y-110660000D02*
X156570000Y-115410000D01*
X148890000Y-90500000D02*
X150390000Y-92000000D01*
X150390000Y-92000000D02*
X151075000Y-92685000D01*
X151075000Y-92685000D02*
X156570000Y-98180000D01*
X149080000Y-90500000D02*
X148890000Y-90500000D01*
X133100000Y-90500000D02*
X142320000Y-90500000D01*
X142320000Y-90500000D02*
X149080000Y-90500000D01*
X131490000Y-101760000D02*
X134380000Y-101760000D01*
X134380000Y-101760000D02*
X137070000Y-104450000D01*
X131490000Y-101760000D02*
X131500000Y-101700000D01*
X131500000Y-101700000D02*
X134010000Y-99190000D01*
X123870000Y-115510000D02*
X123875000Y-115505000D01*
X123875000Y-115505000D02*
X123870000Y-115510000D01*
X123870000Y-115510000D02*
X123870000Y-115500000D01*
X122770000Y-106750000D02*
X122770000Y-114400000D01*
X122770000Y-114400000D02*
X123870000Y-115500000D01*
X123870000Y-115500000D02*
X129340000Y-120970000D01*
X129340000Y-120970000D02*
X138610000Y-120970000D01*
X138610000Y-120970000D02*
X147880000Y-120970000D01*
X147880000Y-120970000D02*
X147890000Y-120960000D01*
X122770000Y-106750000D02*
X122770000Y-106750000D01*
X122770000Y-106750000D02*
X122770000Y-98990000D01*
X122770000Y-98990000D02*
X123820000Y-97940000D01*
X123820000Y-97940000D02*
X129330000Y-92430000D01*
X153490000Y-115650000D02*
X147890000Y-120960000D01*
X154570000Y-114570000D02*
X154570000Y-106750000D01*
X153490000Y-115650000D02*
X154570000Y-114570000D01*
X153520000Y-97820000D02*
X154570000Y-98870000D01*
X154570000Y-98870000D02*
X154570000Y-106750000D01*
X147890000Y-92430000D02*
X148130000Y-92430000D01*
X148130000Y-92430000D02*
X153520000Y-97820000D01*
X129330000Y-92430000D02*
X138610000Y-92430000D01*
X141600000Y-97470000D02*
X141600000Y-95750000D01*
X139880000Y-99190000D02*
X141600000Y-97470000D01*
X134010000Y-99190000D02*
X139880000Y-99190000D01*
X141600000Y-95750000D02*
X141600000Y-92750000D01*
X141600000Y-92750000D02*
X141920000Y-92430000D01*
X138610000Y-92430000D02*
X141920000Y-92430000D01*
X141920000Y-92430000D02*
X147890000Y-92430000D01*
M02*
