G04 #@! TF.FileFunction,Copper,L3,Inr,Signal*
%FSLAX46Y46*%
G04 Gerber Fmt 4.6, Leading zero omitted, Abs format (unit mm)*
G04 Created by KiCad (PCBNEW 4.0.7-e2-6376~58~ubuntu16.04.1) date Fri Aug  3 20:43:21 2018*
%MOMM*%
%LPD*%
G01*
G04 APERTURE LIST*
%ADD10C,0.100000*%
%ADD11R,0.400000X0.400000*%
%ADD12R,2.000000X0.400000*%
%ADD13R,0.400000X1.000000*%
%ADD14R,0.400000X2.000000*%
%ADD15C,1.050000*%
%ADD16R,1.050000X1.050000*%
%ADD17R,0.400000X1.500000*%
%ADD18R,0.400000X3.000000*%
%ADD19R,1.000000X0.400000*%
%ADD20R,3.000000X0.400000*%
%ADD21C,0.400000*%
%ADD22C,0.600000*%
%ADD23C,0.500000*%
G04 APERTURE END LIST*
D10*
D11*
X136780000Y-74910000D03*
D12*
X135330000Y-74910000D03*
X141130000Y-74910000D03*
X138230000Y-74910000D03*
D11*
X139680000Y-74910000D03*
X139680000Y-68510000D03*
D12*
X138230000Y-68510000D03*
X141130000Y-68510000D03*
X135330000Y-68510000D03*
D13*
X142330000Y-71710000D03*
D14*
X142330000Y-73710000D03*
X142330000Y-69710000D03*
X134130000Y-69710000D03*
X134130000Y-73710000D03*
D13*
X134130000Y-71710000D03*
D11*
X136780000Y-68510000D03*
D15*
X129600000Y-95750000D03*
X145600000Y-95750000D03*
D16*
X147600000Y-95750000D03*
D15*
X133600000Y-95750000D03*
X131600000Y-95750000D03*
X143600000Y-95750000D03*
X141600000Y-95750000D03*
X135600000Y-95750000D03*
X137600000Y-95750000D03*
X139600000Y-95750000D03*
X129600000Y-117750000D03*
X145600000Y-117750000D03*
D16*
X147600000Y-117750000D03*
D15*
X133600000Y-117750000D03*
X131600000Y-117750000D03*
X143600000Y-117750000D03*
X141600000Y-117750000D03*
X135600000Y-117750000D03*
X137600000Y-117750000D03*
X139600000Y-117750000D03*
D11*
X113310000Y-74910000D03*
D12*
X111860000Y-74910000D03*
X117660000Y-74910000D03*
X114760000Y-74910000D03*
D11*
X116210000Y-74910000D03*
X116210000Y-68510000D03*
D12*
X114760000Y-68510000D03*
X117660000Y-68510000D03*
X111860000Y-68510000D03*
D13*
X118860000Y-71710000D03*
D14*
X118860000Y-73710000D03*
X118860000Y-69710000D03*
X110660000Y-69710000D03*
X110660000Y-73710000D03*
D13*
X110660000Y-71710000D03*
D11*
X113310000Y-68510000D03*
X125050000Y-74900000D03*
D12*
X123600000Y-74900000D03*
X129400000Y-74900000D03*
X126500000Y-74900000D03*
D11*
X127950000Y-74900000D03*
X127950000Y-68500000D03*
D12*
X126500000Y-68500000D03*
X129400000Y-68500000D03*
X123600000Y-68500000D03*
D13*
X130600000Y-71700000D03*
D14*
X130600000Y-73700000D03*
X130600000Y-69700000D03*
X122400000Y-69700000D03*
X122400000Y-73700000D03*
D13*
X122400000Y-71700000D03*
D11*
X125050000Y-68500000D03*
X113300000Y-65250000D03*
D12*
X111850000Y-65250000D03*
X117650000Y-65250000D03*
X114750000Y-65250000D03*
D11*
X116200000Y-65250000D03*
X116200000Y-58850000D03*
D12*
X114750000Y-58850000D03*
X117650000Y-58850000D03*
X111850000Y-58850000D03*
D13*
X118850000Y-62050000D03*
D14*
X118850000Y-64050000D03*
X118850000Y-60050000D03*
X110650000Y-60050000D03*
X110650000Y-64050000D03*
D13*
X110650000Y-62050000D03*
D11*
X113300000Y-58850000D03*
X125050000Y-65250000D03*
D12*
X123600000Y-65250000D03*
X129400000Y-65250000D03*
X126500000Y-65250000D03*
D11*
X127950000Y-65250000D03*
X127950000Y-58850000D03*
D12*
X126500000Y-58850000D03*
X129400000Y-58850000D03*
X123600000Y-58850000D03*
D13*
X130600000Y-62050000D03*
D14*
X130600000Y-64050000D03*
X130600000Y-60050000D03*
X122400000Y-60050000D03*
X122400000Y-64050000D03*
D13*
X122400000Y-62050000D03*
D11*
X125050000Y-58850000D03*
X136800000Y-65250000D03*
D12*
X135350000Y-65250000D03*
X141150000Y-65250000D03*
X138250000Y-65250000D03*
D11*
X139700000Y-65250000D03*
X139700000Y-58850000D03*
D12*
X138250000Y-58850000D03*
X141150000Y-58850000D03*
X135350000Y-58850000D03*
D13*
X142350000Y-62050000D03*
D14*
X142350000Y-64050000D03*
X142350000Y-60050000D03*
X134150000Y-60050000D03*
X134150000Y-64050000D03*
D13*
X134150000Y-62050000D03*
D11*
X136800000Y-58850000D03*
X148550000Y-65250000D03*
D12*
X147100000Y-65250000D03*
X152900000Y-65250000D03*
X150000000Y-65250000D03*
D11*
X151450000Y-65250000D03*
X151450000Y-58850000D03*
D12*
X150000000Y-58850000D03*
X152900000Y-58850000D03*
X147100000Y-58850000D03*
D13*
X154100000Y-62050000D03*
D14*
X154100000Y-64050000D03*
X154100000Y-60050000D03*
X145900000Y-60050000D03*
X145900000Y-64050000D03*
D13*
X145900000Y-62050000D03*
D11*
X148550000Y-58850000D03*
X160300000Y-65250000D03*
D12*
X158850000Y-65250000D03*
X164650000Y-65250000D03*
X161750000Y-65250000D03*
D11*
X163200000Y-65250000D03*
X163200000Y-58850000D03*
D12*
X161750000Y-58850000D03*
X164650000Y-58850000D03*
X158850000Y-58850000D03*
D13*
X165850000Y-62050000D03*
D14*
X165850000Y-64050000D03*
X165850000Y-60050000D03*
X157650000Y-60050000D03*
X157650000Y-64050000D03*
D13*
X157650000Y-62050000D03*
D11*
X160300000Y-58850000D03*
X172050000Y-65250000D03*
D12*
X170600000Y-65250000D03*
X176400000Y-65250000D03*
X173500000Y-65250000D03*
D11*
X174950000Y-65250000D03*
X174950000Y-58850000D03*
D12*
X173500000Y-58850000D03*
X176400000Y-58850000D03*
X170600000Y-58850000D03*
D13*
X177600000Y-62050000D03*
D14*
X177600000Y-64050000D03*
X177600000Y-60050000D03*
X169400000Y-60050000D03*
X169400000Y-64050000D03*
D13*
X169400000Y-62050000D03*
D11*
X172050000Y-58850000D03*
X172050000Y-55200000D03*
D12*
X170600000Y-55200000D03*
X176400000Y-55200000D03*
X173500000Y-55200000D03*
D11*
X174950000Y-55200000D03*
X174950000Y-48800000D03*
D12*
X173500000Y-48800000D03*
X176400000Y-48800000D03*
X170600000Y-48800000D03*
D13*
X177600000Y-52000000D03*
D14*
X177600000Y-54000000D03*
X177600000Y-50000000D03*
X169400000Y-50000000D03*
X169400000Y-54000000D03*
D13*
X169400000Y-52000000D03*
D11*
X172050000Y-48800000D03*
X160300000Y-55200000D03*
D12*
X158850000Y-55200000D03*
X164650000Y-55200000D03*
X161750000Y-55200000D03*
D11*
X163200000Y-55200000D03*
X163200000Y-48800000D03*
D12*
X161750000Y-48800000D03*
X164650000Y-48800000D03*
X158850000Y-48800000D03*
D13*
X165850000Y-52000000D03*
D14*
X165850000Y-54000000D03*
X165850000Y-50000000D03*
X157650000Y-50000000D03*
X157650000Y-54000000D03*
D13*
X157650000Y-52000000D03*
D11*
X160300000Y-48800000D03*
X148550000Y-55200000D03*
D12*
X147100000Y-55200000D03*
X152900000Y-55200000D03*
X150000000Y-55200000D03*
D11*
X151450000Y-55200000D03*
X151450000Y-48800000D03*
D12*
X150000000Y-48800000D03*
X152900000Y-48800000D03*
X147100000Y-48800000D03*
D13*
X154100000Y-52000000D03*
D14*
X154100000Y-54000000D03*
X154100000Y-50000000D03*
X145900000Y-50000000D03*
X145900000Y-54000000D03*
D13*
X145900000Y-52000000D03*
D11*
X148550000Y-48800000D03*
X136800000Y-55200000D03*
D12*
X135350000Y-55200000D03*
X141150000Y-55200000D03*
X138250000Y-55200000D03*
D11*
X139700000Y-55200000D03*
X139700000Y-48800000D03*
D12*
X138250000Y-48800000D03*
X141150000Y-48800000D03*
X135350000Y-48800000D03*
D13*
X142350000Y-52000000D03*
D14*
X142350000Y-54000000D03*
X142350000Y-50000000D03*
X134150000Y-50000000D03*
X134150000Y-54000000D03*
D13*
X134150000Y-52000000D03*
D11*
X136800000Y-48800000D03*
X125050000Y-55200000D03*
D12*
X123600000Y-55200000D03*
X129400000Y-55200000D03*
X126500000Y-55200000D03*
D11*
X127950000Y-55200000D03*
X127950000Y-48800000D03*
D12*
X126500000Y-48800000D03*
X129400000Y-48800000D03*
X123600000Y-48800000D03*
D13*
X130600000Y-52000000D03*
D14*
X130600000Y-54000000D03*
X130600000Y-50000000D03*
X122400000Y-50000000D03*
X122400000Y-54000000D03*
D13*
X122400000Y-52000000D03*
D11*
X125050000Y-48800000D03*
X113300000Y-55200000D03*
D12*
X111850000Y-55200000D03*
X117650000Y-55200000D03*
X114750000Y-55200000D03*
D11*
X116200000Y-55200000D03*
X116200000Y-48800000D03*
D12*
X114750000Y-48800000D03*
X117650000Y-48800000D03*
X111850000Y-48800000D03*
D13*
X118850000Y-52000000D03*
D14*
X118850000Y-54000000D03*
X118850000Y-50000000D03*
X110650000Y-50000000D03*
X110650000Y-54000000D03*
D13*
X110650000Y-52000000D03*
D11*
X113300000Y-48800000D03*
D17*
X156650000Y-82250000D03*
D18*
X156650000Y-76250000D03*
X156650000Y-72900000D03*
X156650000Y-79650000D03*
D17*
X156650000Y-70250000D03*
X171650000Y-70250000D03*
D18*
X171650000Y-79650000D03*
X171650000Y-72900000D03*
D19*
X166350000Y-69150000D03*
D20*
X164150000Y-69150000D03*
X159700000Y-69150000D03*
X168600000Y-69150000D03*
D19*
X170800000Y-69150000D03*
X161900000Y-69150000D03*
X157500000Y-69150000D03*
X157500000Y-83350000D03*
X161900000Y-83350000D03*
X170800000Y-83350000D03*
D20*
X168600000Y-83350000D03*
X159700000Y-83350000D03*
D21*
X171500000Y-83200000D03*
X171500000Y-69300000D03*
X156800000Y-69300000D03*
X156800000Y-83200000D03*
D20*
X164150000Y-83350000D03*
D19*
X166350000Y-83350000D03*
D18*
X171650000Y-76250000D03*
D17*
X171650000Y-82250000D03*
D22*
X142225000Y-109375000D03*
X129750000Y-111630000D03*
X134000000Y-111640000D03*
X126325000Y-122325000D03*
X151020000Y-90390000D03*
X133100000Y-90500000D03*
X142320000Y-90500000D03*
X156570000Y-99930000D03*
X156570000Y-110660000D03*
X152180000Y-119780000D03*
X144050000Y-123060000D03*
X134570000Y-123060000D03*
X120650000Y-113230000D03*
X124840000Y-93910000D03*
X120650000Y-102830000D03*
X132825000Y-102950000D03*
X153425000Y-103425000D03*
X127490000Y-103080000D03*
X131820000Y-102990000D03*
X126410000Y-116510000D03*
X153430000Y-113980000D03*
X131830000Y-119770000D03*
X139860000Y-119780000D03*
X150370000Y-117100000D03*
X136110000Y-93590000D03*
X126820000Y-96600000D03*
X123960000Y-101620000D03*
X123970000Y-109240000D03*
X150970000Y-96830000D03*
X143600000Y-93590000D03*
X150620000Y-108690000D03*
X133930000Y-102990000D03*
X131490000Y-101760000D03*
X137070000Y-104450000D03*
X123870000Y-115510000D03*
X138610000Y-120970000D03*
X123820000Y-97940000D03*
X122770000Y-106750000D03*
X147890000Y-120960000D03*
X153490000Y-115650000D03*
X154570000Y-106750000D03*
X153520000Y-97820000D03*
X138610000Y-92430000D03*
X129330000Y-92430000D03*
X147890000Y-92430000D03*
X129340000Y-120970000D03*
X137750000Y-103810000D03*
X130170000Y-103380000D03*
X122200000Y-98090000D03*
X121630000Y-108000000D03*
X123970000Y-117190000D03*
X130580000Y-122040000D03*
X139860000Y-122040000D03*
X149140000Y-122040000D03*
X155010000Y-115400000D03*
X155500000Y-105500000D03*
X153260000Y-96320000D03*
X137360000Y-91560000D03*
X146630000Y-91560000D03*
X128080000Y-91560000D03*
X128350000Y-106525000D03*
X165010000Y-78150000D03*
X160110000Y-81800000D03*
X166060000Y-72800000D03*
X160110000Y-70800000D03*
X167760000Y-77550000D03*
X167760000Y-75000000D03*
X160785000Y-77675000D03*
X164660000Y-76275000D03*
X160110000Y-76300000D03*
X160110000Y-73550000D03*
X176220000Y-49760000D03*
X175485000Y-53920000D03*
X172285000Y-53795000D03*
X117520000Y-49890000D03*
X116640000Y-53930000D03*
X113480000Y-53780000D03*
X174735000Y-49995000D03*
X170280000Y-50370000D03*
X173485000Y-49770000D03*
X116020000Y-50250000D03*
X111550000Y-50370000D03*
X114770000Y-49740000D03*
X129240000Y-49760000D03*
X128400000Y-53930000D03*
X125210000Y-53800000D03*
X176220000Y-59860000D03*
X175420000Y-64000000D03*
X172220000Y-63960000D03*
X140950000Y-69470000D03*
X140215000Y-73655000D03*
X136965000Y-73480000D03*
X127750000Y-50280000D03*
X123300000Y-50370000D03*
X126490000Y-49800000D03*
X174750000Y-60330000D03*
X170300000Y-60450000D03*
X173510000Y-59820000D03*
X139465000Y-69680000D03*
X135010000Y-70100000D03*
X138215000Y-69555000D03*
X164470000Y-49810000D03*
X163740000Y-53970000D03*
X160490000Y-53930000D03*
X163000000Y-50340000D03*
X158540000Y-50420000D03*
X161740000Y-49830000D03*
X117550000Y-69570000D03*
X116750000Y-73590000D03*
X113600000Y-73690000D03*
X152780000Y-49900000D03*
X151990000Y-54010000D03*
X148810000Y-54130000D03*
X129240000Y-59870000D03*
X128490000Y-63980000D03*
X125230000Y-63990000D03*
X117490000Y-59820000D03*
X116750000Y-63970000D03*
X113460000Y-63930000D03*
X141050000Y-49840000D03*
X140280000Y-53980000D03*
X136970000Y-54010000D03*
X164460000Y-59840000D03*
X163730000Y-64030000D03*
X160460000Y-64100000D03*
X129350000Y-69560000D03*
X128500000Y-73660000D03*
X125290000Y-73680000D03*
X152630000Y-59870000D03*
X151940000Y-64000000D03*
X148660000Y-64120000D03*
X140910000Y-59790000D03*
X140170000Y-64000000D03*
X136940000Y-64090000D03*
X116100000Y-69950000D03*
X111650000Y-70050000D03*
X114840000Y-69430000D03*
X151260000Y-50330000D03*
X146800000Y-50440000D03*
X150010000Y-49810000D03*
X127770000Y-60350000D03*
X123350000Y-60450000D03*
X126520000Y-59840000D03*
X116010000Y-60290000D03*
X111550000Y-60400000D03*
X114760000Y-59810000D03*
X139560000Y-50330000D03*
X135110000Y-50430000D03*
X138310000Y-49800000D03*
X162980000Y-60370000D03*
X158550000Y-60450000D03*
X161730000Y-59830000D03*
X127850000Y-70010000D03*
X123370000Y-70110000D03*
X126610000Y-69480000D03*
X151190000Y-60350000D03*
X146750000Y-60450000D03*
X149950000Y-59830000D03*
X139420000Y-60340000D03*
X134950000Y-60450000D03*
X138170000Y-59810000D03*
D23*
X126325000Y-122325000D02*
X126977500Y-121672500D01*
X126977500Y-121672500D02*
X126977500Y-121647500D01*
X151075000Y-90445000D02*
X151075000Y-92685000D01*
X151020000Y-90390000D02*
X151075000Y-90445000D01*
X134570000Y-123060000D02*
X128390000Y-123060000D01*
X128390000Y-123060000D02*
X126977500Y-121647500D01*
X126977500Y-121647500D02*
X126830000Y-121500000D01*
X120650000Y-102830000D02*
X120650000Y-98100000D01*
X120650000Y-98100000D02*
X124840000Y-93910000D01*
X150390000Y-92010000D02*
X150395000Y-92005000D01*
X150395000Y-92005000D02*
X150390000Y-92010000D01*
X150390000Y-92010000D02*
X150390000Y-92000000D01*
X152180000Y-119780000D02*
X152190000Y-119790000D01*
X152190000Y-119790000D02*
X152180000Y-119780000D01*
X152180000Y-119780000D02*
X152180000Y-119800000D01*
X124840000Y-93910000D02*
X126520000Y-92230000D01*
X126520000Y-92230000D02*
X126520000Y-91350000D01*
X126520000Y-91350000D02*
X127370000Y-90500000D01*
X127370000Y-90500000D02*
X133100000Y-90500000D01*
X120650000Y-115320000D02*
X120650000Y-113230000D01*
X126830000Y-121500000D02*
X120650000Y-115320000D01*
X120650000Y-113230000D02*
X120650000Y-102830000D01*
X150030000Y-123060000D02*
X144050000Y-123060000D01*
X144050000Y-123060000D02*
X134570000Y-123060000D01*
X150540000Y-122550000D02*
X150030000Y-123060000D01*
X150540000Y-121440000D02*
X150540000Y-122550000D01*
X156570000Y-115410000D02*
X152180000Y-119800000D01*
X152180000Y-119800000D02*
X150540000Y-121440000D01*
X156570000Y-98180000D02*
X156570000Y-99930000D01*
X156570000Y-99930000D02*
X156570000Y-110660000D01*
X156570000Y-110660000D02*
X156570000Y-115410000D01*
X148890000Y-90500000D02*
X150390000Y-92000000D01*
X150390000Y-92000000D02*
X151075000Y-92685000D01*
X151075000Y-92685000D02*
X156570000Y-98180000D01*
X149080000Y-90500000D02*
X148890000Y-90500000D01*
X133100000Y-90500000D02*
X142320000Y-90500000D01*
X142320000Y-90500000D02*
X149080000Y-90500000D01*
X131490000Y-101760000D02*
X134380000Y-101760000D01*
X134380000Y-101760000D02*
X137070000Y-104450000D01*
X131490000Y-101760000D02*
X131500000Y-101700000D01*
X131500000Y-101700000D02*
X134010000Y-99190000D01*
X123870000Y-115510000D02*
X123875000Y-115505000D01*
X123875000Y-115505000D02*
X123870000Y-115510000D01*
X123870000Y-115510000D02*
X123870000Y-115500000D01*
X122770000Y-106750000D02*
X122770000Y-114400000D01*
X122770000Y-114400000D02*
X123870000Y-115500000D01*
X123870000Y-115500000D02*
X129340000Y-120970000D01*
X129340000Y-120970000D02*
X138610000Y-120970000D01*
X138610000Y-120970000D02*
X147880000Y-120970000D01*
X147880000Y-120970000D02*
X147890000Y-120960000D01*
X122770000Y-106750000D02*
X122770000Y-106750000D01*
X122770000Y-106750000D02*
X122770000Y-98990000D01*
X122770000Y-98990000D02*
X123820000Y-97940000D01*
X123820000Y-97940000D02*
X129330000Y-92430000D01*
X153490000Y-115650000D02*
X147890000Y-120960000D01*
X154570000Y-114570000D02*
X154570000Y-106750000D01*
X153490000Y-115650000D02*
X154570000Y-114570000D01*
X153520000Y-97820000D02*
X154570000Y-98870000D01*
X154570000Y-98870000D02*
X154570000Y-106750000D01*
X147890000Y-92430000D02*
X148130000Y-92430000D01*
X148130000Y-92430000D02*
X153520000Y-97820000D01*
X129330000Y-92430000D02*
X138610000Y-92430000D01*
X141600000Y-97470000D02*
X141600000Y-95750000D01*
X139880000Y-99190000D02*
X141600000Y-97470000D01*
X134010000Y-99190000D02*
X139880000Y-99190000D01*
X141600000Y-95750000D02*
X141600000Y-92750000D01*
X141600000Y-92750000D02*
X141920000Y-92430000D01*
X138610000Y-92430000D02*
X141920000Y-92430000D01*
X141920000Y-92430000D02*
X147890000Y-92430000D01*
M02*
