G04 #@! TF.FileFunction,Copper,L2,Inr,Signal*
%FSLAX46Y46*%
G04 Gerber Fmt 4.6, Leading zero omitted, Abs format (unit mm)*
G04 Created by KiCad (PCBNEW 4.0.7-e2-6376~58~ubuntu16.04.1) date Fri Aug  3 16:41:56 2018*
%MOMM*%
%LPD*%
G01*
G04 APERTURE LIST*
%ADD10C,0.100000*%
%ADD11C,1.050000*%
%ADD12R,1.050000X1.050000*%
%ADD13C,0.600000*%
%ADD14C,0.500000*%
%ADD15C,0.250000*%
G04 APERTURE END LIST*
D10*
D11*
X129600000Y-95750000D03*
X145600000Y-95750000D03*
D12*
X147600000Y-95750000D03*
D11*
X133600000Y-95750000D03*
X131600000Y-95750000D03*
X143600000Y-95750000D03*
X141600000Y-95750000D03*
X135600000Y-95750000D03*
X137600000Y-95750000D03*
X139600000Y-95750000D03*
X129600000Y-117750000D03*
X145600000Y-117750000D03*
D12*
X147600000Y-117750000D03*
D11*
X133600000Y-117750000D03*
X131600000Y-117750000D03*
X143600000Y-117750000D03*
X141600000Y-117750000D03*
X135600000Y-117750000D03*
X137600000Y-117750000D03*
X139600000Y-117750000D03*
D13*
X142225000Y-109375000D03*
X129750000Y-111630000D03*
X134000000Y-111640000D03*
X126325000Y-122325000D03*
X151020000Y-90390000D03*
X133100000Y-90500000D03*
X142320000Y-90500000D03*
X156570000Y-99930000D03*
X156570000Y-110660000D03*
X152180000Y-119780000D03*
X144050000Y-123060000D03*
X134570000Y-123060000D03*
X120650000Y-113230000D03*
X124840000Y-93910000D03*
X120650000Y-102830000D03*
X132825000Y-102950000D03*
X153425000Y-103425000D03*
X127490000Y-103080000D03*
X131820000Y-102990000D03*
X126410000Y-116510000D03*
X153430000Y-113980000D03*
X131830000Y-119770000D03*
X139860000Y-119780000D03*
X150370000Y-117100000D03*
X136110000Y-93590000D03*
X126820000Y-96600000D03*
X123960000Y-101620000D03*
X123970000Y-109240000D03*
X150970000Y-96830000D03*
X143600000Y-93590000D03*
X150620000Y-108690000D03*
X133930000Y-102990000D03*
X131490000Y-101760000D03*
X137070000Y-104450000D03*
X123870000Y-115510000D03*
X138610000Y-120970000D03*
X123820000Y-97940000D03*
X122770000Y-106750000D03*
X147890000Y-120960000D03*
X153490000Y-115650000D03*
X154570000Y-106750000D03*
X153520000Y-97820000D03*
X138610000Y-92430000D03*
X129330000Y-92430000D03*
X147890000Y-92430000D03*
X129340000Y-120970000D03*
X137750000Y-103810000D03*
X130170000Y-103380000D03*
X122200000Y-98090000D03*
X121630000Y-108000000D03*
X123970000Y-117190000D03*
X130580000Y-122040000D03*
X139860000Y-122040000D03*
X149140000Y-122040000D03*
X155010000Y-115400000D03*
X155500000Y-105500000D03*
X153260000Y-96320000D03*
X137360000Y-91560000D03*
X146630000Y-91560000D03*
X128080000Y-91560000D03*
X128350000Y-106525000D03*
X165010000Y-78150000D03*
X160110000Y-81800000D03*
X166060000Y-72800000D03*
X160110000Y-70800000D03*
X167760000Y-77550000D03*
X167760000Y-75000000D03*
X160785000Y-77675000D03*
X164660000Y-76275000D03*
X160110000Y-76300000D03*
X160110000Y-73550000D03*
X179470000Y-48810000D03*
X178735000Y-52970000D03*
X175535000Y-52845000D03*
X117520000Y-48940000D03*
X116640000Y-52980000D03*
X113480000Y-52830000D03*
X177985000Y-49045000D03*
X173485000Y-51045000D03*
X176735000Y-48820000D03*
X116020000Y-49300000D03*
X111440000Y-50990000D03*
X114770000Y-48790000D03*
X129390000Y-48810000D03*
X128550000Y-52980000D03*
X125360000Y-52850000D03*
X179120000Y-59410000D03*
X178320000Y-63550000D03*
X175120000Y-63510000D03*
X141500000Y-69350000D03*
X140765000Y-73535000D03*
X137515000Y-73360000D03*
X127900000Y-49330000D03*
X123330000Y-50900000D03*
X126640000Y-48850000D03*
X177650000Y-59880000D03*
X173060000Y-61500000D03*
X176410000Y-59370000D03*
X140015000Y-69560000D03*
X135465000Y-71635000D03*
X138765000Y-69435000D03*
X167320000Y-48810000D03*
X166590000Y-52970000D03*
X163340000Y-52930000D03*
X165850000Y-49340000D03*
X161370000Y-51020000D03*
X164590000Y-48830000D03*
X117700000Y-69520000D03*
X116900000Y-73540000D03*
X113750000Y-73640000D03*
X154680000Y-48900000D03*
X153890000Y-53010000D03*
X150710000Y-53130000D03*
X129340000Y-59420000D03*
X128590000Y-63530000D03*
X125330000Y-63540000D03*
X117440000Y-59370000D03*
X116700000Y-63520000D03*
X113410000Y-63480000D03*
X141700000Y-48840000D03*
X140930000Y-52980000D03*
X137620000Y-53010000D03*
X167310000Y-59340000D03*
X166580000Y-63530000D03*
X163310000Y-63600000D03*
X129240000Y-69480000D03*
X128390000Y-73580000D03*
X125180000Y-73600000D03*
X154430000Y-59370000D03*
X153740000Y-63500000D03*
X150460000Y-63620000D03*
X141610000Y-59340000D03*
X140870000Y-63550000D03*
X137640000Y-63640000D03*
X116250000Y-69900000D03*
X111640000Y-71480000D03*
X114990000Y-69380000D03*
X153160000Y-49330000D03*
X148600000Y-50940000D03*
X151910000Y-48810000D03*
X127870000Y-59900000D03*
X123240000Y-61470000D03*
X126620000Y-59390000D03*
X115960000Y-59840000D03*
X111350000Y-61430000D03*
X114710000Y-59360000D03*
X140210000Y-49330000D03*
X135630000Y-50780000D03*
X138960000Y-48800000D03*
X165830000Y-59870000D03*
X161210000Y-61440000D03*
X164580000Y-59330000D03*
X127740000Y-69930000D03*
X123110000Y-71540000D03*
X126500000Y-69400000D03*
X152990000Y-59850000D03*
X148320000Y-61430000D03*
X151750000Y-59330000D03*
X140120000Y-59890000D03*
X135520000Y-61470000D03*
X138870000Y-59360000D03*
D14*
X153430000Y-113980000D02*
X153440000Y-113990000D01*
X153440000Y-113990000D02*
X153440000Y-114030000D01*
X131830000Y-119770000D02*
X131830000Y-119780000D01*
X131830000Y-119780000D02*
X131830000Y-119770000D01*
X131830000Y-119770000D02*
X131830000Y-119780000D01*
X123970000Y-109240000D02*
X123970000Y-114070000D01*
X147690000Y-119780000D02*
X150370000Y-117100000D01*
X129680000Y-119780000D02*
X131830000Y-119780000D01*
X131830000Y-119780000D02*
X139860000Y-119780000D01*
X139860000Y-119780000D02*
X147690000Y-119780000D01*
X123970000Y-114070000D02*
X126410000Y-116510000D01*
X126410000Y-116510000D02*
X129680000Y-119780000D01*
X153430000Y-104250000D02*
X153440000Y-104250000D01*
X153440000Y-104250000D02*
X153430000Y-104250000D01*
X153430000Y-104250000D02*
X153440000Y-104250000D01*
X153440000Y-114030000D02*
X150370000Y-117100000D01*
X153440000Y-104250000D02*
X153440000Y-114030000D01*
X153440000Y-99300000D02*
X153440000Y-104250000D01*
X129820000Y-93600000D02*
X126820000Y-96600000D01*
X136100000Y-93600000D02*
X129820000Y-93600000D01*
X136110000Y-93590000D02*
X136100000Y-93600000D01*
X123960000Y-99460000D02*
X123960000Y-101620000D01*
X126820000Y-96600000D02*
X123960000Y-99460000D01*
X123960000Y-109230000D02*
X123960000Y-101620000D01*
X123970000Y-109240000D02*
X123960000Y-109230000D01*
X150970000Y-96830000D02*
X148680000Y-96830000D01*
X148680000Y-96830000D02*
X147600000Y-95750000D01*
X147730000Y-93590000D02*
X150970000Y-96830000D01*
X150970000Y-96830000D02*
X153440000Y-99300000D01*
X147610000Y-93590000D02*
X147730000Y-93590000D01*
X147350000Y-93590000D02*
X147610000Y-93590000D01*
X145730000Y-93590000D02*
X147350000Y-93590000D01*
X145730000Y-93590000D02*
X143600000Y-93590000D01*
X150620000Y-108690000D02*
X150620000Y-110580000D01*
X133930000Y-107930000D02*
X133930000Y-102990000D01*
X138450000Y-112450000D02*
X133930000Y-107930000D01*
X148750000Y-112450000D02*
X138450000Y-112450000D01*
X150620000Y-110580000D02*
X148750000Y-112450000D01*
X137750000Y-103810000D02*
X137750000Y-103020000D01*
X137750000Y-103020000D02*
X135540000Y-100810000D01*
X135540000Y-100810000D02*
X130170000Y-100810000D01*
X139600000Y-95750000D02*
X139600000Y-96350000D01*
X139600000Y-96350000D02*
X138500000Y-97450000D01*
X138500000Y-97450000D02*
X133270000Y-97450000D01*
X133270000Y-97450000D02*
X130170000Y-100550000D01*
X130170000Y-100550000D02*
X130170000Y-100810000D01*
X130170000Y-100810000D02*
X130170000Y-102150000D01*
X130170000Y-102150000D02*
X130170000Y-103380000D01*
X137360000Y-91560000D02*
X139610000Y-91560000D01*
X139600000Y-91550000D02*
X139600000Y-95750000D01*
X139610000Y-91560000D02*
X139600000Y-91550000D01*
X128010000Y-91560000D02*
X128010000Y-92280000D01*
X128010000Y-92280000D02*
X122200000Y-98090000D01*
X121630000Y-108000000D02*
X121630000Y-98660000D01*
X121630000Y-98660000D02*
X122200000Y-98090000D01*
X123970000Y-117190000D02*
X121630000Y-114850000D01*
X121630000Y-114850000D02*
X121630000Y-108000000D01*
X130580000Y-122040000D02*
X128820000Y-122040000D01*
X128820000Y-122040000D02*
X123970000Y-117190000D01*
X139860000Y-122040000D02*
X130580000Y-122040000D01*
X149140000Y-122040000D02*
X139860000Y-122040000D01*
X155010000Y-115400000D02*
X154990000Y-115400000D01*
X149140000Y-121250000D02*
X149140000Y-122040000D01*
X154990000Y-115400000D02*
X149140000Y-121250000D01*
X155500000Y-105500000D02*
X155500000Y-114910000D01*
X155500000Y-114910000D02*
X155010000Y-115400000D01*
X153280000Y-96320000D02*
X153260000Y-96320000D01*
X155500000Y-98540000D02*
X153280000Y-96320000D01*
X155500000Y-105500000D02*
X155500000Y-98540000D01*
X146630000Y-91560000D02*
X148500000Y-91560000D01*
X148500000Y-91560000D02*
X153260000Y-96320000D01*
X128080000Y-91560000D02*
X128010000Y-91560000D01*
X128010000Y-91560000D02*
X137360000Y-91560000D01*
X137360000Y-91560000D02*
X146630000Y-91560000D01*
D15*
X178735000Y-49545000D02*
X178735000Y-52970000D01*
X179470000Y-48810000D02*
X178735000Y-49545000D01*
X116640000Y-49820000D02*
X116640000Y-52980000D01*
X117520000Y-48940000D02*
X116640000Y-49820000D01*
X128550000Y-52980000D02*
X128550000Y-49650000D01*
X128550000Y-49650000D02*
X129390000Y-48810000D01*
X178320000Y-63550000D02*
X178320000Y-60210000D01*
X178320000Y-60210000D02*
X179120000Y-59410000D01*
X140765000Y-73535000D02*
X140765000Y-70085000D01*
X140765000Y-70085000D02*
X141500000Y-69350000D01*
X166590000Y-52970000D02*
X166590000Y-49540000D01*
X166590000Y-49540000D02*
X167320000Y-48810000D01*
X116900000Y-73540000D02*
X116900000Y-70320000D01*
X116900000Y-70320000D02*
X117700000Y-69520000D01*
X153890000Y-49690000D02*
X153890000Y-53010000D01*
X154680000Y-48900000D02*
X153890000Y-49690000D01*
X128590000Y-63530000D02*
X128590000Y-60170000D01*
X128590000Y-60170000D02*
X129340000Y-59420000D01*
X116700000Y-60110000D02*
X116700000Y-63520000D01*
X117440000Y-59370000D02*
X116700000Y-60110000D01*
X140930000Y-52980000D02*
X140930000Y-49610000D01*
X140930000Y-49610000D02*
X141700000Y-48840000D01*
X166580000Y-60070000D02*
X166580000Y-63530000D01*
X167310000Y-59340000D02*
X166580000Y-60070000D01*
X128390000Y-70330000D02*
X128390000Y-73580000D01*
X129240000Y-69480000D02*
X128390000Y-70330000D01*
X153740000Y-60060000D02*
X153740000Y-63500000D01*
X154430000Y-59370000D02*
X153740000Y-60060000D01*
X140870000Y-63550000D02*
X140870000Y-60080000D01*
X140870000Y-60080000D02*
X141610000Y-59340000D01*
M02*
