G04 #@! TF.FileFunction,Copper,L4,Bot,Plane*
%FSLAX46Y46*%
G04 Gerber Fmt 4.6, Leading zero omitted, Abs format (unit mm)*
G04 Created by KiCad (PCBNEW 4.0.7-e2-6376~58~ubuntu16.04.1) date Fri Aug  3 20:43:21 2018*
%MOMM*%
%LPD*%
G01*
G04 APERTURE LIST*
%ADD10C,0.100000*%
%ADD11R,0.400000X0.400000*%
%ADD12R,2.000000X0.400000*%
%ADD13R,0.400000X1.000000*%
%ADD14R,0.400000X2.000000*%
%ADD15C,1.050000*%
%ADD16R,1.050000X1.050000*%
%ADD17R,1.000000X1.600000*%
%ADD18R,0.500000X1.250000*%
%ADD19R,0.850000X0.300000*%
%ADD20R,0.300000X0.850000*%
%ADD21R,1.250000X0.500000*%
%ADD22R,0.800000X0.900000*%
%ADD23R,0.500000X0.600000*%
%ADD24R,0.400000X0.600000*%
%ADD25R,0.600000X0.400000*%
%ADD26R,3.000000X1.250000*%
%ADD27R,0.800000X0.750000*%
%ADD28R,0.970000X1.270000*%
%ADD29R,1.000000X1.500000*%
%ADD30R,0.400000X1.500000*%
%ADD31R,0.400000X3.000000*%
%ADD32R,1.000000X0.400000*%
%ADD33R,3.000000X0.400000*%
%ADD34C,0.400000*%
%ADD35C,0.600000*%
%ADD36C,0.500000*%
%ADD37C,0.800000*%
%ADD38C,0.250000*%
%ADD39C,0.400000*%
%ADD40C,0.300000*%
%ADD41C,0.351000*%
G04 APERTURE END LIST*
D10*
D11*
X136780000Y-74910000D03*
D12*
X135330000Y-74910000D03*
X141130000Y-74910000D03*
X138230000Y-74910000D03*
D11*
X139680000Y-74910000D03*
X139680000Y-68510000D03*
D12*
X138230000Y-68510000D03*
X141130000Y-68510000D03*
X135330000Y-68510000D03*
D13*
X142330000Y-71710000D03*
D14*
X142330000Y-73710000D03*
X142330000Y-69710000D03*
X134130000Y-69710000D03*
X134130000Y-73710000D03*
D13*
X134130000Y-71710000D03*
D11*
X136780000Y-68510000D03*
D15*
X129600000Y-95750000D03*
X145600000Y-95750000D03*
D16*
X147600000Y-95750000D03*
D15*
X133600000Y-95750000D03*
X131600000Y-95750000D03*
X143600000Y-95750000D03*
X141600000Y-95750000D03*
X135600000Y-95750000D03*
X137600000Y-95750000D03*
X139600000Y-95750000D03*
D17*
X147600000Y-97350000D03*
X145600000Y-94150000D03*
X143600000Y-97350000D03*
X141600000Y-94150000D03*
X139600000Y-97350000D03*
X137600000Y-94150000D03*
X135600000Y-97350000D03*
X133600000Y-94150000D03*
X131600000Y-97350000D03*
X129600000Y-94150000D03*
D15*
X147600000Y-95750000D03*
X145600000Y-95750000D03*
X143600000Y-95750000D03*
X141600000Y-95750000D03*
X139600000Y-95750000D03*
X137600000Y-95750000D03*
X135600000Y-95750000D03*
X133600000Y-95750000D03*
X131600000Y-95750000D03*
X129600000Y-95750000D03*
D18*
X130580000Y-90290000D03*
X128080000Y-90290000D03*
X139860000Y-90320000D03*
X137360000Y-90320000D03*
X149130000Y-90300000D03*
X146630000Y-90300000D03*
X146640000Y-123200000D03*
X149140000Y-123200000D03*
X128070000Y-123140000D03*
X130570000Y-123140000D03*
D19*
X133760000Y-105480000D03*
X133760000Y-105980000D03*
X133760000Y-106480000D03*
X133760000Y-106980000D03*
X133760000Y-107480000D03*
X133760000Y-107980000D03*
D20*
X133060000Y-108680000D03*
X132560000Y-108680000D03*
X132060000Y-108680000D03*
X131560000Y-108680000D03*
X131060000Y-108680000D03*
X130560000Y-108680000D03*
D19*
X129860000Y-107980000D03*
X129860000Y-107480000D03*
X129860000Y-106980000D03*
X129860000Y-106480000D03*
X129860000Y-105980000D03*
X129860000Y-105480000D03*
D20*
X130560000Y-104780000D03*
X131060000Y-104780000D03*
X131560000Y-104780000D03*
X132060000Y-104780000D03*
X132560000Y-104780000D03*
X133060000Y-104780000D03*
D10*
G36*
X156472601Y-96998718D02*
X155588718Y-97882601D01*
X155235165Y-97529048D01*
X156119048Y-96645165D01*
X156472601Y-96998718D01*
X156472601Y-96998718D01*
G37*
G36*
X154704835Y-95230952D02*
X153820952Y-96114835D01*
X153467399Y-95761282D01*
X154351282Y-94877399D01*
X154704835Y-95230952D01*
X154704835Y-95230952D01*
G37*
D21*
X156720000Y-108000000D03*
X156720000Y-105500000D03*
X120460000Y-105510000D03*
X120460000Y-108010000D03*
D18*
X137350000Y-123200000D03*
X139850000Y-123200000D03*
D10*
G36*
X120727399Y-116561282D02*
X121611282Y-115677399D01*
X121964835Y-116030952D01*
X121080952Y-116914835D01*
X120727399Y-116561282D01*
X120727399Y-116561282D01*
G37*
G36*
X122495165Y-118329048D02*
X123379048Y-117445165D01*
X123732601Y-117798718D01*
X122848718Y-118682601D01*
X122495165Y-118329048D01*
X122495165Y-118329048D01*
G37*
G36*
X154371282Y-118652601D02*
X153487399Y-117768718D01*
X153840952Y-117415165D01*
X154724835Y-118299048D01*
X154371282Y-118652601D01*
X154371282Y-118652601D01*
G37*
G36*
X156139048Y-116884835D02*
X155255165Y-116000952D01*
X155608718Y-115647399D01*
X156492601Y-116531282D01*
X156139048Y-116884835D01*
X156139048Y-116884835D01*
G37*
G36*
X122868718Y-94867399D02*
X123752601Y-95751282D01*
X123399048Y-96104835D01*
X122515165Y-95220952D01*
X122868718Y-94867399D01*
X122868718Y-94867399D01*
G37*
G36*
X121100952Y-96635165D02*
X121984835Y-97519048D01*
X121631282Y-97872601D01*
X120747399Y-96988718D01*
X121100952Y-96635165D01*
X121100952Y-96635165D01*
G37*
D22*
X131490000Y-113610000D03*
X129590000Y-113610000D03*
X130540000Y-111610000D03*
D23*
X127480000Y-104370000D03*
X127480000Y-105470000D03*
D24*
X132970000Y-92040000D03*
X132070000Y-92040000D03*
X141775000Y-92025000D03*
X140875000Y-92025000D03*
X150875000Y-92075000D03*
X149975000Y-92075000D03*
D25*
X155225000Y-100300000D03*
X155225000Y-99400000D03*
X154725000Y-110625000D03*
X154725000Y-109725000D03*
X151575000Y-117800000D03*
X151575000Y-116900000D03*
D24*
X144675000Y-121325000D03*
X145575000Y-121325000D03*
X134600000Y-121425000D03*
X135500000Y-121425000D03*
X126325000Y-121175000D03*
X127225000Y-121175000D03*
D25*
X122225000Y-112650000D03*
X122225000Y-113550000D03*
X122750000Y-103550000D03*
X122750000Y-104450000D03*
X125150000Y-95200000D03*
X125150000Y-96100000D03*
D15*
X129600000Y-117750000D03*
X145600000Y-117750000D03*
D16*
X147600000Y-117750000D03*
D15*
X133600000Y-117750000D03*
X131600000Y-117750000D03*
X143600000Y-117750000D03*
X141600000Y-117750000D03*
X135600000Y-117750000D03*
X137600000Y-117750000D03*
X139600000Y-117750000D03*
D17*
X147600000Y-116150000D03*
X145600000Y-119350000D03*
X143600000Y-116150000D03*
X141600000Y-119350000D03*
X139600000Y-116150000D03*
X137600000Y-119350000D03*
X135600000Y-116150000D03*
X133600000Y-119350000D03*
X131600000Y-116150000D03*
X129600000Y-119350000D03*
D15*
X147600000Y-117750000D03*
X145600000Y-117750000D03*
X143600000Y-117750000D03*
X141600000Y-117750000D03*
X139600000Y-117750000D03*
X137600000Y-117750000D03*
X135600000Y-117750000D03*
X133600000Y-117750000D03*
X131600000Y-117750000D03*
X129600000Y-117750000D03*
D26*
X148000000Y-112225000D03*
X148000000Y-109475000D03*
X148000000Y-106725000D03*
X148000000Y-103975000D03*
X148000000Y-101225000D03*
D27*
X169260000Y-71325000D03*
X167760000Y-71325000D03*
X169260000Y-81200000D03*
X167760000Y-81200000D03*
X169260000Y-73525000D03*
X167760000Y-73525000D03*
D28*
X162495000Y-72725000D03*
X163775000Y-72725000D03*
X163775000Y-79875000D03*
X162495000Y-79875000D03*
D26*
X158410000Y-81800000D03*
X158410000Y-79050000D03*
X158410000Y-76300000D03*
X158410000Y-73550000D03*
X158410000Y-70800000D03*
D25*
X169260000Y-78325000D03*
X169260000Y-77425000D03*
D29*
X174735000Y-50895000D03*
X172235000Y-50895000D03*
X175985000Y-53395000D03*
X173485000Y-53395000D03*
X170985000Y-53395000D03*
X116015000Y-50900000D03*
X113515000Y-50900000D03*
X117265000Y-53400000D03*
X114765000Y-53400000D03*
X112265000Y-53400000D03*
X127745000Y-50900000D03*
X125245000Y-50900000D03*
X128995000Y-53400000D03*
X126495000Y-53400000D03*
X123995000Y-53400000D03*
X174755000Y-60970000D03*
X172255000Y-60970000D03*
X176005000Y-63470000D03*
X173505000Y-63470000D03*
X171005000Y-63470000D03*
X139465000Y-70630000D03*
X136965000Y-70630000D03*
X140715000Y-73130000D03*
X138215000Y-73130000D03*
X135715000Y-73130000D03*
X162990000Y-50945000D03*
X160490000Y-50945000D03*
X164240000Y-53445000D03*
X161740000Y-53445000D03*
X159240000Y-53445000D03*
X116090000Y-70570000D03*
X113590000Y-70570000D03*
X117340000Y-73070000D03*
X114840000Y-73070000D03*
X112340000Y-73070000D03*
X151260000Y-50970000D03*
X148760000Y-50970000D03*
X152510000Y-53470000D03*
X150010000Y-53470000D03*
X147510000Y-53470000D03*
X127770000Y-60970000D03*
X125270000Y-60970000D03*
X129020000Y-63470000D03*
X126520000Y-63470000D03*
X124020000Y-63470000D03*
X116010000Y-60920000D03*
X113510000Y-60920000D03*
X117260000Y-63420000D03*
X114760000Y-63420000D03*
X112260000Y-63420000D03*
X139560000Y-50960000D03*
X137060000Y-50960000D03*
X140810000Y-53460000D03*
X138310000Y-53460000D03*
X135810000Y-53460000D03*
X162980000Y-61000000D03*
X160480000Y-61000000D03*
X164230000Y-63500000D03*
X161730000Y-63500000D03*
X159230000Y-63500000D03*
X127850000Y-70640000D03*
X125350000Y-70640000D03*
X129100000Y-73140000D03*
X126600000Y-73140000D03*
X124100000Y-73140000D03*
X151190000Y-60980000D03*
X148690000Y-60980000D03*
X152440000Y-63480000D03*
X149940000Y-63480000D03*
X147440000Y-63480000D03*
X139420000Y-60970000D03*
X136920000Y-60970000D03*
X140670000Y-63470000D03*
X138170000Y-63470000D03*
X135670000Y-63470000D03*
D11*
X113310000Y-74910000D03*
D12*
X111860000Y-74910000D03*
X117660000Y-74910000D03*
X114760000Y-74910000D03*
D11*
X116210000Y-74910000D03*
X116210000Y-68510000D03*
D12*
X114760000Y-68510000D03*
X117660000Y-68510000D03*
X111860000Y-68510000D03*
D13*
X118860000Y-71710000D03*
D14*
X118860000Y-73710000D03*
X118860000Y-69710000D03*
X110660000Y-69710000D03*
X110660000Y-73710000D03*
D13*
X110660000Y-71710000D03*
D11*
X113310000Y-68510000D03*
X125050000Y-74900000D03*
D12*
X123600000Y-74900000D03*
X129400000Y-74900000D03*
X126500000Y-74900000D03*
D11*
X127950000Y-74900000D03*
X127950000Y-68500000D03*
D12*
X126500000Y-68500000D03*
X129400000Y-68500000D03*
X123600000Y-68500000D03*
D13*
X130600000Y-71700000D03*
D14*
X130600000Y-73700000D03*
X130600000Y-69700000D03*
X122400000Y-69700000D03*
X122400000Y-73700000D03*
D13*
X122400000Y-71700000D03*
D11*
X125050000Y-68500000D03*
X113300000Y-65250000D03*
D12*
X111850000Y-65250000D03*
X117650000Y-65250000D03*
X114750000Y-65250000D03*
D11*
X116200000Y-65250000D03*
X116200000Y-58850000D03*
D12*
X114750000Y-58850000D03*
X117650000Y-58850000D03*
X111850000Y-58850000D03*
D13*
X118850000Y-62050000D03*
D14*
X118850000Y-64050000D03*
X118850000Y-60050000D03*
X110650000Y-60050000D03*
X110650000Y-64050000D03*
D13*
X110650000Y-62050000D03*
D11*
X113300000Y-58850000D03*
X125050000Y-65250000D03*
D12*
X123600000Y-65250000D03*
X129400000Y-65250000D03*
X126500000Y-65250000D03*
D11*
X127950000Y-65250000D03*
X127950000Y-58850000D03*
D12*
X126500000Y-58850000D03*
X129400000Y-58850000D03*
X123600000Y-58850000D03*
D13*
X130600000Y-62050000D03*
D14*
X130600000Y-64050000D03*
X130600000Y-60050000D03*
X122400000Y-60050000D03*
X122400000Y-64050000D03*
D13*
X122400000Y-62050000D03*
D11*
X125050000Y-58850000D03*
X136800000Y-65250000D03*
D12*
X135350000Y-65250000D03*
X141150000Y-65250000D03*
X138250000Y-65250000D03*
D11*
X139700000Y-65250000D03*
X139700000Y-58850000D03*
D12*
X138250000Y-58850000D03*
X141150000Y-58850000D03*
X135350000Y-58850000D03*
D13*
X142350000Y-62050000D03*
D14*
X142350000Y-64050000D03*
X142350000Y-60050000D03*
X134150000Y-60050000D03*
X134150000Y-64050000D03*
D13*
X134150000Y-62050000D03*
D11*
X136800000Y-58850000D03*
X148550000Y-65250000D03*
D12*
X147100000Y-65250000D03*
X152900000Y-65250000D03*
X150000000Y-65250000D03*
D11*
X151450000Y-65250000D03*
X151450000Y-58850000D03*
D12*
X150000000Y-58850000D03*
X152900000Y-58850000D03*
X147100000Y-58850000D03*
D13*
X154100000Y-62050000D03*
D14*
X154100000Y-64050000D03*
X154100000Y-60050000D03*
X145900000Y-60050000D03*
X145900000Y-64050000D03*
D13*
X145900000Y-62050000D03*
D11*
X148550000Y-58850000D03*
X160300000Y-65250000D03*
D12*
X158850000Y-65250000D03*
X164650000Y-65250000D03*
X161750000Y-65250000D03*
D11*
X163200000Y-65250000D03*
X163200000Y-58850000D03*
D12*
X161750000Y-58850000D03*
X164650000Y-58850000D03*
X158850000Y-58850000D03*
D13*
X165850000Y-62050000D03*
D14*
X165850000Y-64050000D03*
X165850000Y-60050000D03*
X157650000Y-60050000D03*
X157650000Y-64050000D03*
D13*
X157650000Y-62050000D03*
D11*
X160300000Y-58850000D03*
X172050000Y-65250000D03*
D12*
X170600000Y-65250000D03*
X176400000Y-65250000D03*
X173500000Y-65250000D03*
D11*
X174950000Y-65250000D03*
X174950000Y-58850000D03*
D12*
X173500000Y-58850000D03*
X176400000Y-58850000D03*
X170600000Y-58850000D03*
D13*
X177600000Y-62050000D03*
D14*
X177600000Y-64050000D03*
X177600000Y-60050000D03*
X169400000Y-60050000D03*
X169400000Y-64050000D03*
D13*
X169400000Y-62050000D03*
D11*
X172050000Y-58850000D03*
X172050000Y-55200000D03*
D12*
X170600000Y-55200000D03*
X176400000Y-55200000D03*
X173500000Y-55200000D03*
D11*
X174950000Y-55200000D03*
X174950000Y-48800000D03*
D12*
X173500000Y-48800000D03*
X176400000Y-48800000D03*
X170600000Y-48800000D03*
D13*
X177600000Y-52000000D03*
D14*
X177600000Y-54000000D03*
X177600000Y-50000000D03*
X169400000Y-50000000D03*
X169400000Y-54000000D03*
D13*
X169400000Y-52000000D03*
D11*
X172050000Y-48800000D03*
X160300000Y-55200000D03*
D12*
X158850000Y-55200000D03*
X164650000Y-55200000D03*
X161750000Y-55200000D03*
D11*
X163200000Y-55200000D03*
X163200000Y-48800000D03*
D12*
X161750000Y-48800000D03*
X164650000Y-48800000D03*
X158850000Y-48800000D03*
D13*
X165850000Y-52000000D03*
D14*
X165850000Y-54000000D03*
X165850000Y-50000000D03*
X157650000Y-50000000D03*
X157650000Y-54000000D03*
D13*
X157650000Y-52000000D03*
D11*
X160300000Y-48800000D03*
X148550000Y-55200000D03*
D12*
X147100000Y-55200000D03*
X152900000Y-55200000D03*
X150000000Y-55200000D03*
D11*
X151450000Y-55200000D03*
X151450000Y-48800000D03*
D12*
X150000000Y-48800000D03*
X152900000Y-48800000D03*
X147100000Y-48800000D03*
D13*
X154100000Y-52000000D03*
D14*
X154100000Y-54000000D03*
X154100000Y-50000000D03*
X145900000Y-50000000D03*
X145900000Y-54000000D03*
D13*
X145900000Y-52000000D03*
D11*
X148550000Y-48800000D03*
X136800000Y-55200000D03*
D12*
X135350000Y-55200000D03*
X141150000Y-55200000D03*
X138250000Y-55200000D03*
D11*
X139700000Y-55200000D03*
X139700000Y-48800000D03*
D12*
X138250000Y-48800000D03*
X141150000Y-48800000D03*
X135350000Y-48800000D03*
D13*
X142350000Y-52000000D03*
D14*
X142350000Y-54000000D03*
X142350000Y-50000000D03*
X134150000Y-50000000D03*
X134150000Y-54000000D03*
D13*
X134150000Y-52000000D03*
D11*
X136800000Y-48800000D03*
X125050000Y-55200000D03*
D12*
X123600000Y-55200000D03*
X129400000Y-55200000D03*
X126500000Y-55200000D03*
D11*
X127950000Y-55200000D03*
X127950000Y-48800000D03*
D12*
X126500000Y-48800000D03*
X129400000Y-48800000D03*
X123600000Y-48800000D03*
D13*
X130600000Y-52000000D03*
D14*
X130600000Y-54000000D03*
X130600000Y-50000000D03*
X122400000Y-50000000D03*
X122400000Y-54000000D03*
D13*
X122400000Y-52000000D03*
D11*
X125050000Y-48800000D03*
X113300000Y-55200000D03*
D12*
X111850000Y-55200000D03*
X117650000Y-55200000D03*
X114750000Y-55200000D03*
D11*
X116200000Y-55200000D03*
X116200000Y-48800000D03*
D12*
X114750000Y-48800000D03*
X117650000Y-48800000D03*
X111850000Y-48800000D03*
D13*
X118850000Y-52000000D03*
D14*
X118850000Y-54000000D03*
X118850000Y-50000000D03*
X110650000Y-50000000D03*
X110650000Y-54000000D03*
D13*
X110650000Y-52000000D03*
D11*
X113300000Y-48800000D03*
D30*
X156650000Y-82250000D03*
D31*
X156650000Y-76250000D03*
X156650000Y-72900000D03*
X156650000Y-79650000D03*
D30*
X156650000Y-70250000D03*
X171650000Y-70250000D03*
D31*
X171650000Y-79650000D03*
X171650000Y-72900000D03*
D32*
X166350000Y-69150000D03*
D33*
X164150000Y-69150000D03*
X159700000Y-69150000D03*
X168600000Y-69150000D03*
D32*
X170800000Y-69150000D03*
X161900000Y-69150000D03*
X157500000Y-69150000D03*
X157500000Y-83350000D03*
X161900000Y-83350000D03*
X170800000Y-83350000D03*
D33*
X168600000Y-83350000D03*
X159700000Y-83350000D03*
D34*
X171500000Y-83200000D03*
X171500000Y-69300000D03*
X156800000Y-69300000D03*
X156800000Y-83200000D03*
D33*
X164150000Y-83350000D03*
D32*
X166350000Y-83350000D03*
D31*
X171650000Y-76250000D03*
D30*
X171650000Y-82250000D03*
D35*
X142225000Y-109375000D03*
X129750000Y-111630000D03*
X134000000Y-111640000D03*
X126325000Y-122325000D03*
X151020000Y-90390000D03*
X133100000Y-90500000D03*
X142320000Y-90500000D03*
X156570000Y-99930000D03*
X156570000Y-110660000D03*
X152180000Y-119780000D03*
X144050000Y-123060000D03*
X134570000Y-123060000D03*
X120650000Y-113230000D03*
X124840000Y-93910000D03*
X120650000Y-102830000D03*
X132825000Y-102950000D03*
X153425000Y-103425000D03*
X127490000Y-103080000D03*
X131820000Y-102990000D03*
X126410000Y-116510000D03*
X153430000Y-113980000D03*
X131830000Y-119770000D03*
X139860000Y-119780000D03*
X150370000Y-117100000D03*
X136110000Y-93590000D03*
X126820000Y-96600000D03*
X123960000Y-101620000D03*
X123970000Y-109240000D03*
X150970000Y-96830000D03*
X143600000Y-93590000D03*
X150620000Y-108690000D03*
X133930000Y-102990000D03*
X131490000Y-101760000D03*
X137070000Y-104450000D03*
X123870000Y-115510000D03*
X138610000Y-120970000D03*
X123820000Y-97940000D03*
X122770000Y-106750000D03*
X147890000Y-120960000D03*
X153490000Y-115650000D03*
X154570000Y-106750000D03*
X153520000Y-97820000D03*
X138610000Y-92430000D03*
X129330000Y-92430000D03*
X147890000Y-92430000D03*
X129340000Y-120970000D03*
X137750000Y-103810000D03*
X130170000Y-103380000D03*
X122200000Y-98090000D03*
X121630000Y-108000000D03*
X123970000Y-117190000D03*
X130580000Y-122040000D03*
X139860000Y-122040000D03*
X149140000Y-122040000D03*
X155010000Y-115400000D03*
X155500000Y-105500000D03*
X153260000Y-96320000D03*
X137360000Y-91560000D03*
X146630000Y-91560000D03*
X128080000Y-91560000D03*
X128350000Y-106525000D03*
X165010000Y-78150000D03*
X160110000Y-81800000D03*
X166060000Y-72800000D03*
X160110000Y-70800000D03*
X167760000Y-77550000D03*
X167760000Y-75000000D03*
X160785000Y-77675000D03*
X164660000Y-76275000D03*
X160110000Y-76300000D03*
X160110000Y-73550000D03*
X176220000Y-49760000D03*
X175485000Y-53920000D03*
X172285000Y-53795000D03*
X117520000Y-49890000D03*
X116640000Y-53930000D03*
X113480000Y-53780000D03*
X174735000Y-49995000D03*
X170280000Y-50370000D03*
X173485000Y-49770000D03*
X116020000Y-50250000D03*
X111550000Y-50370000D03*
X114770000Y-49740000D03*
X129240000Y-49760000D03*
X128400000Y-53930000D03*
X125210000Y-53800000D03*
X176220000Y-59860000D03*
X175420000Y-64000000D03*
X172220000Y-63960000D03*
X140950000Y-69470000D03*
X140215000Y-73655000D03*
X136965000Y-73480000D03*
X127750000Y-50280000D03*
X123300000Y-50370000D03*
X126490000Y-49800000D03*
X174750000Y-60330000D03*
X170300000Y-60450000D03*
X173510000Y-59820000D03*
X139465000Y-69680000D03*
X135010000Y-70100000D03*
X138215000Y-69555000D03*
X164470000Y-49810000D03*
X163740000Y-53970000D03*
X160490000Y-53930000D03*
X163000000Y-50340000D03*
X158540000Y-50420000D03*
X161740000Y-49830000D03*
X117550000Y-69570000D03*
X116750000Y-73590000D03*
X113600000Y-73690000D03*
X152780000Y-49900000D03*
X151990000Y-54010000D03*
X148810000Y-54130000D03*
X129240000Y-59870000D03*
X128490000Y-63980000D03*
X125230000Y-63990000D03*
X117490000Y-59820000D03*
X116750000Y-63970000D03*
X113460000Y-63930000D03*
X141050000Y-49840000D03*
X140280000Y-53980000D03*
X136970000Y-54010000D03*
X164460000Y-59840000D03*
X163730000Y-64030000D03*
X160460000Y-64100000D03*
X129350000Y-69560000D03*
X128500000Y-73660000D03*
X125290000Y-73680000D03*
X152630000Y-59870000D03*
X151940000Y-64000000D03*
X148660000Y-64120000D03*
X140910000Y-59790000D03*
X140170000Y-64000000D03*
X136940000Y-64090000D03*
X116100000Y-69950000D03*
X111650000Y-70050000D03*
X114840000Y-69430000D03*
X151260000Y-50330000D03*
X146800000Y-50440000D03*
X150010000Y-49810000D03*
X127770000Y-60350000D03*
X123350000Y-60450000D03*
X126520000Y-59840000D03*
X116010000Y-60290000D03*
X111550000Y-60400000D03*
X114760000Y-59810000D03*
X139560000Y-50330000D03*
X135110000Y-50430000D03*
X138310000Y-49800000D03*
X162980000Y-60370000D03*
X158550000Y-60450000D03*
X161730000Y-59830000D03*
X127850000Y-70010000D03*
X123370000Y-70110000D03*
X126610000Y-69480000D03*
X151190000Y-60350000D03*
X146750000Y-60450000D03*
X149950000Y-59830000D03*
X139420000Y-60340000D03*
X134950000Y-60450000D03*
X138170000Y-59810000D03*
D36*
X148000000Y-112225000D02*
X145875000Y-112225000D01*
X143025000Y-109375000D02*
X142225000Y-109375000D01*
X145875000Y-112225000D02*
X143025000Y-109375000D01*
D37*
X129600000Y-94150000D02*
X129600000Y-95750000D01*
D38*
X132060000Y-108690000D02*
X132060000Y-110220000D01*
X129750000Y-111630000D02*
X130560000Y-111630000D01*
X133480000Y-111640000D02*
X134000000Y-111640000D01*
X132060000Y-110220000D02*
X133480000Y-111640000D01*
X132975000Y-92050000D02*
X132975000Y-90625000D01*
X132975000Y-90625000D02*
X133100000Y-90500000D01*
X141775000Y-92025000D02*
X141775000Y-91045000D01*
X141775000Y-91045000D02*
X142320000Y-90500000D01*
X150875000Y-92075000D02*
X150875000Y-90535000D01*
X150875000Y-90535000D02*
X151020000Y-90390000D01*
X155225000Y-100300000D02*
X156200000Y-100300000D01*
X156200000Y-100300000D02*
X156570000Y-99930000D01*
X154725000Y-110625000D02*
X156535000Y-110625000D01*
X156535000Y-110625000D02*
X156570000Y-110660000D01*
X151575000Y-117800000D02*
X151575000Y-119175000D01*
X151575000Y-119175000D02*
X152180000Y-119780000D01*
X144675000Y-121325000D02*
X144675000Y-122435000D01*
X144675000Y-122435000D02*
X144050000Y-123060000D01*
X134600000Y-121425000D02*
X134600000Y-123030000D01*
X134600000Y-123030000D02*
X134570000Y-123060000D01*
X126340000Y-121160000D02*
X126340000Y-122310000D01*
X126340000Y-122310000D02*
X126325000Y-122325000D01*
X122220000Y-112660000D02*
X121220000Y-112660000D01*
X121220000Y-112660000D02*
X120650000Y-113230000D01*
X122750000Y-103550000D02*
X121370000Y-103550000D01*
X121370000Y-103550000D02*
X120650000Y-102830000D01*
X125150000Y-95250000D02*
X125150000Y-94220000D01*
X125150000Y-94220000D02*
X124840000Y-93910000D01*
X129860000Y-105490000D02*
X128675000Y-105490000D01*
X128675000Y-105490000D02*
X127520000Y-105490000D01*
X127520000Y-105490000D02*
X127490000Y-105460000D01*
X133060000Y-104790000D02*
X133060000Y-103185000D01*
X132560000Y-103165000D02*
X132560000Y-104790000D01*
X132825000Y-102950000D02*
X132825000Y-100675000D01*
X132230000Y-100080000D02*
X129600000Y-100080000D01*
X132825000Y-100675000D02*
X132230000Y-100080000D01*
X132825000Y-102950000D02*
X132925000Y-103050000D01*
X129600000Y-100080000D02*
X129600000Y-100250000D01*
X129600000Y-102400000D02*
X129600000Y-102425000D01*
X128675000Y-103350000D02*
X128675000Y-105490000D01*
X129600000Y-102425000D02*
X128675000Y-103350000D01*
X129600000Y-100250000D02*
X129600000Y-102400000D01*
X133060000Y-103185000D02*
X132925000Y-103050000D01*
X132925000Y-103050000D02*
X132675000Y-103050000D01*
X132675000Y-103050000D02*
X132560000Y-103165000D01*
X129600000Y-94575000D02*
X129600000Y-100080000D01*
D36*
X148000000Y-101225000D02*
X151225000Y-101225000D01*
X151225000Y-101225000D02*
X153425000Y-103425000D01*
X153425000Y-103425000D02*
X153450000Y-103425000D01*
D37*
X147600000Y-95750000D02*
X147600000Y-97350000D01*
D38*
X127490000Y-103080000D02*
X127490000Y-104360000D01*
X131560000Y-104790000D02*
X131560000Y-103250000D01*
X131560000Y-103250000D02*
X131820000Y-102990000D01*
X133760000Y-103160000D02*
X133930000Y-102990000D01*
X133760000Y-105490000D02*
X133760000Y-103160000D01*
D36*
X148000000Y-103975000D02*
X151795000Y-103975000D01*
X151795000Y-103975000D02*
X154570000Y-106750000D01*
D37*
X141600000Y-95750000D02*
X141600000Y-94150000D01*
D38*
X131060000Y-104790000D02*
X131060000Y-102190000D01*
X131060000Y-102190000D02*
X131490000Y-101760000D01*
D36*
X148000000Y-106725000D02*
X140665000Y-106725000D01*
X140665000Y-106725000D02*
X137750000Y-103810000D01*
D37*
X139600000Y-95750000D02*
X139600000Y-97350000D01*
D38*
X130560000Y-104790000D02*
X130560000Y-103770000D01*
X130560000Y-103770000D02*
X130170000Y-103380000D01*
D36*
X122200000Y-98090000D02*
X121436117Y-97326117D01*
X121436117Y-97326117D02*
X121436117Y-97323883D01*
X121630000Y-108000000D02*
X120550000Y-108000000D01*
X123970000Y-117190000D02*
X123216117Y-117943883D01*
X123216117Y-117943883D02*
X123203883Y-117943883D01*
X130580000Y-122040000D02*
X130580000Y-123110000D01*
X139860000Y-122040000D02*
X139860000Y-123110000D01*
X149140000Y-122040000D02*
X149140000Y-123110000D01*
X155010000Y-115400000D02*
X155783883Y-116173883D01*
X155783883Y-116173883D02*
X155783883Y-116176117D01*
X156660000Y-105500000D02*
X155500000Y-105500000D01*
X153260000Y-96320000D02*
X154016117Y-95563883D01*
X154016117Y-95563883D02*
X154016117Y-95556117D01*
X137360000Y-90390000D02*
X137360000Y-91560000D01*
X128080000Y-90390000D02*
X128080000Y-91560000D01*
X146640000Y-91550000D02*
X146640000Y-90390000D01*
X146630000Y-91560000D02*
X146640000Y-91550000D01*
D38*
X132075000Y-92050000D02*
X131430000Y-92050000D01*
X131430000Y-92050000D02*
X131080000Y-92400000D01*
X133750000Y-105990000D02*
X134510000Y-105990000D01*
X130580000Y-91900000D02*
X130580000Y-90390000D01*
X132610000Y-93930000D02*
X131080000Y-92400000D01*
X131080000Y-92400000D02*
X130580000Y-91900000D01*
X132610000Y-98900000D02*
X132610000Y-93930000D01*
X134700000Y-100990000D02*
X132610000Y-98900000D01*
X134700000Y-105800000D02*
X134700000Y-100990000D01*
X134510000Y-105990000D02*
X134700000Y-105800000D01*
X138610000Y-94760000D02*
X139850000Y-93520000D01*
X138610000Y-97860000D02*
X138610000Y-94760000D01*
X135270000Y-101200000D02*
X138610000Y-97860000D01*
X135270000Y-106040000D02*
X135270000Y-101200000D01*
X139850000Y-93520000D02*
X139850000Y-91850000D01*
X134820000Y-106490000D02*
X135270000Y-106040000D01*
X140025000Y-92025000D02*
X139850000Y-91850000D01*
X140875000Y-92025000D02*
X140025000Y-92025000D01*
X133750000Y-106490000D02*
X134820000Y-106490000D01*
X139850000Y-91850000D02*
X139850000Y-90390000D01*
X149975000Y-92075000D02*
X149975000Y-93550000D01*
X146600000Y-97150000D02*
X144875000Y-98875000D01*
X146600000Y-94525000D02*
X146600000Y-97150000D01*
X147350000Y-93775000D02*
X146600000Y-94525000D01*
X149750000Y-93775000D02*
X147350000Y-93775000D01*
X149975000Y-93550000D02*
X149750000Y-93775000D01*
X144000000Y-99380000D02*
X144370000Y-99380000D01*
X135240000Y-106990000D02*
X135840000Y-106390000D01*
X135840000Y-106390000D02*
X135840000Y-102390000D01*
X135840000Y-102390000D02*
X138850000Y-99380000D01*
X138850000Y-99380000D02*
X144000000Y-99380000D01*
X133750000Y-106990000D02*
X135240000Y-106990000D01*
X144370000Y-99380000D02*
X144875000Y-98875000D01*
X149975000Y-92075000D02*
X149325000Y-92075000D01*
X149325000Y-92075000D02*
X149140000Y-91890000D01*
X149140000Y-91890000D02*
X149140000Y-90390000D01*
X144350000Y-100690000D02*
X144360000Y-100690000D01*
X154032766Y-99075000D02*
X154050000Y-99057766D01*
X145975000Y-99075000D02*
X154032766Y-99075000D01*
X144360000Y-100690000D02*
X145975000Y-99075000D01*
X154050000Y-99057766D02*
X154050000Y-99050000D01*
X154050000Y-99050000D02*
X154050000Y-99057766D01*
X139250000Y-100690000D02*
X144350000Y-100690000D01*
X144350000Y-100690000D02*
X144385000Y-100690000D01*
X144385000Y-100690000D02*
X145450000Y-99625000D01*
X144385000Y-100690000D02*
X145450000Y-99625000D01*
X155225000Y-99400000D02*
X155225000Y-98805000D01*
X155225000Y-98805000D02*
X154763883Y-98343883D01*
X133760000Y-107490000D02*
X135810000Y-107490000D01*
X154050000Y-99057766D02*
X154763883Y-98343883D01*
X154763883Y-98343883D02*
X155783883Y-97323883D01*
X139230000Y-100690000D02*
X139250000Y-100690000D01*
X136380000Y-103540000D02*
X139230000Y-100690000D01*
X136380000Y-106920000D02*
X136380000Y-103540000D01*
X135810000Y-107490000D02*
X136380000Y-106920000D01*
X143600000Y-112200000D02*
X144125000Y-112200000D01*
X152700000Y-111450000D02*
X152700000Y-110350000D01*
X150275000Y-113875000D02*
X152700000Y-111450000D01*
X145800000Y-113875000D02*
X150275000Y-113875000D01*
X144125000Y-112200000D02*
X145800000Y-113875000D01*
X154725000Y-109725000D02*
X154725000Y-109315000D01*
X154725000Y-109315000D02*
X154230000Y-108820000D01*
X133760000Y-107990000D02*
X135060000Y-107990000D01*
X155050000Y-108000000D02*
X156680000Y-108000000D01*
X152700000Y-110350000D02*
X154230000Y-108820000D01*
X154230000Y-108820000D02*
X155050000Y-108000000D01*
X139270000Y-112200000D02*
X143600000Y-112200000D01*
X135060000Y-107990000D02*
X139270000Y-112200000D01*
X133770000Y-108000000D02*
X133760000Y-107990000D01*
X142350000Y-113300000D02*
X144025000Y-113300000D01*
X150775000Y-114700000D02*
X152067500Y-115992500D01*
X145425000Y-114700000D02*
X150775000Y-114700000D01*
X144025000Y-113300000D02*
X145425000Y-114700000D01*
X151575000Y-116900000D02*
X151575000Y-116485000D01*
X151575000Y-116485000D02*
X152067500Y-115992500D01*
X152067500Y-115992500D02*
X152071117Y-115988883D01*
X133060000Y-108690000D02*
X133060000Y-109535000D01*
X152071117Y-115988883D02*
X154066117Y-117983883D01*
X139310000Y-113300000D02*
X142350000Y-113300000D01*
X135810000Y-109800000D02*
X139310000Y-113300000D01*
X133325000Y-109800000D02*
X135810000Y-109800000D01*
X133060000Y-109535000D02*
X133325000Y-109800000D01*
X145575000Y-121325000D02*
X146285000Y-121325000D01*
X146285000Y-121325000D02*
X146600000Y-121640000D01*
X132560000Y-108690000D02*
X132560000Y-109810000D01*
X146600000Y-116950000D02*
X146600000Y-121640000D01*
X146600000Y-121640000D02*
X146600000Y-123075000D01*
X143875000Y-114225000D02*
X146600000Y-116950000D01*
X139250000Y-114225000D02*
X143875000Y-114225000D01*
X135550000Y-110525000D02*
X139250000Y-114225000D01*
X133275000Y-110525000D02*
X135550000Y-110525000D01*
X132560000Y-109810000D02*
X133275000Y-110525000D01*
X146600000Y-123075000D02*
X146625000Y-123100000D01*
X135500000Y-121425000D02*
X136565000Y-121425000D01*
X136565000Y-121425000D02*
X136770000Y-121220000D01*
X131560000Y-108690000D02*
X131560000Y-110760000D01*
X137350000Y-121800000D02*
X137350000Y-123100000D01*
X134600000Y-119050000D02*
X136770000Y-121220000D01*
X136770000Y-121220000D02*
X137350000Y-121800000D01*
X134600000Y-113800000D02*
X134600000Y-119050000D01*
X131560000Y-110760000D02*
X134600000Y-113800000D01*
X127240000Y-121160000D02*
X127790000Y-121160000D01*
X127790000Y-121160000D02*
X128080000Y-121450000D01*
X131060000Y-108690000D02*
X131060000Y-110190000D01*
X128080000Y-110855000D02*
X128080000Y-121450000D01*
X128080000Y-121450000D02*
X128080000Y-123110000D01*
X128410000Y-110525000D02*
X128080000Y-110855000D01*
X130725000Y-110525000D02*
X128410000Y-110525000D01*
X131060000Y-110190000D02*
X130725000Y-110525000D01*
X122220000Y-113560000D02*
X122220000Y-114090000D01*
X122220000Y-114090000D02*
X122868617Y-114738617D01*
X130560000Y-108690000D02*
X130560000Y-109665000D01*
X127732234Y-109875000D02*
X122868617Y-114738617D01*
X122868617Y-114738617D02*
X121441117Y-116166117D01*
X130350000Y-109875000D02*
X127732234Y-109875000D01*
X130560000Y-109665000D02*
X130350000Y-109875000D01*
X122750000Y-104450000D02*
X122750000Y-105180000D01*
X122750000Y-105180000D02*
X123070000Y-105500000D01*
X129860000Y-107990000D02*
X126390000Y-107990000D01*
X123900000Y-105500000D02*
X123070000Y-105500000D01*
X123070000Y-105500000D02*
X120525000Y-105500000D01*
X126390000Y-107990000D02*
X123900000Y-105500000D01*
X125150000Y-96150000D02*
X125150000Y-97507234D01*
X125150000Y-97507234D02*
X125300000Y-97657234D01*
X129860000Y-107490000D02*
X126990000Y-107490000D01*
X125300000Y-97657234D02*
X123208883Y-95566117D01*
X125300000Y-105800000D02*
X125300000Y-98675000D01*
X125300000Y-98675000D02*
X125300000Y-97657234D01*
X126990000Y-107490000D02*
X125300000Y-105800000D01*
D37*
X133600000Y-119350000D02*
X133600000Y-117750000D01*
D36*
X131510000Y-113630000D02*
X132790000Y-113630000D01*
X133600000Y-114440000D02*
X133600000Y-117750000D01*
X132790000Y-113630000D02*
X133600000Y-114440000D01*
X133600000Y-117750000D02*
X133600000Y-118925000D01*
D38*
X129860000Y-105990000D02*
X128885000Y-105990000D01*
X128885000Y-105990000D02*
X128350000Y-106525000D01*
D37*
X129600000Y-117750000D02*
X129600000Y-119350000D01*
X145600000Y-119350000D02*
X145600000Y-117750000D01*
X147600000Y-116150000D02*
X147600000Y-117750000D01*
X131600000Y-116150000D02*
X131600000Y-117750000D01*
X143600000Y-116150000D02*
X143600000Y-117750000D01*
X141600000Y-119350000D02*
X141600000Y-117750000D01*
X135600000Y-116150000D02*
X135600000Y-117750000D01*
X137600000Y-119350000D02*
X137600000Y-117750000D01*
X139600000Y-116150000D02*
X139600000Y-117750000D01*
X145600000Y-94150000D02*
X145600000Y-95750000D01*
X133600000Y-95750000D02*
X133600000Y-94150000D01*
X131600000Y-95750000D02*
X131600000Y-97350000D01*
X143600000Y-95750000D02*
X143600000Y-97350000D01*
X135600000Y-95750000D02*
X135600000Y-97350000D01*
X137600000Y-95750000D02*
X137600000Y-94150000D01*
D39*
X165010000Y-78150000D02*
X165010000Y-77825000D01*
X166460000Y-76375000D02*
X169260000Y-76375000D01*
X165010000Y-77825000D02*
X166460000Y-76375000D01*
X169260000Y-73525000D02*
X169260000Y-76375000D01*
X169260000Y-76375000D02*
X169260000Y-77425000D01*
X169260000Y-71325000D02*
X169260000Y-73525000D01*
D40*
X169260000Y-73525000D02*
X169260000Y-76275000D01*
X169260000Y-76275000D02*
X169260000Y-77425000D01*
X160110000Y-81800000D02*
X158410000Y-81800000D01*
D39*
X166060000Y-72800000D02*
X166060000Y-71725000D01*
X166460000Y-71325000D02*
X167760000Y-71325000D01*
X166060000Y-71725000D02*
X166460000Y-71325000D01*
D40*
X167760000Y-71325000D02*
X167535000Y-71325000D01*
X160110000Y-70800000D02*
X158410000Y-70800000D01*
D39*
X169260000Y-78325000D02*
X169260000Y-81200000D01*
X167760000Y-81200000D02*
X167760000Y-77550000D01*
X167760000Y-73525000D02*
X167760000Y-75000000D01*
X162495000Y-72725000D02*
X162495000Y-75965000D01*
X162495000Y-75965000D02*
X160785000Y-77675000D01*
D40*
X160785000Y-77675000D02*
X162495000Y-75965000D01*
D39*
X163775000Y-72725000D02*
X163775000Y-75390000D01*
X163775000Y-75390000D02*
X164660000Y-76275000D01*
X163775000Y-79875000D02*
X163775000Y-77160000D01*
X163775000Y-77160000D02*
X164660000Y-76275000D01*
D40*
X163775000Y-75390000D02*
X164660000Y-76275000D01*
X163775000Y-77160000D02*
X164660000Y-76275000D01*
D39*
X158410000Y-79050000D02*
X160285000Y-79050000D01*
X161110000Y-79875000D02*
X162495000Y-79875000D01*
X160285000Y-79050000D02*
X161110000Y-79875000D01*
D40*
X160110000Y-76300000D02*
X158410000Y-76300000D01*
X158410000Y-73550000D02*
X160110000Y-73550000D01*
X175485000Y-53920000D02*
X175985000Y-53420000D01*
X175985000Y-53420000D02*
X175985000Y-53395000D01*
X170985000Y-53395000D02*
X171885000Y-53395000D01*
X171885000Y-53395000D02*
X172285000Y-53795000D01*
D38*
X116640000Y-53930000D02*
X117170000Y-53400000D01*
X117170000Y-53400000D02*
X117265000Y-53400000D01*
X112265000Y-53400000D02*
X113100000Y-53400000D01*
X113100000Y-53400000D02*
X113480000Y-53780000D01*
D40*
X174735000Y-49995000D02*
X174735000Y-50895000D01*
X170805000Y-50895000D02*
X172235000Y-50895000D01*
X170280000Y-50370000D02*
X170805000Y-50895000D01*
X173485000Y-53395000D02*
X173485000Y-49770000D01*
D38*
X116020000Y-50250000D02*
X116015000Y-50255000D01*
X116015000Y-50255000D02*
X116015000Y-50900000D01*
D40*
X112080000Y-50900000D02*
X113515000Y-50900000D01*
X111550000Y-50370000D02*
X112080000Y-50900000D01*
D38*
X114765000Y-53400000D02*
X114765000Y-49745000D01*
X114765000Y-49745000D02*
X114770000Y-49740000D01*
X128995000Y-53400000D02*
X128930000Y-53400000D01*
X128930000Y-53400000D02*
X128400000Y-53930000D01*
X123995000Y-53400000D02*
X124810000Y-53400000D01*
X124810000Y-53400000D02*
X125210000Y-53800000D01*
X175420000Y-64000000D02*
X175950000Y-63470000D01*
X175950000Y-63470000D02*
X176005000Y-63470000D01*
X171005000Y-63470000D02*
X171730000Y-63470000D01*
X171730000Y-63470000D02*
X172220000Y-63960000D01*
X140215000Y-73655000D02*
X140715000Y-73155000D01*
X140715000Y-73155000D02*
X140715000Y-73130000D01*
D40*
X135715000Y-73130000D02*
X136615000Y-73130000D01*
X136615000Y-73130000D02*
X136965000Y-73480000D01*
D38*
X127750000Y-50280000D02*
X127745000Y-50285000D01*
X127745000Y-50285000D02*
X127745000Y-50900000D01*
D40*
X123830000Y-50900000D02*
X125245000Y-50900000D01*
X123300000Y-50370000D02*
X123830000Y-50900000D01*
D38*
X126495000Y-53400000D02*
X126495000Y-49805000D01*
X126495000Y-49805000D02*
X126490000Y-49800000D01*
X174750000Y-60330000D02*
X174755000Y-60335000D01*
X174755000Y-60335000D02*
X174755000Y-60970000D01*
D40*
X170820000Y-60970000D02*
X172255000Y-60970000D01*
X170300000Y-60450000D02*
X170820000Y-60970000D01*
D38*
X173505000Y-63470000D02*
X173505000Y-59825000D01*
X173505000Y-59825000D02*
X173510000Y-59820000D01*
X139465000Y-69680000D02*
X139465000Y-70630000D01*
D40*
X135540000Y-70630000D02*
X136965000Y-70630000D01*
X135010000Y-70100000D02*
X135540000Y-70630000D01*
X138215000Y-73130000D02*
X138215000Y-69555000D01*
D38*
X163740000Y-53970000D02*
X164240000Y-53470000D01*
X164240000Y-53470000D02*
X164240000Y-53445000D01*
X159240000Y-53445000D02*
X160005000Y-53445000D01*
X160005000Y-53445000D02*
X160490000Y-53930000D01*
X163000000Y-50340000D02*
X162990000Y-50350000D01*
X162990000Y-50350000D02*
X162990000Y-50945000D01*
D40*
X159065000Y-50945000D02*
X160490000Y-50945000D01*
X158540000Y-50420000D02*
X159065000Y-50945000D01*
D38*
X161740000Y-53445000D02*
X161740000Y-49830000D01*
X116750000Y-73590000D02*
X117270000Y-73070000D01*
X117270000Y-73070000D02*
X117340000Y-73070000D01*
X112340000Y-73070000D02*
X112980000Y-73070000D01*
X112980000Y-73070000D02*
X113600000Y-73690000D01*
X152510000Y-53470000D02*
X152510000Y-53490000D01*
X152510000Y-53490000D02*
X151990000Y-54010000D01*
X147510000Y-53470000D02*
X148150000Y-53470000D01*
X148150000Y-53470000D02*
X148810000Y-54130000D01*
X129020000Y-63470000D02*
X129000000Y-63470000D01*
X129000000Y-63470000D02*
X128490000Y-63980000D01*
X124020000Y-63470000D02*
X124710000Y-63470000D01*
X124710000Y-63470000D02*
X125230000Y-63990000D01*
X117260000Y-63420000D02*
X117260000Y-63460000D01*
X117260000Y-63460000D02*
X116750000Y-63970000D01*
X112260000Y-63420000D02*
X112950000Y-63420000D01*
X112950000Y-63420000D02*
X113460000Y-63930000D01*
X140280000Y-53980000D02*
X140800000Y-53460000D01*
X140800000Y-53460000D02*
X140810000Y-53460000D01*
X135810000Y-53460000D02*
X136420000Y-53460000D01*
X136420000Y-53460000D02*
X136970000Y-54010000D01*
X164230000Y-63500000D02*
X164230000Y-63530000D01*
X164230000Y-63530000D02*
X163730000Y-64030000D01*
X159230000Y-63500000D02*
X159860000Y-63500000D01*
X159860000Y-63500000D02*
X160460000Y-64100000D01*
X128500000Y-73660000D02*
X129020000Y-73140000D01*
X129020000Y-73140000D02*
X129100000Y-73140000D01*
X124100000Y-73140000D02*
X124750000Y-73140000D01*
X124750000Y-73140000D02*
X125290000Y-73680000D01*
X152440000Y-63480000D02*
X152440000Y-63500000D01*
X152440000Y-63500000D02*
X151940000Y-64000000D01*
X147440000Y-63480000D02*
X148020000Y-63480000D01*
X148020000Y-63480000D02*
X148660000Y-64120000D01*
X140170000Y-64000000D02*
X140670000Y-63500000D01*
X140670000Y-63500000D02*
X140670000Y-63470000D01*
X135670000Y-63470000D02*
X136320000Y-63470000D01*
X136320000Y-63470000D02*
X136940000Y-64090000D01*
X116100000Y-69950000D02*
X116090000Y-69960000D01*
X116090000Y-69960000D02*
X116090000Y-70570000D01*
D40*
X112170000Y-70570000D02*
X113590000Y-70570000D01*
X111650000Y-70050000D02*
X112170000Y-70570000D01*
D38*
X114840000Y-73070000D02*
X114840000Y-69430000D01*
X151260000Y-50330000D02*
X151260000Y-50970000D01*
D40*
X147330000Y-50970000D02*
X148760000Y-50970000D01*
X146800000Y-50440000D02*
X147330000Y-50970000D01*
D38*
X150010000Y-53470000D02*
X150010000Y-49810000D01*
X127770000Y-60350000D02*
X127770000Y-60970000D01*
D40*
X123870000Y-60970000D02*
X125270000Y-60970000D01*
X123350000Y-60450000D02*
X123870000Y-60970000D01*
D38*
X126520000Y-63470000D02*
X126520000Y-59840000D01*
X116010000Y-60290000D02*
X116010000Y-60920000D01*
D40*
X112070000Y-60920000D02*
X113510000Y-60920000D01*
X111550000Y-60400000D02*
X112070000Y-60920000D01*
D38*
X114760000Y-63420000D02*
X114760000Y-59810000D01*
X139560000Y-50330000D02*
X139560000Y-50960000D01*
D40*
X135640000Y-50960000D02*
X137060000Y-50960000D01*
X135110000Y-50430000D02*
X135640000Y-50960000D01*
D38*
X138310000Y-53460000D02*
X138310000Y-49800000D01*
X162980000Y-60370000D02*
X162980000Y-61000000D01*
D40*
X159100000Y-61000000D02*
X160480000Y-61000000D01*
X158550000Y-60450000D02*
X159100000Y-61000000D01*
D38*
X161730000Y-63500000D02*
X161730000Y-59830000D01*
X127850000Y-70010000D02*
X127850000Y-70640000D01*
D40*
X123900000Y-70640000D02*
X125350000Y-70640000D01*
X123370000Y-70110000D02*
X123900000Y-70640000D01*
D38*
X126600000Y-73140000D02*
X126600000Y-69490000D01*
X126600000Y-69490000D02*
X126610000Y-69480000D01*
X151190000Y-60350000D02*
X151190000Y-60980000D01*
D40*
X147280000Y-60980000D02*
X148690000Y-60980000D01*
X146750000Y-60450000D02*
X147280000Y-60980000D01*
D38*
X149940000Y-63480000D02*
X149940000Y-59840000D01*
X149940000Y-59840000D02*
X149950000Y-59830000D01*
X139420000Y-60340000D02*
X139420000Y-60970000D01*
D40*
X135470000Y-60970000D02*
X136920000Y-60970000D01*
X134950000Y-60450000D02*
X135470000Y-60970000D01*
D38*
X138170000Y-63470000D02*
X138170000Y-59810000D01*
D41*
G36*
X151218264Y-115992500D02*
X151150382Y-116060382D01*
X151020210Y-116255198D01*
X151010240Y-116305322D01*
X150936953Y-116352481D01*
X150828382Y-116511380D01*
X150790185Y-116700000D01*
X150790185Y-117100000D01*
X150823341Y-117276210D01*
X150870580Y-117349621D01*
X150828382Y-117411380D01*
X150790185Y-117600000D01*
X150790185Y-118000000D01*
X150823341Y-118176210D01*
X150927481Y-118338047D01*
X150974500Y-118370174D01*
X150974500Y-119174995D01*
X150974499Y-119175000D01*
X151020210Y-119404802D01*
X151150382Y-119599618D01*
X151404436Y-119853671D01*
X151404366Y-119933580D01*
X151522180Y-120218712D01*
X151740141Y-120437054D01*
X151750232Y-120441244D01*
X151330738Y-120860738D01*
X151211404Y-121039332D01*
X151179545Y-121199500D01*
X151169500Y-121250000D01*
X151169500Y-123249500D01*
X149874815Y-123249500D01*
X149874815Y-122575000D01*
X149865500Y-122525495D01*
X149865500Y-122315022D01*
X149915365Y-122194933D01*
X149915634Y-121886420D01*
X149797820Y-121601288D01*
X149579859Y-121382946D01*
X149294933Y-121264635D01*
X148986420Y-121264366D01*
X148701288Y-121382180D01*
X148482946Y-121600141D01*
X148364635Y-121885067D01*
X148364366Y-122193580D01*
X148414500Y-122314914D01*
X148414500Y-122529002D01*
X148405185Y-122575000D01*
X148405185Y-123249500D01*
X147374815Y-123249500D01*
X147374815Y-122575000D01*
X147341659Y-122398790D01*
X147237519Y-122236953D01*
X147200500Y-122211659D01*
X147200500Y-121322040D01*
X147232180Y-121398712D01*
X147450141Y-121617054D01*
X147735067Y-121735365D01*
X148043580Y-121735634D01*
X148328712Y-121617820D01*
X148547054Y-121399859D01*
X148665365Y-121114933D01*
X148665634Y-120806420D01*
X148547820Y-120521288D01*
X148329859Y-120302946D01*
X148044933Y-120184635D01*
X147736420Y-120184366D01*
X147451288Y-120302180D01*
X147232946Y-120520141D01*
X147200500Y-120598280D01*
X147200500Y-118759815D01*
X148125000Y-118759815D01*
X148301210Y-118726659D01*
X148463047Y-118622519D01*
X148571618Y-118463620D01*
X148609815Y-118275000D01*
X148609815Y-117225000D01*
X148576659Y-117048790D01*
X148567646Y-117034783D01*
X148584815Y-116950000D01*
X148584815Y-115350000D01*
X148575501Y-115300500D01*
X150526264Y-115300500D01*
X151218264Y-115992500D01*
X151218264Y-115992500D01*
G37*
X151218264Y-115992500D02*
X151150382Y-116060382D01*
X151020210Y-116255198D01*
X151010240Y-116305322D01*
X150936953Y-116352481D01*
X150828382Y-116511380D01*
X150790185Y-116700000D01*
X150790185Y-117100000D01*
X150823341Y-117276210D01*
X150870580Y-117349621D01*
X150828382Y-117411380D01*
X150790185Y-117600000D01*
X150790185Y-118000000D01*
X150823341Y-118176210D01*
X150927481Y-118338047D01*
X150974500Y-118370174D01*
X150974500Y-119174995D01*
X150974499Y-119175000D01*
X151020210Y-119404802D01*
X151150382Y-119599618D01*
X151404436Y-119853671D01*
X151404366Y-119933580D01*
X151522180Y-120218712D01*
X151740141Y-120437054D01*
X151750232Y-120441244D01*
X151330738Y-120860738D01*
X151211404Y-121039332D01*
X151179545Y-121199500D01*
X151169500Y-121250000D01*
X151169500Y-123249500D01*
X149874815Y-123249500D01*
X149874815Y-122575000D01*
X149865500Y-122525495D01*
X149865500Y-122315022D01*
X149915365Y-122194933D01*
X149915634Y-121886420D01*
X149797820Y-121601288D01*
X149579859Y-121382946D01*
X149294933Y-121264635D01*
X148986420Y-121264366D01*
X148701288Y-121382180D01*
X148482946Y-121600141D01*
X148364635Y-121885067D01*
X148364366Y-122193580D01*
X148414500Y-122314914D01*
X148414500Y-122529002D01*
X148405185Y-122575000D01*
X148405185Y-123249500D01*
X147374815Y-123249500D01*
X147374815Y-122575000D01*
X147341659Y-122398790D01*
X147237519Y-122236953D01*
X147200500Y-122211659D01*
X147200500Y-121322040D01*
X147232180Y-121398712D01*
X147450141Y-121617054D01*
X147735067Y-121735365D01*
X148043580Y-121735634D01*
X148328712Y-121617820D01*
X148547054Y-121399859D01*
X148665365Y-121114933D01*
X148665634Y-120806420D01*
X148547820Y-120521288D01*
X148329859Y-120302946D01*
X148044933Y-120184635D01*
X147736420Y-120184366D01*
X147451288Y-120302180D01*
X147232946Y-120520141D01*
X147200500Y-120598280D01*
X147200500Y-118759815D01*
X148125000Y-118759815D01*
X148301210Y-118726659D01*
X148463047Y-118622519D01*
X148571618Y-118463620D01*
X148609815Y-118275000D01*
X148609815Y-117225000D01*
X148576659Y-117048790D01*
X148567646Y-117034783D01*
X148584815Y-116950000D01*
X148584815Y-115350000D01*
X148575501Y-115300500D01*
X150526264Y-115300500D01*
X151218264Y-115992500D01*
G36*
X132724500Y-118251080D02*
X132724500Y-118257295D01*
X132653382Y-118361380D01*
X132615185Y-118550000D01*
X132615185Y-120150000D01*
X132648341Y-120326210D01*
X132752481Y-120488047D01*
X132911380Y-120596618D01*
X133100000Y-120634815D01*
X134100000Y-120634815D01*
X134276210Y-120601659D01*
X134438047Y-120497519D01*
X134546618Y-120338620D01*
X134584815Y-120150000D01*
X134584815Y-119884051D01*
X135340950Y-120640185D01*
X135300000Y-120640185D01*
X135123790Y-120673341D01*
X135050379Y-120720580D01*
X134988620Y-120678382D01*
X134800000Y-120640185D01*
X134400000Y-120640185D01*
X134223790Y-120673341D01*
X134061953Y-120777481D01*
X133953382Y-120936380D01*
X133915185Y-121125000D01*
X133915185Y-121725000D01*
X133948341Y-121901210D01*
X133999500Y-121980713D01*
X133999500Y-122533738D01*
X133912946Y-122620141D01*
X133794635Y-122905067D01*
X133794366Y-123213580D01*
X133809208Y-123249500D01*
X131304815Y-123249500D01*
X131304815Y-123113444D01*
X131305500Y-123110000D01*
X131305500Y-122315022D01*
X131355365Y-122194933D01*
X131355634Y-121886420D01*
X131237820Y-121601288D01*
X131019859Y-121382946D01*
X130734933Y-121264635D01*
X130426420Y-121264366D01*
X130141288Y-121382180D01*
X129922946Y-121600141D01*
X129804635Y-121885067D01*
X129804366Y-122193580D01*
X129854500Y-122314914D01*
X129854500Y-122419621D01*
X129835185Y-122515000D01*
X129835185Y-123249500D01*
X128804815Y-123249500D01*
X128804815Y-122515000D01*
X128771659Y-122338790D01*
X128680500Y-122197126D01*
X128680500Y-121450005D01*
X128680501Y-121450000D01*
X128680500Y-121449995D01*
X128680500Y-121404646D01*
X128682180Y-121408712D01*
X128900141Y-121627054D01*
X129185067Y-121745365D01*
X129493580Y-121745634D01*
X129778712Y-121627820D01*
X129997054Y-121409859D01*
X130115365Y-121124933D01*
X130115634Y-120816420D01*
X130040596Y-120634815D01*
X130100000Y-120634815D01*
X130276210Y-120601659D01*
X130438047Y-120497519D01*
X130546618Y-120338620D01*
X130584815Y-120150000D01*
X130584815Y-118550000D01*
X130551659Y-118373790D01*
X130475500Y-118255436D01*
X130475500Y-118250499D01*
X130600187Y-117950220D01*
X130751323Y-118315997D01*
X131032522Y-118597688D01*
X131400115Y-118750326D01*
X131798139Y-118750673D01*
X132165997Y-118598677D01*
X132447688Y-118317478D01*
X132600187Y-117950220D01*
X132724500Y-118251080D01*
X132724500Y-118251080D01*
G37*
X132724500Y-118251080D02*
X132724500Y-118257295D01*
X132653382Y-118361380D01*
X132615185Y-118550000D01*
X132615185Y-120150000D01*
X132648341Y-120326210D01*
X132752481Y-120488047D01*
X132911380Y-120596618D01*
X133100000Y-120634815D01*
X134100000Y-120634815D01*
X134276210Y-120601659D01*
X134438047Y-120497519D01*
X134546618Y-120338620D01*
X134584815Y-120150000D01*
X134584815Y-119884051D01*
X135340950Y-120640185D01*
X135300000Y-120640185D01*
X135123790Y-120673341D01*
X135050379Y-120720580D01*
X134988620Y-120678382D01*
X134800000Y-120640185D01*
X134400000Y-120640185D01*
X134223790Y-120673341D01*
X134061953Y-120777481D01*
X133953382Y-120936380D01*
X133915185Y-121125000D01*
X133915185Y-121725000D01*
X133948341Y-121901210D01*
X133999500Y-121980713D01*
X133999500Y-122533738D01*
X133912946Y-122620141D01*
X133794635Y-122905067D01*
X133794366Y-123213580D01*
X133809208Y-123249500D01*
X131304815Y-123249500D01*
X131304815Y-123113444D01*
X131305500Y-123110000D01*
X131305500Y-122315022D01*
X131355365Y-122194933D01*
X131355634Y-121886420D01*
X131237820Y-121601288D01*
X131019859Y-121382946D01*
X130734933Y-121264635D01*
X130426420Y-121264366D01*
X130141288Y-121382180D01*
X129922946Y-121600141D01*
X129804635Y-121885067D01*
X129804366Y-122193580D01*
X129854500Y-122314914D01*
X129854500Y-122419621D01*
X129835185Y-122515000D01*
X129835185Y-123249500D01*
X128804815Y-123249500D01*
X128804815Y-122515000D01*
X128771659Y-122338790D01*
X128680500Y-122197126D01*
X128680500Y-121450005D01*
X128680501Y-121450000D01*
X128680500Y-121449995D01*
X128680500Y-121404646D01*
X128682180Y-121408712D01*
X128900141Y-121627054D01*
X129185067Y-121745365D01*
X129493580Y-121745634D01*
X129778712Y-121627820D01*
X129997054Y-121409859D01*
X130115365Y-121124933D01*
X130115634Y-120816420D01*
X130040596Y-120634815D01*
X130100000Y-120634815D01*
X130276210Y-120601659D01*
X130438047Y-120497519D01*
X130546618Y-120338620D01*
X130584815Y-120150000D01*
X130584815Y-118550000D01*
X130551659Y-118373790D01*
X130475500Y-118255436D01*
X130475500Y-118250499D01*
X130600187Y-117950220D01*
X130751323Y-118315997D01*
X131032522Y-118597688D01*
X131400115Y-118750326D01*
X131798139Y-118750673D01*
X132165997Y-118598677D01*
X132447688Y-118317478D01*
X132600187Y-117950220D01*
X132724500Y-118251080D01*
G36*
X144724500Y-118251080D02*
X144724500Y-118257295D01*
X144653382Y-118361380D01*
X144615185Y-118550000D01*
X144615185Y-120150000D01*
X144648341Y-120326210D01*
X144752481Y-120488047D01*
X144828788Y-120540185D01*
X144475000Y-120540185D01*
X144298790Y-120573341D01*
X144136953Y-120677481D01*
X144028382Y-120836380D01*
X143990185Y-121025000D01*
X143990185Y-121625000D01*
X144023341Y-121801210D01*
X144074500Y-121880713D01*
X144074500Y-122186265D01*
X143976329Y-122284436D01*
X143896420Y-122284366D01*
X143611288Y-122402180D01*
X143392946Y-122620141D01*
X143274635Y-122905067D01*
X143274366Y-123213580D01*
X143289208Y-123249500D01*
X140584815Y-123249500D01*
X140584815Y-123113444D01*
X140585500Y-123110000D01*
X140585500Y-122315022D01*
X140635365Y-122194933D01*
X140635634Y-121886420D01*
X140517820Y-121601288D01*
X140299859Y-121382946D01*
X140014933Y-121264635D01*
X139706420Y-121264366D01*
X139421288Y-121382180D01*
X139202946Y-121600141D01*
X139084635Y-121885067D01*
X139084366Y-122193580D01*
X139134500Y-122314914D01*
X139134500Y-122479621D01*
X139115185Y-122575000D01*
X139115185Y-123249500D01*
X138084815Y-123249500D01*
X138084815Y-122575000D01*
X138051659Y-122398790D01*
X137950500Y-122241586D01*
X137950500Y-121800005D01*
X137950501Y-121800000D01*
X137904790Y-121570198D01*
X137774618Y-121375382D01*
X137194618Y-120795382D01*
X137194615Y-120795380D01*
X137017303Y-120618068D01*
X137100000Y-120634815D01*
X137909482Y-120634815D01*
X137834635Y-120815067D01*
X137834366Y-121123580D01*
X137952180Y-121408712D01*
X138170141Y-121627054D01*
X138455067Y-121745365D01*
X138763580Y-121745634D01*
X139048712Y-121627820D01*
X139267054Y-121409859D01*
X139385365Y-121124933D01*
X139385634Y-120816420D01*
X139267820Y-120531288D01*
X139049859Y-120312946D01*
X138764933Y-120194635D01*
X138575809Y-120194470D01*
X138584815Y-120150000D01*
X138584815Y-118550000D01*
X138551659Y-118373790D01*
X138475500Y-118255436D01*
X138475500Y-118250499D01*
X138600187Y-117950220D01*
X138751323Y-118315997D01*
X139032522Y-118597688D01*
X139400115Y-118750326D01*
X139798139Y-118750673D01*
X140165997Y-118598677D01*
X140447688Y-118317478D01*
X140600187Y-117950220D01*
X140724500Y-118251080D01*
X140724500Y-118257295D01*
X140653382Y-118361380D01*
X140615185Y-118550000D01*
X140615185Y-120150000D01*
X140648341Y-120326210D01*
X140752481Y-120488047D01*
X140911380Y-120596618D01*
X141100000Y-120634815D01*
X142100000Y-120634815D01*
X142276210Y-120601659D01*
X142438047Y-120497519D01*
X142546618Y-120338620D01*
X142584815Y-120150000D01*
X142584815Y-118550000D01*
X142551659Y-118373790D01*
X142475500Y-118255436D01*
X142475500Y-118250499D01*
X142600187Y-117950220D01*
X142751323Y-118315997D01*
X143032522Y-118597688D01*
X143400115Y-118750326D01*
X143798139Y-118750673D01*
X144165997Y-118598677D01*
X144447688Y-118317478D01*
X144600187Y-117950220D01*
X144724500Y-118251080D01*
X144724500Y-118251080D01*
G37*
X144724500Y-118251080D02*
X144724500Y-118257295D01*
X144653382Y-118361380D01*
X144615185Y-118550000D01*
X144615185Y-120150000D01*
X144648341Y-120326210D01*
X144752481Y-120488047D01*
X144828788Y-120540185D01*
X144475000Y-120540185D01*
X144298790Y-120573341D01*
X144136953Y-120677481D01*
X144028382Y-120836380D01*
X143990185Y-121025000D01*
X143990185Y-121625000D01*
X144023341Y-121801210D01*
X144074500Y-121880713D01*
X144074500Y-122186265D01*
X143976329Y-122284436D01*
X143896420Y-122284366D01*
X143611288Y-122402180D01*
X143392946Y-122620141D01*
X143274635Y-122905067D01*
X143274366Y-123213580D01*
X143289208Y-123249500D01*
X140584815Y-123249500D01*
X140584815Y-123113444D01*
X140585500Y-123110000D01*
X140585500Y-122315022D01*
X140635365Y-122194933D01*
X140635634Y-121886420D01*
X140517820Y-121601288D01*
X140299859Y-121382946D01*
X140014933Y-121264635D01*
X139706420Y-121264366D01*
X139421288Y-121382180D01*
X139202946Y-121600141D01*
X139084635Y-121885067D01*
X139084366Y-122193580D01*
X139134500Y-122314914D01*
X139134500Y-122479621D01*
X139115185Y-122575000D01*
X139115185Y-123249500D01*
X138084815Y-123249500D01*
X138084815Y-122575000D01*
X138051659Y-122398790D01*
X137950500Y-122241586D01*
X137950500Y-121800005D01*
X137950501Y-121800000D01*
X137904790Y-121570198D01*
X137774618Y-121375382D01*
X137194618Y-120795382D01*
X137194615Y-120795380D01*
X137017303Y-120618068D01*
X137100000Y-120634815D01*
X137909482Y-120634815D01*
X137834635Y-120815067D01*
X137834366Y-121123580D01*
X137952180Y-121408712D01*
X138170141Y-121627054D01*
X138455067Y-121745365D01*
X138763580Y-121745634D01*
X139048712Y-121627820D01*
X139267054Y-121409859D01*
X139385365Y-121124933D01*
X139385634Y-120816420D01*
X139267820Y-120531288D01*
X139049859Y-120312946D01*
X138764933Y-120194635D01*
X138575809Y-120194470D01*
X138584815Y-120150000D01*
X138584815Y-118550000D01*
X138551659Y-118373790D01*
X138475500Y-118255436D01*
X138475500Y-118250499D01*
X138600187Y-117950220D01*
X138751323Y-118315997D01*
X139032522Y-118597688D01*
X139400115Y-118750326D01*
X139798139Y-118750673D01*
X140165997Y-118598677D01*
X140447688Y-118317478D01*
X140600187Y-117950220D01*
X140724500Y-118251080D01*
X140724500Y-118257295D01*
X140653382Y-118361380D01*
X140615185Y-118550000D01*
X140615185Y-120150000D01*
X140648341Y-120326210D01*
X140752481Y-120488047D01*
X140911380Y-120596618D01*
X141100000Y-120634815D01*
X142100000Y-120634815D01*
X142276210Y-120601659D01*
X142438047Y-120497519D01*
X142546618Y-120338620D01*
X142584815Y-120150000D01*
X142584815Y-118550000D01*
X142551659Y-118373790D01*
X142475500Y-118255436D01*
X142475500Y-118250499D01*
X142600187Y-117950220D01*
X142751323Y-118315997D01*
X143032522Y-118597688D01*
X143400115Y-118750326D01*
X143798139Y-118750673D01*
X144165997Y-118598677D01*
X144447688Y-118317478D01*
X144600187Y-117950220D01*
X144724500Y-118251080D01*
G36*
X127479500Y-120401222D02*
X127425000Y-120390185D01*
X127025000Y-120390185D01*
X126848790Y-120423341D01*
X126775379Y-120470580D01*
X126713620Y-120428382D01*
X126525000Y-120390185D01*
X126125000Y-120390185D01*
X125948790Y-120423341D01*
X125786953Y-120527481D01*
X125685089Y-120676564D01*
X123612738Y-118604213D01*
X124075417Y-118141534D01*
X124142161Y-118043851D01*
X124288537Y-117897475D01*
X124408712Y-117847820D01*
X124627054Y-117629859D01*
X124745365Y-117344933D01*
X124745634Y-117036420D01*
X124627820Y-116751288D01*
X124409859Y-116532946D01*
X124124933Y-116414635D01*
X123816420Y-116414366D01*
X123531288Y-116532180D01*
X123312946Y-116750141D01*
X123262600Y-116871388D01*
X122727746Y-117406242D01*
X122690877Y-117430877D01*
X122656993Y-117481588D01*
X122573553Y-117565028D01*
X121844972Y-116836447D01*
X122307651Y-116373768D01*
X122408805Y-116225724D01*
X122449604Y-116037650D01*
X122444729Y-116011741D01*
X123094629Y-115361841D01*
X123094366Y-115663580D01*
X123212180Y-115948712D01*
X123430141Y-116167054D01*
X123715067Y-116285365D01*
X124023580Y-116285634D01*
X124308712Y-116167820D01*
X124527054Y-115949859D01*
X124645365Y-115664933D01*
X124645634Y-115356420D01*
X124527820Y-115071288D01*
X124309859Y-114852946D01*
X124024933Y-114734635D01*
X123722099Y-114734371D01*
X127479500Y-110976970D01*
X127479500Y-120401222D01*
X127479500Y-120401222D01*
G37*
X127479500Y-120401222D02*
X127425000Y-120390185D01*
X127025000Y-120390185D01*
X126848790Y-120423341D01*
X126775379Y-120470580D01*
X126713620Y-120428382D01*
X126525000Y-120390185D01*
X126125000Y-120390185D01*
X125948790Y-120423341D01*
X125786953Y-120527481D01*
X125685089Y-120676564D01*
X123612738Y-118604213D01*
X124075417Y-118141534D01*
X124142161Y-118043851D01*
X124288537Y-117897475D01*
X124408712Y-117847820D01*
X124627054Y-117629859D01*
X124745365Y-117344933D01*
X124745634Y-117036420D01*
X124627820Y-116751288D01*
X124409859Y-116532946D01*
X124124933Y-116414635D01*
X123816420Y-116414366D01*
X123531288Y-116532180D01*
X123312946Y-116750141D01*
X123262600Y-116871388D01*
X122727746Y-117406242D01*
X122690877Y-117430877D01*
X122656993Y-117481588D01*
X122573553Y-117565028D01*
X121844972Y-116836447D01*
X122307651Y-116373768D01*
X122408805Y-116225724D01*
X122449604Y-116037650D01*
X122444729Y-116011741D01*
X123094629Y-115361841D01*
X123094366Y-115663580D01*
X123212180Y-115948712D01*
X123430141Y-116167054D01*
X123715067Y-116285365D01*
X124023580Y-116285634D01*
X124308712Y-116167820D01*
X124527054Y-115949859D01*
X124645365Y-115664933D01*
X124645634Y-115356420D01*
X124527820Y-115071288D01*
X124309859Y-114852946D01*
X124024933Y-114734635D01*
X123722099Y-114734371D01*
X127479500Y-110976970D01*
X127479500Y-120401222D01*
G36*
X153973341Y-110101210D02*
X154020580Y-110174621D01*
X153978382Y-110236380D01*
X153940185Y-110425000D01*
X153940185Y-110825000D01*
X153973341Y-111001210D01*
X154077481Y-111163047D01*
X154236380Y-111271618D01*
X154425000Y-111309815D01*
X155025000Y-111309815D01*
X155201210Y-111276659D01*
X155280713Y-111225500D01*
X156038747Y-111225500D01*
X156130141Y-111317054D01*
X156415067Y-111435365D01*
X156723580Y-111435634D01*
X156819500Y-111396001D01*
X156819500Y-112260000D01*
X156861404Y-112470668D01*
X156980738Y-112649262D01*
X158261476Y-113930000D01*
X156419214Y-115772263D01*
X155951534Y-115304583D01*
X155916997Y-115280985D01*
X155717475Y-115081463D01*
X155667820Y-114961288D01*
X155449859Y-114742946D01*
X155164933Y-114624635D01*
X154856420Y-114624366D01*
X154571288Y-114742180D01*
X154352946Y-114960141D01*
X154234635Y-115245067D01*
X154234482Y-115421025D01*
X154147820Y-115211288D01*
X153929859Y-114992946D01*
X153644933Y-114874635D01*
X153336420Y-114874366D01*
X153051288Y-114992180D01*
X152832946Y-115210141D01*
X152714635Y-115495067D01*
X152714384Y-115782914D01*
X152495735Y-115564265D01*
X152473934Y-115549698D01*
X151199618Y-114275382D01*
X151004802Y-114145210D01*
X150879042Y-114120194D01*
X153124618Y-111874618D01*
X153254790Y-111679802D01*
X153300501Y-111450000D01*
X153300500Y-111449995D01*
X153300500Y-110598736D01*
X153945577Y-109953658D01*
X153973341Y-110101210D01*
X153973341Y-110101210D01*
G37*
X153973341Y-110101210D02*
X154020580Y-110174621D01*
X153978382Y-110236380D01*
X153940185Y-110425000D01*
X153940185Y-110825000D01*
X153973341Y-111001210D01*
X154077481Y-111163047D01*
X154236380Y-111271618D01*
X154425000Y-111309815D01*
X155025000Y-111309815D01*
X155201210Y-111276659D01*
X155280713Y-111225500D01*
X156038747Y-111225500D01*
X156130141Y-111317054D01*
X156415067Y-111435365D01*
X156723580Y-111435634D01*
X156819500Y-111396001D01*
X156819500Y-112260000D01*
X156861404Y-112470668D01*
X156980738Y-112649262D01*
X158261476Y-113930000D01*
X156419214Y-115772263D01*
X155951534Y-115304583D01*
X155916997Y-115280985D01*
X155717475Y-115081463D01*
X155667820Y-114961288D01*
X155449859Y-114742946D01*
X155164933Y-114624635D01*
X154856420Y-114624366D01*
X154571288Y-114742180D01*
X154352946Y-114960141D01*
X154234635Y-115245067D01*
X154234482Y-115421025D01*
X154147820Y-115211288D01*
X153929859Y-114992946D01*
X153644933Y-114874635D01*
X153336420Y-114874366D01*
X153051288Y-114992180D01*
X152832946Y-115210141D01*
X152714635Y-115495067D01*
X152714384Y-115782914D01*
X152495735Y-115564265D01*
X152473934Y-115549698D01*
X151199618Y-114275382D01*
X151004802Y-114145210D01*
X150879042Y-114120194D01*
X153124618Y-111874618D01*
X153254790Y-111679802D01*
X153300501Y-111450000D01*
X153300500Y-111449995D01*
X153300500Y-110598736D01*
X153945577Y-109953658D01*
X153973341Y-110101210D01*
G36*
X122112946Y-106310141D02*
X121994635Y-106595067D01*
X121994366Y-106903580D01*
X122112180Y-107188712D01*
X122330141Y-107407054D01*
X122615067Y-107525365D01*
X122923580Y-107525634D01*
X123208712Y-107407820D01*
X123427054Y-107189859D01*
X123545365Y-106904933D01*
X123545634Y-106596420D01*
X123427820Y-106311288D01*
X123217400Y-106100500D01*
X123651264Y-106100500D01*
X125965380Y-108414615D01*
X125965382Y-108414618D01*
X126059520Y-108477519D01*
X126160198Y-108544790D01*
X126390000Y-108590501D01*
X126390005Y-108590500D01*
X129314930Y-108590500D01*
X129435000Y-108614815D01*
X129925185Y-108614815D01*
X129925185Y-109105000D01*
X129957078Y-109274500D01*
X127732234Y-109274500D01*
X127502432Y-109320210D01*
X127307616Y-109450382D01*
X123009815Y-113748183D01*
X123009815Y-113350000D01*
X122976659Y-113173790D01*
X122929420Y-113100379D01*
X122971618Y-113038620D01*
X123009815Y-112850000D01*
X123009815Y-112450000D01*
X122976659Y-112273790D01*
X122872519Y-112111953D01*
X122713620Y-112003382D01*
X122525000Y-111965185D01*
X121925000Y-111965185D01*
X121748790Y-111998341D01*
X121653747Y-112059500D01*
X121220005Y-112059500D01*
X121220000Y-112059499D01*
X120990198Y-112105210D01*
X120795382Y-112235382D01*
X120795380Y-112235385D01*
X120576329Y-112454436D01*
X120496420Y-112454366D01*
X120279575Y-112543965D01*
X120348596Y-112440668D01*
X120390500Y-112230000D01*
X120390500Y-108744815D01*
X121085000Y-108744815D01*
X121187651Y-108725500D01*
X121354978Y-108725500D01*
X121475067Y-108775365D01*
X121783580Y-108775634D01*
X122068712Y-108657820D01*
X122287054Y-108439859D01*
X122405365Y-108154933D01*
X122405634Y-107846420D01*
X122287820Y-107561288D01*
X122069859Y-107342946D01*
X121784933Y-107224635D01*
X121476420Y-107224366D01*
X121355086Y-107274500D01*
X120550000Y-107274500D01*
X120546556Y-107275185D01*
X120390500Y-107275185D01*
X120390500Y-106244815D01*
X121085000Y-106244815D01*
X121261210Y-106211659D01*
X121423047Y-106107519D01*
X121427843Y-106100500D01*
X122322953Y-106100500D01*
X122112946Y-106310141D01*
X122112946Y-106310141D01*
G37*
X122112946Y-106310141D02*
X121994635Y-106595067D01*
X121994366Y-106903580D01*
X122112180Y-107188712D01*
X122330141Y-107407054D01*
X122615067Y-107525365D01*
X122923580Y-107525634D01*
X123208712Y-107407820D01*
X123427054Y-107189859D01*
X123545365Y-106904933D01*
X123545634Y-106596420D01*
X123427820Y-106311288D01*
X123217400Y-106100500D01*
X123651264Y-106100500D01*
X125965380Y-108414615D01*
X125965382Y-108414618D01*
X126059520Y-108477519D01*
X126160198Y-108544790D01*
X126390000Y-108590501D01*
X126390005Y-108590500D01*
X129314930Y-108590500D01*
X129435000Y-108614815D01*
X129925185Y-108614815D01*
X129925185Y-109105000D01*
X129957078Y-109274500D01*
X127732234Y-109274500D01*
X127502432Y-109320210D01*
X127307616Y-109450382D01*
X123009815Y-113748183D01*
X123009815Y-113350000D01*
X122976659Y-113173790D01*
X122929420Y-113100379D01*
X122971618Y-113038620D01*
X123009815Y-112850000D01*
X123009815Y-112450000D01*
X122976659Y-112273790D01*
X122872519Y-112111953D01*
X122713620Y-112003382D01*
X122525000Y-111965185D01*
X121925000Y-111965185D01*
X121748790Y-111998341D01*
X121653747Y-112059500D01*
X121220005Y-112059500D01*
X121220000Y-112059499D01*
X120990198Y-112105210D01*
X120795382Y-112235382D01*
X120795380Y-112235385D01*
X120576329Y-112454436D01*
X120496420Y-112454366D01*
X120279575Y-112543965D01*
X120348596Y-112440668D01*
X120390500Y-112230000D01*
X120390500Y-108744815D01*
X121085000Y-108744815D01*
X121187651Y-108725500D01*
X121354978Y-108725500D01*
X121475067Y-108775365D01*
X121783580Y-108775634D01*
X122068712Y-108657820D01*
X122287054Y-108439859D01*
X122405365Y-108154933D01*
X122405634Y-107846420D01*
X122287820Y-107561288D01*
X122069859Y-107342946D01*
X121784933Y-107224635D01*
X121476420Y-107224366D01*
X121355086Y-107274500D01*
X120550000Y-107274500D01*
X120546556Y-107275185D01*
X120390500Y-107275185D01*
X120390500Y-106244815D01*
X121085000Y-106244815D01*
X121261210Y-106211659D01*
X121423047Y-106107519D01*
X121427843Y-106100500D01*
X122322953Y-106100500D01*
X122112946Y-106310141D01*
G36*
X158271476Y-99590000D02*
X156980738Y-100880738D01*
X156861404Y-101059332D01*
X156841480Y-101159499D01*
X156819500Y-101270000D01*
X156819500Y-104765185D01*
X156095000Y-104765185D01*
X156045495Y-104774500D01*
X155775022Y-104774500D01*
X155654933Y-104724635D01*
X155346420Y-104724366D01*
X155061288Y-104842180D01*
X154842946Y-105060141D01*
X154724635Y-105345067D01*
X154724366Y-105653580D01*
X154842180Y-105938712D01*
X154986436Y-106083220D01*
X154888612Y-106042600D01*
X152308006Y-103461994D01*
X152072637Y-103304725D01*
X151795000Y-103249500D01*
X149965905Y-103249500D01*
X149951659Y-103173790D01*
X149847519Y-103011953D01*
X149688620Y-102903382D01*
X149500000Y-102865185D01*
X146500000Y-102865185D01*
X146323790Y-102898341D01*
X146161953Y-103002481D01*
X146053382Y-103161380D01*
X146015185Y-103350000D01*
X146015185Y-104600000D01*
X146048341Y-104776210D01*
X146152481Y-104938047D01*
X146311380Y-105046618D01*
X146500000Y-105084815D01*
X149500000Y-105084815D01*
X149676210Y-105051659D01*
X149838047Y-104947519D01*
X149946618Y-104788620D01*
X149964463Y-104700500D01*
X151494488Y-104700500D01*
X153862525Y-107068537D01*
X153912180Y-107188712D01*
X154130141Y-107407054D01*
X154415067Y-107525365D01*
X154699866Y-107525613D01*
X154625382Y-107575382D01*
X153805382Y-108395382D01*
X153805380Y-108395385D01*
X152275382Y-109925382D01*
X152145210Y-110120198D01*
X152099499Y-110350000D01*
X152099500Y-110350005D01*
X152099500Y-111201264D01*
X150026264Y-113274500D01*
X149718416Y-113274500D01*
X149838047Y-113197519D01*
X149946618Y-113038620D01*
X149984815Y-112850000D01*
X149984815Y-111600000D01*
X149951659Y-111423790D01*
X149847519Y-111261953D01*
X149688620Y-111153382D01*
X149500000Y-111115185D01*
X146500000Y-111115185D01*
X146323790Y-111148341D01*
X146161953Y-111252481D01*
X146067187Y-111391175D01*
X143538006Y-108861994D01*
X143520056Y-108850000D01*
X146015185Y-108850000D01*
X146015185Y-110100000D01*
X146048341Y-110276210D01*
X146152481Y-110438047D01*
X146311380Y-110546618D01*
X146500000Y-110584815D01*
X149500000Y-110584815D01*
X149676210Y-110551659D01*
X149838047Y-110447519D01*
X149946618Y-110288620D01*
X149984815Y-110100000D01*
X149984815Y-109151387D01*
X150180141Y-109347054D01*
X150465067Y-109465365D01*
X150773580Y-109465634D01*
X151058712Y-109347820D01*
X151277054Y-109129859D01*
X151395365Y-108844933D01*
X151395634Y-108536420D01*
X151277820Y-108251288D01*
X151059859Y-108032946D01*
X150774933Y-107914635D01*
X150466420Y-107914366D01*
X150181288Y-108032180D01*
X149962946Y-108250141D01*
X149851600Y-108518294D01*
X149847519Y-108511953D01*
X149688620Y-108403382D01*
X149500000Y-108365185D01*
X146500000Y-108365185D01*
X146323790Y-108398341D01*
X146161953Y-108502481D01*
X146053382Y-108661380D01*
X146015185Y-108850000D01*
X143520056Y-108850000D01*
X143302637Y-108704725D01*
X143025000Y-108649500D01*
X142500022Y-108649500D01*
X142379933Y-108599635D01*
X142071420Y-108599366D01*
X141786288Y-108717180D01*
X141567946Y-108935141D01*
X141449635Y-109220067D01*
X141449366Y-109528580D01*
X141567180Y-109813712D01*
X141785141Y-110032054D01*
X142070067Y-110150365D01*
X142378580Y-110150634D01*
X142499914Y-110100500D01*
X142724488Y-110100500D01*
X144247942Y-111623954D01*
X144125000Y-111599499D01*
X144124995Y-111599500D01*
X139518736Y-111599500D01*
X135976598Y-108057362D01*
X136039802Y-108044790D01*
X136234618Y-107914618D01*
X136804615Y-107344620D01*
X136804618Y-107344618D01*
X136884788Y-107224635D01*
X136934790Y-107149802D01*
X136980501Y-106920000D01*
X136980500Y-106919995D01*
X136980500Y-105225422D01*
X137223580Y-105225634D01*
X137508712Y-105107820D01*
X137727054Y-104889859D01*
X137749585Y-104835597D01*
X140151994Y-107238006D01*
X140387363Y-107395275D01*
X140665000Y-107450500D01*
X146034095Y-107450500D01*
X146048341Y-107526210D01*
X146152481Y-107688047D01*
X146311380Y-107796618D01*
X146500000Y-107834815D01*
X149500000Y-107834815D01*
X149676210Y-107801659D01*
X149838047Y-107697519D01*
X149946618Y-107538620D01*
X149984815Y-107350000D01*
X149984815Y-106100000D01*
X149951659Y-105923790D01*
X149847519Y-105761953D01*
X149688620Y-105653382D01*
X149500000Y-105615185D01*
X146500000Y-105615185D01*
X146323790Y-105648341D01*
X146161953Y-105752481D01*
X146053382Y-105911380D01*
X146035537Y-105999500D01*
X140965512Y-105999500D01*
X138457475Y-103491463D01*
X138407820Y-103371288D01*
X138189859Y-103152946D01*
X137904933Y-103034635D01*
X137734749Y-103034487D01*
X139294860Y-101474375D01*
X145816500Y-101474375D01*
X145816500Y-101985957D01*
X145920557Y-102237172D01*
X146112829Y-102429444D01*
X146364044Y-102533500D01*
X147750625Y-102533500D01*
X147921500Y-102362625D01*
X147921500Y-101303500D01*
X148078500Y-101303500D01*
X148078500Y-102362625D01*
X148249375Y-102533500D01*
X149635956Y-102533500D01*
X149887171Y-102429444D01*
X150079443Y-102237172D01*
X150183500Y-101985957D01*
X150183500Y-101474375D01*
X150012625Y-101303500D01*
X148078500Y-101303500D01*
X147921500Y-101303500D01*
X145987375Y-101303500D01*
X145816500Y-101474375D01*
X139294860Y-101474375D01*
X139478735Y-101290500D01*
X144359995Y-101290500D01*
X144360000Y-101290501D01*
X144360005Y-101290500D01*
X144384995Y-101290500D01*
X144385000Y-101290501D01*
X144614802Y-101244790D01*
X144809618Y-101114618D01*
X145460192Y-100464043D01*
X145816500Y-100464043D01*
X145816500Y-100975625D01*
X145987375Y-101146500D01*
X147921500Y-101146500D01*
X147921500Y-100087375D01*
X148078500Y-100087375D01*
X148078500Y-101146500D01*
X150012625Y-101146500D01*
X150183500Y-100975625D01*
X150183500Y-100464043D01*
X150079443Y-100212828D01*
X149887171Y-100020556D01*
X149635956Y-99916500D01*
X148249375Y-99916500D01*
X148078500Y-100087375D01*
X147921500Y-100087375D01*
X147750625Y-99916500D01*
X146364044Y-99916500D01*
X146112829Y-100020556D01*
X145920557Y-100212828D01*
X145816500Y-100464043D01*
X145460192Y-100464043D01*
X145874617Y-100049618D01*
X145924957Y-99974279D01*
X146223736Y-99675500D01*
X154032761Y-99675500D01*
X154032766Y-99675501D01*
X154262568Y-99629790D01*
X154440185Y-99511110D01*
X154440185Y-99600000D01*
X154473341Y-99776210D01*
X154520580Y-99849621D01*
X154478382Y-99911380D01*
X154440185Y-100100000D01*
X154440185Y-100500000D01*
X154473341Y-100676210D01*
X154577481Y-100838047D01*
X154736380Y-100946618D01*
X154925000Y-100984815D01*
X155525000Y-100984815D01*
X155701210Y-100951659D01*
X155780713Y-100900500D01*
X156199995Y-100900500D01*
X156200000Y-100900501D01*
X156429802Y-100854790D01*
X156624618Y-100724618D01*
X156643672Y-100705564D01*
X156723580Y-100705634D01*
X157008712Y-100587820D01*
X157227054Y-100369859D01*
X157345365Y-100084933D01*
X157345634Y-99776420D01*
X157227820Y-99491288D01*
X157009859Y-99272946D01*
X156724933Y-99154635D01*
X156416420Y-99154366D01*
X156131288Y-99272180D01*
X156009815Y-99393441D01*
X156009815Y-99200000D01*
X155976659Y-99023790D01*
X155872519Y-98861953D01*
X155825500Y-98829826D01*
X155825500Y-98805005D01*
X155825501Y-98805000D01*
X155779790Y-98575198D01*
X155649618Y-98380382D01*
X155627962Y-98358726D01*
X155771150Y-98331783D01*
X155931534Y-98225417D01*
X156419213Y-97737738D01*
X158271476Y-99590000D01*
X158271476Y-99590000D01*
G37*
X158271476Y-99590000D02*
X156980738Y-100880738D01*
X156861404Y-101059332D01*
X156841480Y-101159499D01*
X156819500Y-101270000D01*
X156819500Y-104765185D01*
X156095000Y-104765185D01*
X156045495Y-104774500D01*
X155775022Y-104774500D01*
X155654933Y-104724635D01*
X155346420Y-104724366D01*
X155061288Y-104842180D01*
X154842946Y-105060141D01*
X154724635Y-105345067D01*
X154724366Y-105653580D01*
X154842180Y-105938712D01*
X154986436Y-106083220D01*
X154888612Y-106042600D01*
X152308006Y-103461994D01*
X152072637Y-103304725D01*
X151795000Y-103249500D01*
X149965905Y-103249500D01*
X149951659Y-103173790D01*
X149847519Y-103011953D01*
X149688620Y-102903382D01*
X149500000Y-102865185D01*
X146500000Y-102865185D01*
X146323790Y-102898341D01*
X146161953Y-103002481D01*
X146053382Y-103161380D01*
X146015185Y-103350000D01*
X146015185Y-104600000D01*
X146048341Y-104776210D01*
X146152481Y-104938047D01*
X146311380Y-105046618D01*
X146500000Y-105084815D01*
X149500000Y-105084815D01*
X149676210Y-105051659D01*
X149838047Y-104947519D01*
X149946618Y-104788620D01*
X149964463Y-104700500D01*
X151494488Y-104700500D01*
X153862525Y-107068537D01*
X153912180Y-107188712D01*
X154130141Y-107407054D01*
X154415067Y-107525365D01*
X154699866Y-107525613D01*
X154625382Y-107575382D01*
X153805382Y-108395382D01*
X153805380Y-108395385D01*
X152275382Y-109925382D01*
X152145210Y-110120198D01*
X152099499Y-110350000D01*
X152099500Y-110350005D01*
X152099500Y-111201264D01*
X150026264Y-113274500D01*
X149718416Y-113274500D01*
X149838047Y-113197519D01*
X149946618Y-113038620D01*
X149984815Y-112850000D01*
X149984815Y-111600000D01*
X149951659Y-111423790D01*
X149847519Y-111261953D01*
X149688620Y-111153382D01*
X149500000Y-111115185D01*
X146500000Y-111115185D01*
X146323790Y-111148341D01*
X146161953Y-111252481D01*
X146067187Y-111391175D01*
X143538006Y-108861994D01*
X143520056Y-108850000D01*
X146015185Y-108850000D01*
X146015185Y-110100000D01*
X146048341Y-110276210D01*
X146152481Y-110438047D01*
X146311380Y-110546618D01*
X146500000Y-110584815D01*
X149500000Y-110584815D01*
X149676210Y-110551659D01*
X149838047Y-110447519D01*
X149946618Y-110288620D01*
X149984815Y-110100000D01*
X149984815Y-109151387D01*
X150180141Y-109347054D01*
X150465067Y-109465365D01*
X150773580Y-109465634D01*
X151058712Y-109347820D01*
X151277054Y-109129859D01*
X151395365Y-108844933D01*
X151395634Y-108536420D01*
X151277820Y-108251288D01*
X151059859Y-108032946D01*
X150774933Y-107914635D01*
X150466420Y-107914366D01*
X150181288Y-108032180D01*
X149962946Y-108250141D01*
X149851600Y-108518294D01*
X149847519Y-108511953D01*
X149688620Y-108403382D01*
X149500000Y-108365185D01*
X146500000Y-108365185D01*
X146323790Y-108398341D01*
X146161953Y-108502481D01*
X146053382Y-108661380D01*
X146015185Y-108850000D01*
X143520056Y-108850000D01*
X143302637Y-108704725D01*
X143025000Y-108649500D01*
X142500022Y-108649500D01*
X142379933Y-108599635D01*
X142071420Y-108599366D01*
X141786288Y-108717180D01*
X141567946Y-108935141D01*
X141449635Y-109220067D01*
X141449366Y-109528580D01*
X141567180Y-109813712D01*
X141785141Y-110032054D01*
X142070067Y-110150365D01*
X142378580Y-110150634D01*
X142499914Y-110100500D01*
X142724488Y-110100500D01*
X144247942Y-111623954D01*
X144125000Y-111599499D01*
X144124995Y-111599500D01*
X139518736Y-111599500D01*
X135976598Y-108057362D01*
X136039802Y-108044790D01*
X136234618Y-107914618D01*
X136804615Y-107344620D01*
X136804618Y-107344618D01*
X136884788Y-107224635D01*
X136934790Y-107149802D01*
X136980501Y-106920000D01*
X136980500Y-106919995D01*
X136980500Y-105225422D01*
X137223580Y-105225634D01*
X137508712Y-105107820D01*
X137727054Y-104889859D01*
X137749585Y-104835597D01*
X140151994Y-107238006D01*
X140387363Y-107395275D01*
X140665000Y-107450500D01*
X146034095Y-107450500D01*
X146048341Y-107526210D01*
X146152481Y-107688047D01*
X146311380Y-107796618D01*
X146500000Y-107834815D01*
X149500000Y-107834815D01*
X149676210Y-107801659D01*
X149838047Y-107697519D01*
X149946618Y-107538620D01*
X149984815Y-107350000D01*
X149984815Y-106100000D01*
X149951659Y-105923790D01*
X149847519Y-105761953D01*
X149688620Y-105653382D01*
X149500000Y-105615185D01*
X146500000Y-105615185D01*
X146323790Y-105648341D01*
X146161953Y-105752481D01*
X146053382Y-105911380D01*
X146035537Y-105999500D01*
X140965512Y-105999500D01*
X138457475Y-103491463D01*
X138407820Y-103371288D01*
X138189859Y-103152946D01*
X137904933Y-103034635D01*
X137734749Y-103034487D01*
X139294860Y-101474375D01*
X145816500Y-101474375D01*
X145816500Y-101985957D01*
X145920557Y-102237172D01*
X146112829Y-102429444D01*
X146364044Y-102533500D01*
X147750625Y-102533500D01*
X147921500Y-102362625D01*
X147921500Y-101303500D01*
X148078500Y-101303500D01*
X148078500Y-102362625D01*
X148249375Y-102533500D01*
X149635956Y-102533500D01*
X149887171Y-102429444D01*
X150079443Y-102237172D01*
X150183500Y-101985957D01*
X150183500Y-101474375D01*
X150012625Y-101303500D01*
X148078500Y-101303500D01*
X147921500Y-101303500D01*
X145987375Y-101303500D01*
X145816500Y-101474375D01*
X139294860Y-101474375D01*
X139478735Y-101290500D01*
X144359995Y-101290500D01*
X144360000Y-101290501D01*
X144360005Y-101290500D01*
X144384995Y-101290500D01*
X144385000Y-101290501D01*
X144614802Y-101244790D01*
X144809618Y-101114618D01*
X145460192Y-100464043D01*
X145816500Y-100464043D01*
X145816500Y-100975625D01*
X145987375Y-101146500D01*
X147921500Y-101146500D01*
X147921500Y-100087375D01*
X148078500Y-100087375D01*
X148078500Y-101146500D01*
X150012625Y-101146500D01*
X150183500Y-100975625D01*
X150183500Y-100464043D01*
X150079443Y-100212828D01*
X149887171Y-100020556D01*
X149635956Y-99916500D01*
X148249375Y-99916500D01*
X148078500Y-100087375D01*
X147921500Y-100087375D01*
X147750625Y-99916500D01*
X146364044Y-99916500D01*
X146112829Y-100020556D01*
X145920557Y-100212828D01*
X145816500Y-100464043D01*
X145460192Y-100464043D01*
X145874617Y-100049618D01*
X145924957Y-99974279D01*
X146223736Y-99675500D01*
X154032761Y-99675500D01*
X154032766Y-99675501D01*
X154262568Y-99629790D01*
X154440185Y-99511110D01*
X154440185Y-99600000D01*
X154473341Y-99776210D01*
X154520580Y-99849621D01*
X154478382Y-99911380D01*
X154440185Y-100100000D01*
X154440185Y-100500000D01*
X154473341Y-100676210D01*
X154577481Y-100838047D01*
X154736380Y-100946618D01*
X154925000Y-100984815D01*
X155525000Y-100984815D01*
X155701210Y-100951659D01*
X155780713Y-100900500D01*
X156199995Y-100900500D01*
X156200000Y-100900501D01*
X156429802Y-100854790D01*
X156624618Y-100724618D01*
X156643672Y-100705564D01*
X156723580Y-100705634D01*
X157008712Y-100587820D01*
X157227054Y-100369859D01*
X157345365Y-100084933D01*
X157345634Y-99776420D01*
X157227820Y-99491288D01*
X157009859Y-99272946D01*
X156724933Y-99154635D01*
X156416420Y-99154366D01*
X156131288Y-99272180D01*
X156009815Y-99393441D01*
X156009815Y-99200000D01*
X155976659Y-99023790D01*
X155872519Y-98861953D01*
X155825500Y-98829826D01*
X155825500Y-98805005D01*
X155825501Y-98805000D01*
X155779790Y-98575198D01*
X155649618Y-98380382D01*
X155627962Y-98358726D01*
X155771150Y-98331783D01*
X155931534Y-98225417D01*
X156419213Y-97737738D01*
X158271476Y-99590000D01*
G36*
X127345185Y-90915000D02*
X127354500Y-90964505D01*
X127354500Y-91284978D01*
X127304635Y-91405067D01*
X127304366Y-91713580D01*
X127422180Y-91998712D01*
X127640141Y-92217054D01*
X127925067Y-92335365D01*
X128233580Y-92335634D01*
X128518712Y-92217820D01*
X128620667Y-92116043D01*
X128554635Y-92275067D01*
X128554366Y-92583580D01*
X128672180Y-92868712D01*
X128788599Y-92985335D01*
X128761953Y-93002481D01*
X128653382Y-93161380D01*
X128615185Y-93350000D01*
X128615185Y-94950000D01*
X128648341Y-95126210D01*
X128724500Y-95244564D01*
X128724500Y-95249501D01*
X128599674Y-95550115D01*
X128599327Y-95948139D01*
X128751323Y-96315997D01*
X128999500Y-96564608D01*
X128999500Y-102176265D01*
X128250382Y-102925382D01*
X128120210Y-103120198D01*
X128074499Y-103350000D01*
X128074500Y-103350005D01*
X128074500Y-103472881D01*
X127865956Y-103386500D01*
X127729375Y-103386500D01*
X127558500Y-103557375D01*
X127558500Y-104291500D01*
X127578500Y-104291500D01*
X127578500Y-104448500D01*
X127558500Y-104448500D01*
X127558500Y-104468500D01*
X127401500Y-104468500D01*
X127401500Y-104448500D01*
X126717375Y-104448500D01*
X126546500Y-104619375D01*
X126546500Y-104805957D01*
X126650557Y-105057172D01*
X126748250Y-105154865D01*
X126745185Y-105170000D01*
X126745185Y-105770000D01*
X126778341Y-105946210D01*
X126882481Y-106108047D01*
X127041380Y-106216618D01*
X127230000Y-106254815D01*
X127622492Y-106254815D01*
X127574635Y-106370067D01*
X127574366Y-106678580D01*
X127661516Y-106889500D01*
X127238736Y-106889500D01*
X125900500Y-105551264D01*
X125900500Y-103934043D01*
X126546500Y-103934043D01*
X126546500Y-104120625D01*
X126717375Y-104291500D01*
X127401500Y-104291500D01*
X127401500Y-103557375D01*
X127230625Y-103386500D01*
X127094044Y-103386500D01*
X126842829Y-103490556D01*
X126650557Y-103682828D01*
X126546500Y-103934043D01*
X125900500Y-103934043D01*
X125900500Y-97657239D01*
X125900501Y-97657234D01*
X125854790Y-97427432D01*
X125750500Y-97271351D01*
X125750500Y-96671680D01*
X125788047Y-96647519D01*
X125896618Y-96488620D01*
X125934815Y-96300000D01*
X125934815Y-95900000D01*
X125901659Y-95723790D01*
X125854420Y-95650379D01*
X125896618Y-95588620D01*
X125934815Y-95400000D01*
X125934815Y-95000000D01*
X125901659Y-94823790D01*
X125797519Y-94661953D01*
X125750500Y-94629826D01*
X125750500Y-94220000D01*
X125704790Y-93990199D01*
X125615547Y-93856636D01*
X125615634Y-93756420D01*
X125497820Y-93471288D01*
X125292707Y-93265817D01*
X125719262Y-92839262D01*
X125838596Y-92660668D01*
X125880500Y-92450000D01*
X125880500Y-90240500D01*
X127345185Y-90240500D01*
X127345185Y-90915000D01*
X127345185Y-90915000D01*
G37*
X127345185Y-90915000D02*
X127354500Y-90964505D01*
X127354500Y-91284978D01*
X127304635Y-91405067D01*
X127304366Y-91713580D01*
X127422180Y-91998712D01*
X127640141Y-92217054D01*
X127925067Y-92335365D01*
X128233580Y-92335634D01*
X128518712Y-92217820D01*
X128620667Y-92116043D01*
X128554635Y-92275067D01*
X128554366Y-92583580D01*
X128672180Y-92868712D01*
X128788599Y-92985335D01*
X128761953Y-93002481D01*
X128653382Y-93161380D01*
X128615185Y-93350000D01*
X128615185Y-94950000D01*
X128648341Y-95126210D01*
X128724500Y-95244564D01*
X128724500Y-95249501D01*
X128599674Y-95550115D01*
X128599327Y-95948139D01*
X128751323Y-96315997D01*
X128999500Y-96564608D01*
X128999500Y-102176265D01*
X128250382Y-102925382D01*
X128120210Y-103120198D01*
X128074499Y-103350000D01*
X128074500Y-103350005D01*
X128074500Y-103472881D01*
X127865956Y-103386500D01*
X127729375Y-103386500D01*
X127558500Y-103557375D01*
X127558500Y-104291500D01*
X127578500Y-104291500D01*
X127578500Y-104448500D01*
X127558500Y-104448500D01*
X127558500Y-104468500D01*
X127401500Y-104468500D01*
X127401500Y-104448500D01*
X126717375Y-104448500D01*
X126546500Y-104619375D01*
X126546500Y-104805957D01*
X126650557Y-105057172D01*
X126748250Y-105154865D01*
X126745185Y-105170000D01*
X126745185Y-105770000D01*
X126778341Y-105946210D01*
X126882481Y-106108047D01*
X127041380Y-106216618D01*
X127230000Y-106254815D01*
X127622492Y-106254815D01*
X127574635Y-106370067D01*
X127574366Y-106678580D01*
X127661516Y-106889500D01*
X127238736Y-106889500D01*
X125900500Y-105551264D01*
X125900500Y-103934043D01*
X126546500Y-103934043D01*
X126546500Y-104120625D01*
X126717375Y-104291500D01*
X127401500Y-104291500D01*
X127401500Y-103557375D01*
X127230625Y-103386500D01*
X127094044Y-103386500D01*
X126842829Y-103490556D01*
X126650557Y-103682828D01*
X126546500Y-103934043D01*
X125900500Y-103934043D01*
X125900500Y-97657239D01*
X125900501Y-97657234D01*
X125854790Y-97427432D01*
X125750500Y-97271351D01*
X125750500Y-96671680D01*
X125788047Y-96647519D01*
X125896618Y-96488620D01*
X125934815Y-96300000D01*
X125934815Y-95900000D01*
X125901659Y-95723790D01*
X125854420Y-95650379D01*
X125896618Y-95588620D01*
X125934815Y-95400000D01*
X125934815Y-95000000D01*
X125901659Y-94823790D01*
X125797519Y-94661953D01*
X125750500Y-94629826D01*
X125750500Y-94220000D01*
X125704790Y-93990199D01*
X125615547Y-93856636D01*
X125615634Y-93756420D01*
X125497820Y-93471288D01*
X125292707Y-93265817D01*
X125719262Y-92839262D01*
X125838596Y-92660668D01*
X125880500Y-92450000D01*
X125880500Y-90240500D01*
X127345185Y-90240500D01*
X127345185Y-90915000D01*
G36*
X123056232Y-96447651D02*
X123204276Y-96548805D01*
X123380581Y-96587051D01*
X123958150Y-97164620D01*
X123666420Y-97164366D01*
X123381288Y-97282180D01*
X123162946Y-97500141D01*
X123044635Y-97785067D01*
X123044366Y-98093580D01*
X123162180Y-98378712D01*
X123380141Y-98597054D01*
X123665067Y-98715365D01*
X123973580Y-98715634D01*
X124258712Y-98597820D01*
X124477054Y-98379859D01*
X124595365Y-98094933D01*
X124595620Y-97802090D01*
X124699500Y-97905970D01*
X124699500Y-105450264D01*
X124324618Y-105075382D01*
X124129802Y-104945210D01*
X123900000Y-104899499D01*
X123899995Y-104899500D01*
X123455020Y-104899500D01*
X123496618Y-104838620D01*
X123534815Y-104650000D01*
X123534815Y-104250000D01*
X123501659Y-104073790D01*
X123454420Y-104000379D01*
X123496618Y-103938620D01*
X123534815Y-103750000D01*
X123534815Y-103350000D01*
X123501659Y-103173790D01*
X123397519Y-103011953D01*
X123238620Y-102903382D01*
X123050000Y-102865185D01*
X122450000Y-102865185D01*
X122273790Y-102898341D01*
X122194287Y-102949500D01*
X121618735Y-102949500D01*
X121425564Y-102756329D01*
X121425634Y-102676420D01*
X121307820Y-102391288D01*
X121089859Y-102172946D01*
X120804933Y-102054635D01*
X120496420Y-102054366D01*
X120390500Y-102098131D01*
X120390500Y-101260000D01*
X120348596Y-101049333D01*
X120308951Y-100990000D01*
X120229263Y-100870738D01*
X118958524Y-99600000D01*
X120815787Y-97742738D01*
X121288466Y-98215417D01*
X121323003Y-98239015D01*
X121492525Y-98408537D01*
X121542180Y-98528712D01*
X121760141Y-98747054D01*
X122045067Y-98865365D01*
X122353580Y-98865634D01*
X122638712Y-98747820D01*
X122857054Y-98529859D01*
X122975365Y-98244933D01*
X122975634Y-97936420D01*
X122857820Y-97651288D01*
X122639859Y-97432946D01*
X122518612Y-97382600D01*
X122357989Y-97221977D01*
X122327651Y-97176232D01*
X121854972Y-96703553D01*
X122583553Y-95974972D01*
X123056232Y-96447651D01*
X123056232Y-96447651D01*
G37*
X123056232Y-96447651D02*
X123204276Y-96548805D01*
X123380581Y-96587051D01*
X123958150Y-97164620D01*
X123666420Y-97164366D01*
X123381288Y-97282180D01*
X123162946Y-97500141D01*
X123044635Y-97785067D01*
X123044366Y-98093580D01*
X123162180Y-98378712D01*
X123380141Y-98597054D01*
X123665067Y-98715365D01*
X123973580Y-98715634D01*
X124258712Y-98597820D01*
X124477054Y-98379859D01*
X124595365Y-98094933D01*
X124595620Y-97802090D01*
X124699500Y-97905970D01*
X124699500Y-105450264D01*
X124324618Y-105075382D01*
X124129802Y-104945210D01*
X123900000Y-104899499D01*
X123899995Y-104899500D01*
X123455020Y-104899500D01*
X123496618Y-104838620D01*
X123534815Y-104650000D01*
X123534815Y-104250000D01*
X123501659Y-104073790D01*
X123454420Y-104000379D01*
X123496618Y-103938620D01*
X123534815Y-103750000D01*
X123534815Y-103350000D01*
X123501659Y-103173790D01*
X123397519Y-103011953D01*
X123238620Y-102903382D01*
X123050000Y-102865185D01*
X122450000Y-102865185D01*
X122273790Y-102898341D01*
X122194287Y-102949500D01*
X121618735Y-102949500D01*
X121425564Y-102756329D01*
X121425634Y-102676420D01*
X121307820Y-102391288D01*
X121089859Y-102172946D01*
X120804933Y-102054635D01*
X120496420Y-102054366D01*
X120390500Y-102098131D01*
X120390500Y-101260000D01*
X120348596Y-101049333D01*
X120308951Y-100990000D01*
X120229263Y-100870738D01*
X118958524Y-99600000D01*
X120815787Y-97742738D01*
X121288466Y-98215417D01*
X121323003Y-98239015D01*
X121492525Y-98408537D01*
X121542180Y-98528712D01*
X121760141Y-98747054D01*
X122045067Y-98865365D01*
X122353580Y-98865634D01*
X122638712Y-98747820D01*
X122857054Y-98529859D01*
X122975365Y-98244933D01*
X122975634Y-97936420D01*
X122857820Y-97651288D01*
X122639859Y-97432946D01*
X122518612Y-97382600D01*
X122357989Y-97221977D01*
X122327651Y-97176232D01*
X121854972Y-96703553D01*
X122583553Y-95974972D01*
X123056232Y-96447651D01*
G36*
X132224500Y-102453686D02*
X132167946Y-102510141D01*
X132049635Y-102795067D01*
X132049571Y-102868808D01*
X132005210Y-102935198D01*
X131959499Y-103165000D01*
X131959500Y-103165005D01*
X131959500Y-103718531D01*
X131845956Y-103671500D01*
X131805875Y-103671500D01*
X131660500Y-103816875D01*
X131660500Y-102528643D01*
X131928712Y-102417820D01*
X132147054Y-102199859D01*
X132224500Y-102013347D01*
X132224500Y-102453686D01*
X132224500Y-102453686D01*
G37*
X132224500Y-102453686D02*
X132167946Y-102510141D01*
X132049635Y-102795067D01*
X132049571Y-102868808D01*
X132005210Y-102935198D01*
X131959499Y-103165000D01*
X131959500Y-103165005D01*
X131959500Y-103718531D01*
X131845956Y-103671500D01*
X131805875Y-103671500D01*
X131660500Y-103816875D01*
X131660500Y-102528643D01*
X131928712Y-102417820D01*
X132147054Y-102199859D01*
X132224500Y-102013347D01*
X132224500Y-102453686D01*
G36*
X151460738Y-92779262D02*
X153612262Y-94930787D01*
X153124583Y-95418466D01*
X153100985Y-95453003D01*
X152941463Y-95612525D01*
X152821288Y-95662180D01*
X152602946Y-95880141D01*
X152484635Y-96165067D01*
X152484366Y-96473580D01*
X152602180Y-96758712D01*
X152820141Y-96977054D01*
X153105067Y-97095365D01*
X153242702Y-97095485D01*
X153081288Y-97162180D01*
X152862946Y-97380141D01*
X152744635Y-97665067D01*
X152744366Y-97973580D01*
X152862180Y-98258712D01*
X153077591Y-98474500D01*
X148705403Y-98474500D01*
X148783500Y-98285956D01*
X148783500Y-97599375D01*
X148612625Y-97428500D01*
X147678500Y-97428500D01*
X147678500Y-97448500D01*
X147521500Y-97448500D01*
X147521500Y-97428500D01*
X147501500Y-97428500D01*
X147501500Y-97271500D01*
X147521500Y-97271500D01*
X147521500Y-97251500D01*
X147678500Y-97251500D01*
X147678500Y-97271500D01*
X148612625Y-97271500D01*
X148783500Y-97100625D01*
X148783500Y-96471312D01*
X148808500Y-96410956D01*
X148808500Y-95999375D01*
X148801727Y-95992602D01*
X148814023Y-95960731D01*
X148808500Y-95735176D01*
X148808500Y-95671498D01*
X148806941Y-95671498D01*
X148802894Y-95506231D01*
X148808500Y-95500625D01*
X148808500Y-95089044D01*
X148704444Y-94837829D01*
X148512172Y-94645557D01*
X148260957Y-94541500D01*
X147849375Y-94541500D01*
X147842602Y-94548273D01*
X147810731Y-94535977D01*
X147585191Y-94541500D01*
X147521498Y-94541500D01*
X147521498Y-94543060D01*
X147428909Y-94545327D01*
X147598736Y-94375500D01*
X149749995Y-94375500D01*
X149750000Y-94375501D01*
X149979802Y-94329790D01*
X150174618Y-94199618D01*
X150399618Y-93974618D01*
X150529790Y-93779802D01*
X150575500Y-93550000D01*
X150575500Y-92839665D01*
X150675000Y-92859815D01*
X151075000Y-92859815D01*
X151251210Y-92826659D01*
X151413047Y-92722519D01*
X151417990Y-92715285D01*
X151460738Y-92779262D01*
X151460738Y-92779262D01*
G37*
X151460738Y-92779262D02*
X153612262Y-94930787D01*
X153124583Y-95418466D01*
X153100985Y-95453003D01*
X152941463Y-95612525D01*
X152821288Y-95662180D01*
X152602946Y-95880141D01*
X152484635Y-96165067D01*
X152484366Y-96473580D01*
X152602180Y-96758712D01*
X152820141Y-96977054D01*
X153105067Y-97095365D01*
X153242702Y-97095485D01*
X153081288Y-97162180D01*
X152862946Y-97380141D01*
X152744635Y-97665067D01*
X152744366Y-97973580D01*
X152862180Y-98258712D01*
X153077591Y-98474500D01*
X148705403Y-98474500D01*
X148783500Y-98285956D01*
X148783500Y-97599375D01*
X148612625Y-97428500D01*
X147678500Y-97428500D01*
X147678500Y-97448500D01*
X147521500Y-97448500D01*
X147521500Y-97428500D01*
X147501500Y-97428500D01*
X147501500Y-97271500D01*
X147521500Y-97271500D01*
X147521500Y-97251500D01*
X147678500Y-97251500D01*
X147678500Y-97271500D01*
X148612625Y-97271500D01*
X148783500Y-97100625D01*
X148783500Y-96471312D01*
X148808500Y-96410956D01*
X148808500Y-95999375D01*
X148801727Y-95992602D01*
X148814023Y-95960731D01*
X148808500Y-95735176D01*
X148808500Y-95671498D01*
X148806941Y-95671498D01*
X148802894Y-95506231D01*
X148808500Y-95500625D01*
X148808500Y-95089044D01*
X148704444Y-94837829D01*
X148512172Y-94645557D01*
X148260957Y-94541500D01*
X147849375Y-94541500D01*
X147842602Y-94548273D01*
X147810731Y-94535977D01*
X147585191Y-94541500D01*
X147521498Y-94541500D01*
X147521498Y-94543060D01*
X147428909Y-94545327D01*
X147598736Y-94375500D01*
X149749995Y-94375500D01*
X149750000Y-94375501D01*
X149979802Y-94329790D01*
X150174618Y-94199618D01*
X150399618Y-93974618D01*
X150529790Y-93779802D01*
X150575500Y-93550000D01*
X150575500Y-92839665D01*
X150675000Y-92859815D01*
X151075000Y-92859815D01*
X151251210Y-92826659D01*
X151413047Y-92722519D01*
X151417990Y-92715285D01*
X151460738Y-92779262D01*
G36*
X147698500Y-95709200D02*
X147698500Y-95790800D01*
X147640800Y-95848500D01*
X147559200Y-95848500D01*
X147501500Y-95790800D01*
X147501500Y-95709200D01*
X147559200Y-95651500D01*
X147640800Y-95651500D01*
X147698500Y-95709200D01*
X147698500Y-95709200D01*
G37*
X147698500Y-95709200D02*
X147698500Y-95790800D01*
X147640800Y-95848500D01*
X147559200Y-95848500D01*
X147501500Y-95790800D01*
X147501500Y-95709200D01*
X147559200Y-95651500D01*
X147640800Y-95651500D01*
X147698500Y-95709200D01*
G36*
X145895185Y-90925000D02*
X145914500Y-91027651D01*
X145914500Y-91260895D01*
X145854635Y-91405067D01*
X145854366Y-91713580D01*
X145972180Y-91998712D01*
X146190141Y-92217054D01*
X146475067Y-92335365D01*
X146783580Y-92335634D01*
X147068712Y-92217820D01*
X147187747Y-92098993D01*
X147114635Y-92275067D01*
X147114366Y-92583580D01*
X147232180Y-92868712D01*
X147450141Y-93087054D01*
X147660735Y-93174500D01*
X147350000Y-93174500D01*
X147120199Y-93220210D01*
X147071206Y-93252946D01*
X146925382Y-93350382D01*
X146584815Y-93690949D01*
X146584815Y-93350000D01*
X146551659Y-93173790D01*
X146447519Y-93011953D01*
X146288620Y-92903382D01*
X146100000Y-92865185D01*
X145100000Y-92865185D01*
X144923790Y-92898341D01*
X144761953Y-93002481D01*
X144653382Y-93161380D01*
X144615185Y-93350000D01*
X144615185Y-94950000D01*
X144648341Y-95126210D01*
X144724500Y-95244564D01*
X144724500Y-95249501D01*
X144599813Y-95549780D01*
X144448677Y-95184003D01*
X144167478Y-94902312D01*
X143799885Y-94749674D01*
X143401861Y-94749327D01*
X143034003Y-94901323D01*
X142752312Y-95182522D01*
X142599813Y-95549780D01*
X142475500Y-95248920D01*
X142475500Y-95242705D01*
X142546618Y-95138620D01*
X142584815Y-94950000D01*
X142584815Y-93350000D01*
X142551659Y-93173790D01*
X142447519Y-93011953D01*
X142288620Y-92903382D01*
X142100000Y-92865185D01*
X141100000Y-92865185D01*
X140923790Y-92898341D01*
X140761953Y-93002481D01*
X140653382Y-93161380D01*
X140615185Y-93350000D01*
X140615185Y-94950000D01*
X140648341Y-95126210D01*
X140724500Y-95244564D01*
X140724500Y-95249501D01*
X140599813Y-95549780D01*
X140448677Y-95184003D01*
X140167478Y-94902312D01*
X139799885Y-94749674D01*
X139469849Y-94749386D01*
X140274615Y-93944620D01*
X140274618Y-93944618D01*
X140374334Y-93795382D01*
X140404790Y-93749802D01*
X140450501Y-93520000D01*
X140450500Y-93519995D01*
X140450500Y-92747102D01*
X140486380Y-92771618D01*
X140675000Y-92809815D01*
X141075000Y-92809815D01*
X141251210Y-92776659D01*
X141324621Y-92729420D01*
X141386380Y-92771618D01*
X141575000Y-92809815D01*
X141975000Y-92809815D01*
X142151210Y-92776659D01*
X142313047Y-92672519D01*
X142421618Y-92513620D01*
X142459815Y-92325000D01*
X142459815Y-91725000D01*
X142426659Y-91548790D01*
X142375500Y-91469287D01*
X142375500Y-91293736D01*
X142393671Y-91275564D01*
X142473580Y-91275634D01*
X142758712Y-91157820D01*
X142977054Y-90939859D01*
X143095365Y-90654933D01*
X143095634Y-90346420D01*
X143051869Y-90240500D01*
X145895185Y-90240500D01*
X145895185Y-90925000D01*
X145895185Y-90925000D01*
G37*
X145895185Y-90925000D02*
X145914500Y-91027651D01*
X145914500Y-91260895D01*
X145854635Y-91405067D01*
X145854366Y-91713580D01*
X145972180Y-91998712D01*
X146190141Y-92217054D01*
X146475067Y-92335365D01*
X146783580Y-92335634D01*
X147068712Y-92217820D01*
X147187747Y-92098993D01*
X147114635Y-92275067D01*
X147114366Y-92583580D01*
X147232180Y-92868712D01*
X147450141Y-93087054D01*
X147660735Y-93174500D01*
X147350000Y-93174500D01*
X147120199Y-93220210D01*
X147071206Y-93252946D01*
X146925382Y-93350382D01*
X146584815Y-93690949D01*
X146584815Y-93350000D01*
X146551659Y-93173790D01*
X146447519Y-93011953D01*
X146288620Y-92903382D01*
X146100000Y-92865185D01*
X145100000Y-92865185D01*
X144923790Y-92898341D01*
X144761953Y-93002481D01*
X144653382Y-93161380D01*
X144615185Y-93350000D01*
X144615185Y-94950000D01*
X144648341Y-95126210D01*
X144724500Y-95244564D01*
X144724500Y-95249501D01*
X144599813Y-95549780D01*
X144448677Y-95184003D01*
X144167478Y-94902312D01*
X143799885Y-94749674D01*
X143401861Y-94749327D01*
X143034003Y-94901323D01*
X142752312Y-95182522D01*
X142599813Y-95549780D01*
X142475500Y-95248920D01*
X142475500Y-95242705D01*
X142546618Y-95138620D01*
X142584815Y-94950000D01*
X142584815Y-93350000D01*
X142551659Y-93173790D01*
X142447519Y-93011953D01*
X142288620Y-92903382D01*
X142100000Y-92865185D01*
X141100000Y-92865185D01*
X140923790Y-92898341D01*
X140761953Y-93002481D01*
X140653382Y-93161380D01*
X140615185Y-93350000D01*
X140615185Y-94950000D01*
X140648341Y-95126210D01*
X140724500Y-95244564D01*
X140724500Y-95249501D01*
X140599813Y-95549780D01*
X140448677Y-95184003D01*
X140167478Y-94902312D01*
X139799885Y-94749674D01*
X139469849Y-94749386D01*
X140274615Y-93944620D01*
X140274618Y-93944618D01*
X140374334Y-93795382D01*
X140404790Y-93749802D01*
X140450501Y-93520000D01*
X140450500Y-93519995D01*
X140450500Y-92747102D01*
X140486380Y-92771618D01*
X140675000Y-92809815D01*
X141075000Y-92809815D01*
X141251210Y-92776659D01*
X141324621Y-92729420D01*
X141386380Y-92771618D01*
X141575000Y-92809815D01*
X141975000Y-92809815D01*
X142151210Y-92776659D01*
X142313047Y-92672519D01*
X142421618Y-92513620D01*
X142459815Y-92325000D01*
X142459815Y-91725000D01*
X142426659Y-91548790D01*
X142375500Y-91469287D01*
X142375500Y-91293736D01*
X142393671Y-91275564D01*
X142473580Y-91275634D01*
X142758712Y-91157820D01*
X142977054Y-90939859D01*
X143095365Y-90654933D01*
X143095634Y-90346420D01*
X143051869Y-90240500D01*
X145895185Y-90240500D01*
X145895185Y-90925000D01*
G36*
X136625185Y-90945000D02*
X136634500Y-90994505D01*
X136634500Y-91284978D01*
X136584635Y-91405067D01*
X136584366Y-91713580D01*
X136702180Y-91998712D01*
X136920141Y-92217054D01*
X137205067Y-92335365D01*
X137513580Y-92335634D01*
X137798712Y-92217820D01*
X137900667Y-92116043D01*
X137834635Y-92275067D01*
X137834366Y-92583580D01*
X137950723Y-92865185D01*
X137100000Y-92865185D01*
X136923790Y-92898341D01*
X136761953Y-93002481D01*
X136653382Y-93161380D01*
X136615185Y-93350000D01*
X136615185Y-94950000D01*
X136648341Y-95126210D01*
X136724500Y-95244564D01*
X136724500Y-95249501D01*
X136599813Y-95549780D01*
X136448677Y-95184003D01*
X136167478Y-94902312D01*
X135799885Y-94749674D01*
X135401861Y-94749327D01*
X135034003Y-94901323D01*
X134752312Y-95182522D01*
X134599813Y-95549780D01*
X134475500Y-95248920D01*
X134475500Y-95242705D01*
X134546618Y-95138620D01*
X134584815Y-94950000D01*
X134584815Y-93350000D01*
X134551659Y-93173790D01*
X134447519Y-93011953D01*
X134288620Y-92903382D01*
X134100000Y-92865185D01*
X133100000Y-92865185D01*
X132923790Y-92898341D01*
X132761953Y-93002481D01*
X132668496Y-93139260D01*
X132340740Y-92811504D01*
X132446210Y-92791659D01*
X132519621Y-92744420D01*
X132581380Y-92786618D01*
X132770000Y-92824815D01*
X133170000Y-92824815D01*
X133346210Y-92791659D01*
X133508047Y-92687519D01*
X133616618Y-92528620D01*
X133654815Y-92340000D01*
X133654815Y-91740000D01*
X133621659Y-91563790D01*
X133575500Y-91492057D01*
X133575500Y-91121096D01*
X133757054Y-90939859D01*
X133875365Y-90654933D01*
X133875634Y-90346420D01*
X133831869Y-90240500D01*
X136625185Y-90240500D01*
X136625185Y-90945000D01*
X136625185Y-90945000D01*
G37*
X136625185Y-90945000D02*
X136634500Y-90994505D01*
X136634500Y-91284978D01*
X136584635Y-91405067D01*
X136584366Y-91713580D01*
X136702180Y-91998712D01*
X136920141Y-92217054D01*
X137205067Y-92335365D01*
X137513580Y-92335634D01*
X137798712Y-92217820D01*
X137900667Y-92116043D01*
X137834635Y-92275067D01*
X137834366Y-92583580D01*
X137950723Y-92865185D01*
X137100000Y-92865185D01*
X136923790Y-92898341D01*
X136761953Y-93002481D01*
X136653382Y-93161380D01*
X136615185Y-93350000D01*
X136615185Y-94950000D01*
X136648341Y-95126210D01*
X136724500Y-95244564D01*
X136724500Y-95249501D01*
X136599813Y-95549780D01*
X136448677Y-95184003D01*
X136167478Y-94902312D01*
X135799885Y-94749674D01*
X135401861Y-94749327D01*
X135034003Y-94901323D01*
X134752312Y-95182522D01*
X134599813Y-95549780D01*
X134475500Y-95248920D01*
X134475500Y-95242705D01*
X134546618Y-95138620D01*
X134584815Y-94950000D01*
X134584815Y-93350000D01*
X134551659Y-93173790D01*
X134447519Y-93011953D01*
X134288620Y-92903382D01*
X134100000Y-92865185D01*
X133100000Y-92865185D01*
X132923790Y-92898341D01*
X132761953Y-93002481D01*
X132668496Y-93139260D01*
X132340740Y-92811504D01*
X132446210Y-92791659D01*
X132519621Y-92744420D01*
X132581380Y-92786618D01*
X132770000Y-92824815D01*
X133170000Y-92824815D01*
X133346210Y-92791659D01*
X133508047Y-92687519D01*
X133616618Y-92528620D01*
X133654815Y-92340000D01*
X133654815Y-91740000D01*
X133621659Y-91563790D01*
X133575500Y-91492057D01*
X133575500Y-91121096D01*
X133757054Y-90939859D01*
X133875365Y-90654933D01*
X133875634Y-90346420D01*
X133831869Y-90240500D01*
X136625185Y-90240500D01*
X136625185Y-90945000D01*
G36*
X167100000Y-69834815D02*
X170100000Y-69834815D01*
X170203672Y-69815308D01*
X170300000Y-69834815D01*
X170965185Y-69834815D01*
X170965185Y-71000000D01*
X170998341Y-71176210D01*
X171012441Y-71198122D01*
X171003382Y-71211380D01*
X170965185Y-71400000D01*
X170965185Y-74400000D01*
X170998341Y-74576210D01*
X170999891Y-74578619D01*
X170965185Y-74750000D01*
X170965185Y-77750000D01*
X170998341Y-77926210D01*
X171012441Y-77948122D01*
X171003382Y-77961380D01*
X170965185Y-78150000D01*
X170965185Y-81150000D01*
X170998341Y-81326210D01*
X170999891Y-81328619D01*
X170965185Y-81500000D01*
X170965185Y-82665185D01*
X170300000Y-82665185D01*
X170196328Y-82684692D01*
X170100000Y-82665185D01*
X167100000Y-82665185D01*
X166970410Y-82689569D01*
X166850000Y-82665185D01*
X165850000Y-82665185D01*
X165746328Y-82684692D01*
X165650000Y-82665185D01*
X162650000Y-82665185D01*
X162520410Y-82689569D01*
X162400000Y-82665185D01*
X161400000Y-82665185D01*
X161296328Y-82684692D01*
X161200000Y-82665185D01*
X160550327Y-82665185D01*
X160593500Y-82560957D01*
X160593500Y-82049375D01*
X160422625Y-81878500D01*
X158488500Y-81878500D01*
X158488500Y-81898500D01*
X158331500Y-81898500D01*
X158331500Y-81878500D01*
X158311500Y-81878500D01*
X158311500Y-81721500D01*
X158331500Y-81721500D01*
X158331500Y-80662375D01*
X158488500Y-80662375D01*
X158488500Y-81721500D01*
X160422625Y-81721500D01*
X160593500Y-81550625D01*
X160593500Y-81039043D01*
X160489443Y-80787828D01*
X160297171Y-80595556D01*
X160045956Y-80491500D01*
X158659375Y-80491500D01*
X158488500Y-80662375D01*
X158331500Y-80662375D01*
X158160625Y-80491500D01*
X157334815Y-80491500D01*
X157334815Y-80159815D01*
X159910000Y-80159815D01*
X160086210Y-80126659D01*
X160248047Y-80022519D01*
X160270036Y-79990337D01*
X160632347Y-80352648D01*
X160632349Y-80352651D01*
X160833346Y-80486953D01*
X160851497Y-80499081D01*
X161110000Y-80550500D01*
X161532806Y-80550500D01*
X161558341Y-80686210D01*
X161662481Y-80848047D01*
X161821380Y-80956618D01*
X162010000Y-80994815D01*
X162980000Y-80994815D01*
X163140692Y-80964579D01*
X163290000Y-80994815D01*
X164260000Y-80994815D01*
X164436210Y-80961659D01*
X164598047Y-80857519D01*
X164620266Y-80825000D01*
X166875185Y-80825000D01*
X166875185Y-81575000D01*
X166908341Y-81751210D01*
X167012481Y-81913047D01*
X167171380Y-82021618D01*
X167360000Y-82059815D01*
X168160000Y-82059815D01*
X168336210Y-82026659D01*
X168498047Y-81922519D01*
X168508619Y-81907046D01*
X168512481Y-81913047D01*
X168671380Y-82021618D01*
X168860000Y-82059815D01*
X169660000Y-82059815D01*
X169836210Y-82026659D01*
X169998047Y-81922519D01*
X170106618Y-81763620D01*
X170144815Y-81575000D01*
X170144815Y-80825000D01*
X170111659Y-80648790D01*
X170007519Y-80486953D01*
X169935500Y-80437745D01*
X169935500Y-78817705D01*
X170006618Y-78713620D01*
X170044815Y-78525000D01*
X170044815Y-78125000D01*
X170041933Y-78109682D01*
X170139443Y-78012172D01*
X170243500Y-77760957D01*
X170243500Y-77674375D01*
X170072625Y-77503500D01*
X169338500Y-77503500D01*
X169338500Y-77523500D01*
X169181500Y-77523500D01*
X169181500Y-77503500D01*
X169161500Y-77503500D01*
X169161500Y-77346500D01*
X169181500Y-77346500D01*
X169181500Y-76712375D01*
X169338500Y-76712375D01*
X169338500Y-77346500D01*
X170072625Y-77346500D01*
X170243500Y-77175625D01*
X170243500Y-77089043D01*
X170139443Y-76837828D01*
X169947171Y-76645556D01*
X169695956Y-76541500D01*
X169509375Y-76541500D01*
X169338500Y-76712375D01*
X169181500Y-76712375D01*
X169010625Y-76541500D01*
X168824044Y-76541500D01*
X168572829Y-76645556D01*
X168380557Y-76837828D01*
X168311431Y-77004713D01*
X168199859Y-76892946D01*
X167914933Y-76774635D01*
X167606420Y-76774366D01*
X167321288Y-76892180D01*
X167102946Y-77110141D01*
X166984635Y-77395067D01*
X166984366Y-77703580D01*
X167084500Y-77945923D01*
X167084500Y-80437233D01*
X167021953Y-80477481D01*
X166913382Y-80636380D01*
X166875185Y-80825000D01*
X164620266Y-80825000D01*
X164706618Y-80698620D01*
X164744815Y-80510000D01*
X164744815Y-79240000D01*
X164711659Y-79063790D01*
X164607519Y-78901953D01*
X164450500Y-78794667D01*
X164450500Y-77439802D01*
X164858037Y-77032265D01*
X165098712Y-76932820D01*
X165317054Y-76714859D01*
X165435365Y-76429933D01*
X165435634Y-76121420D01*
X165317820Y-75836288D01*
X165099859Y-75617946D01*
X164857692Y-75517390D01*
X164450500Y-75110198D01*
X164450500Y-73802464D01*
X164598047Y-73707519D01*
X164706618Y-73548620D01*
X164744815Y-73360000D01*
X164744815Y-72953580D01*
X165284366Y-72953580D01*
X165402180Y-73238712D01*
X165620141Y-73457054D01*
X165905067Y-73575365D01*
X166213580Y-73575634D01*
X166498712Y-73457820D01*
X166717054Y-73239859D01*
X166754366Y-73150000D01*
X166875185Y-73150000D01*
X166875185Y-73900000D01*
X166908341Y-74076210D01*
X167012481Y-74238047D01*
X167084500Y-74287255D01*
X167084500Y-74604564D01*
X166984635Y-74845067D01*
X166984366Y-75153580D01*
X167102180Y-75438712D01*
X167320141Y-75657054D01*
X167605067Y-75775365D01*
X167913580Y-75775634D01*
X168198712Y-75657820D01*
X168417054Y-75439859D01*
X168535365Y-75154933D01*
X168535634Y-74846420D01*
X168435500Y-74604077D01*
X168435500Y-74442115D01*
X168472828Y-74479443D01*
X168724043Y-74583500D01*
X169010625Y-74583500D01*
X169181500Y-74412625D01*
X169181500Y-73603500D01*
X169338500Y-73603500D01*
X169338500Y-74412625D01*
X169509375Y-74583500D01*
X169795957Y-74583500D01*
X170047172Y-74479443D01*
X170239444Y-74287171D01*
X170343500Y-74035956D01*
X170343500Y-73774375D01*
X170172625Y-73603500D01*
X169338500Y-73603500D01*
X169181500Y-73603500D01*
X169161500Y-73603500D01*
X169161500Y-73446500D01*
X169181500Y-73446500D01*
X169181500Y-72637375D01*
X169338500Y-72637375D01*
X169338500Y-73446500D01*
X170172625Y-73446500D01*
X170343500Y-73275625D01*
X170343500Y-73014044D01*
X170239444Y-72762829D01*
X170047172Y-72570557D01*
X169795957Y-72466500D01*
X169509375Y-72466500D01*
X169338500Y-72637375D01*
X169181500Y-72637375D01*
X169010625Y-72466500D01*
X168724043Y-72466500D01*
X168472828Y-72570557D01*
X168341454Y-72701931D01*
X168160000Y-72665185D01*
X167360000Y-72665185D01*
X167183790Y-72698341D01*
X167021953Y-72802481D01*
X166913382Y-72961380D01*
X166875185Y-73150000D01*
X166754366Y-73150000D01*
X166835365Y-72954933D01*
X166835634Y-72646420D01*
X166735500Y-72404077D01*
X166735500Y-72004802D01*
X166739801Y-72000500D01*
X166988320Y-72000500D01*
X167012481Y-72038047D01*
X167171380Y-72146618D01*
X167360000Y-72184815D01*
X168160000Y-72184815D01*
X168336210Y-72151659D01*
X168341585Y-72148200D01*
X168472828Y-72279443D01*
X168724043Y-72383500D01*
X169010625Y-72383500D01*
X169181500Y-72212625D01*
X169181500Y-71403500D01*
X169338500Y-71403500D01*
X169338500Y-72212625D01*
X169509375Y-72383500D01*
X169795957Y-72383500D01*
X170047172Y-72279443D01*
X170239444Y-72087171D01*
X170343500Y-71835956D01*
X170343500Y-71574375D01*
X170172625Y-71403500D01*
X169338500Y-71403500D01*
X169181500Y-71403500D01*
X169161500Y-71403500D01*
X169161500Y-71246500D01*
X169181500Y-71246500D01*
X169181500Y-70437375D01*
X169338500Y-70437375D01*
X169338500Y-71246500D01*
X170172625Y-71246500D01*
X170343500Y-71075625D01*
X170343500Y-70814044D01*
X170239444Y-70562829D01*
X170047172Y-70370557D01*
X169795957Y-70266500D01*
X169509375Y-70266500D01*
X169338500Y-70437375D01*
X169181500Y-70437375D01*
X169010625Y-70266500D01*
X168724043Y-70266500D01*
X168472828Y-70370557D01*
X168341454Y-70501931D01*
X168160000Y-70465185D01*
X167360000Y-70465185D01*
X167183790Y-70498341D01*
X167021953Y-70602481D01*
X166989826Y-70649500D01*
X166460000Y-70649500D01*
X166201497Y-70700919D01*
X165982349Y-70847349D01*
X165982347Y-70847352D01*
X165582349Y-71247349D01*
X165435919Y-71466497D01*
X165384499Y-71725000D01*
X165384500Y-71725005D01*
X165384500Y-72404564D01*
X165284635Y-72645067D01*
X165284366Y-72953580D01*
X164744815Y-72953580D01*
X164744815Y-72090000D01*
X164711659Y-71913790D01*
X164607519Y-71751953D01*
X164448620Y-71643382D01*
X164260000Y-71605185D01*
X163290000Y-71605185D01*
X163129308Y-71635421D01*
X162980000Y-71605185D01*
X162010000Y-71605185D01*
X161833790Y-71638341D01*
X161671953Y-71742481D01*
X161563382Y-71901380D01*
X161525185Y-72090000D01*
X161525185Y-73360000D01*
X161558341Y-73536210D01*
X161662481Y-73698047D01*
X161819500Y-73805333D01*
X161819500Y-75685199D01*
X160768627Y-76736072D01*
X160885365Y-76454933D01*
X160885634Y-76146420D01*
X160767820Y-75861288D01*
X160549859Y-75642946D01*
X160375132Y-75570393D01*
X160361659Y-75498790D01*
X160257519Y-75336953D01*
X160098620Y-75228382D01*
X159910000Y-75190185D01*
X157334815Y-75190185D01*
X157334815Y-74750000D01*
X157317846Y-74659815D01*
X159910000Y-74659815D01*
X160086210Y-74626659D01*
X160248047Y-74522519D01*
X160356618Y-74363620D01*
X160373509Y-74280212D01*
X160548712Y-74207820D01*
X160767054Y-73989859D01*
X160885365Y-73704933D01*
X160885634Y-73396420D01*
X160767820Y-73111288D01*
X160549859Y-72892946D01*
X160375132Y-72820393D01*
X160361659Y-72748790D01*
X160257519Y-72586953D01*
X160098620Y-72478382D01*
X159910000Y-72440185D01*
X157334815Y-72440185D01*
X157334815Y-71909815D01*
X159910000Y-71909815D01*
X160086210Y-71876659D01*
X160248047Y-71772519D01*
X160356618Y-71613620D01*
X160373509Y-71530212D01*
X160548712Y-71457820D01*
X160767054Y-71239859D01*
X160885365Y-70954933D01*
X160885634Y-70646420D01*
X160767820Y-70361288D01*
X160549859Y-70142946D01*
X160375132Y-70070393D01*
X160361659Y-69998790D01*
X160257519Y-69836953D01*
X160254390Y-69834815D01*
X161200000Y-69834815D01*
X161303672Y-69815308D01*
X161400000Y-69834815D01*
X162400000Y-69834815D01*
X162529590Y-69810431D01*
X162650000Y-69834815D01*
X165650000Y-69834815D01*
X165753672Y-69815308D01*
X165850000Y-69834815D01*
X166850000Y-69834815D01*
X166979590Y-69810431D01*
X167100000Y-69834815D01*
X167100000Y-69834815D01*
G37*
X167100000Y-69834815D02*
X170100000Y-69834815D01*
X170203672Y-69815308D01*
X170300000Y-69834815D01*
X170965185Y-69834815D01*
X170965185Y-71000000D01*
X170998341Y-71176210D01*
X171012441Y-71198122D01*
X171003382Y-71211380D01*
X170965185Y-71400000D01*
X170965185Y-74400000D01*
X170998341Y-74576210D01*
X170999891Y-74578619D01*
X170965185Y-74750000D01*
X170965185Y-77750000D01*
X170998341Y-77926210D01*
X171012441Y-77948122D01*
X171003382Y-77961380D01*
X170965185Y-78150000D01*
X170965185Y-81150000D01*
X170998341Y-81326210D01*
X170999891Y-81328619D01*
X170965185Y-81500000D01*
X170965185Y-82665185D01*
X170300000Y-82665185D01*
X170196328Y-82684692D01*
X170100000Y-82665185D01*
X167100000Y-82665185D01*
X166970410Y-82689569D01*
X166850000Y-82665185D01*
X165850000Y-82665185D01*
X165746328Y-82684692D01*
X165650000Y-82665185D01*
X162650000Y-82665185D01*
X162520410Y-82689569D01*
X162400000Y-82665185D01*
X161400000Y-82665185D01*
X161296328Y-82684692D01*
X161200000Y-82665185D01*
X160550327Y-82665185D01*
X160593500Y-82560957D01*
X160593500Y-82049375D01*
X160422625Y-81878500D01*
X158488500Y-81878500D01*
X158488500Y-81898500D01*
X158331500Y-81898500D01*
X158331500Y-81878500D01*
X158311500Y-81878500D01*
X158311500Y-81721500D01*
X158331500Y-81721500D01*
X158331500Y-80662375D01*
X158488500Y-80662375D01*
X158488500Y-81721500D01*
X160422625Y-81721500D01*
X160593500Y-81550625D01*
X160593500Y-81039043D01*
X160489443Y-80787828D01*
X160297171Y-80595556D01*
X160045956Y-80491500D01*
X158659375Y-80491500D01*
X158488500Y-80662375D01*
X158331500Y-80662375D01*
X158160625Y-80491500D01*
X157334815Y-80491500D01*
X157334815Y-80159815D01*
X159910000Y-80159815D01*
X160086210Y-80126659D01*
X160248047Y-80022519D01*
X160270036Y-79990337D01*
X160632347Y-80352648D01*
X160632349Y-80352651D01*
X160833346Y-80486953D01*
X160851497Y-80499081D01*
X161110000Y-80550500D01*
X161532806Y-80550500D01*
X161558341Y-80686210D01*
X161662481Y-80848047D01*
X161821380Y-80956618D01*
X162010000Y-80994815D01*
X162980000Y-80994815D01*
X163140692Y-80964579D01*
X163290000Y-80994815D01*
X164260000Y-80994815D01*
X164436210Y-80961659D01*
X164598047Y-80857519D01*
X164620266Y-80825000D01*
X166875185Y-80825000D01*
X166875185Y-81575000D01*
X166908341Y-81751210D01*
X167012481Y-81913047D01*
X167171380Y-82021618D01*
X167360000Y-82059815D01*
X168160000Y-82059815D01*
X168336210Y-82026659D01*
X168498047Y-81922519D01*
X168508619Y-81907046D01*
X168512481Y-81913047D01*
X168671380Y-82021618D01*
X168860000Y-82059815D01*
X169660000Y-82059815D01*
X169836210Y-82026659D01*
X169998047Y-81922519D01*
X170106618Y-81763620D01*
X170144815Y-81575000D01*
X170144815Y-80825000D01*
X170111659Y-80648790D01*
X170007519Y-80486953D01*
X169935500Y-80437745D01*
X169935500Y-78817705D01*
X170006618Y-78713620D01*
X170044815Y-78525000D01*
X170044815Y-78125000D01*
X170041933Y-78109682D01*
X170139443Y-78012172D01*
X170243500Y-77760957D01*
X170243500Y-77674375D01*
X170072625Y-77503500D01*
X169338500Y-77503500D01*
X169338500Y-77523500D01*
X169181500Y-77523500D01*
X169181500Y-77503500D01*
X169161500Y-77503500D01*
X169161500Y-77346500D01*
X169181500Y-77346500D01*
X169181500Y-76712375D01*
X169338500Y-76712375D01*
X169338500Y-77346500D01*
X170072625Y-77346500D01*
X170243500Y-77175625D01*
X170243500Y-77089043D01*
X170139443Y-76837828D01*
X169947171Y-76645556D01*
X169695956Y-76541500D01*
X169509375Y-76541500D01*
X169338500Y-76712375D01*
X169181500Y-76712375D01*
X169010625Y-76541500D01*
X168824044Y-76541500D01*
X168572829Y-76645556D01*
X168380557Y-76837828D01*
X168311431Y-77004713D01*
X168199859Y-76892946D01*
X167914933Y-76774635D01*
X167606420Y-76774366D01*
X167321288Y-76892180D01*
X167102946Y-77110141D01*
X166984635Y-77395067D01*
X166984366Y-77703580D01*
X167084500Y-77945923D01*
X167084500Y-80437233D01*
X167021953Y-80477481D01*
X166913382Y-80636380D01*
X166875185Y-80825000D01*
X164620266Y-80825000D01*
X164706618Y-80698620D01*
X164744815Y-80510000D01*
X164744815Y-79240000D01*
X164711659Y-79063790D01*
X164607519Y-78901953D01*
X164450500Y-78794667D01*
X164450500Y-77439802D01*
X164858037Y-77032265D01*
X165098712Y-76932820D01*
X165317054Y-76714859D01*
X165435365Y-76429933D01*
X165435634Y-76121420D01*
X165317820Y-75836288D01*
X165099859Y-75617946D01*
X164857692Y-75517390D01*
X164450500Y-75110198D01*
X164450500Y-73802464D01*
X164598047Y-73707519D01*
X164706618Y-73548620D01*
X164744815Y-73360000D01*
X164744815Y-72953580D01*
X165284366Y-72953580D01*
X165402180Y-73238712D01*
X165620141Y-73457054D01*
X165905067Y-73575365D01*
X166213580Y-73575634D01*
X166498712Y-73457820D01*
X166717054Y-73239859D01*
X166754366Y-73150000D01*
X166875185Y-73150000D01*
X166875185Y-73900000D01*
X166908341Y-74076210D01*
X167012481Y-74238047D01*
X167084500Y-74287255D01*
X167084500Y-74604564D01*
X166984635Y-74845067D01*
X166984366Y-75153580D01*
X167102180Y-75438712D01*
X167320141Y-75657054D01*
X167605067Y-75775365D01*
X167913580Y-75775634D01*
X168198712Y-75657820D01*
X168417054Y-75439859D01*
X168535365Y-75154933D01*
X168535634Y-74846420D01*
X168435500Y-74604077D01*
X168435500Y-74442115D01*
X168472828Y-74479443D01*
X168724043Y-74583500D01*
X169010625Y-74583500D01*
X169181500Y-74412625D01*
X169181500Y-73603500D01*
X169338500Y-73603500D01*
X169338500Y-74412625D01*
X169509375Y-74583500D01*
X169795957Y-74583500D01*
X170047172Y-74479443D01*
X170239444Y-74287171D01*
X170343500Y-74035956D01*
X170343500Y-73774375D01*
X170172625Y-73603500D01*
X169338500Y-73603500D01*
X169181500Y-73603500D01*
X169161500Y-73603500D01*
X169161500Y-73446500D01*
X169181500Y-73446500D01*
X169181500Y-72637375D01*
X169338500Y-72637375D01*
X169338500Y-73446500D01*
X170172625Y-73446500D01*
X170343500Y-73275625D01*
X170343500Y-73014044D01*
X170239444Y-72762829D01*
X170047172Y-72570557D01*
X169795957Y-72466500D01*
X169509375Y-72466500D01*
X169338500Y-72637375D01*
X169181500Y-72637375D01*
X169010625Y-72466500D01*
X168724043Y-72466500D01*
X168472828Y-72570557D01*
X168341454Y-72701931D01*
X168160000Y-72665185D01*
X167360000Y-72665185D01*
X167183790Y-72698341D01*
X167021953Y-72802481D01*
X166913382Y-72961380D01*
X166875185Y-73150000D01*
X166754366Y-73150000D01*
X166835365Y-72954933D01*
X166835634Y-72646420D01*
X166735500Y-72404077D01*
X166735500Y-72004802D01*
X166739801Y-72000500D01*
X166988320Y-72000500D01*
X167012481Y-72038047D01*
X167171380Y-72146618D01*
X167360000Y-72184815D01*
X168160000Y-72184815D01*
X168336210Y-72151659D01*
X168341585Y-72148200D01*
X168472828Y-72279443D01*
X168724043Y-72383500D01*
X169010625Y-72383500D01*
X169181500Y-72212625D01*
X169181500Y-71403500D01*
X169338500Y-71403500D01*
X169338500Y-72212625D01*
X169509375Y-72383500D01*
X169795957Y-72383500D01*
X170047172Y-72279443D01*
X170239444Y-72087171D01*
X170343500Y-71835956D01*
X170343500Y-71574375D01*
X170172625Y-71403500D01*
X169338500Y-71403500D01*
X169181500Y-71403500D01*
X169161500Y-71403500D01*
X169161500Y-71246500D01*
X169181500Y-71246500D01*
X169181500Y-70437375D01*
X169338500Y-70437375D01*
X169338500Y-71246500D01*
X170172625Y-71246500D01*
X170343500Y-71075625D01*
X170343500Y-70814044D01*
X170239444Y-70562829D01*
X170047172Y-70370557D01*
X169795957Y-70266500D01*
X169509375Y-70266500D01*
X169338500Y-70437375D01*
X169181500Y-70437375D01*
X169010625Y-70266500D01*
X168724043Y-70266500D01*
X168472828Y-70370557D01*
X168341454Y-70501931D01*
X168160000Y-70465185D01*
X167360000Y-70465185D01*
X167183790Y-70498341D01*
X167021953Y-70602481D01*
X166989826Y-70649500D01*
X166460000Y-70649500D01*
X166201497Y-70700919D01*
X165982349Y-70847349D01*
X165982347Y-70847352D01*
X165582349Y-71247349D01*
X165435919Y-71466497D01*
X165384499Y-71725000D01*
X165384500Y-71725005D01*
X165384500Y-72404564D01*
X165284635Y-72645067D01*
X165284366Y-72953580D01*
X164744815Y-72953580D01*
X164744815Y-72090000D01*
X164711659Y-71913790D01*
X164607519Y-71751953D01*
X164448620Y-71643382D01*
X164260000Y-71605185D01*
X163290000Y-71605185D01*
X163129308Y-71635421D01*
X162980000Y-71605185D01*
X162010000Y-71605185D01*
X161833790Y-71638341D01*
X161671953Y-71742481D01*
X161563382Y-71901380D01*
X161525185Y-72090000D01*
X161525185Y-73360000D01*
X161558341Y-73536210D01*
X161662481Y-73698047D01*
X161819500Y-73805333D01*
X161819500Y-75685199D01*
X160768627Y-76736072D01*
X160885365Y-76454933D01*
X160885634Y-76146420D01*
X160767820Y-75861288D01*
X160549859Y-75642946D01*
X160375132Y-75570393D01*
X160361659Y-75498790D01*
X160257519Y-75336953D01*
X160098620Y-75228382D01*
X159910000Y-75190185D01*
X157334815Y-75190185D01*
X157334815Y-74750000D01*
X157317846Y-74659815D01*
X159910000Y-74659815D01*
X160086210Y-74626659D01*
X160248047Y-74522519D01*
X160356618Y-74363620D01*
X160373509Y-74280212D01*
X160548712Y-74207820D01*
X160767054Y-73989859D01*
X160885365Y-73704933D01*
X160885634Y-73396420D01*
X160767820Y-73111288D01*
X160549859Y-72892946D01*
X160375132Y-72820393D01*
X160361659Y-72748790D01*
X160257519Y-72586953D01*
X160098620Y-72478382D01*
X159910000Y-72440185D01*
X157334815Y-72440185D01*
X157334815Y-71909815D01*
X159910000Y-71909815D01*
X160086210Y-71876659D01*
X160248047Y-71772519D01*
X160356618Y-71613620D01*
X160373509Y-71530212D01*
X160548712Y-71457820D01*
X160767054Y-71239859D01*
X160885365Y-70954933D01*
X160885634Y-70646420D01*
X160767820Y-70361288D01*
X160549859Y-70142946D01*
X160375132Y-70070393D01*
X160361659Y-69998790D01*
X160257519Y-69836953D01*
X160254390Y-69834815D01*
X161200000Y-69834815D01*
X161303672Y-69815308D01*
X161400000Y-69834815D01*
X162400000Y-69834815D01*
X162529590Y-69810431D01*
X162650000Y-69834815D01*
X165650000Y-69834815D01*
X165753672Y-69815308D01*
X165850000Y-69834815D01*
X166850000Y-69834815D01*
X166979590Y-69810431D01*
X167100000Y-69834815D01*
M02*
