M48
;DRILL file {KiCad 4.0.7-e2-6376~58~ubuntu16.04.1} date Fri Aug  3 20:43:42 2018
;FORMAT={-:-/ absolute / metric / decimal}
FMAT,2
METRIC,TZ
T1C0.300
T2C0.400
T3C0.800
%
G90
G05
M71
T1
X156.8Y-69.3
X156.8Y-83.2
X171.5Y-69.3
X171.5Y-83.2
T2
X111.55Y-50.37
X111.55Y-60.4
X111.65Y-70.05
X113.46Y-63.93
X113.48Y-53.78
X113.6Y-73.69
X114.76Y-59.81
X114.77Y-49.74
X114.84Y-69.43
X116.01Y-60.29
X116.02Y-50.25
X116.1Y-69.95
X116.64Y-53.93
X116.75Y-63.97
X116.75Y-73.59
X117.49Y-59.82
X117.52Y-49.89
X117.55Y-69.57
X120.65Y-102.83
X120.65Y-113.23
X121.63Y-108.
X122.2Y-98.09
X122.77Y-106.75
X123.3Y-50.37
X123.35Y-60.45
X123.37Y-70.11
X123.82Y-97.94
X123.87Y-115.51
X123.96Y-101.62
X123.97Y-109.24
X123.97Y-117.19
X124.84Y-93.91
X125.21Y-53.8
X125.23Y-63.99
X125.29Y-73.68
X126.325Y-122.325
X126.41Y-116.51
X126.49Y-49.8
X126.52Y-59.84
X126.61Y-69.48
X126.82Y-96.6
X127.49Y-103.08
X127.75Y-50.28
X127.77Y-60.35
X127.85Y-70.01
X128.08Y-91.56
X128.35Y-106.525
X128.4Y-53.93
X128.49Y-63.98
X128.5Y-73.66
X129.24Y-49.76
X129.24Y-59.87
X129.33Y-92.43
X129.34Y-120.97
X129.35Y-69.56
X129.75Y-111.63
X130.17Y-103.38
X130.58Y-122.04
X131.49Y-101.76
X131.82Y-102.99
X131.83Y-119.77
X132.825Y-102.95
X133.1Y-90.5
X133.93Y-102.99
X134.Y-111.64
X134.57Y-123.06
X134.95Y-60.45
X135.01Y-70.1
X135.11Y-50.43
X136.11Y-93.59
X136.94Y-64.09
X136.965Y-73.48
X136.97Y-54.01
X137.07Y-104.45
X137.36Y-91.56
X137.75Y-103.81
X138.17Y-59.81
X138.215Y-69.555
X138.31Y-49.8
X138.61Y-92.43
X138.61Y-120.97
X139.42Y-60.34
X139.465Y-69.68
X139.56Y-50.33
X139.86Y-119.78
X139.86Y-122.04
X140.17Y-64.
X140.215Y-73.655
X140.28Y-53.98
X140.91Y-59.79
X140.95Y-69.47
X141.05Y-49.84
X142.225Y-109.375
X142.32Y-90.5
X143.6Y-93.59
X144.05Y-123.06
X146.63Y-91.56
X146.75Y-60.45
X146.8Y-50.44
X147.89Y-92.43
X147.89Y-120.96
X148.66Y-64.12
X148.81Y-54.13
X149.14Y-122.04
X149.95Y-59.83
X150.01Y-49.81
X150.37Y-117.1
X150.62Y-108.69
X150.97Y-96.83
X151.02Y-90.39
X151.19Y-60.35
X151.26Y-50.33
X151.94Y-64.
X151.99Y-54.01
X152.18Y-119.78
X152.63Y-59.87
X152.78Y-49.9
X153.26Y-96.32
X153.425Y-103.425
X153.43Y-113.98
X153.49Y-115.65
X153.52Y-97.82
X154.57Y-106.75
X155.01Y-115.4
X155.5Y-105.5
X156.57Y-99.93
X156.57Y-110.66
X158.54Y-50.42
X158.55Y-60.45
X160.11Y-70.8
X160.11Y-73.55
X160.11Y-76.3
X160.11Y-81.8
X160.46Y-64.1
X160.49Y-53.93
X160.785Y-77.675
X161.73Y-59.83
X161.74Y-49.83
X162.98Y-60.37
X163.Y-50.34
X163.73Y-64.03
X163.74Y-53.97
X164.46Y-59.84
X164.47Y-49.81
X164.66Y-76.275
X165.01Y-78.15
X166.06Y-72.8
X167.76Y-75.
X167.76Y-77.55
X170.28Y-50.37
X170.3Y-60.45
X172.22Y-63.96
X172.285Y-53.795
X173.485Y-49.77
X173.51Y-59.82
X174.735Y-49.995
X174.75Y-60.33
X175.42Y-64.
X175.485Y-53.92
X176.22Y-49.76
X176.22Y-59.86
T3
X129.6Y-95.75
X129.6Y-117.75
X131.6Y-95.75
X131.6Y-117.75
X133.6Y-95.75
X133.6Y-117.75
X135.6Y-95.75
X135.6Y-117.75
X137.6Y-95.75
X137.6Y-117.75
X139.6Y-95.75
X139.6Y-117.75
X141.6Y-95.75
X141.6Y-117.75
X143.6Y-95.75
X143.6Y-117.75
X145.6Y-95.75
X145.6Y-117.75
X147.6Y-95.75
X147.6Y-117.75
T1
X110.65Y-49.25G85X110.65Y-50.75
G05
X110.65Y-51.75G85X110.65Y-52.25
G05
X110.65Y-53.25G85X110.65Y-54.75
G05
X110.65Y-59.3G85X110.65Y-60.8
G05
X110.65Y-61.8G85X110.65Y-62.3
G05
X110.65Y-63.3G85X110.65Y-64.8
G05
X110.66Y-68.96G85X110.66Y-70.46
G05
X110.66Y-71.46G85X110.66Y-71.96
G05
X110.66Y-72.96G85X110.66Y-74.46
G05
X111.1Y-48.8G85X112.6Y-48.8
G05
X111.1Y-55.2G85X112.6Y-55.2
G05
X111.1Y-58.85G85X112.6Y-58.85
G05
X111.1Y-65.25G85X112.6Y-65.25
G05
X111.11Y-68.51G85X112.61Y-68.51
G05
X111.11Y-74.91G85X112.61Y-74.91
G05
X113.3Y-48.8G85X113.3Y-48.8
G05
X113.3Y-55.2G85X113.3Y-55.2
G05
X113.3Y-58.85G85X113.3Y-58.85
G05
X113.3Y-65.25G85X113.3Y-65.25
G05
X113.31Y-68.51G85X113.31Y-68.51
G05
X113.31Y-74.91G85X113.31Y-74.91
G05
X114.Y-48.8G85X115.5Y-48.8
G05
X114.Y-55.2G85X115.5Y-55.2
G05
X114.Y-58.85G85X115.5Y-58.85
G05
X114.Y-65.25G85X115.5Y-65.25
G05
X114.01Y-68.51G85X115.51Y-68.51
G05
X114.01Y-74.91G85X115.51Y-74.91
G05
X116.2Y-48.8G85X116.2Y-48.8
G05
X116.2Y-55.2G85X116.2Y-55.2
G05
X116.2Y-58.85G85X116.2Y-58.85
G05
X116.2Y-65.25G85X116.2Y-65.25
G05
X116.21Y-68.51G85X116.21Y-68.51
G05
X116.21Y-74.91G85X116.21Y-74.91
G05
X116.9Y-48.8G85X118.4Y-48.8
G05
X116.9Y-55.2G85X118.4Y-55.2
G05
X116.9Y-58.85G85X118.4Y-58.85
G05
X116.9Y-65.25G85X118.4Y-65.25
G05
X116.91Y-68.51G85X118.41Y-68.51
G05
X116.91Y-74.91G85X118.41Y-74.91
G05
X118.85Y-49.25G85X118.85Y-50.75
G05
X118.85Y-51.75G85X118.85Y-52.25
G05
X118.85Y-53.25G85X118.85Y-54.75
G05
X118.85Y-59.3G85X118.85Y-60.8
G05
X118.85Y-61.8G85X118.85Y-62.3
G05
X118.85Y-63.3G85X118.85Y-64.8
G05
X118.86Y-68.96G85X118.86Y-70.46
G05
X118.86Y-71.46G85X118.86Y-71.96
G05
X118.86Y-72.96G85X118.86Y-74.46
G05
X122.4Y-49.25G85X122.4Y-50.75
G05
X122.4Y-51.75G85X122.4Y-52.25
G05
X122.4Y-53.25G85X122.4Y-54.75
G05
X122.4Y-59.3G85X122.4Y-60.8
G05
X122.4Y-61.8G85X122.4Y-62.3
G05
X122.4Y-63.3G85X122.4Y-64.8
G05
X122.4Y-68.95G85X122.4Y-70.45
G05
X122.4Y-71.45G85X122.4Y-71.95
G05
X122.4Y-72.95G85X122.4Y-74.45
G05
X122.85Y-48.8G85X124.35Y-48.8
G05
X122.85Y-55.2G85X124.35Y-55.2
G05
X122.85Y-58.85G85X124.35Y-58.85
G05
X122.85Y-65.25G85X124.35Y-65.25
G05
X122.85Y-68.5G85X124.35Y-68.5
G05
X122.85Y-74.9G85X124.35Y-74.9
G05
X125.05Y-48.8G85X125.05Y-48.8
G05
X125.05Y-55.2G85X125.05Y-55.2
G05
X125.05Y-58.85G85X125.05Y-58.85
G05
X125.05Y-65.25G85X125.05Y-65.25
G05
X125.05Y-68.5G85X125.05Y-68.5
G05
X125.05Y-74.9G85X125.05Y-74.9
G05
X125.75Y-48.8G85X127.25Y-48.8
G05
X125.75Y-55.2G85X127.25Y-55.2
G05
X125.75Y-58.85G85X127.25Y-58.85
G05
X125.75Y-65.25G85X127.25Y-65.25
G05
X125.75Y-68.5G85X127.25Y-68.5
G05
X125.75Y-74.9G85X127.25Y-74.9
G05
X127.95Y-48.8G85X127.95Y-48.8
G05
X127.95Y-55.2G85X127.95Y-55.2
G05
X127.95Y-58.85G85X127.95Y-58.85
G05
X127.95Y-65.25G85X127.95Y-65.25
G05
X127.95Y-68.5G85X127.95Y-68.5
G05
X127.95Y-74.9G85X127.95Y-74.9
G05
X128.65Y-48.8G85X130.15Y-48.8
G05
X128.65Y-55.2G85X130.15Y-55.2
G05
X128.65Y-58.85G85X130.15Y-58.85
G05
X128.65Y-65.25G85X130.15Y-65.25
G05
X128.65Y-68.5G85X130.15Y-68.5
G05
X128.65Y-74.9G85X130.15Y-74.9
G05
X130.6Y-49.25G85X130.6Y-50.75
G05
X130.6Y-51.75G85X130.6Y-52.25
G05
X130.6Y-53.25G85X130.6Y-54.75
G05
X130.6Y-59.3G85X130.6Y-60.8
G05
X130.6Y-61.8G85X130.6Y-62.3
G05
X130.6Y-63.3G85X130.6Y-64.8
G05
X130.6Y-68.95G85X130.6Y-70.45
G05
X130.6Y-71.45G85X130.6Y-71.95
G05
X130.6Y-72.95G85X130.6Y-74.45
G05
X134.13Y-68.96G85X134.13Y-70.46
G05
X134.13Y-71.46G85X134.13Y-71.96
G05
X134.13Y-72.96G85X134.13Y-74.46
G05
X134.15Y-49.25G85X134.15Y-50.75
G05
X134.15Y-51.75G85X134.15Y-52.25
G05
X134.15Y-53.25G85X134.15Y-54.75
G05
X134.15Y-59.3G85X134.15Y-60.8
G05
X134.15Y-61.8G85X134.15Y-62.3
G05
X134.15Y-63.3G85X134.15Y-64.8
G05
X134.58Y-68.51G85X136.08Y-68.51
G05
X134.58Y-74.91G85X136.08Y-74.91
G05
X134.6Y-48.8G85X136.1Y-48.8
G05
X134.6Y-55.2G85X136.1Y-55.2
G05
X134.6Y-58.85G85X136.1Y-58.85
G05
X134.6Y-65.25G85X136.1Y-65.25
G05
X136.78Y-68.51G85X136.78Y-68.51
G05
X136.78Y-74.91G85X136.78Y-74.91
G05
X136.8Y-48.8G85X136.8Y-48.8
G05
X136.8Y-55.2G85X136.8Y-55.2
G05
X136.8Y-58.85G85X136.8Y-58.85
G05
X136.8Y-65.25G85X136.8Y-65.25
G05
X137.48Y-68.51G85X138.98Y-68.51
G05
X137.48Y-74.91G85X138.98Y-74.91
G05
X137.5Y-48.8G85X139.Y-48.8
G05
X137.5Y-55.2G85X139.Y-55.2
G05
X137.5Y-58.85G85X139.Y-58.85
G05
X137.5Y-65.25G85X139.Y-65.25
G05
X139.68Y-68.51G85X139.68Y-68.51
G05
X139.68Y-74.91G85X139.68Y-74.91
G05
X139.7Y-48.8G85X139.7Y-48.8
G05
X139.7Y-55.2G85X139.7Y-55.2
G05
X139.7Y-58.85G85X139.7Y-58.85
G05
X139.7Y-65.25G85X139.7Y-65.25
G05
X140.38Y-68.51G85X141.88Y-68.51
G05
X140.38Y-74.91G85X141.88Y-74.91
G05
X140.4Y-48.8G85X141.9Y-48.8
G05
X140.4Y-55.2G85X141.9Y-55.2
G05
X140.4Y-58.85G85X141.9Y-58.85
G05
X140.4Y-65.25G85X141.9Y-65.25
G05
X142.33Y-68.96G85X142.33Y-70.46
G05
X142.33Y-71.46G85X142.33Y-71.96
G05
X142.33Y-72.96G85X142.33Y-74.46
G05
X142.35Y-49.25G85X142.35Y-50.75
G05
X142.35Y-51.75G85X142.35Y-52.25
G05
X142.35Y-53.25G85X142.35Y-54.75
G05
X142.35Y-59.3G85X142.35Y-60.8
G05
X142.35Y-61.8G85X142.35Y-62.3
G05
X142.35Y-63.3G85X142.35Y-64.8
G05
X145.9Y-49.25G85X145.9Y-50.75
G05
X145.9Y-51.75G85X145.9Y-52.25
G05
X145.9Y-53.25G85X145.9Y-54.75
G05
X145.9Y-59.3G85X145.9Y-60.8
G05
X145.9Y-61.8G85X145.9Y-62.3
G05
X145.9Y-63.3G85X145.9Y-64.8
G05
X146.35Y-48.8G85X147.85Y-48.8
G05
X146.35Y-55.2G85X147.85Y-55.2
G05
X146.35Y-58.85G85X147.85Y-58.85
G05
X146.35Y-65.25G85X147.85Y-65.25
G05
X148.55Y-48.8G85X148.55Y-48.8
G05
X148.55Y-55.2G85X148.55Y-55.2
G05
X148.55Y-58.85G85X148.55Y-58.85
G05
X148.55Y-65.25G85X148.55Y-65.25
G05
X149.25Y-48.8G85X150.75Y-48.8
G05
X149.25Y-55.2G85X150.75Y-55.2
G05
X149.25Y-58.85G85X150.75Y-58.85
G05
X149.25Y-65.25G85X150.75Y-65.25
G05
X151.45Y-48.8G85X151.45Y-48.8
G05
X151.45Y-55.2G85X151.45Y-55.2
G05
X151.45Y-58.85G85X151.45Y-58.85
G05
X151.45Y-65.25G85X151.45Y-65.25
G05
X152.15Y-48.8G85X153.65Y-48.8
G05
X152.15Y-55.2G85X153.65Y-55.2
G05
X152.15Y-58.85G85X153.65Y-58.85
G05
X152.15Y-65.25G85X153.65Y-65.25
G05
X154.1Y-49.25G85X154.1Y-50.75
G05
X154.1Y-51.75G85X154.1Y-52.25
G05
X154.1Y-53.25G85X154.1Y-54.75
G05
X154.1Y-59.3G85X154.1Y-60.8
G05
X154.1Y-61.8G85X154.1Y-62.3
G05
X154.1Y-63.3G85X154.1Y-64.8
G05
X156.65Y-70.8G85X156.65Y-69.7
G05
X156.65Y-74.2G85X156.65Y-71.6
G05
X156.65Y-77.55G85X156.65Y-74.95
G05
X156.65Y-80.95G85X156.65Y-78.35
G05
X156.65Y-82.8G85X156.65Y-81.7
G05
X157.2Y-69.15G85X157.8Y-69.15
G05
X157.2Y-83.35G85X157.8Y-83.35
G05
X157.65Y-49.25G85X157.65Y-50.75
G05
X157.65Y-51.75G85X157.65Y-52.25
G05
X157.65Y-53.25G85X157.65Y-54.75
G05
X157.65Y-59.3G85X157.65Y-60.8
G05
X157.65Y-61.8G85X157.65Y-62.3
G05
X157.65Y-63.3G85X157.65Y-64.8
G05
X158.1Y-48.8G85X159.6Y-48.8
G05
X158.1Y-55.2G85X159.6Y-55.2
G05
X158.1Y-58.85G85X159.6Y-58.85
G05
X158.1Y-65.25G85X159.6Y-65.25
G05
X158.4Y-69.15G85X161.Y-69.15
G05
X158.4Y-83.35G85X161.Y-83.35
G05
X160.3Y-48.8G85X160.3Y-48.8
G05
X160.3Y-55.2G85X160.3Y-55.2
G05
X160.3Y-58.85G85X160.3Y-58.85
G05
X160.3Y-65.25G85X160.3Y-65.25
G05
X161.Y-48.8G85X162.5Y-48.8
G05
X161.Y-55.2G85X162.5Y-55.2
G05
X161.Y-58.85G85X162.5Y-58.85
G05
X161.Y-65.25G85X162.5Y-65.25
G05
X161.6Y-69.15G85X162.2Y-69.15
G05
X161.6Y-83.35G85X162.2Y-83.35
G05
X163.2Y-48.8G85X163.2Y-48.8
G05
X163.2Y-55.2G85X163.2Y-55.2
G05
X163.2Y-58.85G85X163.2Y-58.85
G05
X163.2Y-65.25G85X163.2Y-65.25
G05
X162.85Y-69.15G85X165.45Y-69.15
G05
X162.85Y-83.35G85X165.45Y-83.35
G05
X163.9Y-48.8G85X165.4Y-48.8
G05
X163.9Y-55.2G85X165.4Y-55.2
G05
X163.9Y-58.85G85X165.4Y-58.85
G05
X163.9Y-65.25G85X165.4Y-65.25
G05
X165.85Y-49.25G85X165.85Y-50.75
G05
X165.85Y-51.75G85X165.85Y-52.25
G05
X165.85Y-53.25G85X165.85Y-54.75
G05
X165.85Y-59.3G85X165.85Y-60.8
G05
X165.85Y-61.8G85X165.85Y-62.3
G05
X165.85Y-63.3G85X165.85Y-64.8
G05
X166.05Y-69.15G85X166.65Y-69.15
G05
X166.05Y-83.35G85X166.65Y-83.35
G05
X167.3Y-69.15G85X169.9Y-69.15
G05
X167.3Y-83.35G85X169.9Y-83.35
G05
X169.4Y-49.25G85X169.4Y-50.75
G05
X169.4Y-51.75G85X169.4Y-52.25
G05
X169.4Y-53.25G85X169.4Y-54.75
G05
X169.4Y-59.3G85X169.4Y-60.8
G05
X169.4Y-61.8G85X169.4Y-62.3
G05
X169.4Y-63.3G85X169.4Y-64.8
G05
X169.85Y-48.8G85X171.35Y-48.8
G05
X169.85Y-55.2G85X171.35Y-55.2
G05
X169.85Y-58.85G85X171.35Y-58.85
G05
X169.85Y-65.25G85X171.35Y-65.25
G05
X170.5Y-69.15G85X171.1Y-69.15
G05
X170.5Y-83.35G85X171.1Y-83.35
G05
X171.65Y-70.8G85X171.65Y-69.7
G05
X171.65Y-74.2G85X171.65Y-71.6
G05
X171.65Y-77.55G85X171.65Y-74.95
G05
X171.65Y-80.95G85X171.65Y-78.35
G05
X171.65Y-82.8G85X171.65Y-81.7
G05
X172.05Y-48.8G85X172.05Y-48.8
G05
X172.05Y-55.2G85X172.05Y-55.2
G05
X172.05Y-58.85G85X172.05Y-58.85
G05
X172.05Y-65.25G85X172.05Y-65.25
G05
X172.75Y-48.8G85X174.25Y-48.8
G05
X172.75Y-55.2G85X174.25Y-55.2
G05
X172.75Y-58.85G85X174.25Y-58.85
G05
X172.75Y-65.25G85X174.25Y-65.25
G05
X174.95Y-48.8G85X174.95Y-48.8
G05
X174.95Y-55.2G85X174.95Y-55.2
G05
X174.95Y-58.85G85X174.95Y-58.85
G05
X174.95Y-65.25G85X174.95Y-65.25
G05
X175.65Y-48.8G85X177.15Y-48.8
G05
X175.65Y-55.2G85X177.15Y-55.2
G05
X175.65Y-58.85G85X177.15Y-58.85
G05
X175.65Y-65.25G85X177.15Y-65.25
G05
X177.6Y-49.25G85X177.6Y-50.75
G05
X177.6Y-51.75G85X177.6Y-52.25
G05
X177.6Y-53.25G85X177.6Y-54.75
G05
X177.6Y-59.3G85X177.6Y-60.8
G05
X177.6Y-61.8G85X177.6Y-62.3
G05
X177.6Y-63.3G85X177.6Y-64.8
G05
T0
M30
