M48
;DRILL file {KiCad 4.0.7-e2-6376~58~ubuntu16.04.1} date Mon Aug  6 19:30:21 2018
;FORMAT={-:-/ absolute / metric / decimal}
FMAT,2
METRIC,TZ
T1C0.400
T2C0.800
%
G90
G05
M71
T1
X120.65Y-102.83
X120.65Y-113.23
X121.63Y-108.
X122.2Y-98.09
X122.77Y-106.75
X123.82Y-97.94
X123.87Y-115.51
X123.96Y-101.62
X123.97Y-109.24
X123.97Y-117.19
X124.84Y-93.91
X126.325Y-122.325
X126.41Y-116.51
X126.82Y-96.6
X128.Y-109.6
X128.08Y-91.56
X129.33Y-92.43
X129.34Y-120.97
X130.58Y-122.04
X131.83Y-119.77
X133.1Y-90.5
X133.725Y-105.825
X133.825Y-102.275
X134.57Y-123.06
X135.125Y-100.95
X136.11Y-93.59
X136.6Y-100.925
X137.36Y-91.56
X138.45Y-104.525
X138.61Y-92.43
X138.61Y-120.97
X139.825Y-111.125
X139.86Y-119.78
X139.86Y-122.04
X142.32Y-90.5
X143.6Y-93.59
X144.05Y-123.06
X144.975Y-105.35
X144.975Y-108.125
X146.3Y-101.225
X146.3Y-106.725
X146.3Y-112.225
X146.63Y-91.56
X147.89Y-92.43
X147.89Y-120.96
X149.14Y-122.04
X150.37Y-117.1
X150.97Y-96.83
X151.02Y-90.39
X151.675Y-99.75
X152.18Y-119.78
X153.26Y-96.32
X153.425Y-103.425
X153.43Y-113.98
X153.49Y-115.65
X153.52Y-97.82
X154.57Y-106.75
X155.01Y-115.4
X155.5Y-105.5
X156.57Y-99.93
X156.57Y-110.66
T2
X129.6Y-95.75
X129.6Y-117.75
X131.6Y-95.75
X131.6Y-117.75
X133.6Y-95.75
X133.6Y-117.75
X135.6Y-95.75
X135.6Y-117.75
X137.6Y-95.75
X137.6Y-117.75
X139.6Y-95.75
X139.6Y-117.75
X141.6Y-95.75
X141.6Y-117.75
X143.6Y-95.75
X143.6Y-117.75
X145.6Y-95.75
X145.6Y-117.75
X147.6Y-95.75
X147.6Y-117.75
T0
M30
