G04 #@! TF.FileFunction,Legend,Bot*
%FSLAX46Y46*%
G04 Gerber Fmt 4.6, Leading zero omitted, Abs format (unit mm)*
G04 Created by KiCad (PCBNEW 4.0.7-e2-6376~58~ubuntu16.04.1) date Mon Aug  6 19:30:18 2018*
%MOMM*%
%LPD*%
G01*
G04 APERTURE LIST*
%ADD10C,0.100000*%
%ADD11C,0.125000*%
%ADD12C,0.200000*%
%ADD13C,0.250000*%
%ADD14C,0.150000*%
%ADD15C,0.120000*%
G04 APERTURE END LIST*
D10*
D11*
X145836190Y-108997620D02*
X145336190Y-108997620D01*
X145836190Y-109235715D02*
X145336190Y-109235715D01*
X145836190Y-109521429D01*
X145336190Y-109521429D01*
X145336190Y-109688096D02*
X145336190Y-109973810D01*
X145836190Y-109830953D02*
X145336190Y-109830953D01*
X145812381Y-106134762D02*
X145836190Y-106206191D01*
X145836190Y-106325238D01*
X145812381Y-106372857D01*
X145788571Y-106396667D01*
X145740952Y-106420476D01*
X145693333Y-106420476D01*
X145645714Y-106396667D01*
X145621905Y-106372857D01*
X145598095Y-106325238D01*
X145574286Y-106230000D01*
X145550476Y-106182381D01*
X145526667Y-106158572D01*
X145479048Y-106134762D01*
X145431429Y-106134762D01*
X145383810Y-106158572D01*
X145360000Y-106182381D01*
X145336190Y-106230000D01*
X145336190Y-106349048D01*
X145360000Y-106420476D01*
X145788571Y-106920476D02*
X145812381Y-106896666D01*
X145836190Y-106825238D01*
X145836190Y-106777619D01*
X145812381Y-106706190D01*
X145764762Y-106658571D01*
X145717143Y-106634762D01*
X145621905Y-106610952D01*
X145550476Y-106610952D01*
X145455238Y-106634762D01*
X145407619Y-106658571D01*
X145360000Y-106706190D01*
X145336190Y-106777619D01*
X145336190Y-106825238D01*
X145360000Y-106896666D01*
X145383810Y-106920476D01*
X145836190Y-107372857D02*
X145836190Y-107134762D01*
X145336190Y-107134762D01*
X145792381Y-103342858D02*
X145816190Y-103414287D01*
X145816190Y-103533334D01*
X145792381Y-103580953D01*
X145768571Y-103604763D01*
X145720952Y-103628572D01*
X145673333Y-103628572D01*
X145625714Y-103604763D01*
X145601905Y-103580953D01*
X145578095Y-103533334D01*
X145554286Y-103438096D01*
X145530476Y-103390477D01*
X145506667Y-103366668D01*
X145459048Y-103342858D01*
X145411429Y-103342858D01*
X145363810Y-103366668D01*
X145340000Y-103390477D01*
X145316190Y-103438096D01*
X145316190Y-103557144D01*
X145340000Y-103628572D01*
X145816190Y-103842858D02*
X145316190Y-103842858D01*
X145316190Y-103961905D01*
X145340000Y-104033334D01*
X145387619Y-104080953D01*
X145435238Y-104104762D01*
X145530476Y-104128572D01*
X145601905Y-104128572D01*
X145697143Y-104104762D01*
X145744762Y-104080953D01*
X145792381Y-104033334D01*
X145816190Y-103961905D01*
X145816190Y-103842858D01*
X145673333Y-104319048D02*
X145673333Y-104557143D01*
X145816190Y-104271429D02*
X145316190Y-104438096D01*
X145816190Y-104604762D01*
D12*
X119840000Y-101270000D02*
X119840000Y-101340000D01*
X118170000Y-99600000D02*
X119840000Y-101270000D01*
X118190000Y-99580000D02*
X118170000Y-99600000D01*
X125330000Y-92440000D02*
X118190000Y-99580000D01*
X125330000Y-89690000D02*
X125330000Y-92440000D01*
X151850000Y-89690000D02*
X125330000Y-89690000D01*
X151850000Y-89700000D02*
X151850000Y-89690000D01*
X151850000Y-92420000D02*
X151850000Y-89700000D01*
X159040000Y-99610000D02*
X151850000Y-92420000D01*
X157370000Y-101280000D02*
X159040000Y-99610000D01*
X157370000Y-112260000D02*
X157370000Y-101280000D01*
X159040000Y-113930000D02*
X157370000Y-112260000D01*
X159030000Y-113940000D02*
X159040000Y-113930000D01*
X151720000Y-121250000D02*
X159030000Y-113940000D01*
X151720000Y-123800000D02*
X151720000Y-121250000D01*
X125440000Y-123800000D02*
X151720000Y-123800000D01*
X125440000Y-123790000D02*
X125440000Y-123800000D01*
X125440000Y-121200000D02*
X125440000Y-123790000D01*
X118150000Y-113910000D02*
X125440000Y-121200000D01*
X119840000Y-112220000D02*
X118150000Y-113910000D01*
X119840000Y-101350000D02*
X119840000Y-112220000D01*
D11*
X121011904Y-97846190D02*
X120964285Y-97846190D01*
X120916666Y-97870000D01*
X120892857Y-97893810D01*
X120869047Y-97941429D01*
X120845238Y-98036667D01*
X120845238Y-98155714D01*
X120869047Y-98250952D01*
X120892857Y-98298571D01*
X120916666Y-98322381D01*
X120964285Y-98346190D01*
X121011904Y-98346190D01*
X121059523Y-98322381D01*
X121083333Y-98298571D01*
X121107142Y-98250952D01*
X121130952Y-98155714D01*
X121130952Y-98036667D01*
X121107142Y-97941429D01*
X121083333Y-97893810D01*
X121059523Y-97870000D01*
X121011904Y-97846190D01*
X120607143Y-98346190D02*
X120511905Y-98346190D01*
X120464286Y-98322381D01*
X120440476Y-98298571D01*
X120392857Y-98227143D01*
X120369048Y-98131905D01*
X120369048Y-97941429D01*
X120392857Y-97893810D01*
X120416667Y-97870000D01*
X120464286Y-97846190D01*
X120559524Y-97846190D01*
X120607143Y-97870000D01*
X120630952Y-97893810D01*
X120654762Y-97941429D01*
X120654762Y-98060476D01*
X120630952Y-98108095D01*
X120607143Y-98131905D01*
X120559524Y-98155714D01*
X120464286Y-98155714D01*
X120416667Y-98131905D01*
X120392857Y-98108095D01*
X120369048Y-98060476D01*
X120851904Y-108816190D02*
X120804285Y-108816190D01*
X120756666Y-108840000D01*
X120732857Y-108863810D01*
X120709047Y-108911429D01*
X120685238Y-109006667D01*
X120685238Y-109125714D01*
X120709047Y-109220952D01*
X120732857Y-109268571D01*
X120756666Y-109292381D01*
X120804285Y-109316190D01*
X120851904Y-109316190D01*
X120899523Y-109292381D01*
X120923333Y-109268571D01*
X120947142Y-109220952D01*
X120970952Y-109125714D01*
X120970952Y-109006667D01*
X120947142Y-108911429D01*
X120923333Y-108863810D01*
X120899523Y-108840000D01*
X120851904Y-108816190D01*
X120399524Y-109030476D02*
X120447143Y-109006667D01*
X120470952Y-108982857D01*
X120494762Y-108935238D01*
X120494762Y-108911429D01*
X120470952Y-108863810D01*
X120447143Y-108840000D01*
X120399524Y-108816190D01*
X120304286Y-108816190D01*
X120256667Y-108840000D01*
X120232857Y-108863810D01*
X120209048Y-108911429D01*
X120209048Y-108935238D01*
X120232857Y-108982857D01*
X120256667Y-109006667D01*
X120304286Y-109030476D01*
X120399524Y-109030476D01*
X120447143Y-109054286D01*
X120470952Y-109078095D01*
X120494762Y-109125714D01*
X120494762Y-109220952D01*
X120470952Y-109268571D01*
X120447143Y-109292381D01*
X120399524Y-109316190D01*
X120304286Y-109316190D01*
X120256667Y-109292381D01*
X120232857Y-109268571D01*
X120209048Y-109220952D01*
X120209048Y-109125714D01*
X120232857Y-109078095D01*
X120256667Y-109054286D01*
X120304286Y-109030476D01*
X121001904Y-115166190D02*
X120954285Y-115166190D01*
X120906666Y-115190000D01*
X120882857Y-115213810D01*
X120859047Y-115261429D01*
X120835238Y-115356667D01*
X120835238Y-115475714D01*
X120859047Y-115570952D01*
X120882857Y-115618571D01*
X120906666Y-115642381D01*
X120954285Y-115666190D01*
X121001904Y-115666190D01*
X121049523Y-115642381D01*
X121073333Y-115618571D01*
X121097142Y-115570952D01*
X121120952Y-115475714D01*
X121120952Y-115356667D01*
X121097142Y-115261429D01*
X121073333Y-115213810D01*
X121049523Y-115190000D01*
X121001904Y-115166190D01*
X120668571Y-115166190D02*
X120335238Y-115166190D01*
X120549524Y-115666190D01*
X131911904Y-122746190D02*
X131864285Y-122746190D01*
X131816666Y-122770000D01*
X131792857Y-122793810D01*
X131769047Y-122841429D01*
X131745238Y-122936667D01*
X131745238Y-123055714D01*
X131769047Y-123150952D01*
X131792857Y-123198571D01*
X131816666Y-123222381D01*
X131864285Y-123246190D01*
X131911904Y-123246190D01*
X131959523Y-123222381D01*
X131983333Y-123198571D01*
X132007142Y-123150952D01*
X132030952Y-123055714D01*
X132030952Y-122936667D01*
X132007142Y-122841429D01*
X131983333Y-122793810D01*
X131959523Y-122770000D01*
X131911904Y-122746190D01*
X131316667Y-122746190D02*
X131411905Y-122746190D01*
X131459524Y-122770000D01*
X131483333Y-122793810D01*
X131530952Y-122865238D01*
X131554762Y-122960476D01*
X131554762Y-123150952D01*
X131530952Y-123198571D01*
X131507143Y-123222381D01*
X131459524Y-123246190D01*
X131364286Y-123246190D01*
X131316667Y-123222381D01*
X131292857Y-123198571D01*
X131269048Y-123150952D01*
X131269048Y-123031905D01*
X131292857Y-122984286D01*
X131316667Y-122960476D01*
X131364286Y-122936667D01*
X131459524Y-122936667D01*
X131507143Y-122960476D01*
X131530952Y-122984286D01*
X131554762Y-123031905D01*
X141191904Y-122776190D02*
X141144285Y-122776190D01*
X141096666Y-122800000D01*
X141072857Y-122823810D01*
X141049047Y-122871429D01*
X141025238Y-122966667D01*
X141025238Y-123085714D01*
X141049047Y-123180952D01*
X141072857Y-123228571D01*
X141096666Y-123252381D01*
X141144285Y-123276190D01*
X141191904Y-123276190D01*
X141239523Y-123252381D01*
X141263333Y-123228571D01*
X141287142Y-123180952D01*
X141310952Y-123085714D01*
X141310952Y-122966667D01*
X141287142Y-122871429D01*
X141263333Y-122823810D01*
X141239523Y-122800000D01*
X141191904Y-122776190D01*
X140572857Y-122776190D02*
X140810952Y-122776190D01*
X140834762Y-123014286D01*
X140810952Y-122990476D01*
X140763333Y-122966667D01*
X140644286Y-122966667D01*
X140596667Y-122990476D01*
X140572857Y-123014286D01*
X140549048Y-123061905D01*
X140549048Y-123180952D01*
X140572857Y-123228571D01*
X140596667Y-123252381D01*
X140644286Y-123276190D01*
X140763333Y-123276190D01*
X140810952Y-123252381D01*
X140834762Y-123228571D01*
X150501904Y-122796190D02*
X150454285Y-122796190D01*
X150406666Y-122820000D01*
X150382857Y-122843810D01*
X150359047Y-122891429D01*
X150335238Y-122986667D01*
X150335238Y-123105714D01*
X150359047Y-123200952D01*
X150382857Y-123248571D01*
X150406666Y-123272381D01*
X150454285Y-123296190D01*
X150501904Y-123296190D01*
X150549523Y-123272381D01*
X150573333Y-123248571D01*
X150597142Y-123200952D01*
X150620952Y-123105714D01*
X150620952Y-122986667D01*
X150597142Y-122891429D01*
X150573333Y-122843810D01*
X150549523Y-122820000D01*
X150501904Y-122796190D01*
X149906667Y-122962857D02*
X149906667Y-123296190D01*
X150025714Y-122772381D02*
X150144762Y-123129524D01*
X149835238Y-123129524D01*
X156781904Y-115116190D02*
X156734285Y-115116190D01*
X156686666Y-115140000D01*
X156662857Y-115163810D01*
X156639047Y-115211429D01*
X156615238Y-115306667D01*
X156615238Y-115425714D01*
X156639047Y-115520952D01*
X156662857Y-115568571D01*
X156686666Y-115592381D01*
X156734285Y-115616190D01*
X156781904Y-115616190D01*
X156829523Y-115592381D01*
X156853333Y-115568571D01*
X156877142Y-115520952D01*
X156900952Y-115425714D01*
X156900952Y-115306667D01*
X156877142Y-115211429D01*
X156853333Y-115163810D01*
X156829523Y-115140000D01*
X156781904Y-115116190D01*
X156448571Y-115116190D02*
X156139048Y-115116190D01*
X156305714Y-115306667D01*
X156234286Y-115306667D01*
X156186667Y-115330476D01*
X156162857Y-115354286D01*
X156139048Y-115401905D01*
X156139048Y-115520952D01*
X156162857Y-115568571D01*
X156186667Y-115592381D01*
X156234286Y-115616190D01*
X156377143Y-115616190D01*
X156424762Y-115592381D01*
X156448571Y-115568571D01*
X156786904Y-104151190D02*
X156739285Y-104151190D01*
X156691666Y-104175000D01*
X156667857Y-104198810D01*
X156644047Y-104246429D01*
X156620238Y-104341667D01*
X156620238Y-104460714D01*
X156644047Y-104555952D01*
X156667857Y-104603571D01*
X156691666Y-104627381D01*
X156739285Y-104651190D01*
X156786904Y-104651190D01*
X156834523Y-104627381D01*
X156858333Y-104603571D01*
X156882142Y-104555952D01*
X156905952Y-104460714D01*
X156905952Y-104341667D01*
X156882142Y-104246429D01*
X156858333Y-104198810D01*
X156834523Y-104175000D01*
X156786904Y-104151190D01*
X156429762Y-104198810D02*
X156405952Y-104175000D01*
X156358333Y-104151190D01*
X156239286Y-104151190D01*
X156191667Y-104175000D01*
X156167857Y-104198810D01*
X156144048Y-104246429D01*
X156144048Y-104294048D01*
X156167857Y-104365476D01*
X156453571Y-104651190D01*
X156144048Y-104651190D01*
X153541904Y-94586190D02*
X153494285Y-94586190D01*
X153446666Y-94610000D01*
X153422857Y-94633810D01*
X153399047Y-94681429D01*
X153375238Y-94776667D01*
X153375238Y-94895714D01*
X153399047Y-94990952D01*
X153422857Y-95038571D01*
X153446666Y-95062381D01*
X153494285Y-95086190D01*
X153541904Y-95086190D01*
X153589523Y-95062381D01*
X153613333Y-95038571D01*
X153637142Y-94990952D01*
X153660952Y-94895714D01*
X153660952Y-94776667D01*
X153637142Y-94681429D01*
X153613333Y-94633810D01*
X153589523Y-94610000D01*
X153541904Y-94586190D01*
X152899048Y-95086190D02*
X153184762Y-95086190D01*
X153041905Y-95086190D02*
X153041905Y-94586190D01*
X153089524Y-94657619D01*
X153137143Y-94705238D01*
X153184762Y-94729048D01*
X145715238Y-90666190D02*
X146000952Y-90666190D01*
X145858095Y-90666190D02*
X145858095Y-90166190D01*
X145905714Y-90237619D01*
X145953333Y-90285238D01*
X146000952Y-90309048D01*
X145524762Y-90213810D02*
X145500952Y-90190000D01*
X145453333Y-90166190D01*
X145334286Y-90166190D01*
X145286667Y-90190000D01*
X145262857Y-90213810D01*
X145239048Y-90261429D01*
X145239048Y-90309048D01*
X145262857Y-90380476D01*
X145548571Y-90666190D01*
X145239048Y-90666190D01*
X136405238Y-90616190D02*
X136690952Y-90616190D01*
X136548095Y-90616190D02*
X136548095Y-90116190D01*
X136595714Y-90187619D01*
X136643333Y-90235238D01*
X136690952Y-90259048D01*
X135929048Y-90616190D02*
X136214762Y-90616190D01*
X136071905Y-90616190D02*
X136071905Y-90116190D01*
X136119524Y-90187619D01*
X136167143Y-90235238D01*
X136214762Y-90259048D01*
X127155238Y-90606190D02*
X127440952Y-90606190D01*
X127298095Y-90606190D02*
X127298095Y-90106190D01*
X127345714Y-90177619D01*
X127393333Y-90225238D01*
X127440952Y-90249048D01*
X126845714Y-90106190D02*
X126798095Y-90106190D01*
X126750476Y-90130000D01*
X126726667Y-90153810D01*
X126702857Y-90201429D01*
X126679048Y-90296667D01*
X126679048Y-90415714D01*
X126702857Y-90510952D01*
X126726667Y-90558571D01*
X126750476Y-90582381D01*
X126798095Y-90606190D01*
X126845714Y-90606190D01*
X126893333Y-90582381D01*
X126917143Y-90558571D01*
X126940952Y-90510952D01*
X126964762Y-90415714D01*
X126964762Y-90296667D01*
X126940952Y-90201429D01*
X126917143Y-90153810D01*
X126893333Y-90130000D01*
X126845714Y-90106190D01*
D13*
X139022381Y-104030475D02*
X139022381Y-104220952D01*
X139070000Y-104316190D01*
X139165238Y-104411428D01*
X139355714Y-104459047D01*
X139689048Y-104459047D01*
X139879524Y-104411428D01*
X139974762Y-104316190D01*
X140022381Y-104220952D01*
X140022381Y-104030475D01*
X139974762Y-103935237D01*
X139879524Y-103839999D01*
X139689048Y-103792380D01*
X139355714Y-103792380D01*
X139165238Y-103839999D01*
X139070000Y-103935237D01*
X139022381Y-104030475D01*
X140022381Y-104887618D02*
X139022381Y-104887618D01*
X139403333Y-104887618D02*
X139355714Y-104982856D01*
X139355714Y-105173333D01*
X139403333Y-105268571D01*
X139450952Y-105316190D01*
X139546190Y-105363809D01*
X139831905Y-105363809D01*
X139927143Y-105316190D01*
X139974762Y-105268571D01*
X140022381Y-105173333D01*
X140022381Y-104982856D01*
X139974762Y-104887618D01*
X139974762Y-105744761D02*
X140022381Y-105839999D01*
X140022381Y-106030475D01*
X139974762Y-106125714D01*
X139879524Y-106173333D01*
X139831905Y-106173333D01*
X139736667Y-106125714D01*
X139689048Y-106030475D01*
X139689048Y-105887618D01*
X139641429Y-105792380D01*
X139546190Y-105744761D01*
X139498571Y-105744761D01*
X139403333Y-105792380D01*
X139355714Y-105887618D01*
X139355714Y-106030475D01*
X139403333Y-106125714D01*
X139355714Y-106459047D02*
X139355714Y-106839999D01*
X139022381Y-106601904D02*
X139879524Y-106601904D01*
X139974762Y-106649523D01*
X140022381Y-106744761D01*
X140022381Y-106839999D01*
X140022381Y-107601905D02*
X139498571Y-107601905D01*
X139403333Y-107554286D01*
X139355714Y-107459048D01*
X139355714Y-107268571D01*
X139403333Y-107173333D01*
X139974762Y-107601905D02*
X140022381Y-107506667D01*
X140022381Y-107268571D01*
X139974762Y-107173333D01*
X139879524Y-107125714D01*
X139784286Y-107125714D01*
X139689048Y-107173333D01*
X139641429Y-107268571D01*
X139641429Y-107506667D01*
X139593810Y-107601905D01*
X139974762Y-108506667D02*
X140022381Y-108411429D01*
X140022381Y-108220952D01*
X139974762Y-108125714D01*
X139927143Y-108078095D01*
X139831905Y-108030476D01*
X139546190Y-108030476D01*
X139450952Y-108078095D01*
X139403333Y-108125714D01*
X139355714Y-108220952D01*
X139355714Y-108411429D01*
X139403333Y-108506667D01*
X140022381Y-109078095D02*
X139974762Y-108982857D01*
X139879524Y-108935238D01*
X139022381Y-108935238D01*
X139974762Y-109840001D02*
X140022381Y-109744763D01*
X140022381Y-109554286D01*
X139974762Y-109459048D01*
X139879524Y-109411429D01*
X139498571Y-109411429D01*
X139403333Y-109459048D01*
X139355714Y-109554286D01*
X139355714Y-109744763D01*
X139403333Y-109840001D01*
X139498571Y-109887620D01*
X139593810Y-109887620D01*
X139689048Y-109411429D01*
X141486667Y-103316190D02*
X141486667Y-103792381D01*
X141772381Y-103220952D02*
X140772381Y-103554285D01*
X141772381Y-103887619D01*
X141105714Y-104125714D02*
X141772381Y-104363809D01*
X141105714Y-104601905D01*
X141772381Y-105125714D02*
X141724762Y-105030476D01*
X141677143Y-104982857D01*
X141581905Y-104935238D01*
X141296190Y-104935238D01*
X141200952Y-104982857D01*
X141153333Y-105030476D01*
X141105714Y-105125714D01*
X141105714Y-105268572D01*
X141153333Y-105363810D01*
X141200952Y-105411429D01*
X141296190Y-105459048D01*
X141581905Y-105459048D01*
X141677143Y-105411429D01*
X141724762Y-105363810D01*
X141772381Y-105268572D01*
X141772381Y-105125714D01*
X141772381Y-105887619D02*
X141105714Y-105887619D01*
X140772381Y-105887619D02*
X140820000Y-105840000D01*
X140867619Y-105887619D01*
X140820000Y-105935238D01*
X140772381Y-105887619D01*
X140867619Y-105887619D01*
X141772381Y-106792381D02*
X140772381Y-106792381D01*
X141724762Y-106792381D02*
X141772381Y-106697143D01*
X141772381Y-106506666D01*
X141724762Y-106411428D01*
X141677143Y-106363809D01*
X141581905Y-106316190D01*
X141296190Y-106316190D01*
X141200952Y-106363809D01*
X141153333Y-106411428D01*
X141105714Y-106506666D01*
X141105714Y-106697143D01*
X141153333Y-106792381D01*
X141772381Y-107697143D02*
X141248571Y-107697143D01*
X141153333Y-107649524D01*
X141105714Y-107554286D01*
X141105714Y-107363809D01*
X141153333Y-107268571D01*
X141724762Y-107697143D02*
X141772381Y-107601905D01*
X141772381Y-107363809D01*
X141724762Y-107268571D01*
X141629524Y-107220952D01*
X141534286Y-107220952D01*
X141439048Y-107268571D01*
X141391429Y-107363809D01*
X141391429Y-107601905D01*
X141343810Y-107697143D01*
X141105714Y-108173333D02*
X141772381Y-108173333D01*
X141200952Y-108173333D02*
X141153333Y-108220952D01*
X141105714Y-108316190D01*
X141105714Y-108459048D01*
X141153333Y-108554286D01*
X141248571Y-108601905D01*
X141772381Y-108601905D01*
X141724762Y-109506667D02*
X141772381Y-109411429D01*
X141772381Y-109220952D01*
X141724762Y-109125714D01*
X141677143Y-109078095D01*
X141581905Y-109030476D01*
X141296190Y-109030476D01*
X141200952Y-109078095D01*
X141153333Y-109125714D01*
X141105714Y-109220952D01*
X141105714Y-109411429D01*
X141153333Y-109506667D01*
X141724762Y-110316191D02*
X141772381Y-110220953D01*
X141772381Y-110030476D01*
X141724762Y-109935238D01*
X141629524Y-109887619D01*
X141248571Y-109887619D01*
X141153333Y-109935238D01*
X141105714Y-110030476D01*
X141105714Y-110220953D01*
X141153333Y-110316191D01*
X141248571Y-110363810D01*
X141343810Y-110363810D01*
X141439048Y-109887619D01*
X143522381Y-105316190D02*
X142522381Y-105316190D01*
X142522381Y-105554285D01*
X142570000Y-105697143D01*
X142665238Y-105792381D01*
X142760476Y-105840000D01*
X142950952Y-105887619D01*
X143093810Y-105887619D01*
X143284286Y-105840000D01*
X143379524Y-105792381D01*
X143474762Y-105697143D01*
X143522381Y-105554285D01*
X143522381Y-105316190D01*
X143474762Y-106697143D02*
X143522381Y-106601905D01*
X143522381Y-106411428D01*
X143474762Y-106316190D01*
X143379524Y-106268571D01*
X142998571Y-106268571D01*
X142903333Y-106316190D01*
X142855714Y-106411428D01*
X142855714Y-106601905D01*
X142903333Y-106697143D01*
X142998571Y-106744762D01*
X143093810Y-106744762D01*
X143189048Y-106268571D01*
X143474762Y-107601905D02*
X143522381Y-107506667D01*
X143522381Y-107316190D01*
X143474762Y-107220952D01*
X143427143Y-107173333D01*
X143331905Y-107125714D01*
X143046190Y-107125714D01*
X142950952Y-107173333D01*
X142903333Y-107220952D01*
X142855714Y-107316190D01*
X142855714Y-107506667D01*
X142903333Y-107601905D01*
X143522381Y-108030476D02*
X142522381Y-108030476D01*
X143141429Y-108125714D02*
X143522381Y-108411429D01*
X142855714Y-108411429D02*
X143236667Y-108030476D01*
D10*
X145600000Y-100928571D02*
X145623810Y-100952381D01*
X145695238Y-100976190D01*
X145742857Y-100976190D01*
X145814286Y-100952381D01*
X145861905Y-100904762D01*
X145885714Y-100857143D01*
X145909524Y-100761905D01*
X145909524Y-100690476D01*
X145885714Y-100595238D01*
X145861905Y-100547619D01*
X145814286Y-100500000D01*
X145742857Y-100476190D01*
X145695238Y-100476190D01*
X145623810Y-100500000D01*
X145600000Y-100523810D01*
X145171429Y-100976190D02*
X145171429Y-100714286D01*
X145195238Y-100666667D01*
X145242857Y-100642857D01*
X145338095Y-100642857D01*
X145385714Y-100666667D01*
X145171429Y-100952381D02*
X145219048Y-100976190D01*
X145338095Y-100976190D01*
X145385714Y-100952381D01*
X145409524Y-100904762D01*
X145409524Y-100857143D01*
X145385714Y-100809524D01*
X145338095Y-100785714D01*
X145219048Y-100785714D01*
X145171429Y-100761905D01*
X144933333Y-100976190D02*
X144933333Y-100642857D01*
X144933333Y-100690476D02*
X144909524Y-100666667D01*
X144861905Y-100642857D01*
X144790476Y-100642857D01*
X144742857Y-100666667D01*
X144719048Y-100714286D01*
X144719048Y-100976190D01*
X144719048Y-100714286D02*
X144695238Y-100666667D01*
X144647619Y-100642857D01*
X144576191Y-100642857D01*
X144528571Y-100666667D01*
X144504762Y-100714286D01*
X144504762Y-100976190D01*
X144076190Y-100952381D02*
X144123809Y-100976190D01*
X144219047Y-100976190D01*
X144266666Y-100952381D01*
X144290476Y-100904762D01*
X144290476Y-100714286D01*
X144266666Y-100666667D01*
X144219047Y-100642857D01*
X144123809Y-100642857D01*
X144076190Y-100666667D01*
X144052381Y-100714286D01*
X144052381Y-100761905D01*
X144290476Y-100809524D01*
X143838095Y-100976190D02*
X143838095Y-100642857D01*
X143838095Y-100738095D02*
X143814286Y-100690476D01*
X143790476Y-100666667D01*
X143742857Y-100642857D01*
X143695238Y-100642857D01*
X143314286Y-100976190D02*
X143314286Y-100714286D01*
X143338095Y-100666667D01*
X143385714Y-100642857D01*
X143480952Y-100642857D01*
X143528571Y-100666667D01*
X143314286Y-100952381D02*
X143361905Y-100976190D01*
X143480952Y-100976190D01*
X143528571Y-100952381D01*
X143552381Y-100904762D01*
X143552381Y-100857143D01*
X143528571Y-100809524D01*
X143480952Y-100785714D01*
X143361905Y-100785714D01*
X143314286Y-100761905D01*
X145266666Y-101326190D02*
X145099999Y-101826190D01*
X144933333Y-101326190D01*
X144480952Y-101778571D02*
X144504762Y-101802381D01*
X144576190Y-101826190D01*
X144623809Y-101826190D01*
X144695238Y-101802381D01*
X144742857Y-101754762D01*
X144766666Y-101707143D01*
X144790476Y-101611905D01*
X144790476Y-101540476D01*
X144766666Y-101445238D01*
X144742857Y-101397619D01*
X144695238Y-101350000D01*
X144623809Y-101326190D01*
X144576190Y-101326190D01*
X144504762Y-101350000D01*
X144480952Y-101373810D01*
X143980952Y-101778571D02*
X144004762Y-101802381D01*
X144076190Y-101826190D01*
X144123809Y-101826190D01*
X144195238Y-101802381D01*
X144242857Y-101754762D01*
X144266666Y-101707143D01*
X144290476Y-101611905D01*
X144290476Y-101540476D01*
X144266666Y-101445238D01*
X144242857Y-101397619D01*
X144195238Y-101350000D01*
X144123809Y-101326190D01*
X144076190Y-101326190D01*
X144004762Y-101350000D01*
X143980952Y-101373810D01*
X145675000Y-111953571D02*
X145698810Y-111977381D01*
X145770238Y-112001190D01*
X145817857Y-112001190D01*
X145889286Y-111977381D01*
X145936905Y-111929762D01*
X145960714Y-111882143D01*
X145984524Y-111786905D01*
X145984524Y-111715476D01*
X145960714Y-111620238D01*
X145936905Y-111572619D01*
X145889286Y-111525000D01*
X145817857Y-111501190D01*
X145770238Y-111501190D01*
X145698810Y-111525000D01*
X145675000Y-111548810D01*
X145246429Y-112001190D02*
X145246429Y-111739286D01*
X145270238Y-111691667D01*
X145317857Y-111667857D01*
X145413095Y-111667857D01*
X145460714Y-111691667D01*
X145246429Y-111977381D02*
X145294048Y-112001190D01*
X145413095Y-112001190D01*
X145460714Y-111977381D01*
X145484524Y-111929762D01*
X145484524Y-111882143D01*
X145460714Y-111834524D01*
X145413095Y-111810714D01*
X145294048Y-111810714D01*
X145246429Y-111786905D01*
X145008333Y-112001190D02*
X145008333Y-111667857D01*
X145008333Y-111715476D02*
X144984524Y-111691667D01*
X144936905Y-111667857D01*
X144865476Y-111667857D01*
X144817857Y-111691667D01*
X144794048Y-111739286D01*
X144794048Y-112001190D01*
X144794048Y-111739286D02*
X144770238Y-111691667D01*
X144722619Y-111667857D01*
X144651191Y-111667857D01*
X144603571Y-111691667D01*
X144579762Y-111739286D01*
X144579762Y-112001190D01*
X144151190Y-111977381D02*
X144198809Y-112001190D01*
X144294047Y-112001190D01*
X144341666Y-111977381D01*
X144365476Y-111929762D01*
X144365476Y-111739286D01*
X144341666Y-111691667D01*
X144294047Y-111667857D01*
X144198809Y-111667857D01*
X144151190Y-111691667D01*
X144127381Y-111739286D01*
X144127381Y-111786905D01*
X144365476Y-111834524D01*
X143913095Y-112001190D02*
X143913095Y-111667857D01*
X143913095Y-111763095D02*
X143889286Y-111715476D01*
X143865476Y-111691667D01*
X143817857Y-111667857D01*
X143770238Y-111667857D01*
X143389286Y-112001190D02*
X143389286Y-111739286D01*
X143413095Y-111691667D01*
X143460714Y-111667857D01*
X143555952Y-111667857D01*
X143603571Y-111691667D01*
X143389286Y-111977381D02*
X143436905Y-112001190D01*
X143555952Y-112001190D01*
X143603571Y-111977381D01*
X143627381Y-111929762D01*
X143627381Y-111882143D01*
X143603571Y-111834524D01*
X143555952Y-111810714D01*
X143436905Y-111810714D01*
X143389286Y-111786905D01*
X145055953Y-112375000D02*
X145103572Y-112351190D01*
X145175000Y-112351190D01*
X145246429Y-112375000D01*
X145294048Y-112422619D01*
X145317857Y-112470238D01*
X145341667Y-112565476D01*
X145341667Y-112636905D01*
X145317857Y-112732143D01*
X145294048Y-112779762D01*
X145246429Y-112827381D01*
X145175000Y-112851190D01*
X145127381Y-112851190D01*
X145055953Y-112827381D01*
X145032143Y-112803571D01*
X145032143Y-112636905D01*
X145127381Y-112636905D01*
X144817857Y-112851190D02*
X144817857Y-112351190D01*
X144532143Y-112851190D01*
X144532143Y-112351190D01*
X144294047Y-112851190D02*
X144294047Y-112351190D01*
X144175000Y-112351190D01*
X144103571Y-112375000D01*
X144055952Y-112422619D01*
X144032143Y-112470238D01*
X144008333Y-112565476D01*
X144008333Y-112636905D01*
X144032143Y-112732143D01*
X144055952Y-112779762D01*
X144103571Y-112827381D01*
X144175000Y-112851190D01*
X144294047Y-112851190D01*
D12*
X130700000Y-94550000D02*
X128300000Y-94550000D01*
X128300000Y-94550000D02*
X128300000Y-96950000D01*
X128300000Y-96950000D02*
X128700000Y-96950000D01*
X134700000Y-94550000D02*
X132500000Y-94550000D01*
X138700000Y-94550000D02*
X136500000Y-94550000D01*
X132700000Y-96950000D02*
X130500000Y-96950000D01*
X136700000Y-96950000D02*
X134500000Y-96950000D01*
X140500000Y-96950000D02*
X138500000Y-96950000D01*
X142700000Y-94550000D02*
X140500000Y-94550000D01*
X144700000Y-96950000D02*
X142300000Y-96950000D01*
X146700000Y-94550000D02*
X144500000Y-94550000D01*
X148900000Y-94550000D02*
X148500000Y-94550000D01*
X148900000Y-94550000D02*
X148900000Y-96950000D01*
X148900000Y-96950000D02*
X146500000Y-96950000D01*
D14*
X132330000Y-89690000D02*
X132330000Y-91190000D01*
X132330000Y-91190000D02*
X126330000Y-91190000D01*
X126330000Y-91190000D02*
X126330000Y-89690000D01*
X141610000Y-89720000D02*
X141610000Y-91220000D01*
X141610000Y-91220000D02*
X135610000Y-91220000D01*
X135610000Y-91220000D02*
X135610000Y-89720000D01*
X150880000Y-89700000D02*
X150880000Y-91200000D01*
X150880000Y-91200000D02*
X144880000Y-91200000D01*
X144880000Y-91200000D02*
X144880000Y-89700000D01*
X144890000Y-123800000D02*
X144890000Y-122300000D01*
X144890000Y-122300000D02*
X150890000Y-122300000D01*
X150890000Y-122300000D02*
X150890000Y-123800000D01*
X126320000Y-123740000D02*
X126320000Y-122240000D01*
X126320000Y-122240000D02*
X132320000Y-122240000D01*
X132320000Y-122240000D02*
X132320000Y-123740000D01*
X157515584Y-98077056D02*
X156454924Y-99137716D01*
X156454924Y-99137716D02*
X152212284Y-94895076D01*
X152212284Y-94895076D02*
X153272944Y-93834416D01*
X157320000Y-109750000D02*
X155820000Y-109750000D01*
X155820000Y-109750000D02*
X155820000Y-103750000D01*
X155820000Y-103750000D02*
X157320000Y-103750000D01*
X119860000Y-103760000D02*
X121360000Y-103760000D01*
X121360000Y-103760000D02*
X121360000Y-109760000D01*
X121360000Y-109760000D02*
X119860000Y-109760000D01*
X135600000Y-123800000D02*
X135600000Y-122300000D01*
X135600000Y-122300000D02*
X141600000Y-122300000D01*
X141600000Y-122300000D02*
X141600000Y-123800000D01*
X119684416Y-115482944D02*
X120745076Y-114422284D01*
X120745076Y-114422284D02*
X124987716Y-118664924D01*
X124987716Y-118664924D02*
X123927056Y-119725584D01*
X153292944Y-119695584D02*
X152232284Y-118634924D01*
X152232284Y-118634924D02*
X156474924Y-114392284D01*
X156474924Y-114392284D02*
X157535584Y-115452944D01*
X123947056Y-93824416D02*
X125007716Y-94885076D01*
X125007716Y-94885076D02*
X120765076Y-99127716D01*
X120765076Y-99127716D02*
X119704416Y-98067056D01*
D12*
X130700000Y-116550000D02*
X128300000Y-116550000D01*
X128300000Y-116550000D02*
X128300000Y-118950000D01*
X128300000Y-118950000D02*
X128700000Y-118950000D01*
X134700000Y-116550000D02*
X132500000Y-116550000D01*
X138700000Y-116550000D02*
X136500000Y-116550000D01*
X132700000Y-118950000D02*
X130500000Y-118950000D01*
X136700000Y-118950000D02*
X134500000Y-118950000D01*
X140500000Y-118950000D02*
X138500000Y-118950000D01*
X142700000Y-116550000D02*
X140500000Y-116550000D01*
X144700000Y-118950000D02*
X142300000Y-118950000D01*
X146700000Y-116550000D02*
X144500000Y-116550000D01*
X148900000Y-116550000D02*
X148500000Y-116550000D01*
X148900000Y-116550000D02*
X148900000Y-118950000D01*
X148900000Y-118950000D02*
X146500000Y-118950000D01*
D14*
X146600000Y-99925000D02*
X150000000Y-99925000D01*
X150000000Y-99925000D02*
X150000000Y-113325000D01*
X150000000Y-113325000D02*
X150000000Y-113425000D01*
X150000000Y-113425000D02*
X146500000Y-113425000D01*
X136875000Y-104425000D02*
X136850000Y-104425000D01*
X128825000Y-104425000D02*
X128850000Y-104425000D01*
X128825000Y-109075000D02*
X128850000Y-109075000D01*
X136925000Y-110150000D02*
X136925000Y-104425000D01*
X128825000Y-109075000D02*
X128825000Y-104425000D01*
D15*
X131725000Y-92730000D02*
X132725000Y-92730000D01*
X132725000Y-91370000D02*
X131725000Y-91370000D01*
X140825000Y-92705000D02*
X141825000Y-92705000D01*
X141825000Y-91345000D02*
X140825000Y-91345000D01*
X149375000Y-93030000D02*
X150375000Y-93030000D01*
X150375000Y-91670000D02*
X149375000Y-91670000D01*
X154545000Y-99350000D02*
X154545000Y-100350000D01*
X155905000Y-100350000D02*
X155905000Y-99350000D01*
X154045000Y-109675000D02*
X154045000Y-110675000D01*
X155405000Y-110675000D02*
X155405000Y-109675000D01*
X150895000Y-116850000D02*
X150895000Y-117850000D01*
X152255000Y-117850000D02*
X152255000Y-116850000D01*
X145625000Y-120645000D02*
X144625000Y-120645000D01*
X144625000Y-122005000D02*
X145625000Y-122005000D01*
X135550000Y-120745000D02*
X134550000Y-120745000D01*
X134550000Y-122105000D02*
X135550000Y-122105000D01*
X127825000Y-120420000D02*
X126825000Y-120420000D01*
X126825000Y-121780000D02*
X127825000Y-121780000D01*
X122905000Y-113600000D02*
X122905000Y-112600000D01*
X121545000Y-112600000D02*
X121545000Y-113600000D01*
X123430000Y-104500000D02*
X123430000Y-103500000D01*
X122070000Y-103500000D02*
X122070000Y-104500000D01*
X126180000Y-96275000D02*
X126180000Y-95275000D01*
X124820000Y-95275000D02*
X124820000Y-96275000D01*
X125625000Y-103850000D02*
X126325000Y-103850000D01*
X126325000Y-102650000D02*
X125625000Y-102650000D01*
D10*
X138766666Y-95576190D02*
X138766666Y-95933333D01*
X138790476Y-96004762D01*
X138838095Y-96052381D01*
X138909523Y-96076190D01*
X138957142Y-96076190D01*
X138552381Y-95623810D02*
X138528571Y-95600000D01*
X138480952Y-95576190D01*
X138361905Y-95576190D01*
X138314286Y-95600000D01*
X138290476Y-95623810D01*
X138266667Y-95671429D01*
X138266667Y-95719048D01*
X138290476Y-95790476D01*
X138576190Y-96076190D01*
X138266667Y-96076190D01*
X138076190Y-98076190D02*
X138314285Y-98076190D01*
X138314285Y-97576190D01*
X137909523Y-97814286D02*
X137742857Y-97814286D01*
X137671428Y-98076190D02*
X137909523Y-98076190D01*
X137909523Y-97576190D01*
X137671428Y-97576190D01*
X137290476Y-97814286D02*
X137457142Y-97814286D01*
X137457142Y-98076190D02*
X137457142Y-97576190D01*
X137219047Y-97576190D01*
X137100000Y-97576190D02*
X136814286Y-97576190D01*
X136957143Y-98076190D02*
X136957143Y-97576190D01*
X129595238Y-97876190D02*
X129880952Y-97876190D01*
X129738095Y-97876190D02*
X129738095Y-97376190D01*
X129785714Y-97447619D01*
X129833333Y-97495238D01*
X129880952Y-97519048D01*
X129285714Y-97376190D02*
X129238095Y-97376190D01*
X129190476Y-97400000D01*
X129166667Y-97423810D01*
X129142857Y-97471429D01*
X129119048Y-97566667D01*
X129119048Y-97685714D01*
X129142857Y-97780952D01*
X129166667Y-97828571D01*
X129190476Y-97852381D01*
X129238095Y-97876190D01*
X129285714Y-97876190D01*
X129333333Y-97852381D01*
X129357143Y-97828571D01*
X129380952Y-97780952D01*
X129404762Y-97685714D01*
X129404762Y-97566667D01*
X129380952Y-97471429D01*
X129357143Y-97423810D01*
X129333333Y-97400000D01*
X129285714Y-97376190D01*
X147557143Y-93976190D02*
X147842857Y-93976190D01*
X147700000Y-93976190D02*
X147700000Y-93476190D01*
X147747619Y-93547619D01*
X147795238Y-93595238D01*
X147842857Y-93619048D01*
X138766666Y-117576190D02*
X138766666Y-117933333D01*
X138790476Y-118004762D01*
X138838095Y-118052381D01*
X138909523Y-118076190D01*
X138957142Y-118076190D01*
X138266667Y-118076190D02*
X138552381Y-118076190D01*
X138409524Y-118076190D02*
X138409524Y-117576190D01*
X138457143Y-117647619D01*
X138504762Y-117695238D01*
X138552381Y-117719048D01*
X138241666Y-116076190D02*
X138408333Y-115838095D01*
X138527380Y-116076190D02*
X138527380Y-115576190D01*
X138336904Y-115576190D01*
X138289285Y-115600000D01*
X138265476Y-115623810D01*
X138241666Y-115671429D01*
X138241666Y-115742857D01*
X138265476Y-115790476D01*
X138289285Y-115814286D01*
X138336904Y-115838095D01*
X138527380Y-115838095D01*
X138027380Y-116076190D02*
X138027380Y-115576190D01*
X137527381Y-115600000D02*
X137575000Y-115576190D01*
X137646428Y-115576190D01*
X137717857Y-115600000D01*
X137765476Y-115647619D01*
X137789285Y-115695238D01*
X137813095Y-115790476D01*
X137813095Y-115861905D01*
X137789285Y-115957143D01*
X137765476Y-116004762D01*
X137717857Y-116052381D01*
X137646428Y-116076190D01*
X137598809Y-116076190D01*
X137527381Y-116052381D01*
X137503571Y-116028571D01*
X137503571Y-115861905D01*
X137598809Y-115861905D01*
X137289285Y-116076190D02*
X137289285Y-115576190D01*
X137289285Y-115814286D02*
X137003571Y-115814286D01*
X137003571Y-116076190D02*
X137003571Y-115576190D01*
X136836904Y-115576190D02*
X136551190Y-115576190D01*
X136694047Y-116076190D02*
X136694047Y-115576190D01*
X129695238Y-116076190D02*
X129980952Y-116076190D01*
X129838095Y-116076190D02*
X129838095Y-115576190D01*
X129885714Y-115647619D01*
X129933333Y-115695238D01*
X129980952Y-115719048D01*
X129385714Y-115576190D02*
X129338095Y-115576190D01*
X129290476Y-115600000D01*
X129266667Y-115623810D01*
X129242857Y-115671429D01*
X129219048Y-115766667D01*
X129219048Y-115885714D01*
X129242857Y-115980952D01*
X129266667Y-116028571D01*
X129290476Y-116052381D01*
X129338095Y-116076190D01*
X129385714Y-116076190D01*
X129433333Y-116052381D01*
X129457143Y-116028571D01*
X129480952Y-115980952D01*
X129504762Y-115885714D01*
X129504762Y-115766667D01*
X129480952Y-115671429D01*
X129457143Y-115623810D01*
X129433333Y-115600000D01*
X129385714Y-115576190D01*
X147457143Y-119976190D02*
X147742857Y-119976190D01*
X147600000Y-119976190D02*
X147600000Y-119476190D01*
X147647619Y-119547619D01*
X147695238Y-119595238D01*
X147742857Y-119619048D01*
D11*
X137276190Y-106669048D02*
X137680952Y-106669048D01*
X137728571Y-106692857D01*
X137752381Y-106716667D01*
X137776190Y-106764286D01*
X137776190Y-106859524D01*
X137752381Y-106907143D01*
X137728571Y-106930952D01*
X137680952Y-106954762D01*
X137276190Y-106954762D01*
X137323810Y-107169048D02*
X137300000Y-107192858D01*
X137276190Y-107240477D01*
X137276190Y-107359524D01*
X137300000Y-107407143D01*
X137323810Y-107430953D01*
X137371429Y-107454762D01*
X137419048Y-107454762D01*
X137490476Y-107430953D01*
X137776190Y-107145239D01*
X137776190Y-107454762D01*
X134258333Y-92351190D02*
X134425000Y-92113095D01*
X134544047Y-92351190D02*
X134544047Y-91851190D01*
X134353571Y-91851190D01*
X134305952Y-91875000D01*
X134282143Y-91898810D01*
X134258333Y-91946429D01*
X134258333Y-92017857D01*
X134282143Y-92065476D01*
X134305952Y-92089286D01*
X134353571Y-92113095D01*
X134544047Y-92113095D01*
X134067857Y-91898810D02*
X134044047Y-91875000D01*
X133996428Y-91851190D01*
X133877381Y-91851190D01*
X133829762Y-91875000D01*
X133805952Y-91898810D01*
X133782143Y-91946429D01*
X133782143Y-91994048D01*
X133805952Y-92065476D01*
X134091666Y-92351190D01*
X133782143Y-92351190D01*
X143308333Y-92351190D02*
X143475000Y-92113095D01*
X143594047Y-92351190D02*
X143594047Y-91851190D01*
X143403571Y-91851190D01*
X143355952Y-91875000D01*
X143332143Y-91898810D01*
X143308333Y-91946429D01*
X143308333Y-92017857D01*
X143332143Y-92065476D01*
X143355952Y-92089286D01*
X143403571Y-92113095D01*
X143594047Y-92113095D01*
X143141666Y-91851190D02*
X142832143Y-91851190D01*
X142998809Y-92041667D01*
X142927381Y-92041667D01*
X142879762Y-92065476D01*
X142855952Y-92089286D01*
X142832143Y-92136905D01*
X142832143Y-92255952D01*
X142855952Y-92303571D01*
X142879762Y-92327381D01*
X142927381Y-92351190D01*
X143070238Y-92351190D01*
X143117857Y-92327381D01*
X143141666Y-92303571D01*
X148083333Y-92526190D02*
X148250000Y-92288095D01*
X148369047Y-92526190D02*
X148369047Y-92026190D01*
X148178571Y-92026190D01*
X148130952Y-92050000D01*
X148107143Y-92073810D01*
X148083333Y-92121429D01*
X148083333Y-92192857D01*
X148107143Y-92240476D01*
X148130952Y-92264286D01*
X148178571Y-92288095D01*
X148369047Y-92288095D01*
X147630952Y-92026190D02*
X147869047Y-92026190D01*
X147892857Y-92264286D01*
X147869047Y-92240476D01*
X147821428Y-92216667D01*
X147702381Y-92216667D01*
X147654762Y-92240476D01*
X147630952Y-92264286D01*
X147607143Y-92311905D01*
X147607143Y-92430952D01*
X147630952Y-92478571D01*
X147654762Y-92502381D01*
X147702381Y-92526190D01*
X147821428Y-92526190D01*
X147869047Y-92502381D01*
X147892857Y-92478571D01*
X154301190Y-99716667D02*
X154063095Y-99550000D01*
X154301190Y-99430953D02*
X153801190Y-99430953D01*
X153801190Y-99621429D01*
X153825000Y-99669048D01*
X153848810Y-99692857D01*
X153896429Y-99716667D01*
X153967857Y-99716667D01*
X154015476Y-99692857D01*
X154039286Y-99669048D01*
X154063095Y-99621429D01*
X154063095Y-99430953D01*
X153801190Y-100145238D02*
X153801190Y-100050000D01*
X153825000Y-100002381D01*
X153848810Y-99978572D01*
X153920238Y-99930953D01*
X154015476Y-99907143D01*
X154205952Y-99907143D01*
X154253571Y-99930953D01*
X154277381Y-99954762D01*
X154301190Y-100002381D01*
X154301190Y-100097619D01*
X154277381Y-100145238D01*
X154253571Y-100169048D01*
X154205952Y-100192857D01*
X154086905Y-100192857D01*
X154039286Y-100169048D01*
X154015476Y-100145238D01*
X153991667Y-100097619D01*
X153991667Y-100002381D01*
X154015476Y-99954762D01*
X154039286Y-99930953D01*
X154086905Y-99907143D01*
X153776190Y-110066667D02*
X153538095Y-109900000D01*
X153776190Y-109780953D02*
X153276190Y-109780953D01*
X153276190Y-109971429D01*
X153300000Y-110019048D01*
X153323810Y-110042857D01*
X153371429Y-110066667D01*
X153442857Y-110066667D01*
X153490476Y-110042857D01*
X153514286Y-110019048D01*
X153538095Y-109971429D01*
X153538095Y-109780953D01*
X153276190Y-110233334D02*
X153276190Y-110566667D01*
X153776190Y-110352381D01*
X151901190Y-115366667D02*
X151663095Y-115200000D01*
X151901190Y-115080953D02*
X151401190Y-115080953D01*
X151401190Y-115271429D01*
X151425000Y-115319048D01*
X151448810Y-115342857D01*
X151496429Y-115366667D01*
X151567857Y-115366667D01*
X151615476Y-115342857D01*
X151639286Y-115319048D01*
X151663095Y-115271429D01*
X151663095Y-115080953D01*
X151615476Y-115652381D02*
X151591667Y-115604762D01*
X151567857Y-115580953D01*
X151520238Y-115557143D01*
X151496429Y-115557143D01*
X151448810Y-115580953D01*
X151425000Y-115604762D01*
X151401190Y-115652381D01*
X151401190Y-115747619D01*
X151425000Y-115795238D01*
X151448810Y-115819048D01*
X151496429Y-115842857D01*
X151520238Y-115842857D01*
X151567857Y-115819048D01*
X151591667Y-115795238D01*
X151615476Y-115747619D01*
X151615476Y-115652381D01*
X151639286Y-115604762D01*
X151663095Y-115580953D01*
X151710714Y-115557143D01*
X151805952Y-115557143D01*
X151853571Y-115580953D01*
X151877381Y-115604762D01*
X151901190Y-115652381D01*
X151901190Y-115747619D01*
X151877381Y-115795238D01*
X151853571Y-115819048D01*
X151805952Y-115842857D01*
X151710714Y-115842857D01*
X151663095Y-115819048D01*
X151639286Y-115795238D01*
X151615476Y-115747619D01*
X143233333Y-121536190D02*
X143400000Y-121298095D01*
X143519047Y-121536190D02*
X143519047Y-121036190D01*
X143328571Y-121036190D01*
X143280952Y-121060000D01*
X143257143Y-121083810D01*
X143233333Y-121131429D01*
X143233333Y-121202857D01*
X143257143Y-121250476D01*
X143280952Y-121274286D01*
X143328571Y-121298095D01*
X143519047Y-121298095D01*
X142995238Y-121536190D02*
X142900000Y-121536190D01*
X142852381Y-121512381D01*
X142828571Y-121488571D01*
X142780952Y-121417143D01*
X142757143Y-121321905D01*
X142757143Y-121131429D01*
X142780952Y-121083810D01*
X142804762Y-121060000D01*
X142852381Y-121036190D01*
X142947619Y-121036190D01*
X142995238Y-121060000D01*
X143019047Y-121083810D01*
X143042857Y-121131429D01*
X143042857Y-121250476D01*
X143019047Y-121298095D01*
X142995238Y-121321905D01*
X142947619Y-121345714D01*
X142852381Y-121345714D01*
X142804762Y-121321905D01*
X142780952Y-121298095D01*
X142757143Y-121250476D01*
X133231428Y-121596190D02*
X133398095Y-121358095D01*
X133517142Y-121596190D02*
X133517142Y-121096190D01*
X133326666Y-121096190D01*
X133279047Y-121120000D01*
X133255238Y-121143810D01*
X133231428Y-121191429D01*
X133231428Y-121262857D01*
X133255238Y-121310476D01*
X133279047Y-121334286D01*
X133326666Y-121358095D01*
X133517142Y-121358095D01*
X132755238Y-121596190D02*
X133040952Y-121596190D01*
X132898095Y-121596190D02*
X132898095Y-121096190D01*
X132945714Y-121167619D01*
X132993333Y-121215238D01*
X133040952Y-121239048D01*
X132445714Y-121096190D02*
X132398095Y-121096190D01*
X132350476Y-121120000D01*
X132326667Y-121143810D01*
X132302857Y-121191429D01*
X132279048Y-121286667D01*
X132279048Y-121405714D01*
X132302857Y-121500952D01*
X132326667Y-121548571D01*
X132350476Y-121572381D01*
X132398095Y-121596190D01*
X132445714Y-121596190D01*
X132493333Y-121572381D01*
X132517143Y-121548571D01*
X132540952Y-121500952D01*
X132564762Y-121405714D01*
X132564762Y-121286667D01*
X132540952Y-121191429D01*
X132517143Y-121143810D01*
X132493333Y-121120000D01*
X132445714Y-121096190D01*
X127596428Y-120076190D02*
X127763095Y-119838095D01*
X127882142Y-120076190D02*
X127882142Y-119576190D01*
X127691666Y-119576190D01*
X127644047Y-119600000D01*
X127620238Y-119623810D01*
X127596428Y-119671429D01*
X127596428Y-119742857D01*
X127620238Y-119790476D01*
X127644047Y-119814286D01*
X127691666Y-119838095D01*
X127882142Y-119838095D01*
X127120238Y-120076190D02*
X127405952Y-120076190D01*
X127263095Y-120076190D02*
X127263095Y-119576190D01*
X127310714Y-119647619D01*
X127358333Y-119695238D01*
X127405952Y-119719048D01*
X126644048Y-120076190D02*
X126929762Y-120076190D01*
X126786905Y-120076190D02*
X126786905Y-119576190D01*
X126834524Y-119647619D01*
X126882143Y-119695238D01*
X126929762Y-119719048D01*
X123676190Y-112703572D02*
X123438095Y-112536905D01*
X123676190Y-112417858D02*
X123176190Y-112417858D01*
X123176190Y-112608334D01*
X123200000Y-112655953D01*
X123223810Y-112679762D01*
X123271429Y-112703572D01*
X123342857Y-112703572D01*
X123390476Y-112679762D01*
X123414286Y-112655953D01*
X123438095Y-112608334D01*
X123438095Y-112417858D01*
X123676190Y-113179762D02*
X123676190Y-112894048D01*
X123676190Y-113036905D02*
X123176190Y-113036905D01*
X123247619Y-112989286D01*
X123295238Y-112941667D01*
X123319048Y-112894048D01*
X123223810Y-113370238D02*
X123200000Y-113394048D01*
X123176190Y-113441667D01*
X123176190Y-113560714D01*
X123200000Y-113608333D01*
X123223810Y-113632143D01*
X123271429Y-113655952D01*
X123319048Y-113655952D01*
X123390476Y-113632143D01*
X123676190Y-113346429D01*
X123676190Y-113655952D01*
X124151190Y-103728572D02*
X123913095Y-103561905D01*
X124151190Y-103442858D02*
X123651190Y-103442858D01*
X123651190Y-103633334D01*
X123675000Y-103680953D01*
X123698810Y-103704762D01*
X123746429Y-103728572D01*
X123817857Y-103728572D01*
X123865476Y-103704762D01*
X123889286Y-103680953D01*
X123913095Y-103633334D01*
X123913095Y-103442858D01*
X124151190Y-104204762D02*
X124151190Y-103919048D01*
X124151190Y-104061905D02*
X123651190Y-104061905D01*
X123722619Y-104014286D01*
X123770238Y-103966667D01*
X123794048Y-103919048D01*
X123651190Y-104371429D02*
X123651190Y-104680952D01*
X123841667Y-104514286D01*
X123841667Y-104585714D01*
X123865476Y-104633333D01*
X123889286Y-104657143D01*
X123936905Y-104680952D01*
X124055952Y-104680952D01*
X124103571Y-104657143D01*
X124127381Y-104633333D01*
X124151190Y-104585714D01*
X124151190Y-104442857D01*
X124127381Y-104395238D01*
X124103571Y-104371429D01*
X126876190Y-95378572D02*
X126638095Y-95211905D01*
X126876190Y-95092858D02*
X126376190Y-95092858D01*
X126376190Y-95283334D01*
X126400000Y-95330953D01*
X126423810Y-95354762D01*
X126471429Y-95378572D01*
X126542857Y-95378572D01*
X126590476Y-95354762D01*
X126614286Y-95330953D01*
X126638095Y-95283334D01*
X126638095Y-95092858D01*
X126876190Y-95854762D02*
X126876190Y-95569048D01*
X126876190Y-95711905D02*
X126376190Y-95711905D01*
X126447619Y-95664286D01*
X126495238Y-95616667D01*
X126519048Y-95569048D01*
X126542857Y-96283333D02*
X126876190Y-96283333D01*
X126352381Y-96164286D02*
X126709524Y-96045238D01*
X126709524Y-96354762D01*
X126043333Y-102238571D02*
X126067143Y-102262381D01*
X126138571Y-102286190D01*
X126186190Y-102286190D01*
X126257619Y-102262381D01*
X126305238Y-102214762D01*
X126329047Y-102167143D01*
X126352857Y-102071905D01*
X126352857Y-102000476D01*
X126329047Y-101905238D01*
X126305238Y-101857619D01*
X126257619Y-101810000D01*
X126186190Y-101786190D01*
X126138571Y-101786190D01*
X126067143Y-101810000D01*
X126043333Y-101833810D01*
X125567143Y-102286190D02*
X125852857Y-102286190D01*
X125710000Y-102286190D02*
X125710000Y-101786190D01*
X125757619Y-101857619D01*
X125805238Y-101905238D01*
X125852857Y-101929048D01*
M02*
