G04 #@! TF.FileFunction,Copper,L1,Top,Plane*
%FSLAX46Y46*%
G04 Gerber Fmt 4.6, Leading zero omitted, Abs format (unit mm)*
G04 Created by KiCad (PCBNEW 4.0.7-e2-6376~58~ubuntu16.04.1) date Mon Aug  6 19:30:18 2018*
%MOMM*%
%LPD*%
G01*
G04 APERTURE LIST*
%ADD10C,0.100000*%
%ADD11C,1.050000*%
%ADD12R,1.050000X1.050000*%
%ADD13R,0.500000X1.250000*%
%ADD14R,0.500000X0.500000*%
%ADD15R,0.250000X0.250000*%
%ADD16R,1.250000X0.500000*%
%ADD17R,0.900000X0.800000*%
%ADD18R,0.900000X0.500000*%
%ADD19R,0.800000X0.750000*%
%ADD20R,0.800000X0.800000*%
%ADD21C,0.600000*%
%ADD22C,0.250000*%
%ADD23C,0.500000*%
%ADD24C,0.300000*%
%ADD25C,0.400000*%
%ADD26C,0.351000*%
G04 APERTURE END LIST*
D10*
D11*
X129600000Y-95750000D03*
X145600000Y-95750000D03*
D12*
X147600000Y-95750000D03*
D11*
X133600000Y-95750000D03*
X131600000Y-95750000D03*
X143600000Y-95750000D03*
X141600000Y-95750000D03*
X135600000Y-95750000D03*
X137600000Y-95750000D03*
X139600000Y-95750000D03*
D13*
X131830000Y-90290000D03*
X129330000Y-90290000D03*
X126830000Y-90290000D03*
X141110000Y-90320000D03*
X138610000Y-90320000D03*
X136110000Y-90320000D03*
X150380000Y-90300000D03*
X147880000Y-90300000D03*
X145380000Y-90300000D03*
X145390000Y-123200000D03*
X147890000Y-123200000D03*
X150390000Y-123200000D03*
X126820000Y-123140000D03*
X129320000Y-123140000D03*
X131820000Y-123140000D03*
D14*
X138940000Y-107310000D03*
X138140000Y-107310000D03*
X137340000Y-107310000D03*
X136540000Y-107310000D03*
X135740000Y-107310000D03*
X135740000Y-106510000D03*
X135740000Y-105710000D03*
X136540000Y-105710000D03*
X137340000Y-105710000D03*
X138140000Y-105710000D03*
X138940000Y-105710000D03*
X138940000Y-106510000D03*
D15*
X139240000Y-107185000D03*
D10*
G36*
X157356485Y-97882602D02*
X156472602Y-98766485D01*
X156119049Y-98412932D01*
X157002932Y-97529049D01*
X157356485Y-97882602D01*
X157356485Y-97882602D01*
G37*
G36*
X155588718Y-96114835D02*
X154704835Y-96998718D01*
X154351282Y-96645165D01*
X155235165Y-95761282D01*
X155588718Y-96114835D01*
X155588718Y-96114835D01*
G37*
G36*
X153820951Y-94347068D02*
X152937068Y-95230951D01*
X152583515Y-94877398D01*
X153467398Y-93993515D01*
X153820951Y-94347068D01*
X153820951Y-94347068D01*
G37*
D16*
X156720000Y-109250000D03*
X156720000Y-106750000D03*
X156720000Y-104250000D03*
X120460000Y-104260000D03*
X120460000Y-106760000D03*
X120460000Y-109260000D03*
D13*
X136100000Y-123200000D03*
X138600000Y-123200000D03*
X141100000Y-123200000D03*
D10*
G36*
X119843515Y-115677398D02*
X120727398Y-114793515D01*
X121080951Y-115147068D01*
X120197068Y-116030951D01*
X119843515Y-115677398D01*
X119843515Y-115677398D01*
G37*
G36*
X121611282Y-117445165D02*
X122495165Y-116561282D01*
X122848718Y-116914835D01*
X121964835Y-117798718D01*
X121611282Y-117445165D01*
X121611282Y-117445165D01*
G37*
G36*
X123379049Y-119212932D02*
X124262932Y-118329049D01*
X124616485Y-118682602D01*
X123732602Y-119566485D01*
X123379049Y-119212932D01*
X123379049Y-119212932D01*
G37*
G36*
X153487398Y-119536485D02*
X152603515Y-118652602D01*
X152957068Y-118299049D01*
X153840951Y-119182932D01*
X153487398Y-119536485D01*
X153487398Y-119536485D01*
G37*
G36*
X155255165Y-117768718D02*
X154371282Y-116884835D01*
X154724835Y-116531282D01*
X155608718Y-117415165D01*
X155255165Y-117768718D01*
X155255165Y-117768718D01*
G37*
G36*
X157022932Y-116000951D02*
X156139049Y-115117068D01*
X156492602Y-114763515D01*
X157376485Y-115647398D01*
X157022932Y-116000951D01*
X157022932Y-116000951D01*
G37*
G36*
X123752602Y-93983515D02*
X124636485Y-94867398D01*
X124282932Y-95220951D01*
X123399049Y-94337068D01*
X123752602Y-93983515D01*
X123752602Y-93983515D01*
G37*
G36*
X121984835Y-95751282D02*
X122868718Y-96635165D01*
X122515165Y-96988718D01*
X121631282Y-96104835D01*
X121984835Y-95751282D01*
X121984835Y-95751282D01*
G37*
G36*
X120217068Y-97519049D02*
X121100951Y-98402932D01*
X120747398Y-98756485D01*
X119863515Y-97872602D01*
X120217068Y-97519049D01*
X120217068Y-97519049D01*
G37*
D17*
X131275000Y-111400000D03*
X131275000Y-109500000D03*
X129275000Y-110450000D03*
D11*
X129600000Y-117750000D03*
X145600000Y-117750000D03*
D12*
X147600000Y-117750000D03*
D11*
X133600000Y-117750000D03*
X131600000Y-117750000D03*
X143600000Y-117750000D03*
X141600000Y-117750000D03*
X135600000Y-117750000D03*
X137600000Y-117750000D03*
X139600000Y-117750000D03*
D18*
X150625000Y-103400000D03*
X150625000Y-104900000D03*
X132400000Y-107300000D03*
X132400000Y-105800000D03*
D19*
X140450000Y-109890000D03*
X138950000Y-109890000D03*
X138950000Y-103060000D03*
X140450000Y-103060000D03*
D20*
X150625000Y-106750000D03*
X150625000Y-108350000D03*
D21*
X128000000Y-109600000D03*
X139825000Y-111125000D03*
X133725000Y-105825000D03*
X146300000Y-112225000D03*
X126325000Y-122325000D03*
X151020000Y-90390000D03*
X133100000Y-90500000D03*
X142320000Y-90500000D03*
X156570000Y-99930000D03*
X156570000Y-110660000D03*
X152180000Y-119780000D03*
X144050000Y-123060000D03*
X134570000Y-123060000D03*
X120650000Y-113230000D03*
X124840000Y-93910000D03*
X120650000Y-102830000D03*
X146300000Y-101225000D03*
X153425000Y-103425000D03*
X126410000Y-116510000D03*
X153430000Y-113980000D03*
X131830000Y-119770000D03*
X139860000Y-119780000D03*
X150370000Y-117100000D03*
X136110000Y-93590000D03*
X126820000Y-96600000D03*
X123960000Y-101620000D03*
X123970000Y-109240000D03*
X150970000Y-96830000D03*
X143600000Y-93590000D03*
X144975000Y-108125000D03*
X136600000Y-100925000D03*
X123870000Y-115510000D03*
X138610000Y-120970000D03*
X123820000Y-97940000D03*
X122770000Y-106750000D03*
X147890000Y-120960000D03*
X153490000Y-115650000D03*
X154570000Y-106750000D03*
X153520000Y-97820000D03*
X138610000Y-92430000D03*
X129330000Y-92430000D03*
X147890000Y-92430000D03*
X129340000Y-120970000D03*
X146300000Y-106725000D03*
X138450000Y-104525000D03*
X135125000Y-100950000D03*
X122200000Y-98090000D03*
X121630000Y-108000000D03*
X123970000Y-117190000D03*
X130580000Y-122040000D03*
X139860000Y-122040000D03*
X149140000Y-122040000D03*
X155010000Y-115400000D03*
X155500000Y-105500000D03*
X153260000Y-96320000D03*
X137360000Y-91560000D03*
X146630000Y-91560000D03*
X128080000Y-91560000D03*
X151675000Y-99750000D03*
X144975000Y-105350000D03*
X133825000Y-102275000D03*
D22*
X137340000Y-107310000D02*
X137340000Y-106750000D01*
X137340000Y-106750000D02*
X137100000Y-106510000D01*
D23*
X140450000Y-109890000D02*
X140450000Y-110500000D01*
X140450000Y-110500000D02*
X139825000Y-111125000D01*
X140450000Y-109890000D02*
X143965000Y-109890000D01*
X143965000Y-109890000D02*
X146300000Y-112225000D01*
X128000000Y-109600000D02*
X128000000Y-110175000D01*
D24*
X133725000Y-105825000D02*
X133725000Y-105800000D01*
D25*
X135740000Y-106510000D02*
X134435000Y-106510000D01*
X133725000Y-105800000D02*
X132400000Y-105800000D01*
X134435000Y-106510000D02*
X133725000Y-105800000D01*
D23*
X129275000Y-110450000D02*
X129275000Y-108625000D01*
X129275000Y-108625000D02*
X129525000Y-108375000D01*
X129525000Y-108375000D02*
X132600000Y-108375000D01*
X132600000Y-108375000D02*
X135350000Y-111125000D01*
X135350000Y-111125000D02*
X139825000Y-111125000D01*
X128000000Y-110175000D02*
X128275000Y-110450000D01*
X128275000Y-110450000D02*
X129275000Y-110450000D01*
X140050000Y-110900000D02*
X139825000Y-111125000D01*
D22*
X140050000Y-110900000D02*
X139825000Y-111125000D01*
X129275000Y-110450000D02*
X128275000Y-110450000D01*
X128275000Y-110450000D02*
X128000000Y-110175000D01*
X136560000Y-107310000D02*
X136560000Y-106910000D01*
X136560000Y-106910000D02*
X136160000Y-106510000D01*
X138960000Y-106510000D02*
X137910000Y-106510000D01*
X135760000Y-106510000D02*
X136160000Y-106510000D01*
X136160000Y-106510000D02*
X137100000Y-106510000D01*
X137100000Y-106510000D02*
X137085000Y-106510000D01*
X137085000Y-106510000D02*
X137910000Y-106510000D01*
X138160000Y-106760000D02*
X138160000Y-107310000D01*
X137910000Y-106510000D02*
X138160000Y-106760000D01*
D23*
X126830000Y-123110000D02*
X126830000Y-122830000D01*
X126830000Y-122830000D02*
X126325000Y-122325000D01*
X150390000Y-90390000D02*
X151020000Y-90390000D01*
X131830000Y-90390000D02*
X132990000Y-90390000D01*
X132990000Y-90390000D02*
X133100000Y-90500000D01*
X141110000Y-90390000D02*
X142210000Y-90390000D01*
X142210000Y-90390000D02*
X142320000Y-90500000D01*
X156667767Y-98207767D02*
X156667767Y-99832233D01*
X156667767Y-99832233D02*
X156570000Y-99930000D01*
X156660000Y-109250000D02*
X156660000Y-110570000D01*
X156660000Y-110570000D02*
X156570000Y-110660000D01*
X153132233Y-118827767D02*
X152180000Y-119780000D01*
X145390000Y-123110000D02*
X144100000Y-123110000D01*
X144100000Y-123110000D02*
X144050000Y-123060000D01*
X136110000Y-123110000D02*
X134620000Y-123110000D01*
X134620000Y-123110000D02*
X134570000Y-123060000D01*
X120552233Y-115292233D02*
X120552233Y-113327767D01*
X120552233Y-113327767D02*
X120650000Y-113230000D01*
X124087767Y-94672233D02*
X124087767Y-94662233D01*
X124087767Y-94662233D02*
X124840000Y-93910000D01*
X120650000Y-102830000D02*
X120550000Y-102930000D01*
X120550000Y-102930000D02*
X120550000Y-104250000D01*
D25*
X138940000Y-105710000D02*
X140170000Y-105710000D01*
X140170000Y-105710000D02*
X140450000Y-105990000D01*
X140450000Y-103060000D02*
X140450000Y-105990000D01*
X140450000Y-105990000D02*
X140450000Y-107020000D01*
X140450000Y-107020000D02*
X140160000Y-107310000D01*
X140160000Y-107310000D02*
X138940000Y-107310000D01*
D23*
X138940000Y-107310000D02*
X138940000Y-109880000D01*
X138940000Y-109880000D02*
X138950000Y-109890000D01*
X145900000Y-103060000D02*
X148050000Y-103060000D01*
X148050000Y-103060000D02*
X150625000Y-100485000D01*
X150625000Y-103400000D02*
X150625000Y-100485000D01*
X150625000Y-100485000D02*
X150625000Y-97175000D01*
X150625000Y-97175000D02*
X150970000Y-96830000D01*
X146300000Y-101225000D02*
X146300000Y-102660000D01*
X146300000Y-102660000D02*
X145900000Y-103060000D01*
X140450000Y-103060000D02*
X145900000Y-103060000D01*
D25*
X138940000Y-107310000D02*
X140160000Y-107310000D01*
D23*
X138950000Y-107320000D02*
X138940000Y-107310000D01*
X153425000Y-103425000D02*
X154050000Y-103425000D01*
X154050000Y-103425000D02*
X154875000Y-104250000D01*
X152550000Y-103425000D02*
X153425000Y-103425000D01*
X150975000Y-103425000D02*
X152550000Y-103425000D01*
D24*
X138950000Y-107320000D02*
X138940000Y-107310000D01*
X138950000Y-107320000D02*
X138940000Y-107310000D01*
D22*
X138960000Y-107310000D02*
X139135000Y-107310000D01*
X139135000Y-107310000D02*
X139260000Y-107185000D01*
D23*
X124087767Y-118827767D02*
X124092233Y-118827767D01*
X124092233Y-118827767D02*
X126410000Y-116510000D01*
X156667767Y-115292233D02*
X156662233Y-115292233D01*
X156662233Y-115292233D02*
X155350000Y-113980000D01*
X155350000Y-113980000D02*
X153430000Y-113980000D01*
X153132233Y-94672233D02*
X153127767Y-94672233D01*
X153127767Y-94672233D02*
X150970000Y-96830000D01*
X131830000Y-123110000D02*
X131830000Y-119770000D01*
X141110000Y-123110000D02*
X141110000Y-121030000D01*
X141110000Y-121030000D02*
X139860000Y-119780000D01*
X156660000Y-104250000D02*
X154875000Y-104250000D01*
X150390000Y-123110000D02*
X150390000Y-117120000D01*
X150370000Y-117100000D02*
X150390000Y-117120000D01*
X136110000Y-93590000D02*
X143600000Y-93590000D01*
X143600000Y-93590000D02*
X144770000Y-93590000D01*
X145390000Y-92970000D02*
X145390000Y-90390000D01*
X144770000Y-93590000D02*
X145390000Y-92970000D01*
X136110000Y-90390000D02*
X136110000Y-93590000D01*
X126830000Y-90390000D02*
X126830000Y-96590000D01*
X126830000Y-96590000D02*
X126820000Y-96600000D01*
X120550000Y-109250000D02*
X123960000Y-109250000D01*
X123960000Y-101620000D02*
X120552233Y-98212233D01*
X123960000Y-109250000D02*
X123970000Y-109240000D01*
X120552233Y-98212233D02*
X120552233Y-98207767D01*
X150625000Y-104900000D02*
X150625000Y-106750000D01*
D22*
X150625000Y-104900000D02*
X150625000Y-107000000D01*
D23*
X150625000Y-108350000D02*
X145200000Y-108350000D01*
X145200000Y-108350000D02*
X144975000Y-108125000D01*
D25*
X137340000Y-105710000D02*
X137340000Y-101665000D01*
X137340000Y-101665000D02*
X136600000Y-100925000D01*
D22*
X137340000Y-101665000D02*
X136600000Y-100925000D01*
D23*
X122320000Y-117060000D02*
X123870000Y-115510000D01*
X138610000Y-123110000D02*
X138610000Y-120970000D01*
X122320000Y-96440000D02*
X123820000Y-97940000D01*
X122330000Y-96440000D02*
X122320000Y-96440000D01*
X122770000Y-106750000D02*
X120550000Y-106750000D01*
X122320000Y-117050000D02*
X122320000Y-117060000D01*
X129340000Y-120970000D02*
X129330000Y-123110000D01*
X147900000Y-120970000D02*
X147890000Y-123110000D01*
X147890000Y-120960000D02*
X147900000Y-120970000D01*
X154900000Y-117060000D02*
X153490000Y-115650000D01*
X154570000Y-106750000D02*
X156660000Y-106750000D01*
X153520000Y-97820000D02*
X154900000Y-96440000D01*
X138610000Y-90390000D02*
X138610000Y-92430000D01*
X129330000Y-90390000D02*
X129330000Y-92430000D01*
X147890000Y-92430000D02*
X147890000Y-90390000D01*
D25*
X138140000Y-105710000D02*
X138140000Y-104835000D01*
X138140000Y-104835000D02*
X138450000Y-104525000D01*
D22*
X138140000Y-104835000D02*
X138450000Y-104525000D01*
D23*
X131275000Y-111400000D02*
X132025000Y-111400000D01*
X133600000Y-112975000D02*
X133600000Y-117750000D01*
X132025000Y-111400000D02*
X133600000Y-112975000D01*
D25*
X132400000Y-107300000D02*
X130950000Y-107300000D01*
X130950000Y-107300000D02*
X130825000Y-107175000D01*
X130825000Y-107175000D02*
X130825000Y-105275000D01*
X130825000Y-105275000D02*
X133825000Y-102275000D01*
D24*
X130825000Y-107175000D02*
X130950000Y-107300000D01*
X130825000Y-105275000D02*
X130825000Y-107175000D01*
D25*
X132400000Y-107300000D02*
X135730000Y-107300000D01*
X135730000Y-107300000D02*
X135740000Y-107310000D01*
D26*
G36*
X126095185Y-90915000D02*
X126104500Y-90964505D01*
X126104500Y-96300895D01*
X126044635Y-96445067D01*
X126044366Y-96753580D01*
X126162180Y-97038712D01*
X126380141Y-97257054D01*
X126665067Y-97375365D01*
X126973580Y-97375634D01*
X127258712Y-97257820D01*
X127477054Y-97039859D01*
X127595365Y-96754933D01*
X127595540Y-96553905D01*
X128907110Y-96553905D01*
X128940724Y-96790968D01*
X129389269Y-96964023D01*
X129869897Y-96952254D01*
X130259276Y-96790968D01*
X130292890Y-96553905D01*
X129600000Y-95861016D01*
X128907110Y-96553905D01*
X127595540Y-96553905D01*
X127595634Y-96446420D01*
X127555500Y-96349288D01*
X127555500Y-95539269D01*
X128385977Y-95539269D01*
X128397746Y-96019897D01*
X128559032Y-96409276D01*
X128796095Y-96442890D01*
X129488984Y-95750000D01*
X129711016Y-95750000D01*
X130403905Y-96442890D01*
X130640968Y-96409276D01*
X130712866Y-96222923D01*
X130751323Y-96315997D01*
X131032522Y-96597688D01*
X131400115Y-96750326D01*
X131798139Y-96750673D01*
X132165997Y-96598677D01*
X132447688Y-96317478D01*
X132600187Y-95950220D01*
X132751323Y-96315997D01*
X133032522Y-96597688D01*
X133400115Y-96750326D01*
X133798139Y-96750673D01*
X134165997Y-96598677D01*
X134447688Y-96317478D01*
X134600187Y-95950220D01*
X134751323Y-96315997D01*
X135032522Y-96597688D01*
X135400115Y-96750326D01*
X135798139Y-96750673D01*
X136165997Y-96598677D01*
X136447688Y-96317478D01*
X136600187Y-95950220D01*
X136751323Y-96315997D01*
X137032522Y-96597688D01*
X137400115Y-96750326D01*
X137798139Y-96750673D01*
X138165997Y-96598677D01*
X138447688Y-96317478D01*
X138600187Y-95950220D01*
X138751323Y-96315997D01*
X139032522Y-96597688D01*
X139400115Y-96750326D01*
X139798139Y-96750673D01*
X140165997Y-96598677D01*
X140447688Y-96317478D01*
X140600187Y-95950220D01*
X140751323Y-96315997D01*
X141032522Y-96597688D01*
X141400115Y-96750326D01*
X141798139Y-96750673D01*
X142165997Y-96598677D01*
X142447688Y-96317478D01*
X142600187Y-95950220D01*
X142751323Y-96315997D01*
X143032522Y-96597688D01*
X143400115Y-96750326D01*
X143798139Y-96750673D01*
X144165997Y-96598677D01*
X144447688Y-96317478D01*
X144600187Y-95950220D01*
X144751323Y-96315997D01*
X145032522Y-96597688D01*
X145400115Y-96750326D01*
X145798139Y-96750673D01*
X146165997Y-96598677D01*
X146447688Y-96317478D01*
X146590185Y-95974307D01*
X146590185Y-96275000D01*
X146623341Y-96451210D01*
X146727481Y-96613047D01*
X146886380Y-96721618D01*
X147075000Y-96759815D01*
X148125000Y-96759815D01*
X148301210Y-96726659D01*
X148463047Y-96622519D01*
X148571618Y-96463620D01*
X148609815Y-96275000D01*
X148609815Y-95225000D01*
X148576659Y-95048790D01*
X148472519Y-94886953D01*
X148313620Y-94778382D01*
X148125000Y-94740185D01*
X147075000Y-94740185D01*
X146898790Y-94773341D01*
X146736953Y-94877481D01*
X146628382Y-95036380D01*
X146590185Y-95225000D01*
X146590185Y-95526478D01*
X146448677Y-95184003D01*
X146167478Y-94902312D01*
X145799885Y-94749674D01*
X145401861Y-94749327D01*
X145034003Y-94901323D01*
X144752312Y-95182522D01*
X144599813Y-95549780D01*
X144448677Y-95184003D01*
X144167478Y-94902312D01*
X143799885Y-94749674D01*
X143401861Y-94749327D01*
X143034003Y-94901323D01*
X142752312Y-95182522D01*
X142599813Y-95549780D01*
X142448677Y-95184003D01*
X142167478Y-94902312D01*
X141799885Y-94749674D01*
X141401861Y-94749327D01*
X141034003Y-94901323D01*
X140752312Y-95182522D01*
X140599813Y-95549780D01*
X140448677Y-95184003D01*
X140167478Y-94902312D01*
X139799885Y-94749674D01*
X139401861Y-94749327D01*
X139034003Y-94901323D01*
X138752312Y-95182522D01*
X138599813Y-95549780D01*
X138448677Y-95184003D01*
X138167478Y-94902312D01*
X137799885Y-94749674D01*
X137401861Y-94749327D01*
X137034003Y-94901323D01*
X136752312Y-95182522D01*
X136599813Y-95549780D01*
X136448677Y-95184003D01*
X136167478Y-94902312D01*
X135799885Y-94749674D01*
X135401861Y-94749327D01*
X135034003Y-94901323D01*
X134752312Y-95182522D01*
X134599813Y-95549780D01*
X134448677Y-95184003D01*
X134167478Y-94902312D01*
X133799885Y-94749674D01*
X133401861Y-94749327D01*
X133034003Y-94901323D01*
X132752312Y-95182522D01*
X132599813Y-95549780D01*
X132448677Y-95184003D01*
X132167478Y-94902312D01*
X131799885Y-94749674D01*
X131401861Y-94749327D01*
X131034003Y-94901323D01*
X130752312Y-95182522D01*
X130715607Y-95270918D01*
X130640968Y-95090724D01*
X130403905Y-95057110D01*
X129711016Y-95750000D01*
X129488984Y-95750000D01*
X128796095Y-95057110D01*
X128559032Y-95090724D01*
X128385977Y-95539269D01*
X127555500Y-95539269D01*
X127555500Y-94946095D01*
X128907110Y-94946095D01*
X129600000Y-95638984D01*
X130292890Y-94946095D01*
X130259276Y-94709032D01*
X129810731Y-94535977D01*
X129330103Y-94547746D01*
X128940724Y-94709032D01*
X128907110Y-94946095D01*
X127555500Y-94946095D01*
X127555500Y-92132265D01*
X127640141Y-92217054D01*
X127925067Y-92335365D01*
X128233580Y-92335634D01*
X128518712Y-92217820D01*
X128604500Y-92132182D01*
X128604500Y-92154978D01*
X128554635Y-92275067D01*
X128554366Y-92583580D01*
X128672180Y-92868712D01*
X128890141Y-93087054D01*
X129175067Y-93205365D01*
X129483580Y-93205634D01*
X129768712Y-93087820D01*
X129987054Y-92869859D01*
X130105365Y-92584933D01*
X130105634Y-92276420D01*
X130055500Y-92155086D01*
X130055500Y-90960998D01*
X130064815Y-90915000D01*
X130064815Y-90539375D01*
X130896500Y-90539375D01*
X130896500Y-91050956D01*
X131000556Y-91302171D01*
X131192828Y-91494443D01*
X131444043Y-91598500D01*
X131580625Y-91598500D01*
X131751500Y-91427625D01*
X131751500Y-90368500D01*
X131908500Y-90368500D01*
X131908500Y-91427625D01*
X132079375Y-91598500D01*
X132215957Y-91598500D01*
X132467172Y-91494443D01*
X132659444Y-91302171D01*
X132763500Y-91050956D01*
X132763500Y-90539375D01*
X132592625Y-90368500D01*
X131908500Y-90368500D01*
X131751500Y-90368500D01*
X131067375Y-90368500D01*
X130896500Y-90539375D01*
X130064815Y-90539375D01*
X130064815Y-90240500D01*
X135375185Y-90240500D01*
X135375185Y-90945000D01*
X135384500Y-90994505D01*
X135384500Y-93314978D01*
X135334635Y-93435067D01*
X135334366Y-93743580D01*
X135452180Y-94028712D01*
X135670141Y-94247054D01*
X135955067Y-94365365D01*
X136263580Y-94365634D01*
X136384914Y-94315500D01*
X143324978Y-94315500D01*
X143445067Y-94365365D01*
X143753580Y-94365634D01*
X143874914Y-94315500D01*
X144770000Y-94315500D01*
X145047637Y-94260275D01*
X145283006Y-94103006D01*
X145903006Y-93483006D01*
X146060275Y-93247637D01*
X146115500Y-92970000D01*
X146115500Y-92142283D01*
X146190141Y-92217054D01*
X146475067Y-92335365D01*
X146783580Y-92335634D01*
X147068712Y-92217820D01*
X147164500Y-92122199D01*
X147164500Y-92154978D01*
X147114635Y-92275067D01*
X147114366Y-92583580D01*
X147232180Y-92868712D01*
X147450141Y-93087054D01*
X147735067Y-93205365D01*
X148043580Y-93205634D01*
X148328712Y-93087820D01*
X148547054Y-92869859D01*
X148665365Y-92584933D01*
X148665634Y-92276420D01*
X148615500Y-92155086D01*
X148615500Y-90549375D01*
X149446500Y-90549375D01*
X149446500Y-91060956D01*
X149550556Y-91312171D01*
X149742828Y-91504443D01*
X149994043Y-91608500D01*
X150130625Y-91608500D01*
X150301500Y-91437625D01*
X150301500Y-90378500D01*
X149617375Y-90378500D01*
X149446500Y-90549375D01*
X148615500Y-90549375D01*
X148615500Y-90390000D01*
X148614815Y-90386556D01*
X148614815Y-90240500D01*
X150478500Y-90240500D01*
X150478500Y-90378500D01*
X150458500Y-90378500D01*
X150458500Y-91437625D01*
X150629375Y-91608500D01*
X150765957Y-91608500D01*
X151017172Y-91504443D01*
X151209444Y-91312171D01*
X151299500Y-91094755D01*
X151299500Y-92390000D01*
X151341404Y-92600668D01*
X151460738Y-92779262D01*
X152728378Y-94046903D01*
X152618658Y-94156623D01*
X152614761Y-94159227D01*
X150651463Y-96122525D01*
X150531288Y-96172180D01*
X150312946Y-96390141D01*
X150262600Y-96511388D01*
X150111994Y-96661994D01*
X149954725Y-96897363D01*
X149899500Y-97175000D01*
X149899500Y-100184488D01*
X147749488Y-102334500D01*
X147025500Y-102334500D01*
X147025500Y-101500022D01*
X147075365Y-101379933D01*
X147075634Y-101071420D01*
X146957820Y-100786288D01*
X146739859Y-100567946D01*
X146454933Y-100449635D01*
X146146420Y-100449366D01*
X145861288Y-100567180D01*
X145642946Y-100785141D01*
X145524635Y-101070067D01*
X145524366Y-101378580D01*
X145574500Y-101499914D01*
X145574500Y-102334500D01*
X141179293Y-102334500D01*
X141038620Y-102238382D01*
X140850000Y-102200185D01*
X140050000Y-102200185D01*
X139873790Y-102233341D01*
X139868415Y-102236800D01*
X139737172Y-102105557D01*
X139485957Y-102001500D01*
X139199375Y-102001500D01*
X139028500Y-102172375D01*
X139028500Y-102981500D01*
X139048500Y-102981500D01*
X139048500Y-103138500D01*
X139028500Y-103138500D01*
X139028500Y-103158500D01*
X138871500Y-103158500D01*
X138871500Y-103138500D01*
X138851500Y-103138500D01*
X138851500Y-102981500D01*
X138871500Y-102981500D01*
X138871500Y-102172375D01*
X138700625Y-102001500D01*
X138414043Y-102001500D01*
X138162828Y-102105557D01*
X138015500Y-102252885D01*
X138015500Y-101665000D01*
X137964081Y-101406497D01*
X137817651Y-101187349D01*
X137357265Y-100726963D01*
X137257820Y-100486288D01*
X137039859Y-100267946D01*
X136754933Y-100149635D01*
X136446420Y-100149366D01*
X136161288Y-100267180D01*
X135942946Y-100485141D01*
X135857270Y-100691472D01*
X135782820Y-100511288D01*
X135564859Y-100292946D01*
X135279933Y-100174635D01*
X134971420Y-100174366D01*
X134686288Y-100292180D01*
X134467946Y-100510141D01*
X134349635Y-100795067D01*
X134349366Y-101103580D01*
X134467180Y-101388712D01*
X134685141Y-101607054D01*
X134970067Y-101725365D01*
X135278580Y-101725634D01*
X135563712Y-101607820D01*
X135782054Y-101389859D01*
X135867730Y-101183528D01*
X135942180Y-101363712D01*
X136160141Y-101582054D01*
X136402308Y-101682610D01*
X136664500Y-101944802D01*
X136664500Y-104975185D01*
X136290000Y-104975185D01*
X136134492Y-105004446D01*
X135990000Y-104975185D01*
X135490000Y-104975185D01*
X135313790Y-105008341D01*
X135151953Y-105112481D01*
X135043382Y-105271380D01*
X135005185Y-105460000D01*
X135005185Y-105778200D01*
X134910557Y-105872828D01*
X134806500Y-106124043D01*
X134806500Y-106260625D01*
X134977375Y-106431500D01*
X135424249Y-106431500D01*
X135490000Y-106444815D01*
X135838500Y-106444815D01*
X135838500Y-106544885D01*
X135808200Y-106575185D01*
X135490000Y-106575185D01*
X135419236Y-106588500D01*
X134977375Y-106588500D01*
X134941375Y-106624500D01*
X133242115Y-106624500D01*
X133429443Y-106437172D01*
X133533500Y-106185957D01*
X133533500Y-106049375D01*
X133362625Y-105878500D01*
X132478500Y-105878500D01*
X132478500Y-105898500D01*
X132321500Y-105898500D01*
X132321500Y-105878500D01*
X132301500Y-105878500D01*
X132301500Y-105721500D01*
X132321500Y-105721500D01*
X132321500Y-105037375D01*
X132478500Y-105037375D01*
X132478500Y-105721500D01*
X133362625Y-105721500D01*
X133533500Y-105550625D01*
X133533500Y-105414043D01*
X133429443Y-105162828D01*
X133237171Y-104970556D01*
X132985956Y-104866500D01*
X132649375Y-104866500D01*
X132478500Y-105037375D01*
X132321500Y-105037375D01*
X132169713Y-104885588D01*
X134023036Y-103032265D01*
X134263712Y-102932820D01*
X134482054Y-102714859D01*
X134600365Y-102429933D01*
X134600634Y-102121420D01*
X134482820Y-101836288D01*
X134264859Y-101617946D01*
X133979933Y-101499635D01*
X133671420Y-101499366D01*
X133386288Y-101617180D01*
X133167946Y-101835141D01*
X133067389Y-102077310D01*
X130347349Y-104797349D01*
X130200919Y-105016497D01*
X130149499Y-105275000D01*
X130149500Y-105275005D01*
X130149500Y-107174995D01*
X130149499Y-107175000D01*
X130200919Y-107433503D01*
X130347349Y-107652651D01*
X130472347Y-107777648D01*
X130472349Y-107777651D01*
X130691497Y-107924081D01*
X130734386Y-107932612D01*
X130950000Y-107975501D01*
X130950005Y-107975500D01*
X131730473Y-107975500D01*
X131761380Y-107996618D01*
X131950000Y-108034815D01*
X132850000Y-108034815D01*
X133026210Y-108001659D01*
X133066862Y-107975500D01*
X135255837Y-107975500D01*
X135301380Y-108006618D01*
X135490000Y-108044815D01*
X135808200Y-108044815D01*
X135902829Y-108139444D01*
X136154044Y-108243500D01*
X136290625Y-108243500D01*
X136461500Y-108072625D01*
X136461500Y-107828738D01*
X136510557Y-107947172D01*
X136618500Y-108055115D01*
X136618500Y-108072625D01*
X136789375Y-108243500D01*
X136925956Y-108243500D01*
X136940000Y-108237683D01*
X136954044Y-108243500D01*
X137090625Y-108243500D01*
X137261500Y-108072625D01*
X137261500Y-108055115D01*
X137340000Y-107976615D01*
X137418500Y-108055115D01*
X137418500Y-108072625D01*
X137589375Y-108243500D01*
X137725956Y-108243500D01*
X137740000Y-108237683D01*
X137754044Y-108243500D01*
X137890625Y-108243500D01*
X138061500Y-108072625D01*
X138061500Y-108055115D01*
X138169443Y-107947172D01*
X138214500Y-107838395D01*
X138214500Y-109165842D01*
X138211953Y-109167481D01*
X138103382Y-109326380D01*
X138065185Y-109515000D01*
X138065185Y-110265000D01*
X138098341Y-110441210D01*
X138202481Y-110603047D01*
X138361380Y-110711618D01*
X138550000Y-110749815D01*
X139350000Y-110749815D01*
X139526210Y-110716659D01*
X139531585Y-110713200D01*
X139662828Y-110844443D01*
X139914043Y-110948500D01*
X140200625Y-110948500D01*
X140371500Y-110777625D01*
X140371500Y-109968500D01*
X140528500Y-109968500D01*
X140528500Y-110777625D01*
X140699375Y-110948500D01*
X140985957Y-110948500D01*
X141237172Y-110844443D01*
X141429444Y-110652171D01*
X141533500Y-110400956D01*
X141533500Y-110139375D01*
X141362625Y-109968500D01*
X140528500Y-109968500D01*
X140371500Y-109968500D01*
X140351500Y-109968500D01*
X140351500Y-109811500D01*
X140371500Y-109811500D01*
X140371500Y-109002375D01*
X140528500Y-109002375D01*
X140528500Y-109811500D01*
X141362625Y-109811500D01*
X141533500Y-109640625D01*
X141533500Y-109499375D01*
X155411500Y-109499375D01*
X155411500Y-109635957D01*
X155515557Y-109887172D01*
X155707829Y-110079444D01*
X155959044Y-110183500D01*
X156470625Y-110183500D01*
X156641500Y-110012625D01*
X156641500Y-109328500D01*
X155582375Y-109328500D01*
X155411500Y-109499375D01*
X141533500Y-109499375D01*
X141533500Y-109379044D01*
X141429444Y-109127829D01*
X141237172Y-108935557D01*
X140985957Y-108831500D01*
X140699375Y-108831500D01*
X140528500Y-109002375D01*
X140371500Y-109002375D01*
X140200625Y-108831500D01*
X139914043Y-108831500D01*
X139665500Y-108934450D01*
X139665500Y-108278580D01*
X144199366Y-108278580D01*
X144317180Y-108563712D01*
X144535141Y-108782054D01*
X144656388Y-108832400D01*
X144686994Y-108863006D01*
X144922363Y-109020275D01*
X145200000Y-109075500D01*
X149869407Y-109075500D01*
X149877481Y-109088047D01*
X150036380Y-109196618D01*
X150225000Y-109234815D01*
X151025000Y-109234815D01*
X151201210Y-109201659D01*
X151363047Y-109097519D01*
X151471618Y-108938620D01*
X151486720Y-108864043D01*
X155411500Y-108864043D01*
X155411500Y-109000625D01*
X155582375Y-109171500D01*
X156641500Y-109171500D01*
X156641500Y-108487375D01*
X156470625Y-108316500D01*
X155959044Y-108316500D01*
X155707829Y-108420556D01*
X155515557Y-108612828D01*
X155411500Y-108864043D01*
X151486720Y-108864043D01*
X151509815Y-108750000D01*
X151509815Y-107950000D01*
X151476659Y-107773790D01*
X151372519Y-107611953D01*
X151281674Y-107549881D01*
X151363047Y-107497519D01*
X151471618Y-107338620D01*
X151509815Y-107150000D01*
X151509815Y-106350000D01*
X151476659Y-106173790D01*
X151372519Y-106011953D01*
X151350500Y-105996908D01*
X151350500Y-105537767D01*
X151413047Y-105497519D01*
X151521618Y-105338620D01*
X151559815Y-105150000D01*
X151559815Y-104650000D01*
X151526659Y-104473790D01*
X151422519Y-104311953D01*
X151263620Y-104203382D01*
X151075000Y-104165185D01*
X150175000Y-104165185D01*
X149998790Y-104198341D01*
X149836953Y-104302481D01*
X149728382Y-104461380D01*
X149690185Y-104650000D01*
X149690185Y-105150000D01*
X149723341Y-105326210D01*
X149827481Y-105488047D01*
X149899500Y-105537255D01*
X149899500Y-105994407D01*
X149886953Y-106002481D01*
X149778382Y-106161380D01*
X149740185Y-106350000D01*
X149740185Y-107150000D01*
X149773341Y-107326210D01*
X149877481Y-107488047D01*
X149968326Y-107550119D01*
X149886953Y-107602481D01*
X149871908Y-107624500D01*
X145571140Y-107624500D01*
X145414859Y-107467946D01*
X145129933Y-107349635D01*
X144821420Y-107349366D01*
X144536288Y-107467180D01*
X144317946Y-107685141D01*
X144199635Y-107970067D01*
X144199366Y-108278580D01*
X139665500Y-108278580D01*
X139665500Y-107985500D01*
X140159995Y-107985500D01*
X140160000Y-107985501D01*
X140418503Y-107934081D01*
X140637651Y-107787651D01*
X140927651Y-107497651D01*
X141074081Y-107278503D01*
X141125501Y-107020000D01*
X141125500Y-107019995D01*
X141125500Y-106878580D01*
X145524366Y-106878580D01*
X145642180Y-107163712D01*
X145860141Y-107382054D01*
X146145067Y-107500365D01*
X146453580Y-107500634D01*
X146738712Y-107382820D01*
X146957054Y-107164859D01*
X147075365Y-106879933D01*
X147075634Y-106571420D01*
X146957820Y-106286288D01*
X146739859Y-106067946D01*
X146454933Y-105949635D01*
X146146420Y-105949366D01*
X145861288Y-106067180D01*
X145642946Y-106285141D01*
X145524635Y-106570067D01*
X145524366Y-106878580D01*
X141125500Y-106878580D01*
X141125500Y-105990005D01*
X141125501Y-105990000D01*
X141125500Y-105989995D01*
X141125500Y-105503580D01*
X144199366Y-105503580D01*
X144317180Y-105788712D01*
X144535141Y-106007054D01*
X144820067Y-106125365D01*
X145128580Y-106125634D01*
X145413712Y-106007820D01*
X145632054Y-105789859D01*
X145750365Y-105504933D01*
X145750634Y-105196420D01*
X145632820Y-104911288D01*
X145414859Y-104692946D01*
X145129933Y-104574635D01*
X144821420Y-104574366D01*
X144536288Y-104692180D01*
X144317946Y-104910141D01*
X144199635Y-105195067D01*
X144199366Y-105503580D01*
X141125500Y-105503580D01*
X141125500Y-103822767D01*
X141183414Y-103785500D01*
X148050000Y-103785500D01*
X148327637Y-103730275D01*
X148563006Y-103573006D01*
X149899500Y-102236512D01*
X149899500Y-102762233D01*
X149836953Y-102802481D01*
X149728382Y-102961380D01*
X149690185Y-103150000D01*
X149690185Y-103650000D01*
X149723341Y-103826210D01*
X149827481Y-103988047D01*
X149986380Y-104096618D01*
X150175000Y-104134815D01*
X150896146Y-104134815D01*
X150975000Y-104150500D01*
X153149978Y-104150500D01*
X153270067Y-104200365D01*
X153578580Y-104200634D01*
X153699914Y-104150500D01*
X153749488Y-104150500D01*
X154361994Y-104763006D01*
X154597363Y-104920275D01*
X154875000Y-104975500D01*
X154927735Y-104975500D01*
X154842946Y-105060141D01*
X154724635Y-105345067D01*
X154724366Y-105653580D01*
X154842180Y-105938712D01*
X154927818Y-106024500D01*
X154845022Y-106024500D01*
X154724933Y-105974635D01*
X154416420Y-105974366D01*
X154131288Y-106092180D01*
X153912946Y-106310141D01*
X153794635Y-106595067D01*
X153794366Y-106903580D01*
X153912180Y-107188712D01*
X154130141Y-107407054D01*
X154415067Y-107525365D01*
X154723580Y-107525634D01*
X154844914Y-107475500D01*
X156049002Y-107475500D01*
X156095000Y-107484815D01*
X156819500Y-107484815D01*
X156819500Y-108466375D01*
X156798500Y-108487375D01*
X156798500Y-109171500D01*
X156818500Y-109171500D01*
X156818500Y-109328500D01*
X156798500Y-109328500D01*
X156798500Y-110012625D01*
X156819500Y-110033625D01*
X156819500Y-112260000D01*
X156861404Y-112470668D01*
X156980738Y-112649262D01*
X158261476Y-113930000D01*
X157303098Y-114888379D01*
X156835418Y-114420699D01*
X156776355Y-114380343D01*
X155863006Y-113466994D01*
X155627637Y-113309725D01*
X155350000Y-113254500D01*
X153705022Y-113254500D01*
X153584933Y-113204635D01*
X153276420Y-113204366D01*
X152991288Y-113322180D01*
X152772946Y-113540141D01*
X152654635Y-113825067D01*
X152654366Y-114133580D01*
X152772180Y-114418712D01*
X152990141Y-114637054D01*
X153275067Y-114755365D01*
X153583580Y-114755634D01*
X153704914Y-114705500D01*
X154660060Y-114705500D01*
X154571288Y-114742180D01*
X154352946Y-114960141D01*
X154234635Y-115245067D01*
X154234527Y-115368515D01*
X154197475Y-115331463D01*
X154147820Y-115211288D01*
X153929859Y-114992946D01*
X153644933Y-114874635D01*
X153336420Y-114874366D01*
X153051288Y-114992180D01*
X152832946Y-115210141D01*
X152714635Y-115495067D01*
X152714366Y-115803580D01*
X152832180Y-116088712D01*
X153050141Y-116307054D01*
X153171388Y-116357400D01*
X154002527Y-117188539D01*
X154028466Y-117227651D01*
X154496146Y-117695331D01*
X151330738Y-120860738D01*
X151211404Y-121039332D01*
X151211404Y-121039333D01*
X151169500Y-121250000D01*
X151169500Y-123249500D01*
X151124815Y-123249500D01*
X151124815Y-122575000D01*
X151115500Y-122525495D01*
X151115500Y-118516646D01*
X151920015Y-118516646D01*
X151920015Y-118788559D01*
X152024072Y-119039774D01*
X152216343Y-119232046D01*
X152385814Y-119401516D01*
X152627468Y-119401516D01*
X153111217Y-118917767D01*
X152362303Y-118168853D01*
X152120649Y-118168853D01*
X152024071Y-118265431D01*
X151920015Y-118516646D01*
X151115500Y-118516646D01*
X151115500Y-117816183D01*
X152473319Y-117816183D01*
X152473319Y-118057837D01*
X153222233Y-118806751D01*
X153705982Y-118323002D01*
X153705982Y-118081348D01*
X153536512Y-117911877D01*
X153344240Y-117719606D01*
X153093025Y-117615549D01*
X152821112Y-117615549D01*
X152569897Y-117719605D01*
X152473319Y-117816183D01*
X151115500Y-117816183D01*
X151115500Y-117326856D01*
X151145365Y-117254933D01*
X151145634Y-116946420D01*
X151027820Y-116661288D01*
X150809859Y-116442946D01*
X150524933Y-116324635D01*
X150216420Y-116324366D01*
X149931288Y-116442180D01*
X149712946Y-116660141D01*
X149594635Y-116945067D01*
X149594366Y-117253580D01*
X149664500Y-117423317D01*
X149664500Y-121467735D01*
X149579859Y-121382946D01*
X149294933Y-121264635D01*
X148986420Y-121264366D01*
X148701288Y-121382180D01*
X148623218Y-121460114D01*
X148624369Y-121213662D01*
X148665365Y-121114933D01*
X148665634Y-120806420D01*
X148547820Y-120521288D01*
X148329859Y-120302946D01*
X148044933Y-120184635D01*
X147736420Y-120184366D01*
X147451288Y-120302180D01*
X147232946Y-120520141D01*
X147114635Y-120805067D01*
X147114366Y-121113580D01*
X147173156Y-121255864D01*
X147167271Y-122515318D01*
X147155185Y-122575000D01*
X147155185Y-123249500D01*
X141834815Y-123249500D01*
X141834815Y-123113444D01*
X141835500Y-123110000D01*
X141835500Y-122439044D01*
X144456500Y-122439044D01*
X144456500Y-122950625D01*
X144627375Y-123121500D01*
X145311500Y-123121500D01*
X145311500Y-122062375D01*
X145468500Y-122062375D01*
X145468500Y-123121500D01*
X146152625Y-123121500D01*
X146323500Y-122950625D01*
X146323500Y-122439044D01*
X146219444Y-122187829D01*
X146027172Y-121995557D01*
X145775957Y-121891500D01*
X145639375Y-121891500D01*
X145468500Y-122062375D01*
X145311500Y-122062375D01*
X145140625Y-121891500D01*
X145004043Y-121891500D01*
X144752828Y-121995557D01*
X144560556Y-122187829D01*
X144456500Y-122439044D01*
X141835500Y-122439044D01*
X141835500Y-121030000D01*
X141780275Y-120752363D01*
X141623006Y-120516994D01*
X140567475Y-119461463D01*
X140517820Y-119341288D01*
X140299859Y-119122946D01*
X140014933Y-119004635D01*
X139706420Y-119004366D01*
X139421288Y-119122180D01*
X139202946Y-119340141D01*
X139084635Y-119625067D01*
X139084366Y-119933580D01*
X139202180Y-120218712D01*
X139420141Y-120437054D01*
X139541388Y-120487400D01*
X140384500Y-121330512D01*
X140384500Y-121467735D01*
X140299859Y-121382946D01*
X140014933Y-121264635D01*
X139706420Y-121264366D01*
X139421288Y-121382180D01*
X139335500Y-121467818D01*
X139335500Y-121245022D01*
X139385365Y-121124933D01*
X139385634Y-120816420D01*
X139267820Y-120531288D01*
X139049859Y-120312946D01*
X138764933Y-120194635D01*
X138456420Y-120194366D01*
X138171288Y-120312180D01*
X137952946Y-120530141D01*
X137834635Y-120815067D01*
X137834366Y-121123580D01*
X137884500Y-121244914D01*
X137884500Y-122479621D01*
X137865185Y-122575000D01*
X137865185Y-123249500D01*
X132554815Y-123249500D01*
X132554815Y-123113444D01*
X132555500Y-123110000D01*
X132555500Y-122439044D01*
X135166500Y-122439044D01*
X135166500Y-122950625D01*
X135337375Y-123121500D01*
X136021500Y-123121500D01*
X136021500Y-122062375D01*
X136178500Y-122062375D01*
X136178500Y-123121500D01*
X136862625Y-123121500D01*
X137033500Y-122950625D01*
X137033500Y-122439044D01*
X136929444Y-122187829D01*
X136737172Y-121995557D01*
X136485957Y-121891500D01*
X136349375Y-121891500D01*
X136178500Y-122062375D01*
X136021500Y-122062375D01*
X135850625Y-121891500D01*
X135714043Y-121891500D01*
X135462828Y-121995557D01*
X135270556Y-122187829D01*
X135166500Y-122439044D01*
X132555500Y-122439044D01*
X132555500Y-120045022D01*
X132605365Y-119924933D01*
X132605634Y-119616420D01*
X132487820Y-119331288D01*
X132269859Y-119112946D01*
X131984933Y-118994635D01*
X131676420Y-118994366D01*
X131391288Y-119112180D01*
X131172946Y-119330141D01*
X131054635Y-119615067D01*
X131054366Y-119923580D01*
X131104500Y-120044914D01*
X131104500Y-121467735D01*
X131019859Y-121382946D01*
X130734933Y-121264635D01*
X130426420Y-121264366D01*
X130141288Y-121382180D01*
X130063218Y-121460114D01*
X130064208Y-121248133D01*
X130115365Y-121124933D01*
X130115634Y-120816420D01*
X129997820Y-120531288D01*
X129779859Y-120312946D01*
X129494933Y-120194635D01*
X129186420Y-120194366D01*
X128901288Y-120312180D01*
X128682946Y-120530141D01*
X128564635Y-120815067D01*
X128564366Y-121123580D01*
X128613222Y-121241821D01*
X128607794Y-122403354D01*
X128585185Y-122515000D01*
X128585185Y-123249500D01*
X127613625Y-123249500D01*
X127582625Y-123218500D01*
X126898500Y-123218500D01*
X126898500Y-123238500D01*
X126741500Y-123238500D01*
X126741500Y-123218500D01*
X126721500Y-123218500D01*
X126721500Y-123061500D01*
X126741500Y-123061500D01*
X126741500Y-122002375D01*
X126898500Y-122002375D01*
X126898500Y-123061500D01*
X127582625Y-123061500D01*
X127753500Y-122890625D01*
X127753500Y-122379044D01*
X127649444Y-122127829D01*
X127457172Y-121935557D01*
X127205957Y-121831500D01*
X127069375Y-121831500D01*
X126898500Y-122002375D01*
X126741500Y-122002375D01*
X126570625Y-121831500D01*
X126434043Y-121831500D01*
X126182828Y-121935557D01*
X125990556Y-122127829D01*
X125990500Y-122127964D01*
X125990500Y-121210000D01*
X125948596Y-120999333D01*
X125948596Y-120999332D01*
X125829262Y-120820738D01*
X125739265Y-120730741D01*
X125739263Y-120730738D01*
X124496622Y-119488097D01*
X124959301Y-119025418D01*
X125042802Y-118903210D01*
X125997873Y-117948139D01*
X128599327Y-117948139D01*
X128751323Y-118315997D01*
X129032522Y-118597688D01*
X129400115Y-118750326D01*
X129798139Y-118750673D01*
X130165997Y-118598677D01*
X130447688Y-118317478D01*
X130600187Y-117950220D01*
X130751323Y-118315997D01*
X131032522Y-118597688D01*
X131400115Y-118750326D01*
X131798139Y-118750673D01*
X132165997Y-118598677D01*
X132447688Y-118317478D01*
X132600187Y-117950220D01*
X132751323Y-118315997D01*
X133032522Y-118597688D01*
X133400115Y-118750326D01*
X133798139Y-118750673D01*
X134165997Y-118598677D01*
X134447688Y-118317478D01*
X134600187Y-117950220D01*
X134751323Y-118315997D01*
X135032522Y-118597688D01*
X135400115Y-118750326D01*
X135798139Y-118750673D01*
X136165997Y-118598677D01*
X136447688Y-118317478D01*
X136600187Y-117950220D01*
X136751323Y-118315997D01*
X137032522Y-118597688D01*
X137400115Y-118750326D01*
X137798139Y-118750673D01*
X138165997Y-118598677D01*
X138447688Y-118317478D01*
X138600187Y-117950220D01*
X138751323Y-118315997D01*
X139032522Y-118597688D01*
X139400115Y-118750326D01*
X139798139Y-118750673D01*
X140165997Y-118598677D01*
X140447688Y-118317478D01*
X140600187Y-117950220D01*
X140751323Y-118315997D01*
X141032522Y-118597688D01*
X141400115Y-118750326D01*
X141798139Y-118750673D01*
X142165997Y-118598677D01*
X142447688Y-118317478D01*
X142600187Y-117950220D01*
X142751323Y-118315997D01*
X143032522Y-118597688D01*
X143400115Y-118750326D01*
X143798139Y-118750673D01*
X144165997Y-118598677D01*
X144447688Y-118317478D01*
X144600187Y-117950220D01*
X144751323Y-118315997D01*
X145032522Y-118597688D01*
X145400115Y-118750326D01*
X145798139Y-118750673D01*
X146165997Y-118598677D01*
X146447688Y-118317478D01*
X146590185Y-117974307D01*
X146590185Y-118275000D01*
X146623341Y-118451210D01*
X146727481Y-118613047D01*
X146886380Y-118721618D01*
X147075000Y-118759815D01*
X148125000Y-118759815D01*
X148301210Y-118726659D01*
X148463047Y-118622519D01*
X148571618Y-118463620D01*
X148609815Y-118275000D01*
X148609815Y-117225000D01*
X148576659Y-117048790D01*
X148472519Y-116886953D01*
X148313620Y-116778382D01*
X148125000Y-116740185D01*
X147075000Y-116740185D01*
X146898790Y-116773341D01*
X146736953Y-116877481D01*
X146628382Y-117036380D01*
X146590185Y-117225000D01*
X146590185Y-117526478D01*
X146448677Y-117184003D01*
X146167478Y-116902312D01*
X145799885Y-116749674D01*
X145401861Y-116749327D01*
X145034003Y-116901323D01*
X144752312Y-117182522D01*
X144599813Y-117549780D01*
X144448677Y-117184003D01*
X144167478Y-116902312D01*
X143799885Y-116749674D01*
X143401861Y-116749327D01*
X143034003Y-116901323D01*
X142752312Y-117182522D01*
X142599813Y-117549780D01*
X142448677Y-117184003D01*
X142167478Y-116902312D01*
X141799885Y-116749674D01*
X141401861Y-116749327D01*
X141034003Y-116901323D01*
X140752312Y-117182522D01*
X140599813Y-117549780D01*
X140448677Y-117184003D01*
X140167478Y-116902312D01*
X139799885Y-116749674D01*
X139401861Y-116749327D01*
X139034003Y-116901323D01*
X138752312Y-117182522D01*
X138599813Y-117549780D01*
X138448677Y-117184003D01*
X138167478Y-116902312D01*
X137799885Y-116749674D01*
X137401861Y-116749327D01*
X137034003Y-116901323D01*
X136752312Y-117182522D01*
X136599813Y-117549780D01*
X136448677Y-117184003D01*
X136167478Y-116902312D01*
X135799885Y-116749674D01*
X135401861Y-116749327D01*
X135034003Y-116901323D01*
X134752312Y-117182522D01*
X134599813Y-117549780D01*
X134448677Y-117184003D01*
X134325500Y-117060610D01*
X134325500Y-112975000D01*
X134270275Y-112697363D01*
X134113006Y-112461994D01*
X132538006Y-110886994D01*
X132302637Y-110729725D01*
X132088753Y-110687181D01*
X132072519Y-110661953D01*
X131913620Y-110553382D01*
X131725000Y-110515185D01*
X130825000Y-110515185D01*
X130648790Y-110548341D01*
X130486953Y-110652481D01*
X130408500Y-110767301D01*
X130408500Y-110699375D01*
X130237625Y-110528500D01*
X129353500Y-110528500D01*
X129353500Y-111362625D01*
X129524375Y-111533500D01*
X129860957Y-111533500D01*
X130112172Y-111429443D01*
X130304444Y-111237171D01*
X130340185Y-111150884D01*
X130340185Y-111800000D01*
X130373341Y-111976210D01*
X130477481Y-112138047D01*
X130636380Y-112246618D01*
X130825000Y-112284815D01*
X131725000Y-112284815D01*
X131858654Y-112259666D01*
X132874500Y-113275512D01*
X132874500Y-117060547D01*
X132752312Y-117182522D01*
X132599813Y-117549780D01*
X132448677Y-117184003D01*
X132167478Y-116902312D01*
X131799885Y-116749674D01*
X131401861Y-116749327D01*
X131034003Y-116901323D01*
X130752312Y-117182522D01*
X130599813Y-117549780D01*
X130448677Y-117184003D01*
X130167478Y-116902312D01*
X129799885Y-116749674D01*
X129401861Y-116749327D01*
X129034003Y-116901323D01*
X128752312Y-117182522D01*
X128599674Y-117550115D01*
X128599327Y-117948139D01*
X125997873Y-117948139D01*
X126728537Y-117217475D01*
X126848712Y-117167820D01*
X127067054Y-116949859D01*
X127185365Y-116664933D01*
X127185634Y-116356420D01*
X127067820Y-116071288D01*
X126849859Y-115852946D01*
X126564933Y-115734635D01*
X126256420Y-115734366D01*
X125971288Y-115852180D01*
X125752946Y-116070141D01*
X125702600Y-116191388D01*
X124745536Y-117148452D01*
X124745634Y-117036420D01*
X124627820Y-116751288D01*
X124409859Y-116532946D01*
X124124933Y-116414635D01*
X123991493Y-116414519D01*
X124188537Y-116217475D01*
X124308712Y-116167820D01*
X124527054Y-115949859D01*
X124645365Y-115664933D01*
X124645634Y-115356420D01*
X124527820Y-115071288D01*
X124309859Y-114852946D01*
X124024933Y-114734635D01*
X123716420Y-114734366D01*
X123431288Y-114852180D01*
X123212946Y-115070141D01*
X123162600Y-115191388D01*
X121837131Y-116516857D01*
X121806994Y-116536994D01*
X121752973Y-116617842D01*
X121689670Y-116681145D01*
X120420758Y-115412233D01*
X120573249Y-115412233D01*
X121056998Y-115895982D01*
X121298652Y-115895982D01*
X121468123Y-115726512D01*
X121660394Y-115534240D01*
X121764451Y-115283025D01*
X121764451Y-115011112D01*
X121660395Y-114759897D01*
X121563817Y-114663319D01*
X121322163Y-114663319D01*
X120573249Y-115412233D01*
X120420758Y-115412233D01*
X119584339Y-114575814D01*
X119978484Y-114575814D01*
X119978484Y-114817468D01*
X120462233Y-115301217D01*
X121211147Y-114552303D01*
X121211147Y-114310649D01*
X121114569Y-114214071D01*
X120863354Y-114110015D01*
X120591441Y-114110015D01*
X120340226Y-114214072D01*
X120147954Y-114406343D01*
X119978484Y-114575814D01*
X119584339Y-114575814D01*
X118928524Y-113920000D01*
X120229262Y-112619262D01*
X120348596Y-112440668D01*
X120390500Y-112230000D01*
X120390500Y-110699375D01*
X128141500Y-110699375D01*
X128141500Y-110985956D01*
X128245556Y-111237171D01*
X128437828Y-111429443D01*
X128689043Y-111533500D01*
X129025625Y-111533500D01*
X129196500Y-111362625D01*
X129196500Y-110528500D01*
X128312375Y-110528500D01*
X128141500Y-110699375D01*
X120390500Y-110699375D01*
X120390500Y-109994815D01*
X121085000Y-109994815D01*
X121187651Y-109975500D01*
X123719061Y-109975500D01*
X123815067Y-110015365D01*
X124123580Y-110015634D01*
X124369446Y-109914044D01*
X128141500Y-109914044D01*
X128141500Y-110200625D01*
X128312375Y-110371500D01*
X129196500Y-110371500D01*
X129196500Y-109537375D01*
X129353500Y-109537375D01*
X129353500Y-110371500D01*
X130237625Y-110371500D01*
X130408500Y-110200625D01*
X130408500Y-110130848D01*
X130477481Y-110238047D01*
X130636380Y-110346618D01*
X130825000Y-110384815D01*
X131725000Y-110384815D01*
X131901210Y-110351659D01*
X132063047Y-110247519D01*
X132171618Y-110088620D01*
X132209815Y-109900000D01*
X132209815Y-109100000D01*
X132176659Y-108923790D01*
X132072519Y-108761953D01*
X131913620Y-108653382D01*
X131725000Y-108615185D01*
X130825000Y-108615185D01*
X130648790Y-108648341D01*
X130486953Y-108752481D01*
X130378382Y-108911380D01*
X130340185Y-109100000D01*
X130340185Y-109749116D01*
X130304444Y-109662829D01*
X130112172Y-109470557D01*
X129860957Y-109366500D01*
X129524375Y-109366500D01*
X129353500Y-109537375D01*
X129196500Y-109537375D01*
X129025625Y-109366500D01*
X128689043Y-109366500D01*
X128437828Y-109470557D01*
X128245556Y-109662829D01*
X128141500Y-109914044D01*
X124369446Y-109914044D01*
X124408712Y-109897820D01*
X124627054Y-109679859D01*
X124745365Y-109394933D01*
X124745634Y-109086420D01*
X124627820Y-108801288D01*
X124409859Y-108582946D01*
X124124933Y-108464635D01*
X123816420Y-108464366D01*
X123670884Y-108524500D01*
X122202265Y-108524500D01*
X122287054Y-108439859D01*
X122405365Y-108154933D01*
X122405634Y-107846420D01*
X122287820Y-107561288D01*
X122202182Y-107475500D01*
X122494978Y-107475500D01*
X122615067Y-107525365D01*
X122923580Y-107525634D01*
X123208712Y-107407820D01*
X123427054Y-107189859D01*
X123545365Y-106904933D01*
X123545634Y-106596420D01*
X123427820Y-106311288D01*
X123209859Y-106092946D01*
X122924933Y-105974635D01*
X122616420Y-105974366D01*
X122495086Y-106024500D01*
X120550000Y-106024500D01*
X120546556Y-106025185D01*
X120390500Y-106025185D01*
X120390500Y-104338500D01*
X120538500Y-104338500D01*
X120538500Y-105022625D01*
X120709375Y-105193500D01*
X121220956Y-105193500D01*
X121472171Y-105089444D01*
X121664443Y-104897172D01*
X121768500Y-104645957D01*
X121768500Y-104509375D01*
X121597625Y-104338500D01*
X120538500Y-104338500D01*
X120390500Y-104338500D01*
X120390500Y-103497375D01*
X120538500Y-103497375D01*
X120538500Y-104181500D01*
X121597625Y-104181500D01*
X121768500Y-104010625D01*
X121768500Y-103874043D01*
X121664443Y-103622828D01*
X121472171Y-103430556D01*
X121220956Y-103326500D01*
X120709375Y-103326500D01*
X120538500Y-103497375D01*
X120390500Y-103497375D01*
X120390500Y-101260000D01*
X120348596Y-101049333D01*
X120290362Y-100962180D01*
X120229263Y-100870738D01*
X118958524Y-99600000D01*
X119931903Y-98626622D01*
X120404582Y-99099301D01*
X120432072Y-99118084D01*
X123252525Y-101938537D01*
X123302180Y-102058712D01*
X123520141Y-102277054D01*
X123805067Y-102395365D01*
X124113580Y-102395634D01*
X124398712Y-102277820D01*
X124617054Y-102059859D01*
X124735365Y-101774933D01*
X124735634Y-101466420D01*
X124617820Y-101181288D01*
X124399859Y-100962946D01*
X124278612Y-100912600D01*
X122231540Y-98865528D01*
X122353580Y-98865634D01*
X122638712Y-98747820D01*
X122857054Y-98529859D01*
X122975365Y-98244933D01*
X122975473Y-98121485D01*
X123112525Y-98258537D01*
X123162180Y-98378712D01*
X123380141Y-98597054D01*
X123665067Y-98715365D01*
X123973580Y-98715634D01*
X124258712Y-98597820D01*
X124477054Y-98379859D01*
X124595365Y-98094933D01*
X124595634Y-97786420D01*
X124477820Y-97501288D01*
X124259859Y-97282946D01*
X124138612Y-97232600D01*
X123237473Y-96331461D01*
X123211534Y-96292349D01*
X122738855Y-95819670D01*
X123361526Y-95196998D01*
X123534018Y-95196998D01*
X123534018Y-95438652D01*
X123703488Y-95608123D01*
X123895760Y-95800394D01*
X124146975Y-95904451D01*
X124418888Y-95904451D01*
X124670103Y-95800395D01*
X124766681Y-95703817D01*
X124766681Y-95462163D01*
X124017767Y-94713249D01*
X123534018Y-95196998D01*
X123361526Y-95196998D01*
X123956291Y-94602233D01*
X124128783Y-94602233D01*
X124877697Y-95351147D01*
X125119351Y-95351147D01*
X125215929Y-95254569D01*
X125319985Y-95003354D01*
X125319985Y-94731441D01*
X125215928Y-94480226D01*
X125023657Y-94287954D01*
X124854186Y-94118484D01*
X124612532Y-94118484D01*
X124128783Y-94602233D01*
X123956291Y-94602233D01*
X125719262Y-92839262D01*
X125838596Y-92660668D01*
X125880500Y-92450000D01*
X125880500Y-90240500D01*
X126095185Y-90240500D01*
X126095185Y-90915000D01*
X126095185Y-90915000D01*
G37*
X126095185Y-90915000D02*
X126104500Y-90964505D01*
X126104500Y-96300895D01*
X126044635Y-96445067D01*
X126044366Y-96753580D01*
X126162180Y-97038712D01*
X126380141Y-97257054D01*
X126665067Y-97375365D01*
X126973580Y-97375634D01*
X127258712Y-97257820D01*
X127477054Y-97039859D01*
X127595365Y-96754933D01*
X127595540Y-96553905D01*
X128907110Y-96553905D01*
X128940724Y-96790968D01*
X129389269Y-96964023D01*
X129869897Y-96952254D01*
X130259276Y-96790968D01*
X130292890Y-96553905D01*
X129600000Y-95861016D01*
X128907110Y-96553905D01*
X127595540Y-96553905D01*
X127595634Y-96446420D01*
X127555500Y-96349288D01*
X127555500Y-95539269D01*
X128385977Y-95539269D01*
X128397746Y-96019897D01*
X128559032Y-96409276D01*
X128796095Y-96442890D01*
X129488984Y-95750000D01*
X129711016Y-95750000D01*
X130403905Y-96442890D01*
X130640968Y-96409276D01*
X130712866Y-96222923D01*
X130751323Y-96315997D01*
X131032522Y-96597688D01*
X131400115Y-96750326D01*
X131798139Y-96750673D01*
X132165997Y-96598677D01*
X132447688Y-96317478D01*
X132600187Y-95950220D01*
X132751323Y-96315997D01*
X133032522Y-96597688D01*
X133400115Y-96750326D01*
X133798139Y-96750673D01*
X134165997Y-96598677D01*
X134447688Y-96317478D01*
X134600187Y-95950220D01*
X134751323Y-96315997D01*
X135032522Y-96597688D01*
X135400115Y-96750326D01*
X135798139Y-96750673D01*
X136165997Y-96598677D01*
X136447688Y-96317478D01*
X136600187Y-95950220D01*
X136751323Y-96315997D01*
X137032522Y-96597688D01*
X137400115Y-96750326D01*
X137798139Y-96750673D01*
X138165997Y-96598677D01*
X138447688Y-96317478D01*
X138600187Y-95950220D01*
X138751323Y-96315997D01*
X139032522Y-96597688D01*
X139400115Y-96750326D01*
X139798139Y-96750673D01*
X140165997Y-96598677D01*
X140447688Y-96317478D01*
X140600187Y-95950220D01*
X140751323Y-96315997D01*
X141032522Y-96597688D01*
X141400115Y-96750326D01*
X141798139Y-96750673D01*
X142165997Y-96598677D01*
X142447688Y-96317478D01*
X142600187Y-95950220D01*
X142751323Y-96315997D01*
X143032522Y-96597688D01*
X143400115Y-96750326D01*
X143798139Y-96750673D01*
X144165997Y-96598677D01*
X144447688Y-96317478D01*
X144600187Y-95950220D01*
X144751323Y-96315997D01*
X145032522Y-96597688D01*
X145400115Y-96750326D01*
X145798139Y-96750673D01*
X146165997Y-96598677D01*
X146447688Y-96317478D01*
X146590185Y-95974307D01*
X146590185Y-96275000D01*
X146623341Y-96451210D01*
X146727481Y-96613047D01*
X146886380Y-96721618D01*
X147075000Y-96759815D01*
X148125000Y-96759815D01*
X148301210Y-96726659D01*
X148463047Y-96622519D01*
X148571618Y-96463620D01*
X148609815Y-96275000D01*
X148609815Y-95225000D01*
X148576659Y-95048790D01*
X148472519Y-94886953D01*
X148313620Y-94778382D01*
X148125000Y-94740185D01*
X147075000Y-94740185D01*
X146898790Y-94773341D01*
X146736953Y-94877481D01*
X146628382Y-95036380D01*
X146590185Y-95225000D01*
X146590185Y-95526478D01*
X146448677Y-95184003D01*
X146167478Y-94902312D01*
X145799885Y-94749674D01*
X145401861Y-94749327D01*
X145034003Y-94901323D01*
X144752312Y-95182522D01*
X144599813Y-95549780D01*
X144448677Y-95184003D01*
X144167478Y-94902312D01*
X143799885Y-94749674D01*
X143401861Y-94749327D01*
X143034003Y-94901323D01*
X142752312Y-95182522D01*
X142599813Y-95549780D01*
X142448677Y-95184003D01*
X142167478Y-94902312D01*
X141799885Y-94749674D01*
X141401861Y-94749327D01*
X141034003Y-94901323D01*
X140752312Y-95182522D01*
X140599813Y-95549780D01*
X140448677Y-95184003D01*
X140167478Y-94902312D01*
X139799885Y-94749674D01*
X139401861Y-94749327D01*
X139034003Y-94901323D01*
X138752312Y-95182522D01*
X138599813Y-95549780D01*
X138448677Y-95184003D01*
X138167478Y-94902312D01*
X137799885Y-94749674D01*
X137401861Y-94749327D01*
X137034003Y-94901323D01*
X136752312Y-95182522D01*
X136599813Y-95549780D01*
X136448677Y-95184003D01*
X136167478Y-94902312D01*
X135799885Y-94749674D01*
X135401861Y-94749327D01*
X135034003Y-94901323D01*
X134752312Y-95182522D01*
X134599813Y-95549780D01*
X134448677Y-95184003D01*
X134167478Y-94902312D01*
X133799885Y-94749674D01*
X133401861Y-94749327D01*
X133034003Y-94901323D01*
X132752312Y-95182522D01*
X132599813Y-95549780D01*
X132448677Y-95184003D01*
X132167478Y-94902312D01*
X131799885Y-94749674D01*
X131401861Y-94749327D01*
X131034003Y-94901323D01*
X130752312Y-95182522D01*
X130715607Y-95270918D01*
X130640968Y-95090724D01*
X130403905Y-95057110D01*
X129711016Y-95750000D01*
X129488984Y-95750000D01*
X128796095Y-95057110D01*
X128559032Y-95090724D01*
X128385977Y-95539269D01*
X127555500Y-95539269D01*
X127555500Y-94946095D01*
X128907110Y-94946095D01*
X129600000Y-95638984D01*
X130292890Y-94946095D01*
X130259276Y-94709032D01*
X129810731Y-94535977D01*
X129330103Y-94547746D01*
X128940724Y-94709032D01*
X128907110Y-94946095D01*
X127555500Y-94946095D01*
X127555500Y-92132265D01*
X127640141Y-92217054D01*
X127925067Y-92335365D01*
X128233580Y-92335634D01*
X128518712Y-92217820D01*
X128604500Y-92132182D01*
X128604500Y-92154978D01*
X128554635Y-92275067D01*
X128554366Y-92583580D01*
X128672180Y-92868712D01*
X128890141Y-93087054D01*
X129175067Y-93205365D01*
X129483580Y-93205634D01*
X129768712Y-93087820D01*
X129987054Y-92869859D01*
X130105365Y-92584933D01*
X130105634Y-92276420D01*
X130055500Y-92155086D01*
X130055500Y-90960998D01*
X130064815Y-90915000D01*
X130064815Y-90539375D01*
X130896500Y-90539375D01*
X130896500Y-91050956D01*
X131000556Y-91302171D01*
X131192828Y-91494443D01*
X131444043Y-91598500D01*
X131580625Y-91598500D01*
X131751500Y-91427625D01*
X131751500Y-90368500D01*
X131908500Y-90368500D01*
X131908500Y-91427625D01*
X132079375Y-91598500D01*
X132215957Y-91598500D01*
X132467172Y-91494443D01*
X132659444Y-91302171D01*
X132763500Y-91050956D01*
X132763500Y-90539375D01*
X132592625Y-90368500D01*
X131908500Y-90368500D01*
X131751500Y-90368500D01*
X131067375Y-90368500D01*
X130896500Y-90539375D01*
X130064815Y-90539375D01*
X130064815Y-90240500D01*
X135375185Y-90240500D01*
X135375185Y-90945000D01*
X135384500Y-90994505D01*
X135384500Y-93314978D01*
X135334635Y-93435067D01*
X135334366Y-93743580D01*
X135452180Y-94028712D01*
X135670141Y-94247054D01*
X135955067Y-94365365D01*
X136263580Y-94365634D01*
X136384914Y-94315500D01*
X143324978Y-94315500D01*
X143445067Y-94365365D01*
X143753580Y-94365634D01*
X143874914Y-94315500D01*
X144770000Y-94315500D01*
X145047637Y-94260275D01*
X145283006Y-94103006D01*
X145903006Y-93483006D01*
X146060275Y-93247637D01*
X146115500Y-92970000D01*
X146115500Y-92142283D01*
X146190141Y-92217054D01*
X146475067Y-92335365D01*
X146783580Y-92335634D01*
X147068712Y-92217820D01*
X147164500Y-92122199D01*
X147164500Y-92154978D01*
X147114635Y-92275067D01*
X147114366Y-92583580D01*
X147232180Y-92868712D01*
X147450141Y-93087054D01*
X147735067Y-93205365D01*
X148043580Y-93205634D01*
X148328712Y-93087820D01*
X148547054Y-92869859D01*
X148665365Y-92584933D01*
X148665634Y-92276420D01*
X148615500Y-92155086D01*
X148615500Y-90549375D01*
X149446500Y-90549375D01*
X149446500Y-91060956D01*
X149550556Y-91312171D01*
X149742828Y-91504443D01*
X149994043Y-91608500D01*
X150130625Y-91608500D01*
X150301500Y-91437625D01*
X150301500Y-90378500D01*
X149617375Y-90378500D01*
X149446500Y-90549375D01*
X148615500Y-90549375D01*
X148615500Y-90390000D01*
X148614815Y-90386556D01*
X148614815Y-90240500D01*
X150478500Y-90240500D01*
X150478500Y-90378500D01*
X150458500Y-90378500D01*
X150458500Y-91437625D01*
X150629375Y-91608500D01*
X150765957Y-91608500D01*
X151017172Y-91504443D01*
X151209444Y-91312171D01*
X151299500Y-91094755D01*
X151299500Y-92390000D01*
X151341404Y-92600668D01*
X151460738Y-92779262D01*
X152728378Y-94046903D01*
X152618658Y-94156623D01*
X152614761Y-94159227D01*
X150651463Y-96122525D01*
X150531288Y-96172180D01*
X150312946Y-96390141D01*
X150262600Y-96511388D01*
X150111994Y-96661994D01*
X149954725Y-96897363D01*
X149899500Y-97175000D01*
X149899500Y-100184488D01*
X147749488Y-102334500D01*
X147025500Y-102334500D01*
X147025500Y-101500022D01*
X147075365Y-101379933D01*
X147075634Y-101071420D01*
X146957820Y-100786288D01*
X146739859Y-100567946D01*
X146454933Y-100449635D01*
X146146420Y-100449366D01*
X145861288Y-100567180D01*
X145642946Y-100785141D01*
X145524635Y-101070067D01*
X145524366Y-101378580D01*
X145574500Y-101499914D01*
X145574500Y-102334500D01*
X141179293Y-102334500D01*
X141038620Y-102238382D01*
X140850000Y-102200185D01*
X140050000Y-102200185D01*
X139873790Y-102233341D01*
X139868415Y-102236800D01*
X139737172Y-102105557D01*
X139485957Y-102001500D01*
X139199375Y-102001500D01*
X139028500Y-102172375D01*
X139028500Y-102981500D01*
X139048500Y-102981500D01*
X139048500Y-103138500D01*
X139028500Y-103138500D01*
X139028500Y-103158500D01*
X138871500Y-103158500D01*
X138871500Y-103138500D01*
X138851500Y-103138500D01*
X138851500Y-102981500D01*
X138871500Y-102981500D01*
X138871500Y-102172375D01*
X138700625Y-102001500D01*
X138414043Y-102001500D01*
X138162828Y-102105557D01*
X138015500Y-102252885D01*
X138015500Y-101665000D01*
X137964081Y-101406497D01*
X137817651Y-101187349D01*
X137357265Y-100726963D01*
X137257820Y-100486288D01*
X137039859Y-100267946D01*
X136754933Y-100149635D01*
X136446420Y-100149366D01*
X136161288Y-100267180D01*
X135942946Y-100485141D01*
X135857270Y-100691472D01*
X135782820Y-100511288D01*
X135564859Y-100292946D01*
X135279933Y-100174635D01*
X134971420Y-100174366D01*
X134686288Y-100292180D01*
X134467946Y-100510141D01*
X134349635Y-100795067D01*
X134349366Y-101103580D01*
X134467180Y-101388712D01*
X134685141Y-101607054D01*
X134970067Y-101725365D01*
X135278580Y-101725634D01*
X135563712Y-101607820D01*
X135782054Y-101389859D01*
X135867730Y-101183528D01*
X135942180Y-101363712D01*
X136160141Y-101582054D01*
X136402308Y-101682610D01*
X136664500Y-101944802D01*
X136664500Y-104975185D01*
X136290000Y-104975185D01*
X136134492Y-105004446D01*
X135990000Y-104975185D01*
X135490000Y-104975185D01*
X135313790Y-105008341D01*
X135151953Y-105112481D01*
X135043382Y-105271380D01*
X135005185Y-105460000D01*
X135005185Y-105778200D01*
X134910557Y-105872828D01*
X134806500Y-106124043D01*
X134806500Y-106260625D01*
X134977375Y-106431500D01*
X135424249Y-106431500D01*
X135490000Y-106444815D01*
X135838500Y-106444815D01*
X135838500Y-106544885D01*
X135808200Y-106575185D01*
X135490000Y-106575185D01*
X135419236Y-106588500D01*
X134977375Y-106588500D01*
X134941375Y-106624500D01*
X133242115Y-106624500D01*
X133429443Y-106437172D01*
X133533500Y-106185957D01*
X133533500Y-106049375D01*
X133362625Y-105878500D01*
X132478500Y-105878500D01*
X132478500Y-105898500D01*
X132321500Y-105898500D01*
X132321500Y-105878500D01*
X132301500Y-105878500D01*
X132301500Y-105721500D01*
X132321500Y-105721500D01*
X132321500Y-105037375D01*
X132478500Y-105037375D01*
X132478500Y-105721500D01*
X133362625Y-105721500D01*
X133533500Y-105550625D01*
X133533500Y-105414043D01*
X133429443Y-105162828D01*
X133237171Y-104970556D01*
X132985956Y-104866500D01*
X132649375Y-104866500D01*
X132478500Y-105037375D01*
X132321500Y-105037375D01*
X132169713Y-104885588D01*
X134023036Y-103032265D01*
X134263712Y-102932820D01*
X134482054Y-102714859D01*
X134600365Y-102429933D01*
X134600634Y-102121420D01*
X134482820Y-101836288D01*
X134264859Y-101617946D01*
X133979933Y-101499635D01*
X133671420Y-101499366D01*
X133386288Y-101617180D01*
X133167946Y-101835141D01*
X133067389Y-102077310D01*
X130347349Y-104797349D01*
X130200919Y-105016497D01*
X130149499Y-105275000D01*
X130149500Y-105275005D01*
X130149500Y-107174995D01*
X130149499Y-107175000D01*
X130200919Y-107433503D01*
X130347349Y-107652651D01*
X130472347Y-107777648D01*
X130472349Y-107777651D01*
X130691497Y-107924081D01*
X130734386Y-107932612D01*
X130950000Y-107975501D01*
X130950005Y-107975500D01*
X131730473Y-107975500D01*
X131761380Y-107996618D01*
X131950000Y-108034815D01*
X132850000Y-108034815D01*
X133026210Y-108001659D01*
X133066862Y-107975500D01*
X135255837Y-107975500D01*
X135301380Y-108006618D01*
X135490000Y-108044815D01*
X135808200Y-108044815D01*
X135902829Y-108139444D01*
X136154044Y-108243500D01*
X136290625Y-108243500D01*
X136461500Y-108072625D01*
X136461500Y-107828738D01*
X136510557Y-107947172D01*
X136618500Y-108055115D01*
X136618500Y-108072625D01*
X136789375Y-108243500D01*
X136925956Y-108243500D01*
X136940000Y-108237683D01*
X136954044Y-108243500D01*
X137090625Y-108243500D01*
X137261500Y-108072625D01*
X137261500Y-108055115D01*
X137340000Y-107976615D01*
X137418500Y-108055115D01*
X137418500Y-108072625D01*
X137589375Y-108243500D01*
X137725956Y-108243500D01*
X137740000Y-108237683D01*
X137754044Y-108243500D01*
X137890625Y-108243500D01*
X138061500Y-108072625D01*
X138061500Y-108055115D01*
X138169443Y-107947172D01*
X138214500Y-107838395D01*
X138214500Y-109165842D01*
X138211953Y-109167481D01*
X138103382Y-109326380D01*
X138065185Y-109515000D01*
X138065185Y-110265000D01*
X138098341Y-110441210D01*
X138202481Y-110603047D01*
X138361380Y-110711618D01*
X138550000Y-110749815D01*
X139350000Y-110749815D01*
X139526210Y-110716659D01*
X139531585Y-110713200D01*
X139662828Y-110844443D01*
X139914043Y-110948500D01*
X140200625Y-110948500D01*
X140371500Y-110777625D01*
X140371500Y-109968500D01*
X140528500Y-109968500D01*
X140528500Y-110777625D01*
X140699375Y-110948500D01*
X140985957Y-110948500D01*
X141237172Y-110844443D01*
X141429444Y-110652171D01*
X141533500Y-110400956D01*
X141533500Y-110139375D01*
X141362625Y-109968500D01*
X140528500Y-109968500D01*
X140371500Y-109968500D01*
X140351500Y-109968500D01*
X140351500Y-109811500D01*
X140371500Y-109811500D01*
X140371500Y-109002375D01*
X140528500Y-109002375D01*
X140528500Y-109811500D01*
X141362625Y-109811500D01*
X141533500Y-109640625D01*
X141533500Y-109499375D01*
X155411500Y-109499375D01*
X155411500Y-109635957D01*
X155515557Y-109887172D01*
X155707829Y-110079444D01*
X155959044Y-110183500D01*
X156470625Y-110183500D01*
X156641500Y-110012625D01*
X156641500Y-109328500D01*
X155582375Y-109328500D01*
X155411500Y-109499375D01*
X141533500Y-109499375D01*
X141533500Y-109379044D01*
X141429444Y-109127829D01*
X141237172Y-108935557D01*
X140985957Y-108831500D01*
X140699375Y-108831500D01*
X140528500Y-109002375D01*
X140371500Y-109002375D01*
X140200625Y-108831500D01*
X139914043Y-108831500D01*
X139665500Y-108934450D01*
X139665500Y-108278580D01*
X144199366Y-108278580D01*
X144317180Y-108563712D01*
X144535141Y-108782054D01*
X144656388Y-108832400D01*
X144686994Y-108863006D01*
X144922363Y-109020275D01*
X145200000Y-109075500D01*
X149869407Y-109075500D01*
X149877481Y-109088047D01*
X150036380Y-109196618D01*
X150225000Y-109234815D01*
X151025000Y-109234815D01*
X151201210Y-109201659D01*
X151363047Y-109097519D01*
X151471618Y-108938620D01*
X151486720Y-108864043D01*
X155411500Y-108864043D01*
X155411500Y-109000625D01*
X155582375Y-109171500D01*
X156641500Y-109171500D01*
X156641500Y-108487375D01*
X156470625Y-108316500D01*
X155959044Y-108316500D01*
X155707829Y-108420556D01*
X155515557Y-108612828D01*
X155411500Y-108864043D01*
X151486720Y-108864043D01*
X151509815Y-108750000D01*
X151509815Y-107950000D01*
X151476659Y-107773790D01*
X151372519Y-107611953D01*
X151281674Y-107549881D01*
X151363047Y-107497519D01*
X151471618Y-107338620D01*
X151509815Y-107150000D01*
X151509815Y-106350000D01*
X151476659Y-106173790D01*
X151372519Y-106011953D01*
X151350500Y-105996908D01*
X151350500Y-105537767D01*
X151413047Y-105497519D01*
X151521618Y-105338620D01*
X151559815Y-105150000D01*
X151559815Y-104650000D01*
X151526659Y-104473790D01*
X151422519Y-104311953D01*
X151263620Y-104203382D01*
X151075000Y-104165185D01*
X150175000Y-104165185D01*
X149998790Y-104198341D01*
X149836953Y-104302481D01*
X149728382Y-104461380D01*
X149690185Y-104650000D01*
X149690185Y-105150000D01*
X149723341Y-105326210D01*
X149827481Y-105488047D01*
X149899500Y-105537255D01*
X149899500Y-105994407D01*
X149886953Y-106002481D01*
X149778382Y-106161380D01*
X149740185Y-106350000D01*
X149740185Y-107150000D01*
X149773341Y-107326210D01*
X149877481Y-107488047D01*
X149968326Y-107550119D01*
X149886953Y-107602481D01*
X149871908Y-107624500D01*
X145571140Y-107624500D01*
X145414859Y-107467946D01*
X145129933Y-107349635D01*
X144821420Y-107349366D01*
X144536288Y-107467180D01*
X144317946Y-107685141D01*
X144199635Y-107970067D01*
X144199366Y-108278580D01*
X139665500Y-108278580D01*
X139665500Y-107985500D01*
X140159995Y-107985500D01*
X140160000Y-107985501D01*
X140418503Y-107934081D01*
X140637651Y-107787651D01*
X140927651Y-107497651D01*
X141074081Y-107278503D01*
X141125501Y-107020000D01*
X141125500Y-107019995D01*
X141125500Y-106878580D01*
X145524366Y-106878580D01*
X145642180Y-107163712D01*
X145860141Y-107382054D01*
X146145067Y-107500365D01*
X146453580Y-107500634D01*
X146738712Y-107382820D01*
X146957054Y-107164859D01*
X147075365Y-106879933D01*
X147075634Y-106571420D01*
X146957820Y-106286288D01*
X146739859Y-106067946D01*
X146454933Y-105949635D01*
X146146420Y-105949366D01*
X145861288Y-106067180D01*
X145642946Y-106285141D01*
X145524635Y-106570067D01*
X145524366Y-106878580D01*
X141125500Y-106878580D01*
X141125500Y-105990005D01*
X141125501Y-105990000D01*
X141125500Y-105989995D01*
X141125500Y-105503580D01*
X144199366Y-105503580D01*
X144317180Y-105788712D01*
X144535141Y-106007054D01*
X144820067Y-106125365D01*
X145128580Y-106125634D01*
X145413712Y-106007820D01*
X145632054Y-105789859D01*
X145750365Y-105504933D01*
X145750634Y-105196420D01*
X145632820Y-104911288D01*
X145414859Y-104692946D01*
X145129933Y-104574635D01*
X144821420Y-104574366D01*
X144536288Y-104692180D01*
X144317946Y-104910141D01*
X144199635Y-105195067D01*
X144199366Y-105503580D01*
X141125500Y-105503580D01*
X141125500Y-103822767D01*
X141183414Y-103785500D01*
X148050000Y-103785500D01*
X148327637Y-103730275D01*
X148563006Y-103573006D01*
X149899500Y-102236512D01*
X149899500Y-102762233D01*
X149836953Y-102802481D01*
X149728382Y-102961380D01*
X149690185Y-103150000D01*
X149690185Y-103650000D01*
X149723341Y-103826210D01*
X149827481Y-103988047D01*
X149986380Y-104096618D01*
X150175000Y-104134815D01*
X150896146Y-104134815D01*
X150975000Y-104150500D01*
X153149978Y-104150500D01*
X153270067Y-104200365D01*
X153578580Y-104200634D01*
X153699914Y-104150500D01*
X153749488Y-104150500D01*
X154361994Y-104763006D01*
X154597363Y-104920275D01*
X154875000Y-104975500D01*
X154927735Y-104975500D01*
X154842946Y-105060141D01*
X154724635Y-105345067D01*
X154724366Y-105653580D01*
X154842180Y-105938712D01*
X154927818Y-106024500D01*
X154845022Y-106024500D01*
X154724933Y-105974635D01*
X154416420Y-105974366D01*
X154131288Y-106092180D01*
X153912946Y-106310141D01*
X153794635Y-106595067D01*
X153794366Y-106903580D01*
X153912180Y-107188712D01*
X154130141Y-107407054D01*
X154415067Y-107525365D01*
X154723580Y-107525634D01*
X154844914Y-107475500D01*
X156049002Y-107475500D01*
X156095000Y-107484815D01*
X156819500Y-107484815D01*
X156819500Y-108466375D01*
X156798500Y-108487375D01*
X156798500Y-109171500D01*
X156818500Y-109171500D01*
X156818500Y-109328500D01*
X156798500Y-109328500D01*
X156798500Y-110012625D01*
X156819500Y-110033625D01*
X156819500Y-112260000D01*
X156861404Y-112470668D01*
X156980738Y-112649262D01*
X158261476Y-113930000D01*
X157303098Y-114888379D01*
X156835418Y-114420699D01*
X156776355Y-114380343D01*
X155863006Y-113466994D01*
X155627637Y-113309725D01*
X155350000Y-113254500D01*
X153705022Y-113254500D01*
X153584933Y-113204635D01*
X153276420Y-113204366D01*
X152991288Y-113322180D01*
X152772946Y-113540141D01*
X152654635Y-113825067D01*
X152654366Y-114133580D01*
X152772180Y-114418712D01*
X152990141Y-114637054D01*
X153275067Y-114755365D01*
X153583580Y-114755634D01*
X153704914Y-114705500D01*
X154660060Y-114705500D01*
X154571288Y-114742180D01*
X154352946Y-114960141D01*
X154234635Y-115245067D01*
X154234527Y-115368515D01*
X154197475Y-115331463D01*
X154147820Y-115211288D01*
X153929859Y-114992946D01*
X153644933Y-114874635D01*
X153336420Y-114874366D01*
X153051288Y-114992180D01*
X152832946Y-115210141D01*
X152714635Y-115495067D01*
X152714366Y-115803580D01*
X152832180Y-116088712D01*
X153050141Y-116307054D01*
X153171388Y-116357400D01*
X154002527Y-117188539D01*
X154028466Y-117227651D01*
X154496146Y-117695331D01*
X151330738Y-120860738D01*
X151211404Y-121039332D01*
X151211404Y-121039333D01*
X151169500Y-121250000D01*
X151169500Y-123249500D01*
X151124815Y-123249500D01*
X151124815Y-122575000D01*
X151115500Y-122525495D01*
X151115500Y-118516646D01*
X151920015Y-118516646D01*
X151920015Y-118788559D01*
X152024072Y-119039774D01*
X152216343Y-119232046D01*
X152385814Y-119401516D01*
X152627468Y-119401516D01*
X153111217Y-118917767D01*
X152362303Y-118168853D01*
X152120649Y-118168853D01*
X152024071Y-118265431D01*
X151920015Y-118516646D01*
X151115500Y-118516646D01*
X151115500Y-117816183D01*
X152473319Y-117816183D01*
X152473319Y-118057837D01*
X153222233Y-118806751D01*
X153705982Y-118323002D01*
X153705982Y-118081348D01*
X153536512Y-117911877D01*
X153344240Y-117719606D01*
X153093025Y-117615549D01*
X152821112Y-117615549D01*
X152569897Y-117719605D01*
X152473319Y-117816183D01*
X151115500Y-117816183D01*
X151115500Y-117326856D01*
X151145365Y-117254933D01*
X151145634Y-116946420D01*
X151027820Y-116661288D01*
X150809859Y-116442946D01*
X150524933Y-116324635D01*
X150216420Y-116324366D01*
X149931288Y-116442180D01*
X149712946Y-116660141D01*
X149594635Y-116945067D01*
X149594366Y-117253580D01*
X149664500Y-117423317D01*
X149664500Y-121467735D01*
X149579859Y-121382946D01*
X149294933Y-121264635D01*
X148986420Y-121264366D01*
X148701288Y-121382180D01*
X148623218Y-121460114D01*
X148624369Y-121213662D01*
X148665365Y-121114933D01*
X148665634Y-120806420D01*
X148547820Y-120521288D01*
X148329859Y-120302946D01*
X148044933Y-120184635D01*
X147736420Y-120184366D01*
X147451288Y-120302180D01*
X147232946Y-120520141D01*
X147114635Y-120805067D01*
X147114366Y-121113580D01*
X147173156Y-121255864D01*
X147167271Y-122515318D01*
X147155185Y-122575000D01*
X147155185Y-123249500D01*
X141834815Y-123249500D01*
X141834815Y-123113444D01*
X141835500Y-123110000D01*
X141835500Y-122439044D01*
X144456500Y-122439044D01*
X144456500Y-122950625D01*
X144627375Y-123121500D01*
X145311500Y-123121500D01*
X145311500Y-122062375D01*
X145468500Y-122062375D01*
X145468500Y-123121500D01*
X146152625Y-123121500D01*
X146323500Y-122950625D01*
X146323500Y-122439044D01*
X146219444Y-122187829D01*
X146027172Y-121995557D01*
X145775957Y-121891500D01*
X145639375Y-121891500D01*
X145468500Y-122062375D01*
X145311500Y-122062375D01*
X145140625Y-121891500D01*
X145004043Y-121891500D01*
X144752828Y-121995557D01*
X144560556Y-122187829D01*
X144456500Y-122439044D01*
X141835500Y-122439044D01*
X141835500Y-121030000D01*
X141780275Y-120752363D01*
X141623006Y-120516994D01*
X140567475Y-119461463D01*
X140517820Y-119341288D01*
X140299859Y-119122946D01*
X140014933Y-119004635D01*
X139706420Y-119004366D01*
X139421288Y-119122180D01*
X139202946Y-119340141D01*
X139084635Y-119625067D01*
X139084366Y-119933580D01*
X139202180Y-120218712D01*
X139420141Y-120437054D01*
X139541388Y-120487400D01*
X140384500Y-121330512D01*
X140384500Y-121467735D01*
X140299859Y-121382946D01*
X140014933Y-121264635D01*
X139706420Y-121264366D01*
X139421288Y-121382180D01*
X139335500Y-121467818D01*
X139335500Y-121245022D01*
X139385365Y-121124933D01*
X139385634Y-120816420D01*
X139267820Y-120531288D01*
X139049859Y-120312946D01*
X138764933Y-120194635D01*
X138456420Y-120194366D01*
X138171288Y-120312180D01*
X137952946Y-120530141D01*
X137834635Y-120815067D01*
X137834366Y-121123580D01*
X137884500Y-121244914D01*
X137884500Y-122479621D01*
X137865185Y-122575000D01*
X137865185Y-123249500D01*
X132554815Y-123249500D01*
X132554815Y-123113444D01*
X132555500Y-123110000D01*
X132555500Y-122439044D01*
X135166500Y-122439044D01*
X135166500Y-122950625D01*
X135337375Y-123121500D01*
X136021500Y-123121500D01*
X136021500Y-122062375D01*
X136178500Y-122062375D01*
X136178500Y-123121500D01*
X136862625Y-123121500D01*
X137033500Y-122950625D01*
X137033500Y-122439044D01*
X136929444Y-122187829D01*
X136737172Y-121995557D01*
X136485957Y-121891500D01*
X136349375Y-121891500D01*
X136178500Y-122062375D01*
X136021500Y-122062375D01*
X135850625Y-121891500D01*
X135714043Y-121891500D01*
X135462828Y-121995557D01*
X135270556Y-122187829D01*
X135166500Y-122439044D01*
X132555500Y-122439044D01*
X132555500Y-120045022D01*
X132605365Y-119924933D01*
X132605634Y-119616420D01*
X132487820Y-119331288D01*
X132269859Y-119112946D01*
X131984933Y-118994635D01*
X131676420Y-118994366D01*
X131391288Y-119112180D01*
X131172946Y-119330141D01*
X131054635Y-119615067D01*
X131054366Y-119923580D01*
X131104500Y-120044914D01*
X131104500Y-121467735D01*
X131019859Y-121382946D01*
X130734933Y-121264635D01*
X130426420Y-121264366D01*
X130141288Y-121382180D01*
X130063218Y-121460114D01*
X130064208Y-121248133D01*
X130115365Y-121124933D01*
X130115634Y-120816420D01*
X129997820Y-120531288D01*
X129779859Y-120312946D01*
X129494933Y-120194635D01*
X129186420Y-120194366D01*
X128901288Y-120312180D01*
X128682946Y-120530141D01*
X128564635Y-120815067D01*
X128564366Y-121123580D01*
X128613222Y-121241821D01*
X128607794Y-122403354D01*
X128585185Y-122515000D01*
X128585185Y-123249500D01*
X127613625Y-123249500D01*
X127582625Y-123218500D01*
X126898500Y-123218500D01*
X126898500Y-123238500D01*
X126741500Y-123238500D01*
X126741500Y-123218500D01*
X126721500Y-123218500D01*
X126721500Y-123061500D01*
X126741500Y-123061500D01*
X126741500Y-122002375D01*
X126898500Y-122002375D01*
X126898500Y-123061500D01*
X127582625Y-123061500D01*
X127753500Y-122890625D01*
X127753500Y-122379044D01*
X127649444Y-122127829D01*
X127457172Y-121935557D01*
X127205957Y-121831500D01*
X127069375Y-121831500D01*
X126898500Y-122002375D01*
X126741500Y-122002375D01*
X126570625Y-121831500D01*
X126434043Y-121831500D01*
X126182828Y-121935557D01*
X125990556Y-122127829D01*
X125990500Y-122127964D01*
X125990500Y-121210000D01*
X125948596Y-120999333D01*
X125948596Y-120999332D01*
X125829262Y-120820738D01*
X125739265Y-120730741D01*
X125739263Y-120730738D01*
X124496622Y-119488097D01*
X124959301Y-119025418D01*
X125042802Y-118903210D01*
X125997873Y-117948139D01*
X128599327Y-117948139D01*
X128751323Y-118315997D01*
X129032522Y-118597688D01*
X129400115Y-118750326D01*
X129798139Y-118750673D01*
X130165997Y-118598677D01*
X130447688Y-118317478D01*
X130600187Y-117950220D01*
X130751323Y-118315997D01*
X131032522Y-118597688D01*
X131400115Y-118750326D01*
X131798139Y-118750673D01*
X132165997Y-118598677D01*
X132447688Y-118317478D01*
X132600187Y-117950220D01*
X132751323Y-118315997D01*
X133032522Y-118597688D01*
X133400115Y-118750326D01*
X133798139Y-118750673D01*
X134165997Y-118598677D01*
X134447688Y-118317478D01*
X134600187Y-117950220D01*
X134751323Y-118315997D01*
X135032522Y-118597688D01*
X135400115Y-118750326D01*
X135798139Y-118750673D01*
X136165997Y-118598677D01*
X136447688Y-118317478D01*
X136600187Y-117950220D01*
X136751323Y-118315997D01*
X137032522Y-118597688D01*
X137400115Y-118750326D01*
X137798139Y-118750673D01*
X138165997Y-118598677D01*
X138447688Y-118317478D01*
X138600187Y-117950220D01*
X138751323Y-118315997D01*
X139032522Y-118597688D01*
X139400115Y-118750326D01*
X139798139Y-118750673D01*
X140165997Y-118598677D01*
X140447688Y-118317478D01*
X140600187Y-117950220D01*
X140751323Y-118315997D01*
X141032522Y-118597688D01*
X141400115Y-118750326D01*
X141798139Y-118750673D01*
X142165997Y-118598677D01*
X142447688Y-118317478D01*
X142600187Y-117950220D01*
X142751323Y-118315997D01*
X143032522Y-118597688D01*
X143400115Y-118750326D01*
X143798139Y-118750673D01*
X144165997Y-118598677D01*
X144447688Y-118317478D01*
X144600187Y-117950220D01*
X144751323Y-118315997D01*
X145032522Y-118597688D01*
X145400115Y-118750326D01*
X145798139Y-118750673D01*
X146165997Y-118598677D01*
X146447688Y-118317478D01*
X146590185Y-117974307D01*
X146590185Y-118275000D01*
X146623341Y-118451210D01*
X146727481Y-118613047D01*
X146886380Y-118721618D01*
X147075000Y-118759815D01*
X148125000Y-118759815D01*
X148301210Y-118726659D01*
X148463047Y-118622519D01*
X148571618Y-118463620D01*
X148609815Y-118275000D01*
X148609815Y-117225000D01*
X148576659Y-117048790D01*
X148472519Y-116886953D01*
X148313620Y-116778382D01*
X148125000Y-116740185D01*
X147075000Y-116740185D01*
X146898790Y-116773341D01*
X146736953Y-116877481D01*
X146628382Y-117036380D01*
X146590185Y-117225000D01*
X146590185Y-117526478D01*
X146448677Y-117184003D01*
X146167478Y-116902312D01*
X145799885Y-116749674D01*
X145401861Y-116749327D01*
X145034003Y-116901323D01*
X144752312Y-117182522D01*
X144599813Y-117549780D01*
X144448677Y-117184003D01*
X144167478Y-116902312D01*
X143799885Y-116749674D01*
X143401861Y-116749327D01*
X143034003Y-116901323D01*
X142752312Y-117182522D01*
X142599813Y-117549780D01*
X142448677Y-117184003D01*
X142167478Y-116902312D01*
X141799885Y-116749674D01*
X141401861Y-116749327D01*
X141034003Y-116901323D01*
X140752312Y-117182522D01*
X140599813Y-117549780D01*
X140448677Y-117184003D01*
X140167478Y-116902312D01*
X139799885Y-116749674D01*
X139401861Y-116749327D01*
X139034003Y-116901323D01*
X138752312Y-117182522D01*
X138599813Y-117549780D01*
X138448677Y-117184003D01*
X138167478Y-116902312D01*
X137799885Y-116749674D01*
X137401861Y-116749327D01*
X137034003Y-116901323D01*
X136752312Y-117182522D01*
X136599813Y-117549780D01*
X136448677Y-117184003D01*
X136167478Y-116902312D01*
X135799885Y-116749674D01*
X135401861Y-116749327D01*
X135034003Y-116901323D01*
X134752312Y-117182522D01*
X134599813Y-117549780D01*
X134448677Y-117184003D01*
X134325500Y-117060610D01*
X134325500Y-112975000D01*
X134270275Y-112697363D01*
X134113006Y-112461994D01*
X132538006Y-110886994D01*
X132302637Y-110729725D01*
X132088753Y-110687181D01*
X132072519Y-110661953D01*
X131913620Y-110553382D01*
X131725000Y-110515185D01*
X130825000Y-110515185D01*
X130648790Y-110548341D01*
X130486953Y-110652481D01*
X130408500Y-110767301D01*
X130408500Y-110699375D01*
X130237625Y-110528500D01*
X129353500Y-110528500D01*
X129353500Y-111362625D01*
X129524375Y-111533500D01*
X129860957Y-111533500D01*
X130112172Y-111429443D01*
X130304444Y-111237171D01*
X130340185Y-111150884D01*
X130340185Y-111800000D01*
X130373341Y-111976210D01*
X130477481Y-112138047D01*
X130636380Y-112246618D01*
X130825000Y-112284815D01*
X131725000Y-112284815D01*
X131858654Y-112259666D01*
X132874500Y-113275512D01*
X132874500Y-117060547D01*
X132752312Y-117182522D01*
X132599813Y-117549780D01*
X132448677Y-117184003D01*
X132167478Y-116902312D01*
X131799885Y-116749674D01*
X131401861Y-116749327D01*
X131034003Y-116901323D01*
X130752312Y-117182522D01*
X130599813Y-117549780D01*
X130448677Y-117184003D01*
X130167478Y-116902312D01*
X129799885Y-116749674D01*
X129401861Y-116749327D01*
X129034003Y-116901323D01*
X128752312Y-117182522D01*
X128599674Y-117550115D01*
X128599327Y-117948139D01*
X125997873Y-117948139D01*
X126728537Y-117217475D01*
X126848712Y-117167820D01*
X127067054Y-116949859D01*
X127185365Y-116664933D01*
X127185634Y-116356420D01*
X127067820Y-116071288D01*
X126849859Y-115852946D01*
X126564933Y-115734635D01*
X126256420Y-115734366D01*
X125971288Y-115852180D01*
X125752946Y-116070141D01*
X125702600Y-116191388D01*
X124745536Y-117148452D01*
X124745634Y-117036420D01*
X124627820Y-116751288D01*
X124409859Y-116532946D01*
X124124933Y-116414635D01*
X123991493Y-116414519D01*
X124188537Y-116217475D01*
X124308712Y-116167820D01*
X124527054Y-115949859D01*
X124645365Y-115664933D01*
X124645634Y-115356420D01*
X124527820Y-115071288D01*
X124309859Y-114852946D01*
X124024933Y-114734635D01*
X123716420Y-114734366D01*
X123431288Y-114852180D01*
X123212946Y-115070141D01*
X123162600Y-115191388D01*
X121837131Y-116516857D01*
X121806994Y-116536994D01*
X121752973Y-116617842D01*
X121689670Y-116681145D01*
X120420758Y-115412233D01*
X120573249Y-115412233D01*
X121056998Y-115895982D01*
X121298652Y-115895982D01*
X121468123Y-115726512D01*
X121660394Y-115534240D01*
X121764451Y-115283025D01*
X121764451Y-115011112D01*
X121660395Y-114759897D01*
X121563817Y-114663319D01*
X121322163Y-114663319D01*
X120573249Y-115412233D01*
X120420758Y-115412233D01*
X119584339Y-114575814D01*
X119978484Y-114575814D01*
X119978484Y-114817468D01*
X120462233Y-115301217D01*
X121211147Y-114552303D01*
X121211147Y-114310649D01*
X121114569Y-114214071D01*
X120863354Y-114110015D01*
X120591441Y-114110015D01*
X120340226Y-114214072D01*
X120147954Y-114406343D01*
X119978484Y-114575814D01*
X119584339Y-114575814D01*
X118928524Y-113920000D01*
X120229262Y-112619262D01*
X120348596Y-112440668D01*
X120390500Y-112230000D01*
X120390500Y-110699375D01*
X128141500Y-110699375D01*
X128141500Y-110985956D01*
X128245556Y-111237171D01*
X128437828Y-111429443D01*
X128689043Y-111533500D01*
X129025625Y-111533500D01*
X129196500Y-111362625D01*
X129196500Y-110528500D01*
X128312375Y-110528500D01*
X128141500Y-110699375D01*
X120390500Y-110699375D01*
X120390500Y-109994815D01*
X121085000Y-109994815D01*
X121187651Y-109975500D01*
X123719061Y-109975500D01*
X123815067Y-110015365D01*
X124123580Y-110015634D01*
X124369446Y-109914044D01*
X128141500Y-109914044D01*
X128141500Y-110200625D01*
X128312375Y-110371500D01*
X129196500Y-110371500D01*
X129196500Y-109537375D01*
X129353500Y-109537375D01*
X129353500Y-110371500D01*
X130237625Y-110371500D01*
X130408500Y-110200625D01*
X130408500Y-110130848D01*
X130477481Y-110238047D01*
X130636380Y-110346618D01*
X130825000Y-110384815D01*
X131725000Y-110384815D01*
X131901210Y-110351659D01*
X132063047Y-110247519D01*
X132171618Y-110088620D01*
X132209815Y-109900000D01*
X132209815Y-109100000D01*
X132176659Y-108923790D01*
X132072519Y-108761953D01*
X131913620Y-108653382D01*
X131725000Y-108615185D01*
X130825000Y-108615185D01*
X130648790Y-108648341D01*
X130486953Y-108752481D01*
X130378382Y-108911380D01*
X130340185Y-109100000D01*
X130340185Y-109749116D01*
X130304444Y-109662829D01*
X130112172Y-109470557D01*
X129860957Y-109366500D01*
X129524375Y-109366500D01*
X129353500Y-109537375D01*
X129196500Y-109537375D01*
X129025625Y-109366500D01*
X128689043Y-109366500D01*
X128437828Y-109470557D01*
X128245556Y-109662829D01*
X128141500Y-109914044D01*
X124369446Y-109914044D01*
X124408712Y-109897820D01*
X124627054Y-109679859D01*
X124745365Y-109394933D01*
X124745634Y-109086420D01*
X124627820Y-108801288D01*
X124409859Y-108582946D01*
X124124933Y-108464635D01*
X123816420Y-108464366D01*
X123670884Y-108524500D01*
X122202265Y-108524500D01*
X122287054Y-108439859D01*
X122405365Y-108154933D01*
X122405634Y-107846420D01*
X122287820Y-107561288D01*
X122202182Y-107475500D01*
X122494978Y-107475500D01*
X122615067Y-107525365D01*
X122923580Y-107525634D01*
X123208712Y-107407820D01*
X123427054Y-107189859D01*
X123545365Y-106904933D01*
X123545634Y-106596420D01*
X123427820Y-106311288D01*
X123209859Y-106092946D01*
X122924933Y-105974635D01*
X122616420Y-105974366D01*
X122495086Y-106024500D01*
X120550000Y-106024500D01*
X120546556Y-106025185D01*
X120390500Y-106025185D01*
X120390500Y-104338500D01*
X120538500Y-104338500D01*
X120538500Y-105022625D01*
X120709375Y-105193500D01*
X121220956Y-105193500D01*
X121472171Y-105089444D01*
X121664443Y-104897172D01*
X121768500Y-104645957D01*
X121768500Y-104509375D01*
X121597625Y-104338500D01*
X120538500Y-104338500D01*
X120390500Y-104338500D01*
X120390500Y-103497375D01*
X120538500Y-103497375D01*
X120538500Y-104181500D01*
X121597625Y-104181500D01*
X121768500Y-104010625D01*
X121768500Y-103874043D01*
X121664443Y-103622828D01*
X121472171Y-103430556D01*
X121220956Y-103326500D01*
X120709375Y-103326500D01*
X120538500Y-103497375D01*
X120390500Y-103497375D01*
X120390500Y-101260000D01*
X120348596Y-101049333D01*
X120290362Y-100962180D01*
X120229263Y-100870738D01*
X118958524Y-99600000D01*
X119931903Y-98626622D01*
X120404582Y-99099301D01*
X120432072Y-99118084D01*
X123252525Y-101938537D01*
X123302180Y-102058712D01*
X123520141Y-102277054D01*
X123805067Y-102395365D01*
X124113580Y-102395634D01*
X124398712Y-102277820D01*
X124617054Y-102059859D01*
X124735365Y-101774933D01*
X124735634Y-101466420D01*
X124617820Y-101181288D01*
X124399859Y-100962946D01*
X124278612Y-100912600D01*
X122231540Y-98865528D01*
X122353580Y-98865634D01*
X122638712Y-98747820D01*
X122857054Y-98529859D01*
X122975365Y-98244933D01*
X122975473Y-98121485D01*
X123112525Y-98258537D01*
X123162180Y-98378712D01*
X123380141Y-98597054D01*
X123665067Y-98715365D01*
X123973580Y-98715634D01*
X124258712Y-98597820D01*
X124477054Y-98379859D01*
X124595365Y-98094933D01*
X124595634Y-97786420D01*
X124477820Y-97501288D01*
X124259859Y-97282946D01*
X124138612Y-97232600D01*
X123237473Y-96331461D01*
X123211534Y-96292349D01*
X122738855Y-95819670D01*
X123361526Y-95196998D01*
X123534018Y-95196998D01*
X123534018Y-95438652D01*
X123703488Y-95608123D01*
X123895760Y-95800394D01*
X124146975Y-95904451D01*
X124418888Y-95904451D01*
X124670103Y-95800395D01*
X124766681Y-95703817D01*
X124766681Y-95462163D01*
X124017767Y-94713249D01*
X123534018Y-95196998D01*
X123361526Y-95196998D01*
X123956291Y-94602233D01*
X124128783Y-94602233D01*
X124877697Y-95351147D01*
X125119351Y-95351147D01*
X125215929Y-95254569D01*
X125319985Y-95003354D01*
X125319985Y-94731441D01*
X125215928Y-94480226D01*
X125023657Y-94287954D01*
X124854186Y-94118484D01*
X124612532Y-94118484D01*
X124128783Y-94602233D01*
X123956291Y-94602233D01*
X125719262Y-92839262D01*
X125838596Y-92660668D01*
X125880500Y-92450000D01*
X125880500Y-90240500D01*
X126095185Y-90240500D01*
X126095185Y-90915000D01*
G36*
X137377375Y-107231500D02*
X137438500Y-107231500D01*
X137438500Y-107388500D01*
X137377375Y-107388500D01*
X137340000Y-107425875D01*
X137302625Y-107388500D01*
X137241500Y-107388500D01*
X137241500Y-107231500D01*
X137302625Y-107231500D01*
X137322625Y-107211500D01*
X137357375Y-107211500D01*
X137377375Y-107231500D01*
X137377375Y-107231500D01*
G37*
X137377375Y-107231500D02*
X137438500Y-107231500D01*
X137438500Y-107388500D01*
X137377375Y-107388500D01*
X137340000Y-107425875D01*
X137302625Y-107388500D01*
X137241500Y-107388500D01*
X137241500Y-107231500D01*
X137302625Y-107231500D01*
X137322625Y-107211500D01*
X137357375Y-107211500D01*
X137377375Y-107231500D01*
G36*
X139038500Y-106575185D02*
X138871800Y-106575185D01*
X138841500Y-106544885D01*
X138841500Y-106444815D01*
X139038500Y-106444815D01*
X139038500Y-106575185D01*
X139038500Y-106575185D01*
G37*
X139038500Y-106575185D02*
X138871800Y-106575185D01*
X138841500Y-106544885D01*
X138841500Y-106444815D01*
X139038500Y-106444815D01*
X139038500Y-106575185D01*
G36*
X152484366Y-96473580D02*
X152602180Y-96758712D01*
X152820141Y-96977054D01*
X153105067Y-97095365D01*
X153218524Y-97095464D01*
X153201463Y-97112525D01*
X153081288Y-97162180D01*
X152862946Y-97380141D01*
X152744635Y-97665067D01*
X152744366Y-97973580D01*
X152862180Y-98258712D01*
X153080141Y-98477054D01*
X153365067Y-98595365D01*
X153673580Y-98595634D01*
X153958712Y-98477820D01*
X154159908Y-98276975D01*
X155435549Y-98276975D01*
X155435549Y-98548888D01*
X155539605Y-98800103D01*
X155636183Y-98896681D01*
X155877837Y-98896681D01*
X156626751Y-98147767D01*
X156143002Y-97664018D01*
X155901348Y-97664018D01*
X155731877Y-97833488D01*
X155539606Y-98025760D01*
X155435549Y-98276975D01*
X154159908Y-98276975D01*
X154177054Y-98259859D01*
X154227400Y-98138612D01*
X154978848Y-97387164D01*
X155047651Y-97341534D01*
X155535330Y-96853855D01*
X158271476Y-99590000D01*
X156980738Y-100880738D01*
X156861404Y-101059332D01*
X156851924Y-101106994D01*
X156819500Y-101270000D01*
X156819500Y-103515185D01*
X156095000Y-103515185D01*
X156045495Y-103524500D01*
X155175512Y-103524500D01*
X154563006Y-102911994D01*
X154327637Y-102754725D01*
X154050000Y-102699500D01*
X153700022Y-102699500D01*
X153579933Y-102649635D01*
X153271420Y-102649366D01*
X153150086Y-102699500D01*
X151350500Y-102699500D01*
X151350500Y-100454955D01*
X151520067Y-100525365D01*
X151828580Y-100525634D01*
X152113712Y-100407820D01*
X152332054Y-100189859D01*
X152450365Y-99904933D01*
X152450634Y-99596420D01*
X152332820Y-99311288D01*
X152114859Y-99092946D01*
X151909556Y-99007697D01*
X155988853Y-99007697D01*
X155988853Y-99249351D01*
X156085431Y-99345929D01*
X156336646Y-99449985D01*
X156608559Y-99449985D01*
X156859774Y-99345928D01*
X157052046Y-99153657D01*
X157221516Y-98984186D01*
X157221516Y-98742532D01*
X156737767Y-98258783D01*
X155988853Y-99007697D01*
X151909556Y-99007697D01*
X151829933Y-98974635D01*
X151521420Y-98974366D01*
X151350500Y-99044989D01*
X151350500Y-97511873D01*
X151408712Y-97487820D01*
X151627054Y-97269859D01*
X151677400Y-97148612D01*
X152484481Y-96341531D01*
X152484366Y-96473580D01*
X152484366Y-96473580D01*
G37*
X152484366Y-96473580D02*
X152602180Y-96758712D01*
X152820141Y-96977054D01*
X153105067Y-97095365D01*
X153218524Y-97095464D01*
X153201463Y-97112525D01*
X153081288Y-97162180D01*
X152862946Y-97380141D01*
X152744635Y-97665067D01*
X152744366Y-97973580D01*
X152862180Y-98258712D01*
X153080141Y-98477054D01*
X153365067Y-98595365D01*
X153673580Y-98595634D01*
X153958712Y-98477820D01*
X154159908Y-98276975D01*
X155435549Y-98276975D01*
X155435549Y-98548888D01*
X155539605Y-98800103D01*
X155636183Y-98896681D01*
X155877837Y-98896681D01*
X156626751Y-98147767D01*
X156143002Y-97664018D01*
X155901348Y-97664018D01*
X155731877Y-97833488D01*
X155539606Y-98025760D01*
X155435549Y-98276975D01*
X154159908Y-98276975D01*
X154177054Y-98259859D01*
X154227400Y-98138612D01*
X154978848Y-97387164D01*
X155047651Y-97341534D01*
X155535330Y-96853855D01*
X158271476Y-99590000D01*
X156980738Y-100880738D01*
X156861404Y-101059332D01*
X156851924Y-101106994D01*
X156819500Y-101270000D01*
X156819500Y-103515185D01*
X156095000Y-103515185D01*
X156045495Y-103524500D01*
X155175512Y-103524500D01*
X154563006Y-102911994D01*
X154327637Y-102754725D01*
X154050000Y-102699500D01*
X153700022Y-102699500D01*
X153579933Y-102649635D01*
X153271420Y-102649366D01*
X153150086Y-102699500D01*
X151350500Y-102699500D01*
X151350500Y-100454955D01*
X151520067Y-100525365D01*
X151828580Y-100525634D01*
X152113712Y-100407820D01*
X152332054Y-100189859D01*
X152450365Y-99904933D01*
X152450634Y-99596420D01*
X152332820Y-99311288D01*
X152114859Y-99092946D01*
X151909556Y-99007697D01*
X155988853Y-99007697D01*
X155988853Y-99249351D01*
X156085431Y-99345929D01*
X156336646Y-99449985D01*
X156608559Y-99449985D01*
X156859774Y-99345928D01*
X157052046Y-99153657D01*
X157221516Y-98984186D01*
X157221516Y-98742532D01*
X156737767Y-98258783D01*
X155988853Y-99007697D01*
X151909556Y-99007697D01*
X151829933Y-98974635D01*
X151521420Y-98974366D01*
X151350500Y-99044989D01*
X151350500Y-97511873D01*
X151408712Y-97487820D01*
X151627054Y-97269859D01*
X151677400Y-97148612D01*
X152484481Y-96341531D01*
X152484366Y-96473580D01*
G36*
X140347375Y-90241500D02*
X141031500Y-90241500D01*
X141031500Y-90240500D01*
X141188500Y-90240500D01*
X141188500Y-90241500D01*
X141872625Y-90241500D01*
X141873625Y-90240500D01*
X144645185Y-90240500D01*
X144645185Y-90925000D01*
X144664500Y-91027651D01*
X144664500Y-92669488D01*
X144469488Y-92864500D01*
X143875022Y-92864500D01*
X143754933Y-92814635D01*
X143446420Y-92814366D01*
X143325086Y-92864500D01*
X139269279Y-92864500D01*
X139385365Y-92584933D01*
X139385634Y-92276420D01*
X139335500Y-92155086D01*
X139335500Y-90990998D01*
X139344815Y-90945000D01*
X139344815Y-90569375D01*
X140176500Y-90569375D01*
X140176500Y-91080956D01*
X140280556Y-91332171D01*
X140472828Y-91524443D01*
X140724043Y-91628500D01*
X140860625Y-91628500D01*
X141031500Y-91457625D01*
X141031500Y-90398500D01*
X141188500Y-90398500D01*
X141188500Y-91457625D01*
X141359375Y-91628500D01*
X141495957Y-91628500D01*
X141747172Y-91524443D01*
X141939444Y-91332171D01*
X142043500Y-91080956D01*
X142043500Y-90569375D01*
X141872625Y-90398500D01*
X141188500Y-90398500D01*
X141031500Y-90398500D01*
X140347375Y-90398500D01*
X140176500Y-90569375D01*
X139344815Y-90569375D01*
X139344815Y-90240500D01*
X140346375Y-90240500D01*
X140347375Y-90241500D01*
X140347375Y-90241500D01*
G37*
X140347375Y-90241500D02*
X141031500Y-90241500D01*
X141031500Y-90240500D01*
X141188500Y-90240500D01*
X141188500Y-90241500D01*
X141872625Y-90241500D01*
X141873625Y-90240500D01*
X144645185Y-90240500D01*
X144645185Y-90925000D01*
X144664500Y-91027651D01*
X144664500Y-92669488D01*
X144469488Y-92864500D01*
X143875022Y-92864500D01*
X143754933Y-92814635D01*
X143446420Y-92814366D01*
X143325086Y-92864500D01*
X139269279Y-92864500D01*
X139385365Y-92584933D01*
X139385634Y-92276420D01*
X139335500Y-92155086D01*
X139335500Y-90990998D01*
X139344815Y-90945000D01*
X139344815Y-90569375D01*
X140176500Y-90569375D01*
X140176500Y-91080956D01*
X140280556Y-91332171D01*
X140472828Y-91524443D01*
X140724043Y-91628500D01*
X140860625Y-91628500D01*
X141031500Y-91457625D01*
X141031500Y-90398500D01*
X141188500Y-90398500D01*
X141188500Y-91457625D01*
X141359375Y-91628500D01*
X141495957Y-91628500D01*
X141747172Y-91524443D01*
X141939444Y-91332171D01*
X142043500Y-91080956D01*
X142043500Y-90569375D01*
X141872625Y-90398500D01*
X141188500Y-90398500D01*
X141031500Y-90398500D01*
X140347375Y-90398500D01*
X140176500Y-90569375D01*
X139344815Y-90569375D01*
X139344815Y-90240500D01*
X140346375Y-90240500D01*
X140347375Y-90241500D01*
M02*
