G04 #@! TF.FileFunction,Copper,L2,Inr,Signal*
%FSLAX46Y46*%
G04 Gerber Fmt 4.6, Leading zero omitted, Abs format (unit mm)*
G04 Created by KiCad (PCBNEW 4.0.7-e2-6376~58~ubuntu16.04.1) date Mon Aug  6 19:30:18 2018*
%MOMM*%
%LPD*%
G01*
G04 APERTURE LIST*
%ADD10C,0.100000*%
%ADD11C,1.050000*%
%ADD12R,1.050000X1.050000*%
%ADD13C,0.600000*%
%ADD14C,0.500000*%
%ADD15C,0.400000*%
%ADD16C,0.300000*%
G04 APERTURE END LIST*
D10*
D11*
X129600000Y-95750000D03*
X145600000Y-95750000D03*
D12*
X147600000Y-95750000D03*
D11*
X133600000Y-95750000D03*
X131600000Y-95750000D03*
X143600000Y-95750000D03*
X141600000Y-95750000D03*
X135600000Y-95750000D03*
X137600000Y-95750000D03*
X139600000Y-95750000D03*
X129600000Y-117750000D03*
X145600000Y-117750000D03*
D12*
X147600000Y-117750000D03*
D11*
X133600000Y-117750000D03*
X131600000Y-117750000D03*
X143600000Y-117750000D03*
X141600000Y-117750000D03*
X135600000Y-117750000D03*
X137600000Y-117750000D03*
X139600000Y-117750000D03*
D13*
X128000000Y-109600000D03*
X139825000Y-111125000D03*
X133725000Y-105825000D03*
X146300000Y-112225000D03*
X126325000Y-122325000D03*
X151020000Y-90390000D03*
X133100000Y-90500000D03*
X142320000Y-90500000D03*
X156570000Y-99930000D03*
X156570000Y-110660000D03*
X152180000Y-119780000D03*
X144050000Y-123060000D03*
X134570000Y-123060000D03*
X120650000Y-113230000D03*
X124840000Y-93910000D03*
X120650000Y-102830000D03*
X146300000Y-101225000D03*
X153425000Y-103425000D03*
X126410000Y-116510000D03*
X153430000Y-113980000D03*
X131830000Y-119770000D03*
X139860000Y-119780000D03*
X150370000Y-117100000D03*
X136110000Y-93590000D03*
X126820000Y-96600000D03*
X123960000Y-101620000D03*
X123970000Y-109240000D03*
X150970000Y-96830000D03*
X143600000Y-93590000D03*
X144975000Y-108125000D03*
X136600000Y-100925000D03*
X123870000Y-115510000D03*
X138610000Y-120970000D03*
X123820000Y-97940000D03*
X122770000Y-106750000D03*
X147890000Y-120960000D03*
X153490000Y-115650000D03*
X154570000Y-106750000D03*
X153520000Y-97820000D03*
X138610000Y-92430000D03*
X129330000Y-92430000D03*
X147890000Y-92430000D03*
X129340000Y-120970000D03*
X146300000Y-106725000D03*
X138450000Y-104525000D03*
X135125000Y-100950000D03*
X122200000Y-98090000D03*
X121630000Y-108000000D03*
X123970000Y-117190000D03*
X130580000Y-122040000D03*
X139860000Y-122040000D03*
X149140000Y-122040000D03*
X155010000Y-115400000D03*
X155500000Y-105500000D03*
X153260000Y-96320000D03*
X137360000Y-91560000D03*
X146630000Y-91560000D03*
X128080000Y-91560000D03*
X151675000Y-99750000D03*
X144975000Y-105350000D03*
X133825000Y-102275000D03*
D14*
X147600000Y-95750000D02*
X147600000Y-99925000D01*
X147600000Y-99925000D02*
X146300000Y-101225000D01*
X153430000Y-113980000D02*
X153440000Y-113990000D01*
X153440000Y-113990000D02*
X153440000Y-114030000D01*
X131830000Y-119770000D02*
X131830000Y-119780000D01*
X131830000Y-119780000D02*
X131830000Y-119770000D01*
X131830000Y-119770000D02*
X131830000Y-119780000D01*
X123970000Y-109240000D02*
X123970000Y-114070000D01*
X147690000Y-119780000D02*
X150370000Y-117100000D01*
X129680000Y-119780000D02*
X131830000Y-119780000D01*
X131830000Y-119780000D02*
X139860000Y-119780000D01*
X139860000Y-119780000D02*
X147690000Y-119780000D01*
X123970000Y-114070000D02*
X126410000Y-116510000D01*
X126410000Y-116510000D02*
X129680000Y-119780000D01*
X153430000Y-104250000D02*
X153440000Y-104250000D01*
X153440000Y-104250000D02*
X153430000Y-104250000D01*
X153430000Y-104250000D02*
X153440000Y-104250000D01*
X153440000Y-114030000D02*
X150370000Y-117100000D01*
X153440000Y-104250000D02*
X153440000Y-114030000D01*
X153440000Y-99300000D02*
X153440000Y-104250000D01*
X129820000Y-93600000D02*
X126820000Y-96600000D01*
X136100000Y-93600000D02*
X129820000Y-93600000D01*
X136110000Y-93590000D02*
X136100000Y-93600000D01*
X123960000Y-99460000D02*
X123960000Y-101620000D01*
X126820000Y-96600000D02*
X123960000Y-99460000D01*
X123960000Y-109230000D02*
X123960000Y-101620000D01*
X123970000Y-109240000D02*
X123960000Y-109230000D01*
X150970000Y-96830000D02*
X148680000Y-96830000D01*
X148680000Y-96830000D02*
X147600000Y-95750000D01*
X147730000Y-93590000D02*
X150970000Y-96830000D01*
X145730000Y-93590000D02*
X143600000Y-93590000D01*
X145730000Y-93590000D02*
X147350000Y-93590000D01*
X147350000Y-93590000D02*
X147610000Y-93590000D01*
X147610000Y-93590000D02*
X147730000Y-93590000D01*
X150970000Y-96830000D02*
X153440000Y-99300000D01*
X135125000Y-100950000D02*
X139600000Y-96475000D01*
X139600000Y-96475000D02*
X139600000Y-95750000D01*
X135125000Y-100950000D02*
X135125000Y-102850000D01*
X136800000Y-104525000D02*
X138450000Y-104525000D01*
X135125000Y-102850000D02*
X136800000Y-104525000D01*
X146300000Y-106725000D02*
X140650000Y-106725000D01*
X140650000Y-106725000D02*
X138450000Y-104525000D01*
D15*
X139600000Y-95750000D02*
X139600000Y-96475000D01*
D16*
X139600000Y-96000000D02*
X139600000Y-95750000D01*
D14*
X137360000Y-91560000D02*
X139610000Y-91560000D01*
X139610000Y-91560000D02*
X139600000Y-91550000D01*
X139600000Y-91550000D02*
X139600000Y-95750000D01*
X128010000Y-91560000D02*
X128010000Y-92280000D01*
X128010000Y-92280000D02*
X122200000Y-98090000D01*
X121630000Y-108000000D02*
X121630000Y-98660000D01*
X121630000Y-98660000D02*
X122200000Y-98090000D01*
X123970000Y-117190000D02*
X121630000Y-114850000D01*
X121630000Y-114850000D02*
X121630000Y-108000000D01*
X130580000Y-122040000D02*
X128820000Y-122040000D01*
X128820000Y-122040000D02*
X123970000Y-117190000D01*
X139860000Y-122040000D02*
X130580000Y-122040000D01*
X149140000Y-122040000D02*
X139860000Y-122040000D01*
X155010000Y-115400000D02*
X154990000Y-115400000D01*
X149140000Y-121250000D02*
X149140000Y-122040000D01*
X154990000Y-115400000D02*
X149140000Y-121250000D01*
X155500000Y-105500000D02*
X155500000Y-114910000D01*
X155500000Y-114910000D02*
X155010000Y-115400000D01*
X153280000Y-96320000D02*
X153260000Y-96320000D01*
X155500000Y-98540000D02*
X153280000Y-96320000D01*
X155500000Y-105500000D02*
X155500000Y-98540000D01*
X146630000Y-91560000D02*
X148500000Y-91560000D01*
X148500000Y-91560000D02*
X153260000Y-96320000D01*
X128080000Y-91560000D02*
X128010000Y-91560000D01*
X128010000Y-91560000D02*
X137360000Y-91560000D01*
X137360000Y-91560000D02*
X146630000Y-91560000D01*
X144975000Y-105350000D02*
X147600000Y-105350000D01*
X151675000Y-101275000D02*
X151675000Y-99750000D01*
X147600000Y-105350000D02*
X151675000Y-101275000D01*
M02*
