G04 #@! TF.FileFunction,Paste,Top*
%FSLAX46Y46*%
G04 Gerber Fmt 4.6, Leading zero omitted, Abs format (unit mm)*
G04 Created by KiCad (PCBNEW 4.0.7-e2-6376~58~ubuntu16.04.1) date Mon Aug  6 19:30:18 2018*
%MOMM*%
%LPD*%
G01*
G04 APERTURE LIST*
%ADD10C,0.100000*%
%ADD11R,0.500000X1.250000*%
%ADD12R,0.500000X0.500000*%
%ADD13R,0.250000X0.250000*%
%ADD14R,1.250000X0.500000*%
%ADD15R,0.900000X0.800000*%
%ADD16R,0.900000X0.500000*%
%ADD17R,0.800000X0.750000*%
%ADD18R,0.800000X0.800000*%
G04 APERTURE END LIST*
D10*
D11*
X131830000Y-90290000D03*
X129330000Y-90290000D03*
X126830000Y-90290000D03*
X141110000Y-90320000D03*
X138610000Y-90320000D03*
X136110000Y-90320000D03*
X150380000Y-90300000D03*
X147880000Y-90300000D03*
X145380000Y-90300000D03*
X145390000Y-123200000D03*
X147890000Y-123200000D03*
X150390000Y-123200000D03*
X126820000Y-123140000D03*
X129320000Y-123140000D03*
X131820000Y-123140000D03*
D12*
X138940000Y-107310000D03*
X138140000Y-107310000D03*
X137340000Y-107310000D03*
X136540000Y-107310000D03*
X135740000Y-107310000D03*
X135740000Y-106510000D03*
X135740000Y-105710000D03*
X136540000Y-105710000D03*
X137340000Y-105710000D03*
X138140000Y-105710000D03*
X138940000Y-105710000D03*
X138940000Y-106510000D03*
D13*
X139240000Y-107185000D03*
D10*
G36*
X157356485Y-97882602D02*
X156472602Y-98766485D01*
X156119049Y-98412932D01*
X157002932Y-97529049D01*
X157356485Y-97882602D01*
X157356485Y-97882602D01*
G37*
G36*
X155588718Y-96114835D02*
X154704835Y-96998718D01*
X154351282Y-96645165D01*
X155235165Y-95761282D01*
X155588718Y-96114835D01*
X155588718Y-96114835D01*
G37*
G36*
X153820951Y-94347068D02*
X152937068Y-95230951D01*
X152583515Y-94877398D01*
X153467398Y-93993515D01*
X153820951Y-94347068D01*
X153820951Y-94347068D01*
G37*
D14*
X156720000Y-109250000D03*
X156720000Y-106750000D03*
X156720000Y-104250000D03*
X120460000Y-104260000D03*
X120460000Y-106760000D03*
X120460000Y-109260000D03*
D11*
X136100000Y-123200000D03*
X138600000Y-123200000D03*
X141100000Y-123200000D03*
D10*
G36*
X119843515Y-115677398D02*
X120727398Y-114793515D01*
X121080951Y-115147068D01*
X120197068Y-116030951D01*
X119843515Y-115677398D01*
X119843515Y-115677398D01*
G37*
G36*
X121611282Y-117445165D02*
X122495165Y-116561282D01*
X122848718Y-116914835D01*
X121964835Y-117798718D01*
X121611282Y-117445165D01*
X121611282Y-117445165D01*
G37*
G36*
X123379049Y-119212932D02*
X124262932Y-118329049D01*
X124616485Y-118682602D01*
X123732602Y-119566485D01*
X123379049Y-119212932D01*
X123379049Y-119212932D01*
G37*
G36*
X153487398Y-119536485D02*
X152603515Y-118652602D01*
X152957068Y-118299049D01*
X153840951Y-119182932D01*
X153487398Y-119536485D01*
X153487398Y-119536485D01*
G37*
G36*
X155255165Y-117768718D02*
X154371282Y-116884835D01*
X154724835Y-116531282D01*
X155608718Y-117415165D01*
X155255165Y-117768718D01*
X155255165Y-117768718D01*
G37*
G36*
X157022932Y-116000951D02*
X156139049Y-115117068D01*
X156492602Y-114763515D01*
X157376485Y-115647398D01*
X157022932Y-116000951D01*
X157022932Y-116000951D01*
G37*
G36*
X123752602Y-93983515D02*
X124636485Y-94867398D01*
X124282932Y-95220951D01*
X123399049Y-94337068D01*
X123752602Y-93983515D01*
X123752602Y-93983515D01*
G37*
G36*
X121984835Y-95751282D02*
X122868718Y-96635165D01*
X122515165Y-96988718D01*
X121631282Y-96104835D01*
X121984835Y-95751282D01*
X121984835Y-95751282D01*
G37*
G36*
X120217068Y-97519049D02*
X121100951Y-98402932D01*
X120747398Y-98756485D01*
X119863515Y-97872602D01*
X120217068Y-97519049D01*
X120217068Y-97519049D01*
G37*
D15*
X131275000Y-111400000D03*
X131275000Y-109500000D03*
X129275000Y-110450000D03*
D16*
X150625000Y-103400000D03*
X150625000Y-104900000D03*
X132400000Y-107300000D03*
X132400000Y-105800000D03*
D17*
X140450000Y-109890000D03*
X138950000Y-109890000D03*
X138950000Y-103060000D03*
X140450000Y-103060000D03*
D18*
X150625000Y-106750000D03*
X150625000Y-108350000D03*
M02*
