G04 #@! TF.FileFunction,Copper,L4,Bot,Plane*
%FSLAX46Y46*%
G04 Gerber Fmt 4.6, Leading zero omitted, Abs format (unit mm)*
G04 Created by KiCad (PCBNEW 4.0.7-e2-6376~58~ubuntu16.04.1) date Mon Aug  6 19:30:18 2018*
%MOMM*%
%LPD*%
G01*
G04 APERTURE LIST*
%ADD10C,0.100000*%
%ADD11C,1.050000*%
%ADD12R,1.050000X1.050000*%
%ADD13R,1.000000X1.600000*%
%ADD14R,0.500000X1.250000*%
%ADD15R,1.250000X0.500000*%
%ADD16R,3.000000X1.250000*%
%ADD17R,0.400000X1.100000*%
%ADD18R,0.500000X0.900000*%
%ADD19R,0.900000X0.500000*%
%ADD20R,0.800000X0.750000*%
%ADD21C,0.600000*%
%ADD22C,0.300000*%
%ADD23C,0.400000*%
%ADD24C,0.250000*%
%ADD25C,0.800000*%
%ADD26C,0.500000*%
%ADD27C,0.351000*%
G04 APERTURE END LIST*
D10*
D11*
X129600000Y-95750000D03*
X145600000Y-95750000D03*
D12*
X147600000Y-95750000D03*
D11*
X133600000Y-95750000D03*
X131600000Y-95750000D03*
X143600000Y-95750000D03*
X141600000Y-95750000D03*
X135600000Y-95750000D03*
X137600000Y-95750000D03*
X139600000Y-95750000D03*
D13*
X147600000Y-97350000D03*
X145600000Y-94150000D03*
X143600000Y-97350000D03*
X141600000Y-94150000D03*
X139600000Y-97350000D03*
X137600000Y-94150000D03*
X135600000Y-97350000D03*
X133600000Y-94150000D03*
X131600000Y-97350000D03*
X129600000Y-94150000D03*
D11*
X147600000Y-95750000D03*
X145600000Y-95750000D03*
X143600000Y-95750000D03*
X141600000Y-95750000D03*
X139600000Y-95750000D03*
X137600000Y-95750000D03*
X135600000Y-95750000D03*
X133600000Y-95750000D03*
X131600000Y-95750000D03*
X129600000Y-95750000D03*
D14*
X130580000Y-90290000D03*
X128080000Y-90290000D03*
X139860000Y-90320000D03*
X137360000Y-90320000D03*
X149130000Y-90300000D03*
X146630000Y-90300000D03*
X146640000Y-123200000D03*
X149140000Y-123200000D03*
X128070000Y-123140000D03*
X130570000Y-123140000D03*
D10*
G36*
X156472601Y-96998718D02*
X155588718Y-97882601D01*
X155235165Y-97529048D01*
X156119048Y-96645165D01*
X156472601Y-96998718D01*
X156472601Y-96998718D01*
G37*
G36*
X154704835Y-95230952D02*
X153820952Y-96114835D01*
X153467399Y-95761282D01*
X154351282Y-94877399D01*
X154704835Y-95230952D01*
X154704835Y-95230952D01*
G37*
D15*
X156720000Y-108000000D03*
X156720000Y-105500000D03*
X120460000Y-105510000D03*
X120460000Y-108010000D03*
D14*
X137350000Y-123200000D03*
X139850000Y-123200000D03*
D10*
G36*
X120727399Y-116561282D02*
X121611282Y-115677399D01*
X121964835Y-116030952D01*
X121080952Y-116914835D01*
X120727399Y-116561282D01*
X120727399Y-116561282D01*
G37*
G36*
X122495165Y-118329048D02*
X123379048Y-117445165D01*
X123732601Y-117798718D01*
X122848718Y-118682601D01*
X122495165Y-118329048D01*
X122495165Y-118329048D01*
G37*
G36*
X154371282Y-118652601D02*
X153487399Y-117768718D01*
X153840952Y-117415165D01*
X154724835Y-118299048D01*
X154371282Y-118652601D01*
X154371282Y-118652601D01*
G37*
G36*
X156139048Y-116884835D02*
X155255165Y-116000952D01*
X155608718Y-115647399D01*
X156492601Y-116531282D01*
X156139048Y-116884835D01*
X156139048Y-116884835D01*
G37*
G36*
X122868718Y-94867399D02*
X123752601Y-95751282D01*
X123399048Y-96104835D01*
X122515165Y-95220952D01*
X122868718Y-94867399D01*
X122868718Y-94867399D01*
G37*
G36*
X121100952Y-96635165D02*
X121984835Y-97519048D01*
X121631282Y-97872601D01*
X120747399Y-96988718D01*
X121100952Y-96635165D01*
X121100952Y-96635165D01*
G37*
D11*
X129600000Y-117750000D03*
X145600000Y-117750000D03*
D12*
X147600000Y-117750000D03*
D11*
X133600000Y-117750000D03*
X131600000Y-117750000D03*
X143600000Y-117750000D03*
X141600000Y-117750000D03*
X135600000Y-117750000D03*
X137600000Y-117750000D03*
X139600000Y-117750000D03*
D13*
X147600000Y-116150000D03*
X145600000Y-119350000D03*
X143600000Y-116150000D03*
X141600000Y-119350000D03*
X139600000Y-116150000D03*
X137600000Y-119350000D03*
X135600000Y-116150000D03*
X133600000Y-119350000D03*
X131600000Y-116150000D03*
X129600000Y-119350000D03*
D11*
X147600000Y-117750000D03*
X145600000Y-117750000D03*
X143600000Y-117750000D03*
X141600000Y-117750000D03*
X139600000Y-117750000D03*
X137600000Y-117750000D03*
X135600000Y-117750000D03*
X133600000Y-117750000D03*
X131600000Y-117750000D03*
X129600000Y-117750000D03*
D16*
X148000000Y-112225000D03*
X148000000Y-109475000D03*
X148000000Y-106725000D03*
X148000000Y-103975000D03*
X148000000Y-101225000D03*
D17*
X136425000Y-109600000D03*
X135775000Y-109600000D03*
X135125000Y-109600000D03*
X134475000Y-109600000D03*
X133825000Y-109600000D03*
X133175000Y-109600000D03*
X132525000Y-109600000D03*
X131875000Y-109600000D03*
X131225000Y-109600000D03*
X130575000Y-109600000D03*
X129925000Y-109600000D03*
X129275000Y-109600000D03*
X129275000Y-103900000D03*
X129925000Y-103900000D03*
X130575000Y-103900000D03*
X131225000Y-103900000D03*
X131875000Y-103900000D03*
X132525000Y-103900000D03*
X133175000Y-103900000D03*
X133825000Y-103900000D03*
X134475000Y-103900000D03*
X135125000Y-103900000D03*
X135775000Y-103900000D03*
X136425000Y-103900000D03*
D18*
X132975000Y-92050000D03*
X131475000Y-92050000D03*
X142075000Y-92025000D03*
X140575000Y-92025000D03*
X150625000Y-92350000D03*
X149125000Y-92350000D03*
D19*
X155225000Y-100600000D03*
X155225000Y-99100000D03*
X154725000Y-110925000D03*
X154725000Y-109425000D03*
X151575000Y-118100000D03*
X151575000Y-116600000D03*
D18*
X144375000Y-121325000D03*
X145875000Y-121325000D03*
X134300000Y-121425000D03*
X135800000Y-121425000D03*
X126575000Y-121100000D03*
X128075000Y-121100000D03*
D19*
X122225000Y-112350000D03*
X122225000Y-113850000D03*
X122750000Y-103250000D03*
X122750000Y-104750000D03*
X125500000Y-95025000D03*
X125500000Y-96525000D03*
D20*
X125225000Y-103250000D03*
X126725000Y-103250000D03*
D21*
X128000000Y-109600000D03*
X139825000Y-111125000D03*
X133725000Y-105825000D03*
X146300000Y-112225000D03*
X126325000Y-122325000D03*
X151020000Y-90390000D03*
X133100000Y-90500000D03*
X142320000Y-90500000D03*
X156570000Y-99930000D03*
X156570000Y-110660000D03*
X152180000Y-119780000D03*
X144050000Y-123060000D03*
X134570000Y-123060000D03*
X120650000Y-113230000D03*
X124840000Y-93910000D03*
X120650000Y-102830000D03*
X146300000Y-101225000D03*
X153425000Y-103425000D03*
X126410000Y-116510000D03*
X153430000Y-113980000D03*
X131830000Y-119770000D03*
X139860000Y-119780000D03*
X150370000Y-117100000D03*
X136110000Y-93590000D03*
X126820000Y-96600000D03*
X123960000Y-101620000D03*
X123970000Y-109240000D03*
X150970000Y-96830000D03*
X143600000Y-93590000D03*
X144975000Y-108125000D03*
X136600000Y-100925000D03*
X123870000Y-115510000D03*
X138610000Y-120970000D03*
X123820000Y-97940000D03*
X122770000Y-106750000D03*
X147890000Y-120960000D03*
X153490000Y-115650000D03*
X154570000Y-106750000D03*
X153520000Y-97820000D03*
X138610000Y-92430000D03*
X129330000Y-92430000D03*
X147890000Y-92430000D03*
X129340000Y-120970000D03*
X146300000Y-106725000D03*
X138450000Y-104525000D03*
X135125000Y-100950000D03*
X122200000Y-98090000D03*
X121630000Y-108000000D03*
X123970000Y-117190000D03*
X130580000Y-122040000D03*
X139860000Y-122040000D03*
X149140000Y-122040000D03*
X155010000Y-115400000D03*
X155500000Y-105500000D03*
X153260000Y-96320000D03*
X137360000Y-91560000D03*
X146630000Y-91560000D03*
X128080000Y-91560000D03*
X151675000Y-99750000D03*
X144975000Y-105350000D03*
X133825000Y-102275000D03*
D22*
X128000000Y-109600000D02*
X129275000Y-109600000D01*
X135125000Y-109600000D02*
X135125000Y-110905000D01*
X135345000Y-111125000D02*
X135925000Y-111125000D01*
X135125000Y-110905000D02*
X135345000Y-111125000D01*
X135775000Y-109600000D02*
X135775000Y-110975000D01*
X135775000Y-110975000D02*
X135925000Y-111125000D01*
X135925000Y-111125000D02*
X139825000Y-111125000D01*
D23*
X125225000Y-103250000D02*
X122750000Y-103250000D01*
X142075000Y-92025000D02*
X142075000Y-90745000D01*
X142075000Y-90745000D02*
X142320000Y-90500000D01*
X132975000Y-92050000D02*
X132975000Y-90625000D01*
X132975000Y-90625000D02*
X133100000Y-90500000D01*
X125500000Y-95025000D02*
X125500000Y-94570000D01*
X125500000Y-94570000D02*
X124840000Y-93910000D01*
X122750000Y-103250000D02*
X121070000Y-103250000D01*
X121070000Y-103250000D02*
X120650000Y-102830000D01*
X122225000Y-112350000D02*
X121530000Y-112350000D01*
X121530000Y-112350000D02*
X120650000Y-113230000D01*
X126575000Y-121100000D02*
X126575000Y-122075000D01*
X126575000Y-122075000D02*
X126325000Y-122325000D01*
X134300000Y-121425000D02*
X134300000Y-122790000D01*
X134300000Y-122790000D02*
X134570000Y-123060000D01*
X144375000Y-121325000D02*
X144375000Y-122735000D01*
X144375000Y-122735000D02*
X144050000Y-123060000D01*
X151575000Y-118100000D02*
X151575000Y-119175000D01*
X151575000Y-119175000D02*
X152180000Y-119780000D01*
X154725000Y-110925000D02*
X156305000Y-110925000D01*
X156305000Y-110925000D02*
X156570000Y-110660000D01*
X155225000Y-100600000D02*
X155900000Y-100600000D01*
X155900000Y-100600000D02*
X156570000Y-99930000D01*
X151020000Y-90390000D02*
X151020000Y-91955000D01*
X151020000Y-91955000D02*
X150625000Y-92350000D01*
D22*
X134475000Y-103900000D02*
X134475000Y-105075000D01*
X134475000Y-105075000D02*
X133725000Y-105825000D01*
D23*
X125425000Y-103250000D02*
X122750000Y-103250000D01*
X132975000Y-90625000D02*
X133100000Y-90500000D01*
D24*
X135775000Y-110975000D02*
X135925000Y-111125000D01*
X148000000Y-112225000D02*
X146300000Y-112225000D01*
X126575000Y-122075000D02*
X126325000Y-122325000D01*
X125500000Y-94570000D02*
X124840000Y-93910000D01*
X121530000Y-112350000D02*
X120650000Y-113230000D01*
X151575000Y-119175000D02*
X152180000Y-119780000D01*
D25*
X129600000Y-94150000D02*
X129600000Y-95750000D01*
D24*
X151575000Y-119175000D02*
X152180000Y-119780000D01*
D23*
X123960000Y-101620000D02*
X126530000Y-101620000D01*
X126725000Y-101815000D02*
X126725000Y-103250000D01*
X126530000Y-101620000D02*
X126725000Y-101815000D01*
D24*
X144275000Y-101225000D02*
X146300000Y-101225000D01*
X146300000Y-101225000D02*
X151225000Y-101225000D01*
X151225000Y-101225000D02*
X151125000Y-101125000D01*
X151125000Y-101125000D02*
X151125000Y-101225000D01*
D23*
X136425000Y-103900000D02*
X136425000Y-102575000D01*
X137775000Y-101225000D02*
X144275000Y-101225000D01*
X144275000Y-101225000D02*
X148000000Y-101225000D01*
X136425000Y-102575000D02*
X137775000Y-101225000D01*
D26*
X148000000Y-101225000D02*
X151125000Y-101225000D01*
X151125000Y-101225000D02*
X151225000Y-101225000D01*
X151225000Y-101225000D02*
X153425000Y-103425000D01*
X153425000Y-103425000D02*
X153450000Y-103425000D01*
D25*
X147600000Y-95750000D02*
X147600000Y-97350000D01*
D22*
X134475000Y-109600000D02*
X134475000Y-108605000D01*
X134955000Y-108125000D02*
X144975000Y-108125000D01*
X134475000Y-108605000D02*
X134955000Y-108125000D01*
X135775000Y-103900000D02*
X135775000Y-101750000D01*
X135775000Y-101750000D02*
X136600000Y-100925000D01*
D26*
X148000000Y-103975000D02*
X151795000Y-103975000D01*
X151795000Y-103975000D02*
X154570000Y-106750000D01*
D25*
X141600000Y-95750000D02*
X141600000Y-94150000D01*
D24*
X148000000Y-106725000D02*
X146300000Y-106725000D01*
D22*
X135125000Y-103900000D02*
X135125000Y-100950000D01*
D25*
X139600000Y-95750000D02*
X139600000Y-97350000D01*
D26*
X122200000Y-98090000D02*
X121436117Y-97326117D01*
X121436117Y-97326117D02*
X121436117Y-97323883D01*
X121630000Y-108000000D02*
X120550000Y-108000000D01*
X123970000Y-117190000D02*
X123216117Y-117943883D01*
X123216117Y-117943883D02*
X123203883Y-117943883D01*
X130580000Y-122040000D02*
X130580000Y-123110000D01*
X139860000Y-122040000D02*
X139860000Y-123110000D01*
X149140000Y-122040000D02*
X149140000Y-123110000D01*
X155010000Y-115400000D02*
X155783883Y-116173883D01*
X155783883Y-116173883D02*
X155783883Y-116176117D01*
X156660000Y-105500000D02*
X155500000Y-105500000D01*
X153260000Y-96320000D02*
X154016117Y-95563883D01*
X154016117Y-95563883D02*
X154016117Y-95556117D01*
X137360000Y-90390000D02*
X137360000Y-91560000D01*
X128080000Y-90390000D02*
X128080000Y-91560000D01*
X146640000Y-91550000D02*
X146640000Y-90390000D01*
X146630000Y-91560000D02*
X146640000Y-91550000D01*
D22*
X133825000Y-109600000D02*
X133825000Y-108100000D01*
X133825000Y-108100000D02*
X136575000Y-105350000D01*
X136575000Y-105350000D02*
X144975000Y-105350000D01*
D23*
X155225000Y-99100000D02*
X152325000Y-99100000D01*
X152325000Y-99100000D02*
X151675000Y-99750000D01*
X155225000Y-99100000D02*
X155225000Y-97892766D01*
X155225000Y-97892766D02*
X155853883Y-97263883D01*
D24*
X155225000Y-97892766D02*
X155853883Y-97263883D01*
X151675000Y-99750000D02*
X152325000Y-99100000D01*
D23*
X154725000Y-109425000D02*
X154725000Y-108775000D01*
X155500000Y-108000000D02*
X156720000Y-108000000D01*
X154725000Y-108775000D02*
X155500000Y-108000000D01*
D24*
X133175000Y-109600000D02*
X133175000Y-110775000D01*
X144300000Y-112075000D02*
X145525000Y-110850000D01*
X134475000Y-112075000D02*
X144300000Y-112075000D01*
X133175000Y-110775000D02*
X134475000Y-112075000D01*
X145525000Y-110850000D02*
X151025000Y-110850000D01*
X154725000Y-109425000D02*
X152450000Y-109425000D01*
X152450000Y-109425000D02*
X151025000Y-110850000D01*
X154425000Y-109425000D02*
X154725000Y-109425000D01*
D23*
X132525000Y-109600000D02*
X132525000Y-111100000D01*
X132525000Y-111100000D02*
X134475000Y-113050000D01*
X134475000Y-113050000D02*
X144625000Y-113050000D01*
X144625000Y-113050000D02*
X145775000Y-114200000D01*
X145775000Y-114200000D02*
X150282234Y-114200000D01*
X150282234Y-114200000D02*
X151575000Y-115492766D01*
X151575000Y-115492766D02*
X151575000Y-116600000D01*
X151575000Y-116600000D02*
X152672234Y-116600000D01*
X152672234Y-116600000D02*
X154106117Y-118033883D01*
D24*
X151575000Y-116600000D02*
X151575000Y-116450000D01*
X132525000Y-111100000D02*
X134475000Y-113050000D01*
X144625000Y-113050000D02*
X145775000Y-114200000D01*
D23*
X146640000Y-123200000D02*
X146640000Y-121665000D01*
X146300000Y-121325000D02*
X145875000Y-121325000D01*
X146640000Y-121665000D02*
X146300000Y-121325000D01*
D24*
X145875000Y-121325000D02*
X146600000Y-121325000D01*
X146600000Y-121325000D02*
X146550000Y-121325000D01*
X146550000Y-121325000D02*
X146600000Y-121325000D01*
X131875000Y-109600000D02*
X131875000Y-111525000D01*
X146600000Y-116925000D02*
X146600000Y-121325000D01*
X146600000Y-121325000D02*
X146600000Y-123160000D01*
X143850000Y-114175000D02*
X146600000Y-116925000D01*
X134525000Y-114175000D02*
X143850000Y-114175000D01*
X131875000Y-111525000D02*
X134525000Y-114175000D01*
X146600000Y-123160000D02*
X146640000Y-123200000D01*
X146600000Y-123075000D02*
X146625000Y-123100000D01*
D23*
X135800000Y-121425000D02*
X136975000Y-121425000D01*
X136975000Y-121425000D02*
X137350000Y-121800000D01*
X137350000Y-121800000D02*
X137350000Y-123200000D01*
D24*
X136975000Y-121425000D02*
X137350000Y-121800000D01*
X137350000Y-121800000D02*
X137350000Y-123200000D01*
X131225000Y-109600000D02*
X131225000Y-111975000D01*
X135800000Y-119500000D02*
X135800000Y-121425000D01*
X134600000Y-118300000D02*
X135800000Y-119500000D01*
X134600000Y-115350000D02*
X134600000Y-118300000D01*
X131225000Y-111975000D02*
X134600000Y-115350000D01*
X137350000Y-121800000D02*
X137350000Y-123100000D01*
D23*
X128075000Y-121100000D02*
X128075000Y-114450000D01*
X128075000Y-114450000D02*
X130575000Y-111950000D01*
X130575000Y-111950000D02*
X130575000Y-109600000D01*
D24*
X130575000Y-109600000D02*
X130575000Y-111950000D01*
X128070000Y-114455000D02*
X128070000Y-114655000D01*
X128070000Y-114655000D02*
X128070000Y-123140000D01*
X130575000Y-111950000D02*
X128070000Y-114455000D01*
D23*
X128075000Y-121100000D02*
X128075000Y-123135000D01*
X128075000Y-123135000D02*
X128070000Y-123140000D01*
D24*
X128080000Y-121450000D02*
X128080000Y-123110000D01*
D23*
X122225000Y-113850000D02*
X127550000Y-113850000D01*
X127550000Y-113850000D02*
X129925000Y-111475000D01*
X129925000Y-111475000D02*
X129925000Y-109600000D01*
D24*
X129925000Y-109600000D02*
X129925000Y-111475000D01*
X129925000Y-111475000D02*
X127550000Y-113850000D01*
D23*
X122225000Y-113850000D02*
X122225000Y-115417234D01*
X122225000Y-115417234D02*
X121346117Y-116296117D01*
D24*
X121346117Y-116296117D02*
X121353883Y-116296117D01*
D23*
X120460000Y-105510000D02*
X128915000Y-105510000D01*
X128915000Y-105510000D02*
X129275000Y-105150000D01*
X129275000Y-105150000D02*
X129275000Y-103900000D01*
X122750000Y-104750000D02*
X122750000Y-105510000D01*
X122750000Y-105510000D02*
X120460000Y-105510000D01*
D24*
X122800000Y-105475000D02*
X122800000Y-105510000D01*
X122785000Y-105475000D02*
X122800000Y-105475000D01*
X122750000Y-105510000D02*
X122785000Y-105475000D01*
X120460000Y-105510000D02*
X122800000Y-105510000D01*
X129275000Y-105150000D02*
X129275000Y-103900000D01*
X128915000Y-105510000D02*
X129275000Y-105150000D01*
D23*
X129925000Y-103900000D02*
X129925000Y-102275000D01*
X129925000Y-102275000D02*
X124175000Y-96525000D01*
X124175000Y-96525000D02*
X124172766Y-96525000D01*
X125500000Y-96525000D02*
X124172766Y-96525000D01*
X124172766Y-96525000D02*
X123133883Y-95486117D01*
D24*
X123133883Y-95486117D02*
X123136117Y-95486117D01*
X123136117Y-95486117D02*
X125075000Y-97425000D01*
X125075000Y-97425000D02*
X125125000Y-97475000D01*
X125125000Y-97475000D02*
X129925000Y-102275000D01*
D23*
X131475000Y-92050000D02*
X130900000Y-92050000D01*
X130580000Y-91730000D02*
X130580000Y-90290000D01*
X130900000Y-92050000D02*
X130580000Y-91730000D01*
D24*
X130575000Y-103900000D02*
X130575000Y-102225000D01*
X131475000Y-94350000D02*
X131475000Y-92050000D01*
X130575000Y-95250000D02*
X131475000Y-94350000D01*
X130575000Y-102225000D02*
X130575000Y-95250000D01*
D23*
X140575000Y-92025000D02*
X139950000Y-92025000D01*
X139950000Y-92025000D02*
X139860000Y-91935000D01*
X139860000Y-91935000D02*
X139860000Y-90320000D01*
D24*
X139860000Y-91935000D02*
X139860000Y-90320000D01*
X139950000Y-92025000D02*
X139860000Y-91935000D01*
X131225000Y-103900000D02*
X131225000Y-100600000D01*
X140575000Y-92900000D02*
X140575000Y-92025000D01*
X138600000Y-94875000D02*
X140575000Y-92900000D01*
X138600000Y-97325000D02*
X138600000Y-94875000D01*
X136925000Y-99000000D02*
X138600000Y-97325000D01*
X132825000Y-99000000D02*
X136925000Y-99000000D01*
X131225000Y-100600000D02*
X132825000Y-99000000D01*
D23*
X149125000Y-92350000D02*
X149125000Y-90305000D01*
X149125000Y-90305000D02*
X149130000Y-90300000D01*
D24*
X149130000Y-90300000D02*
X149130000Y-92345000D01*
X149130000Y-92345000D02*
X149125000Y-92350000D01*
X149125000Y-92350000D02*
X149125000Y-93225000D01*
X149125000Y-93225000D02*
X149675000Y-93775000D01*
X149675000Y-97775000D02*
X149675000Y-98150000D01*
X149675000Y-98150000D02*
X148100000Y-99725000D01*
X149130000Y-90300000D02*
X149130000Y-91930000D01*
X149130000Y-91930000D02*
X149275000Y-92075000D01*
X131875000Y-103900000D02*
X131875000Y-101325000D01*
X133475000Y-99725000D02*
X148100000Y-99725000D01*
X131875000Y-101325000D02*
X133475000Y-99725000D01*
X149675000Y-97775000D02*
X149675000Y-93775000D01*
D25*
X133600000Y-119350000D02*
X133600000Y-117750000D01*
D26*
X133600000Y-117750000D02*
X133600000Y-118925000D01*
D22*
X133825000Y-103900000D02*
X133825000Y-102275000D01*
D25*
X129600000Y-117750000D02*
X129600000Y-119350000D01*
X145600000Y-119350000D02*
X145600000Y-117750000D01*
X147600000Y-116150000D02*
X147600000Y-117750000D01*
X131600000Y-116150000D02*
X131600000Y-117750000D01*
X143600000Y-116150000D02*
X143600000Y-117750000D01*
X141600000Y-119350000D02*
X141600000Y-117750000D01*
X135600000Y-116150000D02*
X135600000Y-117750000D01*
X137600000Y-119350000D02*
X137600000Y-117750000D01*
X139600000Y-116150000D02*
X139600000Y-117750000D01*
X145600000Y-94150000D02*
X145600000Y-95750000D01*
X133600000Y-95750000D02*
X133600000Y-94150000D01*
X131600000Y-95750000D02*
X131600000Y-97350000D01*
X143600000Y-95750000D02*
X143600000Y-97350000D01*
X135600000Y-95750000D02*
X135600000Y-97350000D01*
X137600000Y-95750000D02*
X137600000Y-94150000D01*
D27*
G36*
X144724500Y-118251080D02*
X144724500Y-118257295D01*
X144653382Y-118361380D01*
X144615185Y-118550000D01*
X144615185Y-120150000D01*
X144648341Y-120326210D01*
X144699174Y-120405206D01*
X144625000Y-120390185D01*
X144125000Y-120390185D01*
X143948790Y-120423341D01*
X143786953Y-120527481D01*
X143678382Y-120686380D01*
X143640185Y-120875000D01*
X143640185Y-121775000D01*
X143673341Y-121951210D01*
X143699500Y-121991862D01*
X143699500Y-122365732D01*
X143611288Y-122402180D01*
X143392946Y-122620141D01*
X143274635Y-122905067D01*
X143274366Y-123213580D01*
X143289208Y-123249500D01*
X140584815Y-123249500D01*
X140584815Y-123113444D01*
X140585500Y-123110000D01*
X140585500Y-122315022D01*
X140635365Y-122194933D01*
X140635634Y-121886420D01*
X140517820Y-121601288D01*
X140299859Y-121382946D01*
X140014933Y-121264635D01*
X139706420Y-121264366D01*
X139421288Y-121382180D01*
X139202946Y-121600141D01*
X139084635Y-121885067D01*
X139084366Y-122193580D01*
X139134500Y-122314914D01*
X139134500Y-122479621D01*
X139115185Y-122575000D01*
X139115185Y-123249500D01*
X138084815Y-123249500D01*
X138084815Y-122575000D01*
X138051659Y-122398790D01*
X138025500Y-122358138D01*
X138025500Y-121800000D01*
X137974081Y-121541497D01*
X137827651Y-121322349D01*
X137452651Y-120947349D01*
X137233503Y-120800919D01*
X136975000Y-120749499D01*
X136974995Y-120749500D01*
X136469942Y-120749500D01*
X136400500Y-120641586D01*
X136400500Y-119500000D01*
X136354790Y-119270199D01*
X136224618Y-119075382D01*
X136224615Y-119075380D01*
X135870153Y-118720917D01*
X136165997Y-118598677D01*
X136447688Y-118317478D01*
X136600187Y-117950220D01*
X136724500Y-118251080D01*
X136724500Y-118257295D01*
X136653382Y-118361380D01*
X136615185Y-118550000D01*
X136615185Y-120150000D01*
X136648341Y-120326210D01*
X136752481Y-120488047D01*
X136911380Y-120596618D01*
X137100000Y-120634815D01*
X137909482Y-120634815D01*
X137834635Y-120815067D01*
X137834366Y-121123580D01*
X137952180Y-121408712D01*
X138170141Y-121627054D01*
X138455067Y-121745365D01*
X138763580Y-121745634D01*
X139048712Y-121627820D01*
X139267054Y-121409859D01*
X139385365Y-121124933D01*
X139385634Y-120816420D01*
X139267820Y-120531288D01*
X139049859Y-120312946D01*
X138764933Y-120194635D01*
X138575809Y-120194470D01*
X138584815Y-120150000D01*
X138584815Y-118550000D01*
X138551659Y-118373790D01*
X138475500Y-118255436D01*
X138475500Y-118250499D01*
X138600187Y-117950220D01*
X138751323Y-118315997D01*
X139032522Y-118597688D01*
X139400115Y-118750326D01*
X139798139Y-118750673D01*
X140165997Y-118598677D01*
X140447688Y-118317478D01*
X140600187Y-117950220D01*
X140724500Y-118251080D01*
X140724500Y-118257295D01*
X140653382Y-118361380D01*
X140615185Y-118550000D01*
X140615185Y-120150000D01*
X140648341Y-120326210D01*
X140752481Y-120488047D01*
X140911380Y-120596618D01*
X141100000Y-120634815D01*
X142100000Y-120634815D01*
X142276210Y-120601659D01*
X142438047Y-120497519D01*
X142546618Y-120338620D01*
X142584815Y-120150000D01*
X142584815Y-118550000D01*
X142551659Y-118373790D01*
X142475500Y-118255436D01*
X142475500Y-118250499D01*
X142600187Y-117950220D01*
X142751323Y-118315997D01*
X143032522Y-118597688D01*
X143400115Y-118750326D01*
X143798139Y-118750673D01*
X144165997Y-118598677D01*
X144447688Y-118317478D01*
X144600187Y-117950220D01*
X144724500Y-118251080D01*
X144724500Y-118251080D01*
G37*
X144724500Y-118251080D02*
X144724500Y-118257295D01*
X144653382Y-118361380D01*
X144615185Y-118550000D01*
X144615185Y-120150000D01*
X144648341Y-120326210D01*
X144699174Y-120405206D01*
X144625000Y-120390185D01*
X144125000Y-120390185D01*
X143948790Y-120423341D01*
X143786953Y-120527481D01*
X143678382Y-120686380D01*
X143640185Y-120875000D01*
X143640185Y-121775000D01*
X143673341Y-121951210D01*
X143699500Y-121991862D01*
X143699500Y-122365732D01*
X143611288Y-122402180D01*
X143392946Y-122620141D01*
X143274635Y-122905067D01*
X143274366Y-123213580D01*
X143289208Y-123249500D01*
X140584815Y-123249500D01*
X140584815Y-123113444D01*
X140585500Y-123110000D01*
X140585500Y-122315022D01*
X140635365Y-122194933D01*
X140635634Y-121886420D01*
X140517820Y-121601288D01*
X140299859Y-121382946D01*
X140014933Y-121264635D01*
X139706420Y-121264366D01*
X139421288Y-121382180D01*
X139202946Y-121600141D01*
X139084635Y-121885067D01*
X139084366Y-122193580D01*
X139134500Y-122314914D01*
X139134500Y-122479621D01*
X139115185Y-122575000D01*
X139115185Y-123249500D01*
X138084815Y-123249500D01*
X138084815Y-122575000D01*
X138051659Y-122398790D01*
X138025500Y-122358138D01*
X138025500Y-121800000D01*
X137974081Y-121541497D01*
X137827651Y-121322349D01*
X137452651Y-120947349D01*
X137233503Y-120800919D01*
X136975000Y-120749499D01*
X136974995Y-120749500D01*
X136469942Y-120749500D01*
X136400500Y-120641586D01*
X136400500Y-119500000D01*
X136354790Y-119270199D01*
X136224618Y-119075382D01*
X136224615Y-119075380D01*
X135870153Y-118720917D01*
X136165997Y-118598677D01*
X136447688Y-118317478D01*
X136600187Y-117950220D01*
X136724500Y-118251080D01*
X136724500Y-118257295D01*
X136653382Y-118361380D01*
X136615185Y-118550000D01*
X136615185Y-120150000D01*
X136648341Y-120326210D01*
X136752481Y-120488047D01*
X136911380Y-120596618D01*
X137100000Y-120634815D01*
X137909482Y-120634815D01*
X137834635Y-120815067D01*
X137834366Y-121123580D01*
X137952180Y-121408712D01*
X138170141Y-121627054D01*
X138455067Y-121745365D01*
X138763580Y-121745634D01*
X139048712Y-121627820D01*
X139267054Y-121409859D01*
X139385365Y-121124933D01*
X139385634Y-120816420D01*
X139267820Y-120531288D01*
X139049859Y-120312946D01*
X138764933Y-120194635D01*
X138575809Y-120194470D01*
X138584815Y-120150000D01*
X138584815Y-118550000D01*
X138551659Y-118373790D01*
X138475500Y-118255436D01*
X138475500Y-118250499D01*
X138600187Y-117950220D01*
X138751323Y-118315997D01*
X139032522Y-118597688D01*
X139400115Y-118750326D01*
X139798139Y-118750673D01*
X140165997Y-118598677D01*
X140447688Y-118317478D01*
X140600187Y-117950220D01*
X140724500Y-118251080D01*
X140724500Y-118257295D01*
X140653382Y-118361380D01*
X140615185Y-118550000D01*
X140615185Y-120150000D01*
X140648341Y-120326210D01*
X140752481Y-120488047D01*
X140911380Y-120596618D01*
X141100000Y-120634815D01*
X142100000Y-120634815D01*
X142276210Y-120601659D01*
X142438047Y-120497519D01*
X142546618Y-120338620D01*
X142584815Y-120150000D01*
X142584815Y-118550000D01*
X142551659Y-118373790D01*
X142475500Y-118255436D01*
X142475500Y-118250499D01*
X142600187Y-117950220D01*
X142751323Y-118315997D01*
X143032522Y-118597688D01*
X143400115Y-118750326D01*
X143798139Y-118750673D01*
X144165997Y-118598677D01*
X144447688Y-118317478D01*
X144600187Y-117950220D01*
X144724500Y-118251080D01*
G36*
X150899500Y-115772567D02*
X150899500Y-115930058D01*
X150786953Y-116002481D01*
X150678382Y-116161380D01*
X150640185Y-116350000D01*
X150640185Y-116850000D01*
X150673341Y-117026210D01*
X150777481Y-117188047D01*
X150936380Y-117296618D01*
X151125000Y-117334815D01*
X152025000Y-117334815D01*
X152201210Y-117301659D01*
X152241862Y-117275500D01*
X152392432Y-117275500D01*
X153031295Y-117914362D01*
X153038217Y-117951150D01*
X153144583Y-118111534D01*
X153612263Y-118579214D01*
X152841436Y-119350040D01*
X152837820Y-119341288D01*
X152619859Y-119122946D01*
X152377691Y-119022390D01*
X152250500Y-118895198D01*
X152250500Y-118769942D01*
X152363047Y-118697519D01*
X152471618Y-118538620D01*
X152509815Y-118350000D01*
X152509815Y-117850000D01*
X152476659Y-117673790D01*
X152372519Y-117511953D01*
X152213620Y-117403382D01*
X152025000Y-117365185D01*
X151125000Y-117365185D01*
X150948790Y-117398341D01*
X150786953Y-117502481D01*
X150678382Y-117661380D01*
X150640185Y-117850000D01*
X150640185Y-118350000D01*
X150673341Y-118526210D01*
X150777481Y-118688047D01*
X150899500Y-118771419D01*
X150899500Y-119174995D01*
X150899499Y-119175000D01*
X150950919Y-119433503D01*
X151097349Y-119652651D01*
X151422735Y-119978036D01*
X151522180Y-120218712D01*
X151740141Y-120437054D01*
X151750232Y-120441244D01*
X151330738Y-120860738D01*
X151211404Y-121039332D01*
X151181962Y-121187349D01*
X151169500Y-121250000D01*
X151169500Y-123249500D01*
X149874815Y-123249500D01*
X149874815Y-122575000D01*
X149865500Y-122525495D01*
X149865500Y-122315022D01*
X149915365Y-122194933D01*
X149915634Y-121886420D01*
X149797820Y-121601288D01*
X149579859Y-121382946D01*
X149294933Y-121264635D01*
X148986420Y-121264366D01*
X148701288Y-121382180D01*
X148482946Y-121600141D01*
X148364635Y-121885067D01*
X148364366Y-122193580D01*
X148414500Y-122314914D01*
X148414500Y-122529002D01*
X148405185Y-122575000D01*
X148405185Y-123249500D01*
X147374815Y-123249500D01*
X147374815Y-122575000D01*
X147341659Y-122398790D01*
X147315500Y-122358138D01*
X147315500Y-121665005D01*
X147315501Y-121665000D01*
X147270085Y-121436684D01*
X147450141Y-121617054D01*
X147735067Y-121735365D01*
X148043580Y-121735634D01*
X148328712Y-121617820D01*
X148547054Y-121399859D01*
X148665365Y-121114933D01*
X148665634Y-120806420D01*
X148547820Y-120521288D01*
X148329859Y-120302946D01*
X148044933Y-120184635D01*
X147736420Y-120184366D01*
X147451288Y-120302180D01*
X147232946Y-120520141D01*
X147200500Y-120598280D01*
X147200500Y-118759815D01*
X148125000Y-118759815D01*
X148301210Y-118726659D01*
X148463047Y-118622519D01*
X148571618Y-118463620D01*
X148609815Y-118275000D01*
X148609815Y-117225000D01*
X148576659Y-117048790D01*
X148567646Y-117034783D01*
X148584815Y-116950000D01*
X148584815Y-115350000D01*
X148551659Y-115173790D01*
X148447519Y-115011953D01*
X148288620Y-114903382D01*
X148150936Y-114875500D01*
X150002432Y-114875500D01*
X150899500Y-115772567D01*
X150899500Y-115772567D01*
G37*
X150899500Y-115772567D02*
X150899500Y-115930058D01*
X150786953Y-116002481D01*
X150678382Y-116161380D01*
X150640185Y-116350000D01*
X150640185Y-116850000D01*
X150673341Y-117026210D01*
X150777481Y-117188047D01*
X150936380Y-117296618D01*
X151125000Y-117334815D01*
X152025000Y-117334815D01*
X152201210Y-117301659D01*
X152241862Y-117275500D01*
X152392432Y-117275500D01*
X153031295Y-117914362D01*
X153038217Y-117951150D01*
X153144583Y-118111534D01*
X153612263Y-118579214D01*
X152841436Y-119350040D01*
X152837820Y-119341288D01*
X152619859Y-119122946D01*
X152377691Y-119022390D01*
X152250500Y-118895198D01*
X152250500Y-118769942D01*
X152363047Y-118697519D01*
X152471618Y-118538620D01*
X152509815Y-118350000D01*
X152509815Y-117850000D01*
X152476659Y-117673790D01*
X152372519Y-117511953D01*
X152213620Y-117403382D01*
X152025000Y-117365185D01*
X151125000Y-117365185D01*
X150948790Y-117398341D01*
X150786953Y-117502481D01*
X150678382Y-117661380D01*
X150640185Y-117850000D01*
X150640185Y-118350000D01*
X150673341Y-118526210D01*
X150777481Y-118688047D01*
X150899500Y-118771419D01*
X150899500Y-119174995D01*
X150899499Y-119175000D01*
X150950919Y-119433503D01*
X151097349Y-119652651D01*
X151422735Y-119978036D01*
X151522180Y-120218712D01*
X151740141Y-120437054D01*
X151750232Y-120441244D01*
X151330738Y-120860738D01*
X151211404Y-121039332D01*
X151181962Y-121187349D01*
X151169500Y-121250000D01*
X151169500Y-123249500D01*
X149874815Y-123249500D01*
X149874815Y-122575000D01*
X149865500Y-122525495D01*
X149865500Y-122315022D01*
X149915365Y-122194933D01*
X149915634Y-121886420D01*
X149797820Y-121601288D01*
X149579859Y-121382946D01*
X149294933Y-121264635D01*
X148986420Y-121264366D01*
X148701288Y-121382180D01*
X148482946Y-121600141D01*
X148364635Y-121885067D01*
X148364366Y-122193580D01*
X148414500Y-122314914D01*
X148414500Y-122529002D01*
X148405185Y-122575000D01*
X148405185Y-123249500D01*
X147374815Y-123249500D01*
X147374815Y-122575000D01*
X147341659Y-122398790D01*
X147315500Y-122358138D01*
X147315500Y-121665005D01*
X147315501Y-121665000D01*
X147270085Y-121436684D01*
X147450141Y-121617054D01*
X147735067Y-121735365D01*
X148043580Y-121735634D01*
X148328712Y-121617820D01*
X148547054Y-121399859D01*
X148665365Y-121114933D01*
X148665634Y-120806420D01*
X148547820Y-120521288D01*
X148329859Y-120302946D01*
X148044933Y-120184635D01*
X147736420Y-120184366D01*
X147451288Y-120302180D01*
X147232946Y-120520141D01*
X147200500Y-120598280D01*
X147200500Y-118759815D01*
X148125000Y-118759815D01*
X148301210Y-118726659D01*
X148463047Y-118622519D01*
X148571618Y-118463620D01*
X148609815Y-118275000D01*
X148609815Y-117225000D01*
X148576659Y-117048790D01*
X148567646Y-117034783D01*
X148584815Y-116950000D01*
X148584815Y-115350000D01*
X148551659Y-115173790D01*
X148447519Y-115011953D01*
X148288620Y-114903382D01*
X148150936Y-114875500D01*
X150002432Y-114875500D01*
X150899500Y-115772567D01*
G36*
X127399500Y-120430473D02*
X127378382Y-120461380D01*
X127340185Y-120650000D01*
X127340185Y-121550000D01*
X127373341Y-121726210D01*
X127399500Y-121766862D01*
X127399500Y-122288155D01*
X127373382Y-122326380D01*
X127335185Y-122515000D01*
X127335185Y-123249500D01*
X125990500Y-123249500D01*
X125990500Y-123025803D01*
X126170067Y-123100365D01*
X126478580Y-123100634D01*
X126763712Y-122982820D01*
X126982054Y-122764859D01*
X127098929Y-122483391D01*
X127199081Y-122333503D01*
X127250500Y-122075000D01*
X127250500Y-121769527D01*
X127271618Y-121738620D01*
X127309815Y-121550000D01*
X127309815Y-120650000D01*
X127276659Y-120473790D01*
X127172519Y-120311953D01*
X127013620Y-120203382D01*
X126825000Y-120165185D01*
X126325000Y-120165185D01*
X126148790Y-120198341D01*
X125986953Y-120302481D01*
X125878382Y-120461380D01*
X125840185Y-120650000D01*
X125840185Y-120837085D01*
X125829262Y-120820738D01*
X125739265Y-120730741D01*
X125739263Y-120730738D01*
X123612738Y-118604213D01*
X124075417Y-118141534D01*
X124142161Y-118043851D01*
X124288537Y-117897475D01*
X124408712Y-117847820D01*
X124627054Y-117629859D01*
X124745365Y-117344933D01*
X124745634Y-117036420D01*
X124627820Y-116751288D01*
X124409859Y-116532946D01*
X124124933Y-116414635D01*
X123816420Y-116414366D01*
X123531288Y-116532180D01*
X123312946Y-116750141D01*
X123262600Y-116871388D01*
X122727746Y-117406242D01*
X122690877Y-117430877D01*
X122656993Y-117481588D01*
X122573553Y-117565028D01*
X121844972Y-116836447D01*
X122307651Y-116373768D01*
X122408805Y-116225724D01*
X122419053Y-116178482D01*
X122702648Y-115894887D01*
X122702651Y-115894885D01*
X122849081Y-115675737D01*
X122851499Y-115663580D01*
X123094366Y-115663580D01*
X123212180Y-115948712D01*
X123430141Y-116167054D01*
X123715067Y-116285365D01*
X124023580Y-116285634D01*
X124308712Y-116167820D01*
X124527054Y-115949859D01*
X124645365Y-115664933D01*
X124645634Y-115356420D01*
X124527820Y-115071288D01*
X124309859Y-114852946D01*
X124024933Y-114734635D01*
X123716420Y-114734366D01*
X123431288Y-114852180D01*
X123212946Y-115070141D01*
X123094635Y-115355067D01*
X123094366Y-115663580D01*
X122851499Y-115663580D01*
X122900500Y-115417234D01*
X122900500Y-114525500D01*
X127399500Y-114525500D01*
X127399500Y-120430473D01*
X127399500Y-120430473D01*
G37*
X127399500Y-120430473D02*
X127378382Y-120461380D01*
X127340185Y-120650000D01*
X127340185Y-121550000D01*
X127373341Y-121726210D01*
X127399500Y-121766862D01*
X127399500Y-122288155D01*
X127373382Y-122326380D01*
X127335185Y-122515000D01*
X127335185Y-123249500D01*
X125990500Y-123249500D01*
X125990500Y-123025803D01*
X126170067Y-123100365D01*
X126478580Y-123100634D01*
X126763712Y-122982820D01*
X126982054Y-122764859D01*
X127098929Y-122483391D01*
X127199081Y-122333503D01*
X127250500Y-122075000D01*
X127250500Y-121769527D01*
X127271618Y-121738620D01*
X127309815Y-121550000D01*
X127309815Y-120650000D01*
X127276659Y-120473790D01*
X127172519Y-120311953D01*
X127013620Y-120203382D01*
X126825000Y-120165185D01*
X126325000Y-120165185D01*
X126148790Y-120198341D01*
X125986953Y-120302481D01*
X125878382Y-120461380D01*
X125840185Y-120650000D01*
X125840185Y-120837085D01*
X125829262Y-120820738D01*
X125739265Y-120730741D01*
X125739263Y-120730738D01*
X123612738Y-118604213D01*
X124075417Y-118141534D01*
X124142161Y-118043851D01*
X124288537Y-117897475D01*
X124408712Y-117847820D01*
X124627054Y-117629859D01*
X124745365Y-117344933D01*
X124745634Y-117036420D01*
X124627820Y-116751288D01*
X124409859Y-116532946D01*
X124124933Y-116414635D01*
X123816420Y-116414366D01*
X123531288Y-116532180D01*
X123312946Y-116750141D01*
X123262600Y-116871388D01*
X122727746Y-117406242D01*
X122690877Y-117430877D01*
X122656993Y-117481588D01*
X122573553Y-117565028D01*
X121844972Y-116836447D01*
X122307651Y-116373768D01*
X122408805Y-116225724D01*
X122419053Y-116178482D01*
X122702648Y-115894887D01*
X122702651Y-115894885D01*
X122849081Y-115675737D01*
X122851499Y-115663580D01*
X123094366Y-115663580D01*
X123212180Y-115948712D01*
X123430141Y-116167054D01*
X123715067Y-116285365D01*
X124023580Y-116285634D01*
X124308712Y-116167820D01*
X124527054Y-115949859D01*
X124645365Y-115664933D01*
X124645634Y-115356420D01*
X124527820Y-115071288D01*
X124309859Y-114852946D01*
X124024933Y-114734635D01*
X123716420Y-114734366D01*
X123431288Y-114852180D01*
X123212946Y-115070141D01*
X123094635Y-115355067D01*
X123094366Y-115663580D01*
X122851499Y-115663580D01*
X122900500Y-115417234D01*
X122900500Y-114525500D01*
X127399500Y-114525500D01*
X127399500Y-120430473D01*
G36*
X132724500Y-118251080D02*
X132724500Y-118257295D01*
X132653382Y-118361380D01*
X132615185Y-118550000D01*
X132615185Y-120150000D01*
X132648341Y-120326210D01*
X132752481Y-120488047D01*
X132911380Y-120596618D01*
X133100000Y-120634815D01*
X133706942Y-120634815D01*
X133603382Y-120786380D01*
X133565185Y-120975000D01*
X133565185Y-121875000D01*
X133598341Y-122051210D01*
X133624500Y-122091862D01*
X133624500Y-122789995D01*
X133624499Y-122790000D01*
X133675919Y-123048503D01*
X133807566Y-123245527D01*
X133809208Y-123249500D01*
X131304815Y-123249500D01*
X131304815Y-123113444D01*
X131305500Y-123110000D01*
X131305500Y-122315022D01*
X131355365Y-122194933D01*
X131355634Y-121886420D01*
X131237820Y-121601288D01*
X131019859Y-121382946D01*
X130734933Y-121264635D01*
X130426420Y-121264366D01*
X130141288Y-121382180D01*
X129922946Y-121600141D01*
X129804635Y-121885067D01*
X129804366Y-122193580D01*
X129854500Y-122314914D01*
X129854500Y-122419621D01*
X129835185Y-122515000D01*
X129835185Y-123249500D01*
X128804815Y-123249500D01*
X128804815Y-122515000D01*
X128771659Y-122338790D01*
X128750500Y-122305908D01*
X128750500Y-121769527D01*
X128771618Y-121738620D01*
X128809815Y-121550000D01*
X128809815Y-121536570D01*
X128900141Y-121627054D01*
X129185067Y-121745365D01*
X129493580Y-121745634D01*
X129778712Y-121627820D01*
X129997054Y-121409859D01*
X130115365Y-121124933D01*
X130115634Y-120816420D01*
X130040596Y-120634815D01*
X130100000Y-120634815D01*
X130276210Y-120601659D01*
X130438047Y-120497519D01*
X130546618Y-120338620D01*
X130584815Y-120150000D01*
X130584815Y-118550000D01*
X130551659Y-118373790D01*
X130475500Y-118255436D01*
X130475500Y-118250499D01*
X130600187Y-117950220D01*
X130751323Y-118315997D01*
X131032522Y-118597688D01*
X131400115Y-118750326D01*
X131798139Y-118750673D01*
X132165997Y-118598677D01*
X132447688Y-118317478D01*
X132600187Y-117950220D01*
X132724500Y-118251080D01*
X132724500Y-118251080D01*
G37*
X132724500Y-118251080D02*
X132724500Y-118257295D01*
X132653382Y-118361380D01*
X132615185Y-118550000D01*
X132615185Y-120150000D01*
X132648341Y-120326210D01*
X132752481Y-120488047D01*
X132911380Y-120596618D01*
X133100000Y-120634815D01*
X133706942Y-120634815D01*
X133603382Y-120786380D01*
X133565185Y-120975000D01*
X133565185Y-121875000D01*
X133598341Y-122051210D01*
X133624500Y-122091862D01*
X133624500Y-122789995D01*
X133624499Y-122790000D01*
X133675919Y-123048503D01*
X133807566Y-123245527D01*
X133809208Y-123249500D01*
X131304815Y-123249500D01*
X131304815Y-123113444D01*
X131305500Y-123110000D01*
X131305500Y-122315022D01*
X131355365Y-122194933D01*
X131355634Y-121886420D01*
X131237820Y-121601288D01*
X131019859Y-121382946D01*
X130734933Y-121264635D01*
X130426420Y-121264366D01*
X130141288Y-121382180D01*
X129922946Y-121600141D01*
X129804635Y-121885067D01*
X129804366Y-122193580D01*
X129854500Y-122314914D01*
X129854500Y-122419621D01*
X129835185Y-122515000D01*
X129835185Y-123249500D01*
X128804815Y-123249500D01*
X128804815Y-122515000D01*
X128771659Y-122338790D01*
X128750500Y-122305908D01*
X128750500Y-121769527D01*
X128771618Y-121738620D01*
X128809815Y-121550000D01*
X128809815Y-121536570D01*
X128900141Y-121627054D01*
X129185067Y-121745365D01*
X129493580Y-121745634D01*
X129778712Y-121627820D01*
X129997054Y-121409859D01*
X130115365Y-121124933D01*
X130115634Y-120816420D01*
X130040596Y-120634815D01*
X130100000Y-120634815D01*
X130276210Y-120601659D01*
X130438047Y-120497519D01*
X130546618Y-120338620D01*
X130584815Y-120150000D01*
X130584815Y-118550000D01*
X130551659Y-118373790D01*
X130475500Y-118255436D01*
X130475500Y-118250499D01*
X130600187Y-117950220D01*
X130751323Y-118315997D01*
X131032522Y-118597688D01*
X131400115Y-118750326D01*
X131798139Y-118750673D01*
X132165997Y-118598677D01*
X132447688Y-118317478D01*
X132600187Y-117950220D01*
X132724500Y-118251080D01*
G36*
X155906380Y-108696618D02*
X156095000Y-108734815D01*
X156819500Y-108734815D01*
X156819500Y-109923902D01*
X156724933Y-109884635D01*
X156416420Y-109884366D01*
X156131288Y-110002180D01*
X155912946Y-110220141D01*
X155900755Y-110249500D01*
X155394527Y-110249500D01*
X155363620Y-110228382D01*
X155175000Y-110190185D01*
X154275000Y-110190185D01*
X154098790Y-110223341D01*
X153936953Y-110327481D01*
X153828382Y-110486380D01*
X153790185Y-110675000D01*
X153790185Y-111175000D01*
X153823341Y-111351210D01*
X153927481Y-111513047D01*
X154086380Y-111621618D01*
X154275000Y-111659815D01*
X155175000Y-111659815D01*
X155351210Y-111626659D01*
X155391862Y-111600500D01*
X156304995Y-111600500D01*
X156305000Y-111600501D01*
X156563503Y-111549081D01*
X156749020Y-111425122D01*
X156819500Y-111396001D01*
X156819500Y-112260000D01*
X156861404Y-112470668D01*
X156980738Y-112649262D01*
X158261476Y-113930000D01*
X156419214Y-115772263D01*
X155951534Y-115304583D01*
X155916997Y-115280985D01*
X155717475Y-115081463D01*
X155667820Y-114961288D01*
X155449859Y-114742946D01*
X155164933Y-114624635D01*
X154856420Y-114624366D01*
X154571288Y-114742180D01*
X154352946Y-114960141D01*
X154234635Y-115245067D01*
X154234482Y-115421025D01*
X154147820Y-115211288D01*
X153929859Y-114992946D01*
X153644933Y-114874635D01*
X153336420Y-114874366D01*
X153051288Y-114992180D01*
X152832946Y-115210141D01*
X152714635Y-115495067D01*
X152714366Y-115803580D01*
X152772576Y-115944458D01*
X152672234Y-115924499D01*
X152672229Y-115924500D01*
X152250500Y-115924500D01*
X152250500Y-115492766D01*
X152199081Y-115234263D01*
X152052651Y-115015115D01*
X152052648Y-115015113D01*
X150759885Y-113722349D01*
X150540737Y-113575919D01*
X150282234Y-113524499D01*
X150282229Y-113524500D01*
X146054801Y-113524500D01*
X145102651Y-112572349D01*
X144883503Y-112425919D01*
X144812450Y-112411786D01*
X145773735Y-111450500D01*
X146045460Y-111450500D01*
X146036491Y-111494788D01*
X145861288Y-111567180D01*
X145642946Y-111785141D01*
X145524635Y-112070067D01*
X145524366Y-112378580D01*
X145642180Y-112663712D01*
X145860141Y-112882054D01*
X146034868Y-112954607D01*
X146048341Y-113026210D01*
X146152481Y-113188047D01*
X146311380Y-113296618D01*
X146500000Y-113334815D01*
X149500000Y-113334815D01*
X149676210Y-113301659D01*
X149838047Y-113197519D01*
X149946618Y-113038620D01*
X149984815Y-112850000D01*
X149984815Y-111600000D01*
X149956685Y-111450500D01*
X151024995Y-111450500D01*
X151025000Y-111450501D01*
X151254802Y-111404790D01*
X151449618Y-111274618D01*
X152698735Y-110025500D01*
X153945707Y-110025500D01*
X154086380Y-110121618D01*
X154275000Y-110159815D01*
X155175000Y-110159815D01*
X155351210Y-110126659D01*
X155513047Y-110022519D01*
X155621618Y-109863620D01*
X155659815Y-109675000D01*
X155659815Y-109175000D01*
X155626659Y-108998790D01*
X155560040Y-108895262D01*
X155779801Y-108675500D01*
X155875473Y-108675500D01*
X155906380Y-108696618D01*
X155906380Y-108696618D01*
G37*
X155906380Y-108696618D02*
X156095000Y-108734815D01*
X156819500Y-108734815D01*
X156819500Y-109923902D01*
X156724933Y-109884635D01*
X156416420Y-109884366D01*
X156131288Y-110002180D01*
X155912946Y-110220141D01*
X155900755Y-110249500D01*
X155394527Y-110249500D01*
X155363620Y-110228382D01*
X155175000Y-110190185D01*
X154275000Y-110190185D01*
X154098790Y-110223341D01*
X153936953Y-110327481D01*
X153828382Y-110486380D01*
X153790185Y-110675000D01*
X153790185Y-111175000D01*
X153823341Y-111351210D01*
X153927481Y-111513047D01*
X154086380Y-111621618D01*
X154275000Y-111659815D01*
X155175000Y-111659815D01*
X155351210Y-111626659D01*
X155391862Y-111600500D01*
X156304995Y-111600500D01*
X156305000Y-111600501D01*
X156563503Y-111549081D01*
X156749020Y-111425122D01*
X156819500Y-111396001D01*
X156819500Y-112260000D01*
X156861404Y-112470668D01*
X156980738Y-112649262D01*
X158261476Y-113930000D01*
X156419214Y-115772263D01*
X155951534Y-115304583D01*
X155916997Y-115280985D01*
X155717475Y-115081463D01*
X155667820Y-114961288D01*
X155449859Y-114742946D01*
X155164933Y-114624635D01*
X154856420Y-114624366D01*
X154571288Y-114742180D01*
X154352946Y-114960141D01*
X154234635Y-115245067D01*
X154234482Y-115421025D01*
X154147820Y-115211288D01*
X153929859Y-114992946D01*
X153644933Y-114874635D01*
X153336420Y-114874366D01*
X153051288Y-114992180D01*
X152832946Y-115210141D01*
X152714635Y-115495067D01*
X152714366Y-115803580D01*
X152772576Y-115944458D01*
X152672234Y-115924499D01*
X152672229Y-115924500D01*
X152250500Y-115924500D01*
X152250500Y-115492766D01*
X152199081Y-115234263D01*
X152052651Y-115015115D01*
X152052648Y-115015113D01*
X150759885Y-113722349D01*
X150540737Y-113575919D01*
X150282234Y-113524499D01*
X150282229Y-113524500D01*
X146054801Y-113524500D01*
X145102651Y-112572349D01*
X144883503Y-112425919D01*
X144812450Y-112411786D01*
X145773735Y-111450500D01*
X146045460Y-111450500D01*
X146036491Y-111494788D01*
X145861288Y-111567180D01*
X145642946Y-111785141D01*
X145524635Y-112070067D01*
X145524366Y-112378580D01*
X145642180Y-112663712D01*
X145860141Y-112882054D01*
X146034868Y-112954607D01*
X146048341Y-113026210D01*
X146152481Y-113188047D01*
X146311380Y-113296618D01*
X146500000Y-113334815D01*
X149500000Y-113334815D01*
X149676210Y-113301659D01*
X149838047Y-113197519D01*
X149946618Y-113038620D01*
X149984815Y-112850000D01*
X149984815Y-111600000D01*
X149956685Y-111450500D01*
X151024995Y-111450500D01*
X151025000Y-111450501D01*
X151254802Y-111404790D01*
X151449618Y-111274618D01*
X152698735Y-110025500D01*
X153945707Y-110025500D01*
X154086380Y-110121618D01*
X154275000Y-110159815D01*
X155175000Y-110159815D01*
X155351210Y-110126659D01*
X155513047Y-110022519D01*
X155621618Y-109863620D01*
X155659815Y-109675000D01*
X155659815Y-109175000D01*
X155626659Y-108998790D01*
X155560040Y-108895262D01*
X155779801Y-108675500D01*
X155875473Y-108675500D01*
X155906380Y-108696618D01*
G36*
X135575000Y-104934815D02*
X135743200Y-104934815D01*
X135837829Y-105029444D01*
X135960255Y-105080154D01*
X133382705Y-107657705D01*
X133247113Y-107860631D01*
X133247113Y-107860632D01*
X133199500Y-108100000D01*
X133199500Y-108565185D01*
X132975000Y-108565185D01*
X132845410Y-108589569D01*
X132725000Y-108565185D01*
X132325000Y-108565185D01*
X132195410Y-108589569D01*
X132075000Y-108565185D01*
X131675000Y-108565185D01*
X131545410Y-108589569D01*
X131425000Y-108565185D01*
X131025000Y-108565185D01*
X130895410Y-108589569D01*
X130775000Y-108565185D01*
X130375000Y-108565185D01*
X130245410Y-108589569D01*
X130125000Y-108565185D01*
X129725000Y-108565185D01*
X129595410Y-108589569D01*
X129475000Y-108565185D01*
X129075000Y-108565185D01*
X128898790Y-108598341D01*
X128736953Y-108702481D01*
X128628382Y-108861380D01*
X128605474Y-108974500D01*
X128471358Y-108974500D01*
X128439859Y-108942946D01*
X128154933Y-108824635D01*
X127846420Y-108824366D01*
X127561288Y-108942180D01*
X127342946Y-109160141D01*
X127224635Y-109445067D01*
X127224366Y-109753580D01*
X127342180Y-110038712D01*
X127560141Y-110257054D01*
X127845067Y-110375365D01*
X128153580Y-110375634D01*
X128438712Y-110257820D01*
X128471088Y-110225500D01*
X128604391Y-110225500D01*
X128623341Y-110326210D01*
X128727481Y-110488047D01*
X128886380Y-110596618D01*
X129075000Y-110634815D01*
X129249500Y-110634815D01*
X129249500Y-111195199D01*
X127270198Y-113174500D01*
X122894527Y-113174500D01*
X122863620Y-113153382D01*
X122675000Y-113115185D01*
X121775000Y-113115185D01*
X121707397Y-113127905D01*
X121754615Y-113080687D01*
X121775000Y-113084815D01*
X122675000Y-113084815D01*
X122851210Y-113051659D01*
X123013047Y-112947519D01*
X123121618Y-112788620D01*
X123159815Y-112600000D01*
X123159815Y-112100000D01*
X123126659Y-111923790D01*
X123022519Y-111761953D01*
X122863620Y-111653382D01*
X122675000Y-111615185D01*
X121775000Y-111615185D01*
X121598790Y-111648341D01*
X121558138Y-111674500D01*
X121530005Y-111674500D01*
X121530000Y-111674499D01*
X121271497Y-111725919D01*
X121052349Y-111872349D01*
X120451963Y-112472735D01*
X120279575Y-112543965D01*
X120348596Y-112440668D01*
X120390500Y-112230000D01*
X120390500Y-108744815D01*
X121085000Y-108744815D01*
X121187651Y-108725500D01*
X121354978Y-108725500D01*
X121475067Y-108775365D01*
X121783580Y-108775634D01*
X122068712Y-108657820D01*
X122287054Y-108439859D01*
X122405365Y-108154933D01*
X122405634Y-107846420D01*
X122287820Y-107561288D01*
X122069859Y-107342946D01*
X121784933Y-107224635D01*
X121476420Y-107224366D01*
X121355086Y-107274500D01*
X120550000Y-107274500D01*
X120546556Y-107275185D01*
X120390500Y-107275185D01*
X120390500Y-106244815D01*
X121085000Y-106244815D01*
X121261210Y-106211659D01*
X121301862Y-106185500D01*
X122237805Y-106185500D01*
X122112946Y-106310141D01*
X121994635Y-106595067D01*
X121994366Y-106903580D01*
X122112180Y-107188712D01*
X122330141Y-107407054D01*
X122615067Y-107525365D01*
X122923580Y-107525634D01*
X123208712Y-107407820D01*
X123427054Y-107189859D01*
X123545365Y-106904933D01*
X123545634Y-106596420D01*
X123427820Y-106311288D01*
X123302251Y-106185500D01*
X128914995Y-106185500D01*
X128915000Y-106185501D01*
X129173503Y-106134081D01*
X129392651Y-105987651D01*
X129752651Y-105627651D01*
X129899081Y-105408503D01*
X129950501Y-105150000D01*
X129950500Y-105149995D01*
X129950500Y-104934815D01*
X130125000Y-104934815D01*
X130254590Y-104910431D01*
X130375000Y-104934815D01*
X130775000Y-104934815D01*
X130904590Y-104910431D01*
X131025000Y-104934815D01*
X131425000Y-104934815D01*
X131554590Y-104910431D01*
X131675000Y-104934815D01*
X132075000Y-104934815D01*
X132204590Y-104910431D01*
X132325000Y-104934815D01*
X132725000Y-104934815D01*
X132854590Y-104910431D01*
X132975000Y-104934815D01*
X133375000Y-104934815D01*
X133504590Y-104910431D01*
X133625000Y-104934815D01*
X133730595Y-104934815D01*
X133616005Y-105049405D01*
X133571420Y-105049366D01*
X133286288Y-105167180D01*
X133067946Y-105385141D01*
X132949635Y-105670067D01*
X132949366Y-105978580D01*
X133067180Y-106263712D01*
X133285141Y-106482054D01*
X133570067Y-106600365D01*
X133878580Y-106600634D01*
X134163712Y-106482820D01*
X134382054Y-106264859D01*
X134500365Y-105979933D01*
X134500405Y-105934185D01*
X134917295Y-105517295D01*
X134928851Y-105500000D01*
X135052887Y-105314368D01*
X135100500Y-105075000D01*
X135100500Y-104934815D01*
X135325000Y-104934815D01*
X135454590Y-104910431D01*
X135575000Y-104934815D01*
X135575000Y-104934815D01*
G37*
X135575000Y-104934815D02*
X135743200Y-104934815D01*
X135837829Y-105029444D01*
X135960255Y-105080154D01*
X133382705Y-107657705D01*
X133247113Y-107860631D01*
X133247113Y-107860632D01*
X133199500Y-108100000D01*
X133199500Y-108565185D01*
X132975000Y-108565185D01*
X132845410Y-108589569D01*
X132725000Y-108565185D01*
X132325000Y-108565185D01*
X132195410Y-108589569D01*
X132075000Y-108565185D01*
X131675000Y-108565185D01*
X131545410Y-108589569D01*
X131425000Y-108565185D01*
X131025000Y-108565185D01*
X130895410Y-108589569D01*
X130775000Y-108565185D01*
X130375000Y-108565185D01*
X130245410Y-108589569D01*
X130125000Y-108565185D01*
X129725000Y-108565185D01*
X129595410Y-108589569D01*
X129475000Y-108565185D01*
X129075000Y-108565185D01*
X128898790Y-108598341D01*
X128736953Y-108702481D01*
X128628382Y-108861380D01*
X128605474Y-108974500D01*
X128471358Y-108974500D01*
X128439859Y-108942946D01*
X128154933Y-108824635D01*
X127846420Y-108824366D01*
X127561288Y-108942180D01*
X127342946Y-109160141D01*
X127224635Y-109445067D01*
X127224366Y-109753580D01*
X127342180Y-110038712D01*
X127560141Y-110257054D01*
X127845067Y-110375365D01*
X128153580Y-110375634D01*
X128438712Y-110257820D01*
X128471088Y-110225500D01*
X128604391Y-110225500D01*
X128623341Y-110326210D01*
X128727481Y-110488047D01*
X128886380Y-110596618D01*
X129075000Y-110634815D01*
X129249500Y-110634815D01*
X129249500Y-111195199D01*
X127270198Y-113174500D01*
X122894527Y-113174500D01*
X122863620Y-113153382D01*
X122675000Y-113115185D01*
X121775000Y-113115185D01*
X121707397Y-113127905D01*
X121754615Y-113080687D01*
X121775000Y-113084815D01*
X122675000Y-113084815D01*
X122851210Y-113051659D01*
X123013047Y-112947519D01*
X123121618Y-112788620D01*
X123159815Y-112600000D01*
X123159815Y-112100000D01*
X123126659Y-111923790D01*
X123022519Y-111761953D01*
X122863620Y-111653382D01*
X122675000Y-111615185D01*
X121775000Y-111615185D01*
X121598790Y-111648341D01*
X121558138Y-111674500D01*
X121530005Y-111674500D01*
X121530000Y-111674499D01*
X121271497Y-111725919D01*
X121052349Y-111872349D01*
X120451963Y-112472735D01*
X120279575Y-112543965D01*
X120348596Y-112440668D01*
X120390500Y-112230000D01*
X120390500Y-108744815D01*
X121085000Y-108744815D01*
X121187651Y-108725500D01*
X121354978Y-108725500D01*
X121475067Y-108775365D01*
X121783580Y-108775634D01*
X122068712Y-108657820D01*
X122287054Y-108439859D01*
X122405365Y-108154933D01*
X122405634Y-107846420D01*
X122287820Y-107561288D01*
X122069859Y-107342946D01*
X121784933Y-107224635D01*
X121476420Y-107224366D01*
X121355086Y-107274500D01*
X120550000Y-107274500D01*
X120546556Y-107275185D01*
X120390500Y-107275185D01*
X120390500Y-106244815D01*
X121085000Y-106244815D01*
X121261210Y-106211659D01*
X121301862Y-106185500D01*
X122237805Y-106185500D01*
X122112946Y-106310141D01*
X121994635Y-106595067D01*
X121994366Y-106903580D01*
X122112180Y-107188712D01*
X122330141Y-107407054D01*
X122615067Y-107525365D01*
X122923580Y-107525634D01*
X123208712Y-107407820D01*
X123427054Y-107189859D01*
X123545365Y-106904933D01*
X123545634Y-106596420D01*
X123427820Y-106311288D01*
X123302251Y-106185500D01*
X128914995Y-106185500D01*
X128915000Y-106185501D01*
X129173503Y-106134081D01*
X129392651Y-105987651D01*
X129752651Y-105627651D01*
X129899081Y-105408503D01*
X129950501Y-105150000D01*
X129950500Y-105149995D01*
X129950500Y-104934815D01*
X130125000Y-104934815D01*
X130254590Y-104910431D01*
X130375000Y-104934815D01*
X130775000Y-104934815D01*
X130904590Y-104910431D01*
X131025000Y-104934815D01*
X131425000Y-104934815D01*
X131554590Y-104910431D01*
X131675000Y-104934815D01*
X132075000Y-104934815D01*
X132204590Y-104910431D01*
X132325000Y-104934815D01*
X132725000Y-104934815D01*
X132854590Y-104910431D01*
X132975000Y-104934815D01*
X133375000Y-104934815D01*
X133504590Y-104910431D01*
X133625000Y-104934815D01*
X133730595Y-104934815D01*
X133616005Y-105049405D01*
X133571420Y-105049366D01*
X133286288Y-105167180D01*
X133067946Y-105385141D01*
X132949635Y-105670067D01*
X132949366Y-105978580D01*
X133067180Y-106263712D01*
X133285141Y-106482054D01*
X133570067Y-106600365D01*
X133878580Y-106600634D01*
X134163712Y-106482820D01*
X134382054Y-106264859D01*
X134500365Y-105979933D01*
X134500405Y-105934185D01*
X134917295Y-105517295D01*
X134928851Y-105500000D01*
X135052887Y-105314368D01*
X135100500Y-105075000D01*
X135100500Y-104934815D01*
X135325000Y-104934815D01*
X135454590Y-104910431D01*
X135575000Y-104934815D01*
G36*
X150244366Y-90543580D02*
X150344500Y-90785923D01*
X150344500Y-91420924D01*
X150198790Y-91448341D01*
X150036953Y-91552481D01*
X149928382Y-91711380D01*
X149890185Y-91900000D01*
X149890185Y-92800000D01*
X149923341Y-92976210D01*
X150027481Y-93138047D01*
X150186380Y-93246618D01*
X150375000Y-93284815D01*
X150875000Y-93284815D01*
X151051210Y-93251659D01*
X151213047Y-93147519D01*
X151321618Y-92988620D01*
X151359815Y-92800000D01*
X151359815Y-92628222D01*
X151460738Y-92779262D01*
X153612262Y-94930787D01*
X153124583Y-95418466D01*
X153100985Y-95453003D01*
X152941463Y-95612525D01*
X152821288Y-95662180D01*
X152602946Y-95880141D01*
X152484635Y-96165067D01*
X152484366Y-96473580D01*
X152602180Y-96758712D01*
X152820141Y-96977054D01*
X153105067Y-97095365D01*
X153242702Y-97095485D01*
X153081288Y-97162180D01*
X152862946Y-97380141D01*
X152744635Y-97665067D01*
X152744366Y-97973580D01*
X152862180Y-98258712D01*
X153027679Y-98424500D01*
X152325005Y-98424500D01*
X152325000Y-98424499D01*
X152066497Y-98475919D01*
X151847349Y-98622349D01*
X151476963Y-98992735D01*
X151236288Y-99092180D01*
X151017946Y-99310141D01*
X150899635Y-99595067D01*
X150899366Y-99903580D01*
X151017180Y-100188712D01*
X151235141Y-100407054D01*
X151520067Y-100525365D01*
X151828580Y-100525634D01*
X152113712Y-100407820D01*
X152332054Y-100189859D01*
X152432610Y-99947692D01*
X152604802Y-99775500D01*
X154555473Y-99775500D01*
X154586380Y-99796618D01*
X154775000Y-99834815D01*
X155675000Y-99834815D01*
X155717968Y-99826730D01*
X155678753Y-99865945D01*
X155675000Y-99865185D01*
X154775000Y-99865185D01*
X154598790Y-99898341D01*
X154436953Y-100002481D01*
X154328382Y-100161380D01*
X154290185Y-100350000D01*
X154290185Y-100850000D01*
X154323341Y-101026210D01*
X154427481Y-101188047D01*
X154586380Y-101296618D01*
X154775000Y-101334815D01*
X155675000Y-101334815D01*
X155851210Y-101301659D01*
X155891862Y-101275500D01*
X155899995Y-101275500D01*
X155900000Y-101275501D01*
X156158503Y-101224081D01*
X156377651Y-101077651D01*
X156768037Y-100687265D01*
X157008712Y-100587820D01*
X157227054Y-100369859D01*
X157345365Y-100084933D01*
X157345634Y-99776420D01*
X157227820Y-99491288D01*
X157009859Y-99272946D01*
X156724933Y-99154635D01*
X156416420Y-99154366D01*
X156159815Y-99260393D01*
X156159815Y-98850000D01*
X156126659Y-98673790D01*
X156022519Y-98511953D01*
X155900500Y-98428581D01*
X155900500Y-98245999D01*
X155931534Y-98225417D01*
X156419213Y-97737738D01*
X158271476Y-99590000D01*
X156980738Y-100880738D01*
X156861404Y-101059332D01*
X156840511Y-101164369D01*
X156819500Y-101270000D01*
X156819500Y-104765185D01*
X156095000Y-104765185D01*
X156045495Y-104774500D01*
X155775022Y-104774500D01*
X155654933Y-104724635D01*
X155346420Y-104724366D01*
X155061288Y-104842180D01*
X154842946Y-105060141D01*
X154724635Y-105345067D01*
X154724366Y-105653580D01*
X154842180Y-105938712D01*
X154986436Y-106083220D01*
X154888612Y-106042600D01*
X152308006Y-103461994D01*
X152072637Y-103304725D01*
X151795000Y-103249500D01*
X149965905Y-103249500D01*
X149951659Y-103173790D01*
X149847519Y-103011953D01*
X149688620Y-102903382D01*
X149500000Y-102865185D01*
X146500000Y-102865185D01*
X146323790Y-102898341D01*
X146161953Y-103002481D01*
X146053382Y-103161380D01*
X146015185Y-103350000D01*
X146015185Y-104600000D01*
X146048341Y-104776210D01*
X146152481Y-104938047D01*
X146311380Y-105046618D01*
X146500000Y-105084815D01*
X149500000Y-105084815D01*
X149676210Y-105051659D01*
X149838047Y-104947519D01*
X149946618Y-104788620D01*
X149964463Y-104700500D01*
X151494488Y-104700500D01*
X153862525Y-107068537D01*
X153912180Y-107188712D01*
X154130141Y-107407054D01*
X154415067Y-107525365D01*
X154723580Y-107525634D01*
X155008712Y-107407820D01*
X155227054Y-107189859D01*
X155345365Y-106904933D01*
X155345634Y-106596420D01*
X155227820Y-106311288D01*
X155083564Y-106166780D01*
X155345067Y-106275365D01*
X155653580Y-106275634D01*
X155774914Y-106225500D01*
X156049002Y-106225500D01*
X156095000Y-106234815D01*
X156819500Y-106234815D01*
X156819500Y-107265185D01*
X156095000Y-107265185D01*
X155918790Y-107298341D01*
X155878138Y-107324500D01*
X155500005Y-107324500D01*
X155500000Y-107324499D01*
X155284386Y-107367388D01*
X155241497Y-107375919D01*
X155022349Y-107522349D01*
X155022347Y-107522352D01*
X154247349Y-108297349D01*
X154100919Y-108516497D01*
X154054048Y-108752132D01*
X153941586Y-108824500D01*
X152450000Y-108824500D01*
X152220199Y-108870210D01*
X152025382Y-109000382D01*
X152025380Y-109000385D01*
X150776264Y-110249500D01*
X149954540Y-110249500D01*
X149984815Y-110100000D01*
X149984815Y-108850000D01*
X149951659Y-108673790D01*
X149847519Y-108511953D01*
X149688620Y-108403382D01*
X149500000Y-108365185D01*
X146500000Y-108365185D01*
X146323790Y-108398341D01*
X146161953Y-108502481D01*
X146053382Y-108661380D01*
X146015185Y-108850000D01*
X146015185Y-110100000D01*
X146043315Y-110249500D01*
X145525005Y-110249500D01*
X145525000Y-110249499D01*
X145295198Y-110295210D01*
X145232726Y-110336953D01*
X145100382Y-110425382D01*
X145100380Y-110425385D01*
X144051264Y-111474500D01*
X140519574Y-111474500D01*
X140600365Y-111279933D01*
X140600634Y-110971420D01*
X140482820Y-110686288D01*
X140264859Y-110467946D01*
X139979933Y-110349635D01*
X139671420Y-110349366D01*
X139386288Y-110467180D01*
X139353912Y-110499500D01*
X136959968Y-110499500D01*
X136963047Y-110497519D01*
X137071618Y-110338620D01*
X137109815Y-110150000D01*
X137109815Y-109050000D01*
X137076659Y-108873790D01*
X136997323Y-108750500D01*
X144503642Y-108750500D01*
X144535141Y-108782054D01*
X144820067Y-108900365D01*
X145128580Y-108900634D01*
X145413712Y-108782820D01*
X145632054Y-108564859D01*
X145750365Y-108279933D01*
X145750634Y-107971420D01*
X145632820Y-107686288D01*
X145414859Y-107467946D01*
X145129933Y-107349635D01*
X144821420Y-107349366D01*
X144536288Y-107467180D01*
X144503912Y-107499500D01*
X135310090Y-107499500D01*
X135931010Y-106878580D01*
X145524366Y-106878580D01*
X145642180Y-107163712D01*
X145860141Y-107382054D01*
X146034868Y-107454607D01*
X146048341Y-107526210D01*
X146152481Y-107688047D01*
X146311380Y-107796618D01*
X146500000Y-107834815D01*
X149500000Y-107834815D01*
X149676210Y-107801659D01*
X149838047Y-107697519D01*
X149946618Y-107538620D01*
X149984815Y-107350000D01*
X149984815Y-106100000D01*
X149951659Y-105923790D01*
X149847519Y-105761953D01*
X149688620Y-105653382D01*
X149500000Y-105615185D01*
X146500000Y-105615185D01*
X146323790Y-105648341D01*
X146161953Y-105752481D01*
X146053382Y-105911380D01*
X146036491Y-105994788D01*
X145861288Y-106067180D01*
X145642946Y-106285141D01*
X145524635Y-106570067D01*
X145524366Y-106878580D01*
X135931010Y-106878580D01*
X136834091Y-105975500D01*
X144503642Y-105975500D01*
X144535141Y-106007054D01*
X144820067Y-106125365D01*
X145128580Y-106125634D01*
X145413712Y-106007820D01*
X145632054Y-105789859D01*
X145750365Y-105504933D01*
X145750634Y-105196420D01*
X145632820Y-104911288D01*
X145414859Y-104692946D01*
X145129933Y-104574635D01*
X144821420Y-104574366D01*
X144536288Y-104692180D01*
X144503912Y-104724500D01*
X139206859Y-104724500D01*
X139225365Y-104679933D01*
X139225634Y-104371420D01*
X139107820Y-104086288D01*
X138889859Y-103867946D01*
X138604933Y-103749635D01*
X138296420Y-103749366D01*
X138011288Y-103867180D01*
X137792946Y-104085141D01*
X137674635Y-104370067D01*
X137674366Y-104678580D01*
X137693340Y-104724500D01*
X137251113Y-104724500D01*
X137308500Y-104585957D01*
X137308500Y-104149375D01*
X137137625Y-103978500D01*
X136503500Y-103978500D01*
X136503500Y-103998500D01*
X136459815Y-103998500D01*
X136459815Y-103350000D01*
X136426659Y-103173790D01*
X136400500Y-103133138D01*
X136400500Y-102837375D01*
X136503500Y-102837375D01*
X136503500Y-103821500D01*
X137137625Y-103821500D01*
X137308500Y-103650625D01*
X137308500Y-103214043D01*
X137204443Y-102962828D01*
X137012171Y-102770556D01*
X136760956Y-102666500D01*
X136674375Y-102666500D01*
X136503500Y-102837375D01*
X136400500Y-102837375D01*
X136400500Y-102009090D01*
X136708995Y-101700595D01*
X136753580Y-101700634D01*
X137038712Y-101582820D01*
X137147346Y-101474375D01*
X145816500Y-101474375D01*
X145816500Y-101985957D01*
X145920557Y-102237172D01*
X146112829Y-102429444D01*
X146364044Y-102533500D01*
X147750625Y-102533500D01*
X147921500Y-102362625D01*
X147921500Y-101303500D01*
X148078500Y-101303500D01*
X148078500Y-102362625D01*
X148249375Y-102533500D01*
X149635956Y-102533500D01*
X149887171Y-102429444D01*
X150079443Y-102237172D01*
X150183500Y-101985957D01*
X150183500Y-101474375D01*
X150012625Y-101303500D01*
X148078500Y-101303500D01*
X147921500Y-101303500D01*
X145987375Y-101303500D01*
X145816500Y-101474375D01*
X137147346Y-101474375D01*
X137257054Y-101364859D01*
X137375365Y-101079933D01*
X137375634Y-100771420D01*
X137257820Y-100486288D01*
X137097313Y-100325500D01*
X145873887Y-100325500D01*
X145816500Y-100464043D01*
X145816500Y-100975625D01*
X145987375Y-101146500D01*
X147921500Y-101146500D01*
X147921500Y-101126500D01*
X148078500Y-101126500D01*
X148078500Y-101146500D01*
X150012625Y-101146500D01*
X150183500Y-100975625D01*
X150183500Y-100464043D01*
X150079443Y-100212828D01*
X149887171Y-100020556D01*
X149635956Y-99916500D01*
X148757736Y-99916500D01*
X150099615Y-98574620D01*
X150099618Y-98574618D01*
X150229790Y-98379801D01*
X150275500Y-98150000D01*
X150275500Y-93775000D01*
X150229790Y-93545199D01*
X150099618Y-93350382D01*
X150099615Y-93350380D01*
X149787617Y-93038382D01*
X149821618Y-92988620D01*
X149859815Y-92800000D01*
X149859815Y-92153858D01*
X149875501Y-92075000D01*
X149859815Y-91996142D01*
X149859815Y-91900000D01*
X149826659Y-91723790D01*
X149800500Y-91683138D01*
X149800500Y-91151845D01*
X149826618Y-91113620D01*
X149864815Y-90925000D01*
X149864815Y-90240500D01*
X150244630Y-90240500D01*
X150244366Y-90543580D01*
X150244366Y-90543580D01*
G37*
X150244366Y-90543580D02*
X150344500Y-90785923D01*
X150344500Y-91420924D01*
X150198790Y-91448341D01*
X150036953Y-91552481D01*
X149928382Y-91711380D01*
X149890185Y-91900000D01*
X149890185Y-92800000D01*
X149923341Y-92976210D01*
X150027481Y-93138047D01*
X150186380Y-93246618D01*
X150375000Y-93284815D01*
X150875000Y-93284815D01*
X151051210Y-93251659D01*
X151213047Y-93147519D01*
X151321618Y-92988620D01*
X151359815Y-92800000D01*
X151359815Y-92628222D01*
X151460738Y-92779262D01*
X153612262Y-94930787D01*
X153124583Y-95418466D01*
X153100985Y-95453003D01*
X152941463Y-95612525D01*
X152821288Y-95662180D01*
X152602946Y-95880141D01*
X152484635Y-96165067D01*
X152484366Y-96473580D01*
X152602180Y-96758712D01*
X152820141Y-96977054D01*
X153105067Y-97095365D01*
X153242702Y-97095485D01*
X153081288Y-97162180D01*
X152862946Y-97380141D01*
X152744635Y-97665067D01*
X152744366Y-97973580D01*
X152862180Y-98258712D01*
X153027679Y-98424500D01*
X152325005Y-98424500D01*
X152325000Y-98424499D01*
X152066497Y-98475919D01*
X151847349Y-98622349D01*
X151476963Y-98992735D01*
X151236288Y-99092180D01*
X151017946Y-99310141D01*
X150899635Y-99595067D01*
X150899366Y-99903580D01*
X151017180Y-100188712D01*
X151235141Y-100407054D01*
X151520067Y-100525365D01*
X151828580Y-100525634D01*
X152113712Y-100407820D01*
X152332054Y-100189859D01*
X152432610Y-99947692D01*
X152604802Y-99775500D01*
X154555473Y-99775500D01*
X154586380Y-99796618D01*
X154775000Y-99834815D01*
X155675000Y-99834815D01*
X155717968Y-99826730D01*
X155678753Y-99865945D01*
X155675000Y-99865185D01*
X154775000Y-99865185D01*
X154598790Y-99898341D01*
X154436953Y-100002481D01*
X154328382Y-100161380D01*
X154290185Y-100350000D01*
X154290185Y-100850000D01*
X154323341Y-101026210D01*
X154427481Y-101188047D01*
X154586380Y-101296618D01*
X154775000Y-101334815D01*
X155675000Y-101334815D01*
X155851210Y-101301659D01*
X155891862Y-101275500D01*
X155899995Y-101275500D01*
X155900000Y-101275501D01*
X156158503Y-101224081D01*
X156377651Y-101077651D01*
X156768037Y-100687265D01*
X157008712Y-100587820D01*
X157227054Y-100369859D01*
X157345365Y-100084933D01*
X157345634Y-99776420D01*
X157227820Y-99491288D01*
X157009859Y-99272946D01*
X156724933Y-99154635D01*
X156416420Y-99154366D01*
X156159815Y-99260393D01*
X156159815Y-98850000D01*
X156126659Y-98673790D01*
X156022519Y-98511953D01*
X155900500Y-98428581D01*
X155900500Y-98245999D01*
X155931534Y-98225417D01*
X156419213Y-97737738D01*
X158271476Y-99590000D01*
X156980738Y-100880738D01*
X156861404Y-101059332D01*
X156840511Y-101164369D01*
X156819500Y-101270000D01*
X156819500Y-104765185D01*
X156095000Y-104765185D01*
X156045495Y-104774500D01*
X155775022Y-104774500D01*
X155654933Y-104724635D01*
X155346420Y-104724366D01*
X155061288Y-104842180D01*
X154842946Y-105060141D01*
X154724635Y-105345067D01*
X154724366Y-105653580D01*
X154842180Y-105938712D01*
X154986436Y-106083220D01*
X154888612Y-106042600D01*
X152308006Y-103461994D01*
X152072637Y-103304725D01*
X151795000Y-103249500D01*
X149965905Y-103249500D01*
X149951659Y-103173790D01*
X149847519Y-103011953D01*
X149688620Y-102903382D01*
X149500000Y-102865185D01*
X146500000Y-102865185D01*
X146323790Y-102898341D01*
X146161953Y-103002481D01*
X146053382Y-103161380D01*
X146015185Y-103350000D01*
X146015185Y-104600000D01*
X146048341Y-104776210D01*
X146152481Y-104938047D01*
X146311380Y-105046618D01*
X146500000Y-105084815D01*
X149500000Y-105084815D01*
X149676210Y-105051659D01*
X149838047Y-104947519D01*
X149946618Y-104788620D01*
X149964463Y-104700500D01*
X151494488Y-104700500D01*
X153862525Y-107068537D01*
X153912180Y-107188712D01*
X154130141Y-107407054D01*
X154415067Y-107525365D01*
X154723580Y-107525634D01*
X155008712Y-107407820D01*
X155227054Y-107189859D01*
X155345365Y-106904933D01*
X155345634Y-106596420D01*
X155227820Y-106311288D01*
X155083564Y-106166780D01*
X155345067Y-106275365D01*
X155653580Y-106275634D01*
X155774914Y-106225500D01*
X156049002Y-106225500D01*
X156095000Y-106234815D01*
X156819500Y-106234815D01*
X156819500Y-107265185D01*
X156095000Y-107265185D01*
X155918790Y-107298341D01*
X155878138Y-107324500D01*
X155500005Y-107324500D01*
X155500000Y-107324499D01*
X155284386Y-107367388D01*
X155241497Y-107375919D01*
X155022349Y-107522349D01*
X155022347Y-107522352D01*
X154247349Y-108297349D01*
X154100919Y-108516497D01*
X154054048Y-108752132D01*
X153941586Y-108824500D01*
X152450000Y-108824500D01*
X152220199Y-108870210D01*
X152025382Y-109000382D01*
X152025380Y-109000385D01*
X150776264Y-110249500D01*
X149954540Y-110249500D01*
X149984815Y-110100000D01*
X149984815Y-108850000D01*
X149951659Y-108673790D01*
X149847519Y-108511953D01*
X149688620Y-108403382D01*
X149500000Y-108365185D01*
X146500000Y-108365185D01*
X146323790Y-108398341D01*
X146161953Y-108502481D01*
X146053382Y-108661380D01*
X146015185Y-108850000D01*
X146015185Y-110100000D01*
X146043315Y-110249500D01*
X145525005Y-110249500D01*
X145525000Y-110249499D01*
X145295198Y-110295210D01*
X145232726Y-110336953D01*
X145100382Y-110425382D01*
X145100380Y-110425385D01*
X144051264Y-111474500D01*
X140519574Y-111474500D01*
X140600365Y-111279933D01*
X140600634Y-110971420D01*
X140482820Y-110686288D01*
X140264859Y-110467946D01*
X139979933Y-110349635D01*
X139671420Y-110349366D01*
X139386288Y-110467180D01*
X139353912Y-110499500D01*
X136959968Y-110499500D01*
X136963047Y-110497519D01*
X137071618Y-110338620D01*
X137109815Y-110150000D01*
X137109815Y-109050000D01*
X137076659Y-108873790D01*
X136997323Y-108750500D01*
X144503642Y-108750500D01*
X144535141Y-108782054D01*
X144820067Y-108900365D01*
X145128580Y-108900634D01*
X145413712Y-108782820D01*
X145632054Y-108564859D01*
X145750365Y-108279933D01*
X145750634Y-107971420D01*
X145632820Y-107686288D01*
X145414859Y-107467946D01*
X145129933Y-107349635D01*
X144821420Y-107349366D01*
X144536288Y-107467180D01*
X144503912Y-107499500D01*
X135310090Y-107499500D01*
X135931010Y-106878580D01*
X145524366Y-106878580D01*
X145642180Y-107163712D01*
X145860141Y-107382054D01*
X146034868Y-107454607D01*
X146048341Y-107526210D01*
X146152481Y-107688047D01*
X146311380Y-107796618D01*
X146500000Y-107834815D01*
X149500000Y-107834815D01*
X149676210Y-107801659D01*
X149838047Y-107697519D01*
X149946618Y-107538620D01*
X149984815Y-107350000D01*
X149984815Y-106100000D01*
X149951659Y-105923790D01*
X149847519Y-105761953D01*
X149688620Y-105653382D01*
X149500000Y-105615185D01*
X146500000Y-105615185D01*
X146323790Y-105648341D01*
X146161953Y-105752481D01*
X146053382Y-105911380D01*
X146036491Y-105994788D01*
X145861288Y-106067180D01*
X145642946Y-106285141D01*
X145524635Y-106570067D01*
X145524366Y-106878580D01*
X135931010Y-106878580D01*
X136834091Y-105975500D01*
X144503642Y-105975500D01*
X144535141Y-106007054D01*
X144820067Y-106125365D01*
X145128580Y-106125634D01*
X145413712Y-106007820D01*
X145632054Y-105789859D01*
X145750365Y-105504933D01*
X145750634Y-105196420D01*
X145632820Y-104911288D01*
X145414859Y-104692946D01*
X145129933Y-104574635D01*
X144821420Y-104574366D01*
X144536288Y-104692180D01*
X144503912Y-104724500D01*
X139206859Y-104724500D01*
X139225365Y-104679933D01*
X139225634Y-104371420D01*
X139107820Y-104086288D01*
X138889859Y-103867946D01*
X138604933Y-103749635D01*
X138296420Y-103749366D01*
X138011288Y-103867180D01*
X137792946Y-104085141D01*
X137674635Y-104370067D01*
X137674366Y-104678580D01*
X137693340Y-104724500D01*
X137251113Y-104724500D01*
X137308500Y-104585957D01*
X137308500Y-104149375D01*
X137137625Y-103978500D01*
X136503500Y-103978500D01*
X136503500Y-103998500D01*
X136459815Y-103998500D01*
X136459815Y-103350000D01*
X136426659Y-103173790D01*
X136400500Y-103133138D01*
X136400500Y-102837375D01*
X136503500Y-102837375D01*
X136503500Y-103821500D01*
X137137625Y-103821500D01*
X137308500Y-103650625D01*
X137308500Y-103214043D01*
X137204443Y-102962828D01*
X137012171Y-102770556D01*
X136760956Y-102666500D01*
X136674375Y-102666500D01*
X136503500Y-102837375D01*
X136400500Y-102837375D01*
X136400500Y-102009090D01*
X136708995Y-101700595D01*
X136753580Y-101700634D01*
X137038712Y-101582820D01*
X137147346Y-101474375D01*
X145816500Y-101474375D01*
X145816500Y-101985957D01*
X145920557Y-102237172D01*
X146112829Y-102429444D01*
X146364044Y-102533500D01*
X147750625Y-102533500D01*
X147921500Y-102362625D01*
X147921500Y-101303500D01*
X148078500Y-101303500D01*
X148078500Y-102362625D01*
X148249375Y-102533500D01*
X149635956Y-102533500D01*
X149887171Y-102429444D01*
X150079443Y-102237172D01*
X150183500Y-101985957D01*
X150183500Y-101474375D01*
X150012625Y-101303500D01*
X148078500Y-101303500D01*
X147921500Y-101303500D01*
X145987375Y-101303500D01*
X145816500Y-101474375D01*
X137147346Y-101474375D01*
X137257054Y-101364859D01*
X137375365Y-101079933D01*
X137375634Y-100771420D01*
X137257820Y-100486288D01*
X137097313Y-100325500D01*
X145873887Y-100325500D01*
X145816500Y-100464043D01*
X145816500Y-100975625D01*
X145987375Y-101146500D01*
X147921500Y-101146500D01*
X147921500Y-101126500D01*
X148078500Y-101126500D01*
X148078500Y-101146500D01*
X150012625Y-101146500D01*
X150183500Y-100975625D01*
X150183500Y-100464043D01*
X150079443Y-100212828D01*
X149887171Y-100020556D01*
X149635956Y-99916500D01*
X148757736Y-99916500D01*
X150099615Y-98574620D01*
X150099618Y-98574618D01*
X150229790Y-98379801D01*
X150275500Y-98150000D01*
X150275500Y-93775000D01*
X150229790Y-93545199D01*
X150099618Y-93350382D01*
X150099615Y-93350380D01*
X149787617Y-93038382D01*
X149821618Y-92988620D01*
X149859815Y-92800000D01*
X149859815Y-92153858D01*
X149875501Y-92075000D01*
X149859815Y-91996142D01*
X149859815Y-91900000D01*
X149826659Y-91723790D01*
X149800500Y-91683138D01*
X149800500Y-91151845D01*
X149826618Y-91113620D01*
X149864815Y-90925000D01*
X149864815Y-90240500D01*
X150244630Y-90240500D01*
X150244366Y-90543580D01*
G36*
X123056232Y-96447651D02*
X123204276Y-96548805D01*
X123251518Y-96559053D01*
X123695113Y-97002648D01*
X123695115Y-97002651D01*
X123701848Y-97007150D01*
X123859232Y-97164534D01*
X123666420Y-97164366D01*
X123381288Y-97282180D01*
X123162946Y-97500141D01*
X123044635Y-97785067D01*
X123044366Y-98093580D01*
X123162180Y-98378712D01*
X123380141Y-98597054D01*
X123665067Y-98715365D01*
X123973580Y-98715634D01*
X124258712Y-98597820D01*
X124477054Y-98379859D01*
X124595365Y-98094933D01*
X124595534Y-97900836D01*
X129249500Y-102554802D01*
X129249500Y-102865185D01*
X129075000Y-102865185D01*
X128898790Y-102898341D01*
X128736953Y-103002481D01*
X128628382Y-103161380D01*
X128590185Y-103350000D01*
X128590185Y-104450000D01*
X128599500Y-104499505D01*
X128599500Y-104834500D01*
X123684815Y-104834500D01*
X123684815Y-104500000D01*
X123651659Y-104323790D01*
X123547519Y-104161953D01*
X123388620Y-104053382D01*
X123200000Y-104015185D01*
X122300000Y-104015185D01*
X122123790Y-104048341D01*
X121961953Y-104152481D01*
X121853382Y-104311380D01*
X121815185Y-104500000D01*
X121815185Y-104834500D01*
X121304527Y-104834500D01*
X121273620Y-104813382D01*
X121085000Y-104775185D01*
X120390500Y-104775185D01*
X120390500Y-103561945D01*
X120452309Y-103587610D01*
X120592347Y-103727648D01*
X120592349Y-103727651D01*
X120811497Y-103874081D01*
X120854386Y-103882612D01*
X121070000Y-103925501D01*
X121070005Y-103925500D01*
X122080473Y-103925500D01*
X122111380Y-103946618D01*
X122300000Y-103984815D01*
X123200000Y-103984815D01*
X123376210Y-103951659D01*
X123416862Y-103925500D01*
X124453320Y-103925500D01*
X124477481Y-103963047D01*
X124636380Y-104071618D01*
X124825000Y-104109815D01*
X125625000Y-104109815D01*
X125801210Y-104076659D01*
X125806585Y-104073200D01*
X125937828Y-104204443D01*
X126189043Y-104308500D01*
X126475625Y-104308500D01*
X126646500Y-104137625D01*
X126646500Y-103328500D01*
X126803500Y-103328500D01*
X126803500Y-104137625D01*
X126974375Y-104308500D01*
X127260957Y-104308500D01*
X127512172Y-104204443D01*
X127704444Y-104012171D01*
X127808500Y-103760956D01*
X127808500Y-103499375D01*
X127637625Y-103328500D01*
X126803500Y-103328500D01*
X126646500Y-103328500D01*
X126626500Y-103328500D01*
X126626500Y-103171500D01*
X126646500Y-103171500D01*
X126646500Y-102362375D01*
X126803500Y-102362375D01*
X126803500Y-103171500D01*
X127637625Y-103171500D01*
X127808500Y-103000625D01*
X127808500Y-102739044D01*
X127704444Y-102487829D01*
X127512172Y-102295557D01*
X127260957Y-102191500D01*
X126974375Y-102191500D01*
X126803500Y-102362375D01*
X126646500Y-102362375D01*
X126475625Y-102191500D01*
X126189043Y-102191500D01*
X125937828Y-102295557D01*
X125806454Y-102426931D01*
X125625000Y-102390185D01*
X124825000Y-102390185D01*
X124648790Y-102423341D01*
X124486953Y-102527481D01*
X124454826Y-102574500D01*
X123419527Y-102574500D01*
X123388620Y-102553382D01*
X123200000Y-102515185D01*
X122300000Y-102515185D01*
X122123790Y-102548341D01*
X122083138Y-102574500D01*
X121383522Y-102574500D01*
X121307820Y-102391288D01*
X121089859Y-102172946D01*
X120804933Y-102054635D01*
X120496420Y-102054366D01*
X120390500Y-102098131D01*
X120390500Y-101260000D01*
X120348596Y-101049333D01*
X120299346Y-100975625D01*
X120229263Y-100870738D01*
X118958524Y-99600000D01*
X120815787Y-97742738D01*
X121288466Y-98215417D01*
X121323003Y-98239015D01*
X121492525Y-98408537D01*
X121542180Y-98528712D01*
X121760141Y-98747054D01*
X122045067Y-98865365D01*
X122353580Y-98865634D01*
X122638712Y-98747820D01*
X122857054Y-98529859D01*
X122975365Y-98244933D01*
X122975634Y-97936420D01*
X122857820Y-97651288D01*
X122639859Y-97432946D01*
X122518612Y-97382600D01*
X122357989Y-97221977D01*
X122327651Y-97176232D01*
X121854972Y-96703553D01*
X122583553Y-95974972D01*
X123056232Y-96447651D01*
X123056232Y-96447651D01*
G37*
X123056232Y-96447651D02*
X123204276Y-96548805D01*
X123251518Y-96559053D01*
X123695113Y-97002648D01*
X123695115Y-97002651D01*
X123701848Y-97007150D01*
X123859232Y-97164534D01*
X123666420Y-97164366D01*
X123381288Y-97282180D01*
X123162946Y-97500141D01*
X123044635Y-97785067D01*
X123044366Y-98093580D01*
X123162180Y-98378712D01*
X123380141Y-98597054D01*
X123665067Y-98715365D01*
X123973580Y-98715634D01*
X124258712Y-98597820D01*
X124477054Y-98379859D01*
X124595365Y-98094933D01*
X124595534Y-97900836D01*
X129249500Y-102554802D01*
X129249500Y-102865185D01*
X129075000Y-102865185D01*
X128898790Y-102898341D01*
X128736953Y-103002481D01*
X128628382Y-103161380D01*
X128590185Y-103350000D01*
X128590185Y-104450000D01*
X128599500Y-104499505D01*
X128599500Y-104834500D01*
X123684815Y-104834500D01*
X123684815Y-104500000D01*
X123651659Y-104323790D01*
X123547519Y-104161953D01*
X123388620Y-104053382D01*
X123200000Y-104015185D01*
X122300000Y-104015185D01*
X122123790Y-104048341D01*
X121961953Y-104152481D01*
X121853382Y-104311380D01*
X121815185Y-104500000D01*
X121815185Y-104834500D01*
X121304527Y-104834500D01*
X121273620Y-104813382D01*
X121085000Y-104775185D01*
X120390500Y-104775185D01*
X120390500Y-103561945D01*
X120452309Y-103587610D01*
X120592347Y-103727648D01*
X120592349Y-103727651D01*
X120811497Y-103874081D01*
X120854386Y-103882612D01*
X121070000Y-103925501D01*
X121070005Y-103925500D01*
X122080473Y-103925500D01*
X122111380Y-103946618D01*
X122300000Y-103984815D01*
X123200000Y-103984815D01*
X123376210Y-103951659D01*
X123416862Y-103925500D01*
X124453320Y-103925500D01*
X124477481Y-103963047D01*
X124636380Y-104071618D01*
X124825000Y-104109815D01*
X125625000Y-104109815D01*
X125801210Y-104076659D01*
X125806585Y-104073200D01*
X125937828Y-104204443D01*
X126189043Y-104308500D01*
X126475625Y-104308500D01*
X126646500Y-104137625D01*
X126646500Y-103328500D01*
X126803500Y-103328500D01*
X126803500Y-104137625D01*
X126974375Y-104308500D01*
X127260957Y-104308500D01*
X127512172Y-104204443D01*
X127704444Y-104012171D01*
X127808500Y-103760956D01*
X127808500Y-103499375D01*
X127637625Y-103328500D01*
X126803500Y-103328500D01*
X126646500Y-103328500D01*
X126626500Y-103328500D01*
X126626500Y-103171500D01*
X126646500Y-103171500D01*
X126646500Y-102362375D01*
X126803500Y-102362375D01*
X126803500Y-103171500D01*
X127637625Y-103171500D01*
X127808500Y-103000625D01*
X127808500Y-102739044D01*
X127704444Y-102487829D01*
X127512172Y-102295557D01*
X127260957Y-102191500D01*
X126974375Y-102191500D01*
X126803500Y-102362375D01*
X126646500Y-102362375D01*
X126475625Y-102191500D01*
X126189043Y-102191500D01*
X125937828Y-102295557D01*
X125806454Y-102426931D01*
X125625000Y-102390185D01*
X124825000Y-102390185D01*
X124648790Y-102423341D01*
X124486953Y-102527481D01*
X124454826Y-102574500D01*
X123419527Y-102574500D01*
X123388620Y-102553382D01*
X123200000Y-102515185D01*
X122300000Y-102515185D01*
X122123790Y-102548341D01*
X122083138Y-102574500D01*
X121383522Y-102574500D01*
X121307820Y-102391288D01*
X121089859Y-102172946D01*
X120804933Y-102054635D01*
X120496420Y-102054366D01*
X120390500Y-102098131D01*
X120390500Y-101260000D01*
X120348596Y-101049333D01*
X120299346Y-100975625D01*
X120229263Y-100870738D01*
X118958524Y-99600000D01*
X120815787Y-97742738D01*
X121288466Y-98215417D01*
X121323003Y-98239015D01*
X121492525Y-98408537D01*
X121542180Y-98528712D01*
X121760141Y-98747054D01*
X122045067Y-98865365D01*
X122353580Y-98865634D01*
X122638712Y-98747820D01*
X122857054Y-98529859D01*
X122975365Y-98244933D01*
X122975634Y-97936420D01*
X122857820Y-97651288D01*
X122639859Y-97432946D01*
X122518612Y-97382600D01*
X122357989Y-97221977D01*
X122327651Y-97176232D01*
X121854972Y-96703553D01*
X122583553Y-95974972D01*
X123056232Y-96447651D01*
G36*
X127345185Y-90915000D02*
X127354500Y-90964505D01*
X127354500Y-91284978D01*
X127304635Y-91405067D01*
X127304366Y-91713580D01*
X127422180Y-91998712D01*
X127640141Y-92217054D01*
X127925067Y-92335365D01*
X128233580Y-92335634D01*
X128518712Y-92217820D01*
X128620667Y-92116043D01*
X128554635Y-92275067D01*
X128554366Y-92583580D01*
X128672180Y-92868712D01*
X128788599Y-92985335D01*
X128761953Y-93002481D01*
X128653382Y-93161380D01*
X128615185Y-93350000D01*
X128615185Y-94950000D01*
X128648341Y-95126210D01*
X128724500Y-95244564D01*
X128724500Y-95249501D01*
X128599674Y-95550115D01*
X128599327Y-95948139D01*
X128751323Y-96315997D01*
X129032522Y-96597688D01*
X129400115Y-96750326D01*
X129798139Y-96750673D01*
X129974500Y-96677802D01*
X129974500Y-101369198D01*
X125865117Y-97259815D01*
X125950000Y-97259815D01*
X126126210Y-97226659D01*
X126288047Y-97122519D01*
X126396618Y-96963620D01*
X126434815Y-96775000D01*
X126434815Y-96275000D01*
X126401659Y-96098790D01*
X126297519Y-95936953D01*
X126138620Y-95828382D01*
X125950000Y-95790185D01*
X125050000Y-95790185D01*
X124873790Y-95823341D01*
X124833138Y-95849500D01*
X124452567Y-95849500D01*
X124208705Y-95605638D01*
X124201783Y-95568850D01*
X124095417Y-95408466D01*
X123622738Y-94935787D01*
X124195984Y-94362540D01*
X124400141Y-94567054D01*
X124591228Y-94646400D01*
X124565185Y-94775000D01*
X124565185Y-95275000D01*
X124598341Y-95451210D01*
X124702481Y-95613047D01*
X124861380Y-95721618D01*
X125050000Y-95759815D01*
X125950000Y-95759815D01*
X126126210Y-95726659D01*
X126288047Y-95622519D01*
X126396618Y-95463620D01*
X126434815Y-95275000D01*
X126434815Y-94775000D01*
X126401659Y-94598790D01*
X126297519Y-94436953D01*
X126138620Y-94328382D01*
X126126970Y-94326023D01*
X126124081Y-94311497D01*
X125977651Y-94092349D01*
X125597265Y-93711963D01*
X125497820Y-93471288D01*
X125292707Y-93265817D01*
X125719262Y-92839262D01*
X125838596Y-92660668D01*
X125880500Y-92450000D01*
X125880500Y-90240500D01*
X127345185Y-90240500D01*
X127345185Y-90915000D01*
X127345185Y-90915000D01*
G37*
X127345185Y-90915000D02*
X127354500Y-90964505D01*
X127354500Y-91284978D01*
X127304635Y-91405067D01*
X127304366Y-91713580D01*
X127422180Y-91998712D01*
X127640141Y-92217054D01*
X127925067Y-92335365D01*
X128233580Y-92335634D01*
X128518712Y-92217820D01*
X128620667Y-92116043D01*
X128554635Y-92275067D01*
X128554366Y-92583580D01*
X128672180Y-92868712D01*
X128788599Y-92985335D01*
X128761953Y-93002481D01*
X128653382Y-93161380D01*
X128615185Y-93350000D01*
X128615185Y-94950000D01*
X128648341Y-95126210D01*
X128724500Y-95244564D01*
X128724500Y-95249501D01*
X128599674Y-95550115D01*
X128599327Y-95948139D01*
X128751323Y-96315997D01*
X129032522Y-96597688D01*
X129400115Y-96750326D01*
X129798139Y-96750673D01*
X129974500Y-96677802D01*
X129974500Y-101369198D01*
X125865117Y-97259815D01*
X125950000Y-97259815D01*
X126126210Y-97226659D01*
X126288047Y-97122519D01*
X126396618Y-96963620D01*
X126434815Y-96775000D01*
X126434815Y-96275000D01*
X126401659Y-96098790D01*
X126297519Y-95936953D01*
X126138620Y-95828382D01*
X125950000Y-95790185D01*
X125050000Y-95790185D01*
X124873790Y-95823341D01*
X124833138Y-95849500D01*
X124452567Y-95849500D01*
X124208705Y-95605638D01*
X124201783Y-95568850D01*
X124095417Y-95408466D01*
X123622738Y-94935787D01*
X124195984Y-94362540D01*
X124400141Y-94567054D01*
X124591228Y-94646400D01*
X124565185Y-94775000D01*
X124565185Y-95275000D01*
X124598341Y-95451210D01*
X124702481Y-95613047D01*
X124861380Y-95721618D01*
X125050000Y-95759815D01*
X125950000Y-95759815D01*
X126126210Y-95726659D01*
X126288047Y-95622519D01*
X126396618Y-95463620D01*
X126434815Y-95275000D01*
X126434815Y-94775000D01*
X126401659Y-94598790D01*
X126297519Y-94436953D01*
X126138620Y-94328382D01*
X126126970Y-94326023D01*
X126124081Y-94311497D01*
X125977651Y-94092349D01*
X125597265Y-93711963D01*
X125497820Y-93471288D01*
X125292707Y-93265817D01*
X125719262Y-92839262D01*
X125838596Y-92660668D01*
X125880500Y-92450000D01*
X125880500Y-90240500D01*
X127345185Y-90240500D01*
X127345185Y-90915000D01*
G36*
X145895185Y-90925000D02*
X145914500Y-91027651D01*
X145914500Y-91260895D01*
X145854635Y-91405067D01*
X145854366Y-91713580D01*
X145972180Y-91998712D01*
X146190141Y-92217054D01*
X146475067Y-92335365D01*
X146783580Y-92335634D01*
X147068712Y-92217820D01*
X147187747Y-92098993D01*
X147114635Y-92275067D01*
X147114366Y-92583580D01*
X147232180Y-92868712D01*
X147450141Y-93087054D01*
X147735067Y-93205365D01*
X148043580Y-93205634D01*
X148328712Y-93087820D01*
X148430059Y-92986650D01*
X148524500Y-93133414D01*
X148524500Y-93224995D01*
X148524499Y-93225000D01*
X148570210Y-93454802D01*
X148700382Y-93649618D01*
X149074500Y-94023735D01*
X149074500Y-97901265D01*
X148783500Y-98192265D01*
X148783500Y-97599375D01*
X148612625Y-97428500D01*
X147678500Y-97428500D01*
X147678500Y-98662625D01*
X147849375Y-98833500D01*
X148142264Y-98833500D01*
X147851264Y-99124500D01*
X137649736Y-99124500D01*
X138616618Y-98157617D01*
X138648341Y-98326210D01*
X138752481Y-98488047D01*
X138911380Y-98596618D01*
X139100000Y-98634815D01*
X140100000Y-98634815D01*
X140276210Y-98601659D01*
X140438047Y-98497519D01*
X140546618Y-98338620D01*
X140584815Y-98150000D01*
X140584815Y-96550000D01*
X140551659Y-96373790D01*
X140475500Y-96255436D01*
X140475500Y-96250499D01*
X140600187Y-95950220D01*
X140751323Y-96315997D01*
X141032522Y-96597688D01*
X141400115Y-96750326D01*
X141798139Y-96750673D01*
X142165997Y-96598677D01*
X142447688Y-96317478D01*
X142600187Y-95950220D01*
X142724500Y-96251080D01*
X142724500Y-96257295D01*
X142653382Y-96361380D01*
X142615185Y-96550000D01*
X142615185Y-98150000D01*
X142648341Y-98326210D01*
X142752481Y-98488047D01*
X142911380Y-98596618D01*
X143100000Y-98634815D01*
X144100000Y-98634815D01*
X144276210Y-98601659D01*
X144438047Y-98497519D01*
X144546618Y-98338620D01*
X144584815Y-98150000D01*
X144584815Y-97599375D01*
X146416500Y-97599375D01*
X146416500Y-98285956D01*
X146520556Y-98537171D01*
X146712828Y-98729443D01*
X146964043Y-98833500D01*
X147350625Y-98833500D01*
X147521500Y-98662625D01*
X147521500Y-97428500D01*
X146587375Y-97428500D01*
X146416500Y-97599375D01*
X144584815Y-97599375D01*
X144584815Y-96550000D01*
X144551659Y-96373790D01*
X144475500Y-96255436D01*
X144475500Y-96250499D01*
X144600187Y-95950220D01*
X144751323Y-96315997D01*
X145032522Y-96597688D01*
X145400115Y-96750326D01*
X145798139Y-96750673D01*
X146165997Y-96598677D01*
X146391500Y-96373568D01*
X146391500Y-96410956D01*
X146416500Y-96471312D01*
X146416500Y-97100625D01*
X146587375Y-97271500D01*
X147521500Y-97271500D01*
X147521500Y-97251500D01*
X147678500Y-97251500D01*
X147678500Y-97271500D01*
X148612625Y-97271500D01*
X148783500Y-97100625D01*
X148783500Y-96471312D01*
X148808500Y-96410956D01*
X148808500Y-95999375D01*
X148801727Y-95992602D01*
X148814023Y-95960731D01*
X148808500Y-95735176D01*
X148808500Y-95671498D01*
X148806941Y-95671498D01*
X148802894Y-95506231D01*
X148808500Y-95500625D01*
X148808500Y-95089044D01*
X148704444Y-94837829D01*
X148512172Y-94645557D01*
X148260957Y-94541500D01*
X147849375Y-94541500D01*
X147842602Y-94548273D01*
X147810731Y-94535977D01*
X147585176Y-94541500D01*
X147521498Y-94541500D01*
X147521498Y-94543059D01*
X147356231Y-94547106D01*
X147350625Y-94541500D01*
X146939043Y-94541500D01*
X146687828Y-94645557D01*
X146584815Y-94748570D01*
X146584815Y-93350000D01*
X146551659Y-93173790D01*
X146447519Y-93011953D01*
X146288620Y-92903382D01*
X146100000Y-92865185D01*
X145100000Y-92865185D01*
X144923790Y-92898341D01*
X144761953Y-93002481D01*
X144653382Y-93161380D01*
X144615185Y-93350000D01*
X144615185Y-94950000D01*
X144648341Y-95126210D01*
X144724500Y-95244564D01*
X144724500Y-95249501D01*
X144599813Y-95549780D01*
X144448677Y-95184003D01*
X144167478Y-94902312D01*
X143799885Y-94749674D01*
X143401861Y-94749327D01*
X143034003Y-94901323D01*
X142752312Y-95182522D01*
X142599813Y-95549780D01*
X142475500Y-95248920D01*
X142475500Y-95242705D01*
X142546618Y-95138620D01*
X142584815Y-94950000D01*
X142584815Y-93350000D01*
X142551659Y-93173790D01*
X142447519Y-93011953D01*
X142361234Y-92952997D01*
X142501210Y-92926659D01*
X142663047Y-92822519D01*
X142771618Y-92663620D01*
X142809815Y-92475000D01*
X142809815Y-91575000D01*
X142776659Y-91398790D01*
X142750500Y-91358138D01*
X142750500Y-91161213D01*
X142758712Y-91157820D01*
X142977054Y-90939859D01*
X143095365Y-90654933D01*
X143095634Y-90346420D01*
X143051869Y-90240500D01*
X145895185Y-90240500D01*
X145895185Y-90925000D01*
X145895185Y-90925000D01*
G37*
X145895185Y-90925000D02*
X145914500Y-91027651D01*
X145914500Y-91260895D01*
X145854635Y-91405067D01*
X145854366Y-91713580D01*
X145972180Y-91998712D01*
X146190141Y-92217054D01*
X146475067Y-92335365D01*
X146783580Y-92335634D01*
X147068712Y-92217820D01*
X147187747Y-92098993D01*
X147114635Y-92275067D01*
X147114366Y-92583580D01*
X147232180Y-92868712D01*
X147450141Y-93087054D01*
X147735067Y-93205365D01*
X148043580Y-93205634D01*
X148328712Y-93087820D01*
X148430059Y-92986650D01*
X148524500Y-93133414D01*
X148524500Y-93224995D01*
X148524499Y-93225000D01*
X148570210Y-93454802D01*
X148700382Y-93649618D01*
X149074500Y-94023735D01*
X149074500Y-97901265D01*
X148783500Y-98192265D01*
X148783500Y-97599375D01*
X148612625Y-97428500D01*
X147678500Y-97428500D01*
X147678500Y-98662625D01*
X147849375Y-98833500D01*
X148142264Y-98833500D01*
X147851264Y-99124500D01*
X137649736Y-99124500D01*
X138616618Y-98157617D01*
X138648341Y-98326210D01*
X138752481Y-98488047D01*
X138911380Y-98596618D01*
X139100000Y-98634815D01*
X140100000Y-98634815D01*
X140276210Y-98601659D01*
X140438047Y-98497519D01*
X140546618Y-98338620D01*
X140584815Y-98150000D01*
X140584815Y-96550000D01*
X140551659Y-96373790D01*
X140475500Y-96255436D01*
X140475500Y-96250499D01*
X140600187Y-95950220D01*
X140751323Y-96315997D01*
X141032522Y-96597688D01*
X141400115Y-96750326D01*
X141798139Y-96750673D01*
X142165997Y-96598677D01*
X142447688Y-96317478D01*
X142600187Y-95950220D01*
X142724500Y-96251080D01*
X142724500Y-96257295D01*
X142653382Y-96361380D01*
X142615185Y-96550000D01*
X142615185Y-98150000D01*
X142648341Y-98326210D01*
X142752481Y-98488047D01*
X142911380Y-98596618D01*
X143100000Y-98634815D01*
X144100000Y-98634815D01*
X144276210Y-98601659D01*
X144438047Y-98497519D01*
X144546618Y-98338620D01*
X144584815Y-98150000D01*
X144584815Y-97599375D01*
X146416500Y-97599375D01*
X146416500Y-98285956D01*
X146520556Y-98537171D01*
X146712828Y-98729443D01*
X146964043Y-98833500D01*
X147350625Y-98833500D01*
X147521500Y-98662625D01*
X147521500Y-97428500D01*
X146587375Y-97428500D01*
X146416500Y-97599375D01*
X144584815Y-97599375D01*
X144584815Y-96550000D01*
X144551659Y-96373790D01*
X144475500Y-96255436D01*
X144475500Y-96250499D01*
X144600187Y-95950220D01*
X144751323Y-96315997D01*
X145032522Y-96597688D01*
X145400115Y-96750326D01*
X145798139Y-96750673D01*
X146165997Y-96598677D01*
X146391500Y-96373568D01*
X146391500Y-96410956D01*
X146416500Y-96471312D01*
X146416500Y-97100625D01*
X146587375Y-97271500D01*
X147521500Y-97271500D01*
X147521500Y-97251500D01*
X147678500Y-97251500D01*
X147678500Y-97271500D01*
X148612625Y-97271500D01*
X148783500Y-97100625D01*
X148783500Y-96471312D01*
X148808500Y-96410956D01*
X148808500Y-95999375D01*
X148801727Y-95992602D01*
X148814023Y-95960731D01*
X148808500Y-95735176D01*
X148808500Y-95671498D01*
X148806941Y-95671498D01*
X148802894Y-95506231D01*
X148808500Y-95500625D01*
X148808500Y-95089044D01*
X148704444Y-94837829D01*
X148512172Y-94645557D01*
X148260957Y-94541500D01*
X147849375Y-94541500D01*
X147842602Y-94548273D01*
X147810731Y-94535977D01*
X147585176Y-94541500D01*
X147521498Y-94541500D01*
X147521498Y-94543059D01*
X147356231Y-94547106D01*
X147350625Y-94541500D01*
X146939043Y-94541500D01*
X146687828Y-94645557D01*
X146584815Y-94748570D01*
X146584815Y-93350000D01*
X146551659Y-93173790D01*
X146447519Y-93011953D01*
X146288620Y-92903382D01*
X146100000Y-92865185D01*
X145100000Y-92865185D01*
X144923790Y-92898341D01*
X144761953Y-93002481D01*
X144653382Y-93161380D01*
X144615185Y-93350000D01*
X144615185Y-94950000D01*
X144648341Y-95126210D01*
X144724500Y-95244564D01*
X144724500Y-95249501D01*
X144599813Y-95549780D01*
X144448677Y-95184003D01*
X144167478Y-94902312D01*
X143799885Y-94749674D01*
X143401861Y-94749327D01*
X143034003Y-94901323D01*
X142752312Y-95182522D01*
X142599813Y-95549780D01*
X142475500Y-95248920D01*
X142475500Y-95242705D01*
X142546618Y-95138620D01*
X142584815Y-94950000D01*
X142584815Y-93350000D01*
X142551659Y-93173790D01*
X142447519Y-93011953D01*
X142361234Y-92952997D01*
X142501210Y-92926659D01*
X142663047Y-92822519D01*
X142771618Y-92663620D01*
X142809815Y-92475000D01*
X142809815Y-91575000D01*
X142776659Y-91398790D01*
X142750500Y-91358138D01*
X142750500Y-91161213D01*
X142758712Y-91157820D01*
X142977054Y-90939859D01*
X143095365Y-90654933D01*
X143095634Y-90346420D01*
X143051869Y-90240500D01*
X145895185Y-90240500D01*
X145895185Y-90925000D01*
G36*
X147698500Y-95709200D02*
X147698500Y-95790800D01*
X147640800Y-95848500D01*
X147559200Y-95848500D01*
X147501500Y-95790800D01*
X147501500Y-95709200D01*
X147559200Y-95651500D01*
X147640800Y-95651500D01*
X147698500Y-95709200D01*
X147698500Y-95709200D01*
G37*
X147698500Y-95709200D02*
X147698500Y-95790800D01*
X147640800Y-95848500D01*
X147559200Y-95848500D01*
X147501500Y-95790800D01*
X147501500Y-95709200D01*
X147559200Y-95651500D01*
X147640800Y-95651500D01*
X147698500Y-95709200D01*
G36*
X136625185Y-90945000D02*
X136634500Y-90994505D01*
X136634500Y-91284978D01*
X136584635Y-91405067D01*
X136584366Y-91713580D01*
X136702180Y-91998712D01*
X136920141Y-92217054D01*
X137205067Y-92335365D01*
X137513580Y-92335634D01*
X137798712Y-92217820D01*
X137900667Y-92116043D01*
X137834635Y-92275067D01*
X137834366Y-92583580D01*
X137950723Y-92865185D01*
X137100000Y-92865185D01*
X136923790Y-92898341D01*
X136761953Y-93002481D01*
X136653382Y-93161380D01*
X136615185Y-93350000D01*
X136615185Y-94950000D01*
X136648341Y-95126210D01*
X136724500Y-95244564D01*
X136724500Y-95249501D01*
X136599813Y-95549780D01*
X136448677Y-95184003D01*
X136167478Y-94902312D01*
X135799885Y-94749674D01*
X135401861Y-94749327D01*
X135034003Y-94901323D01*
X134752312Y-95182522D01*
X134599813Y-95549780D01*
X134475500Y-95248920D01*
X134475500Y-95242705D01*
X134546618Y-95138620D01*
X134584815Y-94950000D01*
X134584815Y-93350000D01*
X134551659Y-93173790D01*
X134447519Y-93011953D01*
X134288620Y-92903382D01*
X134100000Y-92865185D01*
X133535593Y-92865185D01*
X133563047Y-92847519D01*
X133671618Y-92688620D01*
X133709815Y-92500000D01*
X133709815Y-91600000D01*
X133676659Y-91423790D01*
X133650500Y-91383138D01*
X133650500Y-91046227D01*
X133757054Y-90939859D01*
X133875365Y-90654933D01*
X133875634Y-90346420D01*
X133831869Y-90240500D01*
X136625185Y-90240500D01*
X136625185Y-90945000D01*
X136625185Y-90945000D01*
G37*
X136625185Y-90945000D02*
X136634500Y-90994505D01*
X136634500Y-91284978D01*
X136584635Y-91405067D01*
X136584366Y-91713580D01*
X136702180Y-91998712D01*
X136920141Y-92217054D01*
X137205067Y-92335365D01*
X137513580Y-92335634D01*
X137798712Y-92217820D01*
X137900667Y-92116043D01*
X137834635Y-92275067D01*
X137834366Y-92583580D01*
X137950723Y-92865185D01*
X137100000Y-92865185D01*
X136923790Y-92898341D01*
X136761953Y-93002481D01*
X136653382Y-93161380D01*
X136615185Y-93350000D01*
X136615185Y-94950000D01*
X136648341Y-95126210D01*
X136724500Y-95244564D01*
X136724500Y-95249501D01*
X136599813Y-95549780D01*
X136448677Y-95184003D01*
X136167478Y-94902312D01*
X135799885Y-94749674D01*
X135401861Y-94749327D01*
X135034003Y-94901323D01*
X134752312Y-95182522D01*
X134599813Y-95549780D01*
X134475500Y-95248920D01*
X134475500Y-95242705D01*
X134546618Y-95138620D01*
X134584815Y-94950000D01*
X134584815Y-93350000D01*
X134551659Y-93173790D01*
X134447519Y-93011953D01*
X134288620Y-92903382D01*
X134100000Y-92865185D01*
X133535593Y-92865185D01*
X133563047Y-92847519D01*
X133671618Y-92688620D01*
X133709815Y-92500000D01*
X133709815Y-91600000D01*
X133676659Y-91423790D01*
X133650500Y-91383138D01*
X133650500Y-91046227D01*
X133757054Y-90939859D01*
X133875365Y-90654933D01*
X133875634Y-90346420D01*
X133831869Y-90240500D01*
X136625185Y-90240500D01*
X136625185Y-90945000D01*
M02*
