G04 #@! TF.FileFunction,Paste,Bot*
%FSLAX46Y46*%
G04 Gerber Fmt 4.6, Leading zero omitted, Abs format (unit mm)*
G04 Created by KiCad (PCBNEW 4.0.7-e2-6376~58~ubuntu16.04.1) date Mon Aug  6 19:30:18 2018*
%MOMM*%
%LPD*%
G01*
G04 APERTURE LIST*
%ADD10C,0.100000*%
%ADD11R,1.000000X1.600000*%
%ADD12R,0.500000X1.250000*%
%ADD13R,1.250000X0.500000*%
%ADD14R,3.000000X1.250000*%
%ADD15R,0.400000X1.100000*%
%ADD16R,0.500000X0.900000*%
%ADD17R,0.900000X0.500000*%
%ADD18R,0.800000X0.750000*%
G04 APERTURE END LIST*
D10*
D11*
X147600000Y-97350000D03*
X145600000Y-94150000D03*
X143600000Y-97350000D03*
X141600000Y-94150000D03*
X139600000Y-97350000D03*
X137600000Y-94150000D03*
X135600000Y-97350000D03*
X133600000Y-94150000D03*
X131600000Y-97350000D03*
X129600000Y-94150000D03*
D12*
X130580000Y-90290000D03*
X128080000Y-90290000D03*
X139860000Y-90320000D03*
X137360000Y-90320000D03*
X149130000Y-90300000D03*
X146630000Y-90300000D03*
X146640000Y-123200000D03*
X149140000Y-123200000D03*
X128070000Y-123140000D03*
X130570000Y-123140000D03*
D10*
G36*
X156472601Y-96998718D02*
X155588718Y-97882601D01*
X155235165Y-97529048D01*
X156119048Y-96645165D01*
X156472601Y-96998718D01*
X156472601Y-96998718D01*
G37*
G36*
X154704835Y-95230952D02*
X153820952Y-96114835D01*
X153467399Y-95761282D01*
X154351282Y-94877399D01*
X154704835Y-95230952D01*
X154704835Y-95230952D01*
G37*
D13*
X156720000Y-108000000D03*
X156720000Y-105500000D03*
X120460000Y-105510000D03*
X120460000Y-108010000D03*
D12*
X137350000Y-123200000D03*
X139850000Y-123200000D03*
D10*
G36*
X120727399Y-116561282D02*
X121611282Y-115677399D01*
X121964835Y-116030952D01*
X121080952Y-116914835D01*
X120727399Y-116561282D01*
X120727399Y-116561282D01*
G37*
G36*
X122495165Y-118329048D02*
X123379048Y-117445165D01*
X123732601Y-117798718D01*
X122848718Y-118682601D01*
X122495165Y-118329048D01*
X122495165Y-118329048D01*
G37*
G36*
X154371282Y-118652601D02*
X153487399Y-117768718D01*
X153840952Y-117415165D01*
X154724835Y-118299048D01*
X154371282Y-118652601D01*
X154371282Y-118652601D01*
G37*
G36*
X156139048Y-116884835D02*
X155255165Y-116000952D01*
X155608718Y-115647399D01*
X156492601Y-116531282D01*
X156139048Y-116884835D01*
X156139048Y-116884835D01*
G37*
G36*
X122868718Y-94867399D02*
X123752601Y-95751282D01*
X123399048Y-96104835D01*
X122515165Y-95220952D01*
X122868718Y-94867399D01*
X122868718Y-94867399D01*
G37*
G36*
X121100952Y-96635165D02*
X121984835Y-97519048D01*
X121631282Y-97872601D01*
X120747399Y-96988718D01*
X121100952Y-96635165D01*
X121100952Y-96635165D01*
G37*
D11*
X147600000Y-116150000D03*
X145600000Y-119350000D03*
X143600000Y-116150000D03*
X141600000Y-119350000D03*
X139600000Y-116150000D03*
X137600000Y-119350000D03*
X135600000Y-116150000D03*
X133600000Y-119350000D03*
X131600000Y-116150000D03*
X129600000Y-119350000D03*
D14*
X148000000Y-112225000D03*
X148000000Y-109475000D03*
X148000000Y-106725000D03*
X148000000Y-103975000D03*
X148000000Y-101225000D03*
D15*
X136425000Y-109600000D03*
X135775000Y-109600000D03*
X135125000Y-109600000D03*
X134475000Y-109600000D03*
X133825000Y-109600000D03*
X133175000Y-109600000D03*
X132525000Y-109600000D03*
X131875000Y-109600000D03*
X131225000Y-109600000D03*
X130575000Y-109600000D03*
X129925000Y-109600000D03*
X129275000Y-109600000D03*
X129275000Y-103900000D03*
X129925000Y-103900000D03*
X130575000Y-103900000D03*
X131225000Y-103900000D03*
X131875000Y-103900000D03*
X132525000Y-103900000D03*
X133175000Y-103900000D03*
X133825000Y-103900000D03*
X134475000Y-103900000D03*
X135125000Y-103900000D03*
X135775000Y-103900000D03*
X136425000Y-103900000D03*
D16*
X132975000Y-92050000D03*
X131475000Y-92050000D03*
X142075000Y-92025000D03*
X140575000Y-92025000D03*
X150625000Y-92350000D03*
X149125000Y-92350000D03*
D17*
X155225000Y-100600000D03*
X155225000Y-99100000D03*
X154725000Y-110925000D03*
X154725000Y-109425000D03*
X151575000Y-118100000D03*
X151575000Y-116600000D03*
D16*
X144375000Y-121325000D03*
X145875000Y-121325000D03*
X134300000Y-121425000D03*
X135800000Y-121425000D03*
X126575000Y-121100000D03*
X128075000Y-121100000D03*
D17*
X122225000Y-112350000D03*
X122225000Y-113850000D03*
X122750000Y-103250000D03*
X122750000Y-104750000D03*
X125500000Y-95025000D03*
X125500000Y-96525000D03*
D18*
X125225000Y-103250000D03*
X126725000Y-103250000D03*
M02*
