G04 #@! TF.FileFunction,Legend,Top*
%FSLAX46Y46*%
G04 Gerber Fmt 4.6, Leading zero omitted, Abs format (unit mm)*
G04 Created by KiCad (PCBNEW 4.0.7-e2-6376~58~ubuntu16.04.1) date Mon Aug  6 19:30:18 2018*
%MOMM*%
%LPD*%
G01*
G04 APERTURE LIST*
%ADD10C,0.100000*%
%ADD11C,0.200000*%
%ADD12C,0.150000*%
%ADD13C,0.120000*%
%ADD14C,0.125000*%
G04 APERTURE END LIST*
D10*
D11*
X151850000Y-92420000D02*
X151850000Y-89690000D01*
X159040000Y-99610000D02*
X151850000Y-92420000D01*
X157370000Y-101280000D02*
X159040000Y-99610000D01*
X157370000Y-112260000D02*
X157370000Y-101280000D01*
X159040000Y-113930000D02*
X157370000Y-112260000D01*
X151720000Y-121250000D02*
X159040000Y-113930000D01*
X151720000Y-123800000D02*
X151720000Y-121250000D01*
X125440000Y-123800000D02*
X151720000Y-123800000D01*
X125440000Y-121200000D02*
X125440000Y-123800000D01*
X118150000Y-113910000D02*
X125440000Y-121200000D01*
X119840000Y-112220000D02*
X118150000Y-113910000D01*
X119840000Y-101270000D02*
X119840000Y-112220000D01*
X118170000Y-99600000D02*
X119840000Y-101270000D01*
X125350000Y-92420000D02*
X118170000Y-99600000D01*
X125340000Y-92410000D02*
X125350000Y-92420000D01*
X125330000Y-92400000D02*
X125340000Y-92410000D01*
X125330000Y-89690000D02*
X125330000Y-92400000D01*
X125340000Y-89690000D02*
X125330000Y-89690000D01*
X151850000Y-89690000D02*
X125340000Y-89690000D01*
X117410000Y-125850000D02*
X117410000Y-125980000D01*
D12*
X126330000Y-89690000D02*
X126330000Y-91190000D01*
X126330000Y-91190000D02*
X132330000Y-91190000D01*
X132330000Y-91190000D02*
X132330000Y-89690000D01*
X135610000Y-89720000D02*
X135610000Y-91220000D01*
X135610000Y-91220000D02*
X141610000Y-91220000D01*
X141610000Y-91220000D02*
X141610000Y-89720000D01*
X144880000Y-89700000D02*
X144880000Y-91200000D01*
X144880000Y-91200000D02*
X150880000Y-91200000D01*
X150880000Y-91200000D02*
X150880000Y-89700000D01*
X150890000Y-123800000D02*
X150890000Y-122300000D01*
X150890000Y-122300000D02*
X144890000Y-122300000D01*
X144890000Y-122300000D02*
X144890000Y-123800000D01*
X132320000Y-123740000D02*
X132320000Y-122240000D01*
X132320000Y-122240000D02*
X126320000Y-122240000D01*
X126320000Y-122240000D02*
X126320000Y-123740000D01*
X139867475Y-107810000D02*
G75*
G03X139867475Y-107810000I-127475J0D01*
G01*
X138940000Y-107810000D02*
X134940000Y-107810000D01*
X134940000Y-107810000D02*
X134940000Y-105210000D01*
X134940000Y-105210000D02*
X139740000Y-105210000D01*
X139740000Y-105210000D02*
X139740000Y-107810000D01*
X139740000Y-107810000D02*
X138940000Y-107810000D01*
X153272944Y-93834416D02*
X152212284Y-94895076D01*
X152212284Y-94895076D02*
X156454924Y-99137716D01*
X156454924Y-99137716D02*
X157515584Y-98077056D01*
X157320000Y-103750000D02*
X155820000Y-103750000D01*
X155820000Y-103750000D02*
X155820000Y-109750000D01*
X155820000Y-109750000D02*
X157320000Y-109750000D01*
X119860000Y-109760000D02*
X121360000Y-109760000D01*
X121360000Y-109760000D02*
X121360000Y-103760000D01*
X121360000Y-103760000D02*
X119860000Y-103760000D01*
X141600000Y-123800000D02*
X141600000Y-122300000D01*
X141600000Y-122300000D02*
X135600000Y-122300000D01*
X135600000Y-122300000D02*
X135600000Y-123800000D01*
X123927056Y-119725584D02*
X124987716Y-118664924D01*
X124987716Y-118664924D02*
X120745076Y-114422284D01*
X120745076Y-114422284D02*
X119684416Y-115482944D01*
X157535584Y-115452944D02*
X156474924Y-114392284D01*
X156474924Y-114392284D02*
X152232284Y-118634924D01*
X152232284Y-118634924D02*
X153292944Y-119695584D01*
X119704416Y-98067056D02*
X120765076Y-99127716D01*
X120765076Y-99127716D02*
X125007716Y-94885076D01*
X125007716Y-94885076D02*
X123947056Y-93824416D01*
D13*
X129515000Y-108870000D02*
X129515000Y-109800000D01*
X129515000Y-112030000D02*
X129515000Y-111100000D01*
X129515000Y-112030000D02*
X131675000Y-112030000D01*
X129515000Y-108870000D02*
X130975000Y-108870000D01*
X149945000Y-104650000D02*
X149945000Y-103650000D01*
X151305000Y-103650000D02*
X151305000Y-104650000D01*
X133080000Y-106050000D02*
X133080000Y-107050000D01*
X131720000Y-107050000D02*
X131720000Y-106050000D01*
X140050000Y-110490000D02*
X139350000Y-110490000D01*
X139350000Y-109290000D02*
X140050000Y-109290000D01*
X139350000Y-102460000D02*
X140050000Y-102460000D01*
X140050000Y-103660000D02*
X139350000Y-103660000D01*
X150125000Y-108850000D02*
X151125000Y-108850000D01*
X151125000Y-108850000D02*
X151125000Y-106750000D01*
X150125000Y-108850000D02*
X150125000Y-106750000D01*
D10*
X131667560Y-91676190D02*
X131622917Y-92033333D01*
X131590179Y-92104762D01*
X131536607Y-92152381D01*
X131462203Y-92176190D01*
X131414584Y-92176190D01*
X131858036Y-91676190D02*
X132167559Y-91676190D01*
X131977084Y-91866667D01*
X132048512Y-91866667D01*
X132093155Y-91890476D01*
X132113988Y-91914286D01*
X132131845Y-91961905D01*
X132116964Y-92080952D01*
X132087203Y-92128571D01*
X132060416Y-92152381D01*
X132009821Y-92176190D01*
X131866964Y-92176190D01*
X131822321Y-92152381D01*
X131801489Y-92128571D01*
X140967560Y-91676190D02*
X140922917Y-92033333D01*
X140890179Y-92104762D01*
X140836607Y-92152381D01*
X140762203Y-92176190D01*
X140714584Y-92176190D01*
X141399107Y-91842857D02*
X141357440Y-92176190D01*
X141303869Y-91652381D02*
X141140179Y-92009524D01*
X141449703Y-92009524D01*
X150192560Y-91551190D02*
X150147917Y-91908333D01*
X150115179Y-91979762D01*
X150061607Y-92027381D01*
X149987203Y-92051190D01*
X149939584Y-92051190D01*
X150668750Y-91551190D02*
X150430655Y-91551190D01*
X150377083Y-91789286D01*
X150403870Y-91765476D01*
X150454465Y-91741667D01*
X150573512Y-91741667D01*
X150618155Y-91765476D01*
X150638988Y-91789286D01*
X150656845Y-91836905D01*
X150641964Y-91955952D01*
X150612203Y-92003571D01*
X150585416Y-92027381D01*
X150534821Y-92051190D01*
X150415774Y-92051190D01*
X150371131Y-92027381D01*
X150350298Y-92003571D01*
X145042560Y-121401190D02*
X144997917Y-121758333D01*
X144965179Y-121829762D01*
X144911607Y-121877381D01*
X144837203Y-121901190D01*
X144789584Y-121901190D01*
X145241964Y-121901190D02*
X145337202Y-121901190D01*
X145387797Y-121877381D01*
X145414584Y-121853571D01*
X145471131Y-121782143D01*
X145506845Y-121686905D01*
X145530654Y-121496429D01*
X145512798Y-121448810D01*
X145491964Y-121425000D01*
X145447321Y-121401190D01*
X145352083Y-121401190D01*
X145301488Y-121425000D01*
X145274703Y-121448810D01*
X145244940Y-121496429D01*
X145230060Y-121615476D01*
X145247917Y-121663095D01*
X145268750Y-121686905D01*
X145313393Y-121710714D01*
X145408631Y-121710714D01*
X145459226Y-121686905D01*
X145486012Y-121663095D01*
X145515774Y-121615476D01*
X126404465Y-121351190D02*
X126359822Y-121708333D01*
X126327084Y-121779762D01*
X126273512Y-121827381D01*
X126199108Y-121851190D01*
X126151489Y-121851190D01*
X126841964Y-121851190D02*
X126556250Y-121851190D01*
X126699107Y-121851190D02*
X126761607Y-121351190D01*
X126705060Y-121422619D01*
X126651488Y-121470238D01*
X126600893Y-121494048D01*
X127318154Y-121851190D02*
X127032440Y-121851190D01*
X127175297Y-121851190D02*
X127237797Y-121351190D01*
X127181250Y-121422619D01*
X127127678Y-121470238D01*
X127077083Y-121494048D01*
X140051190Y-106830952D02*
X140455952Y-106830952D01*
X140503571Y-106807143D01*
X140527381Y-106783333D01*
X140551190Y-106735714D01*
X140551190Y-106640476D01*
X140527381Y-106592857D01*
X140503571Y-106569048D01*
X140455952Y-106545238D01*
X140051190Y-106545238D01*
X140051190Y-106354761D02*
X140051190Y-106045238D01*
X140241667Y-106211904D01*
X140241667Y-106140476D01*
X140265476Y-106092857D01*
X140289286Y-106069047D01*
X140336905Y-106045238D01*
X140455952Y-106045238D01*
X140503571Y-106069047D01*
X140527381Y-106092857D01*
X140551190Y-106140476D01*
X140551190Y-106283333D01*
X140527381Y-106330952D01*
X140503571Y-106354761D01*
X155724963Y-98962738D02*
X155440857Y-99183709D01*
X155367200Y-99211067D01*
X155295647Y-99206858D01*
X155226200Y-99171082D01*
X155192528Y-99137410D01*
X156044844Y-99282619D02*
X155977500Y-99215275D01*
X155924888Y-99196336D01*
X155889112Y-99194232D01*
X155798619Y-99204754D01*
X155706022Y-99246843D01*
X155554499Y-99364694D01*
X155533455Y-99410993D01*
X155531349Y-99442560D01*
X155546081Y-99490963D01*
X155613424Y-99558306D01*
X155666036Y-99577247D01*
X155701813Y-99579352D01*
X155756529Y-99566724D01*
X155851231Y-99493068D01*
X155872276Y-99446769D01*
X155874381Y-99415202D01*
X155859649Y-99366799D01*
X155792305Y-99299456D01*
X155739694Y-99280515D01*
X155703917Y-99278411D01*
X155649200Y-99291038D01*
X154976190Y-109357440D02*
X155333333Y-109402083D01*
X155404762Y-109434821D01*
X155452381Y-109488393D01*
X155476190Y-109562797D01*
X155476190Y-109610416D01*
X154976190Y-109166964D02*
X154976190Y-108833631D01*
X155476190Y-109110417D01*
X121926190Y-104645535D02*
X122283333Y-104690178D01*
X122354762Y-104722916D01*
X122402381Y-104776488D01*
X122426190Y-104850892D01*
X122426190Y-104898511D01*
X122426190Y-104208036D02*
X122426190Y-104493750D01*
X122426190Y-104350893D02*
X121926190Y-104288393D01*
X121997619Y-104344940D01*
X122045238Y-104398512D01*
X122069048Y-104449107D01*
X121926190Y-103978869D02*
X121926190Y-103669346D01*
X122116667Y-103859821D01*
X122116667Y-103788393D01*
X122140476Y-103743750D01*
X122164286Y-103722917D01*
X122211905Y-103705060D01*
X122330952Y-103719941D01*
X122378571Y-103749702D01*
X122402381Y-103776489D01*
X122426190Y-103827084D01*
X122426190Y-103969941D01*
X122402381Y-104014584D01*
X122378571Y-104035416D01*
X135629465Y-121401190D02*
X135584822Y-121758333D01*
X135552084Y-121829762D01*
X135498512Y-121877381D01*
X135424108Y-121901190D01*
X135376489Y-121901190D01*
X136066964Y-121901190D02*
X135781250Y-121901190D01*
X135924107Y-121901190D02*
X135986607Y-121401190D01*
X135930060Y-121472619D01*
X135876488Y-121520238D01*
X135825893Y-121544048D01*
X136438988Y-121401190D02*
X136486607Y-121401190D01*
X136531250Y-121425000D01*
X136552083Y-121448810D01*
X136569940Y-121496429D01*
X136581845Y-121591667D01*
X136566964Y-121710714D01*
X136531250Y-121805952D01*
X136501488Y-121853571D01*
X136474702Y-121877381D01*
X136424107Y-121901190D01*
X136376488Y-121901190D01*
X136331845Y-121877381D01*
X136311012Y-121853571D01*
X136293155Y-121805952D01*
X136281250Y-121710714D01*
X136296131Y-121591667D01*
X136331845Y-121496429D01*
X136361607Y-121448810D01*
X136388393Y-121425000D01*
X136438988Y-121401190D01*
X121406605Y-113744379D02*
X121122499Y-113965350D01*
X121048842Y-113992709D01*
X120977289Y-113988499D01*
X120907842Y-113952723D01*
X120874171Y-113919052D01*
X121362410Y-114407291D02*
X121160380Y-114205261D01*
X121261395Y-114306276D02*
X121659143Y-113996917D01*
X121568650Y-114007440D01*
X121497097Y-114003231D01*
X121444485Y-113984291D01*
X121856964Y-114262083D02*
X121892740Y-114264187D01*
X121945353Y-114283127D01*
X122029532Y-114367306D01*
X122044263Y-114415709D01*
X122042158Y-114447277D01*
X122021113Y-114493575D01*
X121983232Y-114523038D01*
X121909577Y-114550397D01*
X121480262Y-114525143D01*
X121699127Y-114744008D01*
X151762738Y-117675036D02*
X151983709Y-117959142D01*
X152011067Y-118032799D01*
X152006858Y-118104352D01*
X151971082Y-118173799D01*
X151937410Y-118207471D01*
X152114187Y-117626633D02*
X152065784Y-117641365D01*
X152034217Y-117639260D01*
X151987917Y-117618216D01*
X151973186Y-117599276D01*
X151960560Y-117544559D01*
X151962664Y-117508783D01*
X151981604Y-117456171D01*
X152048947Y-117388827D01*
X152097351Y-117374096D01*
X152128919Y-117376200D01*
X152175217Y-117397246D01*
X152189948Y-117416186D01*
X152202575Y-117470902D01*
X152200471Y-117506678D01*
X152181530Y-117559290D01*
X152114187Y-117626633D01*
X152095246Y-117679246D01*
X152093142Y-117715022D01*
X152105769Y-117769738D01*
X152164694Y-117845500D01*
X152210993Y-117866544D01*
X152242560Y-117868650D01*
X152290963Y-117853918D01*
X152358306Y-117786575D01*
X152377247Y-117733963D01*
X152379352Y-117698186D01*
X152366724Y-117643470D01*
X152307799Y-117567708D01*
X152261501Y-117546663D01*
X152229933Y-117544560D01*
X152181530Y-117559290D01*
X124994379Y-95968395D02*
X125215350Y-96252501D01*
X125242709Y-96326158D01*
X125238499Y-96397711D01*
X125202723Y-96467158D01*
X125169052Y-96500829D01*
X125657291Y-96012590D02*
X125455261Y-96214620D01*
X125556276Y-96113605D02*
X125246917Y-95715857D01*
X125257440Y-95806350D01*
X125253231Y-95877903D01*
X125234291Y-95930515D01*
X125754098Y-95444379D02*
X125960337Y-95709544D01*
X125552067Y-95377036D02*
X125688859Y-95745320D01*
X125907726Y-95526454D01*
X128516190Y-112290952D02*
X128920952Y-112290952D01*
X128968571Y-112267143D01*
X128992381Y-112243333D01*
X129016190Y-112195714D01*
X129016190Y-112100476D01*
X128992381Y-112052857D01*
X128968571Y-112029048D01*
X128920952Y-112005238D01*
X128516190Y-112005238D01*
X129016190Y-111505238D02*
X129016190Y-111790952D01*
X129016190Y-111648095D02*
X128516190Y-111648095D01*
X128587619Y-111695714D01*
X128635238Y-111743333D01*
X128659048Y-111790952D01*
D14*
X152056190Y-104253333D02*
X151818095Y-104420000D01*
X152056190Y-104539047D02*
X151556190Y-104539047D01*
X151556190Y-104348571D01*
X151580000Y-104300952D01*
X151603810Y-104277143D01*
X151651429Y-104253333D01*
X151722857Y-104253333D01*
X151770476Y-104277143D01*
X151794286Y-104300952D01*
X151818095Y-104348571D01*
X151818095Y-104539047D01*
X152056190Y-103777143D02*
X152056190Y-104062857D01*
X152056190Y-103920000D02*
X151556190Y-103920000D01*
X151627619Y-103967619D01*
X151675238Y-104015238D01*
X151699048Y-104062857D01*
X131501190Y-106608333D02*
X131263095Y-106775000D01*
X131501190Y-106894047D02*
X131001190Y-106894047D01*
X131001190Y-106703571D01*
X131025000Y-106655952D01*
X131048810Y-106632143D01*
X131096429Y-106608333D01*
X131167857Y-106608333D01*
X131215476Y-106632143D01*
X131239286Y-106655952D01*
X131263095Y-106703571D01*
X131263095Y-106894047D01*
X131167857Y-106179762D02*
X131501190Y-106179762D01*
X130977381Y-106298809D02*
X131334524Y-106417857D01*
X131334524Y-106108333D01*
X141606667Y-110088571D02*
X141582857Y-110112381D01*
X141511429Y-110136190D01*
X141463810Y-110136190D01*
X141392381Y-110112381D01*
X141344762Y-110064762D01*
X141320953Y-110017143D01*
X141297143Y-109921905D01*
X141297143Y-109850476D01*
X141320953Y-109755238D01*
X141344762Y-109707619D01*
X141392381Y-109660000D01*
X141463810Y-109636190D01*
X141511429Y-109636190D01*
X141582857Y-109660000D01*
X141606667Y-109683810D01*
X141797143Y-109683810D02*
X141820953Y-109660000D01*
X141868572Y-109636190D01*
X141987619Y-109636190D01*
X142035238Y-109660000D01*
X142059048Y-109683810D01*
X142082857Y-109731429D01*
X142082857Y-109779048D01*
X142059048Y-109850476D01*
X141773334Y-110136190D01*
X142082857Y-110136190D01*
X141716667Y-103198571D02*
X141692857Y-103222381D01*
X141621429Y-103246190D01*
X141573810Y-103246190D01*
X141502381Y-103222381D01*
X141454762Y-103174762D01*
X141430953Y-103127143D01*
X141407143Y-103031905D01*
X141407143Y-102960476D01*
X141430953Y-102865238D01*
X141454762Y-102817619D01*
X141502381Y-102770000D01*
X141573810Y-102746190D01*
X141621429Y-102746190D01*
X141692857Y-102770000D01*
X141716667Y-102793810D01*
X141883334Y-102746190D02*
X142192857Y-102746190D01*
X142026191Y-102936667D01*
X142097619Y-102936667D01*
X142145238Y-102960476D01*
X142169048Y-102984286D01*
X142192857Y-103031905D01*
X142192857Y-103150952D01*
X142169048Y-103198571D01*
X142145238Y-103222381D01*
X142097619Y-103246190D01*
X141954762Y-103246190D01*
X141907143Y-103222381D01*
X141883334Y-103198571D01*
X151986190Y-107879047D02*
X151486190Y-107879047D01*
X151486190Y-107760000D01*
X151510000Y-107688571D01*
X151557619Y-107640952D01*
X151605238Y-107617143D01*
X151700476Y-107593333D01*
X151771905Y-107593333D01*
X151867143Y-107617143D01*
X151914762Y-107640952D01*
X151962381Y-107688571D01*
X151986190Y-107760000D01*
X151986190Y-107879047D01*
X151986190Y-107117143D02*
X151986190Y-107402857D01*
X151986190Y-107260000D02*
X151486190Y-107260000D01*
X151557619Y-107307619D01*
X151605238Y-107355238D01*
X151629048Y-107402857D01*
M02*
