G04 #@! TF.FileFunction,Copper,L3,Inr,Signal*
%FSLAX46Y46*%
G04 Gerber Fmt 4.6, Leading zero omitted, Abs format (unit mm)*
G04 Created by KiCad (PCBNEW 4.0.7-e2-6376~58~ubuntu16.04.1) date Mon Aug  6 19:30:18 2018*
%MOMM*%
%LPD*%
G01*
G04 APERTURE LIST*
%ADD10C,0.100000*%
%ADD11C,1.050000*%
%ADD12R,1.050000X1.050000*%
%ADD13C,0.600000*%
%ADD14C,0.500000*%
%ADD15C,0.400000*%
G04 APERTURE END LIST*
D10*
D11*
X129600000Y-95750000D03*
X145600000Y-95750000D03*
D12*
X147600000Y-95750000D03*
D11*
X133600000Y-95750000D03*
X131600000Y-95750000D03*
X143600000Y-95750000D03*
X141600000Y-95750000D03*
X135600000Y-95750000D03*
X137600000Y-95750000D03*
X139600000Y-95750000D03*
X129600000Y-117750000D03*
X145600000Y-117750000D03*
D12*
X147600000Y-117750000D03*
D11*
X133600000Y-117750000D03*
X131600000Y-117750000D03*
X143600000Y-117750000D03*
X141600000Y-117750000D03*
X135600000Y-117750000D03*
X137600000Y-117750000D03*
X139600000Y-117750000D03*
D13*
X128000000Y-109600000D03*
X139825000Y-111125000D03*
X133725000Y-105825000D03*
X146300000Y-112225000D03*
X126325000Y-122325000D03*
X151020000Y-90390000D03*
X133100000Y-90500000D03*
X142320000Y-90500000D03*
X156570000Y-99930000D03*
X156570000Y-110660000D03*
X152180000Y-119780000D03*
X144050000Y-123060000D03*
X134570000Y-123060000D03*
X120650000Y-113230000D03*
X124840000Y-93910000D03*
X120650000Y-102830000D03*
X146300000Y-101225000D03*
X153425000Y-103425000D03*
X126410000Y-116510000D03*
X153430000Y-113980000D03*
X131830000Y-119770000D03*
X139860000Y-119780000D03*
X150370000Y-117100000D03*
X136110000Y-93590000D03*
X126820000Y-96600000D03*
X123960000Y-101620000D03*
X123970000Y-109240000D03*
X150970000Y-96830000D03*
X143600000Y-93590000D03*
X144975000Y-108125000D03*
X136600000Y-100925000D03*
X123870000Y-115510000D03*
X138610000Y-120970000D03*
X123820000Y-97940000D03*
X122770000Y-106750000D03*
X147890000Y-120960000D03*
X153490000Y-115650000D03*
X154570000Y-106750000D03*
X153520000Y-97820000D03*
X138610000Y-92430000D03*
X129330000Y-92430000D03*
X147890000Y-92430000D03*
X129340000Y-120970000D03*
X146300000Y-106725000D03*
X138450000Y-104525000D03*
X135125000Y-100950000D03*
X122200000Y-98090000D03*
X121630000Y-108000000D03*
X123970000Y-117190000D03*
X130580000Y-122040000D03*
X139860000Y-122040000D03*
X149140000Y-122040000D03*
X155010000Y-115400000D03*
X155500000Y-105500000D03*
X153260000Y-96320000D03*
X137360000Y-91560000D03*
X146630000Y-91560000D03*
X128080000Y-91560000D03*
X151675000Y-99750000D03*
X144975000Y-105350000D03*
X133825000Y-102275000D03*
D14*
X126325000Y-122325000D02*
X126977500Y-121672500D01*
X126977500Y-121672500D02*
X126977500Y-121647500D01*
X151075000Y-90445000D02*
X151075000Y-92685000D01*
X151020000Y-90390000D02*
X151075000Y-90445000D01*
X134570000Y-123060000D02*
X128390000Y-123060000D01*
X128390000Y-123060000D02*
X126977500Y-121647500D01*
X126977500Y-121647500D02*
X126830000Y-121500000D01*
X120650000Y-102830000D02*
X120650000Y-98100000D01*
X120650000Y-98100000D02*
X124840000Y-93910000D01*
X150390000Y-92010000D02*
X150395000Y-92005000D01*
X150395000Y-92005000D02*
X150390000Y-92010000D01*
X150390000Y-92010000D02*
X150390000Y-92000000D01*
X152180000Y-119780000D02*
X152190000Y-119790000D01*
X152190000Y-119790000D02*
X152180000Y-119780000D01*
X152180000Y-119780000D02*
X152180000Y-119800000D01*
X124840000Y-93910000D02*
X126520000Y-92230000D01*
X126520000Y-92230000D02*
X126520000Y-91350000D01*
X126520000Y-91350000D02*
X127370000Y-90500000D01*
X127370000Y-90500000D02*
X133100000Y-90500000D01*
X120650000Y-115320000D02*
X120650000Y-113230000D01*
X126830000Y-121500000D02*
X120650000Y-115320000D01*
X120650000Y-113230000D02*
X120650000Y-102830000D01*
X150030000Y-123060000D02*
X144050000Y-123060000D01*
X144050000Y-123060000D02*
X134570000Y-123060000D01*
X150540000Y-122550000D02*
X150030000Y-123060000D01*
X150540000Y-121440000D02*
X150540000Y-122550000D01*
X156570000Y-115410000D02*
X152180000Y-119800000D01*
X152180000Y-119800000D02*
X150540000Y-121440000D01*
X156570000Y-98180000D02*
X156570000Y-99930000D01*
X156570000Y-99930000D02*
X156570000Y-110660000D01*
X156570000Y-110660000D02*
X156570000Y-115410000D01*
X148890000Y-90500000D02*
X150390000Y-92000000D01*
X150390000Y-92000000D02*
X151075000Y-92685000D01*
X151075000Y-92685000D02*
X156570000Y-98180000D01*
X149080000Y-90500000D02*
X148890000Y-90500000D01*
X133100000Y-90500000D02*
X142320000Y-90500000D01*
X142320000Y-90500000D02*
X149080000Y-90500000D01*
X136600000Y-100925000D02*
X139775000Y-100925000D01*
X141600000Y-99100000D02*
X141600000Y-95750000D01*
X139775000Y-100925000D02*
X141600000Y-99100000D01*
D15*
X141600000Y-95750000D02*
X141600000Y-95925000D01*
D14*
X123870000Y-115510000D02*
X123875000Y-115505000D01*
X123875000Y-115505000D02*
X123870000Y-115510000D01*
X123870000Y-115510000D02*
X123870000Y-115500000D01*
X122770000Y-106750000D02*
X122770000Y-114400000D01*
X122770000Y-114400000D02*
X123870000Y-115500000D01*
X123870000Y-115500000D02*
X129340000Y-120970000D01*
X129340000Y-120970000D02*
X138610000Y-120970000D01*
X138610000Y-120970000D02*
X147880000Y-120970000D01*
X147880000Y-120970000D02*
X147890000Y-120960000D01*
X122770000Y-106750000D02*
X122770000Y-106750000D01*
X122770000Y-106750000D02*
X122770000Y-98990000D01*
X122770000Y-98990000D02*
X123820000Y-97940000D01*
X123820000Y-97940000D02*
X129330000Y-92430000D01*
X153490000Y-115650000D02*
X147890000Y-120960000D01*
X154570000Y-114570000D02*
X154570000Y-106750000D01*
X153490000Y-115650000D02*
X154570000Y-114570000D01*
X153520000Y-97820000D02*
X154570000Y-98870000D01*
X154570000Y-98870000D02*
X154570000Y-106750000D01*
X147890000Y-92430000D02*
X148130000Y-92430000D01*
X148130000Y-92430000D02*
X153520000Y-97820000D01*
X129330000Y-92430000D02*
X138610000Y-92430000D01*
X141600000Y-95750000D02*
X141600000Y-92750000D01*
X141600000Y-92750000D02*
X141920000Y-92430000D01*
X138610000Y-92430000D02*
X141920000Y-92430000D01*
X141920000Y-92430000D02*
X147890000Y-92430000D01*
M02*
