G04 #@! TF.FileFunction,Copper,L1,Top,Signal*
%FSLAX46Y46*%
G04 Gerber Fmt 4.6, Leading zero omitted, Abs format (unit mm)*
G04 Created by KiCad (PCBNEW 4.0.7-e2-6376~58~ubuntu16.04.1) date Thu Aug  2 19:36:25 2018*
%MOMM*%
%LPD*%
G01*
G04 APERTURE LIST*
%ADD10C,0.100000*%
%ADD11R,0.500000X0.500000*%
%ADD12R,0.250000X0.250000*%
%ADD13R,0.500000X0.600000*%
%ADD14C,0.600000*%
%ADD15C,0.250000*%
G04 APERTURE END LIST*
D10*
D11*
X149275000Y-104900000D03*
X148475000Y-104900000D03*
X147675000Y-104900000D03*
X146875000Y-104900000D03*
X146075000Y-104900000D03*
X146075000Y-104100000D03*
X146075000Y-103300000D03*
X146875000Y-103300000D03*
X147675000Y-103300000D03*
X148475000Y-103300000D03*
X149275000Y-103300000D03*
X149275000Y-104100000D03*
D12*
X149575000Y-104775000D03*
D13*
X151300000Y-105900000D03*
X151300000Y-104800000D03*
X151300000Y-102300000D03*
X151300000Y-103400000D03*
D14*
X152125000Y-102300000D03*
X149900000Y-106300000D03*
X146960000Y-105700000D03*
X149200000Y-102150000D03*
X144900000Y-103050000D03*
X146100000Y-102220000D03*
D15*
X152125000Y-102300000D02*
X151300000Y-102300000D01*
X151300000Y-105900000D02*
X150300000Y-105900000D01*
X150300000Y-105900000D02*
X149900000Y-106300000D01*
X149275000Y-104900000D02*
X149775000Y-104900000D01*
X150775000Y-105900000D02*
X151300000Y-105900000D01*
X149775000Y-104900000D02*
X150775000Y-105900000D01*
X149275000Y-103300000D02*
X149800000Y-103300000D01*
X149800000Y-103300000D02*
X150800000Y-102300000D01*
X150800000Y-102300000D02*
X151300000Y-102300000D01*
X149275000Y-104900000D02*
X149450000Y-104900000D01*
X149450000Y-104900000D02*
X149575000Y-104775000D01*
X148475000Y-104900000D02*
X148475000Y-104275000D01*
X148475000Y-104275000D02*
X148300000Y-104100000D01*
X147675000Y-104900000D02*
X147675000Y-104300000D01*
X147675000Y-104300000D02*
X147475000Y-104100000D01*
X146875000Y-104900000D02*
X146875000Y-104275000D01*
X146875000Y-104275000D02*
X146700000Y-104100000D01*
X151300000Y-103350000D02*
X151300000Y-104100000D01*
X149275000Y-104100000D02*
X151300000Y-104100000D01*
X151300000Y-104100000D02*
X151300000Y-104800000D01*
X146075000Y-104100000D02*
X146700000Y-104100000D01*
X146700000Y-104100000D02*
X147475000Y-104100000D01*
X147475000Y-104100000D02*
X148300000Y-104100000D01*
X148300000Y-104100000D02*
X149275000Y-104100000D01*
X146960000Y-104900000D02*
X146960000Y-105700000D01*
X148475000Y-103300000D02*
X148475000Y-102425000D01*
X148750000Y-102150000D02*
X149200000Y-102150000D01*
X148475000Y-102425000D02*
X148750000Y-102150000D01*
X146075000Y-104900000D02*
X145400000Y-104900000D01*
X144900000Y-104400000D02*
X144900000Y-103050000D01*
X145400000Y-104900000D02*
X144900000Y-104400000D01*
X147675000Y-103300000D02*
X147675000Y-102575000D01*
X147320000Y-102220000D02*
X146100000Y-102220000D01*
X147675000Y-102575000D02*
X147320000Y-102220000D01*
M02*
