G04 #@! TF.FileFunction,Legend,Top*
%FSLAX46Y46*%
G04 Gerber Fmt 4.6, Leading zero omitted, Abs format (unit mm)*
G04 Created by KiCad (PCBNEW 4.0.7-e2-6376~58~ubuntu16.04.1) date Thu Aug  2 19:36:26 2018*
%MOMM*%
%LPD*%
G01*
G04 APERTURE LIST*
%ADD10C,0.100000*%
%ADD11C,0.075000*%
%ADD12C,0.150000*%
%ADD13C,0.120000*%
G04 APERTURE END LIST*
D10*
D11*
X144675000Y-101610714D02*
X144846429Y-101610714D01*
X144760715Y-101910714D02*
X144760715Y-101610714D01*
X144989286Y-101910714D02*
X144960714Y-101896429D01*
X144946429Y-101882143D01*
X144932143Y-101853571D01*
X144932143Y-101767857D01*
X144946429Y-101739286D01*
X144960714Y-101725000D01*
X144989286Y-101710714D01*
X145032143Y-101710714D01*
X145060714Y-101725000D01*
X145075000Y-101739286D01*
X145089286Y-101767857D01*
X145089286Y-101853571D01*
X145075000Y-101882143D01*
X145060714Y-101896429D01*
X145032143Y-101910714D01*
X144989286Y-101910714D01*
X145317858Y-101753571D02*
X145217858Y-101753571D01*
X145217858Y-101910714D02*
X145217858Y-101610714D01*
X145360715Y-101610714D01*
D12*
X150202475Y-105400000D02*
G75*
G03X150202475Y-105400000I-127475J0D01*
G01*
X149275000Y-105400000D02*
X145275000Y-105400000D01*
X145275000Y-105400000D02*
X145275000Y-102800000D01*
X145275000Y-102800000D02*
X150075000Y-102800000D01*
X150075000Y-102800000D02*
X150075000Y-105400000D01*
X150075000Y-105400000D02*
X149275000Y-105400000D01*
D13*
X150830000Y-105100000D02*
X150830000Y-105600000D01*
X151770000Y-105600000D02*
X151770000Y-105100000D01*
X151770000Y-103100000D02*
X151770000Y-102600000D01*
X150830000Y-102600000D02*
X150830000Y-103100000D01*
D11*
X144771429Y-106335714D02*
X144771429Y-106578571D01*
X144785714Y-106607143D01*
X144800000Y-106621429D01*
X144828571Y-106635714D01*
X144885714Y-106635714D01*
X144914286Y-106621429D01*
X144928571Y-106607143D01*
X144942857Y-106578571D01*
X144942857Y-106335714D01*
X145242857Y-106635714D02*
X145071429Y-106635714D01*
X145157143Y-106635714D02*
X145157143Y-106335714D01*
X145128572Y-106378571D01*
X145100000Y-106407143D01*
X145071429Y-106421429D01*
X152200000Y-106632143D02*
X152185714Y-106646429D01*
X152142857Y-106660714D01*
X152114286Y-106660714D01*
X152071429Y-106646429D01*
X152042857Y-106617857D01*
X152028572Y-106589286D01*
X152014286Y-106532143D01*
X152014286Y-106489286D01*
X152028572Y-106432143D01*
X152042857Y-106403571D01*
X152071429Y-106375000D01*
X152114286Y-106360714D01*
X152142857Y-106360714D01*
X152185714Y-106375000D01*
X152200000Y-106389286D01*
X152485714Y-106660714D02*
X152314286Y-106660714D01*
X152400000Y-106660714D02*
X152400000Y-106360714D01*
X152371429Y-106403571D01*
X152342857Y-106432143D01*
X152314286Y-106446429D01*
X152200000Y-101882143D02*
X152185714Y-101896429D01*
X152142857Y-101910714D01*
X152114286Y-101910714D01*
X152071429Y-101896429D01*
X152042857Y-101867857D01*
X152028572Y-101839286D01*
X152014286Y-101782143D01*
X152014286Y-101739286D01*
X152028572Y-101682143D01*
X152042857Y-101653571D01*
X152071429Y-101625000D01*
X152114286Y-101610714D01*
X152142857Y-101610714D01*
X152185714Y-101625000D01*
X152200000Y-101639286D01*
X152314286Y-101639286D02*
X152328572Y-101625000D01*
X152357143Y-101610714D01*
X152428572Y-101610714D01*
X152457143Y-101625000D01*
X152471429Y-101639286D01*
X152485714Y-101667857D01*
X152485714Y-101696429D01*
X152471429Y-101739286D01*
X152300000Y-101910714D01*
X152485714Y-101910714D01*
M02*
