G04 #@! TF.FileFunction,Legend,Bot*
%FSLAX46Y46*%
G04 Gerber Fmt 4.6, Leading zero omitted, Abs format (unit mm)*
G04 Created by KiCad (PCBNEW 4.0.7-e2-6376~58~ubuntu16.04.1) date Thu Aug  2 08:33:30 2018*
%MOMM*%
%LPD*%
G01*
G04 APERTURE LIST*
%ADD10C,0.100000*%
%ADD11C,0.125000*%
%ADD12C,0.120000*%
%ADD13C,0.150000*%
G04 APERTURE END LIST*
D10*
D11*
X166458333Y-93380954D02*
X166458333Y-93619049D01*
X166601190Y-93333335D02*
X166101190Y-93500002D01*
X166601190Y-93666668D01*
X166601190Y-93833335D02*
X166101190Y-93833335D01*
X166458333Y-94000001D01*
X166101190Y-94166668D01*
X166601190Y-94166668D01*
X166125000Y-94666668D02*
X166101190Y-94619049D01*
X166101190Y-94547621D01*
X166125000Y-94476192D01*
X166172619Y-94428573D01*
X166220238Y-94404764D01*
X166315476Y-94380954D01*
X166386905Y-94380954D01*
X166482143Y-94404764D01*
X166529762Y-94428573D01*
X166577381Y-94476192D01*
X166601190Y-94547621D01*
X166601190Y-94595240D01*
X166577381Y-94666668D01*
X166553571Y-94690478D01*
X166386905Y-94690478D01*
X166386905Y-94595240D01*
X166315476Y-94976192D02*
X166291667Y-94928573D01*
X166267857Y-94904764D01*
X166220238Y-94880954D01*
X166196429Y-94880954D01*
X166148810Y-94904764D01*
X166125000Y-94928573D01*
X166101190Y-94976192D01*
X166101190Y-95071430D01*
X166125000Y-95119049D01*
X166148810Y-95142859D01*
X166196429Y-95166668D01*
X166220238Y-95166668D01*
X166267857Y-95142859D01*
X166291667Y-95119049D01*
X166315476Y-95071430D01*
X166315476Y-94976192D01*
X166339286Y-94928573D01*
X166363095Y-94904764D01*
X166410714Y-94880954D01*
X166505952Y-94880954D01*
X166553571Y-94904764D01*
X166577381Y-94928573D01*
X166601190Y-94976192D01*
X166601190Y-95071430D01*
X166577381Y-95119049D01*
X166553571Y-95142859D01*
X166505952Y-95166668D01*
X166410714Y-95166668D01*
X166363095Y-95142859D01*
X166339286Y-95119049D01*
X166315476Y-95071430D01*
X166315476Y-95452382D02*
X166291667Y-95404763D01*
X166267857Y-95380954D01*
X166220238Y-95357144D01*
X166196429Y-95357144D01*
X166148810Y-95380954D01*
X166125000Y-95404763D01*
X166101190Y-95452382D01*
X166101190Y-95547620D01*
X166125000Y-95595239D01*
X166148810Y-95619049D01*
X166196429Y-95642858D01*
X166220238Y-95642858D01*
X166267857Y-95619049D01*
X166291667Y-95595239D01*
X166315476Y-95547620D01*
X166315476Y-95452382D01*
X166339286Y-95404763D01*
X166363095Y-95380954D01*
X166410714Y-95357144D01*
X166505952Y-95357144D01*
X166553571Y-95380954D01*
X166577381Y-95404763D01*
X166601190Y-95452382D01*
X166601190Y-95547620D01*
X166577381Y-95595239D01*
X166553571Y-95619049D01*
X166505952Y-95642858D01*
X166410714Y-95642858D01*
X166363095Y-95619049D01*
X166339286Y-95595239D01*
X166315476Y-95547620D01*
X166101190Y-95809525D02*
X166101190Y-96119048D01*
X166291667Y-95952382D01*
X166291667Y-96023810D01*
X166315476Y-96071429D01*
X166339286Y-96095239D01*
X166386905Y-96119048D01*
X166505952Y-96119048D01*
X166553571Y-96095239D01*
X166577381Y-96071429D01*
X166601190Y-96023810D01*
X166601190Y-95880953D01*
X166577381Y-95833334D01*
X166553571Y-95809525D01*
X166101190Y-96285715D02*
X166101190Y-96595238D01*
X166291667Y-96428572D01*
X166291667Y-96500000D01*
X166315476Y-96547619D01*
X166339286Y-96571429D01*
X166386905Y-96595238D01*
X166505952Y-96595238D01*
X166553571Y-96571429D01*
X166577381Y-96547619D01*
X166601190Y-96500000D01*
X166601190Y-96357143D01*
X166577381Y-96309524D01*
X166553571Y-96285715D01*
X166101190Y-97119047D02*
X166101190Y-97404761D01*
X166601190Y-97261904D02*
X166101190Y-97261904D01*
X166601190Y-97571428D02*
X166101190Y-97571428D01*
X166601190Y-97785713D02*
X166339286Y-97785713D01*
X166291667Y-97761904D01*
X166267857Y-97714285D01*
X166267857Y-97642856D01*
X166291667Y-97595237D01*
X166315476Y-97571428D01*
X166577381Y-98214285D02*
X166601190Y-98166666D01*
X166601190Y-98071428D01*
X166577381Y-98023809D01*
X166529762Y-97999999D01*
X166339286Y-97999999D01*
X166291667Y-98023809D01*
X166267857Y-98071428D01*
X166267857Y-98166666D01*
X166291667Y-98214285D01*
X166339286Y-98238094D01*
X166386905Y-98238094D01*
X166434524Y-97999999D01*
X166601190Y-98452380D02*
X166267857Y-98452380D01*
X166363095Y-98452380D02*
X166315476Y-98476189D01*
X166291667Y-98499999D01*
X166267857Y-98547618D01*
X166267857Y-98595237D01*
X166601190Y-98761904D02*
X166267857Y-98761904D01*
X166315476Y-98761904D02*
X166291667Y-98785713D01*
X166267857Y-98833332D01*
X166267857Y-98904761D01*
X166291667Y-98952380D01*
X166339286Y-98976189D01*
X166601190Y-98976189D01*
X166339286Y-98976189D02*
X166291667Y-98999999D01*
X166267857Y-99047618D01*
X166267857Y-99119046D01*
X166291667Y-99166666D01*
X166339286Y-99190475D01*
X166601190Y-99190475D01*
X166601190Y-99642856D02*
X166339286Y-99642856D01*
X166291667Y-99619047D01*
X166267857Y-99571428D01*
X166267857Y-99476190D01*
X166291667Y-99428571D01*
X166577381Y-99642856D02*
X166601190Y-99595237D01*
X166601190Y-99476190D01*
X166577381Y-99428571D01*
X166529762Y-99404761D01*
X166482143Y-99404761D01*
X166434524Y-99428571D01*
X166410714Y-99476190D01*
X166410714Y-99595237D01*
X166386905Y-99642856D01*
X166601190Y-99952380D02*
X166577381Y-99904761D01*
X166529762Y-99880952D01*
X166101190Y-99880952D01*
X166553571Y-100809523D02*
X166577381Y-100785713D01*
X166601190Y-100714285D01*
X166601190Y-100666666D01*
X166577381Y-100595237D01*
X166529762Y-100547618D01*
X166482143Y-100523809D01*
X166386905Y-100499999D01*
X166315476Y-100499999D01*
X166220238Y-100523809D01*
X166172619Y-100547618D01*
X166125000Y-100595237D01*
X166101190Y-100666666D01*
X166101190Y-100714285D01*
X166125000Y-100785713D01*
X166148810Y-100809523D01*
X166601190Y-101238094D02*
X166339286Y-101238094D01*
X166291667Y-101214285D01*
X166267857Y-101166666D01*
X166267857Y-101071428D01*
X166291667Y-101023809D01*
X166577381Y-101238094D02*
X166601190Y-101190475D01*
X166601190Y-101071428D01*
X166577381Y-101023809D01*
X166529762Y-100999999D01*
X166482143Y-100999999D01*
X166434524Y-101023809D01*
X166410714Y-101071428D01*
X166410714Y-101190475D01*
X166386905Y-101238094D01*
X166601190Y-101476190D02*
X166267857Y-101476190D01*
X166315476Y-101476190D02*
X166291667Y-101499999D01*
X166267857Y-101547618D01*
X166267857Y-101619047D01*
X166291667Y-101666666D01*
X166339286Y-101690475D01*
X166601190Y-101690475D01*
X166339286Y-101690475D02*
X166291667Y-101714285D01*
X166267857Y-101761904D01*
X166267857Y-101833332D01*
X166291667Y-101880952D01*
X166339286Y-101904761D01*
X166601190Y-101904761D01*
X166577381Y-102333333D02*
X166601190Y-102285714D01*
X166601190Y-102190476D01*
X166577381Y-102142857D01*
X166529762Y-102119047D01*
X166339286Y-102119047D01*
X166291667Y-102142857D01*
X166267857Y-102190476D01*
X166267857Y-102285714D01*
X166291667Y-102333333D01*
X166339286Y-102357142D01*
X166386905Y-102357142D01*
X166434524Y-102119047D01*
X166601190Y-102571428D02*
X166267857Y-102571428D01*
X166363095Y-102571428D02*
X166315476Y-102595237D01*
X166291667Y-102619047D01*
X166267857Y-102666666D01*
X166267857Y-102714285D01*
X166601190Y-103095237D02*
X166339286Y-103095237D01*
X166291667Y-103071428D01*
X166267857Y-103023809D01*
X166267857Y-102928571D01*
X166291667Y-102880952D01*
X166577381Y-103095237D02*
X166601190Y-103047618D01*
X166601190Y-102928571D01*
X166577381Y-102880952D01*
X166529762Y-102857142D01*
X166482143Y-102857142D01*
X166434524Y-102880952D01*
X166410714Y-102928571D01*
X166410714Y-103047618D01*
X166386905Y-103095237D01*
D10*
X159297619Y-92576190D02*
X159297619Y-92076190D01*
X159107143Y-92076190D01*
X159059524Y-92100000D01*
X159035715Y-92123810D01*
X159011905Y-92171429D01*
X159011905Y-92242857D01*
X159035715Y-92290476D01*
X159059524Y-92314286D01*
X159107143Y-92338095D01*
X159297619Y-92338095D01*
X158797619Y-92076190D02*
X158797619Y-92480952D01*
X158773810Y-92528571D01*
X158750000Y-92552381D01*
X158702381Y-92576190D01*
X158607143Y-92576190D01*
X158559524Y-92552381D01*
X158535715Y-92528571D01*
X158511905Y-92480952D01*
X158511905Y-92076190D01*
X158035714Y-92576190D02*
X158273809Y-92576190D01*
X158273809Y-92076190D01*
X157630952Y-92576190D02*
X157869047Y-92576190D01*
X157869047Y-92076190D01*
X159630952Y-93164286D02*
X159464286Y-93164286D01*
X159392857Y-93426190D02*
X159630952Y-93426190D01*
X159630952Y-92926190D01*
X159392857Y-92926190D01*
X159178571Y-93092857D02*
X159178571Y-93426190D01*
X159178571Y-93140476D02*
X159154762Y-93116667D01*
X159107143Y-93092857D01*
X159035714Y-93092857D01*
X158988095Y-93116667D01*
X158964286Y-93164286D01*
X158964286Y-93426190D01*
X158511905Y-93426190D02*
X158511905Y-93164286D01*
X158535714Y-93116667D01*
X158583333Y-93092857D01*
X158678571Y-93092857D01*
X158726190Y-93116667D01*
X158511905Y-93402381D02*
X158559524Y-93426190D01*
X158678571Y-93426190D01*
X158726190Y-93402381D01*
X158750000Y-93354762D01*
X158750000Y-93307143D01*
X158726190Y-93259524D01*
X158678571Y-93235714D01*
X158559524Y-93235714D01*
X158511905Y-93211905D01*
X158273809Y-93426190D02*
X158273809Y-92926190D01*
X158273809Y-93116667D02*
X158226190Y-93092857D01*
X158130952Y-93092857D01*
X158083333Y-93116667D01*
X158059524Y-93140476D01*
X158035714Y-93188095D01*
X158035714Y-93330952D01*
X158059524Y-93378571D01*
X158083333Y-93402381D01*
X158130952Y-93426190D01*
X158226190Y-93426190D01*
X158273809Y-93402381D01*
X157750000Y-93426190D02*
X157797619Y-93402381D01*
X157821428Y-93354762D01*
X157821428Y-92926190D01*
X157369047Y-93402381D02*
X157416666Y-93426190D01*
X157511904Y-93426190D01*
X157559523Y-93402381D01*
X157583333Y-93354762D01*
X157583333Y-93164286D01*
X157559523Y-93116667D01*
X157511904Y-93092857D01*
X157416666Y-93092857D01*
X157369047Y-93116667D01*
X157345238Y-93164286D01*
X157345238Y-93211905D01*
X157583333Y-93259524D01*
X158022620Y-103848810D02*
X158022620Y-104348810D01*
X158260715Y-103848810D02*
X158260715Y-104348810D01*
X158546429Y-103848810D01*
X158546429Y-104348810D01*
X158713096Y-104348810D02*
X158998810Y-104348810D01*
X158855953Y-103848810D02*
X158855953Y-104348810D01*
X157344048Y-103260714D02*
X157510714Y-103260714D01*
X157582143Y-102998810D02*
X157344048Y-102998810D01*
X157344048Y-103498810D01*
X157582143Y-103498810D01*
X157796429Y-103332143D02*
X157796429Y-102998810D01*
X157796429Y-103284524D02*
X157820238Y-103308333D01*
X157867857Y-103332143D01*
X157939286Y-103332143D01*
X157986905Y-103308333D01*
X158010714Y-103260714D01*
X158010714Y-102998810D01*
X158463095Y-102998810D02*
X158463095Y-103260714D01*
X158439286Y-103308333D01*
X158391667Y-103332143D01*
X158296429Y-103332143D01*
X158248810Y-103308333D01*
X158463095Y-103022619D02*
X158415476Y-102998810D01*
X158296429Y-102998810D01*
X158248810Y-103022619D01*
X158225000Y-103070238D01*
X158225000Y-103117857D01*
X158248810Y-103165476D01*
X158296429Y-103189286D01*
X158415476Y-103189286D01*
X158463095Y-103213095D01*
X158701191Y-102998810D02*
X158701191Y-103498810D01*
X158701191Y-103308333D02*
X158748810Y-103332143D01*
X158844048Y-103332143D01*
X158891667Y-103308333D01*
X158915476Y-103284524D01*
X158939286Y-103236905D01*
X158939286Y-103094048D01*
X158915476Y-103046429D01*
X158891667Y-103022619D01*
X158844048Y-102998810D01*
X158748810Y-102998810D01*
X158701191Y-103022619D01*
X159225000Y-102998810D02*
X159177381Y-103022619D01*
X159153572Y-103070238D01*
X159153572Y-103498810D01*
X159605953Y-103022619D02*
X159558334Y-102998810D01*
X159463096Y-102998810D01*
X159415477Y-103022619D01*
X159391667Y-103070238D01*
X159391667Y-103260714D01*
X159415477Y-103308333D01*
X159463096Y-103332143D01*
X159558334Y-103332143D01*
X159605953Y-103308333D01*
X159629762Y-103260714D01*
X159629762Y-103213095D01*
X159391667Y-103165476D01*
D12*
X164525000Y-92450000D02*
X163825000Y-92450000D01*
X163825000Y-93650000D02*
X164525000Y-93650000D01*
X164525000Y-102175000D02*
X163825000Y-102175000D01*
X163825000Y-103375000D02*
X164525000Y-103375000D01*
X164525000Y-94775000D02*
X163825000Y-94775000D01*
X163825000Y-95975000D02*
X164525000Y-95975000D01*
X157155000Y-93910000D02*
X159695000Y-93910000D01*
X159695000Y-95690000D02*
X157155000Y-95690000D01*
X159695000Y-95690000D02*
X159695000Y-93910000D01*
X157155000Y-93910000D02*
X157155000Y-95690000D01*
X159695000Y-102490000D02*
X157155000Y-102490000D01*
X157155000Y-100710000D02*
X159695000Y-100710000D01*
X157155000Y-100710000D02*
X157155000Y-102490000D01*
X159695000Y-102490000D02*
X159695000Y-100710000D01*
X165455000Y-98700000D02*
X165455000Y-99200000D01*
X164395000Y-99200000D02*
X164395000Y-98700000D01*
D13*
X152625000Y-91375000D02*
X156025000Y-91375000D01*
X156025000Y-91375000D02*
X156025000Y-104775000D01*
X156025000Y-104775000D02*
X156025000Y-104875000D01*
X156025000Y-104875000D02*
X152525000Y-104875000D01*
D10*
X162108333Y-93228571D02*
X162132143Y-93252381D01*
X162203571Y-93276190D01*
X162251190Y-93276190D01*
X162322619Y-93252381D01*
X162370238Y-93204762D01*
X162394047Y-93157143D01*
X162417857Y-93061905D01*
X162417857Y-92990476D01*
X162394047Y-92895238D01*
X162370238Y-92847619D01*
X162322619Y-92800000D01*
X162251190Y-92776190D01*
X162203571Y-92776190D01*
X162132143Y-92800000D01*
X162108333Y-92823810D01*
X161632143Y-93276190D02*
X161917857Y-93276190D01*
X161775000Y-93276190D02*
X161775000Y-92776190D01*
X161822619Y-92847619D01*
X161870238Y-92895238D01*
X161917857Y-92919048D01*
X162133333Y-102928571D02*
X162157143Y-102952381D01*
X162228571Y-102976190D01*
X162276190Y-102976190D01*
X162347619Y-102952381D01*
X162395238Y-102904762D01*
X162419047Y-102857143D01*
X162442857Y-102761905D01*
X162442857Y-102690476D01*
X162419047Y-102595238D01*
X162395238Y-102547619D01*
X162347619Y-102500000D01*
X162276190Y-102476190D01*
X162228571Y-102476190D01*
X162157143Y-102500000D01*
X162133333Y-102523810D01*
X161942857Y-102523810D02*
X161919047Y-102500000D01*
X161871428Y-102476190D01*
X161752381Y-102476190D01*
X161704762Y-102500000D01*
X161680952Y-102523810D01*
X161657143Y-102571429D01*
X161657143Y-102619048D01*
X161680952Y-102690476D01*
X161966666Y-102976190D01*
X161657143Y-102976190D01*
X162083333Y-95578571D02*
X162107143Y-95602381D01*
X162178571Y-95626190D01*
X162226190Y-95626190D01*
X162297619Y-95602381D01*
X162345238Y-95554762D01*
X162369047Y-95507143D01*
X162392857Y-95411905D01*
X162392857Y-95340476D01*
X162369047Y-95245238D01*
X162345238Y-95197619D01*
X162297619Y-95150000D01*
X162226190Y-95126190D01*
X162178571Y-95126190D01*
X162107143Y-95150000D01*
X162083333Y-95173810D01*
X161916666Y-95126190D02*
X161607143Y-95126190D01*
X161773809Y-95316667D01*
X161702381Y-95316667D01*
X161654762Y-95340476D01*
X161630952Y-95364286D01*
X161607143Y-95411905D01*
X161607143Y-95530952D01*
X161630952Y-95578571D01*
X161654762Y-95602381D01*
X161702381Y-95626190D01*
X161845238Y-95626190D01*
X161892857Y-95602381D01*
X161916666Y-95578571D01*
X164176190Y-98791667D02*
X163938095Y-98625000D01*
X164176190Y-98505953D02*
X163676190Y-98505953D01*
X163676190Y-98696429D01*
X163700000Y-98744048D01*
X163723810Y-98767857D01*
X163771429Y-98791667D01*
X163842857Y-98791667D01*
X163890476Y-98767857D01*
X163914286Y-98744048D01*
X163938095Y-98696429D01*
X163938095Y-98505953D01*
X163842857Y-99220238D02*
X164176190Y-99220238D01*
X163652381Y-99101191D02*
X164009524Y-98982143D01*
X164009524Y-99291667D01*
M02*
