G04 #@! TF.FileFunction,Copper,L2,Bot,Signal*
%FSLAX46Y46*%
G04 Gerber Fmt 4.6, Leading zero omitted, Abs format (unit mm)*
G04 Created by KiCad (PCBNEW 4.0.7-e2-6376~58~ubuntu16.04.1) date Thu Aug  2 08:33:30 2018*
%MOMM*%
%LPD*%
G01*
G04 APERTURE LIST*
%ADD10C,0.100000*%
%ADD11R,0.800000X0.750000*%
%ADD12R,0.970000X1.270000*%
%ADD13R,0.600000X0.400000*%
%ADD14R,3.000000X1.250000*%
%ADD15C,0.600000*%
%ADD16C,0.300000*%
%ADD17C,0.351000*%
G04 APERTURE END LIST*
D10*
D11*
X164925000Y-93050000D03*
X163425000Y-93050000D03*
X164925000Y-102775000D03*
X163425000Y-102775000D03*
X164925000Y-95375000D03*
X163425000Y-95375000D03*
D12*
X157785000Y-94800000D03*
X159065000Y-94800000D03*
X159065000Y-101600000D03*
X157785000Y-101600000D03*
D13*
X164925000Y-99400000D03*
X164925000Y-98500000D03*
D14*
X154025000Y-103675000D03*
X154025000Y-100925000D03*
X154025000Y-98175000D03*
X154025000Y-95425000D03*
X154025000Y-92675000D03*
D15*
X160725000Y-99450000D03*
X154800000Y-103675000D03*
X155525000Y-92675000D03*
X162000000Y-94850000D03*
X156250000Y-99625000D03*
X160325000Y-98175000D03*
X155525000Y-98175000D03*
X155525000Y-95425000D03*
X162975000Y-99450000D03*
X163425000Y-96900000D03*
D16*
X164925000Y-98500000D02*
X162375000Y-98500000D01*
X162375000Y-98500000D02*
X161425000Y-99450000D01*
X160725000Y-99450000D02*
X161425000Y-99450000D01*
X164925000Y-98500000D02*
X164925000Y-95375000D01*
X164925000Y-93050000D02*
X164925000Y-95375000D01*
X153175000Y-103675000D02*
X154800000Y-103675000D01*
X155525000Y-92675000D02*
X154025000Y-92675000D01*
X163425000Y-93050000D02*
X162775000Y-93050000D01*
X162000000Y-93825000D02*
X162000000Y-94850000D01*
X162775000Y-93050000D02*
X162000000Y-93825000D01*
X164925000Y-99400000D02*
X164925000Y-102775000D01*
X156250000Y-99625000D02*
X157275000Y-99625000D01*
X157275000Y-99625000D02*
X157785000Y-99115000D01*
X157785000Y-99115000D02*
X157785000Y-94800000D01*
X159065000Y-101600000D02*
X159065000Y-99435000D01*
X159065000Y-99435000D02*
X160325000Y-98175000D01*
X159065000Y-94800000D02*
X160000000Y-94800000D01*
X160000000Y-94800000D02*
X160325000Y-95125000D01*
X160325000Y-95125000D02*
X160325000Y-98175000D01*
X157785000Y-101600000D02*
X156825000Y-101600000D01*
X156150000Y-100925000D02*
X154025000Y-100925000D01*
X156825000Y-101600000D02*
X156150000Y-100925000D01*
X157785000Y-101600000D02*
X157785000Y-101810000D01*
X155325000Y-100925000D02*
X153175000Y-100925000D01*
X155525000Y-98175000D02*
X154025000Y-98175000D01*
X154550000Y-98175000D02*
X153175000Y-98175000D01*
X154325000Y-98175000D02*
X153175000Y-98175000D01*
X155525000Y-95425000D02*
X154025000Y-95425000D01*
X163425000Y-102775000D02*
X163425000Y-99900000D01*
X163425000Y-99900000D02*
X162975000Y-99450000D01*
X163425000Y-95375000D02*
X163425000Y-96900000D01*
D17*
G36*
X166649500Y-104524500D02*
X156171824Y-104524500D01*
X156208500Y-104435957D01*
X156208500Y-103924375D01*
X156037625Y-103753500D01*
X154103500Y-103753500D01*
X154103500Y-103773500D01*
X153946500Y-103773500D01*
X153946500Y-103753500D01*
X153926500Y-103753500D01*
X153926500Y-103596500D01*
X153946500Y-103596500D01*
X153946500Y-102537375D01*
X154103500Y-102537375D01*
X154103500Y-103596500D01*
X156037625Y-103596500D01*
X156208500Y-103425625D01*
X156208500Y-102914043D01*
X156104443Y-102662828D01*
X155912171Y-102470556D01*
X155660956Y-102366500D01*
X154274375Y-102366500D01*
X154103500Y-102537375D01*
X153946500Y-102537375D01*
X153775625Y-102366500D01*
X152975500Y-102366500D01*
X152975500Y-102034815D01*
X155525000Y-102034815D01*
X155701210Y-102001659D01*
X155863047Y-101897519D01*
X155971618Y-101738620D01*
X155989707Y-101649297D01*
X156382705Y-102042295D01*
X156585632Y-102177887D01*
X156815185Y-102223548D01*
X156815185Y-102235000D01*
X156848341Y-102411210D01*
X156952481Y-102573047D01*
X157111380Y-102681618D01*
X157300000Y-102719815D01*
X158270000Y-102719815D01*
X158430692Y-102689579D01*
X158580000Y-102719815D01*
X159550000Y-102719815D01*
X159726210Y-102686659D01*
X159888047Y-102582519D01*
X159996618Y-102423620D01*
X160034815Y-102235000D01*
X160034815Y-100965000D01*
X160001659Y-100788790D01*
X159897519Y-100626953D01*
X159738620Y-100518382D01*
X159690500Y-100508637D01*
X159690500Y-99694090D01*
X159781010Y-99603580D01*
X162199366Y-99603580D01*
X162317180Y-99888712D01*
X162535141Y-100107054D01*
X162799500Y-100216825D01*
X162799500Y-101980058D01*
X162686953Y-102052481D01*
X162578382Y-102211380D01*
X162540185Y-102400000D01*
X162540185Y-103150000D01*
X162573341Y-103326210D01*
X162677481Y-103488047D01*
X162836380Y-103596618D01*
X163025000Y-103634815D01*
X163825000Y-103634815D01*
X164001210Y-103601659D01*
X164163047Y-103497519D01*
X164173619Y-103482046D01*
X164177481Y-103488047D01*
X164336380Y-103596618D01*
X164525000Y-103634815D01*
X165325000Y-103634815D01*
X165501210Y-103601659D01*
X165663047Y-103497519D01*
X165771618Y-103338620D01*
X165809815Y-103150000D01*
X165809815Y-102400000D01*
X165776659Y-102223790D01*
X165672519Y-102061953D01*
X165550500Y-101978581D01*
X165550500Y-99955593D01*
X165563047Y-99947519D01*
X165671618Y-99788620D01*
X165709815Y-99600000D01*
X165709815Y-99200000D01*
X165706933Y-99184682D01*
X165804443Y-99087172D01*
X165908500Y-98835957D01*
X165908500Y-98749375D01*
X165737625Y-98578500D01*
X165003500Y-98578500D01*
X165003500Y-98598500D01*
X164846500Y-98598500D01*
X164846500Y-98578500D01*
X164112375Y-98578500D01*
X163941500Y-98749375D01*
X163941500Y-98835957D01*
X164045557Y-99087172D01*
X164143250Y-99184865D01*
X164140185Y-99200000D01*
X164140185Y-99600000D01*
X164173341Y-99776210D01*
X164277481Y-99938047D01*
X164299500Y-99953092D01*
X164299500Y-101980058D01*
X164186953Y-102052481D01*
X164176381Y-102067954D01*
X164172519Y-102061953D01*
X164050500Y-101978581D01*
X164050500Y-99900000D01*
X164002887Y-99660632D01*
X163867295Y-99457705D01*
X163750595Y-99341005D01*
X163750634Y-99296420D01*
X163632820Y-99011288D01*
X163414859Y-98792946D01*
X163129933Y-98674635D01*
X162821420Y-98674366D01*
X162536288Y-98792180D01*
X162317946Y-99010141D01*
X162199635Y-99295067D01*
X162199366Y-99603580D01*
X159781010Y-99603580D01*
X160433995Y-98950595D01*
X160478580Y-98950634D01*
X160763712Y-98832820D01*
X160982054Y-98614859D01*
X161100365Y-98329933D01*
X161100509Y-98164043D01*
X163941500Y-98164043D01*
X163941500Y-98250625D01*
X164112375Y-98421500D01*
X164846500Y-98421500D01*
X164846500Y-97787375D01*
X165003500Y-97787375D01*
X165003500Y-98421500D01*
X165737625Y-98421500D01*
X165908500Y-98250625D01*
X165908500Y-98164043D01*
X165804443Y-97912828D01*
X165612171Y-97720556D01*
X165360956Y-97616500D01*
X165174375Y-97616500D01*
X165003500Y-97787375D01*
X164846500Y-97787375D01*
X164675625Y-97616500D01*
X164489044Y-97616500D01*
X164237829Y-97720556D01*
X164045557Y-97912828D01*
X163941500Y-98164043D01*
X161100509Y-98164043D01*
X161100634Y-98021420D01*
X160982820Y-97736288D01*
X160950500Y-97703912D01*
X160950500Y-95125000D01*
X160926349Y-95003580D01*
X161224366Y-95003580D01*
X161342180Y-95288712D01*
X161560141Y-95507054D01*
X161845067Y-95625365D01*
X162153580Y-95625634D01*
X162438712Y-95507820D01*
X162540185Y-95406524D01*
X162540185Y-95750000D01*
X162573341Y-95926210D01*
X162677481Y-96088047D01*
X162799500Y-96171419D01*
X162799500Y-96428642D01*
X162767946Y-96460141D01*
X162649635Y-96745067D01*
X162649366Y-97053580D01*
X162767180Y-97338712D01*
X162985141Y-97557054D01*
X163270067Y-97675365D01*
X163578580Y-97675634D01*
X163863712Y-97557820D01*
X164082054Y-97339859D01*
X164200365Y-97054933D01*
X164200634Y-96746420D01*
X164082820Y-96461288D01*
X164050500Y-96428912D01*
X164050500Y-96242115D01*
X164137828Y-96329443D01*
X164389043Y-96433500D01*
X164675625Y-96433500D01*
X164846500Y-96262625D01*
X164846500Y-95453500D01*
X165003500Y-95453500D01*
X165003500Y-96262625D01*
X165174375Y-96433500D01*
X165460957Y-96433500D01*
X165712172Y-96329443D01*
X165904444Y-96137171D01*
X166008500Y-95885956D01*
X166008500Y-95624375D01*
X165837625Y-95453500D01*
X165003500Y-95453500D01*
X164846500Y-95453500D01*
X164826500Y-95453500D01*
X164826500Y-95296500D01*
X164846500Y-95296500D01*
X164846500Y-94487375D01*
X165003500Y-94487375D01*
X165003500Y-95296500D01*
X165837625Y-95296500D01*
X166008500Y-95125625D01*
X166008500Y-94864044D01*
X165904444Y-94612829D01*
X165712172Y-94420557D01*
X165460957Y-94316500D01*
X165174375Y-94316500D01*
X165003500Y-94487375D01*
X164846500Y-94487375D01*
X164675625Y-94316500D01*
X164389043Y-94316500D01*
X164137828Y-94420557D01*
X164006454Y-94551931D01*
X163825000Y-94515185D01*
X163025000Y-94515185D01*
X162848790Y-94548341D01*
X162742666Y-94616631D01*
X162657820Y-94411288D01*
X162625500Y-94378912D01*
X162625500Y-94084090D01*
X162837704Y-93871886D01*
X163025000Y-93909815D01*
X163825000Y-93909815D01*
X164001210Y-93876659D01*
X164006585Y-93873200D01*
X164137828Y-94004443D01*
X164389043Y-94108500D01*
X164675625Y-94108500D01*
X164846500Y-93937625D01*
X164846500Y-93128500D01*
X165003500Y-93128500D01*
X165003500Y-93937625D01*
X165174375Y-94108500D01*
X165460957Y-94108500D01*
X165712172Y-94004443D01*
X165904444Y-93812171D01*
X166008500Y-93560956D01*
X166008500Y-93299375D01*
X165837625Y-93128500D01*
X165003500Y-93128500D01*
X164846500Y-93128500D01*
X164826500Y-93128500D01*
X164826500Y-92971500D01*
X164846500Y-92971500D01*
X164846500Y-92162375D01*
X165003500Y-92162375D01*
X165003500Y-92971500D01*
X165837625Y-92971500D01*
X166008500Y-92800625D01*
X166008500Y-92539044D01*
X165904444Y-92287829D01*
X165712172Y-92095557D01*
X165460957Y-91991500D01*
X165174375Y-91991500D01*
X165003500Y-92162375D01*
X164846500Y-92162375D01*
X164675625Y-91991500D01*
X164389043Y-91991500D01*
X164137828Y-92095557D01*
X164006454Y-92226931D01*
X163825000Y-92190185D01*
X163025000Y-92190185D01*
X162848790Y-92223341D01*
X162686953Y-92327481D01*
X162596388Y-92460028D01*
X162535631Y-92472113D01*
X162332705Y-92607704D01*
X161557705Y-93382705D01*
X161422113Y-93585631D01*
X161390091Y-93746618D01*
X161374500Y-93825000D01*
X161374500Y-94378642D01*
X161342946Y-94410141D01*
X161224635Y-94695067D01*
X161224366Y-95003580D01*
X160926349Y-95003580D01*
X160902887Y-94885632D01*
X160843740Y-94797113D01*
X160767295Y-94682704D01*
X160442295Y-94357705D01*
X160239369Y-94222113D01*
X160034815Y-94181425D01*
X160034815Y-94165000D01*
X160001659Y-93988790D01*
X159897519Y-93826953D01*
X159738620Y-93718382D01*
X159550000Y-93680185D01*
X158580000Y-93680185D01*
X158419308Y-93710421D01*
X158270000Y-93680185D01*
X157300000Y-93680185D01*
X157123790Y-93713341D01*
X156961953Y-93817481D01*
X156853382Y-93976380D01*
X156815185Y-94165000D01*
X156815185Y-95435000D01*
X156848341Y-95611210D01*
X156952481Y-95773047D01*
X157111380Y-95881618D01*
X157159500Y-95891363D01*
X157159500Y-98855910D01*
X157015910Y-98999500D01*
X156721358Y-98999500D01*
X156689859Y-98967946D01*
X156404933Y-98849635D01*
X156096420Y-98849366D01*
X155990997Y-98892926D01*
X156009815Y-98800000D01*
X156009815Y-98786797D01*
X156182054Y-98614859D01*
X156300365Y-98329933D01*
X156300634Y-98021420D01*
X156182820Y-97736288D01*
X156009815Y-97562981D01*
X156009815Y-97550000D01*
X155976659Y-97373790D01*
X155872519Y-97211953D01*
X155713620Y-97103382D01*
X155525000Y-97065185D01*
X152975500Y-97065185D01*
X152975500Y-96534815D01*
X155525000Y-96534815D01*
X155701210Y-96501659D01*
X155863047Y-96397519D01*
X155971618Y-96238620D01*
X156009815Y-96050000D01*
X156009815Y-96036797D01*
X156182054Y-95864859D01*
X156300365Y-95579933D01*
X156300634Y-95271420D01*
X156182820Y-94986288D01*
X156009815Y-94812981D01*
X156009815Y-94800000D01*
X155976659Y-94623790D01*
X155872519Y-94461953D01*
X155713620Y-94353382D01*
X155525000Y-94315185D01*
X152975500Y-94315185D01*
X152975500Y-93784815D01*
X155525000Y-93784815D01*
X155701210Y-93751659D01*
X155863047Y-93647519D01*
X155971618Y-93488620D01*
X156009815Y-93300000D01*
X156009815Y-93286797D01*
X156182054Y-93114859D01*
X156300365Y-92829933D01*
X156300634Y-92521420D01*
X156182820Y-92236288D01*
X156009815Y-92062981D01*
X156009815Y-92050000D01*
X155976659Y-91873790D01*
X155897323Y-91750500D01*
X166649500Y-91750500D01*
X166649500Y-104524500D01*
X166649500Y-104524500D01*
G37*
X166649500Y-104524500D02*
X156171824Y-104524500D01*
X156208500Y-104435957D01*
X156208500Y-103924375D01*
X156037625Y-103753500D01*
X154103500Y-103753500D01*
X154103500Y-103773500D01*
X153946500Y-103773500D01*
X153946500Y-103753500D01*
X153926500Y-103753500D01*
X153926500Y-103596500D01*
X153946500Y-103596500D01*
X153946500Y-102537375D01*
X154103500Y-102537375D01*
X154103500Y-103596500D01*
X156037625Y-103596500D01*
X156208500Y-103425625D01*
X156208500Y-102914043D01*
X156104443Y-102662828D01*
X155912171Y-102470556D01*
X155660956Y-102366500D01*
X154274375Y-102366500D01*
X154103500Y-102537375D01*
X153946500Y-102537375D01*
X153775625Y-102366500D01*
X152975500Y-102366500D01*
X152975500Y-102034815D01*
X155525000Y-102034815D01*
X155701210Y-102001659D01*
X155863047Y-101897519D01*
X155971618Y-101738620D01*
X155989707Y-101649297D01*
X156382705Y-102042295D01*
X156585632Y-102177887D01*
X156815185Y-102223548D01*
X156815185Y-102235000D01*
X156848341Y-102411210D01*
X156952481Y-102573047D01*
X157111380Y-102681618D01*
X157300000Y-102719815D01*
X158270000Y-102719815D01*
X158430692Y-102689579D01*
X158580000Y-102719815D01*
X159550000Y-102719815D01*
X159726210Y-102686659D01*
X159888047Y-102582519D01*
X159996618Y-102423620D01*
X160034815Y-102235000D01*
X160034815Y-100965000D01*
X160001659Y-100788790D01*
X159897519Y-100626953D01*
X159738620Y-100518382D01*
X159690500Y-100508637D01*
X159690500Y-99694090D01*
X159781010Y-99603580D01*
X162199366Y-99603580D01*
X162317180Y-99888712D01*
X162535141Y-100107054D01*
X162799500Y-100216825D01*
X162799500Y-101980058D01*
X162686953Y-102052481D01*
X162578382Y-102211380D01*
X162540185Y-102400000D01*
X162540185Y-103150000D01*
X162573341Y-103326210D01*
X162677481Y-103488047D01*
X162836380Y-103596618D01*
X163025000Y-103634815D01*
X163825000Y-103634815D01*
X164001210Y-103601659D01*
X164163047Y-103497519D01*
X164173619Y-103482046D01*
X164177481Y-103488047D01*
X164336380Y-103596618D01*
X164525000Y-103634815D01*
X165325000Y-103634815D01*
X165501210Y-103601659D01*
X165663047Y-103497519D01*
X165771618Y-103338620D01*
X165809815Y-103150000D01*
X165809815Y-102400000D01*
X165776659Y-102223790D01*
X165672519Y-102061953D01*
X165550500Y-101978581D01*
X165550500Y-99955593D01*
X165563047Y-99947519D01*
X165671618Y-99788620D01*
X165709815Y-99600000D01*
X165709815Y-99200000D01*
X165706933Y-99184682D01*
X165804443Y-99087172D01*
X165908500Y-98835957D01*
X165908500Y-98749375D01*
X165737625Y-98578500D01*
X165003500Y-98578500D01*
X165003500Y-98598500D01*
X164846500Y-98598500D01*
X164846500Y-98578500D01*
X164112375Y-98578500D01*
X163941500Y-98749375D01*
X163941500Y-98835957D01*
X164045557Y-99087172D01*
X164143250Y-99184865D01*
X164140185Y-99200000D01*
X164140185Y-99600000D01*
X164173341Y-99776210D01*
X164277481Y-99938047D01*
X164299500Y-99953092D01*
X164299500Y-101980058D01*
X164186953Y-102052481D01*
X164176381Y-102067954D01*
X164172519Y-102061953D01*
X164050500Y-101978581D01*
X164050500Y-99900000D01*
X164002887Y-99660632D01*
X163867295Y-99457705D01*
X163750595Y-99341005D01*
X163750634Y-99296420D01*
X163632820Y-99011288D01*
X163414859Y-98792946D01*
X163129933Y-98674635D01*
X162821420Y-98674366D01*
X162536288Y-98792180D01*
X162317946Y-99010141D01*
X162199635Y-99295067D01*
X162199366Y-99603580D01*
X159781010Y-99603580D01*
X160433995Y-98950595D01*
X160478580Y-98950634D01*
X160763712Y-98832820D01*
X160982054Y-98614859D01*
X161100365Y-98329933D01*
X161100509Y-98164043D01*
X163941500Y-98164043D01*
X163941500Y-98250625D01*
X164112375Y-98421500D01*
X164846500Y-98421500D01*
X164846500Y-97787375D01*
X165003500Y-97787375D01*
X165003500Y-98421500D01*
X165737625Y-98421500D01*
X165908500Y-98250625D01*
X165908500Y-98164043D01*
X165804443Y-97912828D01*
X165612171Y-97720556D01*
X165360956Y-97616500D01*
X165174375Y-97616500D01*
X165003500Y-97787375D01*
X164846500Y-97787375D01*
X164675625Y-97616500D01*
X164489044Y-97616500D01*
X164237829Y-97720556D01*
X164045557Y-97912828D01*
X163941500Y-98164043D01*
X161100509Y-98164043D01*
X161100634Y-98021420D01*
X160982820Y-97736288D01*
X160950500Y-97703912D01*
X160950500Y-95125000D01*
X160926349Y-95003580D01*
X161224366Y-95003580D01*
X161342180Y-95288712D01*
X161560141Y-95507054D01*
X161845067Y-95625365D01*
X162153580Y-95625634D01*
X162438712Y-95507820D01*
X162540185Y-95406524D01*
X162540185Y-95750000D01*
X162573341Y-95926210D01*
X162677481Y-96088047D01*
X162799500Y-96171419D01*
X162799500Y-96428642D01*
X162767946Y-96460141D01*
X162649635Y-96745067D01*
X162649366Y-97053580D01*
X162767180Y-97338712D01*
X162985141Y-97557054D01*
X163270067Y-97675365D01*
X163578580Y-97675634D01*
X163863712Y-97557820D01*
X164082054Y-97339859D01*
X164200365Y-97054933D01*
X164200634Y-96746420D01*
X164082820Y-96461288D01*
X164050500Y-96428912D01*
X164050500Y-96242115D01*
X164137828Y-96329443D01*
X164389043Y-96433500D01*
X164675625Y-96433500D01*
X164846500Y-96262625D01*
X164846500Y-95453500D01*
X165003500Y-95453500D01*
X165003500Y-96262625D01*
X165174375Y-96433500D01*
X165460957Y-96433500D01*
X165712172Y-96329443D01*
X165904444Y-96137171D01*
X166008500Y-95885956D01*
X166008500Y-95624375D01*
X165837625Y-95453500D01*
X165003500Y-95453500D01*
X164846500Y-95453500D01*
X164826500Y-95453500D01*
X164826500Y-95296500D01*
X164846500Y-95296500D01*
X164846500Y-94487375D01*
X165003500Y-94487375D01*
X165003500Y-95296500D01*
X165837625Y-95296500D01*
X166008500Y-95125625D01*
X166008500Y-94864044D01*
X165904444Y-94612829D01*
X165712172Y-94420557D01*
X165460957Y-94316500D01*
X165174375Y-94316500D01*
X165003500Y-94487375D01*
X164846500Y-94487375D01*
X164675625Y-94316500D01*
X164389043Y-94316500D01*
X164137828Y-94420557D01*
X164006454Y-94551931D01*
X163825000Y-94515185D01*
X163025000Y-94515185D01*
X162848790Y-94548341D01*
X162742666Y-94616631D01*
X162657820Y-94411288D01*
X162625500Y-94378912D01*
X162625500Y-94084090D01*
X162837704Y-93871886D01*
X163025000Y-93909815D01*
X163825000Y-93909815D01*
X164001210Y-93876659D01*
X164006585Y-93873200D01*
X164137828Y-94004443D01*
X164389043Y-94108500D01*
X164675625Y-94108500D01*
X164846500Y-93937625D01*
X164846500Y-93128500D01*
X165003500Y-93128500D01*
X165003500Y-93937625D01*
X165174375Y-94108500D01*
X165460957Y-94108500D01*
X165712172Y-94004443D01*
X165904444Y-93812171D01*
X166008500Y-93560956D01*
X166008500Y-93299375D01*
X165837625Y-93128500D01*
X165003500Y-93128500D01*
X164846500Y-93128500D01*
X164826500Y-93128500D01*
X164826500Y-92971500D01*
X164846500Y-92971500D01*
X164846500Y-92162375D01*
X165003500Y-92162375D01*
X165003500Y-92971500D01*
X165837625Y-92971500D01*
X166008500Y-92800625D01*
X166008500Y-92539044D01*
X165904444Y-92287829D01*
X165712172Y-92095557D01*
X165460957Y-91991500D01*
X165174375Y-91991500D01*
X165003500Y-92162375D01*
X164846500Y-92162375D01*
X164675625Y-91991500D01*
X164389043Y-91991500D01*
X164137828Y-92095557D01*
X164006454Y-92226931D01*
X163825000Y-92190185D01*
X163025000Y-92190185D01*
X162848790Y-92223341D01*
X162686953Y-92327481D01*
X162596388Y-92460028D01*
X162535631Y-92472113D01*
X162332705Y-92607704D01*
X161557705Y-93382705D01*
X161422113Y-93585631D01*
X161390091Y-93746618D01*
X161374500Y-93825000D01*
X161374500Y-94378642D01*
X161342946Y-94410141D01*
X161224635Y-94695067D01*
X161224366Y-95003580D01*
X160926349Y-95003580D01*
X160902887Y-94885632D01*
X160843740Y-94797113D01*
X160767295Y-94682704D01*
X160442295Y-94357705D01*
X160239369Y-94222113D01*
X160034815Y-94181425D01*
X160034815Y-94165000D01*
X160001659Y-93988790D01*
X159897519Y-93826953D01*
X159738620Y-93718382D01*
X159550000Y-93680185D01*
X158580000Y-93680185D01*
X158419308Y-93710421D01*
X158270000Y-93680185D01*
X157300000Y-93680185D01*
X157123790Y-93713341D01*
X156961953Y-93817481D01*
X156853382Y-93976380D01*
X156815185Y-94165000D01*
X156815185Y-95435000D01*
X156848341Y-95611210D01*
X156952481Y-95773047D01*
X157111380Y-95881618D01*
X157159500Y-95891363D01*
X157159500Y-98855910D01*
X157015910Y-98999500D01*
X156721358Y-98999500D01*
X156689859Y-98967946D01*
X156404933Y-98849635D01*
X156096420Y-98849366D01*
X155990997Y-98892926D01*
X156009815Y-98800000D01*
X156009815Y-98786797D01*
X156182054Y-98614859D01*
X156300365Y-98329933D01*
X156300634Y-98021420D01*
X156182820Y-97736288D01*
X156009815Y-97562981D01*
X156009815Y-97550000D01*
X155976659Y-97373790D01*
X155872519Y-97211953D01*
X155713620Y-97103382D01*
X155525000Y-97065185D01*
X152975500Y-97065185D01*
X152975500Y-96534815D01*
X155525000Y-96534815D01*
X155701210Y-96501659D01*
X155863047Y-96397519D01*
X155971618Y-96238620D01*
X156009815Y-96050000D01*
X156009815Y-96036797D01*
X156182054Y-95864859D01*
X156300365Y-95579933D01*
X156300634Y-95271420D01*
X156182820Y-94986288D01*
X156009815Y-94812981D01*
X156009815Y-94800000D01*
X155976659Y-94623790D01*
X155872519Y-94461953D01*
X155713620Y-94353382D01*
X155525000Y-94315185D01*
X152975500Y-94315185D01*
X152975500Y-93784815D01*
X155525000Y-93784815D01*
X155701210Y-93751659D01*
X155863047Y-93647519D01*
X155971618Y-93488620D01*
X156009815Y-93300000D01*
X156009815Y-93286797D01*
X156182054Y-93114859D01*
X156300365Y-92829933D01*
X156300634Y-92521420D01*
X156182820Y-92236288D01*
X156009815Y-92062981D01*
X156009815Y-92050000D01*
X155976659Y-91873790D01*
X155897323Y-91750500D01*
X166649500Y-91750500D01*
X166649500Y-104524500D01*
M02*
