G04 #@! TF.FileFunction,Copper,L2,Bot,Signal*
%FSLAX46Y46*%
G04 Gerber Fmt 4.6, Leading zero omitted, Abs format (unit mm)*
G04 Created by KiCad (PCBNEW 4.0.7-e2-6376~58~ubuntu16.04.1) date Wed Aug  1 22:41:23 2018*
%MOMM*%
%LPD*%
G01*
G04 APERTURE LIST*
%ADD10C,0.100000*%
%ADD11R,0.800000X0.750000*%
%ADD12R,0.970000X1.270000*%
%ADD13R,0.400000X0.600000*%
%ADD14R,3.000000X1.250000*%
%ADD15C,0.600000*%
%ADD16C,0.300000*%
%ADD17C,0.351000*%
G04 APERTURE END LIST*
D10*
D11*
X164925000Y-93050000D03*
X163425000Y-93050000D03*
X165050000Y-102775000D03*
X163550000Y-102775000D03*
X164925000Y-95375000D03*
X163425000Y-95375000D03*
D12*
X157785000Y-96025000D03*
X159065000Y-96025000D03*
X159065000Y-103475000D03*
X157785000Y-103475000D03*
D13*
X165050000Y-98350000D03*
X164150000Y-98350000D03*
D14*
X153175000Y-103675000D03*
X153175000Y-100925000D03*
X153175000Y-98175000D03*
X153175000Y-95425000D03*
X153175000Y-92675000D03*
D15*
X160725000Y-99450000D03*
X154800000Y-103675000D03*
X162000000Y-94850000D03*
X154900000Y-92675000D03*
X156250000Y-99975000D03*
X160475000Y-98175000D03*
X154875000Y-97850000D03*
X154875000Y-95625000D03*
X162825000Y-99450000D03*
X163425000Y-96900000D03*
D16*
X164150000Y-98350000D02*
X164150000Y-97725000D01*
X164925000Y-96950000D02*
X164925000Y-95375000D01*
X164150000Y-97725000D02*
X164925000Y-96950000D01*
X164925000Y-93050000D02*
X164925000Y-95375000D01*
X162350000Y-98350000D02*
X161550000Y-99150000D01*
X161550000Y-99150000D02*
X161250000Y-99450000D01*
X161250000Y-99450000D02*
X160725000Y-99450000D01*
X164150000Y-98350000D02*
X162350000Y-98350000D01*
X153175000Y-103675000D02*
X154800000Y-103675000D01*
X163425000Y-93050000D02*
X162775000Y-93050000D01*
X162000000Y-93825000D02*
X162000000Y-94850000D01*
X162775000Y-93050000D02*
X162000000Y-93825000D01*
X154900000Y-92675000D02*
X153175000Y-92675000D01*
X165050000Y-98350000D02*
X165050000Y-102775000D01*
X156250000Y-99975000D02*
X156925000Y-99975000D01*
X157785000Y-99115000D02*
X157785000Y-96025000D01*
X156925000Y-99975000D02*
X157785000Y-99115000D01*
X159065000Y-96025000D02*
X160175000Y-96025000D01*
X160475000Y-96325000D02*
X160475000Y-98175000D01*
X160175000Y-96025000D02*
X160475000Y-96325000D01*
X160475000Y-98175000D02*
X160100000Y-98175000D01*
X159065000Y-102060000D02*
X159065000Y-103475000D01*
X159850000Y-101275000D02*
X159065000Y-102060000D01*
X159850000Y-98425000D02*
X159850000Y-101275000D01*
X160100000Y-98175000D02*
X159850000Y-98425000D01*
X157785000Y-103475000D02*
X156750000Y-103475000D01*
X155325000Y-100925000D02*
X153175000Y-100925000D01*
X155825000Y-101425000D02*
X155325000Y-100925000D01*
X155825000Y-102550000D02*
X155825000Y-101425000D01*
X156750000Y-103475000D02*
X155825000Y-102550000D01*
X154875000Y-97850000D02*
X154550000Y-98175000D01*
X154550000Y-98175000D02*
X153175000Y-98175000D01*
X154325000Y-98175000D02*
X153175000Y-98175000D01*
X154875000Y-95625000D02*
X153175000Y-95425000D01*
X163550000Y-102775000D02*
X162775000Y-102775000D01*
X162575000Y-99700000D02*
X162825000Y-99450000D01*
X162575000Y-102575000D02*
X162575000Y-99700000D01*
X162775000Y-102775000D02*
X162575000Y-102575000D01*
X163425000Y-95375000D02*
X163425000Y-96900000D01*
D17*
G36*
X166649500Y-104524500D02*
X159783956Y-104524500D01*
X159888047Y-104457519D01*
X159996618Y-104298620D01*
X160034815Y-104110000D01*
X160034815Y-102840000D01*
X160001659Y-102663790D01*
X159897519Y-102501953D01*
X159738620Y-102393382D01*
X159690500Y-102383637D01*
X159690500Y-102319090D01*
X160292296Y-101717295D01*
X160427887Y-101514369D01*
X160475500Y-101275000D01*
X160475500Y-99700000D01*
X161949500Y-99700000D01*
X161949500Y-102575000D01*
X161997113Y-102814369D01*
X162132705Y-103017295D01*
X162332705Y-103217295D01*
X162535631Y-103352887D01*
X162741910Y-103393918D01*
X162802481Y-103488047D01*
X162961380Y-103596618D01*
X163150000Y-103634815D01*
X163950000Y-103634815D01*
X164126210Y-103601659D01*
X164288047Y-103497519D01*
X164298619Y-103482046D01*
X164302481Y-103488047D01*
X164461380Y-103596618D01*
X164650000Y-103634815D01*
X165450000Y-103634815D01*
X165626210Y-103601659D01*
X165788047Y-103497519D01*
X165896618Y-103338620D01*
X165934815Y-103150000D01*
X165934815Y-102400000D01*
X165901659Y-102223790D01*
X165797519Y-102061953D01*
X165675500Y-101978581D01*
X165675500Y-98869527D01*
X165696618Y-98838620D01*
X165734815Y-98650000D01*
X165734815Y-98050000D01*
X165701659Y-97873790D01*
X165597519Y-97711953D01*
X165438620Y-97603382D01*
X165250000Y-97565185D01*
X164850000Y-97565185D01*
X164834682Y-97568067D01*
X164737172Y-97470557D01*
X164485957Y-97366500D01*
X164399375Y-97366500D01*
X164228500Y-97537375D01*
X164228500Y-98271500D01*
X164248500Y-98271500D01*
X164248500Y-98428500D01*
X164228500Y-98428500D01*
X164228500Y-99162625D01*
X164399375Y-99333500D01*
X164424500Y-99333500D01*
X164424500Y-101980058D01*
X164311953Y-102052481D01*
X164301381Y-102067954D01*
X164297519Y-102061953D01*
X164138620Y-101953382D01*
X163950000Y-101915185D01*
X163200500Y-101915185D01*
X163200500Y-100133939D01*
X163263712Y-100107820D01*
X163482054Y-99889859D01*
X163600365Y-99604933D01*
X163600634Y-99296420D01*
X163575052Y-99234506D01*
X163814043Y-99333500D01*
X163900625Y-99333500D01*
X164071500Y-99162625D01*
X164071500Y-98428500D01*
X163437375Y-98428500D01*
X163266500Y-98599375D01*
X163266500Y-98785956D01*
X163272613Y-98800713D01*
X163264859Y-98792946D01*
X162979933Y-98674635D01*
X162671420Y-98674366D01*
X162386288Y-98792180D01*
X162167946Y-99010141D01*
X162049635Y-99295067D01*
X162049559Y-99382141D01*
X161997113Y-99460631D01*
X161997113Y-99460632D01*
X161949500Y-99700000D01*
X160475500Y-99700000D01*
X160475500Y-98950501D01*
X160628580Y-98950634D01*
X160913712Y-98832820D01*
X161132054Y-98614859D01*
X161250365Y-98329933D01*
X161250634Y-98021420D01*
X161132820Y-97736288D01*
X161100500Y-97703912D01*
X161100500Y-96325000D01*
X161060592Y-96124366D01*
X161052887Y-96085631D01*
X160917295Y-95882705D01*
X160617295Y-95582705D01*
X160414369Y-95447113D01*
X160175000Y-95399500D01*
X160034815Y-95399500D01*
X160034815Y-95390000D01*
X160001659Y-95213790D01*
X159897519Y-95051953D01*
X159826723Y-95003580D01*
X161224366Y-95003580D01*
X161342180Y-95288712D01*
X161560141Y-95507054D01*
X161845067Y-95625365D01*
X162153580Y-95625634D01*
X162438712Y-95507820D01*
X162540185Y-95406524D01*
X162540185Y-95750000D01*
X162573341Y-95926210D01*
X162677481Y-96088047D01*
X162799500Y-96171419D01*
X162799500Y-96428642D01*
X162767946Y-96460141D01*
X162649635Y-96745067D01*
X162649366Y-97053580D01*
X162767180Y-97338712D01*
X162985141Y-97557054D01*
X163270067Y-97675365D01*
X163365329Y-97675448D01*
X163266500Y-97914044D01*
X163266500Y-98100625D01*
X163437375Y-98271500D01*
X164071500Y-98271500D01*
X164071500Y-97537375D01*
X163977928Y-97443803D01*
X164082054Y-97339859D01*
X164200365Y-97054933D01*
X164200634Y-96746420D01*
X164082820Y-96461288D01*
X164050500Y-96428912D01*
X164050500Y-96242115D01*
X164137828Y-96329443D01*
X164389043Y-96433500D01*
X164675625Y-96433500D01*
X164846500Y-96262625D01*
X164846500Y-95453500D01*
X165003500Y-95453500D01*
X165003500Y-96262625D01*
X165174375Y-96433500D01*
X165460957Y-96433500D01*
X165712172Y-96329443D01*
X165904444Y-96137171D01*
X166008500Y-95885956D01*
X166008500Y-95624375D01*
X165837625Y-95453500D01*
X165003500Y-95453500D01*
X164846500Y-95453500D01*
X164826500Y-95453500D01*
X164826500Y-95296500D01*
X164846500Y-95296500D01*
X164846500Y-94487375D01*
X165003500Y-94487375D01*
X165003500Y-95296500D01*
X165837625Y-95296500D01*
X166008500Y-95125625D01*
X166008500Y-94864044D01*
X165904444Y-94612829D01*
X165712172Y-94420557D01*
X165460957Y-94316500D01*
X165174375Y-94316500D01*
X165003500Y-94487375D01*
X164846500Y-94487375D01*
X164675625Y-94316500D01*
X164389043Y-94316500D01*
X164137828Y-94420557D01*
X164006454Y-94551931D01*
X163825000Y-94515185D01*
X163025000Y-94515185D01*
X162848790Y-94548341D01*
X162742666Y-94616631D01*
X162657820Y-94411288D01*
X162625500Y-94378912D01*
X162625500Y-94084090D01*
X162837704Y-93871886D01*
X163025000Y-93909815D01*
X163825000Y-93909815D01*
X164001210Y-93876659D01*
X164006585Y-93873200D01*
X164137828Y-94004443D01*
X164389043Y-94108500D01*
X164675625Y-94108500D01*
X164846500Y-93937625D01*
X164846500Y-93128500D01*
X165003500Y-93128500D01*
X165003500Y-93937625D01*
X165174375Y-94108500D01*
X165460957Y-94108500D01*
X165712172Y-94004443D01*
X165904444Y-93812171D01*
X166008500Y-93560956D01*
X166008500Y-93299375D01*
X165837625Y-93128500D01*
X165003500Y-93128500D01*
X164846500Y-93128500D01*
X164826500Y-93128500D01*
X164826500Y-92971500D01*
X164846500Y-92971500D01*
X164846500Y-92162375D01*
X165003500Y-92162375D01*
X165003500Y-92971500D01*
X165837625Y-92971500D01*
X166008500Y-92800625D01*
X166008500Y-92539044D01*
X165904444Y-92287829D01*
X165712172Y-92095557D01*
X165460957Y-91991500D01*
X165174375Y-91991500D01*
X165003500Y-92162375D01*
X164846500Y-92162375D01*
X164675625Y-91991500D01*
X164389043Y-91991500D01*
X164137828Y-92095557D01*
X164006454Y-92226931D01*
X163825000Y-92190185D01*
X163025000Y-92190185D01*
X162848790Y-92223341D01*
X162686953Y-92327481D01*
X162596388Y-92460028D01*
X162535631Y-92472113D01*
X162332705Y-92607704D01*
X161557705Y-93382705D01*
X161422113Y-93585631D01*
X161422113Y-93585632D01*
X161374500Y-93825000D01*
X161374500Y-94378642D01*
X161342946Y-94410141D01*
X161224635Y-94695067D01*
X161224366Y-95003580D01*
X159826723Y-95003580D01*
X159738620Y-94943382D01*
X159550000Y-94905185D01*
X158580000Y-94905185D01*
X158419308Y-94935421D01*
X158270000Y-94905185D01*
X157300000Y-94905185D01*
X157123790Y-94938341D01*
X156961953Y-95042481D01*
X156853382Y-95201380D01*
X156815185Y-95390000D01*
X156815185Y-96660000D01*
X156848341Y-96836210D01*
X156952481Y-96998047D01*
X157111380Y-97106618D01*
X157159500Y-97116363D01*
X157159500Y-98855909D01*
X156693658Y-99321752D01*
X156689859Y-99317946D01*
X156404933Y-99199635D01*
X156096420Y-99199366D01*
X155811288Y-99317180D01*
X155592946Y-99535141D01*
X155474635Y-99820067D01*
X155474366Y-100128580D01*
X155564774Y-100347383D01*
X155564369Y-100347113D01*
X155325000Y-100299500D01*
X155159721Y-100299500D01*
X155126659Y-100123790D01*
X155022519Y-99961953D01*
X154863620Y-99853382D01*
X154675000Y-99815185D01*
X152125500Y-99815185D01*
X152125500Y-99284815D01*
X154675000Y-99284815D01*
X154851210Y-99251659D01*
X155013047Y-99147519D01*
X155121618Y-98988620D01*
X155159815Y-98800000D01*
X155159815Y-98571409D01*
X155313712Y-98507820D01*
X155532054Y-98289859D01*
X155650365Y-98004933D01*
X155650634Y-97696420D01*
X155532820Y-97411288D01*
X155314859Y-97192946D01*
X155029933Y-97074635D01*
X154721420Y-97074366D01*
X154721064Y-97074513D01*
X154675000Y-97065185D01*
X152125500Y-97065185D01*
X152125500Y-96534815D01*
X154675000Y-96534815D01*
X154851210Y-96501659D01*
X155008234Y-96400616D01*
X155028580Y-96400634D01*
X155313712Y-96282820D01*
X155532054Y-96064859D01*
X155650365Y-95779933D01*
X155650634Y-95471420D01*
X155532820Y-95186288D01*
X155314859Y-94967946D01*
X155159815Y-94903566D01*
X155159815Y-94800000D01*
X155126659Y-94623790D01*
X155022519Y-94461953D01*
X154863620Y-94353382D01*
X154675000Y-94315185D01*
X152125500Y-94315185D01*
X152125500Y-93784815D01*
X154675000Y-93784815D01*
X154851210Y-93751659D01*
X155013047Y-93647519D01*
X155121618Y-93488620D01*
X155136226Y-93416485D01*
X155338712Y-93332820D01*
X155557054Y-93114859D01*
X155675365Y-92829933D01*
X155675634Y-92521420D01*
X155557820Y-92236288D01*
X155339859Y-92017946D01*
X155138013Y-91934133D01*
X155126659Y-91873790D01*
X155079498Y-91800500D01*
X166649500Y-91800500D01*
X166649500Y-104524500D01*
X166649500Y-104524500D01*
G37*
X166649500Y-104524500D02*
X159783956Y-104524500D01*
X159888047Y-104457519D01*
X159996618Y-104298620D01*
X160034815Y-104110000D01*
X160034815Y-102840000D01*
X160001659Y-102663790D01*
X159897519Y-102501953D01*
X159738620Y-102393382D01*
X159690500Y-102383637D01*
X159690500Y-102319090D01*
X160292296Y-101717295D01*
X160427887Y-101514369D01*
X160475500Y-101275000D01*
X160475500Y-99700000D01*
X161949500Y-99700000D01*
X161949500Y-102575000D01*
X161997113Y-102814369D01*
X162132705Y-103017295D01*
X162332705Y-103217295D01*
X162535631Y-103352887D01*
X162741910Y-103393918D01*
X162802481Y-103488047D01*
X162961380Y-103596618D01*
X163150000Y-103634815D01*
X163950000Y-103634815D01*
X164126210Y-103601659D01*
X164288047Y-103497519D01*
X164298619Y-103482046D01*
X164302481Y-103488047D01*
X164461380Y-103596618D01*
X164650000Y-103634815D01*
X165450000Y-103634815D01*
X165626210Y-103601659D01*
X165788047Y-103497519D01*
X165896618Y-103338620D01*
X165934815Y-103150000D01*
X165934815Y-102400000D01*
X165901659Y-102223790D01*
X165797519Y-102061953D01*
X165675500Y-101978581D01*
X165675500Y-98869527D01*
X165696618Y-98838620D01*
X165734815Y-98650000D01*
X165734815Y-98050000D01*
X165701659Y-97873790D01*
X165597519Y-97711953D01*
X165438620Y-97603382D01*
X165250000Y-97565185D01*
X164850000Y-97565185D01*
X164834682Y-97568067D01*
X164737172Y-97470557D01*
X164485957Y-97366500D01*
X164399375Y-97366500D01*
X164228500Y-97537375D01*
X164228500Y-98271500D01*
X164248500Y-98271500D01*
X164248500Y-98428500D01*
X164228500Y-98428500D01*
X164228500Y-99162625D01*
X164399375Y-99333500D01*
X164424500Y-99333500D01*
X164424500Y-101980058D01*
X164311953Y-102052481D01*
X164301381Y-102067954D01*
X164297519Y-102061953D01*
X164138620Y-101953382D01*
X163950000Y-101915185D01*
X163200500Y-101915185D01*
X163200500Y-100133939D01*
X163263712Y-100107820D01*
X163482054Y-99889859D01*
X163600365Y-99604933D01*
X163600634Y-99296420D01*
X163575052Y-99234506D01*
X163814043Y-99333500D01*
X163900625Y-99333500D01*
X164071500Y-99162625D01*
X164071500Y-98428500D01*
X163437375Y-98428500D01*
X163266500Y-98599375D01*
X163266500Y-98785956D01*
X163272613Y-98800713D01*
X163264859Y-98792946D01*
X162979933Y-98674635D01*
X162671420Y-98674366D01*
X162386288Y-98792180D01*
X162167946Y-99010141D01*
X162049635Y-99295067D01*
X162049559Y-99382141D01*
X161997113Y-99460631D01*
X161997113Y-99460632D01*
X161949500Y-99700000D01*
X160475500Y-99700000D01*
X160475500Y-98950501D01*
X160628580Y-98950634D01*
X160913712Y-98832820D01*
X161132054Y-98614859D01*
X161250365Y-98329933D01*
X161250634Y-98021420D01*
X161132820Y-97736288D01*
X161100500Y-97703912D01*
X161100500Y-96325000D01*
X161060592Y-96124366D01*
X161052887Y-96085631D01*
X160917295Y-95882705D01*
X160617295Y-95582705D01*
X160414369Y-95447113D01*
X160175000Y-95399500D01*
X160034815Y-95399500D01*
X160034815Y-95390000D01*
X160001659Y-95213790D01*
X159897519Y-95051953D01*
X159826723Y-95003580D01*
X161224366Y-95003580D01*
X161342180Y-95288712D01*
X161560141Y-95507054D01*
X161845067Y-95625365D01*
X162153580Y-95625634D01*
X162438712Y-95507820D01*
X162540185Y-95406524D01*
X162540185Y-95750000D01*
X162573341Y-95926210D01*
X162677481Y-96088047D01*
X162799500Y-96171419D01*
X162799500Y-96428642D01*
X162767946Y-96460141D01*
X162649635Y-96745067D01*
X162649366Y-97053580D01*
X162767180Y-97338712D01*
X162985141Y-97557054D01*
X163270067Y-97675365D01*
X163365329Y-97675448D01*
X163266500Y-97914044D01*
X163266500Y-98100625D01*
X163437375Y-98271500D01*
X164071500Y-98271500D01*
X164071500Y-97537375D01*
X163977928Y-97443803D01*
X164082054Y-97339859D01*
X164200365Y-97054933D01*
X164200634Y-96746420D01*
X164082820Y-96461288D01*
X164050500Y-96428912D01*
X164050500Y-96242115D01*
X164137828Y-96329443D01*
X164389043Y-96433500D01*
X164675625Y-96433500D01*
X164846500Y-96262625D01*
X164846500Y-95453500D01*
X165003500Y-95453500D01*
X165003500Y-96262625D01*
X165174375Y-96433500D01*
X165460957Y-96433500D01*
X165712172Y-96329443D01*
X165904444Y-96137171D01*
X166008500Y-95885956D01*
X166008500Y-95624375D01*
X165837625Y-95453500D01*
X165003500Y-95453500D01*
X164846500Y-95453500D01*
X164826500Y-95453500D01*
X164826500Y-95296500D01*
X164846500Y-95296500D01*
X164846500Y-94487375D01*
X165003500Y-94487375D01*
X165003500Y-95296500D01*
X165837625Y-95296500D01*
X166008500Y-95125625D01*
X166008500Y-94864044D01*
X165904444Y-94612829D01*
X165712172Y-94420557D01*
X165460957Y-94316500D01*
X165174375Y-94316500D01*
X165003500Y-94487375D01*
X164846500Y-94487375D01*
X164675625Y-94316500D01*
X164389043Y-94316500D01*
X164137828Y-94420557D01*
X164006454Y-94551931D01*
X163825000Y-94515185D01*
X163025000Y-94515185D01*
X162848790Y-94548341D01*
X162742666Y-94616631D01*
X162657820Y-94411288D01*
X162625500Y-94378912D01*
X162625500Y-94084090D01*
X162837704Y-93871886D01*
X163025000Y-93909815D01*
X163825000Y-93909815D01*
X164001210Y-93876659D01*
X164006585Y-93873200D01*
X164137828Y-94004443D01*
X164389043Y-94108500D01*
X164675625Y-94108500D01*
X164846500Y-93937625D01*
X164846500Y-93128500D01*
X165003500Y-93128500D01*
X165003500Y-93937625D01*
X165174375Y-94108500D01*
X165460957Y-94108500D01*
X165712172Y-94004443D01*
X165904444Y-93812171D01*
X166008500Y-93560956D01*
X166008500Y-93299375D01*
X165837625Y-93128500D01*
X165003500Y-93128500D01*
X164846500Y-93128500D01*
X164826500Y-93128500D01*
X164826500Y-92971500D01*
X164846500Y-92971500D01*
X164846500Y-92162375D01*
X165003500Y-92162375D01*
X165003500Y-92971500D01*
X165837625Y-92971500D01*
X166008500Y-92800625D01*
X166008500Y-92539044D01*
X165904444Y-92287829D01*
X165712172Y-92095557D01*
X165460957Y-91991500D01*
X165174375Y-91991500D01*
X165003500Y-92162375D01*
X164846500Y-92162375D01*
X164675625Y-91991500D01*
X164389043Y-91991500D01*
X164137828Y-92095557D01*
X164006454Y-92226931D01*
X163825000Y-92190185D01*
X163025000Y-92190185D01*
X162848790Y-92223341D01*
X162686953Y-92327481D01*
X162596388Y-92460028D01*
X162535631Y-92472113D01*
X162332705Y-92607704D01*
X161557705Y-93382705D01*
X161422113Y-93585631D01*
X161422113Y-93585632D01*
X161374500Y-93825000D01*
X161374500Y-94378642D01*
X161342946Y-94410141D01*
X161224635Y-94695067D01*
X161224366Y-95003580D01*
X159826723Y-95003580D01*
X159738620Y-94943382D01*
X159550000Y-94905185D01*
X158580000Y-94905185D01*
X158419308Y-94935421D01*
X158270000Y-94905185D01*
X157300000Y-94905185D01*
X157123790Y-94938341D01*
X156961953Y-95042481D01*
X156853382Y-95201380D01*
X156815185Y-95390000D01*
X156815185Y-96660000D01*
X156848341Y-96836210D01*
X156952481Y-96998047D01*
X157111380Y-97106618D01*
X157159500Y-97116363D01*
X157159500Y-98855909D01*
X156693658Y-99321752D01*
X156689859Y-99317946D01*
X156404933Y-99199635D01*
X156096420Y-99199366D01*
X155811288Y-99317180D01*
X155592946Y-99535141D01*
X155474635Y-99820067D01*
X155474366Y-100128580D01*
X155564774Y-100347383D01*
X155564369Y-100347113D01*
X155325000Y-100299500D01*
X155159721Y-100299500D01*
X155126659Y-100123790D01*
X155022519Y-99961953D01*
X154863620Y-99853382D01*
X154675000Y-99815185D01*
X152125500Y-99815185D01*
X152125500Y-99284815D01*
X154675000Y-99284815D01*
X154851210Y-99251659D01*
X155013047Y-99147519D01*
X155121618Y-98988620D01*
X155159815Y-98800000D01*
X155159815Y-98571409D01*
X155313712Y-98507820D01*
X155532054Y-98289859D01*
X155650365Y-98004933D01*
X155650634Y-97696420D01*
X155532820Y-97411288D01*
X155314859Y-97192946D01*
X155029933Y-97074635D01*
X154721420Y-97074366D01*
X154721064Y-97074513D01*
X154675000Y-97065185D01*
X152125500Y-97065185D01*
X152125500Y-96534815D01*
X154675000Y-96534815D01*
X154851210Y-96501659D01*
X155008234Y-96400616D01*
X155028580Y-96400634D01*
X155313712Y-96282820D01*
X155532054Y-96064859D01*
X155650365Y-95779933D01*
X155650634Y-95471420D01*
X155532820Y-95186288D01*
X155314859Y-94967946D01*
X155159815Y-94903566D01*
X155159815Y-94800000D01*
X155126659Y-94623790D01*
X155022519Y-94461953D01*
X154863620Y-94353382D01*
X154675000Y-94315185D01*
X152125500Y-94315185D01*
X152125500Y-93784815D01*
X154675000Y-93784815D01*
X154851210Y-93751659D01*
X155013047Y-93647519D01*
X155121618Y-93488620D01*
X155136226Y-93416485D01*
X155338712Y-93332820D01*
X155557054Y-93114859D01*
X155675365Y-92829933D01*
X155675634Y-92521420D01*
X155557820Y-92236288D01*
X155339859Y-92017946D01*
X155138013Y-91934133D01*
X155126659Y-91873790D01*
X155079498Y-91800500D01*
X166649500Y-91800500D01*
X166649500Y-104524500D01*
G36*
X155199500Y-101684090D02*
X155199500Y-102550000D01*
X155213873Y-102622258D01*
X155062171Y-102470556D01*
X154810956Y-102366500D01*
X153424375Y-102366500D01*
X153253500Y-102537375D01*
X153253500Y-103596500D01*
X155187625Y-103596500D01*
X155358500Y-103425625D01*
X155358500Y-102956070D01*
X155382705Y-102992295D01*
X156307705Y-103917296D01*
X156510631Y-104052887D01*
X156750000Y-104100500D01*
X156815185Y-104100500D01*
X156815185Y-104110000D01*
X156848341Y-104286210D01*
X156952481Y-104448047D01*
X157064374Y-104524500D01*
X155321824Y-104524500D01*
X155358500Y-104435957D01*
X155358500Y-103924375D01*
X155187625Y-103753500D01*
X153253500Y-103753500D01*
X153253500Y-103773500D01*
X153096500Y-103773500D01*
X153096500Y-103753500D01*
X153076500Y-103753500D01*
X153076500Y-103596500D01*
X153096500Y-103596500D01*
X153096500Y-102537375D01*
X152925625Y-102366500D01*
X152125500Y-102366500D01*
X152125500Y-102034815D01*
X154675000Y-102034815D01*
X154851210Y-102001659D01*
X155013047Y-101897519D01*
X155121618Y-101738620D01*
X155143917Y-101628507D01*
X155199500Y-101684090D01*
X155199500Y-101684090D01*
G37*
X155199500Y-101684090D02*
X155199500Y-102550000D01*
X155213873Y-102622258D01*
X155062171Y-102470556D01*
X154810956Y-102366500D01*
X153424375Y-102366500D01*
X153253500Y-102537375D01*
X153253500Y-103596500D01*
X155187625Y-103596500D01*
X155358500Y-103425625D01*
X155358500Y-102956070D01*
X155382705Y-102992295D01*
X156307705Y-103917296D01*
X156510631Y-104052887D01*
X156750000Y-104100500D01*
X156815185Y-104100500D01*
X156815185Y-104110000D01*
X156848341Y-104286210D01*
X156952481Y-104448047D01*
X157064374Y-104524500D01*
X155321824Y-104524500D01*
X155358500Y-104435957D01*
X155358500Y-103924375D01*
X155187625Y-103753500D01*
X153253500Y-103753500D01*
X153253500Y-103773500D01*
X153096500Y-103773500D01*
X153096500Y-103753500D01*
X153076500Y-103753500D01*
X153076500Y-103596500D01*
X153096500Y-103596500D01*
X153096500Y-102537375D01*
X152925625Y-102366500D01*
X152125500Y-102366500D01*
X152125500Y-102034815D01*
X154675000Y-102034815D01*
X154851210Y-102001659D01*
X155013047Y-101897519D01*
X155121618Y-101738620D01*
X155143917Y-101628507D01*
X155199500Y-101684090D01*
M02*
