G04 #@! TF.FileFunction,Legend,Top*
%FSLAX46Y46*%
G04 Gerber Fmt 4.6, Leading zero omitted, Abs format (unit mm)*
G04 Created by KiCad (PCBNEW 4.0.7-e2-6376~58~ubuntu16.04.1) date Thu Aug  2 19:24:01 2018*
%MOMM*%
%LPD*%
G01*
G04 APERTURE LIST*
%ADD10C,0.100000*%
%ADD11C,0.120000*%
%ADD12C,0.150000*%
G04 APERTURE END LIST*
D10*
D11*
X154980000Y-100675000D02*
X154980000Y-100175000D01*
X153920000Y-100175000D02*
X153920000Y-100675000D01*
X154980000Y-97975000D02*
X154980000Y-97475000D01*
X153920000Y-97475000D02*
X153920000Y-97975000D01*
X154980000Y-95225000D02*
X154980000Y-94725000D01*
X153920000Y-94725000D02*
X153920000Y-95225000D01*
D12*
X161875000Y-103975000D02*
X160225000Y-103975000D01*
X161875000Y-103975000D02*
X163525000Y-103975000D01*
X161875000Y-92375000D02*
X163525000Y-92375000D01*
X161875000Y-92375000D02*
X161225000Y-92375000D01*
X165875000Y-101175000D02*
X165875000Y-101125000D01*
X165875000Y-101175000D02*
X165875000Y-103175000D01*
X157875000Y-101125000D02*
X157875000Y-103175000D01*
X165925000Y-96425000D02*
X165925000Y-96475000D01*
X165925000Y-96075000D02*
X165925000Y-96425000D01*
X165875000Y-95075000D02*
X165875000Y-95175000D01*
X165875000Y-93275000D02*
X165875000Y-93175000D01*
X157875000Y-93275000D02*
X157875000Y-93175000D01*
X157875000Y-95075000D02*
X157875000Y-95175000D01*
X157875000Y-96425000D02*
X157875000Y-96475000D01*
X157875000Y-96075000D02*
X157875000Y-96425000D01*
X165875000Y-93375000D02*
X165875000Y-93275000D01*
X157875000Y-93375000D02*
X157875000Y-93275000D01*
X161875000Y-98875000D02*
X163175000Y-98875000D01*
X163175000Y-98875000D02*
X163175000Y-101475000D01*
X163175000Y-101475000D02*
X160575000Y-101475000D01*
X160575000Y-101475000D02*
X160575000Y-98875000D01*
X160575000Y-98875000D02*
X161875000Y-98875000D01*
X157875000Y-95075000D02*
X157875000Y-93375000D01*
X165875000Y-93375000D02*
X165875000Y-95075000D01*
X157175000Y-91775000D02*
X166675000Y-91775000D01*
X166675000Y-91775000D02*
X166675000Y-104575000D01*
X166675000Y-104575000D02*
X156975000Y-104575000D01*
X156975000Y-104575000D02*
X156975000Y-92075000D01*
X156975000Y-92075000D02*
X156975000Y-91775000D01*
X156975000Y-91775000D02*
X157175000Y-91775000D01*
D10*
X155651190Y-100508333D02*
X155413095Y-100675000D01*
X155651190Y-100794047D02*
X155151190Y-100794047D01*
X155151190Y-100603571D01*
X155175000Y-100555952D01*
X155198810Y-100532143D01*
X155246429Y-100508333D01*
X155317857Y-100508333D01*
X155365476Y-100532143D01*
X155389286Y-100555952D01*
X155413095Y-100603571D01*
X155413095Y-100794047D01*
X155651190Y-100032143D02*
X155651190Y-100317857D01*
X155651190Y-100175000D02*
X155151190Y-100175000D01*
X155222619Y-100222619D01*
X155270238Y-100270238D01*
X155294048Y-100317857D01*
X155626190Y-97783333D02*
X155388095Y-97950000D01*
X155626190Y-98069047D02*
X155126190Y-98069047D01*
X155126190Y-97878571D01*
X155150000Y-97830952D01*
X155173810Y-97807143D01*
X155221429Y-97783333D01*
X155292857Y-97783333D01*
X155340476Y-97807143D01*
X155364286Y-97830952D01*
X155388095Y-97878571D01*
X155388095Y-98069047D01*
X155173810Y-97592857D02*
X155150000Y-97569047D01*
X155126190Y-97521428D01*
X155126190Y-97402381D01*
X155150000Y-97354762D01*
X155173810Y-97330952D01*
X155221429Y-97307143D01*
X155269048Y-97307143D01*
X155340476Y-97330952D01*
X155626190Y-97616666D01*
X155626190Y-97307143D01*
X155651190Y-95083333D02*
X155413095Y-95250000D01*
X155651190Y-95369047D02*
X155151190Y-95369047D01*
X155151190Y-95178571D01*
X155175000Y-95130952D01*
X155198810Y-95107143D01*
X155246429Y-95083333D01*
X155317857Y-95083333D01*
X155365476Y-95107143D01*
X155389286Y-95130952D01*
X155413095Y-95178571D01*
X155413095Y-95369047D01*
X155151190Y-94916666D02*
X155151190Y-94607143D01*
X155341667Y-94773809D01*
X155341667Y-94702381D01*
X155365476Y-94654762D01*
X155389286Y-94630952D01*
X155436905Y-94607143D01*
X155555952Y-94607143D01*
X155603571Y-94630952D01*
X155627381Y-94654762D01*
X155651190Y-94702381D01*
X155651190Y-94845238D01*
X155627381Y-94892857D01*
X155603571Y-94916666D01*
X161494048Y-94051190D02*
X161494048Y-94455952D01*
X161517857Y-94503571D01*
X161541667Y-94527381D01*
X161589286Y-94551190D01*
X161684524Y-94551190D01*
X161732143Y-94527381D01*
X161755952Y-94503571D01*
X161779762Y-94455952D01*
X161779762Y-94051190D01*
X162279762Y-94551190D02*
X161994048Y-94551190D01*
X162136905Y-94551190D02*
X162136905Y-94051190D01*
X162089286Y-94122619D01*
X162041667Y-94170238D01*
X161994048Y-94194048D01*
D12*
X162184524Y-100582143D02*
X162136905Y-100629762D01*
X161994048Y-100677381D01*
X161898810Y-100677381D01*
X161755952Y-100629762D01*
X161660714Y-100534524D01*
X161613095Y-100439286D01*
X161565476Y-100248810D01*
X161565476Y-100105952D01*
X161613095Y-99915476D01*
X161660714Y-99820238D01*
X161755952Y-99725000D01*
X161898810Y-99677381D01*
X161994048Y-99677381D01*
X162136905Y-99725000D01*
X162184524Y-99772619D01*
M02*
