G04 #@! TF.FileFunction,Legend,Top*
%FSLAX46Y46*%
G04 Gerber Fmt 4.6, Leading zero omitted, Abs format (unit mm)*
G04 Created by KiCad (PCBNEW 4.0.7-e2-6376~58~ubuntu16.04.1) date Wed Aug  1 22:41:23 2018*
%MOMM*%
%LPD*%
G01*
G04 APERTURE LIST*
%ADD10C,0.100000*%
%ADD11C,0.120000*%
%ADD12C,0.150000*%
G04 APERTURE END LIST*
D10*
D11*
X153980000Y-101075000D02*
X153980000Y-100575000D01*
X152920000Y-100575000D02*
X152920000Y-101075000D01*
X153980000Y-97650000D02*
X153980000Y-97150000D01*
X152920000Y-97150000D02*
X152920000Y-97650000D01*
X153980000Y-94575000D02*
X153980000Y-94075000D01*
X152920000Y-94075000D02*
X152920000Y-94575000D01*
D12*
X161875000Y-103975000D02*
X160225000Y-103975000D01*
X161875000Y-103975000D02*
X163525000Y-103975000D01*
X161875000Y-92375000D02*
X163525000Y-92375000D01*
X161875000Y-92375000D02*
X161225000Y-92375000D01*
X165875000Y-101175000D02*
X165875000Y-101125000D01*
X165875000Y-101175000D02*
X165875000Y-103175000D01*
X157875000Y-101125000D02*
X157875000Y-103175000D01*
X165925000Y-96425000D02*
X165925000Y-96475000D01*
X165925000Y-96075000D02*
X165925000Y-96425000D01*
X165875000Y-95075000D02*
X165875000Y-95175000D01*
X165875000Y-93275000D02*
X165875000Y-93175000D01*
X157875000Y-93275000D02*
X157875000Y-93175000D01*
X157875000Y-95075000D02*
X157875000Y-95175000D01*
X157875000Y-96425000D02*
X157875000Y-96475000D01*
X157875000Y-96075000D02*
X157875000Y-96425000D01*
X165875000Y-93375000D02*
X165875000Y-93275000D01*
X157875000Y-93375000D02*
X157875000Y-93275000D01*
X161875000Y-98875000D02*
X163175000Y-98875000D01*
X163175000Y-98875000D02*
X163175000Y-101475000D01*
X163175000Y-101475000D02*
X160575000Y-101475000D01*
X160575000Y-101475000D02*
X160575000Y-98875000D01*
X160575000Y-98875000D02*
X161875000Y-98875000D01*
X157875000Y-95075000D02*
X157875000Y-93375000D01*
X165875000Y-93375000D02*
X165875000Y-95075000D01*
X157175000Y-91775000D02*
X166675000Y-91775000D01*
X166675000Y-91775000D02*
X166675000Y-104575000D01*
X166675000Y-104575000D02*
X156975000Y-104575000D01*
X156975000Y-104575000D02*
X156975000Y-92075000D01*
X156975000Y-92075000D02*
X156975000Y-91775000D01*
X156975000Y-91775000D02*
X157175000Y-91775000D01*
D10*
X154651190Y-100908333D02*
X154413095Y-101075000D01*
X154651190Y-101194047D02*
X154151190Y-101194047D01*
X154151190Y-101003571D01*
X154175000Y-100955952D01*
X154198810Y-100932143D01*
X154246429Y-100908333D01*
X154317857Y-100908333D01*
X154365476Y-100932143D01*
X154389286Y-100955952D01*
X154413095Y-101003571D01*
X154413095Y-101194047D01*
X154651190Y-100432143D02*
X154651190Y-100717857D01*
X154651190Y-100575000D02*
X154151190Y-100575000D01*
X154222619Y-100622619D01*
X154270238Y-100670238D01*
X154294048Y-100717857D01*
X154626190Y-97458333D02*
X154388095Y-97625000D01*
X154626190Y-97744047D02*
X154126190Y-97744047D01*
X154126190Y-97553571D01*
X154150000Y-97505952D01*
X154173810Y-97482143D01*
X154221429Y-97458333D01*
X154292857Y-97458333D01*
X154340476Y-97482143D01*
X154364286Y-97505952D01*
X154388095Y-97553571D01*
X154388095Y-97744047D01*
X154173810Y-97267857D02*
X154150000Y-97244047D01*
X154126190Y-97196428D01*
X154126190Y-97077381D01*
X154150000Y-97029762D01*
X154173810Y-97005952D01*
X154221429Y-96982143D01*
X154269048Y-96982143D01*
X154340476Y-97005952D01*
X154626190Y-97291666D01*
X154626190Y-96982143D01*
X154651190Y-94433333D02*
X154413095Y-94600000D01*
X154651190Y-94719047D02*
X154151190Y-94719047D01*
X154151190Y-94528571D01*
X154175000Y-94480952D01*
X154198810Y-94457143D01*
X154246429Y-94433333D01*
X154317857Y-94433333D01*
X154365476Y-94457143D01*
X154389286Y-94480952D01*
X154413095Y-94528571D01*
X154413095Y-94719047D01*
X154151190Y-94266666D02*
X154151190Y-93957143D01*
X154341667Y-94123809D01*
X154341667Y-94052381D01*
X154365476Y-94004762D01*
X154389286Y-93980952D01*
X154436905Y-93957143D01*
X154555952Y-93957143D01*
X154603571Y-93980952D01*
X154627381Y-94004762D01*
X154651190Y-94052381D01*
X154651190Y-94195238D01*
X154627381Y-94242857D01*
X154603571Y-94266666D01*
X161494048Y-94051190D02*
X161494048Y-94455952D01*
X161517857Y-94503571D01*
X161541667Y-94527381D01*
X161589286Y-94551190D01*
X161684524Y-94551190D01*
X161732143Y-94527381D01*
X161755952Y-94503571D01*
X161779762Y-94455952D01*
X161779762Y-94051190D01*
X162279762Y-94551190D02*
X161994048Y-94551190D01*
X162136905Y-94551190D02*
X162136905Y-94051190D01*
X162089286Y-94122619D01*
X162041667Y-94170238D01*
X161994048Y-94194048D01*
D12*
X162184524Y-100582143D02*
X162136905Y-100629762D01*
X161994048Y-100677381D01*
X161898810Y-100677381D01*
X161755952Y-100629762D01*
X161660714Y-100534524D01*
X161613095Y-100439286D01*
X161565476Y-100248810D01*
X161565476Y-100105952D01*
X161613095Y-99915476D01*
X161660714Y-99820238D01*
X161755952Y-99725000D01*
X161898810Y-99677381D01*
X161994048Y-99677381D01*
X162136905Y-99725000D01*
X162184524Y-99772619D01*
M02*
