G04 #@! TF.FileFunction,Legend,Bot*
%FSLAX46Y46*%
G04 Gerber Fmt 4.6, Leading zero omitted, Abs format (unit mm)*
G04 Created by KiCad (PCBNEW 4.0.7-e2-6376~58~ubuntu16.04.1) date Mon Jul 30 23:14:02 2018*
%MOMM*%
%LPD*%
G01*
G04 APERTURE LIST*
%ADD10C,0.100000*%
%ADD11C,0.120000*%
%ADD12C,0.150000*%
G04 APERTURE END LIST*
D10*
D11*
X149060000Y-109060000D02*
X149060000Y-106940000D01*
X128940000Y-109060000D02*
X128940000Y-106940000D01*
X147315000Y-106940000D02*
X144685000Y-106940000D01*
X143315000Y-106940000D02*
X140685000Y-106940000D01*
X139315000Y-106940000D02*
X136685000Y-106940000D01*
X135315000Y-106940000D02*
X132685000Y-106940000D01*
X131315000Y-106940000D02*
X128940000Y-106940000D01*
X149060000Y-109060000D02*
X146685000Y-109060000D01*
X148685000Y-106940000D02*
X148685000Y-105710000D01*
X149060000Y-106940000D02*
X148685000Y-106940000D01*
X129315000Y-109060000D02*
X128940000Y-109060000D01*
X145315000Y-109060000D02*
X142685000Y-109060000D01*
X141315000Y-109060000D02*
X138685000Y-109060000D01*
X137315000Y-109060000D02*
X134685000Y-109060000D01*
X133315000Y-109060000D02*
X130685000Y-109060000D01*
X149060000Y-87060000D02*
X149060000Y-84940000D01*
X128940000Y-87060000D02*
X128940000Y-84940000D01*
X149060000Y-84940000D02*
X146685000Y-84940000D01*
X148685000Y-87060000D02*
X148685000Y-88290000D01*
X149060000Y-87060000D02*
X148685000Y-87060000D01*
X129315000Y-84940000D02*
X128940000Y-84940000D01*
X145315000Y-84940000D02*
X142685000Y-84940000D01*
X141315000Y-84940000D02*
X138685000Y-84940000D01*
X137315000Y-84940000D02*
X134685000Y-84940000D01*
X133315000Y-84940000D02*
X130685000Y-84940000D01*
X147315000Y-87060000D02*
X144685000Y-87060000D01*
X143315000Y-87060000D02*
X140685000Y-87060000D01*
X139315000Y-87060000D02*
X136685000Y-87060000D01*
X135315000Y-87060000D02*
X132685000Y-87060000D01*
X131315000Y-87060000D02*
X128940000Y-87060000D01*
X129380000Y-102120000D02*
X130310000Y-102120000D01*
X132540000Y-102120000D02*
X131610000Y-102120000D01*
X132540000Y-102120000D02*
X132540000Y-104280000D01*
X129380000Y-102120000D02*
X129380000Y-103580000D01*
D12*
X130060000Y-94840000D02*
X130060000Y-95365000D01*
X134360000Y-99140000D02*
X134360000Y-98615000D01*
X130060000Y-99140000D02*
X130060000Y-98615000D01*
X134360000Y-94840000D02*
X133835000Y-94840000D01*
X134360000Y-99140000D02*
X133835000Y-99140000D01*
X130060000Y-99140000D02*
X130585000Y-99140000D01*
X130060000Y-94840000D02*
X130585000Y-94840000D01*
D11*
X127420000Y-95410000D02*
X127420000Y-94910000D01*
X128360000Y-94910000D02*
X128360000Y-95410000D01*
X150490000Y-94920000D02*
X150490000Y-94420000D01*
X151550000Y-94420000D02*
X151550000Y-94920000D01*
D12*
X152720000Y-97000000D02*
X152245000Y-97475000D01*
X152720000Y-97000000D02*
X153195000Y-97475000D01*
X152720000Y-97000000D02*
X153195000Y-96525000D01*
X152720000Y-97000000D02*
X152245000Y-96525000D01*
X153420446Y-97000000D02*
G75*
G03X153420446Y-97000000I-700446J0D01*
G01*
X153420000Y-97000000D02*
X154520000Y-97000000D01*
X154520000Y-97000000D02*
X154120000Y-96650000D01*
X154520000Y-97000000D02*
X154120000Y-97350000D01*
D11*
X132675000Y-81770000D02*
X133175000Y-81770000D01*
X133175000Y-82830000D02*
X132675000Y-82830000D01*
X141475000Y-81745000D02*
X141975000Y-81745000D01*
X141975000Y-82805000D02*
X141475000Y-82805000D01*
X150575000Y-81795000D02*
X151075000Y-81795000D01*
X151075000Y-82855000D02*
X150575000Y-82855000D01*
X156155000Y-89850000D02*
X156155000Y-90350000D01*
X155095000Y-90350000D02*
X155095000Y-89850000D01*
X155655000Y-100175000D02*
X155655000Y-100675000D01*
X154595000Y-100675000D02*
X154595000Y-100175000D01*
X152505000Y-107350000D02*
X152505000Y-107850000D01*
X151445000Y-107850000D02*
X151445000Y-107350000D01*
X145775000Y-112105000D02*
X145275000Y-112105000D01*
X145275000Y-111045000D02*
X145775000Y-111045000D01*
X135700000Y-112205000D02*
X135200000Y-112205000D01*
X135200000Y-111145000D02*
X135700000Y-111145000D01*
X127440000Y-111940000D02*
X126940000Y-111940000D01*
X126940000Y-110880000D02*
X127440000Y-110880000D01*
X122090000Y-103610000D02*
X122090000Y-103110000D01*
X123150000Y-103110000D02*
X123150000Y-103610000D01*
X122620000Y-94500000D02*
X122620000Y-94000000D01*
X123680000Y-94000000D02*
X123680000Y-94500000D01*
X125020000Y-86200000D02*
X125020000Y-85700000D01*
X126080000Y-85700000D02*
X126080000Y-86200000D01*
D10*
X149786190Y-107833334D02*
X150143333Y-107833334D01*
X150214762Y-107809524D01*
X150262381Y-107761905D01*
X150286190Y-107690477D01*
X150286190Y-107642858D01*
X150286190Y-108333333D02*
X150286190Y-108047619D01*
X150286190Y-108190476D02*
X149786190Y-108190476D01*
X149857619Y-108142857D01*
X149905238Y-108095238D01*
X149929048Y-108047619D01*
X149786190Y-85833334D02*
X150143333Y-85833334D01*
X150214762Y-85809524D01*
X150262381Y-85761905D01*
X150286190Y-85690477D01*
X150286190Y-85642858D01*
X149833810Y-86047619D02*
X149810000Y-86071429D01*
X149786190Y-86119048D01*
X149786190Y-86238095D01*
X149810000Y-86285714D01*
X149833810Y-86309524D01*
X149881429Y-86333333D01*
X149929048Y-86333333D01*
X150000476Y-86309524D01*
X150286190Y-86023810D01*
X150286190Y-86333333D01*
X133186190Y-102499048D02*
X133590952Y-102499048D01*
X133638571Y-102522857D01*
X133662381Y-102546667D01*
X133686190Y-102594286D01*
X133686190Y-102689524D01*
X133662381Y-102737143D01*
X133638571Y-102760952D01*
X133590952Y-102784762D01*
X133186190Y-102784762D01*
X133686190Y-103284762D02*
X133686190Y-102999048D01*
X133686190Y-103141905D02*
X133186190Y-103141905D01*
X133257619Y-103094286D01*
X133305238Y-103046667D01*
X133329048Y-102999048D01*
X132590952Y-96716190D02*
X132590952Y-97120952D01*
X132567143Y-97168571D01*
X132543333Y-97192381D01*
X132495714Y-97216190D01*
X132400476Y-97216190D01*
X132352857Y-97192381D01*
X132329048Y-97168571D01*
X132305238Y-97120952D01*
X132305238Y-96716190D01*
X132090952Y-96763810D02*
X132067142Y-96740000D01*
X132019523Y-96716190D01*
X131900476Y-96716190D01*
X131852857Y-96740000D01*
X131829047Y-96763810D01*
X131805238Y-96811429D01*
X131805238Y-96859048D01*
X131829047Y-96930476D01*
X132114761Y-97216190D01*
X131805238Y-97216190D01*
X127158571Y-95036667D02*
X127182381Y-95012857D01*
X127206190Y-94941429D01*
X127206190Y-94893810D01*
X127182381Y-94822381D01*
X127134762Y-94774762D01*
X127087143Y-94750953D01*
X126991905Y-94727143D01*
X126920476Y-94727143D01*
X126825238Y-94750953D01*
X126777619Y-94774762D01*
X126730000Y-94822381D01*
X126706190Y-94893810D01*
X126706190Y-94941429D01*
X126730000Y-95012857D01*
X126753810Y-95036667D01*
X127206190Y-95512857D02*
X127206190Y-95227143D01*
X127206190Y-95370000D02*
X126706190Y-95370000D01*
X126777619Y-95322381D01*
X126825238Y-95274762D01*
X126849048Y-95227143D01*
X149896190Y-94586667D02*
X149658095Y-94420000D01*
X149896190Y-94300953D02*
X149396190Y-94300953D01*
X149396190Y-94491429D01*
X149420000Y-94539048D01*
X149443810Y-94562857D01*
X149491429Y-94586667D01*
X149562857Y-94586667D01*
X149610476Y-94562857D01*
X149634286Y-94539048D01*
X149658095Y-94491429D01*
X149658095Y-94300953D01*
X149896190Y-95062857D02*
X149896190Y-94777143D01*
X149896190Y-94920000D02*
X149396190Y-94920000D01*
X149467619Y-94872381D01*
X149515238Y-94824762D01*
X149539048Y-94777143D01*
X134441190Y-82226667D02*
X134203095Y-82060000D01*
X134441190Y-81940953D02*
X133941190Y-81940953D01*
X133941190Y-82131429D01*
X133965000Y-82179048D01*
X133988810Y-82202857D01*
X134036429Y-82226667D01*
X134107857Y-82226667D01*
X134155476Y-82202857D01*
X134179286Y-82179048D01*
X134203095Y-82131429D01*
X134203095Y-81940953D01*
X133988810Y-82417143D02*
X133965000Y-82440953D01*
X133941190Y-82488572D01*
X133941190Y-82607619D01*
X133965000Y-82655238D01*
X133988810Y-82679048D01*
X134036429Y-82702857D01*
X134084048Y-82702857D01*
X134155476Y-82679048D01*
X134441190Y-82393334D01*
X134441190Y-82702857D01*
X143231190Y-82171667D02*
X142993095Y-82005000D01*
X143231190Y-81885953D02*
X142731190Y-81885953D01*
X142731190Y-82076429D01*
X142755000Y-82124048D01*
X142778810Y-82147857D01*
X142826429Y-82171667D01*
X142897857Y-82171667D01*
X142945476Y-82147857D01*
X142969286Y-82124048D01*
X142993095Y-82076429D01*
X142993095Y-81885953D01*
X142731190Y-82338334D02*
X142731190Y-82647857D01*
X142921667Y-82481191D01*
X142921667Y-82552619D01*
X142945476Y-82600238D01*
X142969286Y-82624048D01*
X143016905Y-82647857D01*
X143135952Y-82647857D01*
X143183571Y-82624048D01*
X143207381Y-82600238D01*
X143231190Y-82552619D01*
X143231190Y-82409762D01*
X143207381Y-82362143D01*
X143183571Y-82338334D01*
X150958333Y-83576190D02*
X151125000Y-83338095D01*
X151244047Y-83576190D02*
X151244047Y-83076190D01*
X151053571Y-83076190D01*
X151005952Y-83100000D01*
X150982143Y-83123810D01*
X150958333Y-83171429D01*
X150958333Y-83242857D01*
X150982143Y-83290476D01*
X151005952Y-83314286D01*
X151053571Y-83338095D01*
X151244047Y-83338095D01*
X150505952Y-83076190D02*
X150744047Y-83076190D01*
X150767857Y-83314286D01*
X150744047Y-83290476D01*
X150696428Y-83266667D01*
X150577381Y-83266667D01*
X150529762Y-83290476D01*
X150505952Y-83314286D01*
X150482143Y-83361905D01*
X150482143Y-83480952D01*
X150505952Y-83528571D01*
X150529762Y-83552381D01*
X150577381Y-83576190D01*
X150696428Y-83576190D01*
X150744047Y-83552381D01*
X150767857Y-83528571D01*
X155708333Y-91576190D02*
X155875000Y-91338095D01*
X155994047Y-91576190D02*
X155994047Y-91076190D01*
X155803571Y-91076190D01*
X155755952Y-91100000D01*
X155732143Y-91123810D01*
X155708333Y-91171429D01*
X155708333Y-91242857D01*
X155732143Y-91290476D01*
X155755952Y-91314286D01*
X155803571Y-91338095D01*
X155994047Y-91338095D01*
X155279762Y-91076190D02*
X155375000Y-91076190D01*
X155422619Y-91100000D01*
X155446428Y-91123810D01*
X155494047Y-91195238D01*
X155517857Y-91290476D01*
X155517857Y-91480952D01*
X155494047Y-91528571D01*
X155470238Y-91552381D01*
X155422619Y-91576190D01*
X155327381Y-91576190D01*
X155279762Y-91552381D01*
X155255952Y-91528571D01*
X155232143Y-91480952D01*
X155232143Y-91361905D01*
X155255952Y-91314286D01*
X155279762Y-91290476D01*
X155327381Y-91266667D01*
X155422619Y-91266667D01*
X155470238Y-91290476D01*
X155494047Y-91314286D01*
X155517857Y-91361905D01*
X155208333Y-101951190D02*
X155375000Y-101713095D01*
X155494047Y-101951190D02*
X155494047Y-101451190D01*
X155303571Y-101451190D01*
X155255952Y-101475000D01*
X155232143Y-101498810D01*
X155208333Y-101546429D01*
X155208333Y-101617857D01*
X155232143Y-101665476D01*
X155255952Y-101689286D01*
X155303571Y-101713095D01*
X155494047Y-101713095D01*
X155041666Y-101451190D02*
X154708333Y-101451190D01*
X154922619Y-101951190D01*
X152033333Y-106601190D02*
X152200000Y-106363095D01*
X152319047Y-106601190D02*
X152319047Y-106101190D01*
X152128571Y-106101190D01*
X152080952Y-106125000D01*
X152057143Y-106148810D01*
X152033333Y-106196429D01*
X152033333Y-106267857D01*
X152057143Y-106315476D01*
X152080952Y-106339286D01*
X152128571Y-106363095D01*
X152319047Y-106363095D01*
X151747619Y-106315476D02*
X151795238Y-106291667D01*
X151819047Y-106267857D01*
X151842857Y-106220238D01*
X151842857Y-106196429D01*
X151819047Y-106148810D01*
X151795238Y-106125000D01*
X151747619Y-106101190D01*
X151652381Y-106101190D01*
X151604762Y-106125000D01*
X151580952Y-106148810D01*
X151557143Y-106196429D01*
X151557143Y-106220238D01*
X151580952Y-106267857D01*
X151604762Y-106291667D01*
X151652381Y-106315476D01*
X151747619Y-106315476D01*
X151795238Y-106339286D01*
X151819047Y-106363095D01*
X151842857Y-106410714D01*
X151842857Y-106505952D01*
X151819047Y-106553571D01*
X151795238Y-106577381D01*
X151747619Y-106601190D01*
X151652381Y-106601190D01*
X151604762Y-106577381D01*
X151580952Y-106553571D01*
X151557143Y-106505952D01*
X151557143Y-106410714D01*
X151580952Y-106363095D01*
X151604762Y-106339286D01*
X151652381Y-106315476D01*
X146976190Y-111491667D02*
X146738095Y-111325000D01*
X146976190Y-111205953D02*
X146476190Y-111205953D01*
X146476190Y-111396429D01*
X146500000Y-111444048D01*
X146523810Y-111467857D01*
X146571429Y-111491667D01*
X146642857Y-111491667D01*
X146690476Y-111467857D01*
X146714286Y-111444048D01*
X146738095Y-111396429D01*
X146738095Y-111205953D01*
X146976190Y-111729762D02*
X146976190Y-111825000D01*
X146952381Y-111872619D01*
X146928571Y-111896429D01*
X146857143Y-111944048D01*
X146761905Y-111967857D01*
X146571429Y-111967857D01*
X146523810Y-111944048D01*
X146500000Y-111920238D01*
X146476190Y-111872619D01*
X146476190Y-111777381D01*
X146500000Y-111729762D01*
X146523810Y-111705953D01*
X146571429Y-111682143D01*
X146690476Y-111682143D01*
X146738095Y-111705953D01*
X146761905Y-111729762D01*
X146785714Y-111777381D01*
X146785714Y-111872619D01*
X146761905Y-111920238D01*
X146738095Y-111944048D01*
X146690476Y-111967857D01*
X137026190Y-111228572D02*
X136788095Y-111061905D01*
X137026190Y-110942858D02*
X136526190Y-110942858D01*
X136526190Y-111133334D01*
X136550000Y-111180953D01*
X136573810Y-111204762D01*
X136621429Y-111228572D01*
X136692857Y-111228572D01*
X136740476Y-111204762D01*
X136764286Y-111180953D01*
X136788095Y-111133334D01*
X136788095Y-110942858D01*
X137026190Y-111704762D02*
X137026190Y-111419048D01*
X137026190Y-111561905D02*
X136526190Y-111561905D01*
X136597619Y-111514286D01*
X136645238Y-111466667D01*
X136669048Y-111419048D01*
X136526190Y-112014286D02*
X136526190Y-112061905D01*
X136550000Y-112109524D01*
X136573810Y-112133333D01*
X136621429Y-112157143D01*
X136716667Y-112180952D01*
X136835714Y-112180952D01*
X136930952Y-112157143D01*
X136978571Y-112133333D01*
X137002381Y-112109524D01*
X137026190Y-112061905D01*
X137026190Y-112014286D01*
X137002381Y-111966667D01*
X136978571Y-111942857D01*
X136930952Y-111919048D01*
X136835714Y-111895238D01*
X136716667Y-111895238D01*
X136621429Y-111919048D01*
X136573810Y-111942857D01*
X136550000Y-111966667D01*
X136526190Y-112014286D01*
X128591190Y-111163572D02*
X128353095Y-110996905D01*
X128591190Y-110877858D02*
X128091190Y-110877858D01*
X128091190Y-111068334D01*
X128115000Y-111115953D01*
X128138810Y-111139762D01*
X128186429Y-111163572D01*
X128257857Y-111163572D01*
X128305476Y-111139762D01*
X128329286Y-111115953D01*
X128353095Y-111068334D01*
X128353095Y-110877858D01*
X128591190Y-111639762D02*
X128591190Y-111354048D01*
X128591190Y-111496905D02*
X128091190Y-111496905D01*
X128162619Y-111449286D01*
X128210238Y-111401667D01*
X128234048Y-111354048D01*
X128591190Y-112115952D02*
X128591190Y-111830238D01*
X128591190Y-111973095D02*
X128091190Y-111973095D01*
X128162619Y-111925476D01*
X128210238Y-111877857D01*
X128234048Y-111830238D01*
X122941428Y-102336190D02*
X123108095Y-102098095D01*
X123227142Y-102336190D02*
X123227142Y-101836190D01*
X123036666Y-101836190D01*
X122989047Y-101860000D01*
X122965238Y-101883810D01*
X122941428Y-101931429D01*
X122941428Y-102002857D01*
X122965238Y-102050476D01*
X122989047Y-102074286D01*
X123036666Y-102098095D01*
X123227142Y-102098095D01*
X122465238Y-102336190D02*
X122750952Y-102336190D01*
X122608095Y-102336190D02*
X122608095Y-101836190D01*
X122655714Y-101907619D01*
X122703333Y-101955238D01*
X122750952Y-101979048D01*
X122274762Y-101883810D02*
X122250952Y-101860000D01*
X122203333Y-101836190D01*
X122084286Y-101836190D01*
X122036667Y-101860000D01*
X122012857Y-101883810D01*
X121989048Y-101931429D01*
X121989048Y-101979048D01*
X122012857Y-102050476D01*
X122298571Y-102336190D01*
X121989048Y-102336190D01*
X123471428Y-93226190D02*
X123638095Y-92988095D01*
X123757142Y-93226190D02*
X123757142Y-92726190D01*
X123566666Y-92726190D01*
X123519047Y-92750000D01*
X123495238Y-92773810D01*
X123471428Y-92821429D01*
X123471428Y-92892857D01*
X123495238Y-92940476D01*
X123519047Y-92964286D01*
X123566666Y-92988095D01*
X123757142Y-92988095D01*
X122995238Y-93226190D02*
X123280952Y-93226190D01*
X123138095Y-93226190D02*
X123138095Y-92726190D01*
X123185714Y-92797619D01*
X123233333Y-92845238D01*
X123280952Y-92869048D01*
X122828571Y-92726190D02*
X122519048Y-92726190D01*
X122685714Y-92916667D01*
X122614286Y-92916667D01*
X122566667Y-92940476D01*
X122542857Y-92964286D01*
X122519048Y-93011905D01*
X122519048Y-93130952D01*
X122542857Y-93178571D01*
X122566667Y-93202381D01*
X122614286Y-93226190D01*
X122757143Y-93226190D01*
X122804762Y-93202381D01*
X122828571Y-93178571D01*
X125896428Y-87426190D02*
X126063095Y-87188095D01*
X126182142Y-87426190D02*
X126182142Y-86926190D01*
X125991666Y-86926190D01*
X125944047Y-86950000D01*
X125920238Y-86973810D01*
X125896428Y-87021429D01*
X125896428Y-87092857D01*
X125920238Y-87140476D01*
X125944047Y-87164286D01*
X125991666Y-87188095D01*
X126182142Y-87188095D01*
X125420238Y-87426190D02*
X125705952Y-87426190D01*
X125563095Y-87426190D02*
X125563095Y-86926190D01*
X125610714Y-86997619D01*
X125658333Y-87045238D01*
X125705952Y-87069048D01*
X124991667Y-87092857D02*
X124991667Y-87426190D01*
X125110714Y-86902381D02*
X125229762Y-87259524D01*
X124920238Y-87259524D01*
M02*
