G04 #@! TF.FileFunction,Copper,L4,Bot,Plane*
%FSLAX46Y46*%
G04 Gerber Fmt 4.6, Leading zero omitted, Abs format (unit mm)*
G04 Created by KiCad (PCBNEW 4.0.7-e2-6376~58~ubuntu16.04.1) date Tue Jul 31 10:53:18 2018*
%MOMM*%
%LPD*%
G01*
G04 APERTURE LIST*
%ADD10C,0.100000*%
%ADD11C,1.050000*%
%ADD12R,1.050000X1.050000*%
%ADD13R,1.000000X1.600000*%
%ADD14R,0.500000X1.250000*%
%ADD15R,0.850000X0.300000*%
%ADD16R,0.300000X0.850000*%
%ADD17R,1.250000X0.500000*%
%ADD18R,0.800000X0.900000*%
%ADD19R,0.500000X0.600000*%
%ADD20R,0.600000X0.400000*%
%ADD21R,0.400000X0.600000*%
%ADD22C,0.600000*%
%ADD23C,0.800000*%
%ADD24C,0.250000*%
%ADD25C,0.300000*%
%ADD26C,0.500000*%
%ADD27C,0.351000*%
G04 APERTURE END LIST*
D10*
D11*
X130000000Y-86000000D03*
X146000000Y-86000000D03*
D12*
X148000000Y-86000000D03*
D11*
X134000000Y-86000000D03*
X132000000Y-86000000D03*
X144000000Y-86000000D03*
X142000000Y-86000000D03*
X136000000Y-86000000D03*
X138000000Y-86000000D03*
X140000000Y-86000000D03*
D13*
X148000000Y-87600000D03*
X146000000Y-84400000D03*
X144000000Y-87600000D03*
X142000000Y-84400000D03*
X140000000Y-87600000D03*
X138000000Y-84400000D03*
X136000000Y-87600000D03*
X134000000Y-84400000D03*
X132000000Y-87600000D03*
X130000000Y-84400000D03*
D11*
X148000000Y-86000000D03*
X146000000Y-86000000D03*
X144000000Y-86000000D03*
X142000000Y-86000000D03*
X140000000Y-86000000D03*
X138000000Y-86000000D03*
X136000000Y-86000000D03*
X134000000Y-86000000D03*
X132000000Y-86000000D03*
X130000000Y-86000000D03*
D14*
X130980000Y-80540000D03*
X128480000Y-80540000D03*
X140260000Y-80570000D03*
X137760000Y-80570000D03*
X149530000Y-80550000D03*
X147030000Y-80550000D03*
X147040000Y-113450000D03*
X149540000Y-113450000D03*
X128470000Y-113390000D03*
X130970000Y-113390000D03*
D15*
X134160000Y-95730000D03*
X134160000Y-96230000D03*
X134160000Y-96730000D03*
X134160000Y-97230000D03*
X134160000Y-97730000D03*
X134160000Y-98230000D03*
D16*
X133460000Y-98930000D03*
X132960000Y-98930000D03*
X132460000Y-98930000D03*
X131960000Y-98930000D03*
X131460000Y-98930000D03*
X130960000Y-98930000D03*
D15*
X130260000Y-98230000D03*
X130260000Y-97730000D03*
X130260000Y-97230000D03*
X130260000Y-96730000D03*
X130260000Y-96230000D03*
X130260000Y-95730000D03*
D16*
X130960000Y-95030000D03*
X131460000Y-95030000D03*
X131960000Y-95030000D03*
X132460000Y-95030000D03*
X132960000Y-95030000D03*
X133460000Y-95030000D03*
D10*
G36*
X156872601Y-87248718D02*
X155988718Y-88132601D01*
X155635165Y-87779048D01*
X156519048Y-86895165D01*
X156872601Y-87248718D01*
X156872601Y-87248718D01*
G37*
G36*
X155104835Y-85480952D02*
X154220952Y-86364835D01*
X153867399Y-86011282D01*
X154751282Y-85127399D01*
X155104835Y-85480952D01*
X155104835Y-85480952D01*
G37*
D17*
X157120000Y-98250000D03*
X157120000Y-95750000D03*
X120860000Y-95760000D03*
X120860000Y-98260000D03*
D14*
X137750000Y-113450000D03*
X140250000Y-113450000D03*
D10*
G36*
X121127399Y-106811282D02*
X122011282Y-105927399D01*
X122364835Y-106280952D01*
X121480952Y-107164835D01*
X121127399Y-106811282D01*
X121127399Y-106811282D01*
G37*
G36*
X122895165Y-108579048D02*
X123779048Y-107695165D01*
X124132601Y-108048718D01*
X123248718Y-108932601D01*
X122895165Y-108579048D01*
X122895165Y-108579048D01*
G37*
G36*
X154771282Y-108902601D02*
X153887399Y-108018718D01*
X154240952Y-107665165D01*
X155124835Y-108549048D01*
X154771282Y-108902601D01*
X154771282Y-108902601D01*
G37*
G36*
X156539048Y-107134835D02*
X155655165Y-106250952D01*
X156008718Y-105897399D01*
X156892601Y-106781282D01*
X156539048Y-107134835D01*
X156539048Y-107134835D01*
G37*
G36*
X123268718Y-85117399D02*
X124152601Y-86001282D01*
X123799048Y-86354835D01*
X122915165Y-85470952D01*
X123268718Y-85117399D01*
X123268718Y-85117399D01*
G37*
G36*
X121500952Y-86885165D02*
X122384835Y-87769048D01*
X122031282Y-88122601D01*
X121147399Y-87238718D01*
X121500952Y-86885165D01*
X121500952Y-86885165D01*
G37*
D18*
X131890000Y-103860000D03*
X129990000Y-103860000D03*
X130940000Y-101860000D03*
D19*
X127880000Y-94620000D03*
X127880000Y-95720000D03*
D20*
X151000000Y-94200000D03*
X151000000Y-95100000D03*
D21*
X133370000Y-82290000D03*
X132470000Y-82290000D03*
X142175000Y-82275000D03*
X141275000Y-82275000D03*
X151275000Y-82325000D03*
X150375000Y-82325000D03*
D20*
X155625000Y-90550000D03*
X155625000Y-89650000D03*
X155125000Y-100875000D03*
X155125000Y-99975000D03*
X151975000Y-108050000D03*
X151975000Y-107150000D03*
D21*
X145075000Y-111575000D03*
X145975000Y-111575000D03*
X135000000Y-111675000D03*
X135900000Y-111675000D03*
X126725000Y-111425000D03*
X127625000Y-111425000D03*
D20*
X122625000Y-102900000D03*
X122625000Y-103800000D03*
X123150000Y-93800000D03*
X123150000Y-94700000D03*
X125550000Y-85450000D03*
X125550000Y-86350000D03*
D11*
X130000000Y-108000000D03*
X146000000Y-108000000D03*
D12*
X148000000Y-108000000D03*
D11*
X134000000Y-108000000D03*
X132000000Y-108000000D03*
X144000000Y-108000000D03*
X142000000Y-108000000D03*
X136000000Y-108000000D03*
X138000000Y-108000000D03*
X140000000Y-108000000D03*
D13*
X148000000Y-106400000D03*
X146000000Y-109600000D03*
X144000000Y-106400000D03*
X142000000Y-109600000D03*
X140000000Y-106400000D03*
X138000000Y-109600000D03*
X136000000Y-106400000D03*
X134000000Y-109600000D03*
X132000000Y-106400000D03*
X130000000Y-109600000D03*
D11*
X148000000Y-108000000D03*
X146000000Y-108000000D03*
X144000000Y-108000000D03*
X142000000Y-108000000D03*
X140000000Y-108000000D03*
X138000000Y-108000000D03*
X136000000Y-108000000D03*
X134000000Y-108000000D03*
X132000000Y-108000000D03*
X130000000Y-108000000D03*
D22*
X130150000Y-101880000D03*
X134400000Y-101890000D03*
X126725000Y-112575000D03*
X151420000Y-80640000D03*
X133500000Y-80750000D03*
X142720000Y-80750000D03*
X156970000Y-90180000D03*
X156970000Y-100910000D03*
X152580000Y-110030000D03*
X144450000Y-113310000D03*
X134970000Y-113310000D03*
X121050000Y-103480000D03*
X125240000Y-84160000D03*
X121050000Y-93080000D03*
X133225000Y-93200000D03*
X127890000Y-93330000D03*
X132220000Y-93240000D03*
X126810000Y-106760000D03*
X153830000Y-104230000D03*
X132230000Y-110020000D03*
X140260000Y-110030000D03*
X153830000Y-94500000D03*
X150770000Y-107350000D03*
X136510000Y-83840000D03*
X127220000Y-86850000D03*
X124360000Y-91870000D03*
X124370000Y-99490000D03*
X151370000Y-87080000D03*
X144000000Y-83840000D03*
X149610000Y-95750000D03*
X151020000Y-98940000D03*
X134330000Y-93240000D03*
X131890000Y-92010000D03*
X137470000Y-94700000D03*
X124270000Y-105760000D03*
X139010000Y-111220000D03*
X124220000Y-88190000D03*
X123170000Y-97000000D03*
X148290000Y-111210000D03*
X153890000Y-105900000D03*
X154970000Y-97000000D03*
X153920000Y-88070000D03*
X139010000Y-82680000D03*
X129730000Y-82680000D03*
X148290000Y-82680000D03*
X129740000Y-111220000D03*
X138150000Y-94060000D03*
X130570000Y-93630000D03*
X122600000Y-88340000D03*
X122030000Y-98250000D03*
X124370000Y-107440000D03*
X130980000Y-112290000D03*
X140260000Y-112290000D03*
X149540000Y-112290000D03*
X155410000Y-105650000D03*
X155900000Y-95750000D03*
X153660000Y-86570000D03*
X137760000Y-81810000D03*
X147030000Y-81810000D03*
X128480000Y-81810000D03*
X128750000Y-96775000D03*
D23*
X130000000Y-84400000D02*
X130000000Y-86000000D01*
D24*
X132460000Y-98940000D02*
X132460000Y-100470000D01*
X130150000Y-101880000D02*
X130960000Y-101880000D01*
X133880000Y-101890000D02*
X134400000Y-101890000D01*
X132460000Y-100470000D02*
X133880000Y-101890000D01*
X133375000Y-82300000D02*
X133375000Y-80875000D01*
X133375000Y-80875000D02*
X133500000Y-80750000D01*
X142175000Y-82275000D02*
X142175000Y-81295000D01*
X142175000Y-81295000D02*
X142720000Y-80750000D01*
X151275000Y-82325000D02*
X151275000Y-80785000D01*
X151275000Y-80785000D02*
X151420000Y-80640000D01*
X155625000Y-90550000D02*
X156600000Y-90550000D01*
X156600000Y-90550000D02*
X156970000Y-90180000D01*
X155125000Y-100875000D02*
X156935000Y-100875000D01*
X156935000Y-100875000D02*
X156970000Y-100910000D01*
X151975000Y-108050000D02*
X151975000Y-109425000D01*
X151975000Y-109425000D02*
X152580000Y-110030000D01*
X145075000Y-111575000D02*
X145075000Y-112685000D01*
X145075000Y-112685000D02*
X144450000Y-113310000D01*
X135000000Y-111675000D02*
X135000000Y-113280000D01*
X135000000Y-113280000D02*
X134970000Y-113310000D01*
X126740000Y-111410000D02*
X126740000Y-112560000D01*
X126740000Y-112560000D02*
X126725000Y-112575000D01*
X122620000Y-102910000D02*
X121620000Y-102910000D01*
X121620000Y-102910000D02*
X121050000Y-103480000D01*
X123150000Y-93800000D02*
X121770000Y-93800000D01*
X121770000Y-93800000D02*
X121050000Y-93080000D01*
X125550000Y-85500000D02*
X125550000Y-84470000D01*
X125550000Y-84470000D02*
X125240000Y-84160000D01*
X130260000Y-95740000D02*
X129075000Y-95740000D01*
X129075000Y-95740000D02*
X127920000Y-95740000D01*
X127920000Y-95740000D02*
X127890000Y-95710000D01*
X133460000Y-95040000D02*
X133460000Y-93435000D01*
X132960000Y-93415000D02*
X132960000Y-95040000D01*
X133225000Y-93200000D02*
X133225000Y-90925000D01*
X132630000Y-90330000D02*
X130000000Y-90330000D01*
X133225000Y-90925000D02*
X132630000Y-90330000D01*
X133225000Y-93200000D02*
X133325000Y-93300000D01*
X130000000Y-90330000D02*
X130000000Y-90500000D01*
X130000000Y-92650000D02*
X130000000Y-92675000D01*
X129075000Y-93600000D02*
X129075000Y-95740000D01*
X130000000Y-92675000D02*
X129075000Y-93600000D01*
X130000000Y-90500000D02*
X130000000Y-92650000D01*
X133460000Y-93435000D02*
X133325000Y-93300000D01*
X133325000Y-93300000D02*
X133075000Y-93300000D01*
X133075000Y-93300000D02*
X132960000Y-93415000D01*
X130000000Y-84825000D02*
X130000000Y-90330000D01*
D23*
X148000000Y-86000000D02*
X148000000Y-87600000D01*
D25*
X151000000Y-94200000D02*
X153530000Y-94200000D01*
X153530000Y-94200000D02*
X153830000Y-94500000D01*
D24*
X127890000Y-93330000D02*
X127890000Y-94610000D01*
X131960000Y-95040000D02*
X131960000Y-93500000D01*
X131960000Y-93500000D02*
X132220000Y-93240000D01*
D25*
X151020000Y-95120000D02*
X150100000Y-95120000D01*
X150100000Y-95120000D02*
X149610000Y-95610000D01*
X149610000Y-95610000D02*
X149610000Y-95750000D01*
D24*
X134160000Y-93410000D02*
X134330000Y-93240000D01*
X134160000Y-95740000D02*
X134160000Y-93410000D01*
D23*
X142000000Y-86000000D02*
X142000000Y-84400000D01*
D24*
X131460000Y-95040000D02*
X131460000Y-92440000D01*
X131460000Y-92440000D02*
X131890000Y-92010000D01*
D23*
X140000000Y-86000000D02*
X140000000Y-87600000D01*
D24*
X130960000Y-95040000D02*
X130960000Y-94020000D01*
X130960000Y-94020000D02*
X130570000Y-93630000D01*
D26*
X122600000Y-88340000D02*
X121836117Y-87576117D01*
X121836117Y-87576117D02*
X121836117Y-87573883D01*
X122030000Y-98250000D02*
X120950000Y-98250000D01*
X124370000Y-107440000D02*
X123616117Y-108193883D01*
X123616117Y-108193883D02*
X123603883Y-108193883D01*
X130980000Y-112290000D02*
X130980000Y-113360000D01*
X140260000Y-112290000D02*
X140260000Y-113360000D01*
X149540000Y-112290000D02*
X149540000Y-113360000D01*
X155410000Y-105650000D02*
X156183883Y-106423883D01*
X156183883Y-106423883D02*
X156183883Y-106426117D01*
X157060000Y-95750000D02*
X155900000Y-95750000D01*
X153660000Y-86570000D02*
X154416117Y-85813883D01*
X154416117Y-85813883D02*
X154416117Y-85806117D01*
X137760000Y-80640000D02*
X137760000Y-81810000D01*
X128480000Y-80640000D02*
X128480000Y-81810000D01*
X147040000Y-81800000D02*
X147040000Y-80640000D01*
X147030000Y-81810000D02*
X147040000Y-81800000D01*
D24*
X132475000Y-82300000D02*
X131830000Y-82300000D01*
X131830000Y-82300000D02*
X131480000Y-82650000D01*
X134150000Y-96240000D02*
X134910000Y-96240000D01*
X130980000Y-82150000D02*
X130980000Y-80640000D01*
X133010000Y-84180000D02*
X131480000Y-82650000D01*
X131480000Y-82650000D02*
X130980000Y-82150000D01*
X133010000Y-89150000D02*
X133010000Y-84180000D01*
X135100000Y-91240000D02*
X133010000Y-89150000D01*
X135100000Y-96050000D02*
X135100000Y-91240000D01*
X134910000Y-96240000D02*
X135100000Y-96050000D01*
X139010000Y-85010000D02*
X140250000Y-83770000D01*
X139010000Y-88110000D02*
X139010000Y-85010000D01*
X135670000Y-91450000D02*
X139010000Y-88110000D01*
X135670000Y-96290000D02*
X135670000Y-91450000D01*
X140250000Y-83770000D02*
X140250000Y-82100000D01*
X135220000Y-96740000D02*
X135670000Y-96290000D01*
X140425000Y-82275000D02*
X140250000Y-82100000D01*
X141275000Y-82275000D02*
X140425000Y-82275000D01*
X134150000Y-96740000D02*
X135220000Y-96740000D01*
X140250000Y-82100000D02*
X140250000Y-80640000D01*
X150375000Y-82325000D02*
X149725000Y-82325000D01*
X149725000Y-82325000D02*
X149540000Y-82140000D01*
X134150000Y-97240000D02*
X135640000Y-97240000D01*
X149540000Y-89040000D02*
X149540000Y-82140000D01*
X149540000Y-82140000D02*
X149540000Y-80640000D01*
X148950000Y-89630000D02*
X149540000Y-89040000D01*
X139250000Y-89630000D02*
X148950000Y-89630000D01*
X136240000Y-92640000D02*
X139250000Y-89630000D01*
X136240000Y-96640000D02*
X136240000Y-92640000D01*
X135640000Y-97240000D02*
X136240000Y-96640000D01*
X155625000Y-89650000D02*
X155625000Y-89055000D01*
X155625000Y-89055000D02*
X155163883Y-88593883D01*
X134160000Y-97740000D02*
X136210000Y-97740000D01*
X152817766Y-90940000D02*
X155163883Y-88593883D01*
X155163883Y-88593883D02*
X156183883Y-87573883D01*
X139630000Y-90940000D02*
X152817766Y-90940000D01*
X136780000Y-93790000D02*
X139630000Y-90940000D01*
X136780000Y-97170000D02*
X136780000Y-93790000D01*
X136210000Y-97740000D02*
X136780000Y-97170000D01*
X155125000Y-99975000D02*
X155125000Y-99565000D01*
X155125000Y-99565000D02*
X154630000Y-99070000D01*
X134160000Y-98240000D02*
X135460000Y-98240000D01*
X155450000Y-98250000D02*
X157080000Y-98250000D01*
X151250000Y-102450000D02*
X154630000Y-99070000D01*
X154630000Y-99070000D02*
X155450000Y-98250000D01*
X139670000Y-102450000D02*
X151250000Y-102450000D01*
X135460000Y-98240000D02*
X139670000Y-102450000D01*
X134170000Y-98250000D02*
X134160000Y-98240000D01*
X151975000Y-107150000D02*
X151975000Y-106735000D01*
X151975000Y-106735000D02*
X152471117Y-106238883D01*
X133460000Y-98940000D02*
X133460000Y-99785000D01*
X149782234Y-103550000D02*
X152471117Y-106238883D01*
X152471117Y-106238883D02*
X154466117Y-108233883D01*
X139710000Y-103550000D02*
X149782234Y-103550000D01*
X136210000Y-100050000D02*
X139710000Y-103550000D01*
X133725000Y-100050000D02*
X136210000Y-100050000D01*
X133460000Y-99785000D02*
X133725000Y-100050000D01*
X145975000Y-111575000D02*
X146685000Y-111575000D01*
X146685000Y-111575000D02*
X147000000Y-111890000D01*
X132960000Y-98940000D02*
X132960000Y-100060000D01*
X147000000Y-106550000D02*
X147000000Y-111890000D01*
X147000000Y-111890000D02*
X147000000Y-113325000D01*
X144925000Y-104475000D02*
X147000000Y-106550000D01*
X139650000Y-104475000D02*
X144925000Y-104475000D01*
X135950000Y-100775000D02*
X139650000Y-104475000D01*
X133675000Y-100775000D02*
X135950000Y-100775000D01*
X132960000Y-100060000D02*
X133675000Y-100775000D01*
X147000000Y-113325000D02*
X147025000Y-113350000D01*
X135900000Y-111675000D02*
X136965000Y-111675000D01*
X136965000Y-111675000D02*
X137170000Y-111470000D01*
X131960000Y-98940000D02*
X131960000Y-101010000D01*
X137750000Y-112050000D02*
X137750000Y-113350000D01*
X135000000Y-109300000D02*
X137170000Y-111470000D01*
X137170000Y-111470000D02*
X137750000Y-112050000D01*
X135000000Y-104050000D02*
X135000000Y-109300000D01*
X131960000Y-101010000D02*
X135000000Y-104050000D01*
X127640000Y-111410000D02*
X128190000Y-111410000D01*
X128190000Y-111410000D02*
X128480000Y-111700000D01*
X131460000Y-98940000D02*
X131460000Y-100440000D01*
X128480000Y-101105000D02*
X128480000Y-111700000D01*
X128480000Y-111700000D02*
X128480000Y-113360000D01*
X128810000Y-100775000D02*
X128480000Y-101105000D01*
X131125000Y-100775000D02*
X128810000Y-100775000D01*
X131460000Y-100440000D02*
X131125000Y-100775000D01*
X122620000Y-103810000D02*
X122620000Y-104340000D01*
X122620000Y-104340000D02*
X123268617Y-104988617D01*
X130960000Y-98940000D02*
X130960000Y-99915000D01*
X128132234Y-100125000D02*
X123268617Y-104988617D01*
X123268617Y-104988617D02*
X121841117Y-106416117D01*
X130750000Y-100125000D02*
X128132234Y-100125000D01*
X130960000Y-99915000D02*
X130750000Y-100125000D01*
X123150000Y-94700000D02*
X123150000Y-95430000D01*
X123150000Y-95430000D02*
X123470000Y-95750000D01*
X130260000Y-98240000D02*
X126790000Y-98240000D01*
X124300000Y-95750000D02*
X123470000Y-95750000D01*
X123470000Y-95750000D02*
X120925000Y-95750000D01*
X126790000Y-98240000D02*
X124300000Y-95750000D01*
X125550000Y-86400000D02*
X125550000Y-87757234D01*
X125550000Y-87757234D02*
X125700000Y-87907234D01*
X130260000Y-97740000D02*
X127390000Y-97740000D01*
X125700000Y-87907234D02*
X123608883Y-85816117D01*
X125700000Y-96050000D02*
X125700000Y-88925000D01*
X125700000Y-88925000D02*
X125700000Y-87907234D01*
X127390000Y-97740000D02*
X125700000Y-96050000D01*
D23*
X134000000Y-109600000D02*
X134000000Y-108000000D01*
D26*
X131910000Y-103880000D02*
X133190000Y-103880000D01*
X134000000Y-104690000D02*
X134000000Y-108000000D01*
X133190000Y-103880000D02*
X134000000Y-104690000D01*
X134000000Y-108000000D02*
X134000000Y-109175000D01*
D24*
X130260000Y-96240000D02*
X129285000Y-96240000D01*
X129285000Y-96240000D02*
X128750000Y-96775000D01*
D23*
X130000000Y-108000000D02*
X130000000Y-109600000D01*
X146000000Y-109600000D02*
X146000000Y-108000000D01*
X148000000Y-106400000D02*
X148000000Y-108000000D01*
X132000000Y-106400000D02*
X132000000Y-108000000D01*
X144000000Y-106400000D02*
X144000000Y-108000000D01*
X142000000Y-109600000D02*
X142000000Y-108000000D01*
X136000000Y-106400000D02*
X136000000Y-108000000D01*
X138000000Y-109600000D02*
X138000000Y-108000000D01*
X140000000Y-106400000D02*
X140000000Y-108000000D01*
X146000000Y-84400000D02*
X146000000Y-86000000D01*
X134000000Y-86000000D02*
X134000000Y-84400000D01*
X132000000Y-86000000D02*
X132000000Y-87600000D01*
X144000000Y-86000000D02*
X144000000Y-87600000D01*
X136000000Y-86000000D02*
X136000000Y-87600000D01*
X138000000Y-86000000D02*
X138000000Y-84400000D01*
D27*
G36*
X145124500Y-108501080D02*
X145124500Y-108507295D01*
X145053382Y-108611380D01*
X145015185Y-108800000D01*
X145015185Y-110400000D01*
X145048341Y-110576210D01*
X145152481Y-110738047D01*
X145228788Y-110790185D01*
X144875000Y-110790185D01*
X144698790Y-110823341D01*
X144536953Y-110927481D01*
X144428382Y-111086380D01*
X144390185Y-111275000D01*
X144390185Y-111875000D01*
X144423341Y-112051210D01*
X144474500Y-112130713D01*
X144474500Y-112436265D01*
X144376329Y-112534436D01*
X144296420Y-112534366D01*
X144011288Y-112652180D01*
X143792946Y-112870141D01*
X143674635Y-113155067D01*
X143674366Y-113463580D01*
X143689208Y-113499500D01*
X140984815Y-113499500D01*
X140984815Y-113363444D01*
X140985500Y-113360000D01*
X140985500Y-112565022D01*
X141035365Y-112444933D01*
X141035634Y-112136420D01*
X140917820Y-111851288D01*
X140699859Y-111632946D01*
X140414933Y-111514635D01*
X140106420Y-111514366D01*
X139821288Y-111632180D01*
X139602946Y-111850141D01*
X139484635Y-112135067D01*
X139484366Y-112443580D01*
X139534500Y-112564914D01*
X139534500Y-112729621D01*
X139515185Y-112825000D01*
X139515185Y-113499500D01*
X138484815Y-113499500D01*
X138484815Y-112825000D01*
X138451659Y-112648790D01*
X138350500Y-112491586D01*
X138350500Y-112050005D01*
X138350501Y-112050000D01*
X138304790Y-111820198D01*
X138174618Y-111625382D01*
X137594618Y-111045382D01*
X137594615Y-111045380D01*
X137417303Y-110868068D01*
X137500000Y-110884815D01*
X138309482Y-110884815D01*
X138234635Y-111065067D01*
X138234366Y-111373580D01*
X138352180Y-111658712D01*
X138570141Y-111877054D01*
X138855067Y-111995365D01*
X139163580Y-111995634D01*
X139448712Y-111877820D01*
X139667054Y-111659859D01*
X139785365Y-111374933D01*
X139785634Y-111066420D01*
X139667820Y-110781288D01*
X139449859Y-110562946D01*
X139164933Y-110444635D01*
X138975809Y-110444470D01*
X138984815Y-110400000D01*
X138984815Y-108800000D01*
X138951659Y-108623790D01*
X138875500Y-108505436D01*
X138875500Y-108500499D01*
X139000187Y-108200220D01*
X139151323Y-108565997D01*
X139432522Y-108847688D01*
X139800115Y-109000326D01*
X140198139Y-109000673D01*
X140565997Y-108848677D01*
X140847688Y-108567478D01*
X141000187Y-108200220D01*
X141124500Y-108501080D01*
X141124500Y-108507295D01*
X141053382Y-108611380D01*
X141015185Y-108800000D01*
X141015185Y-110400000D01*
X141048341Y-110576210D01*
X141152481Y-110738047D01*
X141311380Y-110846618D01*
X141500000Y-110884815D01*
X142500000Y-110884815D01*
X142676210Y-110851659D01*
X142838047Y-110747519D01*
X142946618Y-110588620D01*
X142984815Y-110400000D01*
X142984815Y-108800000D01*
X142951659Y-108623790D01*
X142875500Y-108505436D01*
X142875500Y-108500499D01*
X143000187Y-108200220D01*
X143151323Y-108565997D01*
X143432522Y-108847688D01*
X143800115Y-109000326D01*
X144198139Y-109000673D01*
X144565997Y-108848677D01*
X144847688Y-108567478D01*
X145000187Y-108200220D01*
X145124500Y-108501080D01*
X145124500Y-108501080D01*
G37*
X145124500Y-108501080D02*
X145124500Y-108507295D01*
X145053382Y-108611380D01*
X145015185Y-108800000D01*
X145015185Y-110400000D01*
X145048341Y-110576210D01*
X145152481Y-110738047D01*
X145228788Y-110790185D01*
X144875000Y-110790185D01*
X144698790Y-110823341D01*
X144536953Y-110927481D01*
X144428382Y-111086380D01*
X144390185Y-111275000D01*
X144390185Y-111875000D01*
X144423341Y-112051210D01*
X144474500Y-112130713D01*
X144474500Y-112436265D01*
X144376329Y-112534436D01*
X144296420Y-112534366D01*
X144011288Y-112652180D01*
X143792946Y-112870141D01*
X143674635Y-113155067D01*
X143674366Y-113463580D01*
X143689208Y-113499500D01*
X140984815Y-113499500D01*
X140984815Y-113363444D01*
X140985500Y-113360000D01*
X140985500Y-112565022D01*
X141035365Y-112444933D01*
X141035634Y-112136420D01*
X140917820Y-111851288D01*
X140699859Y-111632946D01*
X140414933Y-111514635D01*
X140106420Y-111514366D01*
X139821288Y-111632180D01*
X139602946Y-111850141D01*
X139484635Y-112135067D01*
X139484366Y-112443580D01*
X139534500Y-112564914D01*
X139534500Y-112729621D01*
X139515185Y-112825000D01*
X139515185Y-113499500D01*
X138484815Y-113499500D01*
X138484815Y-112825000D01*
X138451659Y-112648790D01*
X138350500Y-112491586D01*
X138350500Y-112050005D01*
X138350501Y-112050000D01*
X138304790Y-111820198D01*
X138174618Y-111625382D01*
X137594618Y-111045382D01*
X137594615Y-111045380D01*
X137417303Y-110868068D01*
X137500000Y-110884815D01*
X138309482Y-110884815D01*
X138234635Y-111065067D01*
X138234366Y-111373580D01*
X138352180Y-111658712D01*
X138570141Y-111877054D01*
X138855067Y-111995365D01*
X139163580Y-111995634D01*
X139448712Y-111877820D01*
X139667054Y-111659859D01*
X139785365Y-111374933D01*
X139785634Y-111066420D01*
X139667820Y-110781288D01*
X139449859Y-110562946D01*
X139164933Y-110444635D01*
X138975809Y-110444470D01*
X138984815Y-110400000D01*
X138984815Y-108800000D01*
X138951659Y-108623790D01*
X138875500Y-108505436D01*
X138875500Y-108500499D01*
X139000187Y-108200220D01*
X139151323Y-108565997D01*
X139432522Y-108847688D01*
X139800115Y-109000326D01*
X140198139Y-109000673D01*
X140565997Y-108848677D01*
X140847688Y-108567478D01*
X141000187Y-108200220D01*
X141124500Y-108501080D01*
X141124500Y-108507295D01*
X141053382Y-108611380D01*
X141015185Y-108800000D01*
X141015185Y-110400000D01*
X141048341Y-110576210D01*
X141152481Y-110738047D01*
X141311380Y-110846618D01*
X141500000Y-110884815D01*
X142500000Y-110884815D01*
X142676210Y-110851659D01*
X142838047Y-110747519D01*
X142946618Y-110588620D01*
X142984815Y-110400000D01*
X142984815Y-108800000D01*
X142951659Y-108623790D01*
X142875500Y-108505436D01*
X142875500Y-108500499D01*
X143000187Y-108200220D01*
X143151323Y-108565997D01*
X143432522Y-108847688D01*
X143800115Y-109000326D01*
X144198139Y-109000673D01*
X144565997Y-108848677D01*
X144847688Y-108567478D01*
X145000187Y-108200220D01*
X145124500Y-108501080D01*
G36*
X151621881Y-106238883D02*
X151550382Y-106310382D01*
X151420210Y-106505198D01*
X151410240Y-106555322D01*
X151336953Y-106602481D01*
X151228382Y-106761380D01*
X151190185Y-106950000D01*
X151190185Y-107350000D01*
X151223341Y-107526210D01*
X151270580Y-107599621D01*
X151228382Y-107661380D01*
X151190185Y-107850000D01*
X151190185Y-108250000D01*
X151223341Y-108426210D01*
X151327481Y-108588047D01*
X151374500Y-108620174D01*
X151374500Y-109424995D01*
X151374499Y-109425000D01*
X151420210Y-109654802D01*
X151550382Y-109849618D01*
X151804436Y-110103671D01*
X151804366Y-110183580D01*
X151922180Y-110468712D01*
X152140141Y-110687054D01*
X152150232Y-110691244D01*
X151730738Y-111110738D01*
X151611404Y-111289332D01*
X151579545Y-111449500D01*
X151569500Y-111500000D01*
X151569500Y-113499500D01*
X150274815Y-113499500D01*
X150274815Y-112825000D01*
X150265500Y-112775495D01*
X150265500Y-112565022D01*
X150315365Y-112444933D01*
X150315634Y-112136420D01*
X150197820Y-111851288D01*
X149979859Y-111632946D01*
X149694933Y-111514635D01*
X149386420Y-111514366D01*
X149101288Y-111632180D01*
X148882946Y-111850141D01*
X148764635Y-112135067D01*
X148764366Y-112443580D01*
X148814500Y-112564914D01*
X148814500Y-112779002D01*
X148805185Y-112825000D01*
X148805185Y-113499500D01*
X147774815Y-113499500D01*
X147774815Y-112825000D01*
X147741659Y-112648790D01*
X147637519Y-112486953D01*
X147600500Y-112461659D01*
X147600500Y-111572040D01*
X147632180Y-111648712D01*
X147850141Y-111867054D01*
X148135067Y-111985365D01*
X148443580Y-111985634D01*
X148728712Y-111867820D01*
X148947054Y-111649859D01*
X149065365Y-111364933D01*
X149065634Y-111056420D01*
X148947820Y-110771288D01*
X148729859Y-110552946D01*
X148444933Y-110434635D01*
X148136420Y-110434366D01*
X147851288Y-110552180D01*
X147632946Y-110770141D01*
X147600500Y-110848280D01*
X147600500Y-109009815D01*
X148525000Y-109009815D01*
X148701210Y-108976659D01*
X148863047Y-108872519D01*
X148971618Y-108713620D01*
X149009815Y-108525000D01*
X149009815Y-107475000D01*
X148976659Y-107298790D01*
X148967646Y-107284783D01*
X148984815Y-107200000D01*
X148984815Y-105600000D01*
X148951659Y-105423790D01*
X148847519Y-105261953D01*
X148688620Y-105153382D01*
X148500000Y-105115185D01*
X147500000Y-105115185D01*
X147323790Y-105148341D01*
X147161953Y-105252481D01*
X147053382Y-105411380D01*
X147015185Y-105600000D01*
X147015185Y-105715949D01*
X145449736Y-104150500D01*
X149533498Y-104150500D01*
X151621881Y-106238883D01*
X151621881Y-106238883D01*
G37*
X151621881Y-106238883D02*
X151550382Y-106310382D01*
X151420210Y-106505198D01*
X151410240Y-106555322D01*
X151336953Y-106602481D01*
X151228382Y-106761380D01*
X151190185Y-106950000D01*
X151190185Y-107350000D01*
X151223341Y-107526210D01*
X151270580Y-107599621D01*
X151228382Y-107661380D01*
X151190185Y-107850000D01*
X151190185Y-108250000D01*
X151223341Y-108426210D01*
X151327481Y-108588047D01*
X151374500Y-108620174D01*
X151374500Y-109424995D01*
X151374499Y-109425000D01*
X151420210Y-109654802D01*
X151550382Y-109849618D01*
X151804436Y-110103671D01*
X151804366Y-110183580D01*
X151922180Y-110468712D01*
X152140141Y-110687054D01*
X152150232Y-110691244D01*
X151730738Y-111110738D01*
X151611404Y-111289332D01*
X151579545Y-111449500D01*
X151569500Y-111500000D01*
X151569500Y-113499500D01*
X150274815Y-113499500D01*
X150274815Y-112825000D01*
X150265500Y-112775495D01*
X150265500Y-112565022D01*
X150315365Y-112444933D01*
X150315634Y-112136420D01*
X150197820Y-111851288D01*
X149979859Y-111632946D01*
X149694933Y-111514635D01*
X149386420Y-111514366D01*
X149101288Y-111632180D01*
X148882946Y-111850141D01*
X148764635Y-112135067D01*
X148764366Y-112443580D01*
X148814500Y-112564914D01*
X148814500Y-112779002D01*
X148805185Y-112825000D01*
X148805185Y-113499500D01*
X147774815Y-113499500D01*
X147774815Y-112825000D01*
X147741659Y-112648790D01*
X147637519Y-112486953D01*
X147600500Y-112461659D01*
X147600500Y-111572040D01*
X147632180Y-111648712D01*
X147850141Y-111867054D01*
X148135067Y-111985365D01*
X148443580Y-111985634D01*
X148728712Y-111867820D01*
X148947054Y-111649859D01*
X149065365Y-111364933D01*
X149065634Y-111056420D01*
X148947820Y-110771288D01*
X148729859Y-110552946D01*
X148444933Y-110434635D01*
X148136420Y-110434366D01*
X147851288Y-110552180D01*
X147632946Y-110770141D01*
X147600500Y-110848280D01*
X147600500Y-109009815D01*
X148525000Y-109009815D01*
X148701210Y-108976659D01*
X148863047Y-108872519D01*
X148971618Y-108713620D01*
X149009815Y-108525000D01*
X149009815Y-107475000D01*
X148976659Y-107298790D01*
X148967646Y-107284783D01*
X148984815Y-107200000D01*
X148984815Y-105600000D01*
X148951659Y-105423790D01*
X148847519Y-105261953D01*
X148688620Y-105153382D01*
X148500000Y-105115185D01*
X147500000Y-105115185D01*
X147323790Y-105148341D01*
X147161953Y-105252481D01*
X147053382Y-105411380D01*
X147015185Y-105600000D01*
X147015185Y-105715949D01*
X145449736Y-104150500D01*
X149533498Y-104150500D01*
X151621881Y-106238883D01*
G36*
X133124500Y-108501080D02*
X133124500Y-108507295D01*
X133053382Y-108611380D01*
X133015185Y-108800000D01*
X133015185Y-110400000D01*
X133048341Y-110576210D01*
X133152481Y-110738047D01*
X133311380Y-110846618D01*
X133500000Y-110884815D01*
X134500000Y-110884815D01*
X134676210Y-110851659D01*
X134838047Y-110747519D01*
X134946618Y-110588620D01*
X134984815Y-110400000D01*
X134984815Y-110134051D01*
X135740950Y-110890185D01*
X135700000Y-110890185D01*
X135523790Y-110923341D01*
X135450379Y-110970580D01*
X135388620Y-110928382D01*
X135200000Y-110890185D01*
X134800000Y-110890185D01*
X134623790Y-110923341D01*
X134461953Y-111027481D01*
X134353382Y-111186380D01*
X134315185Y-111375000D01*
X134315185Y-111975000D01*
X134348341Y-112151210D01*
X134399500Y-112230713D01*
X134399500Y-112783738D01*
X134312946Y-112870141D01*
X134194635Y-113155067D01*
X134194366Y-113463580D01*
X134209208Y-113499500D01*
X131704815Y-113499500D01*
X131704815Y-113363444D01*
X131705500Y-113360000D01*
X131705500Y-112565022D01*
X131755365Y-112444933D01*
X131755634Y-112136420D01*
X131637820Y-111851288D01*
X131419859Y-111632946D01*
X131134933Y-111514635D01*
X130826420Y-111514366D01*
X130541288Y-111632180D01*
X130322946Y-111850141D01*
X130204635Y-112135067D01*
X130204366Y-112443580D01*
X130254500Y-112564914D01*
X130254500Y-112669621D01*
X130235185Y-112765000D01*
X130235185Y-113499500D01*
X129204815Y-113499500D01*
X129204815Y-112765000D01*
X129171659Y-112588790D01*
X129080500Y-112447126D01*
X129080500Y-111700005D01*
X129080501Y-111700000D01*
X129080500Y-111699995D01*
X129080500Y-111654646D01*
X129082180Y-111658712D01*
X129300141Y-111877054D01*
X129585067Y-111995365D01*
X129893580Y-111995634D01*
X130178712Y-111877820D01*
X130397054Y-111659859D01*
X130515365Y-111374933D01*
X130515634Y-111066420D01*
X130440596Y-110884815D01*
X130500000Y-110884815D01*
X130676210Y-110851659D01*
X130838047Y-110747519D01*
X130946618Y-110588620D01*
X130984815Y-110400000D01*
X130984815Y-108800000D01*
X130951659Y-108623790D01*
X130875500Y-108505436D01*
X130875500Y-108500499D01*
X131000187Y-108200220D01*
X131151323Y-108565997D01*
X131432522Y-108847688D01*
X131800115Y-109000326D01*
X132198139Y-109000673D01*
X132565997Y-108848677D01*
X132847688Y-108567478D01*
X133000187Y-108200220D01*
X133124500Y-108501080D01*
X133124500Y-108501080D01*
G37*
X133124500Y-108501080D02*
X133124500Y-108507295D01*
X133053382Y-108611380D01*
X133015185Y-108800000D01*
X133015185Y-110400000D01*
X133048341Y-110576210D01*
X133152481Y-110738047D01*
X133311380Y-110846618D01*
X133500000Y-110884815D01*
X134500000Y-110884815D01*
X134676210Y-110851659D01*
X134838047Y-110747519D01*
X134946618Y-110588620D01*
X134984815Y-110400000D01*
X134984815Y-110134051D01*
X135740950Y-110890185D01*
X135700000Y-110890185D01*
X135523790Y-110923341D01*
X135450379Y-110970580D01*
X135388620Y-110928382D01*
X135200000Y-110890185D01*
X134800000Y-110890185D01*
X134623790Y-110923341D01*
X134461953Y-111027481D01*
X134353382Y-111186380D01*
X134315185Y-111375000D01*
X134315185Y-111975000D01*
X134348341Y-112151210D01*
X134399500Y-112230713D01*
X134399500Y-112783738D01*
X134312946Y-112870141D01*
X134194635Y-113155067D01*
X134194366Y-113463580D01*
X134209208Y-113499500D01*
X131704815Y-113499500D01*
X131704815Y-113363444D01*
X131705500Y-113360000D01*
X131705500Y-112565022D01*
X131755365Y-112444933D01*
X131755634Y-112136420D01*
X131637820Y-111851288D01*
X131419859Y-111632946D01*
X131134933Y-111514635D01*
X130826420Y-111514366D01*
X130541288Y-111632180D01*
X130322946Y-111850141D01*
X130204635Y-112135067D01*
X130204366Y-112443580D01*
X130254500Y-112564914D01*
X130254500Y-112669621D01*
X130235185Y-112765000D01*
X130235185Y-113499500D01*
X129204815Y-113499500D01*
X129204815Y-112765000D01*
X129171659Y-112588790D01*
X129080500Y-112447126D01*
X129080500Y-111700005D01*
X129080501Y-111700000D01*
X129080500Y-111699995D01*
X129080500Y-111654646D01*
X129082180Y-111658712D01*
X129300141Y-111877054D01*
X129585067Y-111995365D01*
X129893580Y-111995634D01*
X130178712Y-111877820D01*
X130397054Y-111659859D01*
X130515365Y-111374933D01*
X130515634Y-111066420D01*
X130440596Y-110884815D01*
X130500000Y-110884815D01*
X130676210Y-110851659D01*
X130838047Y-110747519D01*
X130946618Y-110588620D01*
X130984815Y-110400000D01*
X130984815Y-108800000D01*
X130951659Y-108623790D01*
X130875500Y-108505436D01*
X130875500Y-108500499D01*
X131000187Y-108200220D01*
X131151323Y-108565997D01*
X131432522Y-108847688D01*
X131800115Y-109000326D01*
X132198139Y-109000673D01*
X132565997Y-108848677D01*
X132847688Y-108567478D01*
X133000187Y-108200220D01*
X133124500Y-108501080D01*
G36*
X127879500Y-110651222D02*
X127825000Y-110640185D01*
X127425000Y-110640185D01*
X127248790Y-110673341D01*
X127175379Y-110720580D01*
X127113620Y-110678382D01*
X126925000Y-110640185D01*
X126525000Y-110640185D01*
X126348790Y-110673341D01*
X126186953Y-110777481D01*
X126085089Y-110926564D01*
X124012738Y-108854213D01*
X124475417Y-108391534D01*
X124542161Y-108293851D01*
X124688537Y-108147475D01*
X124808712Y-108097820D01*
X125027054Y-107879859D01*
X125145365Y-107594933D01*
X125145634Y-107286420D01*
X125027820Y-107001288D01*
X124809859Y-106782946D01*
X124524933Y-106664635D01*
X124216420Y-106664366D01*
X123931288Y-106782180D01*
X123712946Y-107000141D01*
X123662600Y-107121388D01*
X123127746Y-107656242D01*
X123090877Y-107680877D01*
X123056993Y-107731588D01*
X122973553Y-107815028D01*
X122244972Y-107086447D01*
X122707651Y-106623768D01*
X122808805Y-106475724D01*
X122849604Y-106287650D01*
X122844729Y-106261741D01*
X123494629Y-105611841D01*
X123494366Y-105913580D01*
X123612180Y-106198712D01*
X123830141Y-106417054D01*
X124115067Y-106535365D01*
X124423580Y-106535634D01*
X124708712Y-106417820D01*
X124927054Y-106199859D01*
X125045365Y-105914933D01*
X125045634Y-105606420D01*
X124927820Y-105321288D01*
X124709859Y-105102946D01*
X124424933Y-104984635D01*
X124122099Y-104984371D01*
X127879500Y-101226970D01*
X127879500Y-110651222D01*
X127879500Y-110651222D01*
G37*
X127879500Y-110651222D02*
X127825000Y-110640185D01*
X127425000Y-110640185D01*
X127248790Y-110673341D01*
X127175379Y-110720580D01*
X127113620Y-110678382D01*
X126925000Y-110640185D01*
X126525000Y-110640185D01*
X126348790Y-110673341D01*
X126186953Y-110777481D01*
X126085089Y-110926564D01*
X124012738Y-108854213D01*
X124475417Y-108391534D01*
X124542161Y-108293851D01*
X124688537Y-108147475D01*
X124808712Y-108097820D01*
X125027054Y-107879859D01*
X125145365Y-107594933D01*
X125145634Y-107286420D01*
X125027820Y-107001288D01*
X124809859Y-106782946D01*
X124524933Y-106664635D01*
X124216420Y-106664366D01*
X123931288Y-106782180D01*
X123712946Y-107000141D01*
X123662600Y-107121388D01*
X123127746Y-107656242D01*
X123090877Y-107680877D01*
X123056993Y-107731588D01*
X122973553Y-107815028D01*
X122244972Y-107086447D01*
X122707651Y-106623768D01*
X122808805Y-106475724D01*
X122849604Y-106287650D01*
X122844729Y-106261741D01*
X123494629Y-105611841D01*
X123494366Y-105913580D01*
X123612180Y-106198712D01*
X123830141Y-106417054D01*
X124115067Y-106535365D01*
X124423580Y-106535634D01*
X124708712Y-106417820D01*
X124927054Y-106199859D01*
X125045365Y-105914933D01*
X125045634Y-105606420D01*
X124927820Y-105321288D01*
X124709859Y-105102946D01*
X124424933Y-104984635D01*
X124122099Y-104984371D01*
X127879500Y-101226970D01*
X127879500Y-110651222D01*
G36*
X154373341Y-100351210D02*
X154420580Y-100424621D01*
X154378382Y-100486380D01*
X154340185Y-100675000D01*
X154340185Y-101075000D01*
X154373341Y-101251210D01*
X154477481Y-101413047D01*
X154636380Y-101521618D01*
X154825000Y-101559815D01*
X155425000Y-101559815D01*
X155601210Y-101526659D01*
X155680713Y-101475500D01*
X156438747Y-101475500D01*
X156530141Y-101567054D01*
X156815067Y-101685365D01*
X157123580Y-101685634D01*
X157219500Y-101646001D01*
X157219500Y-102510000D01*
X157261404Y-102720668D01*
X157380738Y-102899262D01*
X158661476Y-104180000D01*
X156819214Y-106022263D01*
X156351534Y-105554583D01*
X156316997Y-105530985D01*
X156117475Y-105331463D01*
X156067820Y-105211288D01*
X155849859Y-104992946D01*
X155564933Y-104874635D01*
X155256420Y-104874366D01*
X154971288Y-104992180D01*
X154752946Y-105210141D01*
X154634635Y-105495067D01*
X154634482Y-105671025D01*
X154547820Y-105461288D01*
X154329859Y-105242946D01*
X154044933Y-105124635D01*
X153736420Y-105124366D01*
X153451288Y-105242180D01*
X153232946Y-105460141D01*
X153114635Y-105745067D01*
X153114384Y-106032914D01*
X152895735Y-105814265D01*
X152895732Y-105814263D01*
X150206852Y-103125382D01*
X150094783Y-103050500D01*
X151249995Y-103050500D01*
X151250000Y-103050501D01*
X151479802Y-103004790D01*
X151674618Y-102874618D01*
X154345577Y-100203659D01*
X154373341Y-100351210D01*
X154373341Y-100351210D01*
G37*
X154373341Y-100351210D02*
X154420580Y-100424621D01*
X154378382Y-100486380D01*
X154340185Y-100675000D01*
X154340185Y-101075000D01*
X154373341Y-101251210D01*
X154477481Y-101413047D01*
X154636380Y-101521618D01*
X154825000Y-101559815D01*
X155425000Y-101559815D01*
X155601210Y-101526659D01*
X155680713Y-101475500D01*
X156438747Y-101475500D01*
X156530141Y-101567054D01*
X156815067Y-101685365D01*
X157123580Y-101685634D01*
X157219500Y-101646001D01*
X157219500Y-102510000D01*
X157261404Y-102720668D01*
X157380738Y-102899262D01*
X158661476Y-104180000D01*
X156819214Y-106022263D01*
X156351534Y-105554583D01*
X156316997Y-105530985D01*
X156117475Y-105331463D01*
X156067820Y-105211288D01*
X155849859Y-104992946D01*
X155564933Y-104874635D01*
X155256420Y-104874366D01*
X154971288Y-104992180D01*
X154752946Y-105210141D01*
X154634635Y-105495067D01*
X154634482Y-105671025D01*
X154547820Y-105461288D01*
X154329859Y-105242946D01*
X154044933Y-105124635D01*
X153736420Y-105124366D01*
X153451288Y-105242180D01*
X153232946Y-105460141D01*
X153114635Y-105745067D01*
X153114384Y-106032914D01*
X152895735Y-105814265D01*
X152895732Y-105814263D01*
X150206852Y-103125382D01*
X150094783Y-103050500D01*
X151249995Y-103050500D01*
X151250000Y-103050501D01*
X151479802Y-103004790D01*
X151674618Y-102874618D01*
X154345577Y-100203659D01*
X154373341Y-100351210D01*
G36*
X122512946Y-96560141D02*
X122394635Y-96845067D01*
X122394366Y-97153580D01*
X122512180Y-97438712D01*
X122730141Y-97657054D01*
X123015067Y-97775365D01*
X123323580Y-97775634D01*
X123608712Y-97657820D01*
X123827054Y-97439859D01*
X123945365Y-97154933D01*
X123945634Y-96846420D01*
X123827820Y-96561288D01*
X123617400Y-96350500D01*
X124051264Y-96350500D01*
X126365380Y-98664615D01*
X126365382Y-98664618D01*
X126459520Y-98727519D01*
X126560198Y-98794790D01*
X126790000Y-98840501D01*
X126790005Y-98840500D01*
X129714930Y-98840500D01*
X129835000Y-98864815D01*
X130325185Y-98864815D01*
X130325185Y-99355000D01*
X130357078Y-99524500D01*
X128132234Y-99524500D01*
X127902432Y-99570210D01*
X127707616Y-99700382D01*
X123409815Y-103998183D01*
X123409815Y-103600000D01*
X123376659Y-103423790D01*
X123329420Y-103350379D01*
X123371618Y-103288620D01*
X123409815Y-103100000D01*
X123409815Y-102700000D01*
X123376659Y-102523790D01*
X123272519Y-102361953D01*
X123113620Y-102253382D01*
X122925000Y-102215185D01*
X122325000Y-102215185D01*
X122148790Y-102248341D01*
X122053747Y-102309500D01*
X121620005Y-102309500D01*
X121620000Y-102309499D01*
X121390198Y-102355210D01*
X121292791Y-102420296D01*
X121195382Y-102485382D01*
X121195380Y-102485385D01*
X120976329Y-102704436D01*
X120896420Y-102704366D01*
X120679575Y-102793965D01*
X120748596Y-102690668D01*
X120790500Y-102480000D01*
X120790500Y-98994815D01*
X121485000Y-98994815D01*
X121587651Y-98975500D01*
X121754978Y-98975500D01*
X121875067Y-99025365D01*
X122183580Y-99025634D01*
X122468712Y-98907820D01*
X122687054Y-98689859D01*
X122805365Y-98404933D01*
X122805634Y-98096420D01*
X122687820Y-97811288D01*
X122469859Y-97592946D01*
X122184933Y-97474635D01*
X121876420Y-97474366D01*
X121755086Y-97524500D01*
X120950000Y-97524500D01*
X120946556Y-97525185D01*
X120790500Y-97525185D01*
X120790500Y-96494815D01*
X121485000Y-96494815D01*
X121661210Y-96461659D01*
X121823047Y-96357519D01*
X121827843Y-96350500D01*
X122722953Y-96350500D01*
X122512946Y-96560141D01*
X122512946Y-96560141D01*
G37*
X122512946Y-96560141D02*
X122394635Y-96845067D01*
X122394366Y-97153580D01*
X122512180Y-97438712D01*
X122730141Y-97657054D01*
X123015067Y-97775365D01*
X123323580Y-97775634D01*
X123608712Y-97657820D01*
X123827054Y-97439859D01*
X123945365Y-97154933D01*
X123945634Y-96846420D01*
X123827820Y-96561288D01*
X123617400Y-96350500D01*
X124051264Y-96350500D01*
X126365380Y-98664615D01*
X126365382Y-98664618D01*
X126459520Y-98727519D01*
X126560198Y-98794790D01*
X126790000Y-98840501D01*
X126790005Y-98840500D01*
X129714930Y-98840500D01*
X129835000Y-98864815D01*
X130325185Y-98864815D01*
X130325185Y-99355000D01*
X130357078Y-99524500D01*
X128132234Y-99524500D01*
X127902432Y-99570210D01*
X127707616Y-99700382D01*
X123409815Y-103998183D01*
X123409815Y-103600000D01*
X123376659Y-103423790D01*
X123329420Y-103350379D01*
X123371618Y-103288620D01*
X123409815Y-103100000D01*
X123409815Y-102700000D01*
X123376659Y-102523790D01*
X123272519Y-102361953D01*
X123113620Y-102253382D01*
X122925000Y-102215185D01*
X122325000Y-102215185D01*
X122148790Y-102248341D01*
X122053747Y-102309500D01*
X121620005Y-102309500D01*
X121620000Y-102309499D01*
X121390198Y-102355210D01*
X121292791Y-102420296D01*
X121195382Y-102485382D01*
X121195380Y-102485385D01*
X120976329Y-102704436D01*
X120896420Y-102704366D01*
X120679575Y-102793965D01*
X120748596Y-102690668D01*
X120790500Y-102480000D01*
X120790500Y-98994815D01*
X121485000Y-98994815D01*
X121587651Y-98975500D01*
X121754978Y-98975500D01*
X121875067Y-99025365D01*
X122183580Y-99025634D01*
X122468712Y-98907820D01*
X122687054Y-98689859D01*
X122805365Y-98404933D01*
X122805634Y-98096420D01*
X122687820Y-97811288D01*
X122469859Y-97592946D01*
X122184933Y-97474635D01*
X121876420Y-97474366D01*
X121755086Y-97524500D01*
X120950000Y-97524500D01*
X120946556Y-97525185D01*
X120790500Y-97525185D01*
X120790500Y-96494815D01*
X121485000Y-96494815D01*
X121661210Y-96461659D01*
X121823047Y-96357519D01*
X121827843Y-96350500D01*
X122722953Y-96350500D01*
X122512946Y-96560141D01*
G36*
X158671476Y-89840000D02*
X157380738Y-91130738D01*
X157261404Y-91309332D01*
X157261404Y-91309333D01*
X157219500Y-91520000D01*
X157219500Y-95015185D01*
X156495000Y-95015185D01*
X156445495Y-95024500D01*
X156175022Y-95024500D01*
X156054933Y-94974635D01*
X155746420Y-94974366D01*
X155461288Y-95092180D01*
X155242946Y-95310141D01*
X155124635Y-95595067D01*
X155124366Y-95903580D01*
X155242180Y-96188712D01*
X155386436Y-96333220D01*
X155124933Y-96224635D01*
X154816420Y-96224366D01*
X154531288Y-96342180D01*
X154312946Y-96560141D01*
X154194635Y-96845067D01*
X154194366Y-97153580D01*
X154312180Y-97438712D01*
X154530141Y-97657054D01*
X154815067Y-97775365D01*
X155099866Y-97775613D01*
X155025382Y-97825382D01*
X151001264Y-101849500D01*
X139918736Y-101849500D01*
X137162816Y-99093580D01*
X150244366Y-99093580D01*
X150362180Y-99378712D01*
X150580141Y-99597054D01*
X150865067Y-99715365D01*
X151173580Y-99715634D01*
X151458712Y-99597820D01*
X151677054Y-99379859D01*
X151795365Y-99094933D01*
X151795634Y-98786420D01*
X151677820Y-98501288D01*
X151459859Y-98282946D01*
X151174933Y-98164635D01*
X150866420Y-98164366D01*
X150581288Y-98282180D01*
X150362946Y-98500141D01*
X150244635Y-98785067D01*
X150244366Y-99093580D01*
X137162816Y-99093580D01*
X136376598Y-98307362D01*
X136439802Y-98294790D01*
X136634618Y-98164618D01*
X137204615Y-97594620D01*
X137204618Y-97594618D01*
X137284788Y-97474635D01*
X137334790Y-97399802D01*
X137380501Y-97170000D01*
X137380500Y-97169995D01*
X137380500Y-95903580D01*
X148834366Y-95903580D01*
X148952180Y-96188712D01*
X149170141Y-96407054D01*
X149455067Y-96525365D01*
X149763580Y-96525634D01*
X150048712Y-96407820D01*
X150267054Y-96189859D01*
X150385365Y-95904933D01*
X150385504Y-95745500D01*
X150509744Y-95745500D01*
X150511380Y-95746618D01*
X150700000Y-95784815D01*
X151300000Y-95784815D01*
X151476210Y-95751659D01*
X151638047Y-95647519D01*
X151746618Y-95488620D01*
X151784815Y-95300000D01*
X151784815Y-94900000D01*
X151781933Y-94884682D01*
X151879443Y-94787172D01*
X151983500Y-94535957D01*
X151983500Y-94449375D01*
X151812625Y-94278500D01*
X151078500Y-94278500D01*
X151078500Y-94298500D01*
X150921500Y-94298500D01*
X150921500Y-94278500D01*
X150187375Y-94278500D01*
X150016500Y-94449375D01*
X150016500Y-94511109D01*
X149860631Y-94542113D01*
X149657705Y-94677704D01*
X149293886Y-95041523D01*
X149171288Y-95092180D01*
X148952946Y-95310141D01*
X148834635Y-95595067D01*
X148834366Y-95903580D01*
X137380500Y-95903580D01*
X137380500Y-95475422D01*
X137623580Y-95475634D01*
X137908712Y-95357820D01*
X138127054Y-95139859D01*
X138245365Y-94854933D01*
X138245382Y-94835583D01*
X138303580Y-94835634D01*
X138588712Y-94717820D01*
X138807054Y-94499859D01*
X138925365Y-94214933D01*
X138925634Y-93906420D01*
X138908125Y-93864043D01*
X150016500Y-93864043D01*
X150016500Y-93950625D01*
X150187375Y-94121500D01*
X150921500Y-94121500D01*
X150921500Y-93487375D01*
X151078500Y-93487375D01*
X151078500Y-94121500D01*
X151812625Y-94121500D01*
X151983500Y-93950625D01*
X151983500Y-93864043D01*
X151879443Y-93612828D01*
X151687171Y-93420556D01*
X151435956Y-93316500D01*
X151249375Y-93316500D01*
X151078500Y-93487375D01*
X150921500Y-93487375D01*
X150750625Y-93316500D01*
X150564044Y-93316500D01*
X150312829Y-93420556D01*
X150120557Y-93612828D01*
X150016500Y-93864043D01*
X138908125Y-93864043D01*
X138807820Y-93621288D01*
X138589859Y-93402946D01*
X138304933Y-93284635D01*
X138134749Y-93284487D01*
X139878735Y-91540500D01*
X152817761Y-91540500D01*
X152817766Y-91540501D01*
X153047568Y-91494790D01*
X153242384Y-91364618D01*
X154840185Y-89766816D01*
X154840185Y-89850000D01*
X154873341Y-90026210D01*
X154920580Y-90099621D01*
X154878382Y-90161380D01*
X154840185Y-90350000D01*
X154840185Y-90750000D01*
X154873341Y-90926210D01*
X154977481Y-91088047D01*
X155136380Y-91196618D01*
X155325000Y-91234815D01*
X155925000Y-91234815D01*
X156101210Y-91201659D01*
X156180713Y-91150500D01*
X156599995Y-91150500D01*
X156600000Y-91150501D01*
X156829802Y-91104790D01*
X157024618Y-90974618D01*
X157043672Y-90955564D01*
X157123580Y-90955634D01*
X157408712Y-90837820D01*
X157627054Y-90619859D01*
X157745365Y-90334933D01*
X157745634Y-90026420D01*
X157627820Y-89741288D01*
X157409859Y-89522946D01*
X157124933Y-89404635D01*
X156816420Y-89404366D01*
X156531288Y-89522180D01*
X156409815Y-89643441D01*
X156409815Y-89450000D01*
X156376659Y-89273790D01*
X156272519Y-89111953D01*
X156225500Y-89079826D01*
X156225500Y-89055005D01*
X156225501Y-89055000D01*
X156179790Y-88825198D01*
X156049618Y-88630382D01*
X156027962Y-88608726D01*
X156171150Y-88581783D01*
X156331534Y-88475417D01*
X156819213Y-87987738D01*
X158671476Y-89840000D01*
X158671476Y-89840000D01*
G37*
X158671476Y-89840000D02*
X157380738Y-91130738D01*
X157261404Y-91309332D01*
X157261404Y-91309333D01*
X157219500Y-91520000D01*
X157219500Y-95015185D01*
X156495000Y-95015185D01*
X156445495Y-95024500D01*
X156175022Y-95024500D01*
X156054933Y-94974635D01*
X155746420Y-94974366D01*
X155461288Y-95092180D01*
X155242946Y-95310141D01*
X155124635Y-95595067D01*
X155124366Y-95903580D01*
X155242180Y-96188712D01*
X155386436Y-96333220D01*
X155124933Y-96224635D01*
X154816420Y-96224366D01*
X154531288Y-96342180D01*
X154312946Y-96560141D01*
X154194635Y-96845067D01*
X154194366Y-97153580D01*
X154312180Y-97438712D01*
X154530141Y-97657054D01*
X154815067Y-97775365D01*
X155099866Y-97775613D01*
X155025382Y-97825382D01*
X151001264Y-101849500D01*
X139918736Y-101849500D01*
X137162816Y-99093580D01*
X150244366Y-99093580D01*
X150362180Y-99378712D01*
X150580141Y-99597054D01*
X150865067Y-99715365D01*
X151173580Y-99715634D01*
X151458712Y-99597820D01*
X151677054Y-99379859D01*
X151795365Y-99094933D01*
X151795634Y-98786420D01*
X151677820Y-98501288D01*
X151459859Y-98282946D01*
X151174933Y-98164635D01*
X150866420Y-98164366D01*
X150581288Y-98282180D01*
X150362946Y-98500141D01*
X150244635Y-98785067D01*
X150244366Y-99093580D01*
X137162816Y-99093580D01*
X136376598Y-98307362D01*
X136439802Y-98294790D01*
X136634618Y-98164618D01*
X137204615Y-97594620D01*
X137204618Y-97594618D01*
X137284788Y-97474635D01*
X137334790Y-97399802D01*
X137380501Y-97170000D01*
X137380500Y-97169995D01*
X137380500Y-95903580D01*
X148834366Y-95903580D01*
X148952180Y-96188712D01*
X149170141Y-96407054D01*
X149455067Y-96525365D01*
X149763580Y-96525634D01*
X150048712Y-96407820D01*
X150267054Y-96189859D01*
X150385365Y-95904933D01*
X150385504Y-95745500D01*
X150509744Y-95745500D01*
X150511380Y-95746618D01*
X150700000Y-95784815D01*
X151300000Y-95784815D01*
X151476210Y-95751659D01*
X151638047Y-95647519D01*
X151746618Y-95488620D01*
X151784815Y-95300000D01*
X151784815Y-94900000D01*
X151781933Y-94884682D01*
X151879443Y-94787172D01*
X151983500Y-94535957D01*
X151983500Y-94449375D01*
X151812625Y-94278500D01*
X151078500Y-94278500D01*
X151078500Y-94298500D01*
X150921500Y-94298500D01*
X150921500Y-94278500D01*
X150187375Y-94278500D01*
X150016500Y-94449375D01*
X150016500Y-94511109D01*
X149860631Y-94542113D01*
X149657705Y-94677704D01*
X149293886Y-95041523D01*
X149171288Y-95092180D01*
X148952946Y-95310141D01*
X148834635Y-95595067D01*
X148834366Y-95903580D01*
X137380500Y-95903580D01*
X137380500Y-95475422D01*
X137623580Y-95475634D01*
X137908712Y-95357820D01*
X138127054Y-95139859D01*
X138245365Y-94854933D01*
X138245382Y-94835583D01*
X138303580Y-94835634D01*
X138588712Y-94717820D01*
X138807054Y-94499859D01*
X138925365Y-94214933D01*
X138925634Y-93906420D01*
X138908125Y-93864043D01*
X150016500Y-93864043D01*
X150016500Y-93950625D01*
X150187375Y-94121500D01*
X150921500Y-94121500D01*
X150921500Y-93487375D01*
X151078500Y-93487375D01*
X151078500Y-94121500D01*
X151812625Y-94121500D01*
X151983500Y-93950625D01*
X151983500Y-93864043D01*
X151879443Y-93612828D01*
X151687171Y-93420556D01*
X151435956Y-93316500D01*
X151249375Y-93316500D01*
X151078500Y-93487375D01*
X150921500Y-93487375D01*
X150750625Y-93316500D01*
X150564044Y-93316500D01*
X150312829Y-93420556D01*
X150120557Y-93612828D01*
X150016500Y-93864043D01*
X138908125Y-93864043D01*
X138807820Y-93621288D01*
X138589859Y-93402946D01*
X138304933Y-93284635D01*
X138134749Y-93284487D01*
X139878735Y-91540500D01*
X152817761Y-91540500D01*
X152817766Y-91540501D01*
X153047568Y-91494790D01*
X153242384Y-91364618D01*
X154840185Y-89766816D01*
X154840185Y-89850000D01*
X154873341Y-90026210D01*
X154920580Y-90099621D01*
X154878382Y-90161380D01*
X154840185Y-90350000D01*
X154840185Y-90750000D01*
X154873341Y-90926210D01*
X154977481Y-91088047D01*
X155136380Y-91196618D01*
X155325000Y-91234815D01*
X155925000Y-91234815D01*
X156101210Y-91201659D01*
X156180713Y-91150500D01*
X156599995Y-91150500D01*
X156600000Y-91150501D01*
X156829802Y-91104790D01*
X157024618Y-90974618D01*
X157043672Y-90955564D01*
X157123580Y-90955634D01*
X157408712Y-90837820D01*
X157627054Y-90619859D01*
X157745365Y-90334933D01*
X157745634Y-90026420D01*
X157627820Y-89741288D01*
X157409859Y-89522946D01*
X157124933Y-89404635D01*
X156816420Y-89404366D01*
X156531288Y-89522180D01*
X156409815Y-89643441D01*
X156409815Y-89450000D01*
X156376659Y-89273790D01*
X156272519Y-89111953D01*
X156225500Y-89079826D01*
X156225500Y-89055005D01*
X156225501Y-89055000D01*
X156179790Y-88825198D01*
X156049618Y-88630382D01*
X156027962Y-88608726D01*
X156171150Y-88581783D01*
X156331534Y-88475417D01*
X156819213Y-87987738D01*
X158671476Y-89840000D01*
G36*
X127745185Y-81165000D02*
X127754500Y-81214505D01*
X127754500Y-81534978D01*
X127704635Y-81655067D01*
X127704366Y-81963580D01*
X127822180Y-82248712D01*
X128040141Y-82467054D01*
X128325067Y-82585365D01*
X128633580Y-82585634D01*
X128918712Y-82467820D01*
X129020667Y-82366043D01*
X128954635Y-82525067D01*
X128954366Y-82833580D01*
X129072180Y-83118712D01*
X129188599Y-83235335D01*
X129161953Y-83252481D01*
X129053382Y-83411380D01*
X129015185Y-83600000D01*
X129015185Y-85200000D01*
X129048341Y-85376210D01*
X129124500Y-85494564D01*
X129124500Y-85499501D01*
X128999674Y-85800115D01*
X128999327Y-86198139D01*
X129151323Y-86565997D01*
X129399500Y-86814608D01*
X129399500Y-92426265D01*
X128650382Y-93175382D01*
X128520210Y-93370198D01*
X128474499Y-93600000D01*
X128474500Y-93600005D01*
X128474500Y-93722881D01*
X128265956Y-93636500D01*
X128129375Y-93636500D01*
X127958500Y-93807375D01*
X127958500Y-94541500D01*
X127978500Y-94541500D01*
X127978500Y-94698500D01*
X127958500Y-94698500D01*
X127958500Y-94718500D01*
X127801500Y-94718500D01*
X127801500Y-94698500D01*
X127117375Y-94698500D01*
X126946500Y-94869375D01*
X126946500Y-95055957D01*
X127050557Y-95307172D01*
X127148250Y-95404865D01*
X127145185Y-95420000D01*
X127145185Y-96020000D01*
X127178341Y-96196210D01*
X127282481Y-96358047D01*
X127441380Y-96466618D01*
X127630000Y-96504815D01*
X128022492Y-96504815D01*
X127974635Y-96620067D01*
X127974366Y-96928580D01*
X128061516Y-97139500D01*
X127638736Y-97139500D01*
X126300500Y-95801264D01*
X126300500Y-94184043D01*
X126946500Y-94184043D01*
X126946500Y-94370625D01*
X127117375Y-94541500D01*
X127801500Y-94541500D01*
X127801500Y-93807375D01*
X127630625Y-93636500D01*
X127494044Y-93636500D01*
X127242829Y-93740556D01*
X127050557Y-93932828D01*
X126946500Y-94184043D01*
X126300500Y-94184043D01*
X126300500Y-87907239D01*
X126300501Y-87907234D01*
X126254790Y-87677432D01*
X126150500Y-87521351D01*
X126150500Y-86921680D01*
X126188047Y-86897519D01*
X126296618Y-86738620D01*
X126334815Y-86550000D01*
X126334815Y-86150000D01*
X126301659Y-85973790D01*
X126254420Y-85900379D01*
X126296618Y-85838620D01*
X126334815Y-85650000D01*
X126334815Y-85250000D01*
X126301659Y-85073790D01*
X126197519Y-84911953D01*
X126150500Y-84879826D01*
X126150500Y-84470000D01*
X126104790Y-84240199D01*
X126015547Y-84106636D01*
X126015634Y-84006420D01*
X125897820Y-83721288D01*
X125692707Y-83515817D01*
X126119262Y-83089262D01*
X126238596Y-82910668D01*
X126280500Y-82700000D01*
X126280500Y-80490500D01*
X127745185Y-80490500D01*
X127745185Y-81165000D01*
X127745185Y-81165000D01*
G37*
X127745185Y-81165000D02*
X127754500Y-81214505D01*
X127754500Y-81534978D01*
X127704635Y-81655067D01*
X127704366Y-81963580D01*
X127822180Y-82248712D01*
X128040141Y-82467054D01*
X128325067Y-82585365D01*
X128633580Y-82585634D01*
X128918712Y-82467820D01*
X129020667Y-82366043D01*
X128954635Y-82525067D01*
X128954366Y-82833580D01*
X129072180Y-83118712D01*
X129188599Y-83235335D01*
X129161953Y-83252481D01*
X129053382Y-83411380D01*
X129015185Y-83600000D01*
X129015185Y-85200000D01*
X129048341Y-85376210D01*
X129124500Y-85494564D01*
X129124500Y-85499501D01*
X128999674Y-85800115D01*
X128999327Y-86198139D01*
X129151323Y-86565997D01*
X129399500Y-86814608D01*
X129399500Y-92426265D01*
X128650382Y-93175382D01*
X128520210Y-93370198D01*
X128474499Y-93600000D01*
X128474500Y-93600005D01*
X128474500Y-93722881D01*
X128265956Y-93636500D01*
X128129375Y-93636500D01*
X127958500Y-93807375D01*
X127958500Y-94541500D01*
X127978500Y-94541500D01*
X127978500Y-94698500D01*
X127958500Y-94698500D01*
X127958500Y-94718500D01*
X127801500Y-94718500D01*
X127801500Y-94698500D01*
X127117375Y-94698500D01*
X126946500Y-94869375D01*
X126946500Y-95055957D01*
X127050557Y-95307172D01*
X127148250Y-95404865D01*
X127145185Y-95420000D01*
X127145185Y-96020000D01*
X127178341Y-96196210D01*
X127282481Y-96358047D01*
X127441380Y-96466618D01*
X127630000Y-96504815D01*
X128022492Y-96504815D01*
X127974635Y-96620067D01*
X127974366Y-96928580D01*
X128061516Y-97139500D01*
X127638736Y-97139500D01*
X126300500Y-95801264D01*
X126300500Y-94184043D01*
X126946500Y-94184043D01*
X126946500Y-94370625D01*
X127117375Y-94541500D01*
X127801500Y-94541500D01*
X127801500Y-93807375D01*
X127630625Y-93636500D01*
X127494044Y-93636500D01*
X127242829Y-93740556D01*
X127050557Y-93932828D01*
X126946500Y-94184043D01*
X126300500Y-94184043D01*
X126300500Y-87907239D01*
X126300501Y-87907234D01*
X126254790Y-87677432D01*
X126150500Y-87521351D01*
X126150500Y-86921680D01*
X126188047Y-86897519D01*
X126296618Y-86738620D01*
X126334815Y-86550000D01*
X126334815Y-86150000D01*
X126301659Y-85973790D01*
X126254420Y-85900379D01*
X126296618Y-85838620D01*
X126334815Y-85650000D01*
X126334815Y-85250000D01*
X126301659Y-85073790D01*
X126197519Y-84911953D01*
X126150500Y-84879826D01*
X126150500Y-84470000D01*
X126104790Y-84240199D01*
X126015547Y-84106636D01*
X126015634Y-84006420D01*
X125897820Y-83721288D01*
X125692707Y-83515817D01*
X126119262Y-83089262D01*
X126238596Y-82910668D01*
X126280500Y-82700000D01*
X126280500Y-80490500D01*
X127745185Y-80490500D01*
X127745185Y-81165000D01*
G36*
X123456232Y-86697651D02*
X123604276Y-86798805D01*
X123780581Y-86837051D01*
X124358150Y-87414620D01*
X124066420Y-87414366D01*
X123781288Y-87532180D01*
X123562946Y-87750141D01*
X123444635Y-88035067D01*
X123444366Y-88343580D01*
X123562180Y-88628712D01*
X123780141Y-88847054D01*
X124065067Y-88965365D01*
X124373580Y-88965634D01*
X124658712Y-88847820D01*
X124877054Y-88629859D01*
X124995365Y-88344933D01*
X124995620Y-88052090D01*
X125099500Y-88155970D01*
X125099500Y-95700264D01*
X124724618Y-95325382D01*
X124529802Y-95195210D01*
X124300000Y-95149499D01*
X124299995Y-95149500D01*
X123855020Y-95149500D01*
X123896618Y-95088620D01*
X123934815Y-94900000D01*
X123934815Y-94500000D01*
X123901659Y-94323790D01*
X123854420Y-94250379D01*
X123896618Y-94188620D01*
X123934815Y-94000000D01*
X123934815Y-93600000D01*
X123901659Y-93423790D01*
X123797519Y-93261953D01*
X123638620Y-93153382D01*
X123450000Y-93115185D01*
X122850000Y-93115185D01*
X122673790Y-93148341D01*
X122594287Y-93199500D01*
X122018735Y-93199500D01*
X121825564Y-93006329D01*
X121825634Y-92926420D01*
X121707820Y-92641288D01*
X121489859Y-92422946D01*
X121204933Y-92304635D01*
X120896420Y-92304366D01*
X120790500Y-92348131D01*
X120790500Y-91510000D01*
X120748596Y-91299333D01*
X120708951Y-91240000D01*
X120629263Y-91120738D01*
X119358524Y-89850000D01*
X121215787Y-87992738D01*
X121688466Y-88465417D01*
X121723003Y-88489015D01*
X121892525Y-88658537D01*
X121942180Y-88778712D01*
X122160141Y-88997054D01*
X122445067Y-89115365D01*
X122753580Y-89115634D01*
X123038712Y-88997820D01*
X123257054Y-88779859D01*
X123375365Y-88494933D01*
X123375634Y-88186420D01*
X123257820Y-87901288D01*
X123039859Y-87682946D01*
X122918612Y-87632600D01*
X122757989Y-87471977D01*
X122727651Y-87426232D01*
X122254972Y-86953553D01*
X122983553Y-86224972D01*
X123456232Y-86697651D01*
X123456232Y-86697651D01*
G37*
X123456232Y-86697651D02*
X123604276Y-86798805D01*
X123780581Y-86837051D01*
X124358150Y-87414620D01*
X124066420Y-87414366D01*
X123781288Y-87532180D01*
X123562946Y-87750141D01*
X123444635Y-88035067D01*
X123444366Y-88343580D01*
X123562180Y-88628712D01*
X123780141Y-88847054D01*
X124065067Y-88965365D01*
X124373580Y-88965634D01*
X124658712Y-88847820D01*
X124877054Y-88629859D01*
X124995365Y-88344933D01*
X124995620Y-88052090D01*
X125099500Y-88155970D01*
X125099500Y-95700264D01*
X124724618Y-95325382D01*
X124529802Y-95195210D01*
X124300000Y-95149499D01*
X124299995Y-95149500D01*
X123855020Y-95149500D01*
X123896618Y-95088620D01*
X123934815Y-94900000D01*
X123934815Y-94500000D01*
X123901659Y-94323790D01*
X123854420Y-94250379D01*
X123896618Y-94188620D01*
X123934815Y-94000000D01*
X123934815Y-93600000D01*
X123901659Y-93423790D01*
X123797519Y-93261953D01*
X123638620Y-93153382D01*
X123450000Y-93115185D01*
X122850000Y-93115185D01*
X122673790Y-93148341D01*
X122594287Y-93199500D01*
X122018735Y-93199500D01*
X121825564Y-93006329D01*
X121825634Y-92926420D01*
X121707820Y-92641288D01*
X121489859Y-92422946D01*
X121204933Y-92304635D01*
X120896420Y-92304366D01*
X120790500Y-92348131D01*
X120790500Y-91510000D01*
X120748596Y-91299333D01*
X120708951Y-91240000D01*
X120629263Y-91120738D01*
X119358524Y-89850000D01*
X121215787Y-87992738D01*
X121688466Y-88465417D01*
X121723003Y-88489015D01*
X121892525Y-88658537D01*
X121942180Y-88778712D01*
X122160141Y-88997054D01*
X122445067Y-89115365D01*
X122753580Y-89115634D01*
X123038712Y-88997820D01*
X123257054Y-88779859D01*
X123375365Y-88494933D01*
X123375634Y-88186420D01*
X123257820Y-87901288D01*
X123039859Y-87682946D01*
X122918612Y-87632600D01*
X122757989Y-87471977D01*
X122727651Y-87426232D01*
X122254972Y-86953553D01*
X122983553Y-86224972D01*
X123456232Y-86697651D01*
G36*
X132624500Y-92703686D02*
X132567946Y-92760141D01*
X132449635Y-93045067D01*
X132449571Y-93118808D01*
X132405210Y-93185198D01*
X132359499Y-93415000D01*
X132359500Y-93415005D01*
X132359500Y-93968531D01*
X132245956Y-93921500D01*
X132205875Y-93921500D01*
X132060500Y-94066875D01*
X132060500Y-92778643D01*
X132328712Y-92667820D01*
X132547054Y-92449859D01*
X132624500Y-92263347D01*
X132624500Y-92703686D01*
X132624500Y-92703686D01*
G37*
X132624500Y-92703686D02*
X132567946Y-92760141D01*
X132449635Y-93045067D01*
X132449571Y-93118808D01*
X132405210Y-93185198D01*
X132359499Y-93415000D01*
X132359500Y-93415005D01*
X132359500Y-93968531D01*
X132245956Y-93921500D01*
X132205875Y-93921500D01*
X132060500Y-94066875D01*
X132060500Y-92778643D01*
X132328712Y-92667820D01*
X132547054Y-92449859D01*
X132624500Y-92263347D01*
X132624500Y-92703686D01*
G36*
X145151323Y-86565997D02*
X145432522Y-86847688D01*
X145800115Y-87000326D01*
X146198139Y-87000673D01*
X146565997Y-86848677D01*
X146791500Y-86623568D01*
X146791500Y-86660956D01*
X146816500Y-86721312D01*
X146816500Y-87350625D01*
X146987375Y-87521500D01*
X147921500Y-87521500D01*
X147921500Y-87501500D01*
X148078500Y-87501500D01*
X148078500Y-87521500D01*
X148098500Y-87521500D01*
X148098500Y-87678500D01*
X148078500Y-87678500D01*
X148078500Y-87698500D01*
X147921500Y-87698500D01*
X147921500Y-87678500D01*
X146987375Y-87678500D01*
X146816500Y-87849375D01*
X146816500Y-88535956D01*
X146920556Y-88787171D01*
X147112828Y-88979443D01*
X147233676Y-89029500D01*
X139250005Y-89029500D01*
X139250000Y-89029499D01*
X139020198Y-89075210D01*
X138959700Y-89115634D01*
X138825382Y-89205382D01*
X138825380Y-89205385D01*
X136270500Y-91760264D01*
X136270500Y-91698736D01*
X139199239Y-88769996D01*
X139311380Y-88846618D01*
X139500000Y-88884815D01*
X140500000Y-88884815D01*
X140676210Y-88851659D01*
X140838047Y-88747519D01*
X140946618Y-88588620D01*
X140984815Y-88400000D01*
X140984815Y-86800000D01*
X140951659Y-86623790D01*
X140875500Y-86505436D01*
X140875500Y-86500499D01*
X141000187Y-86200220D01*
X141151323Y-86565997D01*
X141432522Y-86847688D01*
X141800115Y-87000326D01*
X142198139Y-87000673D01*
X142565997Y-86848677D01*
X142847688Y-86567478D01*
X143000187Y-86200220D01*
X143124500Y-86501080D01*
X143124500Y-86507295D01*
X143053382Y-86611380D01*
X143015185Y-86800000D01*
X143015185Y-88400000D01*
X143048341Y-88576210D01*
X143152481Y-88738047D01*
X143311380Y-88846618D01*
X143500000Y-88884815D01*
X144500000Y-88884815D01*
X144676210Y-88851659D01*
X144838047Y-88747519D01*
X144946618Y-88588620D01*
X144984815Y-88400000D01*
X144984815Y-86800000D01*
X144951659Y-86623790D01*
X144875500Y-86505436D01*
X144875500Y-86500499D01*
X145000187Y-86200220D01*
X145151323Y-86565997D01*
X145151323Y-86565997D01*
G37*
X145151323Y-86565997D02*
X145432522Y-86847688D01*
X145800115Y-87000326D01*
X146198139Y-87000673D01*
X146565997Y-86848677D01*
X146791500Y-86623568D01*
X146791500Y-86660956D01*
X146816500Y-86721312D01*
X146816500Y-87350625D01*
X146987375Y-87521500D01*
X147921500Y-87521500D01*
X147921500Y-87501500D01*
X148078500Y-87501500D01*
X148078500Y-87521500D01*
X148098500Y-87521500D01*
X148098500Y-87678500D01*
X148078500Y-87678500D01*
X148078500Y-87698500D01*
X147921500Y-87698500D01*
X147921500Y-87678500D01*
X146987375Y-87678500D01*
X146816500Y-87849375D01*
X146816500Y-88535956D01*
X146920556Y-88787171D01*
X147112828Y-88979443D01*
X147233676Y-89029500D01*
X139250005Y-89029500D01*
X139250000Y-89029499D01*
X139020198Y-89075210D01*
X138959700Y-89115634D01*
X138825382Y-89205382D01*
X138825380Y-89205385D01*
X136270500Y-91760264D01*
X136270500Y-91698736D01*
X139199239Y-88769996D01*
X139311380Y-88846618D01*
X139500000Y-88884815D01*
X140500000Y-88884815D01*
X140676210Y-88851659D01*
X140838047Y-88747519D01*
X140946618Y-88588620D01*
X140984815Y-88400000D01*
X140984815Y-86800000D01*
X140951659Y-86623790D01*
X140875500Y-86505436D01*
X140875500Y-86500499D01*
X141000187Y-86200220D01*
X141151323Y-86565997D01*
X141432522Y-86847688D01*
X141800115Y-87000326D01*
X142198139Y-87000673D01*
X142565997Y-86848677D01*
X142847688Y-86567478D01*
X143000187Y-86200220D01*
X143124500Y-86501080D01*
X143124500Y-86507295D01*
X143053382Y-86611380D01*
X143015185Y-86800000D01*
X143015185Y-88400000D01*
X143048341Y-88576210D01*
X143152481Y-88738047D01*
X143311380Y-88846618D01*
X143500000Y-88884815D01*
X144500000Y-88884815D01*
X144676210Y-88851659D01*
X144838047Y-88747519D01*
X144946618Y-88588620D01*
X144984815Y-88400000D01*
X144984815Y-86800000D01*
X144951659Y-86623790D01*
X144875500Y-86505436D01*
X144875500Y-86500499D01*
X145000187Y-86200220D01*
X145151323Y-86565997D01*
G36*
X151860738Y-83029262D02*
X154012262Y-85180787D01*
X153524583Y-85668466D01*
X153500985Y-85703003D01*
X153341463Y-85862525D01*
X153221288Y-85912180D01*
X153002946Y-86130141D01*
X152884635Y-86415067D01*
X152884366Y-86723580D01*
X153002180Y-87008712D01*
X153220141Y-87227054D01*
X153505067Y-87345365D01*
X153642702Y-87345485D01*
X153481288Y-87412180D01*
X153262946Y-87630141D01*
X153144635Y-87915067D01*
X153144366Y-88223580D01*
X153262180Y-88508712D01*
X153480141Y-88727054D01*
X153765067Y-88845365D01*
X154062906Y-88845625D01*
X152569030Y-90339500D01*
X139630005Y-90339500D01*
X139630000Y-90339499D01*
X139400198Y-90385210D01*
X139363394Y-90409802D01*
X139230911Y-90498324D01*
X139498735Y-90230500D01*
X148949995Y-90230500D01*
X148950000Y-90230501D01*
X149179802Y-90184790D01*
X149374618Y-90054618D01*
X149964618Y-89464618D01*
X150094790Y-89269802D01*
X150140501Y-89040000D01*
X150140500Y-89039995D01*
X150140500Y-83102828D01*
X150175000Y-83109815D01*
X150575000Y-83109815D01*
X150751210Y-83076659D01*
X150824621Y-83029420D01*
X150886380Y-83071618D01*
X151075000Y-83109815D01*
X151475000Y-83109815D01*
X151651210Y-83076659D01*
X151813047Y-82972519D01*
X151817990Y-82965285D01*
X151860738Y-83029262D01*
X151860738Y-83029262D01*
G37*
X151860738Y-83029262D02*
X154012262Y-85180787D01*
X153524583Y-85668466D01*
X153500985Y-85703003D01*
X153341463Y-85862525D01*
X153221288Y-85912180D01*
X153002946Y-86130141D01*
X152884635Y-86415067D01*
X152884366Y-86723580D01*
X153002180Y-87008712D01*
X153220141Y-87227054D01*
X153505067Y-87345365D01*
X153642702Y-87345485D01*
X153481288Y-87412180D01*
X153262946Y-87630141D01*
X153144635Y-87915067D01*
X153144366Y-88223580D01*
X153262180Y-88508712D01*
X153480141Y-88727054D01*
X153765067Y-88845365D01*
X154062906Y-88845625D01*
X152569030Y-90339500D01*
X139630005Y-90339500D01*
X139630000Y-90339499D01*
X139400198Y-90385210D01*
X139363394Y-90409802D01*
X139230911Y-90498324D01*
X139498735Y-90230500D01*
X148949995Y-90230500D01*
X148950000Y-90230501D01*
X149179802Y-90184790D01*
X149374618Y-90054618D01*
X149964618Y-89464618D01*
X150094790Y-89269802D01*
X150140501Y-89040000D01*
X150140500Y-89039995D01*
X150140500Y-83102828D01*
X150175000Y-83109815D01*
X150575000Y-83109815D01*
X150751210Y-83076659D01*
X150824621Y-83029420D01*
X150886380Y-83071618D01*
X151075000Y-83109815D01*
X151475000Y-83109815D01*
X151651210Y-83076659D01*
X151813047Y-82972519D01*
X151817990Y-82965285D01*
X151860738Y-83029262D01*
G36*
X148098500Y-85959200D02*
X148098500Y-86040800D01*
X148040800Y-86098500D01*
X147959200Y-86098500D01*
X147901500Y-86040800D01*
X147901500Y-85959200D01*
X147959200Y-85901500D01*
X148040800Y-85901500D01*
X148098500Y-85959200D01*
X148098500Y-85959200D01*
G37*
X148098500Y-85959200D02*
X148098500Y-86040800D01*
X148040800Y-86098500D01*
X147959200Y-86098500D01*
X147901500Y-86040800D01*
X147901500Y-85959200D01*
X147959200Y-85901500D01*
X148040800Y-85901500D01*
X148098500Y-85959200D01*
G36*
X137025185Y-81195000D02*
X137034500Y-81244505D01*
X137034500Y-81534978D01*
X136984635Y-81655067D01*
X136984366Y-81963580D01*
X137102180Y-82248712D01*
X137320141Y-82467054D01*
X137605067Y-82585365D01*
X137913580Y-82585634D01*
X138198712Y-82467820D01*
X138300667Y-82366043D01*
X138234635Y-82525067D01*
X138234366Y-82833580D01*
X138350723Y-83115185D01*
X137500000Y-83115185D01*
X137323790Y-83148341D01*
X137161953Y-83252481D01*
X137053382Y-83411380D01*
X137015185Y-83600000D01*
X137015185Y-85200000D01*
X137048341Y-85376210D01*
X137124500Y-85494564D01*
X137124500Y-85499501D01*
X136999813Y-85799780D01*
X136848677Y-85434003D01*
X136567478Y-85152312D01*
X136199885Y-84999674D01*
X135801861Y-84999327D01*
X135434003Y-85151323D01*
X135152312Y-85432522D01*
X134999813Y-85799780D01*
X134875500Y-85498920D01*
X134875500Y-85492705D01*
X134946618Y-85388620D01*
X134984815Y-85200000D01*
X134984815Y-83600000D01*
X134951659Y-83423790D01*
X134847519Y-83261953D01*
X134688620Y-83153382D01*
X134500000Y-83115185D01*
X133500000Y-83115185D01*
X133323790Y-83148341D01*
X133161953Y-83252481D01*
X133068496Y-83389260D01*
X132740740Y-83061504D01*
X132846210Y-83041659D01*
X132919621Y-82994420D01*
X132981380Y-83036618D01*
X133170000Y-83074815D01*
X133570000Y-83074815D01*
X133746210Y-83041659D01*
X133908047Y-82937519D01*
X134016618Y-82778620D01*
X134054815Y-82590000D01*
X134054815Y-81990000D01*
X134021659Y-81813790D01*
X133975500Y-81742057D01*
X133975500Y-81371096D01*
X134157054Y-81189859D01*
X134275365Y-80904933D01*
X134275634Y-80596420D01*
X134231869Y-80490500D01*
X137025185Y-80490500D01*
X137025185Y-81195000D01*
X137025185Y-81195000D01*
G37*
X137025185Y-81195000D02*
X137034500Y-81244505D01*
X137034500Y-81534978D01*
X136984635Y-81655067D01*
X136984366Y-81963580D01*
X137102180Y-82248712D01*
X137320141Y-82467054D01*
X137605067Y-82585365D01*
X137913580Y-82585634D01*
X138198712Y-82467820D01*
X138300667Y-82366043D01*
X138234635Y-82525067D01*
X138234366Y-82833580D01*
X138350723Y-83115185D01*
X137500000Y-83115185D01*
X137323790Y-83148341D01*
X137161953Y-83252481D01*
X137053382Y-83411380D01*
X137015185Y-83600000D01*
X137015185Y-85200000D01*
X137048341Y-85376210D01*
X137124500Y-85494564D01*
X137124500Y-85499501D01*
X136999813Y-85799780D01*
X136848677Y-85434003D01*
X136567478Y-85152312D01*
X136199885Y-84999674D01*
X135801861Y-84999327D01*
X135434003Y-85151323D01*
X135152312Y-85432522D01*
X134999813Y-85799780D01*
X134875500Y-85498920D01*
X134875500Y-85492705D01*
X134946618Y-85388620D01*
X134984815Y-85200000D01*
X134984815Y-83600000D01*
X134951659Y-83423790D01*
X134847519Y-83261953D01*
X134688620Y-83153382D01*
X134500000Y-83115185D01*
X133500000Y-83115185D01*
X133323790Y-83148341D01*
X133161953Y-83252481D01*
X133068496Y-83389260D01*
X132740740Y-83061504D01*
X132846210Y-83041659D01*
X132919621Y-82994420D01*
X132981380Y-83036618D01*
X133170000Y-83074815D01*
X133570000Y-83074815D01*
X133746210Y-83041659D01*
X133908047Y-82937519D01*
X134016618Y-82778620D01*
X134054815Y-82590000D01*
X134054815Y-81990000D01*
X134021659Y-81813790D01*
X133975500Y-81742057D01*
X133975500Y-81371096D01*
X134157054Y-81189859D01*
X134275365Y-80904933D01*
X134275634Y-80596420D01*
X134231869Y-80490500D01*
X137025185Y-80490500D01*
X137025185Y-81195000D01*
G36*
X146295185Y-81175000D02*
X146314500Y-81277651D01*
X146314500Y-81510895D01*
X146254635Y-81655067D01*
X146254366Y-81963580D01*
X146372180Y-82248712D01*
X146590141Y-82467054D01*
X146875067Y-82585365D01*
X147183580Y-82585634D01*
X147468712Y-82467820D01*
X147587747Y-82348993D01*
X147514635Y-82525067D01*
X147514366Y-82833580D01*
X147632180Y-83118712D01*
X147850141Y-83337054D01*
X148135067Y-83455365D01*
X148443580Y-83455634D01*
X148728712Y-83337820D01*
X148939500Y-83127400D01*
X148939500Y-84922885D01*
X148912172Y-84895557D01*
X148660957Y-84791500D01*
X148249375Y-84791500D01*
X148242602Y-84798273D01*
X148210731Y-84785977D01*
X147985176Y-84791500D01*
X147921498Y-84791500D01*
X147921498Y-84793059D01*
X147756231Y-84797106D01*
X147750625Y-84791500D01*
X147339043Y-84791500D01*
X147087828Y-84895557D01*
X146984815Y-84998570D01*
X146984815Y-83600000D01*
X146951659Y-83423790D01*
X146847519Y-83261953D01*
X146688620Y-83153382D01*
X146500000Y-83115185D01*
X145500000Y-83115185D01*
X145323790Y-83148341D01*
X145161953Y-83252481D01*
X145053382Y-83411380D01*
X145015185Y-83600000D01*
X145015185Y-85200000D01*
X145048341Y-85376210D01*
X145124500Y-85494564D01*
X145124500Y-85499501D01*
X144999813Y-85799780D01*
X144848677Y-85434003D01*
X144567478Y-85152312D01*
X144199885Y-84999674D01*
X143801861Y-84999327D01*
X143434003Y-85151323D01*
X143152312Y-85432522D01*
X142999813Y-85799780D01*
X142875500Y-85498920D01*
X142875500Y-85492705D01*
X142946618Y-85388620D01*
X142984815Y-85200000D01*
X142984815Y-83600000D01*
X142951659Y-83423790D01*
X142847519Y-83261953D01*
X142688620Y-83153382D01*
X142500000Y-83115185D01*
X141500000Y-83115185D01*
X141323790Y-83148341D01*
X141161953Y-83252481D01*
X141053382Y-83411380D01*
X141015185Y-83600000D01*
X141015185Y-85200000D01*
X141048341Y-85376210D01*
X141124500Y-85494564D01*
X141124500Y-85499501D01*
X140999813Y-85799780D01*
X140848677Y-85434003D01*
X140567478Y-85152312D01*
X140199885Y-84999674D01*
X139869849Y-84999386D01*
X140674615Y-84194620D01*
X140674618Y-84194618D01*
X140774334Y-84045382D01*
X140804790Y-83999802D01*
X140850501Y-83770000D01*
X140850500Y-83769995D01*
X140850500Y-82997102D01*
X140886380Y-83021618D01*
X141075000Y-83059815D01*
X141475000Y-83059815D01*
X141651210Y-83026659D01*
X141724621Y-82979420D01*
X141786380Y-83021618D01*
X141975000Y-83059815D01*
X142375000Y-83059815D01*
X142551210Y-83026659D01*
X142713047Y-82922519D01*
X142821618Y-82763620D01*
X142859815Y-82575000D01*
X142859815Y-81975000D01*
X142826659Y-81798790D01*
X142775500Y-81719287D01*
X142775500Y-81543736D01*
X142793671Y-81525564D01*
X142873580Y-81525634D01*
X143158712Y-81407820D01*
X143377054Y-81189859D01*
X143495365Y-80904933D01*
X143495634Y-80596420D01*
X143451869Y-80490500D01*
X146295185Y-80490500D01*
X146295185Y-81175000D01*
X146295185Y-81175000D01*
G37*
X146295185Y-81175000D02*
X146314500Y-81277651D01*
X146314500Y-81510895D01*
X146254635Y-81655067D01*
X146254366Y-81963580D01*
X146372180Y-82248712D01*
X146590141Y-82467054D01*
X146875067Y-82585365D01*
X147183580Y-82585634D01*
X147468712Y-82467820D01*
X147587747Y-82348993D01*
X147514635Y-82525067D01*
X147514366Y-82833580D01*
X147632180Y-83118712D01*
X147850141Y-83337054D01*
X148135067Y-83455365D01*
X148443580Y-83455634D01*
X148728712Y-83337820D01*
X148939500Y-83127400D01*
X148939500Y-84922885D01*
X148912172Y-84895557D01*
X148660957Y-84791500D01*
X148249375Y-84791500D01*
X148242602Y-84798273D01*
X148210731Y-84785977D01*
X147985176Y-84791500D01*
X147921498Y-84791500D01*
X147921498Y-84793059D01*
X147756231Y-84797106D01*
X147750625Y-84791500D01*
X147339043Y-84791500D01*
X147087828Y-84895557D01*
X146984815Y-84998570D01*
X146984815Y-83600000D01*
X146951659Y-83423790D01*
X146847519Y-83261953D01*
X146688620Y-83153382D01*
X146500000Y-83115185D01*
X145500000Y-83115185D01*
X145323790Y-83148341D01*
X145161953Y-83252481D01*
X145053382Y-83411380D01*
X145015185Y-83600000D01*
X145015185Y-85200000D01*
X145048341Y-85376210D01*
X145124500Y-85494564D01*
X145124500Y-85499501D01*
X144999813Y-85799780D01*
X144848677Y-85434003D01*
X144567478Y-85152312D01*
X144199885Y-84999674D01*
X143801861Y-84999327D01*
X143434003Y-85151323D01*
X143152312Y-85432522D01*
X142999813Y-85799780D01*
X142875500Y-85498920D01*
X142875500Y-85492705D01*
X142946618Y-85388620D01*
X142984815Y-85200000D01*
X142984815Y-83600000D01*
X142951659Y-83423790D01*
X142847519Y-83261953D01*
X142688620Y-83153382D01*
X142500000Y-83115185D01*
X141500000Y-83115185D01*
X141323790Y-83148341D01*
X141161953Y-83252481D01*
X141053382Y-83411380D01*
X141015185Y-83600000D01*
X141015185Y-85200000D01*
X141048341Y-85376210D01*
X141124500Y-85494564D01*
X141124500Y-85499501D01*
X140999813Y-85799780D01*
X140848677Y-85434003D01*
X140567478Y-85152312D01*
X140199885Y-84999674D01*
X139869849Y-84999386D01*
X140674615Y-84194620D01*
X140674618Y-84194618D01*
X140774334Y-84045382D01*
X140804790Y-83999802D01*
X140850501Y-83770000D01*
X140850500Y-83769995D01*
X140850500Y-82997102D01*
X140886380Y-83021618D01*
X141075000Y-83059815D01*
X141475000Y-83059815D01*
X141651210Y-83026659D01*
X141724621Y-82979420D01*
X141786380Y-83021618D01*
X141975000Y-83059815D01*
X142375000Y-83059815D01*
X142551210Y-83026659D01*
X142713047Y-82922519D01*
X142821618Y-82763620D01*
X142859815Y-82575000D01*
X142859815Y-81975000D01*
X142826659Y-81798790D01*
X142775500Y-81719287D01*
X142775500Y-81543736D01*
X142793671Y-81525564D01*
X142873580Y-81525634D01*
X143158712Y-81407820D01*
X143377054Y-81189859D01*
X143495365Y-80904933D01*
X143495634Y-80596420D01*
X143451869Y-80490500D01*
X146295185Y-80490500D01*
X146295185Y-81175000D01*
M02*
