M48
;DRILL file {KiCad 4.0.7-e2-6376~58~ubuntu16.04.1} date Mon Jul 30 23:14:05 2018
;FORMAT={-:-/ absolute / metric / decimal}
FMAT,2
METRIC,TZ
T1C0.400
T2C0.880
%
G90
G05
M71
T1
X121.05Y-93.08
X121.05Y-103.48
X122.03Y-98.25
X122.6Y-88.34
X123.17Y-97.
X124.22Y-88.19
X124.27Y-105.76
X124.36Y-91.87
X124.37Y-99.49
X124.37Y-107.44
X125.24Y-84.16
X126.725Y-112.575
X126.81Y-106.76
X127.22Y-86.85
X127.89Y-93.33
X128.48Y-81.81
X128.75Y-96.775
X129.73Y-82.68
X129.74Y-111.22
X130.15Y-101.88
X130.57Y-93.63
X130.98Y-112.29
X131.89Y-92.01
X132.22Y-93.24
X132.23Y-110.02
X133.225Y-93.2
X133.5Y-80.75
X134.33Y-93.24
X134.4Y-101.89
X134.97Y-113.31
X136.51Y-83.84
X137.47Y-94.7
X137.76Y-81.81
X138.15Y-94.06
X139.01Y-82.68
X139.01Y-111.22
X140.26Y-110.03
X140.26Y-112.29
X142.72Y-80.75
X144.Y-83.84
X144.45Y-113.31
X147.03Y-81.81
X148.29Y-82.68
X148.29Y-111.21
X149.54Y-112.29
X149.61Y-95.75
X150.77Y-107.35
X151.02Y-98.94
X151.37Y-87.08
X151.42Y-80.64
X152.58Y-110.03
X153.66Y-86.57
X153.83Y-94.5
X153.83Y-104.23
X153.89Y-105.9
X153.92Y-88.07
X154.97Y-97.
X155.41Y-105.65
X155.9Y-95.75
X156.97Y-90.18
X156.97Y-100.91
T2
X130.Y-86.
X130.Y-108.
X132.Y-86.
X132.Y-108.
X134.Y-86.
X134.Y-108.
X136.Y-86.
X136.Y-108.
X138.Y-86.
X138.Y-108.
X140.Y-86.
X140.Y-108.
X142.Y-86.
X142.Y-108.
X144.Y-86.
X144.Y-108.
X146.Y-86.
X146.Y-108.
X148.Y-86.
X148.Y-108.
T0
M30
