G04 #@! TF.FileFunction,Copper,L3,Inr,Signal*
%FSLAX46Y46*%
G04 Gerber Fmt 4.6, Leading zero omitted, Abs format (unit mm)*
G04 Created by KiCad (PCBNEW 4.0.7-e2-6376~58~ubuntu16.04.1) date Thu Aug  2 08:30:36 2018*
%MOMM*%
%LPD*%
G01*
G04 APERTURE LIST*
%ADD10C,0.100000*%
%ADD11C,1.050000*%
%ADD12R,1.050000X1.050000*%
%ADD13C,0.600000*%
%ADD14C,0.500000*%
G04 APERTURE END LIST*
D10*
D11*
X130000000Y-86000000D03*
X146000000Y-86000000D03*
D12*
X148000000Y-86000000D03*
D11*
X134000000Y-86000000D03*
X132000000Y-86000000D03*
X144000000Y-86000000D03*
X142000000Y-86000000D03*
X136000000Y-86000000D03*
X138000000Y-86000000D03*
X140000000Y-86000000D03*
X130000000Y-108000000D03*
X146000000Y-108000000D03*
D12*
X148000000Y-108000000D03*
D11*
X134000000Y-108000000D03*
X132000000Y-108000000D03*
X144000000Y-108000000D03*
X142000000Y-108000000D03*
X136000000Y-108000000D03*
X138000000Y-108000000D03*
X140000000Y-108000000D03*
D13*
X142625000Y-99625000D03*
X130150000Y-101880000D03*
X134400000Y-101890000D03*
X126725000Y-112575000D03*
X151420000Y-80640000D03*
X133500000Y-80750000D03*
X142720000Y-80750000D03*
X156970000Y-90180000D03*
X156970000Y-100910000D03*
X152580000Y-110030000D03*
X144450000Y-113310000D03*
X134970000Y-113310000D03*
X121050000Y-103480000D03*
X125240000Y-84160000D03*
X121050000Y-93080000D03*
X133225000Y-93200000D03*
X153825000Y-93675000D03*
X127890000Y-93330000D03*
X132220000Y-93240000D03*
X126810000Y-106760000D03*
X153830000Y-104230000D03*
X132230000Y-110020000D03*
X140260000Y-110030000D03*
X150770000Y-107350000D03*
X136510000Y-83840000D03*
X127220000Y-86850000D03*
X124360000Y-91870000D03*
X124370000Y-99490000D03*
X151370000Y-87080000D03*
X144000000Y-83840000D03*
X151020000Y-98940000D03*
X134330000Y-93240000D03*
X131890000Y-92010000D03*
X137470000Y-94700000D03*
X124270000Y-105760000D03*
X139010000Y-111220000D03*
X124220000Y-88190000D03*
X123170000Y-97000000D03*
X148290000Y-111210000D03*
X153890000Y-105900000D03*
X154970000Y-97000000D03*
X153920000Y-88070000D03*
X139010000Y-82680000D03*
X129730000Y-82680000D03*
X148290000Y-82680000D03*
X129740000Y-111220000D03*
X138150000Y-94060000D03*
X130570000Y-93630000D03*
X122600000Y-88340000D03*
X122030000Y-98250000D03*
X124370000Y-107440000D03*
X130980000Y-112290000D03*
X140260000Y-112290000D03*
X149540000Y-112290000D03*
X155410000Y-105650000D03*
X155900000Y-95750000D03*
X153660000Y-86570000D03*
X137760000Y-81810000D03*
X147030000Y-81810000D03*
X128480000Y-81810000D03*
X128750000Y-96775000D03*
D14*
X126725000Y-112575000D02*
X127377500Y-111922500D01*
X127377500Y-111922500D02*
X127377500Y-111897500D01*
X151475000Y-80695000D02*
X151475000Y-82935000D01*
X151420000Y-80640000D02*
X151475000Y-80695000D01*
X134970000Y-113310000D02*
X128790000Y-113310000D01*
X128790000Y-113310000D02*
X127377500Y-111897500D01*
X127377500Y-111897500D02*
X127230000Y-111750000D01*
X121050000Y-93080000D02*
X121050000Y-88350000D01*
X121050000Y-88350000D02*
X125240000Y-84160000D01*
X150790000Y-82260000D02*
X150795000Y-82255000D01*
X150795000Y-82255000D02*
X150790000Y-82260000D01*
X150790000Y-82260000D02*
X150790000Y-82250000D01*
X152580000Y-110030000D02*
X152590000Y-110040000D01*
X152590000Y-110040000D02*
X152580000Y-110030000D01*
X152580000Y-110030000D02*
X152580000Y-110050000D01*
X125240000Y-84160000D02*
X126920000Y-82480000D01*
X126920000Y-82480000D02*
X126920000Y-81600000D01*
X126920000Y-81600000D02*
X127770000Y-80750000D01*
X127770000Y-80750000D02*
X133500000Y-80750000D01*
X121050000Y-105570000D02*
X121050000Y-103480000D01*
X127230000Y-111750000D02*
X121050000Y-105570000D01*
X121050000Y-103480000D02*
X121050000Y-93080000D01*
X150430000Y-113310000D02*
X144450000Y-113310000D01*
X144450000Y-113310000D02*
X134970000Y-113310000D01*
X150940000Y-112800000D02*
X150430000Y-113310000D01*
X150940000Y-111690000D02*
X150940000Y-112800000D01*
X156970000Y-105660000D02*
X152580000Y-110050000D01*
X152580000Y-110050000D02*
X150940000Y-111690000D01*
X156970000Y-88430000D02*
X156970000Y-90180000D01*
X156970000Y-90180000D02*
X156970000Y-100910000D01*
X156970000Y-100910000D02*
X156970000Y-105660000D01*
X149290000Y-80750000D02*
X150790000Y-82250000D01*
X150790000Y-82250000D02*
X151475000Y-82935000D01*
X151475000Y-82935000D02*
X156970000Y-88430000D01*
X149480000Y-80750000D02*
X149290000Y-80750000D01*
X133500000Y-80750000D02*
X142720000Y-80750000D01*
X142720000Y-80750000D02*
X149480000Y-80750000D01*
X131890000Y-92010000D02*
X134780000Y-92010000D01*
X134780000Y-92010000D02*
X137470000Y-94700000D01*
X131890000Y-92010000D02*
X131900000Y-91950000D01*
X131900000Y-91950000D02*
X134410000Y-89440000D01*
X124270000Y-105760000D02*
X124275000Y-105755000D01*
X124275000Y-105755000D02*
X124270000Y-105760000D01*
X124270000Y-105760000D02*
X124270000Y-105750000D01*
X123170000Y-97000000D02*
X123170000Y-104650000D01*
X123170000Y-104650000D02*
X124270000Y-105750000D01*
X124270000Y-105750000D02*
X129740000Y-111220000D01*
X129740000Y-111220000D02*
X139010000Y-111220000D01*
X139010000Y-111220000D02*
X148280000Y-111220000D01*
X148280000Y-111220000D02*
X148290000Y-111210000D01*
X123170000Y-97000000D02*
X123170000Y-97000000D01*
X123170000Y-97000000D02*
X123170000Y-89240000D01*
X123170000Y-89240000D02*
X124220000Y-88190000D01*
X124220000Y-88190000D02*
X129730000Y-82680000D01*
X153890000Y-105900000D02*
X148290000Y-111210000D01*
X154970000Y-104820000D02*
X154970000Y-97000000D01*
X153890000Y-105900000D02*
X154970000Y-104820000D01*
X153920000Y-88070000D02*
X154970000Y-89120000D01*
X154970000Y-89120000D02*
X154970000Y-97000000D01*
X148290000Y-82680000D02*
X148530000Y-82680000D01*
X148530000Y-82680000D02*
X153920000Y-88070000D01*
X129730000Y-82680000D02*
X139010000Y-82680000D01*
X142000000Y-87720000D02*
X142000000Y-86000000D01*
X140280000Y-89440000D02*
X142000000Y-87720000D01*
X134410000Y-89440000D02*
X140280000Y-89440000D01*
X142000000Y-86000000D02*
X142000000Y-83000000D01*
X142000000Y-83000000D02*
X142320000Y-82680000D01*
X139010000Y-82680000D02*
X142320000Y-82680000D01*
X142320000Y-82680000D02*
X148290000Y-82680000D01*
M02*
