G04 #@! TF.FileFunction,Soldermask,Bot*
%FSLAX46Y46*%
G04 Gerber Fmt 4.6, Leading zero omitted, Abs format (unit mm)*
G04 Created by KiCad (PCBNEW 4.0.7-e2-6376~58~ubuntu16.04.1) date Mon Jul 30 23:14:02 2018*
%MOMM*%
%LPD*%
G01*
G04 APERTURE LIST*
%ADD10C,0.100000*%
%ADD11C,1.400000*%
%ADD12C,1.000000*%
G04 APERTURE END LIST*
D10*
D11*
X148000000Y-108000000D03*
X146000000Y-108000000D03*
X144000000Y-108000000D03*
X142000000Y-108000000D03*
X140000000Y-108000000D03*
X138000000Y-108000000D03*
X136000000Y-108000000D03*
X134000000Y-108000000D03*
X132000000Y-108000000D03*
X130000000Y-108000000D03*
X148000000Y-86000000D03*
X146000000Y-86000000D03*
X144000000Y-86000000D03*
X142000000Y-86000000D03*
X140000000Y-86000000D03*
X138000000Y-86000000D03*
X136000000Y-86000000D03*
X134000000Y-86000000D03*
X132000000Y-86000000D03*
X130000000Y-86000000D03*
D12*
X130150000Y-101880000D03*
X134400000Y-101890000D03*
X133225000Y-93200000D03*
X126725000Y-112575000D03*
X151420000Y-80640000D03*
X133500000Y-80750000D03*
X142720000Y-80750000D03*
X156970000Y-90180000D03*
X156970000Y-100910000D03*
X152580000Y-110030000D03*
X144450000Y-113310000D03*
X134970000Y-113310000D03*
X121050000Y-103480000D03*
X125240000Y-84160000D03*
X121050000Y-93080000D03*
X127890000Y-93330000D03*
X132220000Y-93240000D03*
X126810000Y-106760000D03*
X153830000Y-104230000D03*
X151370000Y-87080000D03*
X132230000Y-110020000D03*
X140260000Y-110030000D03*
X153830000Y-94500000D03*
X144000000Y-83840000D03*
X150770000Y-107350000D03*
X136510000Y-83840000D03*
X127220000Y-86850000D03*
X124360000Y-91870000D03*
X124370000Y-99490000D03*
X149610000Y-95750000D03*
X134330000Y-93240000D03*
X151020000Y-98940000D03*
X131890000Y-92010000D03*
X137470000Y-94700000D03*
X124270000Y-105760000D03*
X139010000Y-111220000D03*
X124220000Y-88190000D03*
X123170000Y-97000000D03*
X129740000Y-111220000D03*
X148290000Y-111210000D03*
X153890000Y-105900000D03*
X154970000Y-97000000D03*
X153920000Y-88070000D03*
X139010000Y-82680000D03*
X129730000Y-82680000D03*
X148290000Y-82680000D03*
X138150000Y-94060000D03*
X130570000Y-93630000D03*
X122600000Y-88340000D03*
X122030000Y-98250000D03*
X124370000Y-107440000D03*
X130980000Y-112290000D03*
X140260000Y-112290000D03*
X149540000Y-112290000D03*
X155410000Y-105650000D03*
X155900000Y-95750000D03*
X153660000Y-86570000D03*
X137760000Y-81810000D03*
X147030000Y-81810000D03*
X128480000Y-81810000D03*
X128750000Y-96775000D03*
M02*
