G04 #@! TF.FileFunction,Legend,Top*
%FSLAX46Y46*%
G04 Gerber Fmt 4.6, Leading zero omitted, Abs format (unit mm)*
G04 Created by KiCad (PCBNEW 4.0.7-e2-6376~58~ubuntu16.04.1) date Mon Jul 30 23:14:02 2018*
%MOMM*%
%LPD*%
G01*
G04 APERTURE LIST*
%ADD10C,0.100000*%
%ADD11C,0.120000*%
%ADD12C,0.150000*%
G04 APERTURE END LIST*
D10*
D11*
X139830000Y-99910000D02*
X139830000Y-99410000D01*
X138890000Y-99410000D02*
X138890000Y-99910000D01*
X138890000Y-93610000D02*
X138890000Y-94110000D01*
X139830000Y-94110000D02*
X139830000Y-93610000D01*
X150570000Y-97930000D02*
X151470000Y-97930000D01*
X151470000Y-97930000D02*
X151470000Y-96480000D01*
X150570000Y-97930000D02*
X150570000Y-96480000D01*
X133630000Y-96510000D02*
X133630000Y-97010000D01*
X134690000Y-97010000D02*
X134690000Y-96510000D01*
D12*
X140287475Y-98060000D02*
G75*
G03X140287475Y-98060000I-127475J0D01*
G01*
X139360000Y-98060000D02*
X135360000Y-98060000D01*
X135360000Y-98060000D02*
X135360000Y-95460000D01*
X135360000Y-95460000D02*
X140160000Y-95460000D01*
X140160000Y-95460000D02*
X140160000Y-98060000D01*
X140160000Y-98060000D02*
X139360000Y-98060000D01*
X126730000Y-80040000D02*
X126730000Y-81540000D01*
X126730000Y-81540000D02*
X132730000Y-81540000D01*
X132730000Y-81540000D02*
X132730000Y-80040000D01*
X136000000Y-80040000D02*
X136000000Y-81540000D01*
X136000000Y-81540000D02*
X142000000Y-81540000D01*
X142000000Y-81540000D02*
X142000000Y-80040000D01*
X145290000Y-80040000D02*
X145290000Y-81540000D01*
X145290000Y-81540000D02*
X151290000Y-81540000D01*
X151290000Y-81540000D02*
X151290000Y-80040000D01*
X153602944Y-84144416D02*
X152542284Y-85205076D01*
X152542284Y-85205076D02*
X156784924Y-89447716D01*
X156784924Y-89447716D02*
X157845584Y-88387056D01*
X157680000Y-94000000D02*
X156180000Y-94000000D01*
X156180000Y-94000000D02*
X156180000Y-100000000D01*
X156180000Y-100000000D02*
X157680000Y-100000000D01*
X157895584Y-105652944D02*
X156834924Y-104592284D01*
X156834924Y-104592284D02*
X152592284Y-108834924D01*
X152592284Y-108834924D02*
X153652944Y-109895584D01*
X151275000Y-113950000D02*
X151275000Y-112450000D01*
X151275000Y-112450000D02*
X145275000Y-112450000D01*
X145275000Y-112450000D02*
X145275000Y-113950000D01*
X142000000Y-113950000D02*
X142000000Y-112450000D01*
X142000000Y-112450000D02*
X136000000Y-112450000D01*
X136000000Y-112450000D02*
X136000000Y-113950000D01*
X132730000Y-113960000D02*
X132730000Y-112460000D01*
X132730000Y-112460000D02*
X126730000Y-112460000D01*
X126730000Y-112460000D02*
X126730000Y-113960000D01*
X124422056Y-109845584D02*
X125482716Y-108784924D01*
X125482716Y-108784924D02*
X121240076Y-104542284D01*
X121240076Y-104542284D02*
X120179416Y-105602944D01*
X120325000Y-100000000D02*
X121825000Y-100000000D01*
X121825000Y-100000000D02*
X121825000Y-94000000D01*
X121825000Y-94000000D02*
X120325000Y-94000000D01*
X120179416Y-88397056D02*
X121240076Y-89457716D01*
X121240076Y-89457716D02*
X125482716Y-85215076D01*
X125482716Y-85215076D02*
X124422056Y-84154416D01*
X154520000Y-97000000D02*
X154120000Y-97350000D01*
X154520000Y-97000000D02*
X154120000Y-96650000D01*
X153420000Y-97000000D02*
X154520000Y-97000000D01*
X153420446Y-97000000D02*
G75*
G03X153420446Y-97000000I-700446J0D01*
G01*
X152799057Y-97000000D02*
G75*
G03X152799057Y-97000000I-79057J0D01*
G01*
D10*
X140628571Y-99753333D02*
X140652381Y-99777143D01*
X140676190Y-99848571D01*
X140676190Y-99896190D01*
X140652381Y-99967619D01*
X140604762Y-100015238D01*
X140557143Y-100039047D01*
X140461905Y-100062857D01*
X140390476Y-100062857D01*
X140295238Y-100039047D01*
X140247619Y-100015238D01*
X140200000Y-99967619D01*
X140176190Y-99896190D01*
X140176190Y-99848571D01*
X140200000Y-99777143D01*
X140223810Y-99753333D01*
X140223810Y-99562857D02*
X140200000Y-99539047D01*
X140176190Y-99491428D01*
X140176190Y-99372381D01*
X140200000Y-99324762D01*
X140223810Y-99300952D01*
X140271429Y-99277143D01*
X140319048Y-99277143D01*
X140390476Y-99300952D01*
X140676190Y-99586666D01*
X140676190Y-99277143D01*
X140568571Y-93943333D02*
X140592381Y-93967143D01*
X140616190Y-94038571D01*
X140616190Y-94086190D01*
X140592381Y-94157619D01*
X140544762Y-94205238D01*
X140497143Y-94229047D01*
X140401905Y-94252857D01*
X140330476Y-94252857D01*
X140235238Y-94229047D01*
X140187619Y-94205238D01*
X140140000Y-94157619D01*
X140116190Y-94086190D01*
X140116190Y-94038571D01*
X140140000Y-93967143D01*
X140163810Y-93943333D01*
X140116190Y-93776666D02*
X140116190Y-93467143D01*
X140306667Y-93633809D01*
X140306667Y-93562381D01*
X140330476Y-93514762D01*
X140354286Y-93490952D01*
X140401905Y-93467143D01*
X140520952Y-93467143D01*
X140568571Y-93490952D01*
X140592381Y-93514762D01*
X140616190Y-93562381D01*
X140616190Y-93705238D01*
X140592381Y-93752857D01*
X140568571Y-93776666D01*
X150046190Y-97349047D02*
X149546190Y-97349047D01*
X149546190Y-97230000D01*
X149570000Y-97158571D01*
X149617619Y-97110952D01*
X149665238Y-97087143D01*
X149760476Y-97063333D01*
X149831905Y-97063333D01*
X149927143Y-97087143D01*
X149974762Y-97110952D01*
X150022381Y-97158571D01*
X150046190Y-97230000D01*
X150046190Y-97349047D01*
X150046190Y-96587143D02*
X150046190Y-96872857D01*
X150046190Y-96730000D02*
X149546190Y-96730000D01*
X149617619Y-96777619D01*
X149665238Y-96825238D01*
X149689048Y-96872857D01*
X133286190Y-96843333D02*
X133048095Y-97010000D01*
X133286190Y-97129047D02*
X132786190Y-97129047D01*
X132786190Y-96938571D01*
X132810000Y-96890952D01*
X132833810Y-96867143D01*
X132881429Y-96843333D01*
X132952857Y-96843333D01*
X133000476Y-96867143D01*
X133024286Y-96890952D01*
X133048095Y-96938571D01*
X133048095Y-97129047D01*
X132952857Y-96414762D02*
X133286190Y-96414762D01*
X132762381Y-96533809D02*
X133119524Y-96652857D01*
X133119524Y-96343333D01*
X140586190Y-97140952D02*
X140990952Y-97140952D01*
X141038571Y-97117143D01*
X141062381Y-97093333D01*
X141086190Y-97045714D01*
X141086190Y-96950476D01*
X141062381Y-96902857D01*
X141038571Y-96879048D01*
X140990952Y-96855238D01*
X140586190Y-96855238D01*
X140586190Y-96664761D02*
X140586190Y-96355238D01*
X140776667Y-96521904D01*
X140776667Y-96450476D01*
X140800476Y-96402857D01*
X140824286Y-96379047D01*
X140871905Y-96355238D01*
X140990952Y-96355238D01*
X141038571Y-96379047D01*
X141062381Y-96402857D01*
X141086190Y-96450476D01*
X141086190Y-96593333D01*
X141062381Y-96640952D01*
X141038571Y-96664761D01*
X132107560Y-79036190D02*
X132062917Y-79393333D01*
X132030179Y-79464762D01*
X131976607Y-79512381D01*
X131902203Y-79536190D01*
X131854584Y-79536190D01*
X132298036Y-79036190D02*
X132607559Y-79036190D01*
X132417084Y-79226667D01*
X132488512Y-79226667D01*
X132533155Y-79250476D01*
X132553988Y-79274286D01*
X132571845Y-79321905D01*
X132556964Y-79440952D01*
X132527203Y-79488571D01*
X132500416Y-79512381D01*
X132449821Y-79536190D01*
X132306964Y-79536190D01*
X132262321Y-79512381D01*
X132241489Y-79488571D01*
X141417560Y-79096190D02*
X141372917Y-79453333D01*
X141340179Y-79524762D01*
X141286607Y-79572381D01*
X141212203Y-79596190D01*
X141164584Y-79596190D01*
X141849107Y-79262857D02*
X141807440Y-79596190D01*
X141753869Y-79072381D02*
X141590179Y-79429524D01*
X141899703Y-79429524D01*
X150727560Y-79096190D02*
X150682917Y-79453333D01*
X150650179Y-79524762D01*
X150596607Y-79572381D01*
X150522203Y-79596190D01*
X150474584Y-79596190D01*
X151203750Y-79096190D02*
X150965655Y-79096190D01*
X150912083Y-79334286D01*
X150938870Y-79310476D01*
X150989465Y-79286667D01*
X151108512Y-79286667D01*
X151153155Y-79310476D01*
X151173988Y-79334286D01*
X151191845Y-79381905D01*
X151176964Y-79500952D01*
X151147203Y-79548571D01*
X151120416Y-79572381D01*
X151069821Y-79596190D01*
X150950774Y-79596190D01*
X150906131Y-79572381D01*
X150885298Y-79548571D01*
X158029964Y-87232738D02*
X157745858Y-87453709D01*
X157672201Y-87481067D01*
X157600648Y-87476858D01*
X157531201Y-87441082D01*
X157497529Y-87407410D01*
X158349845Y-87552619D02*
X158282501Y-87485275D01*
X158229889Y-87466336D01*
X158194113Y-87464232D01*
X158103620Y-87474754D01*
X158011023Y-87516843D01*
X157859500Y-87634694D01*
X157838456Y-87680993D01*
X157836350Y-87712560D01*
X157851082Y-87760963D01*
X157918425Y-87828306D01*
X157971037Y-87847247D01*
X158006814Y-87849352D01*
X158061530Y-87836724D01*
X158156232Y-87763068D01*
X158177277Y-87716769D01*
X158179382Y-87685202D01*
X158164650Y-87636799D01*
X158097306Y-87569456D01*
X158044695Y-87550515D01*
X158008918Y-87548411D01*
X157954201Y-87561038D01*
X158166190Y-94742440D02*
X158523333Y-94787083D01*
X158594762Y-94819821D01*
X158642381Y-94873393D01*
X158666190Y-94947797D01*
X158666190Y-94995416D01*
X158166190Y-94551964D02*
X158166190Y-94218631D01*
X158666190Y-94495417D01*
X157637738Y-106425036D02*
X157858709Y-106709142D01*
X157886067Y-106782799D01*
X157881858Y-106854352D01*
X157846082Y-106923799D01*
X157812410Y-106957471D01*
X157989187Y-106376633D02*
X157940784Y-106391365D01*
X157909217Y-106389260D01*
X157862917Y-106368216D01*
X157848186Y-106349276D01*
X157835560Y-106294559D01*
X157837664Y-106258783D01*
X157856604Y-106206171D01*
X157923947Y-106138827D01*
X157972351Y-106124096D01*
X158003919Y-106126200D01*
X158050217Y-106147246D01*
X158064948Y-106166186D01*
X158077575Y-106220902D01*
X158075471Y-106256678D01*
X158056530Y-106309290D01*
X157989187Y-106376633D01*
X157970246Y-106429246D01*
X157968142Y-106465022D01*
X157980769Y-106519738D01*
X158039694Y-106595500D01*
X158085993Y-106616544D01*
X158117560Y-106618650D01*
X158165963Y-106603918D01*
X158233306Y-106536575D01*
X158252247Y-106483963D01*
X158254352Y-106448186D01*
X158241724Y-106393470D01*
X158182799Y-106317708D01*
X158136501Y-106296663D01*
X158104933Y-106294560D01*
X158056530Y-106309290D01*
X150642560Y-114401190D02*
X150597917Y-114758333D01*
X150565179Y-114829762D01*
X150511607Y-114877381D01*
X150437203Y-114901190D01*
X150389584Y-114901190D01*
X150841964Y-114901190D02*
X150937202Y-114901190D01*
X150987797Y-114877381D01*
X151014584Y-114853571D01*
X151071131Y-114782143D01*
X151106845Y-114686905D01*
X151130654Y-114496429D01*
X151112798Y-114448810D01*
X151091964Y-114425000D01*
X151047321Y-114401190D01*
X150952083Y-114401190D01*
X150901488Y-114425000D01*
X150874703Y-114448810D01*
X150844940Y-114496429D01*
X150830060Y-114615476D01*
X150847917Y-114663095D01*
X150868750Y-114686905D01*
X150913393Y-114710714D01*
X151008631Y-114710714D01*
X151059226Y-114686905D01*
X151086012Y-114663095D01*
X151115774Y-114615476D01*
X140979465Y-114251190D02*
X140934822Y-114608333D01*
X140902084Y-114679762D01*
X140848512Y-114727381D01*
X140774108Y-114751190D01*
X140726489Y-114751190D01*
X141416964Y-114751190D02*
X141131250Y-114751190D01*
X141274107Y-114751190D02*
X141336607Y-114251190D01*
X141280060Y-114322619D01*
X141226488Y-114370238D01*
X141175893Y-114394048D01*
X141788988Y-114251190D02*
X141836607Y-114251190D01*
X141881250Y-114275000D01*
X141902083Y-114298810D01*
X141919940Y-114346429D01*
X141931845Y-114441667D01*
X141916964Y-114560714D01*
X141881250Y-114655952D01*
X141851488Y-114703571D01*
X141824702Y-114727381D01*
X141774107Y-114751190D01*
X141726488Y-114751190D01*
X141681845Y-114727381D01*
X141661012Y-114703571D01*
X141643155Y-114655952D01*
X141631250Y-114560714D01*
X141646131Y-114441667D01*
X141681845Y-114346429D01*
X141711607Y-114298810D01*
X141738393Y-114275000D01*
X141788988Y-114251190D01*
X131779465Y-114376190D02*
X131734822Y-114733333D01*
X131702084Y-114804762D01*
X131648512Y-114852381D01*
X131574108Y-114876190D01*
X131526489Y-114876190D01*
X132216964Y-114876190D02*
X131931250Y-114876190D01*
X132074107Y-114876190D02*
X132136607Y-114376190D01*
X132080060Y-114447619D01*
X132026488Y-114495238D01*
X131975893Y-114519048D01*
X132693154Y-114876190D02*
X132407440Y-114876190D01*
X132550297Y-114876190D02*
X132612797Y-114376190D01*
X132556250Y-114447619D01*
X132502678Y-114495238D01*
X132452083Y-114519048D01*
X123256605Y-109419379D02*
X122972499Y-109640350D01*
X122898842Y-109667709D01*
X122827289Y-109663499D01*
X122757842Y-109627723D01*
X122724171Y-109594052D01*
X123212410Y-110082291D02*
X123010380Y-109880261D01*
X123111395Y-109981276D02*
X123509143Y-109671917D01*
X123418650Y-109682440D01*
X123347097Y-109678231D01*
X123294485Y-109659291D01*
X123706964Y-109937083D02*
X123742740Y-109939187D01*
X123795353Y-109958127D01*
X123879532Y-110042306D01*
X123894263Y-110090709D01*
X123892158Y-110122277D01*
X123871113Y-110168575D01*
X123833232Y-110198038D01*
X123759577Y-110225397D01*
X123330262Y-110200143D01*
X123549127Y-110419008D01*
X119326190Y-99795535D02*
X119683333Y-99840178D01*
X119754762Y-99872916D01*
X119802381Y-99926488D01*
X119826190Y-100000892D01*
X119826190Y-100048511D01*
X119826190Y-99358036D02*
X119826190Y-99643750D01*
X119826190Y-99500893D02*
X119326190Y-99438393D01*
X119397619Y-99494940D01*
X119445238Y-99548512D01*
X119469048Y-99599107D01*
X119326190Y-99128869D02*
X119326190Y-98819346D01*
X119516667Y-99009821D01*
X119516667Y-98938393D01*
X119540476Y-98893750D01*
X119564286Y-98872917D01*
X119611905Y-98855060D01*
X119730952Y-98869941D01*
X119778571Y-98899702D01*
X119802381Y-98926489D01*
X119826190Y-98977084D01*
X119826190Y-99119941D01*
X119802381Y-99164584D01*
X119778571Y-99185416D01*
X123044379Y-84193395D02*
X123265350Y-84477501D01*
X123292709Y-84551158D01*
X123288499Y-84622711D01*
X123252723Y-84692158D01*
X123219052Y-84725829D01*
X123707291Y-84237590D02*
X123505261Y-84439620D01*
X123606276Y-84338605D02*
X123296917Y-83940857D01*
X123307440Y-84031350D01*
X123303231Y-84102903D01*
X123284291Y-84155515D01*
X123804098Y-83669379D02*
X124010337Y-83934544D01*
X123602067Y-83602036D02*
X123738859Y-83970320D01*
X123957726Y-83751454D01*
M02*
