G04 #@! TF.FileFunction,Copper,L4,Bot,Plane*
%FSLAX46Y46*%
G04 Gerber Fmt 4.6, Leading zero omitted, Abs format (unit mm)*
G04 Created by KiCad (PCBNEW 4.0.7-e2-6376~58~ubuntu16.04.1) date Mon Jul 30 23:14:02 2018*
%MOMM*%
%LPD*%
G01*
G04 APERTURE LIST*
%ADD10C,0.100000*%
%ADD11R,0.850000X2.350000*%
%ADD12C,1.000000*%
%ADD13R,0.800000X0.900000*%
%ADD14R,0.850000X0.300000*%
%ADD15R,0.300000X0.850000*%
%ADD16R,0.500000X0.600000*%
%ADD17R,0.600000X0.400000*%
%ADD18R,0.500000X1.250000*%
%ADD19R,1.250000X0.500000*%
%ADD20R,0.400000X0.600000*%
%ADD21C,0.600000*%
%ADD22C,0.300000*%
%ADD23C,0.250000*%
%ADD24C,0.500000*%
%ADD25C,0.351000*%
G04 APERTURE END LIST*
D10*
D11*
X146000000Y-109175000D03*
X142000000Y-109175000D03*
X138000000Y-109175000D03*
X134000000Y-109175000D03*
X130000000Y-109175000D03*
X148000000Y-106825000D03*
X144000000Y-106825000D03*
X140000000Y-106825000D03*
X136000000Y-106825000D03*
X132000000Y-106825000D03*
D12*
X148000000Y-108000000D03*
X146000000Y-108000000D03*
X144000000Y-108000000D03*
X142000000Y-108000000D03*
X140000000Y-108000000D03*
X138000000Y-108000000D03*
X136000000Y-108000000D03*
X134000000Y-108000000D03*
X132000000Y-108000000D03*
X130000000Y-108000000D03*
D11*
X148000000Y-87175000D03*
X144000000Y-87175000D03*
X140000000Y-87175000D03*
X136000000Y-87175000D03*
X132000000Y-87175000D03*
X146000000Y-84825000D03*
X142000000Y-84825000D03*
X138000000Y-84825000D03*
X134000000Y-84825000D03*
X130000000Y-84825000D03*
D12*
X148000000Y-86000000D03*
X146000000Y-86000000D03*
X144000000Y-86000000D03*
X142000000Y-86000000D03*
X140000000Y-86000000D03*
X138000000Y-86000000D03*
X136000000Y-86000000D03*
X134000000Y-86000000D03*
X132000000Y-86000000D03*
X130000000Y-86000000D03*
D13*
X131910000Y-103880000D03*
X130010000Y-103880000D03*
X130960000Y-101880000D03*
D14*
X134160000Y-95740000D03*
X134160000Y-96240000D03*
X134160000Y-96740000D03*
X134160000Y-97240000D03*
X134160000Y-97740000D03*
X134160000Y-98240000D03*
D15*
X133460000Y-98940000D03*
X132960000Y-98940000D03*
X132460000Y-98940000D03*
X131960000Y-98940000D03*
X131460000Y-98940000D03*
X130960000Y-98940000D03*
D14*
X130260000Y-98240000D03*
X130260000Y-97740000D03*
X130260000Y-97240000D03*
X130260000Y-96740000D03*
X130260000Y-96240000D03*
X130260000Y-95740000D03*
D15*
X130960000Y-95040000D03*
X131460000Y-95040000D03*
X131960000Y-95040000D03*
X132460000Y-95040000D03*
X132960000Y-95040000D03*
X133460000Y-95040000D03*
D16*
X127890000Y-94610000D03*
X127890000Y-95710000D03*
D17*
X151020000Y-94220000D03*
X151020000Y-95120000D03*
D18*
X130980000Y-80640000D03*
X128480000Y-80640000D03*
X140250000Y-80640000D03*
X137750000Y-80640000D03*
X149540000Y-80640000D03*
X147040000Y-80640000D03*
D10*
G36*
X156802601Y-87308718D02*
X155918718Y-88192601D01*
X155565165Y-87839048D01*
X156449048Y-86955165D01*
X156802601Y-87308718D01*
X156802601Y-87308718D01*
G37*
G36*
X155034835Y-85540952D02*
X154150952Y-86424835D01*
X153797399Y-86071282D01*
X154681282Y-85187399D01*
X155034835Y-85540952D01*
X155034835Y-85540952D01*
G37*
D19*
X157080000Y-98250000D03*
X157080000Y-95750000D03*
D10*
G36*
X154731282Y-108852601D02*
X153847399Y-107968718D01*
X154200952Y-107615165D01*
X155084835Y-108499048D01*
X154731282Y-108852601D01*
X154731282Y-108852601D01*
G37*
G36*
X156499048Y-107084835D02*
X155615165Y-106200952D01*
X155968718Y-105847399D01*
X156852601Y-106731282D01*
X156499048Y-107084835D01*
X156499048Y-107084835D01*
G37*
D18*
X147025000Y-113350000D03*
X149525000Y-113350000D03*
X137750000Y-113350000D03*
X140250000Y-113350000D03*
X128480000Y-113360000D03*
X130980000Y-113360000D03*
D10*
G36*
X121222399Y-106681282D02*
X122106282Y-105797399D01*
X122459835Y-106150952D01*
X121575952Y-107034835D01*
X121222399Y-106681282D01*
X121222399Y-106681282D01*
G37*
G36*
X122990165Y-108449048D02*
X123874048Y-107565165D01*
X124227601Y-107918718D01*
X123343718Y-108802601D01*
X122990165Y-108449048D01*
X122990165Y-108449048D01*
G37*
D19*
X120925000Y-95750000D03*
X120925000Y-98250000D03*
D10*
G36*
X123343718Y-85197399D02*
X124227601Y-86081282D01*
X123874048Y-86434835D01*
X122990165Y-85550952D01*
X123343718Y-85197399D01*
X123343718Y-85197399D01*
G37*
G36*
X121575952Y-86965165D02*
X122459835Y-87849048D01*
X122106282Y-88202601D01*
X121222399Y-87318718D01*
X121575952Y-86965165D01*
X121575952Y-86965165D01*
G37*
D20*
X133375000Y-82300000D03*
X132475000Y-82300000D03*
X142175000Y-82275000D03*
X141275000Y-82275000D03*
X151275000Y-82325000D03*
X150375000Y-82325000D03*
D17*
X155625000Y-90550000D03*
X155625000Y-89650000D03*
X155125000Y-100875000D03*
X155125000Y-99975000D03*
X151975000Y-108050000D03*
X151975000Y-107150000D03*
D20*
X145075000Y-111575000D03*
X145975000Y-111575000D03*
X135000000Y-111675000D03*
X135900000Y-111675000D03*
X126740000Y-111410000D03*
X127640000Y-111410000D03*
D17*
X122620000Y-102910000D03*
X122620000Y-103810000D03*
X123150000Y-93800000D03*
X123150000Y-94700000D03*
X125550000Y-85500000D03*
X125550000Y-86400000D03*
D21*
X130150000Y-101880000D03*
X134400000Y-101890000D03*
X133225000Y-93200000D03*
X126725000Y-112575000D03*
X151420000Y-80640000D03*
X133500000Y-80750000D03*
X142720000Y-80750000D03*
X156970000Y-90180000D03*
X156970000Y-100910000D03*
X152580000Y-110030000D03*
X144450000Y-113310000D03*
X134970000Y-113310000D03*
X121050000Y-103480000D03*
X125240000Y-84160000D03*
X121050000Y-93080000D03*
X127890000Y-93330000D03*
X132220000Y-93240000D03*
X126810000Y-106760000D03*
X153830000Y-104230000D03*
X151370000Y-87080000D03*
X132230000Y-110020000D03*
X140260000Y-110030000D03*
X153830000Y-94500000D03*
X144000000Y-83840000D03*
X150770000Y-107350000D03*
X136510000Y-83840000D03*
X127220000Y-86850000D03*
X124360000Y-91870000D03*
X124370000Y-99490000D03*
X149610000Y-95750000D03*
X134330000Y-93240000D03*
X151020000Y-98940000D03*
X131890000Y-92010000D03*
X137470000Y-94700000D03*
X124270000Y-105760000D03*
X139010000Y-111220000D03*
X124220000Y-88190000D03*
X123170000Y-97000000D03*
X129740000Y-111220000D03*
X148290000Y-111210000D03*
X153890000Y-105900000D03*
X154970000Y-97000000D03*
X153920000Y-88070000D03*
X139010000Y-82680000D03*
X129730000Y-82680000D03*
X148290000Y-82680000D03*
X138150000Y-94060000D03*
X130570000Y-93630000D03*
X122600000Y-88340000D03*
X122030000Y-98250000D03*
X124370000Y-107440000D03*
X130980000Y-112290000D03*
X140260000Y-112290000D03*
X149540000Y-112290000D03*
X155410000Y-105650000D03*
X155900000Y-95750000D03*
X153660000Y-86570000D03*
X137760000Y-81810000D03*
X147030000Y-81810000D03*
X128480000Y-81810000D03*
X128750000Y-96775000D03*
D22*
X133225000Y-93200000D02*
X133225000Y-91565000D01*
X132160000Y-90500000D02*
X130000000Y-90500000D01*
X133225000Y-91565000D02*
X132160000Y-90500000D01*
D23*
X132460000Y-98940000D02*
X132460000Y-100470000D01*
X130150000Y-101880000D02*
X130960000Y-101880000D01*
X133880000Y-101890000D02*
X134400000Y-101890000D01*
X132460000Y-100470000D02*
X133880000Y-101890000D01*
X133375000Y-82300000D02*
X133375000Y-80875000D01*
X133375000Y-80875000D02*
X133500000Y-80750000D01*
X142175000Y-82275000D02*
X142175000Y-81295000D01*
X142175000Y-81295000D02*
X142720000Y-80750000D01*
X151275000Y-82325000D02*
X151275000Y-80785000D01*
X151275000Y-80785000D02*
X151420000Y-80640000D01*
X155625000Y-90550000D02*
X156600000Y-90550000D01*
X156600000Y-90550000D02*
X156970000Y-90180000D01*
X155125000Y-100875000D02*
X156935000Y-100875000D01*
X156935000Y-100875000D02*
X156970000Y-100910000D01*
X151975000Y-108050000D02*
X151975000Y-109425000D01*
X151975000Y-109425000D02*
X152580000Y-110030000D01*
X145075000Y-111575000D02*
X145075000Y-112685000D01*
X145075000Y-112685000D02*
X144450000Y-113310000D01*
X135000000Y-111675000D02*
X135000000Y-113280000D01*
X135000000Y-113280000D02*
X134970000Y-113310000D01*
X126740000Y-111410000D02*
X126740000Y-112560000D01*
X126740000Y-112560000D02*
X126725000Y-112575000D01*
X122620000Y-102910000D02*
X121620000Y-102910000D01*
X121620000Y-102910000D02*
X121050000Y-103480000D01*
X123150000Y-93800000D02*
X121770000Y-93800000D01*
X121770000Y-93800000D02*
X121050000Y-93080000D01*
X125550000Y-85500000D02*
X125550000Y-84470000D01*
X125550000Y-84470000D02*
X125240000Y-84160000D01*
X133225000Y-93200000D02*
X133325000Y-93300000D01*
X130000000Y-84825000D02*
X130000000Y-90500000D01*
X130000000Y-90500000D02*
X130000000Y-92650000D01*
X130000000Y-92675000D02*
X129075000Y-93600000D01*
X129075000Y-93600000D02*
X129075000Y-95740000D01*
X130000000Y-92650000D02*
X130000000Y-92675000D01*
X130260000Y-95740000D02*
X129075000Y-95740000D01*
X129075000Y-95740000D02*
X127920000Y-95740000D01*
X127920000Y-95740000D02*
X127890000Y-95710000D01*
X133460000Y-95040000D02*
X133460000Y-93435000D01*
X133460000Y-93435000D02*
X133325000Y-93300000D01*
X132960000Y-93415000D02*
X132960000Y-95040000D01*
X133325000Y-93300000D02*
X133075000Y-93300000D01*
X133075000Y-93300000D02*
X132960000Y-93415000D01*
X127890000Y-93330000D02*
X127890000Y-94610000D01*
X131960000Y-95040000D02*
X131960000Y-93500000D01*
X131960000Y-93500000D02*
X132220000Y-93240000D01*
X151020000Y-94220000D02*
X153550000Y-94220000D01*
X153550000Y-94220000D02*
X153830000Y-94500000D01*
D22*
X151020000Y-95120000D02*
X150100000Y-95120000D01*
X149610000Y-95610000D02*
X149610000Y-95750000D01*
X150100000Y-95120000D02*
X149610000Y-95610000D01*
D23*
X134160000Y-95740000D02*
X134160000Y-93410000D01*
X134160000Y-93410000D02*
X134330000Y-93240000D01*
X131460000Y-95040000D02*
X131460000Y-92440000D01*
X131460000Y-92440000D02*
X131890000Y-92010000D01*
X130960000Y-95040000D02*
X130960000Y-94020000D01*
X130960000Y-94020000D02*
X130570000Y-93630000D01*
D24*
X122600000Y-88340000D02*
X121836117Y-87576117D01*
X121836117Y-87576117D02*
X121836117Y-87573883D01*
X122030000Y-98250000D02*
X120950000Y-98250000D01*
X124370000Y-107440000D02*
X123616117Y-108193883D01*
X123616117Y-108193883D02*
X123603883Y-108193883D01*
X130980000Y-112290000D02*
X130980000Y-113360000D01*
X140260000Y-112290000D02*
X140260000Y-113360000D01*
X149540000Y-112290000D02*
X149540000Y-113360000D01*
X155410000Y-105650000D02*
X156183883Y-106423883D01*
X156183883Y-106423883D02*
X156183883Y-106426117D01*
X157060000Y-95750000D02*
X155900000Y-95750000D01*
X153660000Y-86570000D02*
X154416117Y-85813883D01*
X154416117Y-85813883D02*
X154416117Y-85806117D01*
X137760000Y-80640000D02*
X137760000Y-81810000D01*
X128480000Y-80640000D02*
X128480000Y-81810000D01*
X147040000Y-81800000D02*
X147040000Y-80640000D01*
X147030000Y-81810000D02*
X147040000Y-81800000D01*
D23*
X132475000Y-82300000D02*
X131830000Y-82300000D01*
X131830000Y-82300000D02*
X131480000Y-82650000D01*
X134150000Y-96240000D02*
X134910000Y-96240000D01*
X130980000Y-82150000D02*
X130980000Y-80640000D01*
X133010000Y-84180000D02*
X131480000Y-82650000D01*
X131480000Y-82650000D02*
X130980000Y-82150000D01*
X133010000Y-89150000D02*
X133010000Y-84180000D01*
X135100000Y-91240000D02*
X133010000Y-89150000D01*
X135100000Y-96050000D02*
X135100000Y-91240000D01*
X134910000Y-96240000D02*
X135100000Y-96050000D01*
X141275000Y-82275000D02*
X140425000Y-82275000D01*
X140425000Y-82275000D02*
X140250000Y-82100000D01*
X134150000Y-96740000D02*
X135220000Y-96740000D01*
X140250000Y-83770000D02*
X140250000Y-82100000D01*
X140250000Y-82100000D02*
X140250000Y-80640000D01*
X139010000Y-85010000D02*
X140250000Y-83770000D01*
X139010000Y-88110000D02*
X139010000Y-85010000D01*
X135670000Y-91450000D02*
X139010000Y-88110000D01*
X135670000Y-96290000D02*
X135670000Y-91450000D01*
X135220000Y-96740000D02*
X135670000Y-96290000D01*
X150375000Y-82325000D02*
X149725000Y-82325000D01*
X149725000Y-82325000D02*
X149540000Y-82140000D01*
X134150000Y-97240000D02*
X135640000Y-97240000D01*
X149540000Y-89040000D02*
X149540000Y-82140000D01*
X149540000Y-82140000D02*
X149540000Y-80640000D01*
X148950000Y-89630000D02*
X149540000Y-89040000D01*
X139250000Y-89630000D02*
X148950000Y-89630000D01*
X136240000Y-92640000D02*
X139250000Y-89630000D01*
X136240000Y-96640000D02*
X136240000Y-92640000D01*
X135640000Y-97240000D02*
X136240000Y-96640000D01*
X155625000Y-89650000D02*
X155625000Y-89055000D01*
X155625000Y-89055000D02*
X155163883Y-88593883D01*
X134160000Y-97740000D02*
X136210000Y-97740000D01*
X152817766Y-90940000D02*
X155163883Y-88593883D01*
X155163883Y-88593883D02*
X156183883Y-87573883D01*
X139630000Y-90940000D02*
X152817766Y-90940000D01*
X136780000Y-93790000D02*
X139630000Y-90940000D01*
X136780000Y-97170000D02*
X136780000Y-93790000D01*
X136210000Y-97740000D02*
X136780000Y-97170000D01*
X155125000Y-99975000D02*
X155125000Y-99565000D01*
X155125000Y-99565000D02*
X154630000Y-99070000D01*
X134160000Y-98240000D02*
X135460000Y-98240000D01*
X155450000Y-98250000D02*
X157080000Y-98250000D01*
X151250000Y-102450000D02*
X154630000Y-99070000D01*
X154630000Y-99070000D02*
X155450000Y-98250000D01*
X139670000Y-102450000D02*
X151250000Y-102450000D01*
X135460000Y-98240000D02*
X139670000Y-102450000D01*
X134170000Y-98250000D02*
X134160000Y-98240000D01*
X151975000Y-107150000D02*
X151975000Y-106735000D01*
X151975000Y-106735000D02*
X152471117Y-106238883D01*
X133460000Y-98940000D02*
X133460000Y-99785000D01*
X149782234Y-103550000D02*
X152471117Y-106238883D01*
X152471117Y-106238883D02*
X154466117Y-108233883D01*
X139710000Y-103550000D02*
X149782234Y-103550000D01*
X136210000Y-100050000D02*
X139710000Y-103550000D01*
X133725000Y-100050000D02*
X136210000Y-100050000D01*
X133460000Y-99785000D02*
X133725000Y-100050000D01*
X145975000Y-111575000D02*
X146685000Y-111575000D01*
X146685000Y-111575000D02*
X147000000Y-111890000D01*
X132960000Y-98940000D02*
X132960000Y-100060000D01*
X147000000Y-106550000D02*
X147000000Y-111890000D01*
X147000000Y-111890000D02*
X147000000Y-113325000D01*
X144925000Y-104475000D02*
X147000000Y-106550000D01*
X139650000Y-104475000D02*
X144925000Y-104475000D01*
X135950000Y-100775000D02*
X139650000Y-104475000D01*
X133675000Y-100775000D02*
X135950000Y-100775000D01*
X132960000Y-100060000D02*
X133675000Y-100775000D01*
X147000000Y-113325000D02*
X147025000Y-113350000D01*
X135900000Y-111675000D02*
X136965000Y-111675000D01*
X136965000Y-111675000D02*
X137170000Y-111470000D01*
X131960000Y-98940000D02*
X131960000Y-101010000D01*
X137750000Y-112050000D02*
X137750000Y-113350000D01*
X135000000Y-109300000D02*
X137170000Y-111470000D01*
X137170000Y-111470000D02*
X137750000Y-112050000D01*
X135000000Y-104050000D02*
X135000000Y-109300000D01*
X131960000Y-101010000D02*
X135000000Y-104050000D01*
X127640000Y-111410000D02*
X128190000Y-111410000D01*
X128190000Y-111410000D02*
X128480000Y-111700000D01*
X131460000Y-98940000D02*
X131460000Y-100440000D01*
X128480000Y-101105000D02*
X128480000Y-111700000D01*
X128480000Y-111700000D02*
X128480000Y-113360000D01*
X128810000Y-100775000D02*
X128480000Y-101105000D01*
X131125000Y-100775000D02*
X128810000Y-100775000D01*
X131460000Y-100440000D02*
X131125000Y-100775000D01*
X122620000Y-103810000D02*
X122620000Y-104340000D01*
X122620000Y-104340000D02*
X123268617Y-104988617D01*
X130960000Y-98940000D02*
X130960000Y-99915000D01*
X128132234Y-100125000D02*
X123268617Y-104988617D01*
X123268617Y-104988617D02*
X121841117Y-106416117D01*
X130750000Y-100125000D02*
X128132234Y-100125000D01*
X130960000Y-99915000D02*
X130750000Y-100125000D01*
X123150000Y-94700000D02*
X123150000Y-95430000D01*
X123150000Y-95430000D02*
X123470000Y-95750000D01*
X130260000Y-98240000D02*
X126790000Y-98240000D01*
X124300000Y-95750000D02*
X123470000Y-95750000D01*
X123470000Y-95750000D02*
X120925000Y-95750000D01*
X126790000Y-98240000D02*
X124300000Y-95750000D01*
X125550000Y-86400000D02*
X125550000Y-87757234D01*
X125550000Y-87757234D02*
X125700000Y-87907234D01*
X130260000Y-97740000D02*
X127390000Y-97740000D01*
X125700000Y-87907234D02*
X123608883Y-85816117D01*
X125700000Y-96050000D02*
X125700000Y-88925000D01*
X125700000Y-88925000D02*
X125700000Y-87907234D01*
X127390000Y-97740000D02*
X125700000Y-96050000D01*
D24*
X131910000Y-103880000D02*
X133190000Y-103880000D01*
X134000000Y-104690000D02*
X134000000Y-108000000D01*
X133190000Y-103880000D02*
X134000000Y-104690000D01*
X134000000Y-108000000D02*
X134000000Y-109175000D01*
D23*
X130260000Y-96240000D02*
X129285000Y-96240000D01*
X129285000Y-96240000D02*
X128750000Y-96775000D01*
D25*
G36*
X151621881Y-106238883D02*
X151550382Y-106310382D01*
X151420210Y-106505198D01*
X151410240Y-106555322D01*
X151336953Y-106602481D01*
X151228382Y-106761380D01*
X151190185Y-106950000D01*
X151190185Y-107350000D01*
X151223341Y-107526210D01*
X151270580Y-107599621D01*
X151228382Y-107661380D01*
X151190185Y-107850000D01*
X151190185Y-108250000D01*
X151223341Y-108426210D01*
X151327481Y-108588047D01*
X151374500Y-108620174D01*
X151374500Y-109424995D01*
X151374499Y-109425000D01*
X151420210Y-109654802D01*
X151550382Y-109849618D01*
X151804436Y-110103671D01*
X151804366Y-110183580D01*
X151922180Y-110468712D01*
X152140141Y-110687054D01*
X152150232Y-110691244D01*
X151730738Y-111110738D01*
X151611404Y-111289332D01*
X151579545Y-111449500D01*
X151569500Y-111500000D01*
X151569500Y-113499500D01*
X150259815Y-113499500D01*
X150259815Y-113388581D01*
X150265500Y-113360000D01*
X150265500Y-112565022D01*
X150315365Y-112444933D01*
X150315634Y-112136420D01*
X150197820Y-111851288D01*
X149979859Y-111632946D01*
X149694933Y-111514635D01*
X149386420Y-111514366D01*
X149101288Y-111632180D01*
X148882946Y-111850141D01*
X148764635Y-112135067D01*
X148764366Y-112443580D01*
X148814500Y-112564914D01*
X148814500Y-112604930D01*
X148790185Y-112725000D01*
X148790185Y-113499500D01*
X147759815Y-113499500D01*
X147759815Y-112725000D01*
X147726659Y-112548790D01*
X147622519Y-112386953D01*
X147600500Y-112371908D01*
X147600500Y-111572040D01*
X147632180Y-111648712D01*
X147850141Y-111867054D01*
X148135067Y-111985365D01*
X148443580Y-111985634D01*
X148728712Y-111867820D01*
X148947054Y-111649859D01*
X149065365Y-111364933D01*
X149065634Y-111056420D01*
X148947820Y-110771288D01*
X148729859Y-110552946D01*
X148444933Y-110434635D01*
X148136420Y-110434366D01*
X147851288Y-110552180D01*
X147632946Y-110770141D01*
X147600500Y-110848280D01*
X147600500Y-108890369D01*
X147805110Y-108975330D01*
X148193188Y-108975669D01*
X148551854Y-108827471D01*
X148826506Y-108553298D01*
X148975330Y-108194890D01*
X148975669Y-107806812D01*
X148909815Y-107647433D01*
X148909815Y-105650000D01*
X148876659Y-105473790D01*
X148772519Y-105311953D01*
X148613620Y-105203382D01*
X148425000Y-105165185D01*
X147575000Y-105165185D01*
X147398790Y-105198341D01*
X147236953Y-105302481D01*
X147128382Y-105461380D01*
X147090185Y-105650000D01*
X147090185Y-105790949D01*
X145449736Y-104150500D01*
X149533498Y-104150500D01*
X151621881Y-106238883D01*
X151621881Y-106238883D01*
G37*
X151621881Y-106238883D02*
X151550382Y-106310382D01*
X151420210Y-106505198D01*
X151410240Y-106555322D01*
X151336953Y-106602481D01*
X151228382Y-106761380D01*
X151190185Y-106950000D01*
X151190185Y-107350000D01*
X151223341Y-107526210D01*
X151270580Y-107599621D01*
X151228382Y-107661380D01*
X151190185Y-107850000D01*
X151190185Y-108250000D01*
X151223341Y-108426210D01*
X151327481Y-108588047D01*
X151374500Y-108620174D01*
X151374500Y-109424995D01*
X151374499Y-109425000D01*
X151420210Y-109654802D01*
X151550382Y-109849618D01*
X151804436Y-110103671D01*
X151804366Y-110183580D01*
X151922180Y-110468712D01*
X152140141Y-110687054D01*
X152150232Y-110691244D01*
X151730738Y-111110738D01*
X151611404Y-111289332D01*
X151579545Y-111449500D01*
X151569500Y-111500000D01*
X151569500Y-113499500D01*
X150259815Y-113499500D01*
X150259815Y-113388581D01*
X150265500Y-113360000D01*
X150265500Y-112565022D01*
X150315365Y-112444933D01*
X150315634Y-112136420D01*
X150197820Y-111851288D01*
X149979859Y-111632946D01*
X149694933Y-111514635D01*
X149386420Y-111514366D01*
X149101288Y-111632180D01*
X148882946Y-111850141D01*
X148764635Y-112135067D01*
X148764366Y-112443580D01*
X148814500Y-112564914D01*
X148814500Y-112604930D01*
X148790185Y-112725000D01*
X148790185Y-113499500D01*
X147759815Y-113499500D01*
X147759815Y-112725000D01*
X147726659Y-112548790D01*
X147622519Y-112386953D01*
X147600500Y-112371908D01*
X147600500Y-111572040D01*
X147632180Y-111648712D01*
X147850141Y-111867054D01*
X148135067Y-111985365D01*
X148443580Y-111985634D01*
X148728712Y-111867820D01*
X148947054Y-111649859D01*
X149065365Y-111364933D01*
X149065634Y-111056420D01*
X148947820Y-110771288D01*
X148729859Y-110552946D01*
X148444933Y-110434635D01*
X148136420Y-110434366D01*
X147851288Y-110552180D01*
X147632946Y-110770141D01*
X147600500Y-110848280D01*
X147600500Y-108890369D01*
X147805110Y-108975330D01*
X148193188Y-108975669D01*
X148551854Y-108827471D01*
X148826506Y-108553298D01*
X148975330Y-108194890D01*
X148975669Y-107806812D01*
X148909815Y-107647433D01*
X148909815Y-105650000D01*
X148876659Y-105473790D01*
X148772519Y-105311953D01*
X148613620Y-105203382D01*
X148425000Y-105165185D01*
X147575000Y-105165185D01*
X147398790Y-105198341D01*
X147236953Y-105302481D01*
X147128382Y-105461380D01*
X147090185Y-105650000D01*
X147090185Y-105790949D01*
X145449736Y-104150500D01*
X149533498Y-104150500D01*
X151621881Y-106238883D01*
G36*
X139225380Y-104899615D02*
X139225382Y-104899618D01*
X139420199Y-105029790D01*
X139650000Y-105075500D01*
X144676264Y-105075500D01*
X146399500Y-106798736D01*
X146399500Y-107109631D01*
X146194890Y-107024670D01*
X145806812Y-107024331D01*
X145448146Y-107172529D01*
X145173494Y-107446702D01*
X145024670Y-107805110D01*
X145024331Y-108193188D01*
X145090185Y-108352567D01*
X145090185Y-110350000D01*
X145123341Y-110526210D01*
X145227481Y-110688047D01*
X145386380Y-110796618D01*
X145575000Y-110834815D01*
X145580959Y-110834815D01*
X145525379Y-110870580D01*
X145463620Y-110828382D01*
X145275000Y-110790185D01*
X144875000Y-110790185D01*
X144698790Y-110823341D01*
X144536953Y-110927481D01*
X144428382Y-111086380D01*
X144390185Y-111275000D01*
X144390185Y-111875000D01*
X144423341Y-112051210D01*
X144474500Y-112130713D01*
X144474500Y-112436265D01*
X144376329Y-112534436D01*
X144296420Y-112534366D01*
X144011288Y-112652180D01*
X143792946Y-112870141D01*
X143674635Y-113155067D01*
X143674366Y-113463580D01*
X143689208Y-113499500D01*
X140984815Y-113499500D01*
X140984815Y-113363444D01*
X140985500Y-113360000D01*
X140985500Y-112565022D01*
X141035365Y-112444933D01*
X141035634Y-112136420D01*
X140917820Y-111851288D01*
X140699859Y-111632946D01*
X140414933Y-111514635D01*
X140106420Y-111514366D01*
X139821288Y-111632180D01*
X139602946Y-111850141D01*
X139484635Y-112135067D01*
X139484366Y-112443580D01*
X139534500Y-112564914D01*
X139534500Y-112629621D01*
X139515185Y-112725000D01*
X139515185Y-113499500D01*
X138484815Y-113499500D01*
X138484815Y-112725000D01*
X138451659Y-112548790D01*
X138350500Y-112391586D01*
X138350500Y-112050005D01*
X138350501Y-112050000D01*
X138304790Y-111820198D01*
X138174618Y-111625382D01*
X137594618Y-111045382D01*
X137594615Y-111045380D01*
X137258426Y-110709191D01*
X137386380Y-110796618D01*
X137575000Y-110834815D01*
X138330243Y-110834815D01*
X138234635Y-111065067D01*
X138234366Y-111373580D01*
X138352180Y-111658712D01*
X138570141Y-111877054D01*
X138855067Y-111995365D01*
X139163580Y-111995634D01*
X139448712Y-111877820D01*
X139667054Y-111659859D01*
X139785365Y-111374933D01*
X139785634Y-111066420D01*
X139667820Y-110781288D01*
X139449859Y-110562946D01*
X139164933Y-110444635D01*
X138890699Y-110444396D01*
X138909815Y-110350000D01*
X138909815Y-108352668D01*
X138975330Y-108194890D01*
X138975331Y-108193188D01*
X139024331Y-108193188D01*
X139172529Y-108551854D01*
X139446702Y-108826506D01*
X139805110Y-108975330D01*
X140193188Y-108975669D01*
X140551854Y-108827471D01*
X140826506Y-108553298D01*
X140975330Y-108194890D01*
X140975331Y-108193188D01*
X141024331Y-108193188D01*
X141090185Y-108352567D01*
X141090185Y-110350000D01*
X141123341Y-110526210D01*
X141227481Y-110688047D01*
X141386380Y-110796618D01*
X141575000Y-110834815D01*
X142425000Y-110834815D01*
X142601210Y-110801659D01*
X142763047Y-110697519D01*
X142871618Y-110538620D01*
X142909815Y-110350000D01*
X142909815Y-108352668D01*
X142975330Y-108194890D01*
X142975331Y-108193188D01*
X143024331Y-108193188D01*
X143172529Y-108551854D01*
X143446702Y-108826506D01*
X143805110Y-108975330D01*
X144193188Y-108975669D01*
X144551854Y-108827471D01*
X144826506Y-108553298D01*
X144975330Y-108194890D01*
X144975669Y-107806812D01*
X144909815Y-107647433D01*
X144909815Y-105650000D01*
X144876659Y-105473790D01*
X144772519Y-105311953D01*
X144613620Y-105203382D01*
X144425000Y-105165185D01*
X143575000Y-105165185D01*
X143398790Y-105198341D01*
X143236953Y-105302481D01*
X143128382Y-105461380D01*
X143090185Y-105650000D01*
X143090185Y-107647332D01*
X143024670Y-107805110D01*
X143024331Y-108193188D01*
X142975331Y-108193188D01*
X142975669Y-107806812D01*
X142827471Y-107448146D01*
X142553298Y-107173494D01*
X142194890Y-107024670D01*
X141806812Y-107024331D01*
X141448146Y-107172529D01*
X141173494Y-107446702D01*
X141024670Y-107805110D01*
X141024331Y-108193188D01*
X140975331Y-108193188D01*
X140975669Y-107806812D01*
X140909815Y-107647433D01*
X140909815Y-105650000D01*
X140876659Y-105473790D01*
X140772519Y-105311953D01*
X140613620Y-105203382D01*
X140425000Y-105165185D01*
X139575000Y-105165185D01*
X139398790Y-105198341D01*
X139236953Y-105302481D01*
X139128382Y-105461380D01*
X139090185Y-105650000D01*
X139090185Y-107647332D01*
X139024670Y-107805110D01*
X139024331Y-108193188D01*
X138975331Y-108193188D01*
X138975669Y-107806812D01*
X138827471Y-107448146D01*
X138553298Y-107173494D01*
X138194890Y-107024670D01*
X137806812Y-107024331D01*
X137448146Y-107172529D01*
X137173494Y-107446702D01*
X137024670Y-107805110D01*
X137024331Y-108193188D01*
X137090185Y-108352567D01*
X137090185Y-110350000D01*
X137123341Y-110526210D01*
X137209790Y-110660555D01*
X135600500Y-109051264D01*
X135600500Y-108890369D01*
X135805110Y-108975330D01*
X136193188Y-108975669D01*
X136551854Y-108827471D01*
X136826506Y-108553298D01*
X136975330Y-108194890D01*
X136975669Y-107806812D01*
X136909815Y-107647433D01*
X136909815Y-105650000D01*
X136876659Y-105473790D01*
X136772519Y-105311953D01*
X136613620Y-105203382D01*
X136425000Y-105165185D01*
X135600500Y-105165185D01*
X135600500Y-104050000D01*
X135554790Y-103820199D01*
X135424618Y-103625382D01*
X135424615Y-103625380D01*
X134464792Y-102665557D01*
X134553580Y-102665634D01*
X134838712Y-102547820D01*
X135057054Y-102329859D01*
X135175365Y-102044933D01*
X135175634Y-101736420D01*
X135057820Y-101451288D01*
X134982164Y-101375500D01*
X135701264Y-101375500D01*
X139225380Y-104899615D01*
X139225380Y-104899615D01*
G37*
X139225380Y-104899615D02*
X139225382Y-104899618D01*
X139420199Y-105029790D01*
X139650000Y-105075500D01*
X144676264Y-105075500D01*
X146399500Y-106798736D01*
X146399500Y-107109631D01*
X146194890Y-107024670D01*
X145806812Y-107024331D01*
X145448146Y-107172529D01*
X145173494Y-107446702D01*
X145024670Y-107805110D01*
X145024331Y-108193188D01*
X145090185Y-108352567D01*
X145090185Y-110350000D01*
X145123341Y-110526210D01*
X145227481Y-110688047D01*
X145386380Y-110796618D01*
X145575000Y-110834815D01*
X145580959Y-110834815D01*
X145525379Y-110870580D01*
X145463620Y-110828382D01*
X145275000Y-110790185D01*
X144875000Y-110790185D01*
X144698790Y-110823341D01*
X144536953Y-110927481D01*
X144428382Y-111086380D01*
X144390185Y-111275000D01*
X144390185Y-111875000D01*
X144423341Y-112051210D01*
X144474500Y-112130713D01*
X144474500Y-112436265D01*
X144376329Y-112534436D01*
X144296420Y-112534366D01*
X144011288Y-112652180D01*
X143792946Y-112870141D01*
X143674635Y-113155067D01*
X143674366Y-113463580D01*
X143689208Y-113499500D01*
X140984815Y-113499500D01*
X140984815Y-113363444D01*
X140985500Y-113360000D01*
X140985500Y-112565022D01*
X141035365Y-112444933D01*
X141035634Y-112136420D01*
X140917820Y-111851288D01*
X140699859Y-111632946D01*
X140414933Y-111514635D01*
X140106420Y-111514366D01*
X139821288Y-111632180D01*
X139602946Y-111850141D01*
X139484635Y-112135067D01*
X139484366Y-112443580D01*
X139534500Y-112564914D01*
X139534500Y-112629621D01*
X139515185Y-112725000D01*
X139515185Y-113499500D01*
X138484815Y-113499500D01*
X138484815Y-112725000D01*
X138451659Y-112548790D01*
X138350500Y-112391586D01*
X138350500Y-112050005D01*
X138350501Y-112050000D01*
X138304790Y-111820198D01*
X138174618Y-111625382D01*
X137594618Y-111045382D01*
X137594615Y-111045380D01*
X137258426Y-110709191D01*
X137386380Y-110796618D01*
X137575000Y-110834815D01*
X138330243Y-110834815D01*
X138234635Y-111065067D01*
X138234366Y-111373580D01*
X138352180Y-111658712D01*
X138570141Y-111877054D01*
X138855067Y-111995365D01*
X139163580Y-111995634D01*
X139448712Y-111877820D01*
X139667054Y-111659859D01*
X139785365Y-111374933D01*
X139785634Y-111066420D01*
X139667820Y-110781288D01*
X139449859Y-110562946D01*
X139164933Y-110444635D01*
X138890699Y-110444396D01*
X138909815Y-110350000D01*
X138909815Y-108352668D01*
X138975330Y-108194890D01*
X138975331Y-108193188D01*
X139024331Y-108193188D01*
X139172529Y-108551854D01*
X139446702Y-108826506D01*
X139805110Y-108975330D01*
X140193188Y-108975669D01*
X140551854Y-108827471D01*
X140826506Y-108553298D01*
X140975330Y-108194890D01*
X140975331Y-108193188D01*
X141024331Y-108193188D01*
X141090185Y-108352567D01*
X141090185Y-110350000D01*
X141123341Y-110526210D01*
X141227481Y-110688047D01*
X141386380Y-110796618D01*
X141575000Y-110834815D01*
X142425000Y-110834815D01*
X142601210Y-110801659D01*
X142763047Y-110697519D01*
X142871618Y-110538620D01*
X142909815Y-110350000D01*
X142909815Y-108352668D01*
X142975330Y-108194890D01*
X142975331Y-108193188D01*
X143024331Y-108193188D01*
X143172529Y-108551854D01*
X143446702Y-108826506D01*
X143805110Y-108975330D01*
X144193188Y-108975669D01*
X144551854Y-108827471D01*
X144826506Y-108553298D01*
X144975330Y-108194890D01*
X144975669Y-107806812D01*
X144909815Y-107647433D01*
X144909815Y-105650000D01*
X144876659Y-105473790D01*
X144772519Y-105311953D01*
X144613620Y-105203382D01*
X144425000Y-105165185D01*
X143575000Y-105165185D01*
X143398790Y-105198341D01*
X143236953Y-105302481D01*
X143128382Y-105461380D01*
X143090185Y-105650000D01*
X143090185Y-107647332D01*
X143024670Y-107805110D01*
X143024331Y-108193188D01*
X142975331Y-108193188D01*
X142975669Y-107806812D01*
X142827471Y-107448146D01*
X142553298Y-107173494D01*
X142194890Y-107024670D01*
X141806812Y-107024331D01*
X141448146Y-107172529D01*
X141173494Y-107446702D01*
X141024670Y-107805110D01*
X141024331Y-108193188D01*
X140975331Y-108193188D01*
X140975669Y-107806812D01*
X140909815Y-107647433D01*
X140909815Y-105650000D01*
X140876659Y-105473790D01*
X140772519Y-105311953D01*
X140613620Y-105203382D01*
X140425000Y-105165185D01*
X139575000Y-105165185D01*
X139398790Y-105198341D01*
X139236953Y-105302481D01*
X139128382Y-105461380D01*
X139090185Y-105650000D01*
X139090185Y-107647332D01*
X139024670Y-107805110D01*
X139024331Y-108193188D01*
X138975331Y-108193188D01*
X138975669Y-107806812D01*
X138827471Y-107448146D01*
X138553298Y-107173494D01*
X138194890Y-107024670D01*
X137806812Y-107024331D01*
X137448146Y-107172529D01*
X137173494Y-107446702D01*
X137024670Y-107805110D01*
X137024331Y-108193188D01*
X137090185Y-108352567D01*
X137090185Y-110350000D01*
X137123341Y-110526210D01*
X137209790Y-110660555D01*
X135600500Y-109051264D01*
X135600500Y-108890369D01*
X135805110Y-108975330D01*
X136193188Y-108975669D01*
X136551854Y-108827471D01*
X136826506Y-108553298D01*
X136975330Y-108194890D01*
X136975669Y-107806812D01*
X136909815Y-107647433D01*
X136909815Y-105650000D01*
X136876659Y-105473790D01*
X136772519Y-105311953D01*
X136613620Y-105203382D01*
X136425000Y-105165185D01*
X135600500Y-105165185D01*
X135600500Y-104050000D01*
X135554790Y-103820199D01*
X135424618Y-103625382D01*
X135424615Y-103625380D01*
X134464792Y-102665557D01*
X134553580Y-102665634D01*
X134838712Y-102547820D01*
X135057054Y-102329859D01*
X135175365Y-102044933D01*
X135175634Y-101736420D01*
X135057820Y-101451288D01*
X134982164Y-101375500D01*
X135701264Y-101375500D01*
X139225380Y-104899615D01*
G36*
X129492946Y-101440141D02*
X129374635Y-101725067D01*
X129374366Y-102033580D01*
X129492180Y-102318712D01*
X129710141Y-102537054D01*
X129995067Y-102655365D01*
X130204438Y-102655548D01*
X130212481Y-102668047D01*
X130371380Y-102776618D01*
X130560000Y-102814815D01*
X131360000Y-102814815D01*
X131536210Y-102781659D01*
X131698047Y-102677519D01*
X131806618Y-102518620D01*
X131844815Y-102330000D01*
X131844815Y-101744051D01*
X133271470Y-103170705D01*
X133190000Y-103154500D01*
X132697767Y-103154500D01*
X132657519Y-103091953D01*
X132498620Y-102983382D01*
X132310000Y-102945185D01*
X131510000Y-102945185D01*
X131333790Y-102978341D01*
X131171953Y-103082481D01*
X131063382Y-103241380D01*
X131025185Y-103430000D01*
X131025185Y-104330000D01*
X131058341Y-104506210D01*
X131162481Y-104668047D01*
X131321380Y-104776618D01*
X131510000Y-104814815D01*
X132310000Y-104814815D01*
X132486210Y-104781659D01*
X132648047Y-104677519D01*
X132697255Y-104605500D01*
X132889488Y-104605500D01*
X133274500Y-104990512D01*
X133274500Y-107345872D01*
X133173494Y-107446702D01*
X133024670Y-107805110D01*
X133024331Y-108193188D01*
X133090185Y-108352567D01*
X133090185Y-110350000D01*
X133123341Y-110526210D01*
X133227481Y-110688047D01*
X133386380Y-110796618D01*
X133575000Y-110834815D01*
X134425000Y-110834815D01*
X134601210Y-110801659D01*
X134763047Y-110697519D01*
X134871618Y-110538620D01*
X134909815Y-110350000D01*
X134909815Y-110059051D01*
X135740950Y-110890185D01*
X135700000Y-110890185D01*
X135523790Y-110923341D01*
X135450379Y-110970580D01*
X135388620Y-110928382D01*
X135200000Y-110890185D01*
X134800000Y-110890185D01*
X134623790Y-110923341D01*
X134461953Y-111027481D01*
X134353382Y-111186380D01*
X134315185Y-111375000D01*
X134315185Y-111975000D01*
X134348341Y-112151210D01*
X134399500Y-112230713D01*
X134399500Y-112783738D01*
X134312946Y-112870141D01*
X134194635Y-113155067D01*
X134194366Y-113463580D01*
X134209208Y-113499500D01*
X131714815Y-113499500D01*
X131714815Y-112735000D01*
X131705500Y-112685495D01*
X131705500Y-112565022D01*
X131755365Y-112444933D01*
X131755634Y-112136420D01*
X131637820Y-111851288D01*
X131419859Y-111632946D01*
X131134933Y-111514635D01*
X130826420Y-111514366D01*
X130541288Y-111632180D01*
X130322946Y-111850141D01*
X130204635Y-112135067D01*
X130204366Y-112443580D01*
X130254500Y-112564914D01*
X130254500Y-112689002D01*
X130245185Y-112735000D01*
X130245185Y-113499500D01*
X129214815Y-113499500D01*
X129214815Y-112735000D01*
X129181659Y-112558790D01*
X129080500Y-112401586D01*
X129080500Y-111700005D01*
X129080501Y-111700000D01*
X129080500Y-111699995D01*
X129080500Y-111654646D01*
X129082180Y-111658712D01*
X129300141Y-111877054D01*
X129585067Y-111995365D01*
X129893580Y-111995634D01*
X130178712Y-111877820D01*
X130397054Y-111659859D01*
X130515365Y-111374933D01*
X130515634Y-111066420D01*
X130419937Y-110834815D01*
X130425000Y-110834815D01*
X130601210Y-110801659D01*
X130763047Y-110697519D01*
X130871618Y-110538620D01*
X130909815Y-110350000D01*
X130909815Y-108352668D01*
X130975330Y-108194890D01*
X130975331Y-108193188D01*
X131024331Y-108193188D01*
X131172529Y-108551854D01*
X131446702Y-108826506D01*
X131805110Y-108975330D01*
X132193188Y-108975669D01*
X132551854Y-108827471D01*
X132826506Y-108553298D01*
X132975330Y-108194890D01*
X132975669Y-107806812D01*
X132909815Y-107647433D01*
X132909815Y-105650000D01*
X132876659Y-105473790D01*
X132772519Y-105311953D01*
X132613620Y-105203382D01*
X132425000Y-105165185D01*
X131575000Y-105165185D01*
X131398790Y-105198341D01*
X131236953Y-105302481D01*
X131128382Y-105461380D01*
X131090185Y-105650000D01*
X131090185Y-107647332D01*
X131024670Y-107805110D01*
X131024331Y-108193188D01*
X130975331Y-108193188D01*
X130975669Y-107806812D01*
X130827471Y-107448146D01*
X130553298Y-107173494D01*
X130194890Y-107024670D01*
X129806812Y-107024331D01*
X129448146Y-107172529D01*
X129173494Y-107446702D01*
X129080500Y-107670656D01*
X129080500Y-103430000D01*
X129125185Y-103430000D01*
X129125185Y-104330000D01*
X129158341Y-104506210D01*
X129262481Y-104668047D01*
X129421380Y-104776618D01*
X129610000Y-104814815D01*
X130410000Y-104814815D01*
X130586210Y-104781659D01*
X130748047Y-104677519D01*
X130856618Y-104518620D01*
X130894815Y-104330000D01*
X130894815Y-103430000D01*
X130861659Y-103253790D01*
X130757519Y-103091953D01*
X130598620Y-102983382D01*
X130410000Y-102945185D01*
X129610000Y-102945185D01*
X129433790Y-102978341D01*
X129271953Y-103082481D01*
X129163382Y-103241380D01*
X129125185Y-103430000D01*
X129080500Y-103430000D01*
X129080500Y-101375500D01*
X129557700Y-101375500D01*
X129492946Y-101440141D01*
X129492946Y-101440141D01*
G37*
X129492946Y-101440141D02*
X129374635Y-101725067D01*
X129374366Y-102033580D01*
X129492180Y-102318712D01*
X129710141Y-102537054D01*
X129995067Y-102655365D01*
X130204438Y-102655548D01*
X130212481Y-102668047D01*
X130371380Y-102776618D01*
X130560000Y-102814815D01*
X131360000Y-102814815D01*
X131536210Y-102781659D01*
X131698047Y-102677519D01*
X131806618Y-102518620D01*
X131844815Y-102330000D01*
X131844815Y-101744051D01*
X133271470Y-103170705D01*
X133190000Y-103154500D01*
X132697767Y-103154500D01*
X132657519Y-103091953D01*
X132498620Y-102983382D01*
X132310000Y-102945185D01*
X131510000Y-102945185D01*
X131333790Y-102978341D01*
X131171953Y-103082481D01*
X131063382Y-103241380D01*
X131025185Y-103430000D01*
X131025185Y-104330000D01*
X131058341Y-104506210D01*
X131162481Y-104668047D01*
X131321380Y-104776618D01*
X131510000Y-104814815D01*
X132310000Y-104814815D01*
X132486210Y-104781659D01*
X132648047Y-104677519D01*
X132697255Y-104605500D01*
X132889488Y-104605500D01*
X133274500Y-104990512D01*
X133274500Y-107345872D01*
X133173494Y-107446702D01*
X133024670Y-107805110D01*
X133024331Y-108193188D01*
X133090185Y-108352567D01*
X133090185Y-110350000D01*
X133123341Y-110526210D01*
X133227481Y-110688047D01*
X133386380Y-110796618D01*
X133575000Y-110834815D01*
X134425000Y-110834815D01*
X134601210Y-110801659D01*
X134763047Y-110697519D01*
X134871618Y-110538620D01*
X134909815Y-110350000D01*
X134909815Y-110059051D01*
X135740950Y-110890185D01*
X135700000Y-110890185D01*
X135523790Y-110923341D01*
X135450379Y-110970580D01*
X135388620Y-110928382D01*
X135200000Y-110890185D01*
X134800000Y-110890185D01*
X134623790Y-110923341D01*
X134461953Y-111027481D01*
X134353382Y-111186380D01*
X134315185Y-111375000D01*
X134315185Y-111975000D01*
X134348341Y-112151210D01*
X134399500Y-112230713D01*
X134399500Y-112783738D01*
X134312946Y-112870141D01*
X134194635Y-113155067D01*
X134194366Y-113463580D01*
X134209208Y-113499500D01*
X131714815Y-113499500D01*
X131714815Y-112735000D01*
X131705500Y-112685495D01*
X131705500Y-112565022D01*
X131755365Y-112444933D01*
X131755634Y-112136420D01*
X131637820Y-111851288D01*
X131419859Y-111632946D01*
X131134933Y-111514635D01*
X130826420Y-111514366D01*
X130541288Y-111632180D01*
X130322946Y-111850141D01*
X130204635Y-112135067D01*
X130204366Y-112443580D01*
X130254500Y-112564914D01*
X130254500Y-112689002D01*
X130245185Y-112735000D01*
X130245185Y-113499500D01*
X129214815Y-113499500D01*
X129214815Y-112735000D01*
X129181659Y-112558790D01*
X129080500Y-112401586D01*
X129080500Y-111700005D01*
X129080501Y-111700000D01*
X129080500Y-111699995D01*
X129080500Y-111654646D01*
X129082180Y-111658712D01*
X129300141Y-111877054D01*
X129585067Y-111995365D01*
X129893580Y-111995634D01*
X130178712Y-111877820D01*
X130397054Y-111659859D01*
X130515365Y-111374933D01*
X130515634Y-111066420D01*
X130419937Y-110834815D01*
X130425000Y-110834815D01*
X130601210Y-110801659D01*
X130763047Y-110697519D01*
X130871618Y-110538620D01*
X130909815Y-110350000D01*
X130909815Y-108352668D01*
X130975330Y-108194890D01*
X130975331Y-108193188D01*
X131024331Y-108193188D01*
X131172529Y-108551854D01*
X131446702Y-108826506D01*
X131805110Y-108975330D01*
X132193188Y-108975669D01*
X132551854Y-108827471D01*
X132826506Y-108553298D01*
X132975330Y-108194890D01*
X132975669Y-107806812D01*
X132909815Y-107647433D01*
X132909815Y-105650000D01*
X132876659Y-105473790D01*
X132772519Y-105311953D01*
X132613620Y-105203382D01*
X132425000Y-105165185D01*
X131575000Y-105165185D01*
X131398790Y-105198341D01*
X131236953Y-105302481D01*
X131128382Y-105461380D01*
X131090185Y-105650000D01*
X131090185Y-107647332D01*
X131024670Y-107805110D01*
X131024331Y-108193188D01*
X130975331Y-108193188D01*
X130975669Y-107806812D01*
X130827471Y-107448146D01*
X130553298Y-107173494D01*
X130194890Y-107024670D01*
X129806812Y-107024331D01*
X129448146Y-107172529D01*
X129173494Y-107446702D01*
X129080500Y-107670656D01*
X129080500Y-103430000D01*
X129125185Y-103430000D01*
X129125185Y-104330000D01*
X129158341Y-104506210D01*
X129262481Y-104668047D01*
X129421380Y-104776618D01*
X129610000Y-104814815D01*
X130410000Y-104814815D01*
X130586210Y-104781659D01*
X130748047Y-104677519D01*
X130856618Y-104518620D01*
X130894815Y-104330000D01*
X130894815Y-103430000D01*
X130861659Y-103253790D01*
X130757519Y-103091953D01*
X130598620Y-102983382D01*
X130410000Y-102945185D01*
X129610000Y-102945185D01*
X129433790Y-102978341D01*
X129271953Y-103082481D01*
X129163382Y-103241380D01*
X129125185Y-103430000D01*
X129080500Y-103430000D01*
X129080500Y-101375500D01*
X129557700Y-101375500D01*
X129492946Y-101440141D01*
G36*
X127879500Y-110633184D02*
X127840000Y-110625185D01*
X127440000Y-110625185D01*
X127263790Y-110658341D01*
X127190379Y-110705580D01*
X127128620Y-110663382D01*
X126940000Y-110625185D01*
X126540000Y-110625185D01*
X126363790Y-110658341D01*
X126201953Y-110762481D01*
X126093382Y-110921380D01*
X126091112Y-110932587D01*
X123995238Y-108836713D01*
X124116884Y-108715067D01*
X124129123Y-108706889D01*
X124688537Y-108147475D01*
X124808712Y-108097820D01*
X125027054Y-107879859D01*
X125145365Y-107594933D01*
X125145634Y-107286420D01*
X125027820Y-107001288D01*
X124809859Y-106782946D01*
X124524933Y-106664635D01*
X124216420Y-106664366D01*
X123931288Y-106782180D01*
X123712946Y-107000141D01*
X123662600Y-107121388D01*
X123621513Y-107162475D01*
X123531232Y-107222349D01*
X122956053Y-107797528D01*
X122227472Y-107068947D01*
X122802651Y-106493768D01*
X122903805Y-106345724D01*
X122943436Y-106163034D01*
X123494629Y-105611841D01*
X123494366Y-105913580D01*
X123612180Y-106198712D01*
X123830141Y-106417054D01*
X124115067Y-106535365D01*
X124423580Y-106535634D01*
X124708712Y-106417820D01*
X124927054Y-106199859D01*
X125045365Y-105914933D01*
X125045634Y-105606420D01*
X124927820Y-105321288D01*
X124709859Y-105102946D01*
X124424933Y-104984635D01*
X124122099Y-104984371D01*
X127879500Y-101226970D01*
X127879500Y-110633184D01*
X127879500Y-110633184D01*
G37*
X127879500Y-110633184D02*
X127840000Y-110625185D01*
X127440000Y-110625185D01*
X127263790Y-110658341D01*
X127190379Y-110705580D01*
X127128620Y-110663382D01*
X126940000Y-110625185D01*
X126540000Y-110625185D01*
X126363790Y-110658341D01*
X126201953Y-110762481D01*
X126093382Y-110921380D01*
X126091112Y-110932587D01*
X123995238Y-108836713D01*
X124116884Y-108715067D01*
X124129123Y-108706889D01*
X124688537Y-108147475D01*
X124808712Y-108097820D01*
X125027054Y-107879859D01*
X125145365Y-107594933D01*
X125145634Y-107286420D01*
X125027820Y-107001288D01*
X124809859Y-106782946D01*
X124524933Y-106664635D01*
X124216420Y-106664366D01*
X123931288Y-106782180D01*
X123712946Y-107000141D01*
X123662600Y-107121388D01*
X123621513Y-107162475D01*
X123531232Y-107222349D01*
X122956053Y-107797528D01*
X122227472Y-107068947D01*
X122802651Y-106493768D01*
X122903805Y-106345724D01*
X122943436Y-106163034D01*
X123494629Y-105611841D01*
X123494366Y-105913580D01*
X123612180Y-106198712D01*
X123830141Y-106417054D01*
X124115067Y-106535365D01*
X124423580Y-106535634D01*
X124708712Y-106417820D01*
X124927054Y-106199859D01*
X125045365Y-105914933D01*
X125045634Y-105606420D01*
X124927820Y-105321288D01*
X124709859Y-105102946D01*
X124424933Y-104984635D01*
X124122099Y-104984371D01*
X127879500Y-101226970D01*
X127879500Y-110633184D01*
G36*
X154373341Y-100351210D02*
X154420580Y-100424621D01*
X154378382Y-100486380D01*
X154340185Y-100675000D01*
X154340185Y-101075000D01*
X154373341Y-101251210D01*
X154477481Y-101413047D01*
X154636380Y-101521618D01*
X154825000Y-101559815D01*
X155425000Y-101559815D01*
X155601210Y-101526659D01*
X155680713Y-101475500D01*
X156438747Y-101475500D01*
X156530141Y-101567054D01*
X156815067Y-101685365D01*
X157123580Y-101685634D01*
X157219500Y-101646001D01*
X157219500Y-102510000D01*
X157261404Y-102720668D01*
X157380738Y-102899262D01*
X158661476Y-104180000D01*
X156824214Y-106017263D01*
X156311534Y-105504583D01*
X156245424Y-105459412D01*
X156117475Y-105331463D01*
X156067820Y-105211288D01*
X155849859Y-104992946D01*
X155564933Y-104874635D01*
X155256420Y-104874366D01*
X154971288Y-104992180D01*
X154752946Y-105210141D01*
X154634635Y-105495067D01*
X154634482Y-105671025D01*
X154547820Y-105461288D01*
X154329859Y-105242946D01*
X154044933Y-105124635D01*
X153736420Y-105124366D01*
X153451288Y-105242180D01*
X153232946Y-105460141D01*
X153114635Y-105745067D01*
X153114384Y-106032914D01*
X152895735Y-105814265D01*
X152895732Y-105814263D01*
X150206852Y-103125382D01*
X150094783Y-103050500D01*
X151249995Y-103050500D01*
X151250000Y-103050501D01*
X151479802Y-103004790D01*
X151674618Y-102874618D01*
X154345577Y-100203659D01*
X154373341Y-100351210D01*
X154373341Y-100351210D01*
G37*
X154373341Y-100351210D02*
X154420580Y-100424621D01*
X154378382Y-100486380D01*
X154340185Y-100675000D01*
X154340185Y-101075000D01*
X154373341Y-101251210D01*
X154477481Y-101413047D01*
X154636380Y-101521618D01*
X154825000Y-101559815D01*
X155425000Y-101559815D01*
X155601210Y-101526659D01*
X155680713Y-101475500D01*
X156438747Y-101475500D01*
X156530141Y-101567054D01*
X156815067Y-101685365D01*
X157123580Y-101685634D01*
X157219500Y-101646001D01*
X157219500Y-102510000D01*
X157261404Y-102720668D01*
X157380738Y-102899262D01*
X158661476Y-104180000D01*
X156824214Y-106017263D01*
X156311534Y-105504583D01*
X156245424Y-105459412D01*
X156117475Y-105331463D01*
X156067820Y-105211288D01*
X155849859Y-104992946D01*
X155564933Y-104874635D01*
X155256420Y-104874366D01*
X154971288Y-104992180D01*
X154752946Y-105210141D01*
X154634635Y-105495067D01*
X154634482Y-105671025D01*
X154547820Y-105461288D01*
X154329859Y-105242946D01*
X154044933Y-105124635D01*
X153736420Y-105124366D01*
X153451288Y-105242180D01*
X153232946Y-105460141D01*
X153114635Y-105745067D01*
X153114384Y-106032914D01*
X152895735Y-105814265D01*
X152895732Y-105814263D01*
X150206852Y-103125382D01*
X150094783Y-103050500D01*
X151249995Y-103050500D01*
X151250000Y-103050501D01*
X151479802Y-103004790D01*
X151674618Y-102874618D01*
X154345577Y-100203659D01*
X154373341Y-100351210D01*
G36*
X122512946Y-96560141D02*
X122394635Y-96845067D01*
X122394366Y-97153580D01*
X122512180Y-97438712D01*
X122730141Y-97657054D01*
X123015067Y-97775365D01*
X123323580Y-97775634D01*
X123608712Y-97657820D01*
X123827054Y-97439859D01*
X123945365Y-97154933D01*
X123945634Y-96846420D01*
X123827820Y-96561288D01*
X123617400Y-96350500D01*
X124051264Y-96350500D01*
X126365380Y-98664615D01*
X126365382Y-98664618D01*
X126433599Y-98710199D01*
X126560198Y-98794790D01*
X126790000Y-98840501D01*
X126790005Y-98840500D01*
X129665550Y-98840500D01*
X129835000Y-98874815D01*
X130325185Y-98874815D01*
X130325185Y-99365000D01*
X130355197Y-99524500D01*
X128132234Y-99524500D01*
X127902432Y-99570210D01*
X127707616Y-99700382D01*
X123404815Y-104003183D01*
X123404815Y-103610000D01*
X123371659Y-103433790D01*
X123324420Y-103360379D01*
X123366618Y-103298620D01*
X123404815Y-103110000D01*
X123404815Y-102710000D01*
X123371659Y-102533790D01*
X123267519Y-102371953D01*
X123108620Y-102263382D01*
X122920000Y-102225185D01*
X122320000Y-102225185D01*
X122143790Y-102258341D01*
X122064287Y-102309500D01*
X121620005Y-102309500D01*
X121620000Y-102309499D01*
X121390198Y-102355210D01*
X121292791Y-102420296D01*
X121195382Y-102485382D01*
X121195380Y-102485385D01*
X120976329Y-102704436D01*
X120896420Y-102704366D01*
X120679575Y-102793965D01*
X120748596Y-102690668D01*
X120790500Y-102480000D01*
X120790500Y-98984815D01*
X121550000Y-98984815D01*
X121599505Y-98975500D01*
X121754978Y-98975500D01*
X121875067Y-99025365D01*
X122183580Y-99025634D01*
X122468712Y-98907820D01*
X122687054Y-98689859D01*
X122805365Y-98404933D01*
X122805634Y-98096420D01*
X122687820Y-97811288D01*
X122469859Y-97592946D01*
X122184933Y-97474635D01*
X121876420Y-97474366D01*
X121755086Y-97524500D01*
X121595998Y-97524500D01*
X121550000Y-97515185D01*
X120790500Y-97515185D01*
X120790500Y-96484815D01*
X121550000Y-96484815D01*
X121726210Y-96451659D01*
X121883414Y-96350500D01*
X122722953Y-96350500D01*
X122512946Y-96560141D01*
X122512946Y-96560141D01*
G37*
X122512946Y-96560141D02*
X122394635Y-96845067D01*
X122394366Y-97153580D01*
X122512180Y-97438712D01*
X122730141Y-97657054D01*
X123015067Y-97775365D01*
X123323580Y-97775634D01*
X123608712Y-97657820D01*
X123827054Y-97439859D01*
X123945365Y-97154933D01*
X123945634Y-96846420D01*
X123827820Y-96561288D01*
X123617400Y-96350500D01*
X124051264Y-96350500D01*
X126365380Y-98664615D01*
X126365382Y-98664618D01*
X126433599Y-98710199D01*
X126560198Y-98794790D01*
X126790000Y-98840501D01*
X126790005Y-98840500D01*
X129665550Y-98840500D01*
X129835000Y-98874815D01*
X130325185Y-98874815D01*
X130325185Y-99365000D01*
X130355197Y-99524500D01*
X128132234Y-99524500D01*
X127902432Y-99570210D01*
X127707616Y-99700382D01*
X123404815Y-104003183D01*
X123404815Y-103610000D01*
X123371659Y-103433790D01*
X123324420Y-103360379D01*
X123366618Y-103298620D01*
X123404815Y-103110000D01*
X123404815Y-102710000D01*
X123371659Y-102533790D01*
X123267519Y-102371953D01*
X123108620Y-102263382D01*
X122920000Y-102225185D01*
X122320000Y-102225185D01*
X122143790Y-102258341D01*
X122064287Y-102309500D01*
X121620005Y-102309500D01*
X121620000Y-102309499D01*
X121390198Y-102355210D01*
X121292791Y-102420296D01*
X121195382Y-102485382D01*
X121195380Y-102485385D01*
X120976329Y-102704436D01*
X120896420Y-102704366D01*
X120679575Y-102793965D01*
X120748596Y-102690668D01*
X120790500Y-102480000D01*
X120790500Y-98984815D01*
X121550000Y-98984815D01*
X121599505Y-98975500D01*
X121754978Y-98975500D01*
X121875067Y-99025365D01*
X122183580Y-99025634D01*
X122468712Y-98907820D01*
X122687054Y-98689859D01*
X122805365Y-98404933D01*
X122805634Y-98096420D01*
X122687820Y-97811288D01*
X122469859Y-97592946D01*
X122184933Y-97474635D01*
X121876420Y-97474366D01*
X121755086Y-97524500D01*
X121595998Y-97524500D01*
X121550000Y-97515185D01*
X120790500Y-97515185D01*
X120790500Y-96484815D01*
X121550000Y-96484815D01*
X121726210Y-96451659D01*
X121883414Y-96350500D01*
X122722953Y-96350500D01*
X122512946Y-96560141D01*
G36*
X158671476Y-89840000D02*
X157380738Y-91130738D01*
X157261404Y-91309332D01*
X157261404Y-91309333D01*
X157219500Y-91520000D01*
X157219500Y-95015185D01*
X156455000Y-95015185D01*
X156405495Y-95024500D01*
X156175022Y-95024500D01*
X156054933Y-94974635D01*
X155746420Y-94974366D01*
X155461288Y-95092180D01*
X155242946Y-95310141D01*
X155124635Y-95595067D01*
X155124366Y-95903580D01*
X155242180Y-96188712D01*
X155386436Y-96333220D01*
X155124933Y-96224635D01*
X154816420Y-96224366D01*
X154531288Y-96342180D01*
X154312946Y-96560141D01*
X154194635Y-96845067D01*
X154194366Y-97153580D01*
X154312180Y-97438712D01*
X154530141Y-97657054D01*
X154815067Y-97775365D01*
X155099866Y-97775613D01*
X155025382Y-97825382D01*
X151001264Y-101849500D01*
X139918736Y-101849500D01*
X137162816Y-99093580D01*
X150244366Y-99093580D01*
X150362180Y-99378712D01*
X150580141Y-99597054D01*
X150865067Y-99715365D01*
X151173580Y-99715634D01*
X151458712Y-99597820D01*
X151677054Y-99379859D01*
X151795365Y-99094933D01*
X151795634Y-98786420D01*
X151677820Y-98501288D01*
X151459859Y-98282946D01*
X151174933Y-98164635D01*
X150866420Y-98164366D01*
X150581288Y-98282180D01*
X150362946Y-98500141D01*
X150244635Y-98785067D01*
X150244366Y-99093580D01*
X137162816Y-99093580D01*
X136376598Y-98307362D01*
X136439802Y-98294790D01*
X136634618Y-98164618D01*
X137204615Y-97594620D01*
X137204618Y-97594618D01*
X137284788Y-97474635D01*
X137334790Y-97399802D01*
X137380501Y-97170000D01*
X137380500Y-97169995D01*
X137380500Y-95903580D01*
X148834366Y-95903580D01*
X148952180Y-96188712D01*
X149170141Y-96407054D01*
X149455067Y-96525365D01*
X149763580Y-96525634D01*
X150048712Y-96407820D01*
X150267054Y-96189859D01*
X150385365Y-95904933D01*
X150385504Y-95745500D01*
X150500473Y-95745500D01*
X150531380Y-95766618D01*
X150720000Y-95804815D01*
X151320000Y-95804815D01*
X151496210Y-95771659D01*
X151658047Y-95667519D01*
X151766618Y-95508620D01*
X151804815Y-95320000D01*
X151804815Y-94920000D01*
X151801933Y-94904682D01*
X151899443Y-94807172D01*
X152003500Y-94555957D01*
X152003500Y-94469375D01*
X151832625Y-94298500D01*
X151098500Y-94298500D01*
X151098500Y-94318500D01*
X150941500Y-94318500D01*
X150941500Y-94298500D01*
X150207375Y-94298500D01*
X150036500Y-94469375D01*
X150036500Y-94507131D01*
X149860631Y-94542113D01*
X149657705Y-94677704D01*
X149293886Y-95041523D01*
X149171288Y-95092180D01*
X148952946Y-95310141D01*
X148834635Y-95595067D01*
X148834366Y-95903580D01*
X137380500Y-95903580D01*
X137380500Y-95475422D01*
X137623580Y-95475634D01*
X137908712Y-95357820D01*
X138127054Y-95139859D01*
X138245365Y-94854933D01*
X138245382Y-94835583D01*
X138303580Y-94835634D01*
X138588712Y-94717820D01*
X138807054Y-94499859D01*
X138925365Y-94214933D01*
X138925634Y-93906420D01*
X138916389Y-93884043D01*
X150036500Y-93884043D01*
X150036500Y-93970625D01*
X150207375Y-94141500D01*
X150941500Y-94141500D01*
X150941500Y-93507375D01*
X151098500Y-93507375D01*
X151098500Y-94141500D01*
X151832625Y-94141500D01*
X152003500Y-93970625D01*
X152003500Y-93884043D01*
X151899443Y-93632828D01*
X151707171Y-93440556D01*
X151455956Y-93336500D01*
X151269375Y-93336500D01*
X151098500Y-93507375D01*
X150941500Y-93507375D01*
X150770625Y-93336500D01*
X150584044Y-93336500D01*
X150332829Y-93440556D01*
X150140557Y-93632828D01*
X150036500Y-93884043D01*
X138916389Y-93884043D01*
X138807820Y-93621288D01*
X138589859Y-93402946D01*
X138304933Y-93284635D01*
X138134749Y-93284487D01*
X139878735Y-91540500D01*
X152817761Y-91540500D01*
X152817766Y-91540501D01*
X153047568Y-91494790D01*
X153242384Y-91364618D01*
X154840185Y-89766816D01*
X154840185Y-89850000D01*
X154873341Y-90026210D01*
X154920580Y-90099621D01*
X154878382Y-90161380D01*
X154840185Y-90350000D01*
X154840185Y-90750000D01*
X154873341Y-90926210D01*
X154977481Y-91088047D01*
X155136380Y-91196618D01*
X155325000Y-91234815D01*
X155925000Y-91234815D01*
X156101210Y-91201659D01*
X156180713Y-91150500D01*
X156599995Y-91150500D01*
X156600000Y-91150501D01*
X156829802Y-91104790D01*
X157024618Y-90974618D01*
X157043672Y-90955564D01*
X157123580Y-90955634D01*
X157408712Y-90837820D01*
X157627054Y-90619859D01*
X157745365Y-90334933D01*
X157745634Y-90026420D01*
X157627820Y-89741288D01*
X157409859Y-89522946D01*
X157124933Y-89404635D01*
X156816420Y-89404366D01*
X156531288Y-89522180D01*
X156409815Y-89643441D01*
X156409815Y-89450000D01*
X156376659Y-89273790D01*
X156272519Y-89111953D01*
X156225500Y-89079826D01*
X156225500Y-89055005D01*
X156225501Y-89055000D01*
X156179790Y-88825198D01*
X156062140Y-88649123D01*
X156101150Y-88641783D01*
X156261534Y-88535417D01*
X156814213Y-87982738D01*
X158671476Y-89840000D01*
X158671476Y-89840000D01*
G37*
X158671476Y-89840000D02*
X157380738Y-91130738D01*
X157261404Y-91309332D01*
X157261404Y-91309333D01*
X157219500Y-91520000D01*
X157219500Y-95015185D01*
X156455000Y-95015185D01*
X156405495Y-95024500D01*
X156175022Y-95024500D01*
X156054933Y-94974635D01*
X155746420Y-94974366D01*
X155461288Y-95092180D01*
X155242946Y-95310141D01*
X155124635Y-95595067D01*
X155124366Y-95903580D01*
X155242180Y-96188712D01*
X155386436Y-96333220D01*
X155124933Y-96224635D01*
X154816420Y-96224366D01*
X154531288Y-96342180D01*
X154312946Y-96560141D01*
X154194635Y-96845067D01*
X154194366Y-97153580D01*
X154312180Y-97438712D01*
X154530141Y-97657054D01*
X154815067Y-97775365D01*
X155099866Y-97775613D01*
X155025382Y-97825382D01*
X151001264Y-101849500D01*
X139918736Y-101849500D01*
X137162816Y-99093580D01*
X150244366Y-99093580D01*
X150362180Y-99378712D01*
X150580141Y-99597054D01*
X150865067Y-99715365D01*
X151173580Y-99715634D01*
X151458712Y-99597820D01*
X151677054Y-99379859D01*
X151795365Y-99094933D01*
X151795634Y-98786420D01*
X151677820Y-98501288D01*
X151459859Y-98282946D01*
X151174933Y-98164635D01*
X150866420Y-98164366D01*
X150581288Y-98282180D01*
X150362946Y-98500141D01*
X150244635Y-98785067D01*
X150244366Y-99093580D01*
X137162816Y-99093580D01*
X136376598Y-98307362D01*
X136439802Y-98294790D01*
X136634618Y-98164618D01*
X137204615Y-97594620D01*
X137204618Y-97594618D01*
X137284788Y-97474635D01*
X137334790Y-97399802D01*
X137380501Y-97170000D01*
X137380500Y-97169995D01*
X137380500Y-95903580D01*
X148834366Y-95903580D01*
X148952180Y-96188712D01*
X149170141Y-96407054D01*
X149455067Y-96525365D01*
X149763580Y-96525634D01*
X150048712Y-96407820D01*
X150267054Y-96189859D01*
X150385365Y-95904933D01*
X150385504Y-95745500D01*
X150500473Y-95745500D01*
X150531380Y-95766618D01*
X150720000Y-95804815D01*
X151320000Y-95804815D01*
X151496210Y-95771659D01*
X151658047Y-95667519D01*
X151766618Y-95508620D01*
X151804815Y-95320000D01*
X151804815Y-94920000D01*
X151801933Y-94904682D01*
X151899443Y-94807172D01*
X152003500Y-94555957D01*
X152003500Y-94469375D01*
X151832625Y-94298500D01*
X151098500Y-94298500D01*
X151098500Y-94318500D01*
X150941500Y-94318500D01*
X150941500Y-94298500D01*
X150207375Y-94298500D01*
X150036500Y-94469375D01*
X150036500Y-94507131D01*
X149860631Y-94542113D01*
X149657705Y-94677704D01*
X149293886Y-95041523D01*
X149171288Y-95092180D01*
X148952946Y-95310141D01*
X148834635Y-95595067D01*
X148834366Y-95903580D01*
X137380500Y-95903580D01*
X137380500Y-95475422D01*
X137623580Y-95475634D01*
X137908712Y-95357820D01*
X138127054Y-95139859D01*
X138245365Y-94854933D01*
X138245382Y-94835583D01*
X138303580Y-94835634D01*
X138588712Y-94717820D01*
X138807054Y-94499859D01*
X138925365Y-94214933D01*
X138925634Y-93906420D01*
X138916389Y-93884043D01*
X150036500Y-93884043D01*
X150036500Y-93970625D01*
X150207375Y-94141500D01*
X150941500Y-94141500D01*
X150941500Y-93507375D01*
X151098500Y-93507375D01*
X151098500Y-94141500D01*
X151832625Y-94141500D01*
X152003500Y-93970625D01*
X152003500Y-93884043D01*
X151899443Y-93632828D01*
X151707171Y-93440556D01*
X151455956Y-93336500D01*
X151269375Y-93336500D01*
X151098500Y-93507375D01*
X150941500Y-93507375D01*
X150770625Y-93336500D01*
X150584044Y-93336500D01*
X150332829Y-93440556D01*
X150140557Y-93632828D01*
X150036500Y-93884043D01*
X138916389Y-93884043D01*
X138807820Y-93621288D01*
X138589859Y-93402946D01*
X138304933Y-93284635D01*
X138134749Y-93284487D01*
X139878735Y-91540500D01*
X152817761Y-91540500D01*
X152817766Y-91540501D01*
X153047568Y-91494790D01*
X153242384Y-91364618D01*
X154840185Y-89766816D01*
X154840185Y-89850000D01*
X154873341Y-90026210D01*
X154920580Y-90099621D01*
X154878382Y-90161380D01*
X154840185Y-90350000D01*
X154840185Y-90750000D01*
X154873341Y-90926210D01*
X154977481Y-91088047D01*
X155136380Y-91196618D01*
X155325000Y-91234815D01*
X155925000Y-91234815D01*
X156101210Y-91201659D01*
X156180713Y-91150500D01*
X156599995Y-91150500D01*
X156600000Y-91150501D01*
X156829802Y-91104790D01*
X157024618Y-90974618D01*
X157043672Y-90955564D01*
X157123580Y-90955634D01*
X157408712Y-90837820D01*
X157627054Y-90619859D01*
X157745365Y-90334933D01*
X157745634Y-90026420D01*
X157627820Y-89741288D01*
X157409859Y-89522946D01*
X157124933Y-89404635D01*
X156816420Y-89404366D01*
X156531288Y-89522180D01*
X156409815Y-89643441D01*
X156409815Y-89450000D01*
X156376659Y-89273790D01*
X156272519Y-89111953D01*
X156225500Y-89079826D01*
X156225500Y-89055005D01*
X156225501Y-89055000D01*
X156179790Y-88825198D01*
X156062140Y-88649123D01*
X156101150Y-88641783D01*
X156261534Y-88535417D01*
X156814213Y-87982738D01*
X158671476Y-89840000D01*
G36*
X127745185Y-81265000D02*
X127754500Y-81314505D01*
X127754500Y-81534978D01*
X127704635Y-81655067D01*
X127704366Y-81963580D01*
X127822180Y-82248712D01*
X128040141Y-82467054D01*
X128325067Y-82585365D01*
X128633580Y-82585634D01*
X128918712Y-82467820D01*
X129020667Y-82366043D01*
X128954635Y-82525067D01*
X128954366Y-82833580D01*
X129072180Y-83118712D01*
X129248324Y-83295164D01*
X129236953Y-83302481D01*
X129128382Y-83461380D01*
X129090185Y-83650000D01*
X129090185Y-85647332D01*
X129024670Y-85805110D01*
X129024331Y-86193188D01*
X129172529Y-86551854D01*
X129399500Y-86779222D01*
X129399500Y-90374316D01*
X129374500Y-90500000D01*
X129399500Y-90625684D01*
X129399500Y-92426265D01*
X128650382Y-93175382D01*
X128520210Y-93370198D01*
X128474499Y-93600000D01*
X128474500Y-93600005D01*
X128474500Y-93708739D01*
X128275956Y-93626500D01*
X128139375Y-93626500D01*
X127968500Y-93797375D01*
X127968500Y-94531500D01*
X127988500Y-94531500D01*
X127988500Y-94688500D01*
X127968500Y-94688500D01*
X127968500Y-94708500D01*
X127811500Y-94708500D01*
X127811500Y-94688500D01*
X127127375Y-94688500D01*
X126956500Y-94859375D01*
X126956500Y-95045957D01*
X127060557Y-95297172D01*
X127158250Y-95394865D01*
X127155185Y-95410000D01*
X127155185Y-96010000D01*
X127188341Y-96186210D01*
X127292481Y-96348047D01*
X127451380Y-96456618D01*
X127640000Y-96494815D01*
X128026644Y-96494815D01*
X127974635Y-96620067D01*
X127974366Y-96928580D01*
X128061516Y-97139500D01*
X127638736Y-97139500D01*
X126300500Y-95801264D01*
X126300500Y-94174043D01*
X126956500Y-94174043D01*
X126956500Y-94360625D01*
X127127375Y-94531500D01*
X127811500Y-94531500D01*
X127811500Y-93797375D01*
X127640625Y-93626500D01*
X127504044Y-93626500D01*
X127252829Y-93730556D01*
X127060557Y-93922828D01*
X126956500Y-94174043D01*
X126300500Y-94174043D01*
X126300500Y-87907239D01*
X126300501Y-87907234D01*
X126254790Y-87677432D01*
X126150500Y-87521351D01*
X126150500Y-86971680D01*
X126188047Y-86947519D01*
X126296618Y-86788620D01*
X126334815Y-86600000D01*
X126334815Y-86200000D01*
X126301659Y-86023790D01*
X126254420Y-85950379D01*
X126296618Y-85888620D01*
X126334815Y-85700000D01*
X126334815Y-85300000D01*
X126301659Y-85123790D01*
X126197519Y-84961953D01*
X126150500Y-84929826D01*
X126150500Y-84470000D01*
X126104790Y-84240199D01*
X126015547Y-84106636D01*
X126015634Y-84006420D01*
X125897820Y-83721288D01*
X125692707Y-83515817D01*
X126119262Y-83089262D01*
X126238596Y-82910668D01*
X126280500Y-82700000D01*
X126280500Y-80490500D01*
X127745185Y-80490500D01*
X127745185Y-81265000D01*
X127745185Y-81265000D01*
G37*
X127745185Y-81265000D02*
X127754500Y-81314505D01*
X127754500Y-81534978D01*
X127704635Y-81655067D01*
X127704366Y-81963580D01*
X127822180Y-82248712D01*
X128040141Y-82467054D01*
X128325067Y-82585365D01*
X128633580Y-82585634D01*
X128918712Y-82467820D01*
X129020667Y-82366043D01*
X128954635Y-82525067D01*
X128954366Y-82833580D01*
X129072180Y-83118712D01*
X129248324Y-83295164D01*
X129236953Y-83302481D01*
X129128382Y-83461380D01*
X129090185Y-83650000D01*
X129090185Y-85647332D01*
X129024670Y-85805110D01*
X129024331Y-86193188D01*
X129172529Y-86551854D01*
X129399500Y-86779222D01*
X129399500Y-90374316D01*
X129374500Y-90500000D01*
X129399500Y-90625684D01*
X129399500Y-92426265D01*
X128650382Y-93175382D01*
X128520210Y-93370198D01*
X128474499Y-93600000D01*
X128474500Y-93600005D01*
X128474500Y-93708739D01*
X128275956Y-93626500D01*
X128139375Y-93626500D01*
X127968500Y-93797375D01*
X127968500Y-94531500D01*
X127988500Y-94531500D01*
X127988500Y-94688500D01*
X127968500Y-94688500D01*
X127968500Y-94708500D01*
X127811500Y-94708500D01*
X127811500Y-94688500D01*
X127127375Y-94688500D01*
X126956500Y-94859375D01*
X126956500Y-95045957D01*
X127060557Y-95297172D01*
X127158250Y-95394865D01*
X127155185Y-95410000D01*
X127155185Y-96010000D01*
X127188341Y-96186210D01*
X127292481Y-96348047D01*
X127451380Y-96456618D01*
X127640000Y-96494815D01*
X128026644Y-96494815D01*
X127974635Y-96620067D01*
X127974366Y-96928580D01*
X128061516Y-97139500D01*
X127638736Y-97139500D01*
X126300500Y-95801264D01*
X126300500Y-94174043D01*
X126956500Y-94174043D01*
X126956500Y-94360625D01*
X127127375Y-94531500D01*
X127811500Y-94531500D01*
X127811500Y-93797375D01*
X127640625Y-93626500D01*
X127504044Y-93626500D01*
X127252829Y-93730556D01*
X127060557Y-93922828D01*
X126956500Y-94174043D01*
X126300500Y-94174043D01*
X126300500Y-87907239D01*
X126300501Y-87907234D01*
X126254790Y-87677432D01*
X126150500Y-87521351D01*
X126150500Y-86971680D01*
X126188047Y-86947519D01*
X126296618Y-86788620D01*
X126334815Y-86600000D01*
X126334815Y-86200000D01*
X126301659Y-86023790D01*
X126254420Y-85950379D01*
X126296618Y-85888620D01*
X126334815Y-85700000D01*
X126334815Y-85300000D01*
X126301659Y-85123790D01*
X126197519Y-84961953D01*
X126150500Y-84929826D01*
X126150500Y-84470000D01*
X126104790Y-84240199D01*
X126015547Y-84106636D01*
X126015634Y-84006420D01*
X125897820Y-83721288D01*
X125692707Y-83515817D01*
X126119262Y-83089262D01*
X126238596Y-82910668D01*
X126280500Y-82700000D01*
X126280500Y-80490500D01*
X127745185Y-80490500D01*
X127745185Y-81265000D01*
G36*
X123531232Y-86777651D02*
X123679276Y-86878805D01*
X123861966Y-86918436D01*
X124358150Y-87414620D01*
X124066420Y-87414366D01*
X123781288Y-87532180D01*
X123562946Y-87750141D01*
X123444635Y-88035067D01*
X123444366Y-88343580D01*
X123562180Y-88628712D01*
X123780141Y-88847054D01*
X124065067Y-88965365D01*
X124373580Y-88965634D01*
X124658712Y-88847820D01*
X124877054Y-88629859D01*
X124995365Y-88344933D01*
X124995620Y-88052090D01*
X125099500Y-88155970D01*
X125099500Y-95700264D01*
X124724618Y-95325382D01*
X124529802Y-95195210D01*
X124300000Y-95149499D01*
X124299995Y-95149500D01*
X123855020Y-95149500D01*
X123896618Y-95088620D01*
X123934815Y-94900000D01*
X123934815Y-94500000D01*
X123901659Y-94323790D01*
X123854420Y-94250379D01*
X123896618Y-94188620D01*
X123934815Y-94000000D01*
X123934815Y-93600000D01*
X123901659Y-93423790D01*
X123797519Y-93261953D01*
X123638620Y-93153382D01*
X123450000Y-93115185D01*
X122850000Y-93115185D01*
X122673790Y-93148341D01*
X122594287Y-93199500D01*
X122018735Y-93199500D01*
X121825564Y-93006329D01*
X121825634Y-92926420D01*
X121707820Y-92641288D01*
X121489859Y-92422946D01*
X121204933Y-92304635D01*
X120896420Y-92304366D01*
X120790500Y-92348131D01*
X120790500Y-91510000D01*
X120748596Y-91299333D01*
X120708951Y-91240000D01*
X120629263Y-91120738D01*
X119358524Y-89850000D01*
X121213287Y-87995238D01*
X121763466Y-88545417D01*
X121813790Y-88579802D01*
X121892525Y-88658537D01*
X121942180Y-88778712D01*
X122160141Y-88997054D01*
X122445067Y-89115365D01*
X122753580Y-89115634D01*
X123038712Y-88997820D01*
X123257054Y-88779859D01*
X123375365Y-88494933D01*
X123375634Y-88186420D01*
X123257820Y-87901288D01*
X123039859Y-87682946D01*
X122918612Y-87632600D01*
X122823143Y-87537131D01*
X122802651Y-87506232D01*
X122252472Y-86956053D01*
X122981053Y-86227472D01*
X123531232Y-86777651D01*
X123531232Y-86777651D01*
G37*
X123531232Y-86777651D02*
X123679276Y-86878805D01*
X123861966Y-86918436D01*
X124358150Y-87414620D01*
X124066420Y-87414366D01*
X123781288Y-87532180D01*
X123562946Y-87750141D01*
X123444635Y-88035067D01*
X123444366Y-88343580D01*
X123562180Y-88628712D01*
X123780141Y-88847054D01*
X124065067Y-88965365D01*
X124373580Y-88965634D01*
X124658712Y-88847820D01*
X124877054Y-88629859D01*
X124995365Y-88344933D01*
X124995620Y-88052090D01*
X125099500Y-88155970D01*
X125099500Y-95700264D01*
X124724618Y-95325382D01*
X124529802Y-95195210D01*
X124300000Y-95149499D01*
X124299995Y-95149500D01*
X123855020Y-95149500D01*
X123896618Y-95088620D01*
X123934815Y-94900000D01*
X123934815Y-94500000D01*
X123901659Y-94323790D01*
X123854420Y-94250379D01*
X123896618Y-94188620D01*
X123934815Y-94000000D01*
X123934815Y-93600000D01*
X123901659Y-93423790D01*
X123797519Y-93261953D01*
X123638620Y-93153382D01*
X123450000Y-93115185D01*
X122850000Y-93115185D01*
X122673790Y-93148341D01*
X122594287Y-93199500D01*
X122018735Y-93199500D01*
X121825564Y-93006329D01*
X121825634Y-92926420D01*
X121707820Y-92641288D01*
X121489859Y-92422946D01*
X121204933Y-92304635D01*
X120896420Y-92304366D01*
X120790500Y-92348131D01*
X120790500Y-91510000D01*
X120748596Y-91299333D01*
X120708951Y-91240000D01*
X120629263Y-91120738D01*
X119358524Y-89850000D01*
X121213287Y-87995238D01*
X121763466Y-88545417D01*
X121813790Y-88579802D01*
X121892525Y-88658537D01*
X121942180Y-88778712D01*
X122160141Y-88997054D01*
X122445067Y-89115365D01*
X122753580Y-89115634D01*
X123038712Y-88997820D01*
X123257054Y-88779859D01*
X123375365Y-88494933D01*
X123375634Y-88186420D01*
X123257820Y-87901288D01*
X123039859Y-87682946D01*
X122918612Y-87632600D01*
X122823143Y-87537131D01*
X122802651Y-87506232D01*
X122252472Y-86956053D01*
X122981053Y-86227472D01*
X123531232Y-86777651D01*
G36*
X132599500Y-92728642D02*
X132567946Y-92760141D01*
X132449635Y-93045067D01*
X132449571Y-93118808D01*
X132405210Y-93185198D01*
X132359499Y-93415000D01*
X132359500Y-93415005D01*
X132359500Y-93978531D01*
X132245956Y-93931500D01*
X132205875Y-93931500D01*
X132060500Y-94076875D01*
X132060500Y-92778643D01*
X132328712Y-92667820D01*
X132547054Y-92449859D01*
X132599500Y-92323554D01*
X132599500Y-92728642D01*
X132599500Y-92728642D01*
G37*
X132599500Y-92728642D02*
X132567946Y-92760141D01*
X132449635Y-93045067D01*
X132449571Y-93118808D01*
X132405210Y-93185198D01*
X132359499Y-93415000D01*
X132359500Y-93415005D01*
X132359500Y-93978531D01*
X132245956Y-93931500D01*
X132205875Y-93931500D01*
X132060500Y-94076875D01*
X132060500Y-92778643D01*
X132328712Y-92667820D01*
X132547054Y-92449859D01*
X132599500Y-92323554D01*
X132599500Y-92728642D01*
G36*
X146305185Y-81265000D02*
X146314500Y-81314505D01*
X146314500Y-81510895D01*
X146254635Y-81655067D01*
X146254366Y-81963580D01*
X146372180Y-82248712D01*
X146590141Y-82467054D01*
X146875067Y-82585365D01*
X147183580Y-82585634D01*
X147468712Y-82467820D01*
X147587747Y-82348993D01*
X147514635Y-82525067D01*
X147514366Y-82833580D01*
X147632180Y-83118712D01*
X147850141Y-83337054D01*
X148135067Y-83455365D01*
X148443580Y-83455634D01*
X148728712Y-83337820D01*
X148939500Y-83127400D01*
X148939500Y-85345209D01*
X148785830Y-85325185D01*
X148726108Y-85384908D01*
X148569108Y-85319877D01*
X148674815Y-85214170D01*
X148644262Y-84979697D01*
X148204768Y-84810815D01*
X147734100Y-84822976D01*
X147355738Y-84979697D01*
X147325185Y-85214170D01*
X147430892Y-85319877D01*
X147273892Y-85384908D01*
X147214170Y-85325185D01*
X146979697Y-85355738D01*
X146909815Y-85537597D01*
X146909815Y-83650000D01*
X146876659Y-83473790D01*
X146772519Y-83311953D01*
X146613620Y-83203382D01*
X146425000Y-83165185D01*
X145575000Y-83165185D01*
X145398790Y-83198341D01*
X145236953Y-83302481D01*
X145128382Y-83461380D01*
X145090185Y-83650000D01*
X145090185Y-85647332D01*
X145024670Y-85805110D01*
X145024331Y-86193188D01*
X145172529Y-86551854D01*
X145446702Y-86826506D01*
X145805110Y-86975330D01*
X146193188Y-86975669D01*
X146551854Y-86827471D01*
X146826506Y-86553298D01*
X146884334Y-86414033D01*
X146891500Y-86431333D01*
X146891500Y-86925625D01*
X147062375Y-87096500D01*
X147554031Y-87096500D01*
X147795232Y-87189185D01*
X148098500Y-87181349D01*
X148098500Y-87253500D01*
X148078500Y-87253500D01*
X148078500Y-87273500D01*
X147921500Y-87273500D01*
X147921500Y-87253500D01*
X147062375Y-87253500D01*
X146891500Y-87424375D01*
X146891500Y-88485957D01*
X146995557Y-88737172D01*
X147187829Y-88929444D01*
X147429387Y-89029500D01*
X139250005Y-89029500D01*
X139250000Y-89029499D01*
X139020198Y-89075210D01*
X138959700Y-89115634D01*
X138825382Y-89205382D01*
X138825380Y-89205385D01*
X136270500Y-91760264D01*
X136270500Y-91698736D01*
X139259387Y-88709848D01*
X139386380Y-88796618D01*
X139575000Y-88834815D01*
X140425000Y-88834815D01*
X140601210Y-88801659D01*
X140763047Y-88697519D01*
X140871618Y-88538620D01*
X140909815Y-88350000D01*
X140909815Y-86352668D01*
X140975330Y-86194890D01*
X140975331Y-86193188D01*
X141024331Y-86193188D01*
X141172529Y-86551854D01*
X141446702Y-86826506D01*
X141805110Y-86975330D01*
X142193188Y-86975669D01*
X142551854Y-86827471D01*
X142826506Y-86553298D01*
X142975330Y-86194890D01*
X142975331Y-86193188D01*
X143024331Y-86193188D01*
X143090185Y-86352567D01*
X143090185Y-88350000D01*
X143123341Y-88526210D01*
X143227481Y-88688047D01*
X143386380Y-88796618D01*
X143575000Y-88834815D01*
X144425000Y-88834815D01*
X144601210Y-88801659D01*
X144763047Y-88697519D01*
X144871618Y-88538620D01*
X144909815Y-88350000D01*
X144909815Y-86352668D01*
X144975330Y-86194890D01*
X144975669Y-85806812D01*
X144827471Y-85448146D01*
X144553298Y-85173494D01*
X144194890Y-85024670D01*
X143806812Y-85024331D01*
X143448146Y-85172529D01*
X143173494Y-85446702D01*
X143024670Y-85805110D01*
X143024331Y-86193188D01*
X142975331Y-86193188D01*
X142975669Y-85806812D01*
X142909815Y-85647433D01*
X142909815Y-83650000D01*
X142876659Y-83473790D01*
X142772519Y-83311953D01*
X142613620Y-83203382D01*
X142425000Y-83165185D01*
X141575000Y-83165185D01*
X141398790Y-83198341D01*
X141236953Y-83302481D01*
X141128382Y-83461380D01*
X141090185Y-83650000D01*
X141090185Y-85647332D01*
X141024670Y-85805110D01*
X141024331Y-86193188D01*
X140975331Y-86193188D01*
X140975669Y-85806812D01*
X140827471Y-85448146D01*
X140553298Y-85173494D01*
X140194890Y-85024670D01*
X139844871Y-85024364D01*
X140674615Y-84194620D01*
X140674618Y-84194618D01*
X140774334Y-84045382D01*
X140804790Y-83999802D01*
X140850501Y-83770000D01*
X140850500Y-83769995D01*
X140850500Y-82997102D01*
X140886380Y-83021618D01*
X141075000Y-83059815D01*
X141475000Y-83059815D01*
X141651210Y-83026659D01*
X141724621Y-82979420D01*
X141786380Y-83021618D01*
X141975000Y-83059815D01*
X142375000Y-83059815D01*
X142551210Y-83026659D01*
X142713047Y-82922519D01*
X142821618Y-82763620D01*
X142859815Y-82575000D01*
X142859815Y-81975000D01*
X142826659Y-81798790D01*
X142775500Y-81719287D01*
X142775500Y-81543736D01*
X142793671Y-81525564D01*
X142873580Y-81525634D01*
X143158712Y-81407820D01*
X143377054Y-81189859D01*
X143495365Y-80904933D01*
X143495634Y-80596420D01*
X143451869Y-80490500D01*
X146305185Y-80490500D01*
X146305185Y-81265000D01*
X146305185Y-81265000D01*
G37*
X146305185Y-81265000D02*
X146314500Y-81314505D01*
X146314500Y-81510895D01*
X146254635Y-81655067D01*
X146254366Y-81963580D01*
X146372180Y-82248712D01*
X146590141Y-82467054D01*
X146875067Y-82585365D01*
X147183580Y-82585634D01*
X147468712Y-82467820D01*
X147587747Y-82348993D01*
X147514635Y-82525067D01*
X147514366Y-82833580D01*
X147632180Y-83118712D01*
X147850141Y-83337054D01*
X148135067Y-83455365D01*
X148443580Y-83455634D01*
X148728712Y-83337820D01*
X148939500Y-83127400D01*
X148939500Y-85345209D01*
X148785830Y-85325185D01*
X148726108Y-85384908D01*
X148569108Y-85319877D01*
X148674815Y-85214170D01*
X148644262Y-84979697D01*
X148204768Y-84810815D01*
X147734100Y-84822976D01*
X147355738Y-84979697D01*
X147325185Y-85214170D01*
X147430892Y-85319877D01*
X147273892Y-85384908D01*
X147214170Y-85325185D01*
X146979697Y-85355738D01*
X146909815Y-85537597D01*
X146909815Y-83650000D01*
X146876659Y-83473790D01*
X146772519Y-83311953D01*
X146613620Y-83203382D01*
X146425000Y-83165185D01*
X145575000Y-83165185D01*
X145398790Y-83198341D01*
X145236953Y-83302481D01*
X145128382Y-83461380D01*
X145090185Y-83650000D01*
X145090185Y-85647332D01*
X145024670Y-85805110D01*
X145024331Y-86193188D01*
X145172529Y-86551854D01*
X145446702Y-86826506D01*
X145805110Y-86975330D01*
X146193188Y-86975669D01*
X146551854Y-86827471D01*
X146826506Y-86553298D01*
X146884334Y-86414033D01*
X146891500Y-86431333D01*
X146891500Y-86925625D01*
X147062375Y-87096500D01*
X147554031Y-87096500D01*
X147795232Y-87189185D01*
X148098500Y-87181349D01*
X148098500Y-87253500D01*
X148078500Y-87253500D01*
X148078500Y-87273500D01*
X147921500Y-87273500D01*
X147921500Y-87253500D01*
X147062375Y-87253500D01*
X146891500Y-87424375D01*
X146891500Y-88485957D01*
X146995557Y-88737172D01*
X147187829Y-88929444D01*
X147429387Y-89029500D01*
X139250005Y-89029500D01*
X139250000Y-89029499D01*
X139020198Y-89075210D01*
X138959700Y-89115634D01*
X138825382Y-89205382D01*
X138825380Y-89205385D01*
X136270500Y-91760264D01*
X136270500Y-91698736D01*
X139259387Y-88709848D01*
X139386380Y-88796618D01*
X139575000Y-88834815D01*
X140425000Y-88834815D01*
X140601210Y-88801659D01*
X140763047Y-88697519D01*
X140871618Y-88538620D01*
X140909815Y-88350000D01*
X140909815Y-86352668D01*
X140975330Y-86194890D01*
X140975331Y-86193188D01*
X141024331Y-86193188D01*
X141172529Y-86551854D01*
X141446702Y-86826506D01*
X141805110Y-86975330D01*
X142193188Y-86975669D01*
X142551854Y-86827471D01*
X142826506Y-86553298D01*
X142975330Y-86194890D01*
X142975331Y-86193188D01*
X143024331Y-86193188D01*
X143090185Y-86352567D01*
X143090185Y-88350000D01*
X143123341Y-88526210D01*
X143227481Y-88688047D01*
X143386380Y-88796618D01*
X143575000Y-88834815D01*
X144425000Y-88834815D01*
X144601210Y-88801659D01*
X144763047Y-88697519D01*
X144871618Y-88538620D01*
X144909815Y-88350000D01*
X144909815Y-86352668D01*
X144975330Y-86194890D01*
X144975669Y-85806812D01*
X144827471Y-85448146D01*
X144553298Y-85173494D01*
X144194890Y-85024670D01*
X143806812Y-85024331D01*
X143448146Y-85172529D01*
X143173494Y-85446702D01*
X143024670Y-85805110D01*
X143024331Y-86193188D01*
X142975331Y-86193188D01*
X142975669Y-85806812D01*
X142909815Y-85647433D01*
X142909815Y-83650000D01*
X142876659Y-83473790D01*
X142772519Y-83311953D01*
X142613620Y-83203382D01*
X142425000Y-83165185D01*
X141575000Y-83165185D01*
X141398790Y-83198341D01*
X141236953Y-83302481D01*
X141128382Y-83461380D01*
X141090185Y-83650000D01*
X141090185Y-85647332D01*
X141024670Y-85805110D01*
X141024331Y-86193188D01*
X140975331Y-86193188D01*
X140975669Y-85806812D01*
X140827471Y-85448146D01*
X140553298Y-85173494D01*
X140194890Y-85024670D01*
X139844871Y-85024364D01*
X140674615Y-84194620D01*
X140674618Y-84194618D01*
X140774334Y-84045382D01*
X140804790Y-83999802D01*
X140850501Y-83770000D01*
X140850500Y-83769995D01*
X140850500Y-82997102D01*
X140886380Y-83021618D01*
X141075000Y-83059815D01*
X141475000Y-83059815D01*
X141651210Y-83026659D01*
X141724621Y-82979420D01*
X141786380Y-83021618D01*
X141975000Y-83059815D01*
X142375000Y-83059815D01*
X142551210Y-83026659D01*
X142713047Y-82922519D01*
X142821618Y-82763620D01*
X142859815Y-82575000D01*
X142859815Y-81975000D01*
X142826659Y-81798790D01*
X142775500Y-81719287D01*
X142775500Y-81543736D01*
X142793671Y-81525564D01*
X142873580Y-81525634D01*
X143158712Y-81407820D01*
X143377054Y-81189859D01*
X143495365Y-80904933D01*
X143495634Y-80596420D01*
X143451869Y-80490500D01*
X146305185Y-80490500D01*
X146305185Y-81265000D01*
G36*
X137015185Y-81265000D02*
X137034500Y-81367651D01*
X137034500Y-81534978D01*
X136984635Y-81655067D01*
X136984366Y-81963580D01*
X137102180Y-82248712D01*
X137320141Y-82467054D01*
X137605067Y-82585365D01*
X137913580Y-82585634D01*
X138198712Y-82467820D01*
X138300667Y-82366043D01*
X138234635Y-82525067D01*
X138234366Y-82833580D01*
X138352180Y-83118712D01*
X138398572Y-83165185D01*
X137575000Y-83165185D01*
X137398790Y-83198341D01*
X137236953Y-83302481D01*
X137128382Y-83461380D01*
X137090185Y-83650000D01*
X137090185Y-85647332D01*
X137024670Y-85805110D01*
X137024331Y-86193188D01*
X137172529Y-86551854D01*
X137446702Y-86826506D01*
X137805110Y-86975330D01*
X138193188Y-86975669D01*
X138409500Y-86886291D01*
X138409500Y-87861265D01*
X135490000Y-90780765D01*
X133610500Y-88901264D01*
X133610500Y-86894521D01*
X133805110Y-86975330D01*
X134193188Y-86975669D01*
X134551854Y-86827471D01*
X134826506Y-86553298D01*
X134975330Y-86194890D01*
X134975331Y-86193188D01*
X135024331Y-86193188D01*
X135090185Y-86352567D01*
X135090185Y-88350000D01*
X135123341Y-88526210D01*
X135227481Y-88688047D01*
X135386380Y-88796618D01*
X135575000Y-88834815D01*
X136425000Y-88834815D01*
X136601210Y-88801659D01*
X136763047Y-88697519D01*
X136871618Y-88538620D01*
X136909815Y-88350000D01*
X136909815Y-86352668D01*
X136975330Y-86194890D01*
X136975669Y-85806812D01*
X136827471Y-85448146D01*
X136553298Y-85173494D01*
X136194890Y-85024670D01*
X135806812Y-85024331D01*
X135448146Y-85172529D01*
X135173494Y-85446702D01*
X135024670Y-85805110D01*
X135024331Y-86193188D01*
X134975331Y-86193188D01*
X134975669Y-85806812D01*
X134909815Y-85647433D01*
X134909815Y-83650000D01*
X134876659Y-83473790D01*
X134772519Y-83311953D01*
X134613620Y-83203382D01*
X134425000Y-83165185D01*
X133575000Y-83165185D01*
X133398790Y-83198341D01*
X133236953Y-83302481D01*
X133133348Y-83454112D01*
X132749948Y-83070713D01*
X132851210Y-83051659D01*
X132924621Y-83004420D01*
X132986380Y-83046618D01*
X133175000Y-83084815D01*
X133575000Y-83084815D01*
X133751210Y-83051659D01*
X133913047Y-82947519D01*
X134021618Y-82788620D01*
X134059815Y-82600000D01*
X134059815Y-82000000D01*
X134026659Y-81823790D01*
X133975500Y-81744287D01*
X133975500Y-81371096D01*
X134157054Y-81189859D01*
X134275365Y-80904933D01*
X134275634Y-80596420D01*
X134231869Y-80490500D01*
X137015185Y-80490500D01*
X137015185Y-81265000D01*
X137015185Y-81265000D01*
G37*
X137015185Y-81265000D02*
X137034500Y-81367651D01*
X137034500Y-81534978D01*
X136984635Y-81655067D01*
X136984366Y-81963580D01*
X137102180Y-82248712D01*
X137320141Y-82467054D01*
X137605067Y-82585365D01*
X137913580Y-82585634D01*
X138198712Y-82467820D01*
X138300667Y-82366043D01*
X138234635Y-82525067D01*
X138234366Y-82833580D01*
X138352180Y-83118712D01*
X138398572Y-83165185D01*
X137575000Y-83165185D01*
X137398790Y-83198341D01*
X137236953Y-83302481D01*
X137128382Y-83461380D01*
X137090185Y-83650000D01*
X137090185Y-85647332D01*
X137024670Y-85805110D01*
X137024331Y-86193188D01*
X137172529Y-86551854D01*
X137446702Y-86826506D01*
X137805110Y-86975330D01*
X138193188Y-86975669D01*
X138409500Y-86886291D01*
X138409500Y-87861265D01*
X135490000Y-90780765D01*
X133610500Y-88901264D01*
X133610500Y-86894521D01*
X133805110Y-86975330D01*
X134193188Y-86975669D01*
X134551854Y-86827471D01*
X134826506Y-86553298D01*
X134975330Y-86194890D01*
X134975331Y-86193188D01*
X135024331Y-86193188D01*
X135090185Y-86352567D01*
X135090185Y-88350000D01*
X135123341Y-88526210D01*
X135227481Y-88688047D01*
X135386380Y-88796618D01*
X135575000Y-88834815D01*
X136425000Y-88834815D01*
X136601210Y-88801659D01*
X136763047Y-88697519D01*
X136871618Y-88538620D01*
X136909815Y-88350000D01*
X136909815Y-86352668D01*
X136975330Y-86194890D01*
X136975669Y-85806812D01*
X136827471Y-85448146D01*
X136553298Y-85173494D01*
X136194890Y-85024670D01*
X135806812Y-85024331D01*
X135448146Y-85172529D01*
X135173494Y-85446702D01*
X135024670Y-85805110D01*
X135024331Y-86193188D01*
X134975331Y-86193188D01*
X134975669Y-85806812D01*
X134909815Y-85647433D01*
X134909815Y-83650000D01*
X134876659Y-83473790D01*
X134772519Y-83311953D01*
X134613620Y-83203382D01*
X134425000Y-83165185D01*
X133575000Y-83165185D01*
X133398790Y-83198341D01*
X133236953Y-83302481D01*
X133133348Y-83454112D01*
X132749948Y-83070713D01*
X132851210Y-83051659D01*
X132924621Y-83004420D01*
X132986380Y-83046618D01*
X133175000Y-83084815D01*
X133575000Y-83084815D01*
X133751210Y-83051659D01*
X133913047Y-82947519D01*
X134021618Y-82788620D01*
X134059815Y-82600000D01*
X134059815Y-82000000D01*
X134026659Y-81823790D01*
X133975500Y-81744287D01*
X133975500Y-81371096D01*
X134157054Y-81189859D01*
X134275365Y-80904933D01*
X134275634Y-80596420D01*
X134231869Y-80490500D01*
X137015185Y-80490500D01*
X137015185Y-81265000D01*
G36*
X151860738Y-83029262D02*
X154007262Y-85175787D01*
X153454583Y-85728466D01*
X153409412Y-85794576D01*
X153341463Y-85862525D01*
X153221288Y-85912180D01*
X153002946Y-86130141D01*
X152884635Y-86415067D01*
X152884366Y-86723580D01*
X153002180Y-87008712D01*
X153220141Y-87227054D01*
X153505067Y-87345365D01*
X153642702Y-87345485D01*
X153481288Y-87412180D01*
X153262946Y-87630141D01*
X153144635Y-87915067D01*
X153144366Y-88223580D01*
X153262180Y-88508712D01*
X153480141Y-88727054D01*
X153765067Y-88845365D01*
X154062906Y-88845625D01*
X152569030Y-90339500D01*
X139630005Y-90339500D01*
X139630000Y-90339499D01*
X139400198Y-90385210D01*
X139363394Y-90409802D01*
X139230911Y-90498324D01*
X139498735Y-90230500D01*
X148949995Y-90230500D01*
X148950000Y-90230501D01*
X149179802Y-90184790D01*
X149374618Y-90054618D01*
X149964618Y-89464618D01*
X150094790Y-89269802D01*
X150140501Y-89040000D01*
X150140500Y-89039995D01*
X150140500Y-83102828D01*
X150175000Y-83109815D01*
X150575000Y-83109815D01*
X150751210Y-83076659D01*
X150824621Y-83029420D01*
X150886380Y-83071618D01*
X151075000Y-83109815D01*
X151475000Y-83109815D01*
X151651210Y-83076659D01*
X151813047Y-82972519D01*
X151817990Y-82965285D01*
X151860738Y-83029262D01*
X151860738Y-83029262D01*
G37*
X151860738Y-83029262D02*
X154007262Y-85175787D01*
X153454583Y-85728466D01*
X153409412Y-85794576D01*
X153341463Y-85862525D01*
X153221288Y-85912180D01*
X153002946Y-86130141D01*
X152884635Y-86415067D01*
X152884366Y-86723580D01*
X153002180Y-87008712D01*
X153220141Y-87227054D01*
X153505067Y-87345365D01*
X153642702Y-87345485D01*
X153481288Y-87412180D01*
X153262946Y-87630141D01*
X153144635Y-87915067D01*
X153144366Y-88223580D01*
X153262180Y-88508712D01*
X153480141Y-88727054D01*
X153765067Y-88845365D01*
X154062906Y-88845625D01*
X152569030Y-90339500D01*
X139630005Y-90339500D01*
X139630000Y-90339499D01*
X139400198Y-90385210D01*
X139363394Y-90409802D01*
X139230911Y-90498324D01*
X139498735Y-90230500D01*
X148949995Y-90230500D01*
X148950000Y-90230501D01*
X149179802Y-90184790D01*
X149374618Y-90054618D01*
X149964618Y-89464618D01*
X150094790Y-89269802D01*
X150140501Y-89040000D01*
X150140500Y-89039995D01*
X150140500Y-83102828D01*
X150175000Y-83109815D01*
X150575000Y-83109815D01*
X150751210Y-83076659D01*
X150824621Y-83029420D01*
X150886380Y-83071618D01*
X151075000Y-83109815D01*
X151475000Y-83109815D01*
X151651210Y-83076659D01*
X151813047Y-82972519D01*
X151817990Y-82965285D01*
X151860738Y-83029262D01*
M02*
