G04 #@! TF.FileFunction,Paste,Top*
%FSLAX46Y46*%
G04 Gerber Fmt 4.6, Leading zero omitted, Abs format (unit mm)*
G04 Created by KiCad (PCBNEW 4.0.7-e2-6376~58~ubuntu16.04.1) date Tue Jul 31 10:53:18 2018*
%MOMM*%
%LPD*%
G01*
G04 APERTURE LIST*
%ADD10C,0.100000*%
%ADD11R,0.500000X1.250000*%
%ADD12R,0.500000X0.500000*%
%ADD13R,0.250000X0.250000*%
%ADD14R,1.250000X0.500000*%
%ADD15R,0.600000X0.500000*%
%ADD16R,0.700000X0.600000*%
%ADD17R,0.600000X0.400000*%
G04 APERTURE END LIST*
D10*
D11*
X132230000Y-80540000D03*
X129730000Y-80540000D03*
X127230000Y-80540000D03*
X141510000Y-80570000D03*
X139010000Y-80570000D03*
X136510000Y-80570000D03*
X150780000Y-80550000D03*
X148280000Y-80550000D03*
X145780000Y-80550000D03*
X145790000Y-113450000D03*
X148290000Y-113450000D03*
X150790000Y-113450000D03*
X127220000Y-113390000D03*
X129720000Y-113390000D03*
X132220000Y-113390000D03*
D12*
X139340000Y-97560000D03*
X138540000Y-97560000D03*
X137740000Y-97560000D03*
X136940000Y-97560000D03*
X136140000Y-97560000D03*
X136140000Y-96760000D03*
X136140000Y-95960000D03*
X136940000Y-95960000D03*
X137740000Y-95960000D03*
X138540000Y-95960000D03*
X139340000Y-95960000D03*
X139340000Y-96760000D03*
D13*
X139640000Y-97435000D03*
D10*
G36*
X157756485Y-88132602D02*
X156872602Y-89016485D01*
X156519049Y-88662932D01*
X157402932Y-87779049D01*
X157756485Y-88132602D01*
X157756485Y-88132602D01*
G37*
G36*
X155988718Y-86364835D02*
X155104835Y-87248718D01*
X154751282Y-86895165D01*
X155635165Y-86011282D01*
X155988718Y-86364835D01*
X155988718Y-86364835D01*
G37*
G36*
X154220951Y-84597068D02*
X153337068Y-85480951D01*
X152983515Y-85127398D01*
X153867398Y-84243515D01*
X154220951Y-84597068D01*
X154220951Y-84597068D01*
G37*
D14*
X157120000Y-99500000D03*
X157120000Y-97000000D03*
X157120000Y-94500000D03*
X120860000Y-94510000D03*
X120860000Y-97010000D03*
X120860000Y-99510000D03*
D11*
X136500000Y-113450000D03*
X139000000Y-113450000D03*
X141500000Y-113450000D03*
D10*
G36*
X120243515Y-105927398D02*
X121127398Y-105043515D01*
X121480951Y-105397068D01*
X120597068Y-106280951D01*
X120243515Y-105927398D01*
X120243515Y-105927398D01*
G37*
G36*
X122011282Y-107695165D02*
X122895165Y-106811282D01*
X123248718Y-107164835D01*
X122364835Y-108048718D01*
X122011282Y-107695165D01*
X122011282Y-107695165D01*
G37*
G36*
X123779049Y-109462932D02*
X124662932Y-108579049D01*
X125016485Y-108932602D01*
X124132602Y-109816485D01*
X123779049Y-109462932D01*
X123779049Y-109462932D01*
G37*
G36*
X153887398Y-109786485D02*
X153003515Y-108902602D01*
X153357068Y-108549049D01*
X154240951Y-109432932D01*
X153887398Y-109786485D01*
X153887398Y-109786485D01*
G37*
G36*
X155655165Y-108018718D02*
X154771282Y-107134835D01*
X155124835Y-106781282D01*
X156008718Y-107665165D01*
X155655165Y-108018718D01*
X155655165Y-108018718D01*
G37*
G36*
X157422932Y-106250951D02*
X156539049Y-105367068D01*
X156892602Y-105013515D01*
X157776485Y-105897398D01*
X157422932Y-106250951D01*
X157422932Y-106250951D01*
G37*
G36*
X124152602Y-84233515D02*
X125036485Y-85117398D01*
X124682932Y-85470951D01*
X123799049Y-84587068D01*
X124152602Y-84233515D01*
X124152602Y-84233515D01*
G37*
G36*
X122384835Y-86001282D02*
X123268718Y-86885165D01*
X122915165Y-87238718D01*
X122031282Y-86354835D01*
X122384835Y-86001282D01*
X122384835Y-86001282D01*
G37*
G36*
X120617068Y-87769049D02*
X121500951Y-88652932D01*
X121147398Y-89006485D01*
X120263515Y-88122602D01*
X120617068Y-87769049D01*
X120617068Y-87769049D01*
G37*
D15*
X139350000Y-99650000D03*
X140450000Y-99650000D03*
X140650000Y-93675000D03*
X139550000Y-93675000D03*
D16*
X151025000Y-96400000D03*
X151025000Y-97500000D03*
D17*
X134150000Y-97200000D03*
X134150000Y-96300000D03*
M02*
