G04 #@! TF.FileFunction,Legend,Top*
%FSLAX46Y46*%
G04 Gerber Fmt 4.6, Leading zero omitted, Abs format (unit mm)*
G04 Created by KiCad (PCBNEW 4.0.7-e2-6376~58~ubuntu16.04.1) date Thu Aug  2 19:22:52 2018*
%MOMM*%
%LPD*%
G01*
G04 APERTURE LIST*
%ADD10C,0.100000*%
%ADD11C,0.075000*%
%ADD12C,0.120000*%
%ADD13C,0.150000*%
G04 APERTURE END LIST*
D10*
D11*
X112450000Y-63760714D02*
X112621429Y-63760714D01*
X112535715Y-64060714D02*
X112535715Y-63760714D01*
X112764286Y-64060714D02*
X112735714Y-64046429D01*
X112721429Y-64032143D01*
X112707143Y-64003571D01*
X112707143Y-63917857D01*
X112721429Y-63889286D01*
X112735714Y-63875000D01*
X112764286Y-63860714D01*
X112807143Y-63860714D01*
X112835714Y-63875000D01*
X112850000Y-63889286D01*
X112864286Y-63917857D01*
X112864286Y-64003571D01*
X112850000Y-64032143D01*
X112835714Y-64046429D01*
X112807143Y-64060714D01*
X112764286Y-64060714D01*
X113092858Y-63903571D02*
X112992858Y-63903571D01*
X112992858Y-64060714D02*
X112992858Y-63760714D01*
X113135715Y-63760714D01*
X102450000Y-63760714D02*
X102621429Y-63760714D01*
X102535715Y-64060714D02*
X102535715Y-63760714D01*
X102764286Y-64060714D02*
X102735714Y-64046429D01*
X102721429Y-64032143D01*
X102707143Y-64003571D01*
X102707143Y-63917857D01*
X102721429Y-63889286D01*
X102735714Y-63875000D01*
X102764286Y-63860714D01*
X102807143Y-63860714D01*
X102835714Y-63875000D01*
X102850000Y-63889286D01*
X102864286Y-63917857D01*
X102864286Y-64003571D01*
X102850000Y-64032143D01*
X102835714Y-64046429D01*
X102807143Y-64060714D01*
X102764286Y-64060714D01*
X103092858Y-63903571D02*
X102992858Y-63903571D01*
X102992858Y-64060714D02*
X102992858Y-63760714D01*
X103135715Y-63760714D01*
X92450000Y-63760714D02*
X92621429Y-63760714D01*
X92535715Y-64060714D02*
X92535715Y-63760714D01*
X92764286Y-64060714D02*
X92735714Y-64046429D01*
X92721429Y-64032143D01*
X92707143Y-64003571D01*
X92707143Y-63917857D01*
X92721429Y-63889286D01*
X92735714Y-63875000D01*
X92764286Y-63860714D01*
X92807143Y-63860714D01*
X92835714Y-63875000D01*
X92850000Y-63889286D01*
X92864286Y-63917857D01*
X92864286Y-64003571D01*
X92850000Y-64032143D01*
X92835714Y-64046429D01*
X92807143Y-64060714D01*
X92764286Y-64060714D01*
X93092858Y-63903571D02*
X92992858Y-63903571D01*
X92992858Y-64060714D02*
X92992858Y-63760714D01*
X93135715Y-63760714D01*
X82450000Y-63760714D02*
X82621429Y-63760714D01*
X82535715Y-64060714D02*
X82535715Y-63760714D01*
X82764286Y-64060714D02*
X82735714Y-64046429D01*
X82721429Y-64032143D01*
X82707143Y-64003571D01*
X82707143Y-63917857D01*
X82721429Y-63889286D01*
X82735714Y-63875000D01*
X82764286Y-63860714D01*
X82807143Y-63860714D01*
X82835714Y-63875000D01*
X82850000Y-63889286D01*
X82864286Y-63917857D01*
X82864286Y-64003571D01*
X82850000Y-64032143D01*
X82835714Y-64046429D01*
X82807143Y-64060714D01*
X82764286Y-64060714D01*
X83092858Y-63903571D02*
X82992858Y-63903571D01*
X82992858Y-64060714D02*
X82992858Y-63760714D01*
X83135715Y-63760714D01*
X72450000Y-63760714D02*
X72621429Y-63760714D01*
X72535715Y-64060714D02*
X72535715Y-63760714D01*
X72764286Y-64060714D02*
X72735714Y-64046429D01*
X72721429Y-64032143D01*
X72707143Y-64003571D01*
X72707143Y-63917857D01*
X72721429Y-63889286D01*
X72735714Y-63875000D01*
X72764286Y-63860714D01*
X72807143Y-63860714D01*
X72835714Y-63875000D01*
X72850000Y-63889286D01*
X72864286Y-63917857D01*
X72864286Y-64003571D01*
X72850000Y-64032143D01*
X72835714Y-64046429D01*
X72807143Y-64060714D01*
X72764286Y-64060714D01*
X73092858Y-63903571D02*
X72992858Y-63903571D01*
X72992858Y-64060714D02*
X72992858Y-63760714D01*
X73135715Y-63760714D01*
X112450000Y-55760714D02*
X112621429Y-55760714D01*
X112535715Y-56060714D02*
X112535715Y-55760714D01*
X112764286Y-56060714D02*
X112735714Y-56046429D01*
X112721429Y-56032143D01*
X112707143Y-56003571D01*
X112707143Y-55917857D01*
X112721429Y-55889286D01*
X112735714Y-55875000D01*
X112764286Y-55860714D01*
X112807143Y-55860714D01*
X112835714Y-55875000D01*
X112850000Y-55889286D01*
X112864286Y-55917857D01*
X112864286Y-56003571D01*
X112850000Y-56032143D01*
X112835714Y-56046429D01*
X112807143Y-56060714D01*
X112764286Y-56060714D01*
X113092858Y-55903571D02*
X112992858Y-55903571D01*
X112992858Y-56060714D02*
X112992858Y-55760714D01*
X113135715Y-55760714D01*
X102450000Y-55760714D02*
X102621429Y-55760714D01*
X102535715Y-56060714D02*
X102535715Y-55760714D01*
X102764286Y-56060714D02*
X102735714Y-56046429D01*
X102721429Y-56032143D01*
X102707143Y-56003571D01*
X102707143Y-55917857D01*
X102721429Y-55889286D01*
X102735714Y-55875000D01*
X102764286Y-55860714D01*
X102807143Y-55860714D01*
X102835714Y-55875000D01*
X102850000Y-55889286D01*
X102864286Y-55917857D01*
X102864286Y-56003571D01*
X102850000Y-56032143D01*
X102835714Y-56046429D01*
X102807143Y-56060714D01*
X102764286Y-56060714D01*
X103092858Y-55903571D02*
X102992858Y-55903571D01*
X102992858Y-56060714D02*
X102992858Y-55760714D01*
X103135715Y-55760714D01*
X92450000Y-55760714D02*
X92621429Y-55760714D01*
X92535715Y-56060714D02*
X92535715Y-55760714D01*
X92764286Y-56060714D02*
X92735714Y-56046429D01*
X92721429Y-56032143D01*
X92707143Y-56003571D01*
X92707143Y-55917857D01*
X92721429Y-55889286D01*
X92735714Y-55875000D01*
X92764286Y-55860714D01*
X92807143Y-55860714D01*
X92835714Y-55875000D01*
X92850000Y-55889286D01*
X92864286Y-55917857D01*
X92864286Y-56003571D01*
X92850000Y-56032143D01*
X92835714Y-56046429D01*
X92807143Y-56060714D01*
X92764286Y-56060714D01*
X93092858Y-55903571D02*
X92992858Y-55903571D01*
X92992858Y-56060714D02*
X92992858Y-55760714D01*
X93135715Y-55760714D01*
X82450000Y-55760714D02*
X82621429Y-55760714D01*
X82535715Y-56060714D02*
X82535715Y-55760714D01*
X82764286Y-56060714D02*
X82735714Y-56046429D01*
X82721429Y-56032143D01*
X82707143Y-56003571D01*
X82707143Y-55917857D01*
X82721429Y-55889286D01*
X82735714Y-55875000D01*
X82764286Y-55860714D01*
X82807143Y-55860714D01*
X82835714Y-55875000D01*
X82850000Y-55889286D01*
X82864286Y-55917857D01*
X82864286Y-56003571D01*
X82850000Y-56032143D01*
X82835714Y-56046429D01*
X82807143Y-56060714D01*
X82764286Y-56060714D01*
X83092858Y-55903571D02*
X82992858Y-55903571D01*
X82992858Y-56060714D02*
X82992858Y-55760714D01*
X83135715Y-55760714D01*
X72450000Y-55760714D02*
X72621429Y-55760714D01*
X72535715Y-56060714D02*
X72535715Y-55760714D01*
X72764286Y-56060714D02*
X72735714Y-56046429D01*
X72721429Y-56032143D01*
X72707143Y-56003571D01*
X72707143Y-55917857D01*
X72721429Y-55889286D01*
X72735714Y-55875000D01*
X72764286Y-55860714D01*
X72807143Y-55860714D01*
X72835714Y-55875000D01*
X72850000Y-55889286D01*
X72864286Y-55917857D01*
X72864286Y-56003571D01*
X72850000Y-56032143D01*
X72835714Y-56046429D01*
X72807143Y-56060714D01*
X72764286Y-56060714D01*
X73092858Y-55903571D02*
X72992858Y-55903571D01*
X72992858Y-56060714D02*
X72992858Y-55760714D01*
X73135715Y-55760714D01*
X112450000Y-47760714D02*
X112621429Y-47760714D01*
X112535715Y-48060714D02*
X112535715Y-47760714D01*
X112764286Y-48060714D02*
X112735714Y-48046429D01*
X112721429Y-48032143D01*
X112707143Y-48003571D01*
X112707143Y-47917857D01*
X112721429Y-47889286D01*
X112735714Y-47875000D01*
X112764286Y-47860714D01*
X112807143Y-47860714D01*
X112835714Y-47875000D01*
X112850000Y-47889286D01*
X112864286Y-47917857D01*
X112864286Y-48003571D01*
X112850000Y-48032143D01*
X112835714Y-48046429D01*
X112807143Y-48060714D01*
X112764286Y-48060714D01*
X113092858Y-47903571D02*
X112992858Y-47903571D01*
X112992858Y-48060714D02*
X112992858Y-47760714D01*
X113135715Y-47760714D01*
X102450000Y-47760714D02*
X102621429Y-47760714D01*
X102535715Y-48060714D02*
X102535715Y-47760714D01*
X102764286Y-48060714D02*
X102735714Y-48046429D01*
X102721429Y-48032143D01*
X102707143Y-48003571D01*
X102707143Y-47917857D01*
X102721429Y-47889286D01*
X102735714Y-47875000D01*
X102764286Y-47860714D01*
X102807143Y-47860714D01*
X102835714Y-47875000D01*
X102850000Y-47889286D01*
X102864286Y-47917857D01*
X102864286Y-48003571D01*
X102850000Y-48032143D01*
X102835714Y-48046429D01*
X102807143Y-48060714D01*
X102764286Y-48060714D01*
X103092858Y-47903571D02*
X102992858Y-47903571D01*
X102992858Y-48060714D02*
X102992858Y-47760714D01*
X103135715Y-47760714D01*
X92450000Y-47760714D02*
X92621429Y-47760714D01*
X92535715Y-48060714D02*
X92535715Y-47760714D01*
X92764286Y-48060714D02*
X92735714Y-48046429D01*
X92721429Y-48032143D01*
X92707143Y-48003571D01*
X92707143Y-47917857D01*
X92721429Y-47889286D01*
X92735714Y-47875000D01*
X92764286Y-47860714D01*
X92807143Y-47860714D01*
X92835714Y-47875000D01*
X92850000Y-47889286D01*
X92864286Y-47917857D01*
X92864286Y-48003571D01*
X92850000Y-48032143D01*
X92835714Y-48046429D01*
X92807143Y-48060714D01*
X92764286Y-48060714D01*
X93092858Y-47903571D02*
X92992858Y-47903571D01*
X92992858Y-48060714D02*
X92992858Y-47760714D01*
X93135715Y-47760714D01*
X82450000Y-47760714D02*
X82621429Y-47760714D01*
X82535715Y-48060714D02*
X82535715Y-47760714D01*
X82764286Y-48060714D02*
X82735714Y-48046429D01*
X82721429Y-48032143D01*
X82707143Y-48003571D01*
X82707143Y-47917857D01*
X82721429Y-47889286D01*
X82735714Y-47875000D01*
X82764286Y-47860714D01*
X82807143Y-47860714D01*
X82835714Y-47875000D01*
X82850000Y-47889286D01*
X82864286Y-47917857D01*
X82864286Y-48003571D01*
X82850000Y-48032143D01*
X82835714Y-48046429D01*
X82807143Y-48060714D01*
X82764286Y-48060714D01*
X83092858Y-47903571D02*
X82992858Y-47903571D01*
X82992858Y-48060714D02*
X82992858Y-47760714D01*
X83135715Y-47760714D01*
X72450000Y-47760714D02*
X72621429Y-47760714D01*
X72535715Y-48060714D02*
X72535715Y-47760714D01*
X72764286Y-48060714D02*
X72735714Y-48046429D01*
X72721429Y-48032143D01*
X72707143Y-48003571D01*
X72707143Y-47917857D01*
X72721429Y-47889286D01*
X72735714Y-47875000D01*
X72764286Y-47860714D01*
X72807143Y-47860714D01*
X72835714Y-47875000D01*
X72850000Y-47889286D01*
X72864286Y-47917857D01*
X72864286Y-48003571D01*
X72850000Y-48032143D01*
X72835714Y-48046429D01*
X72807143Y-48060714D01*
X72764286Y-48060714D01*
X73092858Y-47903571D02*
X72992858Y-47903571D01*
X72992858Y-48060714D02*
X72992858Y-47760714D01*
X73135715Y-47760714D01*
D12*
X119545000Y-65250000D02*
X119545000Y-64750000D01*
X118605000Y-64750000D02*
X118605000Y-65250000D01*
X109545000Y-65250000D02*
X109545000Y-64750000D01*
X108605000Y-64750000D02*
X108605000Y-65250000D01*
X99545000Y-65250000D02*
X99545000Y-64750000D01*
X98605000Y-64750000D02*
X98605000Y-65250000D01*
X89545000Y-65250000D02*
X89545000Y-64750000D01*
X88605000Y-64750000D02*
X88605000Y-65250000D01*
X79545000Y-65250000D02*
X79545000Y-64750000D01*
X78605000Y-64750000D02*
X78605000Y-65250000D01*
X119545000Y-57250000D02*
X119545000Y-56750000D01*
X118605000Y-56750000D02*
X118605000Y-57250000D01*
X109545000Y-57250000D02*
X109545000Y-56750000D01*
X108605000Y-56750000D02*
X108605000Y-57250000D01*
X99545000Y-57250000D02*
X99545000Y-56750000D01*
X98605000Y-56750000D02*
X98605000Y-57250000D01*
X89545000Y-57250000D02*
X89545000Y-56750000D01*
X88605000Y-56750000D02*
X88605000Y-57250000D01*
X79545000Y-57250000D02*
X79545000Y-56750000D01*
X78605000Y-56750000D02*
X78605000Y-57250000D01*
X119545000Y-49250000D02*
X119545000Y-48750000D01*
X118605000Y-48750000D02*
X118605000Y-49250000D01*
X109545000Y-49250000D02*
X109545000Y-48750000D01*
X108605000Y-48750000D02*
X108605000Y-49250000D01*
X99545000Y-49250000D02*
X99545000Y-48750000D01*
X98605000Y-48750000D02*
X98605000Y-49250000D01*
X89545000Y-49250000D02*
X89545000Y-48750000D01*
X88605000Y-48750000D02*
X88605000Y-49250000D01*
D13*
X117977475Y-67550000D02*
G75*
G03X117977475Y-67550000I-127475J0D01*
G01*
X117050000Y-67550000D02*
X113050000Y-67550000D01*
X113050000Y-67550000D02*
X113050000Y-64950000D01*
X113050000Y-64950000D02*
X117850000Y-64950000D01*
X117850000Y-64950000D02*
X117850000Y-67550000D01*
X117850000Y-67550000D02*
X117050000Y-67550000D01*
X107977475Y-67550000D02*
G75*
G03X107977475Y-67550000I-127475J0D01*
G01*
X107050000Y-67550000D02*
X103050000Y-67550000D01*
X103050000Y-67550000D02*
X103050000Y-64950000D01*
X103050000Y-64950000D02*
X107850000Y-64950000D01*
X107850000Y-64950000D02*
X107850000Y-67550000D01*
X107850000Y-67550000D02*
X107050000Y-67550000D01*
X97977475Y-67550000D02*
G75*
G03X97977475Y-67550000I-127475J0D01*
G01*
X97050000Y-67550000D02*
X93050000Y-67550000D01*
X93050000Y-67550000D02*
X93050000Y-64950000D01*
X93050000Y-64950000D02*
X97850000Y-64950000D01*
X97850000Y-64950000D02*
X97850000Y-67550000D01*
X97850000Y-67550000D02*
X97050000Y-67550000D01*
X87977475Y-67550000D02*
G75*
G03X87977475Y-67550000I-127475J0D01*
G01*
X87050000Y-67550000D02*
X83050000Y-67550000D01*
X83050000Y-67550000D02*
X83050000Y-64950000D01*
X83050000Y-64950000D02*
X87850000Y-64950000D01*
X87850000Y-64950000D02*
X87850000Y-67550000D01*
X87850000Y-67550000D02*
X87050000Y-67550000D01*
X77977475Y-67550000D02*
G75*
G03X77977475Y-67550000I-127475J0D01*
G01*
X77050000Y-67550000D02*
X73050000Y-67550000D01*
X73050000Y-67550000D02*
X73050000Y-64950000D01*
X73050000Y-64950000D02*
X77850000Y-64950000D01*
X77850000Y-64950000D02*
X77850000Y-67550000D01*
X77850000Y-67550000D02*
X77050000Y-67550000D01*
X117977475Y-59550000D02*
G75*
G03X117977475Y-59550000I-127475J0D01*
G01*
X117050000Y-59550000D02*
X113050000Y-59550000D01*
X113050000Y-59550000D02*
X113050000Y-56950000D01*
X113050000Y-56950000D02*
X117850000Y-56950000D01*
X117850000Y-56950000D02*
X117850000Y-59550000D01*
X117850000Y-59550000D02*
X117050000Y-59550000D01*
X107977475Y-59550000D02*
G75*
G03X107977475Y-59550000I-127475J0D01*
G01*
X107050000Y-59550000D02*
X103050000Y-59550000D01*
X103050000Y-59550000D02*
X103050000Y-56950000D01*
X103050000Y-56950000D02*
X107850000Y-56950000D01*
X107850000Y-56950000D02*
X107850000Y-59550000D01*
X107850000Y-59550000D02*
X107050000Y-59550000D01*
X97977475Y-59550000D02*
G75*
G03X97977475Y-59550000I-127475J0D01*
G01*
X97050000Y-59550000D02*
X93050000Y-59550000D01*
X93050000Y-59550000D02*
X93050000Y-56950000D01*
X93050000Y-56950000D02*
X97850000Y-56950000D01*
X97850000Y-56950000D02*
X97850000Y-59550000D01*
X97850000Y-59550000D02*
X97050000Y-59550000D01*
X87977475Y-59550000D02*
G75*
G03X87977475Y-59550000I-127475J0D01*
G01*
X87050000Y-59550000D02*
X83050000Y-59550000D01*
X83050000Y-59550000D02*
X83050000Y-56950000D01*
X83050000Y-56950000D02*
X87850000Y-56950000D01*
X87850000Y-56950000D02*
X87850000Y-59550000D01*
X87850000Y-59550000D02*
X87050000Y-59550000D01*
X77977475Y-59550000D02*
G75*
G03X77977475Y-59550000I-127475J0D01*
G01*
X77050000Y-59550000D02*
X73050000Y-59550000D01*
X73050000Y-59550000D02*
X73050000Y-56950000D01*
X73050000Y-56950000D02*
X77850000Y-56950000D01*
X77850000Y-56950000D02*
X77850000Y-59550000D01*
X77850000Y-59550000D02*
X77050000Y-59550000D01*
X117977475Y-51550000D02*
G75*
G03X117977475Y-51550000I-127475J0D01*
G01*
X117050000Y-51550000D02*
X113050000Y-51550000D01*
X113050000Y-51550000D02*
X113050000Y-48950000D01*
X113050000Y-48950000D02*
X117850000Y-48950000D01*
X117850000Y-48950000D02*
X117850000Y-51550000D01*
X117850000Y-51550000D02*
X117050000Y-51550000D01*
X107977475Y-51550000D02*
G75*
G03X107977475Y-51550000I-127475J0D01*
G01*
X107050000Y-51550000D02*
X103050000Y-51550000D01*
X103050000Y-51550000D02*
X103050000Y-48950000D01*
X103050000Y-48950000D02*
X107850000Y-48950000D01*
X107850000Y-48950000D02*
X107850000Y-51550000D01*
X107850000Y-51550000D02*
X107050000Y-51550000D01*
X97977475Y-51550000D02*
G75*
G03X97977475Y-51550000I-127475J0D01*
G01*
X97050000Y-51550000D02*
X93050000Y-51550000D01*
X93050000Y-51550000D02*
X93050000Y-48950000D01*
X93050000Y-48950000D02*
X97850000Y-48950000D01*
X97850000Y-48950000D02*
X97850000Y-51550000D01*
X97850000Y-51550000D02*
X97050000Y-51550000D01*
X87977475Y-51550000D02*
G75*
G03X87977475Y-51550000I-127475J0D01*
G01*
X87050000Y-51550000D02*
X83050000Y-51550000D01*
X83050000Y-51550000D02*
X83050000Y-48950000D01*
X83050000Y-48950000D02*
X87850000Y-48950000D01*
X87850000Y-48950000D02*
X87850000Y-51550000D01*
X87850000Y-51550000D02*
X87050000Y-51550000D01*
D12*
X118605000Y-67250000D02*
X118605000Y-67750000D01*
X119545000Y-67750000D02*
X119545000Y-67250000D01*
X108605000Y-67250000D02*
X108605000Y-67750000D01*
X109545000Y-67750000D02*
X109545000Y-67250000D01*
X98605000Y-67250000D02*
X98605000Y-67750000D01*
X99545000Y-67750000D02*
X99545000Y-67250000D01*
X88605000Y-67250000D02*
X88605000Y-67750000D01*
X89545000Y-67750000D02*
X89545000Y-67250000D01*
X78605000Y-67250000D02*
X78605000Y-67750000D01*
X79545000Y-67750000D02*
X79545000Y-67250000D01*
X118605000Y-59250000D02*
X118605000Y-59750000D01*
X119545000Y-59750000D02*
X119545000Y-59250000D01*
X108605000Y-59250000D02*
X108605000Y-59750000D01*
X109545000Y-59750000D02*
X109545000Y-59250000D01*
X98605000Y-59250000D02*
X98605000Y-59750000D01*
X99545000Y-59750000D02*
X99545000Y-59250000D01*
X88605000Y-59250000D02*
X88605000Y-59750000D01*
X89545000Y-59750000D02*
X89545000Y-59250000D01*
X78605000Y-59250000D02*
X78605000Y-59750000D01*
X79545000Y-59750000D02*
X79545000Y-59250000D01*
X118605000Y-51250000D02*
X118605000Y-51750000D01*
X119545000Y-51750000D02*
X119545000Y-51250000D01*
X108605000Y-51250000D02*
X108605000Y-51750000D01*
X109545000Y-51750000D02*
X109545000Y-51250000D01*
X98605000Y-51250000D02*
X98605000Y-51750000D01*
X99545000Y-51750000D02*
X99545000Y-51250000D01*
X88605000Y-51250000D02*
X88605000Y-51750000D01*
X89545000Y-51750000D02*
X89545000Y-51250000D01*
D13*
X77977475Y-51550000D02*
G75*
G03X77977475Y-51550000I-127475J0D01*
G01*
X77050000Y-51550000D02*
X73050000Y-51550000D01*
X73050000Y-51550000D02*
X73050000Y-48950000D01*
X73050000Y-48950000D02*
X77850000Y-48950000D01*
X77850000Y-48950000D02*
X77850000Y-51550000D01*
X77850000Y-51550000D02*
X77050000Y-51550000D01*
D12*
X78605000Y-51250000D02*
X78605000Y-51750000D01*
X79545000Y-51750000D02*
X79545000Y-51250000D01*
X79545000Y-49250000D02*
X79545000Y-48750000D01*
X78605000Y-48750000D02*
X78605000Y-49250000D01*
D11*
X119975000Y-64032143D02*
X119960714Y-64046429D01*
X119917857Y-64060714D01*
X119889286Y-64060714D01*
X119846429Y-64046429D01*
X119817857Y-64017857D01*
X119803572Y-63989286D01*
X119789286Y-63932143D01*
X119789286Y-63889286D01*
X119803572Y-63832143D01*
X119817857Y-63803571D01*
X119846429Y-63775000D01*
X119889286Y-63760714D01*
X119917857Y-63760714D01*
X119960714Y-63775000D01*
X119975000Y-63789286D01*
X120089286Y-63789286D02*
X120103572Y-63775000D01*
X120132143Y-63760714D01*
X120203572Y-63760714D01*
X120232143Y-63775000D01*
X120246429Y-63789286D01*
X120260714Y-63817857D01*
X120260714Y-63846429D01*
X120246429Y-63889286D01*
X120075000Y-64060714D01*
X120260714Y-64060714D01*
X109975000Y-64032143D02*
X109960714Y-64046429D01*
X109917857Y-64060714D01*
X109889286Y-64060714D01*
X109846429Y-64046429D01*
X109817857Y-64017857D01*
X109803572Y-63989286D01*
X109789286Y-63932143D01*
X109789286Y-63889286D01*
X109803572Y-63832143D01*
X109817857Y-63803571D01*
X109846429Y-63775000D01*
X109889286Y-63760714D01*
X109917857Y-63760714D01*
X109960714Y-63775000D01*
X109975000Y-63789286D01*
X110089286Y-63789286D02*
X110103572Y-63775000D01*
X110132143Y-63760714D01*
X110203572Y-63760714D01*
X110232143Y-63775000D01*
X110246429Y-63789286D01*
X110260714Y-63817857D01*
X110260714Y-63846429D01*
X110246429Y-63889286D01*
X110075000Y-64060714D01*
X110260714Y-64060714D01*
X99975000Y-64032143D02*
X99960714Y-64046429D01*
X99917857Y-64060714D01*
X99889286Y-64060714D01*
X99846429Y-64046429D01*
X99817857Y-64017857D01*
X99803572Y-63989286D01*
X99789286Y-63932143D01*
X99789286Y-63889286D01*
X99803572Y-63832143D01*
X99817857Y-63803571D01*
X99846429Y-63775000D01*
X99889286Y-63760714D01*
X99917857Y-63760714D01*
X99960714Y-63775000D01*
X99975000Y-63789286D01*
X100089286Y-63789286D02*
X100103572Y-63775000D01*
X100132143Y-63760714D01*
X100203572Y-63760714D01*
X100232143Y-63775000D01*
X100246429Y-63789286D01*
X100260714Y-63817857D01*
X100260714Y-63846429D01*
X100246429Y-63889286D01*
X100075000Y-64060714D01*
X100260714Y-64060714D01*
X89975000Y-64032143D02*
X89960714Y-64046429D01*
X89917857Y-64060714D01*
X89889286Y-64060714D01*
X89846429Y-64046429D01*
X89817857Y-64017857D01*
X89803572Y-63989286D01*
X89789286Y-63932143D01*
X89789286Y-63889286D01*
X89803572Y-63832143D01*
X89817857Y-63803571D01*
X89846429Y-63775000D01*
X89889286Y-63760714D01*
X89917857Y-63760714D01*
X89960714Y-63775000D01*
X89975000Y-63789286D01*
X90089286Y-63789286D02*
X90103572Y-63775000D01*
X90132143Y-63760714D01*
X90203572Y-63760714D01*
X90232143Y-63775000D01*
X90246429Y-63789286D01*
X90260714Y-63817857D01*
X90260714Y-63846429D01*
X90246429Y-63889286D01*
X90075000Y-64060714D01*
X90260714Y-64060714D01*
X79975000Y-64032143D02*
X79960714Y-64046429D01*
X79917857Y-64060714D01*
X79889286Y-64060714D01*
X79846429Y-64046429D01*
X79817857Y-64017857D01*
X79803572Y-63989286D01*
X79789286Y-63932143D01*
X79789286Y-63889286D01*
X79803572Y-63832143D01*
X79817857Y-63803571D01*
X79846429Y-63775000D01*
X79889286Y-63760714D01*
X79917857Y-63760714D01*
X79960714Y-63775000D01*
X79975000Y-63789286D01*
X80089286Y-63789286D02*
X80103572Y-63775000D01*
X80132143Y-63760714D01*
X80203572Y-63760714D01*
X80232143Y-63775000D01*
X80246429Y-63789286D01*
X80260714Y-63817857D01*
X80260714Y-63846429D01*
X80246429Y-63889286D01*
X80075000Y-64060714D01*
X80260714Y-64060714D01*
X119975000Y-56032143D02*
X119960714Y-56046429D01*
X119917857Y-56060714D01*
X119889286Y-56060714D01*
X119846429Y-56046429D01*
X119817857Y-56017857D01*
X119803572Y-55989286D01*
X119789286Y-55932143D01*
X119789286Y-55889286D01*
X119803572Y-55832143D01*
X119817857Y-55803571D01*
X119846429Y-55775000D01*
X119889286Y-55760714D01*
X119917857Y-55760714D01*
X119960714Y-55775000D01*
X119975000Y-55789286D01*
X120089286Y-55789286D02*
X120103572Y-55775000D01*
X120132143Y-55760714D01*
X120203572Y-55760714D01*
X120232143Y-55775000D01*
X120246429Y-55789286D01*
X120260714Y-55817857D01*
X120260714Y-55846429D01*
X120246429Y-55889286D01*
X120075000Y-56060714D01*
X120260714Y-56060714D01*
X109975000Y-56032143D02*
X109960714Y-56046429D01*
X109917857Y-56060714D01*
X109889286Y-56060714D01*
X109846429Y-56046429D01*
X109817857Y-56017857D01*
X109803572Y-55989286D01*
X109789286Y-55932143D01*
X109789286Y-55889286D01*
X109803572Y-55832143D01*
X109817857Y-55803571D01*
X109846429Y-55775000D01*
X109889286Y-55760714D01*
X109917857Y-55760714D01*
X109960714Y-55775000D01*
X109975000Y-55789286D01*
X110089286Y-55789286D02*
X110103572Y-55775000D01*
X110132143Y-55760714D01*
X110203572Y-55760714D01*
X110232143Y-55775000D01*
X110246429Y-55789286D01*
X110260714Y-55817857D01*
X110260714Y-55846429D01*
X110246429Y-55889286D01*
X110075000Y-56060714D01*
X110260714Y-56060714D01*
X99975000Y-56032143D02*
X99960714Y-56046429D01*
X99917857Y-56060714D01*
X99889286Y-56060714D01*
X99846429Y-56046429D01*
X99817857Y-56017857D01*
X99803572Y-55989286D01*
X99789286Y-55932143D01*
X99789286Y-55889286D01*
X99803572Y-55832143D01*
X99817857Y-55803571D01*
X99846429Y-55775000D01*
X99889286Y-55760714D01*
X99917857Y-55760714D01*
X99960714Y-55775000D01*
X99975000Y-55789286D01*
X100089286Y-55789286D02*
X100103572Y-55775000D01*
X100132143Y-55760714D01*
X100203572Y-55760714D01*
X100232143Y-55775000D01*
X100246429Y-55789286D01*
X100260714Y-55817857D01*
X100260714Y-55846429D01*
X100246429Y-55889286D01*
X100075000Y-56060714D01*
X100260714Y-56060714D01*
X89975000Y-56032143D02*
X89960714Y-56046429D01*
X89917857Y-56060714D01*
X89889286Y-56060714D01*
X89846429Y-56046429D01*
X89817857Y-56017857D01*
X89803572Y-55989286D01*
X89789286Y-55932143D01*
X89789286Y-55889286D01*
X89803572Y-55832143D01*
X89817857Y-55803571D01*
X89846429Y-55775000D01*
X89889286Y-55760714D01*
X89917857Y-55760714D01*
X89960714Y-55775000D01*
X89975000Y-55789286D01*
X90089286Y-55789286D02*
X90103572Y-55775000D01*
X90132143Y-55760714D01*
X90203572Y-55760714D01*
X90232143Y-55775000D01*
X90246429Y-55789286D01*
X90260714Y-55817857D01*
X90260714Y-55846429D01*
X90246429Y-55889286D01*
X90075000Y-56060714D01*
X90260714Y-56060714D01*
X79975000Y-56032143D02*
X79960714Y-56046429D01*
X79917857Y-56060714D01*
X79889286Y-56060714D01*
X79846429Y-56046429D01*
X79817857Y-56017857D01*
X79803572Y-55989286D01*
X79789286Y-55932143D01*
X79789286Y-55889286D01*
X79803572Y-55832143D01*
X79817857Y-55803571D01*
X79846429Y-55775000D01*
X79889286Y-55760714D01*
X79917857Y-55760714D01*
X79960714Y-55775000D01*
X79975000Y-55789286D01*
X80089286Y-55789286D02*
X80103572Y-55775000D01*
X80132143Y-55760714D01*
X80203572Y-55760714D01*
X80232143Y-55775000D01*
X80246429Y-55789286D01*
X80260714Y-55817857D01*
X80260714Y-55846429D01*
X80246429Y-55889286D01*
X80075000Y-56060714D01*
X80260714Y-56060714D01*
X119975000Y-48032143D02*
X119960714Y-48046429D01*
X119917857Y-48060714D01*
X119889286Y-48060714D01*
X119846429Y-48046429D01*
X119817857Y-48017857D01*
X119803572Y-47989286D01*
X119789286Y-47932143D01*
X119789286Y-47889286D01*
X119803572Y-47832143D01*
X119817857Y-47803571D01*
X119846429Y-47775000D01*
X119889286Y-47760714D01*
X119917857Y-47760714D01*
X119960714Y-47775000D01*
X119975000Y-47789286D01*
X120089286Y-47789286D02*
X120103572Y-47775000D01*
X120132143Y-47760714D01*
X120203572Y-47760714D01*
X120232143Y-47775000D01*
X120246429Y-47789286D01*
X120260714Y-47817857D01*
X120260714Y-47846429D01*
X120246429Y-47889286D01*
X120075000Y-48060714D01*
X120260714Y-48060714D01*
X109975000Y-48032143D02*
X109960714Y-48046429D01*
X109917857Y-48060714D01*
X109889286Y-48060714D01*
X109846429Y-48046429D01*
X109817857Y-48017857D01*
X109803572Y-47989286D01*
X109789286Y-47932143D01*
X109789286Y-47889286D01*
X109803572Y-47832143D01*
X109817857Y-47803571D01*
X109846429Y-47775000D01*
X109889286Y-47760714D01*
X109917857Y-47760714D01*
X109960714Y-47775000D01*
X109975000Y-47789286D01*
X110089286Y-47789286D02*
X110103572Y-47775000D01*
X110132143Y-47760714D01*
X110203572Y-47760714D01*
X110232143Y-47775000D01*
X110246429Y-47789286D01*
X110260714Y-47817857D01*
X110260714Y-47846429D01*
X110246429Y-47889286D01*
X110075000Y-48060714D01*
X110260714Y-48060714D01*
X99975000Y-48032143D02*
X99960714Y-48046429D01*
X99917857Y-48060714D01*
X99889286Y-48060714D01*
X99846429Y-48046429D01*
X99817857Y-48017857D01*
X99803572Y-47989286D01*
X99789286Y-47932143D01*
X99789286Y-47889286D01*
X99803572Y-47832143D01*
X99817857Y-47803571D01*
X99846429Y-47775000D01*
X99889286Y-47760714D01*
X99917857Y-47760714D01*
X99960714Y-47775000D01*
X99975000Y-47789286D01*
X100089286Y-47789286D02*
X100103572Y-47775000D01*
X100132143Y-47760714D01*
X100203572Y-47760714D01*
X100232143Y-47775000D01*
X100246429Y-47789286D01*
X100260714Y-47817857D01*
X100260714Y-47846429D01*
X100246429Y-47889286D01*
X100075000Y-48060714D01*
X100260714Y-48060714D01*
X89975000Y-48032143D02*
X89960714Y-48046429D01*
X89917857Y-48060714D01*
X89889286Y-48060714D01*
X89846429Y-48046429D01*
X89817857Y-48017857D01*
X89803572Y-47989286D01*
X89789286Y-47932143D01*
X89789286Y-47889286D01*
X89803572Y-47832143D01*
X89817857Y-47803571D01*
X89846429Y-47775000D01*
X89889286Y-47760714D01*
X89917857Y-47760714D01*
X89960714Y-47775000D01*
X89975000Y-47789286D01*
X90089286Y-47789286D02*
X90103572Y-47775000D01*
X90132143Y-47760714D01*
X90203572Y-47760714D01*
X90232143Y-47775000D01*
X90246429Y-47789286D01*
X90260714Y-47817857D01*
X90260714Y-47846429D01*
X90246429Y-47889286D01*
X90075000Y-48060714D01*
X90260714Y-48060714D01*
X112546429Y-68485714D02*
X112546429Y-68728571D01*
X112560714Y-68757143D01*
X112575000Y-68771429D01*
X112603571Y-68785714D01*
X112660714Y-68785714D01*
X112689286Y-68771429D01*
X112703571Y-68757143D01*
X112717857Y-68728571D01*
X112717857Y-68485714D01*
X113017857Y-68785714D02*
X112846429Y-68785714D01*
X112932143Y-68785714D02*
X112932143Y-68485714D01*
X112903572Y-68528571D01*
X112875000Y-68557143D01*
X112846429Y-68571429D01*
X102546429Y-68485714D02*
X102546429Y-68728571D01*
X102560714Y-68757143D01*
X102575000Y-68771429D01*
X102603571Y-68785714D01*
X102660714Y-68785714D01*
X102689286Y-68771429D01*
X102703571Y-68757143D01*
X102717857Y-68728571D01*
X102717857Y-68485714D01*
X103017857Y-68785714D02*
X102846429Y-68785714D01*
X102932143Y-68785714D02*
X102932143Y-68485714D01*
X102903572Y-68528571D01*
X102875000Y-68557143D01*
X102846429Y-68571429D01*
X92546429Y-68485714D02*
X92546429Y-68728571D01*
X92560714Y-68757143D01*
X92575000Y-68771429D01*
X92603571Y-68785714D01*
X92660714Y-68785714D01*
X92689286Y-68771429D01*
X92703571Y-68757143D01*
X92717857Y-68728571D01*
X92717857Y-68485714D01*
X93017857Y-68785714D02*
X92846429Y-68785714D01*
X92932143Y-68785714D02*
X92932143Y-68485714D01*
X92903572Y-68528571D01*
X92875000Y-68557143D01*
X92846429Y-68571429D01*
X82546429Y-68485714D02*
X82546429Y-68728571D01*
X82560714Y-68757143D01*
X82575000Y-68771429D01*
X82603571Y-68785714D01*
X82660714Y-68785714D01*
X82689286Y-68771429D01*
X82703571Y-68757143D01*
X82717857Y-68728571D01*
X82717857Y-68485714D01*
X83017857Y-68785714D02*
X82846429Y-68785714D01*
X82932143Y-68785714D02*
X82932143Y-68485714D01*
X82903572Y-68528571D01*
X82875000Y-68557143D01*
X82846429Y-68571429D01*
X72546429Y-68485714D02*
X72546429Y-68728571D01*
X72560714Y-68757143D01*
X72575000Y-68771429D01*
X72603571Y-68785714D01*
X72660714Y-68785714D01*
X72689286Y-68771429D01*
X72703571Y-68757143D01*
X72717857Y-68728571D01*
X72717857Y-68485714D01*
X73017857Y-68785714D02*
X72846429Y-68785714D01*
X72932143Y-68785714D02*
X72932143Y-68485714D01*
X72903572Y-68528571D01*
X72875000Y-68557143D01*
X72846429Y-68571429D01*
X112546429Y-60485714D02*
X112546429Y-60728571D01*
X112560714Y-60757143D01*
X112575000Y-60771429D01*
X112603571Y-60785714D01*
X112660714Y-60785714D01*
X112689286Y-60771429D01*
X112703571Y-60757143D01*
X112717857Y-60728571D01*
X112717857Y-60485714D01*
X113017857Y-60785714D02*
X112846429Y-60785714D01*
X112932143Y-60785714D02*
X112932143Y-60485714D01*
X112903572Y-60528571D01*
X112875000Y-60557143D01*
X112846429Y-60571429D01*
X102546429Y-60485714D02*
X102546429Y-60728571D01*
X102560714Y-60757143D01*
X102575000Y-60771429D01*
X102603571Y-60785714D01*
X102660714Y-60785714D01*
X102689286Y-60771429D01*
X102703571Y-60757143D01*
X102717857Y-60728571D01*
X102717857Y-60485714D01*
X103017857Y-60785714D02*
X102846429Y-60785714D01*
X102932143Y-60785714D02*
X102932143Y-60485714D01*
X102903572Y-60528571D01*
X102875000Y-60557143D01*
X102846429Y-60571429D01*
X92546429Y-60485714D02*
X92546429Y-60728571D01*
X92560714Y-60757143D01*
X92575000Y-60771429D01*
X92603571Y-60785714D01*
X92660714Y-60785714D01*
X92689286Y-60771429D01*
X92703571Y-60757143D01*
X92717857Y-60728571D01*
X92717857Y-60485714D01*
X93017857Y-60785714D02*
X92846429Y-60785714D01*
X92932143Y-60785714D02*
X92932143Y-60485714D01*
X92903572Y-60528571D01*
X92875000Y-60557143D01*
X92846429Y-60571429D01*
X82546429Y-60485714D02*
X82546429Y-60728571D01*
X82560714Y-60757143D01*
X82575000Y-60771429D01*
X82603571Y-60785714D01*
X82660714Y-60785714D01*
X82689286Y-60771429D01*
X82703571Y-60757143D01*
X82717857Y-60728571D01*
X82717857Y-60485714D01*
X83017857Y-60785714D02*
X82846429Y-60785714D01*
X82932143Y-60785714D02*
X82932143Y-60485714D01*
X82903572Y-60528571D01*
X82875000Y-60557143D01*
X82846429Y-60571429D01*
X72546429Y-60485714D02*
X72546429Y-60728571D01*
X72560714Y-60757143D01*
X72575000Y-60771429D01*
X72603571Y-60785714D01*
X72660714Y-60785714D01*
X72689286Y-60771429D01*
X72703571Y-60757143D01*
X72717857Y-60728571D01*
X72717857Y-60485714D01*
X73017857Y-60785714D02*
X72846429Y-60785714D01*
X72932143Y-60785714D02*
X72932143Y-60485714D01*
X72903572Y-60528571D01*
X72875000Y-60557143D01*
X72846429Y-60571429D01*
X112546429Y-52485714D02*
X112546429Y-52728571D01*
X112560714Y-52757143D01*
X112575000Y-52771429D01*
X112603571Y-52785714D01*
X112660714Y-52785714D01*
X112689286Y-52771429D01*
X112703571Y-52757143D01*
X112717857Y-52728571D01*
X112717857Y-52485714D01*
X113017857Y-52785714D02*
X112846429Y-52785714D01*
X112932143Y-52785714D02*
X112932143Y-52485714D01*
X112903572Y-52528571D01*
X112875000Y-52557143D01*
X112846429Y-52571429D01*
X102546429Y-52485714D02*
X102546429Y-52728571D01*
X102560714Y-52757143D01*
X102575000Y-52771429D01*
X102603571Y-52785714D01*
X102660714Y-52785714D01*
X102689286Y-52771429D01*
X102703571Y-52757143D01*
X102717857Y-52728571D01*
X102717857Y-52485714D01*
X103017857Y-52785714D02*
X102846429Y-52785714D01*
X102932143Y-52785714D02*
X102932143Y-52485714D01*
X102903572Y-52528571D01*
X102875000Y-52557143D01*
X102846429Y-52571429D01*
X92546429Y-52485714D02*
X92546429Y-52728571D01*
X92560714Y-52757143D01*
X92575000Y-52771429D01*
X92603571Y-52785714D01*
X92660714Y-52785714D01*
X92689286Y-52771429D01*
X92703571Y-52757143D01*
X92717857Y-52728571D01*
X92717857Y-52485714D01*
X93017857Y-52785714D02*
X92846429Y-52785714D01*
X92932143Y-52785714D02*
X92932143Y-52485714D01*
X92903572Y-52528571D01*
X92875000Y-52557143D01*
X92846429Y-52571429D01*
X82546429Y-52485714D02*
X82546429Y-52728571D01*
X82560714Y-52757143D01*
X82575000Y-52771429D01*
X82603571Y-52785714D01*
X82660714Y-52785714D01*
X82689286Y-52771429D01*
X82703571Y-52757143D01*
X82717857Y-52728571D01*
X82717857Y-52485714D01*
X83017857Y-52785714D02*
X82846429Y-52785714D01*
X82932143Y-52785714D02*
X82932143Y-52485714D01*
X82903572Y-52528571D01*
X82875000Y-52557143D01*
X82846429Y-52571429D01*
X119975000Y-68782143D02*
X119960714Y-68796429D01*
X119917857Y-68810714D01*
X119889286Y-68810714D01*
X119846429Y-68796429D01*
X119817857Y-68767857D01*
X119803572Y-68739286D01*
X119789286Y-68682143D01*
X119789286Y-68639286D01*
X119803572Y-68582143D01*
X119817857Y-68553571D01*
X119846429Y-68525000D01*
X119889286Y-68510714D01*
X119917857Y-68510714D01*
X119960714Y-68525000D01*
X119975000Y-68539286D01*
X120260714Y-68810714D02*
X120089286Y-68810714D01*
X120175000Y-68810714D02*
X120175000Y-68510714D01*
X120146429Y-68553571D01*
X120117857Y-68582143D01*
X120089286Y-68596429D01*
X109975000Y-68782143D02*
X109960714Y-68796429D01*
X109917857Y-68810714D01*
X109889286Y-68810714D01*
X109846429Y-68796429D01*
X109817857Y-68767857D01*
X109803572Y-68739286D01*
X109789286Y-68682143D01*
X109789286Y-68639286D01*
X109803572Y-68582143D01*
X109817857Y-68553571D01*
X109846429Y-68525000D01*
X109889286Y-68510714D01*
X109917857Y-68510714D01*
X109960714Y-68525000D01*
X109975000Y-68539286D01*
X110260714Y-68810714D02*
X110089286Y-68810714D01*
X110175000Y-68810714D02*
X110175000Y-68510714D01*
X110146429Y-68553571D01*
X110117857Y-68582143D01*
X110089286Y-68596429D01*
X99975000Y-68782143D02*
X99960714Y-68796429D01*
X99917857Y-68810714D01*
X99889286Y-68810714D01*
X99846429Y-68796429D01*
X99817857Y-68767857D01*
X99803572Y-68739286D01*
X99789286Y-68682143D01*
X99789286Y-68639286D01*
X99803572Y-68582143D01*
X99817857Y-68553571D01*
X99846429Y-68525000D01*
X99889286Y-68510714D01*
X99917857Y-68510714D01*
X99960714Y-68525000D01*
X99975000Y-68539286D01*
X100260714Y-68810714D02*
X100089286Y-68810714D01*
X100175000Y-68810714D02*
X100175000Y-68510714D01*
X100146429Y-68553571D01*
X100117857Y-68582143D01*
X100089286Y-68596429D01*
X89975000Y-68782143D02*
X89960714Y-68796429D01*
X89917857Y-68810714D01*
X89889286Y-68810714D01*
X89846429Y-68796429D01*
X89817857Y-68767857D01*
X89803572Y-68739286D01*
X89789286Y-68682143D01*
X89789286Y-68639286D01*
X89803572Y-68582143D01*
X89817857Y-68553571D01*
X89846429Y-68525000D01*
X89889286Y-68510714D01*
X89917857Y-68510714D01*
X89960714Y-68525000D01*
X89975000Y-68539286D01*
X90260714Y-68810714D02*
X90089286Y-68810714D01*
X90175000Y-68810714D02*
X90175000Y-68510714D01*
X90146429Y-68553571D01*
X90117857Y-68582143D01*
X90089286Y-68596429D01*
X79975000Y-68782143D02*
X79960714Y-68796429D01*
X79917857Y-68810714D01*
X79889286Y-68810714D01*
X79846429Y-68796429D01*
X79817857Y-68767857D01*
X79803572Y-68739286D01*
X79789286Y-68682143D01*
X79789286Y-68639286D01*
X79803572Y-68582143D01*
X79817857Y-68553571D01*
X79846429Y-68525000D01*
X79889286Y-68510714D01*
X79917857Y-68510714D01*
X79960714Y-68525000D01*
X79975000Y-68539286D01*
X80260714Y-68810714D02*
X80089286Y-68810714D01*
X80175000Y-68810714D02*
X80175000Y-68510714D01*
X80146429Y-68553571D01*
X80117857Y-68582143D01*
X80089286Y-68596429D01*
X119975000Y-60782143D02*
X119960714Y-60796429D01*
X119917857Y-60810714D01*
X119889286Y-60810714D01*
X119846429Y-60796429D01*
X119817857Y-60767857D01*
X119803572Y-60739286D01*
X119789286Y-60682143D01*
X119789286Y-60639286D01*
X119803572Y-60582143D01*
X119817857Y-60553571D01*
X119846429Y-60525000D01*
X119889286Y-60510714D01*
X119917857Y-60510714D01*
X119960714Y-60525000D01*
X119975000Y-60539286D01*
X120260714Y-60810714D02*
X120089286Y-60810714D01*
X120175000Y-60810714D02*
X120175000Y-60510714D01*
X120146429Y-60553571D01*
X120117857Y-60582143D01*
X120089286Y-60596429D01*
X109975000Y-60782143D02*
X109960714Y-60796429D01*
X109917857Y-60810714D01*
X109889286Y-60810714D01*
X109846429Y-60796429D01*
X109817857Y-60767857D01*
X109803572Y-60739286D01*
X109789286Y-60682143D01*
X109789286Y-60639286D01*
X109803572Y-60582143D01*
X109817857Y-60553571D01*
X109846429Y-60525000D01*
X109889286Y-60510714D01*
X109917857Y-60510714D01*
X109960714Y-60525000D01*
X109975000Y-60539286D01*
X110260714Y-60810714D02*
X110089286Y-60810714D01*
X110175000Y-60810714D02*
X110175000Y-60510714D01*
X110146429Y-60553571D01*
X110117857Y-60582143D01*
X110089286Y-60596429D01*
X99975000Y-60782143D02*
X99960714Y-60796429D01*
X99917857Y-60810714D01*
X99889286Y-60810714D01*
X99846429Y-60796429D01*
X99817857Y-60767857D01*
X99803572Y-60739286D01*
X99789286Y-60682143D01*
X99789286Y-60639286D01*
X99803572Y-60582143D01*
X99817857Y-60553571D01*
X99846429Y-60525000D01*
X99889286Y-60510714D01*
X99917857Y-60510714D01*
X99960714Y-60525000D01*
X99975000Y-60539286D01*
X100260714Y-60810714D02*
X100089286Y-60810714D01*
X100175000Y-60810714D02*
X100175000Y-60510714D01*
X100146429Y-60553571D01*
X100117857Y-60582143D01*
X100089286Y-60596429D01*
X89975000Y-60782143D02*
X89960714Y-60796429D01*
X89917857Y-60810714D01*
X89889286Y-60810714D01*
X89846429Y-60796429D01*
X89817857Y-60767857D01*
X89803572Y-60739286D01*
X89789286Y-60682143D01*
X89789286Y-60639286D01*
X89803572Y-60582143D01*
X89817857Y-60553571D01*
X89846429Y-60525000D01*
X89889286Y-60510714D01*
X89917857Y-60510714D01*
X89960714Y-60525000D01*
X89975000Y-60539286D01*
X90260714Y-60810714D02*
X90089286Y-60810714D01*
X90175000Y-60810714D02*
X90175000Y-60510714D01*
X90146429Y-60553571D01*
X90117857Y-60582143D01*
X90089286Y-60596429D01*
X79975000Y-60782143D02*
X79960714Y-60796429D01*
X79917857Y-60810714D01*
X79889286Y-60810714D01*
X79846429Y-60796429D01*
X79817857Y-60767857D01*
X79803572Y-60739286D01*
X79789286Y-60682143D01*
X79789286Y-60639286D01*
X79803572Y-60582143D01*
X79817857Y-60553571D01*
X79846429Y-60525000D01*
X79889286Y-60510714D01*
X79917857Y-60510714D01*
X79960714Y-60525000D01*
X79975000Y-60539286D01*
X80260714Y-60810714D02*
X80089286Y-60810714D01*
X80175000Y-60810714D02*
X80175000Y-60510714D01*
X80146429Y-60553571D01*
X80117857Y-60582143D01*
X80089286Y-60596429D01*
X119975000Y-52782143D02*
X119960714Y-52796429D01*
X119917857Y-52810714D01*
X119889286Y-52810714D01*
X119846429Y-52796429D01*
X119817857Y-52767857D01*
X119803572Y-52739286D01*
X119789286Y-52682143D01*
X119789286Y-52639286D01*
X119803572Y-52582143D01*
X119817857Y-52553571D01*
X119846429Y-52525000D01*
X119889286Y-52510714D01*
X119917857Y-52510714D01*
X119960714Y-52525000D01*
X119975000Y-52539286D01*
X120260714Y-52810714D02*
X120089286Y-52810714D01*
X120175000Y-52810714D02*
X120175000Y-52510714D01*
X120146429Y-52553571D01*
X120117857Y-52582143D01*
X120089286Y-52596429D01*
X109975000Y-52782143D02*
X109960714Y-52796429D01*
X109917857Y-52810714D01*
X109889286Y-52810714D01*
X109846429Y-52796429D01*
X109817857Y-52767857D01*
X109803572Y-52739286D01*
X109789286Y-52682143D01*
X109789286Y-52639286D01*
X109803572Y-52582143D01*
X109817857Y-52553571D01*
X109846429Y-52525000D01*
X109889286Y-52510714D01*
X109917857Y-52510714D01*
X109960714Y-52525000D01*
X109975000Y-52539286D01*
X110260714Y-52810714D02*
X110089286Y-52810714D01*
X110175000Y-52810714D02*
X110175000Y-52510714D01*
X110146429Y-52553571D01*
X110117857Y-52582143D01*
X110089286Y-52596429D01*
X99975000Y-52782143D02*
X99960714Y-52796429D01*
X99917857Y-52810714D01*
X99889286Y-52810714D01*
X99846429Y-52796429D01*
X99817857Y-52767857D01*
X99803572Y-52739286D01*
X99789286Y-52682143D01*
X99789286Y-52639286D01*
X99803572Y-52582143D01*
X99817857Y-52553571D01*
X99846429Y-52525000D01*
X99889286Y-52510714D01*
X99917857Y-52510714D01*
X99960714Y-52525000D01*
X99975000Y-52539286D01*
X100260714Y-52810714D02*
X100089286Y-52810714D01*
X100175000Y-52810714D02*
X100175000Y-52510714D01*
X100146429Y-52553571D01*
X100117857Y-52582143D01*
X100089286Y-52596429D01*
X89975000Y-52782143D02*
X89960714Y-52796429D01*
X89917857Y-52810714D01*
X89889286Y-52810714D01*
X89846429Y-52796429D01*
X89817857Y-52767857D01*
X89803572Y-52739286D01*
X89789286Y-52682143D01*
X89789286Y-52639286D01*
X89803572Y-52582143D01*
X89817857Y-52553571D01*
X89846429Y-52525000D01*
X89889286Y-52510714D01*
X89917857Y-52510714D01*
X89960714Y-52525000D01*
X89975000Y-52539286D01*
X90260714Y-52810714D02*
X90089286Y-52810714D01*
X90175000Y-52810714D02*
X90175000Y-52510714D01*
X90146429Y-52553571D01*
X90117857Y-52582143D01*
X90089286Y-52596429D01*
X72546429Y-52485714D02*
X72546429Y-52728571D01*
X72560714Y-52757143D01*
X72575000Y-52771429D01*
X72603571Y-52785714D01*
X72660714Y-52785714D01*
X72689286Y-52771429D01*
X72703571Y-52757143D01*
X72717857Y-52728571D01*
X72717857Y-52485714D01*
X73017857Y-52785714D02*
X72846429Y-52785714D01*
X72932143Y-52785714D02*
X72932143Y-52485714D01*
X72903572Y-52528571D01*
X72875000Y-52557143D01*
X72846429Y-52571429D01*
X79975000Y-52782143D02*
X79960714Y-52796429D01*
X79917857Y-52810714D01*
X79889286Y-52810714D01*
X79846429Y-52796429D01*
X79817857Y-52767857D01*
X79803572Y-52739286D01*
X79789286Y-52682143D01*
X79789286Y-52639286D01*
X79803572Y-52582143D01*
X79817857Y-52553571D01*
X79846429Y-52525000D01*
X79889286Y-52510714D01*
X79917857Y-52510714D01*
X79960714Y-52525000D01*
X79975000Y-52539286D01*
X80260714Y-52810714D02*
X80089286Y-52810714D01*
X80175000Y-52810714D02*
X80175000Y-52510714D01*
X80146429Y-52553571D01*
X80117857Y-52582143D01*
X80089286Y-52596429D01*
X79975000Y-48032143D02*
X79960714Y-48046429D01*
X79917857Y-48060714D01*
X79889286Y-48060714D01*
X79846429Y-48046429D01*
X79817857Y-48017857D01*
X79803572Y-47989286D01*
X79789286Y-47932143D01*
X79789286Y-47889286D01*
X79803572Y-47832143D01*
X79817857Y-47803571D01*
X79846429Y-47775000D01*
X79889286Y-47760714D01*
X79917857Y-47760714D01*
X79960714Y-47775000D01*
X79975000Y-47789286D01*
X80089286Y-47789286D02*
X80103572Y-47775000D01*
X80132143Y-47760714D01*
X80203572Y-47760714D01*
X80232143Y-47775000D01*
X80246429Y-47789286D01*
X80260714Y-47817857D01*
X80260714Y-47846429D01*
X80246429Y-47889286D01*
X80075000Y-48060714D01*
X80260714Y-48060714D01*
M02*
