G04 #@! TF.FileFunction,Profile,NP*
%FSLAX46Y46*%
G04 Gerber Fmt 4.6, Leading zero omitted, Abs format (unit mm)*
G04 Created by KiCad (PCBNEW 4.0.7-e2-6376~58~ubuntu16.04.1) date Thu Aug  2 19:22:52 2018*
%MOMM*%
%LPD*%
G01*
G04 APERTURE LIST*
%ADD10C,0.100000*%
%ADD11C,0.150000*%
G04 APERTURE END LIST*
D10*
D11*
X112100000Y-69150000D02*
X112100000Y-69075000D01*
X102100000Y-69150000D02*
X102100000Y-69075000D01*
X92100000Y-69150000D02*
X92100000Y-69075000D01*
X82100000Y-69150000D02*
X82100000Y-69075000D01*
X72100000Y-69150000D02*
X72100000Y-69075000D01*
X112100000Y-61150000D02*
X112100000Y-61075000D01*
X102100000Y-61150000D02*
X102100000Y-61075000D01*
X92100000Y-61150000D02*
X92100000Y-61075000D01*
X82100000Y-61150000D02*
X82100000Y-61075000D01*
X72100000Y-61150000D02*
X72100000Y-61075000D01*
X112100000Y-53150000D02*
X112100000Y-53075000D01*
X102100000Y-53150000D02*
X102100000Y-53075000D01*
X92100000Y-53150000D02*
X92100000Y-53075000D01*
X82100000Y-53150000D02*
X82100000Y-53075000D01*
X120525000Y-69150000D02*
X112100000Y-69150000D01*
X110525000Y-69150000D02*
X102100000Y-69150000D01*
X100525000Y-69150000D02*
X92100000Y-69150000D01*
X90525000Y-69150000D02*
X82100000Y-69150000D01*
X80525000Y-69150000D02*
X72100000Y-69150000D01*
X120525000Y-61150000D02*
X112100000Y-61150000D01*
X110525000Y-61150000D02*
X102100000Y-61150000D01*
X100525000Y-61150000D02*
X92100000Y-61150000D01*
X90525000Y-61150000D02*
X82100000Y-61150000D01*
X80525000Y-61150000D02*
X72100000Y-61150000D01*
X120525000Y-53150000D02*
X112100000Y-53150000D01*
X110525000Y-53150000D02*
X102100000Y-53150000D01*
X100525000Y-53150000D02*
X92100000Y-53150000D01*
X90525000Y-53150000D02*
X82100000Y-53150000D01*
X115875000Y-63450000D02*
X112100000Y-63450000D01*
X105875000Y-63450000D02*
X102100000Y-63450000D01*
X95875000Y-63450000D02*
X92100000Y-63450000D01*
X85875000Y-63450000D02*
X82100000Y-63450000D01*
X75875000Y-63450000D02*
X72100000Y-63450000D01*
X115875000Y-55450000D02*
X112100000Y-55450000D01*
X105875000Y-55450000D02*
X102100000Y-55450000D01*
X95875000Y-55450000D02*
X92100000Y-55450000D01*
X85875000Y-55450000D02*
X82100000Y-55450000D01*
X75875000Y-55450000D02*
X72100000Y-55450000D01*
X115875000Y-47450000D02*
X112100000Y-47450000D01*
X105875000Y-47450000D02*
X102100000Y-47450000D01*
X95875000Y-47450000D02*
X92100000Y-47450000D01*
X85875000Y-47450000D02*
X82100000Y-47450000D01*
X115875000Y-63450000D02*
X120525000Y-63450000D01*
X105875000Y-63450000D02*
X110525000Y-63450000D01*
X95875000Y-63450000D02*
X100525000Y-63450000D01*
X85875000Y-63450000D02*
X90525000Y-63450000D01*
X75875000Y-63450000D02*
X80525000Y-63450000D01*
X115875000Y-55450000D02*
X120525000Y-55450000D01*
X105875000Y-55450000D02*
X110525000Y-55450000D01*
X95875000Y-55450000D02*
X100525000Y-55450000D01*
X85875000Y-55450000D02*
X90525000Y-55450000D01*
X75875000Y-55450000D02*
X80525000Y-55450000D01*
X115875000Y-47450000D02*
X120525000Y-47450000D01*
X105875000Y-47450000D02*
X110525000Y-47450000D01*
X95875000Y-47450000D02*
X100525000Y-47450000D01*
X85875000Y-47450000D02*
X90525000Y-47450000D01*
X120525000Y-63450000D02*
X120525000Y-69150000D01*
X110525000Y-63450000D02*
X110525000Y-69150000D01*
X100525000Y-63450000D02*
X100525000Y-69150000D01*
X90525000Y-63450000D02*
X90525000Y-69150000D01*
X80525000Y-63450000D02*
X80525000Y-69150000D01*
X120525000Y-55450000D02*
X120525000Y-61150000D01*
X110525000Y-55450000D02*
X110525000Y-61150000D01*
X100525000Y-55450000D02*
X100525000Y-61150000D01*
X90525000Y-55450000D02*
X90525000Y-61150000D01*
X80525000Y-55450000D02*
X80525000Y-61150000D01*
X120525000Y-47450000D02*
X120525000Y-53150000D01*
X110525000Y-47450000D02*
X110525000Y-53150000D01*
X100525000Y-47450000D02*
X100525000Y-53150000D01*
X90525000Y-47450000D02*
X90525000Y-53150000D01*
X112100000Y-63450000D02*
X112100000Y-69075000D01*
X102100000Y-63450000D02*
X102100000Y-69075000D01*
X92100000Y-63450000D02*
X92100000Y-69075000D01*
X82100000Y-63450000D02*
X82100000Y-69075000D01*
X72100000Y-63450000D02*
X72100000Y-69075000D01*
X112100000Y-55450000D02*
X112100000Y-61075000D01*
X102100000Y-55450000D02*
X102100000Y-61075000D01*
X92100000Y-55450000D02*
X92100000Y-61075000D01*
X82100000Y-55450000D02*
X82100000Y-61075000D01*
X72100000Y-55450000D02*
X72100000Y-61075000D01*
X112100000Y-47450000D02*
X112100000Y-53075000D01*
X102100000Y-47450000D02*
X102100000Y-53075000D01*
X92100000Y-47450000D02*
X92100000Y-53075000D01*
X82100000Y-47450000D02*
X82100000Y-53075000D01*
X80525000Y-47450000D02*
X80525000Y-53150000D01*
X72100000Y-47450000D02*
X72100000Y-53075000D01*
X75875000Y-47450000D02*
X72100000Y-47450000D01*
X75875000Y-47450000D02*
X80525000Y-47450000D01*
X72100000Y-53150000D02*
X72100000Y-53075000D01*
X80525000Y-53150000D02*
X72100000Y-53150000D01*
M02*
