G04 #@! TF.FileFunction,Legend,Top*
%FSLAX46Y46*%
G04 Gerber Fmt 4.6, Leading zero omitted, Abs format (unit mm)*
G04 Created by KiCad (PCBNEW 4.0.7-e2-6376~58~ubuntu16.04.1) date Fri Aug  3 14:44:38 2018*
%MOMM*%
%LPD*%
G01*
G04 APERTURE LIST*
%ADD10C,0.100000*%
%ADD11C,0.150000*%
%ADD12C,0.120000*%
G04 APERTURE END LIST*
D10*
D11*
X126730000Y-79940000D02*
X126730000Y-81440000D01*
X126730000Y-81440000D02*
X132730000Y-81440000D01*
X132730000Y-81440000D02*
X132730000Y-79940000D01*
X136010000Y-79970000D02*
X136010000Y-81470000D01*
X136010000Y-81470000D02*
X142010000Y-81470000D01*
X142010000Y-81470000D02*
X142010000Y-79970000D01*
X145280000Y-79950000D02*
X145280000Y-81450000D01*
X145280000Y-81450000D02*
X151280000Y-81450000D01*
X151280000Y-81450000D02*
X151280000Y-79950000D01*
X151290000Y-114050000D02*
X151290000Y-112550000D01*
X151290000Y-112550000D02*
X145290000Y-112550000D01*
X145290000Y-112550000D02*
X145290000Y-114050000D01*
X132720000Y-113990000D02*
X132720000Y-112490000D01*
X132720000Y-112490000D02*
X126720000Y-112490000D01*
X126720000Y-112490000D02*
X126720000Y-113990000D01*
X140267475Y-98060000D02*
G75*
G03X140267475Y-98060000I-127475J0D01*
G01*
X139340000Y-98060000D02*
X135340000Y-98060000D01*
X135340000Y-98060000D02*
X135340000Y-95460000D01*
X135340000Y-95460000D02*
X140140000Y-95460000D01*
X140140000Y-95460000D02*
X140140000Y-98060000D01*
X140140000Y-98060000D02*
X139340000Y-98060000D01*
X153672944Y-84084416D02*
X152612284Y-85145076D01*
X152612284Y-85145076D02*
X156854924Y-89387716D01*
X156854924Y-89387716D02*
X157915584Y-88327056D01*
X157720000Y-94000000D02*
X156220000Y-94000000D01*
X156220000Y-94000000D02*
X156220000Y-100000000D01*
X156220000Y-100000000D02*
X157720000Y-100000000D01*
X120260000Y-100010000D02*
X121760000Y-100010000D01*
X121760000Y-100010000D02*
X121760000Y-94010000D01*
X121760000Y-94010000D02*
X120260000Y-94010000D01*
X142000000Y-114050000D02*
X142000000Y-112550000D01*
X142000000Y-112550000D02*
X136000000Y-112550000D01*
X136000000Y-112550000D02*
X136000000Y-114050000D01*
X124327056Y-109975584D02*
X125387716Y-108914924D01*
X125387716Y-108914924D02*
X121145076Y-104672284D01*
X121145076Y-104672284D02*
X120084416Y-105732944D01*
X157935584Y-105702944D02*
X156874924Y-104642284D01*
X156874924Y-104642284D02*
X152632284Y-108884924D01*
X152632284Y-108884924D02*
X153692944Y-109945584D01*
X120104416Y-88317056D02*
X121165076Y-89377716D01*
X121165076Y-89377716D02*
X125407716Y-85135076D01*
X125407716Y-85135076D02*
X124347056Y-84074416D01*
D12*
X140150000Y-99180000D02*
X139650000Y-99180000D01*
X139650000Y-100120000D02*
X140150000Y-100120000D01*
X139850000Y-94145000D02*
X140350000Y-94145000D01*
X140350000Y-93205000D02*
X139850000Y-93205000D01*
X150575000Y-97900000D02*
X151475000Y-97900000D01*
X151475000Y-97900000D02*
X151475000Y-96450000D01*
X150575000Y-97900000D02*
X150575000Y-96450000D01*
X151555000Y-94900000D02*
X151555000Y-94400000D01*
X150495000Y-94400000D02*
X150495000Y-94900000D01*
X133620000Y-96500000D02*
X133620000Y-97000000D01*
X134680000Y-97000000D02*
X134680000Y-96500000D01*
X102630000Y-99375000D02*
X102630000Y-98875000D01*
X101570000Y-98875000D02*
X101570000Y-99375000D01*
X102630000Y-96775000D02*
X102630000Y-96275000D01*
X101570000Y-96275000D02*
X101570000Y-96775000D01*
X102630000Y-93875000D02*
X102630000Y-93375000D01*
X101570000Y-93375000D02*
X101570000Y-93875000D01*
D11*
X109900000Y-102975000D02*
X108250000Y-102975000D01*
X109900000Y-102975000D02*
X111550000Y-102975000D01*
X109900000Y-91375000D02*
X111550000Y-91375000D01*
X109900000Y-91375000D02*
X109250000Y-91375000D01*
X113900000Y-100175000D02*
X113900000Y-100125000D01*
X113900000Y-100175000D02*
X113900000Y-102175000D01*
X105900000Y-100125000D02*
X105900000Y-102175000D01*
X113950000Y-95425000D02*
X113950000Y-95475000D01*
X113950000Y-95075000D02*
X113950000Y-95425000D01*
X113900000Y-94075000D02*
X113900000Y-94175000D01*
X113900000Y-92275000D02*
X113900000Y-92175000D01*
X105900000Y-92275000D02*
X105900000Y-92175000D01*
X105900000Y-94075000D02*
X105900000Y-94175000D01*
X105900000Y-95425000D02*
X105900000Y-95475000D01*
X105900000Y-95075000D02*
X105900000Y-95425000D01*
X113900000Y-92375000D02*
X113900000Y-92275000D01*
X105900000Y-92375000D02*
X105900000Y-92275000D01*
X109900000Y-97875000D02*
X111200000Y-97875000D01*
X111200000Y-97875000D02*
X111200000Y-100475000D01*
X111200000Y-100475000D02*
X108600000Y-100475000D01*
X108600000Y-100475000D02*
X108600000Y-97875000D01*
X108600000Y-97875000D02*
X109900000Y-97875000D01*
X105900000Y-94075000D02*
X105900000Y-92375000D01*
X113900000Y-92375000D02*
X113900000Y-94075000D01*
X105200000Y-90775000D02*
X114700000Y-90775000D01*
X114700000Y-90775000D02*
X114700000Y-103575000D01*
X114700000Y-103575000D02*
X105000000Y-103575000D01*
X105000000Y-103575000D02*
X105000000Y-91075000D01*
X105000000Y-91075000D02*
X105000000Y-90775000D01*
X105000000Y-90775000D02*
X105200000Y-90775000D01*
D12*
X171170000Y-110450000D02*
X171170000Y-109950000D01*
X170230000Y-109950000D02*
X170230000Y-110450000D01*
X170230000Y-112400000D02*
X170230000Y-112900000D01*
X171170000Y-112900000D02*
X171170000Y-112400000D01*
X102280000Y-124975000D02*
X102280000Y-125475000D01*
X103220000Y-125475000D02*
X103220000Y-124975000D01*
X103220000Y-123000000D02*
X103220000Y-122500000D01*
X102280000Y-122500000D02*
X102280000Y-123000000D01*
D11*
X169677475Y-112700000D02*
G75*
G03X169677475Y-112700000I-127475J0D01*
G01*
X168750000Y-112700000D02*
X164750000Y-112700000D01*
X164750000Y-112700000D02*
X164750000Y-110100000D01*
X164750000Y-110100000D02*
X169550000Y-110100000D01*
X169550000Y-110100000D02*
X169550000Y-112700000D01*
X169550000Y-112700000D02*
X168750000Y-112700000D01*
X101727475Y-125275000D02*
G75*
G03X101727475Y-125275000I-127475J0D01*
G01*
X100800000Y-125275000D02*
X96800000Y-125275000D01*
X96800000Y-125275000D02*
X96800000Y-122675000D01*
X96800000Y-122675000D02*
X101600000Y-122675000D01*
X101600000Y-122675000D02*
X101600000Y-125275000D01*
X101600000Y-125275000D02*
X100800000Y-125275000D01*
D12*
X115280000Y-124975000D02*
X115280000Y-125475000D01*
X116220000Y-125475000D02*
X116220000Y-124975000D01*
X116220000Y-123025000D02*
X116220000Y-122525000D01*
X115280000Y-122525000D02*
X115280000Y-123025000D01*
X125280000Y-124975000D02*
X125280000Y-125475000D01*
X126220000Y-125475000D02*
X126220000Y-124975000D01*
X126220000Y-123025000D02*
X126220000Y-122525000D01*
X125280000Y-122525000D02*
X125280000Y-123025000D01*
X92280000Y-124975000D02*
X92280000Y-125475000D01*
X93220000Y-125475000D02*
X93220000Y-124975000D01*
X93220000Y-123025000D02*
X93220000Y-122525000D01*
X92280000Y-122525000D02*
X92280000Y-123025000D01*
D11*
X114727475Y-125275000D02*
G75*
G03X114727475Y-125275000I-127475J0D01*
G01*
X113800000Y-125275000D02*
X109800000Y-125275000D01*
X109800000Y-125275000D02*
X109800000Y-122675000D01*
X109800000Y-122675000D02*
X114600000Y-122675000D01*
X114600000Y-122675000D02*
X114600000Y-125275000D01*
X114600000Y-125275000D02*
X113800000Y-125275000D01*
X124727475Y-125275000D02*
G75*
G03X124727475Y-125275000I-127475J0D01*
G01*
X123800000Y-125275000D02*
X119800000Y-125275000D01*
X119800000Y-125275000D02*
X119800000Y-122675000D01*
X119800000Y-122675000D02*
X124600000Y-122675000D01*
X124600000Y-122675000D02*
X124600000Y-125275000D01*
X124600000Y-125275000D02*
X123800000Y-125275000D01*
X91727475Y-125275000D02*
G75*
G03X91727475Y-125275000I-127475J0D01*
G01*
X90800000Y-125275000D02*
X86800000Y-125275000D01*
X86800000Y-125275000D02*
X86800000Y-122675000D01*
X86800000Y-122675000D02*
X91600000Y-122675000D01*
X91600000Y-122675000D02*
X91600000Y-125275000D01*
X91600000Y-125275000D02*
X90800000Y-125275000D01*
D12*
X142280000Y-124975000D02*
X142280000Y-125475000D01*
X143220000Y-125475000D02*
X143220000Y-124975000D01*
X143220000Y-123025000D02*
X143220000Y-122525000D01*
X142280000Y-122525000D02*
X142280000Y-123025000D01*
D11*
X141727475Y-125275000D02*
G75*
G03X141727475Y-125275000I-127475J0D01*
G01*
X140800000Y-125275000D02*
X136800000Y-125275000D01*
X136800000Y-125275000D02*
X136800000Y-122675000D01*
X136800000Y-122675000D02*
X141600000Y-122675000D01*
X141600000Y-122675000D02*
X141600000Y-125275000D01*
X141600000Y-125275000D02*
X140800000Y-125275000D01*
D10*
X132067560Y-81926190D02*
X132022917Y-82283333D01*
X131990179Y-82354762D01*
X131936607Y-82402381D01*
X131862203Y-82426190D01*
X131814584Y-82426190D01*
X132258036Y-81926190D02*
X132567559Y-81926190D01*
X132377084Y-82116667D01*
X132448512Y-82116667D01*
X132493155Y-82140476D01*
X132513988Y-82164286D01*
X132531845Y-82211905D01*
X132516964Y-82330952D01*
X132487203Y-82378571D01*
X132460416Y-82402381D01*
X132409821Y-82426190D01*
X132266964Y-82426190D01*
X132222321Y-82402381D01*
X132201489Y-82378571D01*
X141367560Y-81926190D02*
X141322917Y-82283333D01*
X141290179Y-82354762D01*
X141236607Y-82402381D01*
X141162203Y-82426190D01*
X141114584Y-82426190D01*
X141799107Y-82092857D02*
X141757440Y-82426190D01*
X141703869Y-81902381D02*
X141540179Y-82259524D01*
X141849703Y-82259524D01*
X150592560Y-81801190D02*
X150547917Y-82158333D01*
X150515179Y-82229762D01*
X150461607Y-82277381D01*
X150387203Y-82301190D01*
X150339584Y-82301190D01*
X151068750Y-81801190D02*
X150830655Y-81801190D01*
X150777083Y-82039286D01*
X150803870Y-82015476D01*
X150854465Y-81991667D01*
X150973512Y-81991667D01*
X151018155Y-82015476D01*
X151038988Y-82039286D01*
X151056845Y-82086905D01*
X151041964Y-82205952D01*
X151012203Y-82253571D01*
X150985416Y-82277381D01*
X150934821Y-82301190D01*
X150815774Y-82301190D01*
X150771131Y-82277381D01*
X150750298Y-82253571D01*
X145442560Y-111651190D02*
X145397917Y-112008333D01*
X145365179Y-112079762D01*
X145311607Y-112127381D01*
X145237203Y-112151190D01*
X145189584Y-112151190D01*
X145641964Y-112151190D02*
X145737202Y-112151190D01*
X145787797Y-112127381D01*
X145814584Y-112103571D01*
X145871131Y-112032143D01*
X145906845Y-111936905D01*
X145930654Y-111746429D01*
X145912798Y-111698810D01*
X145891964Y-111675000D01*
X145847321Y-111651190D01*
X145752083Y-111651190D01*
X145701488Y-111675000D01*
X145674703Y-111698810D01*
X145644940Y-111746429D01*
X145630060Y-111865476D01*
X145647917Y-111913095D01*
X145668750Y-111936905D01*
X145713393Y-111960714D01*
X145808631Y-111960714D01*
X145859226Y-111936905D01*
X145886012Y-111913095D01*
X145915774Y-111865476D01*
X126804465Y-111601190D02*
X126759822Y-111958333D01*
X126727084Y-112029762D01*
X126673512Y-112077381D01*
X126599108Y-112101190D01*
X126551489Y-112101190D01*
X127241964Y-112101190D02*
X126956250Y-112101190D01*
X127099107Y-112101190D02*
X127161607Y-111601190D01*
X127105060Y-111672619D01*
X127051488Y-111720238D01*
X127000893Y-111744048D01*
X127718154Y-112101190D02*
X127432440Y-112101190D01*
X127575297Y-112101190D02*
X127637797Y-111601190D01*
X127581250Y-111672619D01*
X127527678Y-111720238D01*
X127477083Y-111744048D01*
X140451190Y-97080952D02*
X140855952Y-97080952D01*
X140903571Y-97057143D01*
X140927381Y-97033333D01*
X140951190Y-96985714D01*
X140951190Y-96890476D01*
X140927381Y-96842857D01*
X140903571Y-96819048D01*
X140855952Y-96795238D01*
X140451190Y-96795238D01*
X140451190Y-96604761D02*
X140451190Y-96295238D01*
X140641667Y-96461904D01*
X140641667Y-96390476D01*
X140665476Y-96342857D01*
X140689286Y-96319047D01*
X140736905Y-96295238D01*
X140855952Y-96295238D01*
X140903571Y-96319047D01*
X140927381Y-96342857D01*
X140951190Y-96390476D01*
X140951190Y-96533333D01*
X140927381Y-96580952D01*
X140903571Y-96604761D01*
X156124963Y-89212738D02*
X155840857Y-89433709D01*
X155767200Y-89461067D01*
X155695647Y-89456858D01*
X155626200Y-89421082D01*
X155592528Y-89387410D01*
X156444844Y-89532619D02*
X156377500Y-89465275D01*
X156324888Y-89446336D01*
X156289112Y-89444232D01*
X156198619Y-89454754D01*
X156106022Y-89496843D01*
X155954499Y-89614694D01*
X155933455Y-89660993D01*
X155931349Y-89692560D01*
X155946081Y-89740963D01*
X156013424Y-89808306D01*
X156066036Y-89827247D01*
X156101813Y-89829352D01*
X156156529Y-89816724D01*
X156251231Y-89743068D01*
X156272276Y-89696769D01*
X156274381Y-89665202D01*
X156259649Y-89616799D01*
X156192305Y-89549456D01*
X156139694Y-89530515D01*
X156103917Y-89528411D01*
X156049200Y-89541038D01*
X155376190Y-99607440D02*
X155733333Y-99652083D01*
X155804762Y-99684821D01*
X155852381Y-99738393D01*
X155876190Y-99812797D01*
X155876190Y-99860416D01*
X155376190Y-99416964D02*
X155376190Y-99083631D01*
X155876190Y-99360417D01*
X122326190Y-94895535D02*
X122683333Y-94940178D01*
X122754762Y-94972916D01*
X122802381Y-95026488D01*
X122826190Y-95100892D01*
X122826190Y-95148511D01*
X122826190Y-94458036D02*
X122826190Y-94743750D01*
X122826190Y-94600893D02*
X122326190Y-94538393D01*
X122397619Y-94594940D01*
X122445238Y-94648512D01*
X122469048Y-94699107D01*
X122326190Y-94228869D02*
X122326190Y-93919346D01*
X122516667Y-94109821D01*
X122516667Y-94038393D01*
X122540476Y-93993750D01*
X122564286Y-93972917D01*
X122611905Y-93955060D01*
X122730952Y-93969941D01*
X122778571Y-93999702D01*
X122802381Y-94026489D01*
X122826190Y-94077084D01*
X122826190Y-94219941D01*
X122802381Y-94264584D01*
X122778571Y-94285416D01*
X136029465Y-111651190D02*
X135984822Y-112008333D01*
X135952084Y-112079762D01*
X135898512Y-112127381D01*
X135824108Y-112151190D01*
X135776489Y-112151190D01*
X136466964Y-112151190D02*
X136181250Y-112151190D01*
X136324107Y-112151190D02*
X136386607Y-111651190D01*
X136330060Y-111722619D01*
X136276488Y-111770238D01*
X136225893Y-111794048D01*
X136838988Y-111651190D02*
X136886607Y-111651190D01*
X136931250Y-111675000D01*
X136952083Y-111698810D01*
X136969940Y-111746429D01*
X136981845Y-111841667D01*
X136966964Y-111960714D01*
X136931250Y-112055952D01*
X136901488Y-112103571D01*
X136874702Y-112127381D01*
X136824107Y-112151190D01*
X136776488Y-112151190D01*
X136731845Y-112127381D01*
X136711012Y-112103571D01*
X136693155Y-112055952D01*
X136681250Y-111960714D01*
X136696131Y-111841667D01*
X136731845Y-111746429D01*
X136761607Y-111698810D01*
X136788393Y-111675000D01*
X136838988Y-111651190D01*
X121806605Y-103994379D02*
X121522499Y-104215350D01*
X121448842Y-104242709D01*
X121377289Y-104238499D01*
X121307842Y-104202723D01*
X121274171Y-104169052D01*
X121762410Y-104657291D02*
X121560380Y-104455261D01*
X121661395Y-104556276D02*
X122059143Y-104246917D01*
X121968650Y-104257440D01*
X121897097Y-104253231D01*
X121844485Y-104234291D01*
X122256964Y-104512083D02*
X122292740Y-104514187D01*
X122345353Y-104533127D01*
X122429532Y-104617306D01*
X122444263Y-104665709D01*
X122442158Y-104697277D01*
X122421113Y-104743575D01*
X122383232Y-104773038D01*
X122309577Y-104800397D01*
X121880262Y-104775143D01*
X122099127Y-104994008D01*
X152162738Y-107925036D02*
X152383709Y-108209142D01*
X152411067Y-108282799D01*
X152406858Y-108354352D01*
X152371082Y-108423799D01*
X152337410Y-108457471D01*
X152514187Y-107876633D02*
X152465784Y-107891365D01*
X152434217Y-107889260D01*
X152387917Y-107868216D01*
X152373186Y-107849276D01*
X152360560Y-107794559D01*
X152362664Y-107758783D01*
X152381604Y-107706171D01*
X152448947Y-107638827D01*
X152497351Y-107624096D01*
X152528919Y-107626200D01*
X152575217Y-107647246D01*
X152589948Y-107666186D01*
X152602575Y-107720902D01*
X152600471Y-107756678D01*
X152581530Y-107809290D01*
X152514187Y-107876633D01*
X152495246Y-107929246D01*
X152493142Y-107965022D01*
X152505769Y-108019738D01*
X152564694Y-108095500D01*
X152610993Y-108116544D01*
X152642560Y-108118650D01*
X152690963Y-108103918D01*
X152758306Y-108036575D01*
X152777247Y-107983963D01*
X152779352Y-107948186D01*
X152766724Y-107893470D01*
X152707799Y-107817708D01*
X152661501Y-107796663D01*
X152629933Y-107794560D01*
X152581530Y-107809290D01*
X125394379Y-86218395D02*
X125615350Y-86502501D01*
X125642709Y-86576158D01*
X125638499Y-86647711D01*
X125602723Y-86717158D01*
X125569052Y-86750829D01*
X126057291Y-86262590D02*
X125855261Y-86464620D01*
X125956276Y-86363605D02*
X125646917Y-85965857D01*
X125657440Y-86056350D01*
X125653231Y-86127903D01*
X125634291Y-86180515D01*
X126154098Y-85694379D02*
X126360337Y-85959544D01*
X125952067Y-85627036D02*
X126088859Y-85995320D01*
X126307726Y-85776454D01*
X141466667Y-99853571D02*
X141442857Y-99877381D01*
X141371429Y-99901190D01*
X141323810Y-99901190D01*
X141252381Y-99877381D01*
X141204762Y-99829762D01*
X141180953Y-99782143D01*
X141157143Y-99686905D01*
X141157143Y-99615476D01*
X141180953Y-99520238D01*
X141204762Y-99472619D01*
X141252381Y-99425000D01*
X141323810Y-99401190D01*
X141371429Y-99401190D01*
X141442857Y-99425000D01*
X141466667Y-99448810D01*
X141657143Y-99448810D02*
X141680953Y-99425000D01*
X141728572Y-99401190D01*
X141847619Y-99401190D01*
X141895238Y-99425000D01*
X141919048Y-99448810D01*
X141942857Y-99496429D01*
X141942857Y-99544048D01*
X141919048Y-99615476D01*
X141633334Y-99901190D01*
X141942857Y-99901190D01*
X141691667Y-93853571D02*
X141667857Y-93877381D01*
X141596429Y-93901190D01*
X141548810Y-93901190D01*
X141477381Y-93877381D01*
X141429762Y-93829762D01*
X141405953Y-93782143D01*
X141382143Y-93686905D01*
X141382143Y-93615476D01*
X141405953Y-93520238D01*
X141429762Y-93472619D01*
X141477381Y-93425000D01*
X141548810Y-93401190D01*
X141596429Y-93401190D01*
X141667857Y-93425000D01*
X141691667Y-93448810D01*
X141858334Y-93401190D02*
X142167857Y-93401190D01*
X142001191Y-93591667D01*
X142072619Y-93591667D01*
X142120238Y-93615476D01*
X142144048Y-93639286D01*
X142167857Y-93686905D01*
X142167857Y-93805952D01*
X142144048Y-93853571D01*
X142120238Y-93877381D01*
X142072619Y-93901190D01*
X141929762Y-93901190D01*
X141882143Y-93877381D01*
X141858334Y-93853571D01*
X152251190Y-97294047D02*
X151751190Y-97294047D01*
X151751190Y-97175000D01*
X151775000Y-97103571D01*
X151822619Y-97055952D01*
X151870238Y-97032143D01*
X151965476Y-97008333D01*
X152036905Y-97008333D01*
X152132143Y-97032143D01*
X152179762Y-97055952D01*
X152227381Y-97103571D01*
X152251190Y-97175000D01*
X152251190Y-97294047D01*
X152251190Y-96532143D02*
X152251190Y-96817857D01*
X152251190Y-96675000D02*
X151751190Y-96675000D01*
X151822619Y-96722619D01*
X151870238Y-96770238D01*
X151894048Y-96817857D01*
X150176190Y-94683333D02*
X149938095Y-94850000D01*
X150176190Y-94969047D02*
X149676190Y-94969047D01*
X149676190Y-94778571D01*
X149700000Y-94730952D01*
X149723810Y-94707143D01*
X149771429Y-94683333D01*
X149842857Y-94683333D01*
X149890476Y-94707143D01*
X149914286Y-94730952D01*
X149938095Y-94778571D01*
X149938095Y-94969047D01*
X150176190Y-94207143D02*
X150176190Y-94492857D01*
X150176190Y-94350000D02*
X149676190Y-94350000D01*
X149747619Y-94397619D01*
X149795238Y-94445238D01*
X149819048Y-94492857D01*
X133351190Y-96833333D02*
X133113095Y-97000000D01*
X133351190Y-97119047D02*
X132851190Y-97119047D01*
X132851190Y-96928571D01*
X132875000Y-96880952D01*
X132898810Y-96857143D01*
X132946429Y-96833333D01*
X133017857Y-96833333D01*
X133065476Y-96857143D01*
X133089286Y-96880952D01*
X133113095Y-96928571D01*
X133113095Y-97119047D01*
X133017857Y-96404762D02*
X133351190Y-96404762D01*
X132827381Y-96523809D02*
X133184524Y-96642857D01*
X133184524Y-96333333D01*
X101301190Y-99421428D02*
X101063095Y-99588095D01*
X101301190Y-99707142D02*
X100801190Y-99707142D01*
X100801190Y-99516666D01*
X100825000Y-99469047D01*
X100848810Y-99445238D01*
X100896429Y-99421428D01*
X100967857Y-99421428D01*
X101015476Y-99445238D01*
X101039286Y-99469047D01*
X101063095Y-99516666D01*
X101063095Y-99707142D01*
X101301190Y-98945238D02*
X101301190Y-99230952D01*
X101301190Y-99088095D02*
X100801190Y-99088095D01*
X100872619Y-99135714D01*
X100920238Y-99183333D01*
X100944048Y-99230952D01*
X100801190Y-98492857D02*
X100801190Y-98730952D01*
X101039286Y-98754762D01*
X101015476Y-98730952D01*
X100991667Y-98683333D01*
X100991667Y-98564286D01*
X101015476Y-98516667D01*
X101039286Y-98492857D01*
X101086905Y-98469048D01*
X101205952Y-98469048D01*
X101253571Y-98492857D01*
X101277381Y-98516667D01*
X101301190Y-98564286D01*
X101301190Y-98683333D01*
X101277381Y-98730952D01*
X101253571Y-98754762D01*
X101326190Y-96771428D02*
X101088095Y-96938095D01*
X101326190Y-97057142D02*
X100826190Y-97057142D01*
X100826190Y-96866666D01*
X100850000Y-96819047D01*
X100873810Y-96795238D01*
X100921429Y-96771428D01*
X100992857Y-96771428D01*
X101040476Y-96795238D01*
X101064286Y-96819047D01*
X101088095Y-96866666D01*
X101088095Y-97057142D01*
X101326190Y-96295238D02*
X101326190Y-96580952D01*
X101326190Y-96438095D02*
X100826190Y-96438095D01*
X100897619Y-96485714D01*
X100945238Y-96533333D01*
X100969048Y-96580952D01*
X100826190Y-95866667D02*
X100826190Y-95961905D01*
X100850000Y-96009524D01*
X100873810Y-96033333D01*
X100945238Y-96080952D01*
X101040476Y-96104762D01*
X101230952Y-96104762D01*
X101278571Y-96080952D01*
X101302381Y-96057143D01*
X101326190Y-96009524D01*
X101326190Y-95914286D01*
X101302381Y-95866667D01*
X101278571Y-95842857D01*
X101230952Y-95819048D01*
X101111905Y-95819048D01*
X101064286Y-95842857D01*
X101040476Y-95866667D01*
X101016667Y-95914286D01*
X101016667Y-96009524D01*
X101040476Y-96057143D01*
X101064286Y-96080952D01*
X101111905Y-96104762D01*
X101301190Y-93921428D02*
X101063095Y-94088095D01*
X101301190Y-94207142D02*
X100801190Y-94207142D01*
X100801190Y-94016666D01*
X100825000Y-93969047D01*
X100848810Y-93945238D01*
X100896429Y-93921428D01*
X100967857Y-93921428D01*
X101015476Y-93945238D01*
X101039286Y-93969047D01*
X101063095Y-94016666D01*
X101063095Y-94207142D01*
X101301190Y-93445238D02*
X101301190Y-93730952D01*
X101301190Y-93588095D02*
X100801190Y-93588095D01*
X100872619Y-93635714D01*
X100920238Y-93683333D01*
X100944048Y-93730952D01*
X100801190Y-93278571D02*
X100801190Y-92945238D01*
X101301190Y-93159524D01*
X109519048Y-93051190D02*
X109519048Y-93455952D01*
X109542857Y-93503571D01*
X109566667Y-93527381D01*
X109614286Y-93551190D01*
X109709524Y-93551190D01*
X109757143Y-93527381D01*
X109780952Y-93503571D01*
X109804762Y-93455952D01*
X109804762Y-93051190D01*
X110257143Y-93217857D02*
X110257143Y-93551190D01*
X110138096Y-93027381D02*
X110019048Y-93384524D01*
X110328572Y-93384524D01*
X110054762Y-99403571D02*
X110030952Y-99427381D01*
X109959524Y-99451190D01*
X109911905Y-99451190D01*
X109840476Y-99427381D01*
X109792857Y-99379762D01*
X109769048Y-99332143D01*
X109745238Y-99236905D01*
X109745238Y-99165476D01*
X109769048Y-99070238D01*
X109792857Y-99022619D01*
X109840476Y-98975000D01*
X109911905Y-98951190D01*
X109959524Y-98951190D01*
X110030952Y-98975000D01*
X110054762Y-98998810D01*
X170178571Y-111008333D02*
X170202381Y-111032143D01*
X170226190Y-111103571D01*
X170226190Y-111151190D01*
X170202381Y-111222619D01*
X170154762Y-111270238D01*
X170107143Y-111294047D01*
X170011905Y-111317857D01*
X169940476Y-111317857D01*
X169845238Y-111294047D01*
X169797619Y-111270238D01*
X169750000Y-111222619D01*
X169726190Y-111151190D01*
X169726190Y-111103571D01*
X169750000Y-111032143D01*
X169773810Y-111008333D01*
X169726190Y-110841666D02*
X169726190Y-110508333D01*
X170226190Y-110722619D01*
X170178571Y-112033333D02*
X170202381Y-112057143D01*
X170226190Y-112128571D01*
X170226190Y-112176190D01*
X170202381Y-112247619D01*
X170154762Y-112295238D01*
X170107143Y-112319047D01*
X170011905Y-112342857D01*
X169940476Y-112342857D01*
X169845238Y-112319047D01*
X169797619Y-112295238D01*
X169750000Y-112247619D01*
X169726190Y-112176190D01*
X169726190Y-112128571D01*
X169750000Y-112057143D01*
X169773810Y-112033333D01*
X169940476Y-111747619D02*
X169916667Y-111795238D01*
X169892857Y-111819047D01*
X169845238Y-111842857D01*
X169821429Y-111842857D01*
X169773810Y-111819047D01*
X169750000Y-111795238D01*
X169726190Y-111747619D01*
X169726190Y-111652381D01*
X169750000Y-111604762D01*
X169773810Y-111580952D01*
X169821429Y-111557143D01*
X169845238Y-111557143D01*
X169892857Y-111580952D01*
X169916667Y-111604762D01*
X169940476Y-111652381D01*
X169940476Y-111747619D01*
X169964286Y-111795238D01*
X169988095Y-111819047D01*
X170035714Y-111842857D01*
X170130952Y-111842857D01*
X170178571Y-111819047D01*
X170202381Y-111795238D01*
X170226190Y-111747619D01*
X170226190Y-111652381D01*
X170202381Y-111604762D01*
X170178571Y-111580952D01*
X170130952Y-111557143D01*
X170035714Y-111557143D01*
X169988095Y-111580952D01*
X169964286Y-111604762D01*
X169940476Y-111652381D01*
X102228571Y-124508333D02*
X102252381Y-124532143D01*
X102276190Y-124603571D01*
X102276190Y-124651190D01*
X102252381Y-124722619D01*
X102204762Y-124770238D01*
X102157143Y-124794047D01*
X102061905Y-124817857D01*
X101990476Y-124817857D01*
X101895238Y-124794047D01*
X101847619Y-124770238D01*
X101800000Y-124722619D01*
X101776190Y-124651190D01*
X101776190Y-124603571D01*
X101800000Y-124532143D01*
X101823810Y-124508333D01*
X102276190Y-124270238D02*
X102276190Y-124175000D01*
X102252381Y-124127381D01*
X102228571Y-124103571D01*
X102157143Y-124055952D01*
X102061905Y-124032143D01*
X101871429Y-124032143D01*
X101823810Y-124055952D01*
X101800000Y-124079762D01*
X101776190Y-124127381D01*
X101776190Y-124222619D01*
X101800000Y-124270238D01*
X101823810Y-124294047D01*
X101871429Y-124317857D01*
X101990476Y-124317857D01*
X102038095Y-124294047D01*
X102061905Y-124270238D01*
X102085714Y-124222619D01*
X102085714Y-124127381D01*
X102061905Y-124079762D01*
X102038095Y-124055952D01*
X101990476Y-124032143D01*
X102228571Y-123771428D02*
X102252381Y-123795238D01*
X102276190Y-123866666D01*
X102276190Y-123914285D01*
X102252381Y-123985714D01*
X102204762Y-124033333D01*
X102157143Y-124057142D01*
X102061905Y-124080952D01*
X101990476Y-124080952D01*
X101895238Y-124057142D01*
X101847619Y-124033333D01*
X101800000Y-123985714D01*
X101776190Y-123914285D01*
X101776190Y-123866666D01*
X101800000Y-123795238D01*
X101823810Y-123771428D01*
X102276190Y-123295238D02*
X102276190Y-123580952D01*
X102276190Y-123438095D02*
X101776190Y-123438095D01*
X101847619Y-123485714D01*
X101895238Y-123533333D01*
X101919048Y-123580952D01*
X101776190Y-122985714D02*
X101776190Y-122938095D01*
X101800000Y-122890476D01*
X101823810Y-122866667D01*
X101871429Y-122842857D01*
X101966667Y-122819048D01*
X102085714Y-122819048D01*
X102180952Y-122842857D01*
X102228571Y-122866667D01*
X102252381Y-122890476D01*
X102276190Y-122938095D01*
X102276190Y-122985714D01*
X102252381Y-123033333D01*
X102228571Y-123057143D01*
X102180952Y-123080952D01*
X102085714Y-123104762D01*
X101966667Y-123104762D01*
X101871429Y-123080952D01*
X101823810Y-123057143D01*
X101800000Y-123033333D01*
X101776190Y-122985714D01*
X164819048Y-109226190D02*
X164819048Y-109630952D01*
X164842857Y-109678571D01*
X164866667Y-109702381D01*
X164914286Y-109726190D01*
X165009524Y-109726190D01*
X165057143Y-109702381D01*
X165080952Y-109678571D01*
X165104762Y-109630952D01*
X165104762Y-109226190D01*
X165580953Y-109226190D02*
X165342858Y-109226190D01*
X165319048Y-109464286D01*
X165342858Y-109440476D01*
X165390477Y-109416667D01*
X165509524Y-109416667D01*
X165557143Y-109440476D01*
X165580953Y-109464286D01*
X165604762Y-109511905D01*
X165604762Y-109630952D01*
X165580953Y-109678571D01*
X165557143Y-109702381D01*
X165509524Y-109726190D01*
X165390477Y-109726190D01*
X165342858Y-109702381D01*
X165319048Y-109678571D01*
X96944048Y-121776190D02*
X96944048Y-122180952D01*
X96967857Y-122228571D01*
X96991667Y-122252381D01*
X97039286Y-122276190D01*
X97134524Y-122276190D01*
X97182143Y-122252381D01*
X97205952Y-122228571D01*
X97229762Y-122180952D01*
X97229762Y-121776190D01*
X97682143Y-121776190D02*
X97586905Y-121776190D01*
X97539286Y-121800000D01*
X97515477Y-121823810D01*
X97467858Y-121895238D01*
X97444048Y-121990476D01*
X97444048Y-122180952D01*
X97467858Y-122228571D01*
X97491667Y-122252381D01*
X97539286Y-122276190D01*
X97634524Y-122276190D01*
X97682143Y-122252381D01*
X97705953Y-122228571D01*
X97729762Y-122180952D01*
X97729762Y-122061905D01*
X97705953Y-122014286D01*
X97682143Y-121990476D01*
X97634524Y-121966667D01*
X97539286Y-121966667D01*
X97491667Y-121990476D01*
X97467858Y-122014286D01*
X97444048Y-122061905D01*
X114658571Y-125546428D02*
X114682381Y-125570238D01*
X114706190Y-125641666D01*
X114706190Y-125689285D01*
X114682381Y-125760714D01*
X114634762Y-125808333D01*
X114587143Y-125832142D01*
X114491905Y-125855952D01*
X114420476Y-125855952D01*
X114325238Y-125832142D01*
X114277619Y-125808333D01*
X114230000Y-125760714D01*
X114206190Y-125689285D01*
X114206190Y-125641666D01*
X114230000Y-125570238D01*
X114253810Y-125546428D01*
X114706190Y-125070238D02*
X114706190Y-125355952D01*
X114706190Y-125213095D02*
X114206190Y-125213095D01*
X114277619Y-125260714D01*
X114325238Y-125308333D01*
X114349048Y-125355952D01*
X114706190Y-124594048D02*
X114706190Y-124879762D01*
X114706190Y-124736905D02*
X114206190Y-124736905D01*
X114277619Y-124784524D01*
X114325238Y-124832143D01*
X114349048Y-124879762D01*
X117198571Y-123096428D02*
X117222381Y-123120238D01*
X117246190Y-123191666D01*
X117246190Y-123239285D01*
X117222381Y-123310714D01*
X117174762Y-123358333D01*
X117127143Y-123382142D01*
X117031905Y-123405952D01*
X116960476Y-123405952D01*
X116865238Y-123382142D01*
X116817619Y-123358333D01*
X116770000Y-123310714D01*
X116746190Y-123239285D01*
X116746190Y-123191666D01*
X116770000Y-123120238D01*
X116793810Y-123096428D01*
X117246190Y-122620238D02*
X117246190Y-122905952D01*
X117246190Y-122763095D02*
X116746190Y-122763095D01*
X116817619Y-122810714D01*
X116865238Y-122858333D01*
X116889048Y-122905952D01*
X116793810Y-122429762D02*
X116770000Y-122405952D01*
X116746190Y-122358333D01*
X116746190Y-122239286D01*
X116770000Y-122191667D01*
X116793810Y-122167857D01*
X116841429Y-122144048D01*
X116889048Y-122144048D01*
X116960476Y-122167857D01*
X117246190Y-122453571D01*
X117246190Y-122144048D01*
X124658571Y-125546428D02*
X124682381Y-125570238D01*
X124706190Y-125641666D01*
X124706190Y-125689285D01*
X124682381Y-125760714D01*
X124634762Y-125808333D01*
X124587143Y-125832142D01*
X124491905Y-125855952D01*
X124420476Y-125855952D01*
X124325238Y-125832142D01*
X124277619Y-125808333D01*
X124230000Y-125760714D01*
X124206190Y-125689285D01*
X124206190Y-125641666D01*
X124230000Y-125570238D01*
X124253810Y-125546428D01*
X124706190Y-125070238D02*
X124706190Y-125355952D01*
X124706190Y-125213095D02*
X124206190Y-125213095D01*
X124277619Y-125260714D01*
X124325238Y-125308333D01*
X124349048Y-125355952D01*
X124206190Y-124903571D02*
X124206190Y-124594048D01*
X124396667Y-124760714D01*
X124396667Y-124689286D01*
X124420476Y-124641667D01*
X124444286Y-124617857D01*
X124491905Y-124594048D01*
X124610952Y-124594048D01*
X124658571Y-124617857D01*
X124682381Y-124641667D01*
X124706190Y-124689286D01*
X124706190Y-124832143D01*
X124682381Y-124879762D01*
X124658571Y-124903571D01*
X127198571Y-123096428D02*
X127222381Y-123120238D01*
X127246190Y-123191666D01*
X127246190Y-123239285D01*
X127222381Y-123310714D01*
X127174762Y-123358333D01*
X127127143Y-123382142D01*
X127031905Y-123405952D01*
X126960476Y-123405952D01*
X126865238Y-123382142D01*
X126817619Y-123358333D01*
X126770000Y-123310714D01*
X126746190Y-123239285D01*
X126746190Y-123191666D01*
X126770000Y-123120238D01*
X126793810Y-123096428D01*
X127246190Y-122620238D02*
X127246190Y-122905952D01*
X127246190Y-122763095D02*
X126746190Y-122763095D01*
X126817619Y-122810714D01*
X126865238Y-122858333D01*
X126889048Y-122905952D01*
X126912857Y-122191667D02*
X127246190Y-122191667D01*
X126722381Y-122310714D02*
X127079524Y-122429762D01*
X127079524Y-122120238D01*
X91658571Y-125546428D02*
X91682381Y-125570238D01*
X91706190Y-125641666D01*
X91706190Y-125689285D01*
X91682381Y-125760714D01*
X91634762Y-125808333D01*
X91587143Y-125832142D01*
X91491905Y-125855952D01*
X91420476Y-125855952D01*
X91325238Y-125832142D01*
X91277619Y-125808333D01*
X91230000Y-125760714D01*
X91206190Y-125689285D01*
X91206190Y-125641666D01*
X91230000Y-125570238D01*
X91253810Y-125546428D01*
X91706190Y-125070238D02*
X91706190Y-125355952D01*
X91706190Y-125213095D02*
X91206190Y-125213095D01*
X91277619Y-125260714D01*
X91325238Y-125308333D01*
X91349048Y-125355952D01*
X91206190Y-124617857D02*
X91206190Y-124855952D01*
X91444286Y-124879762D01*
X91420476Y-124855952D01*
X91396667Y-124808333D01*
X91396667Y-124689286D01*
X91420476Y-124641667D01*
X91444286Y-124617857D01*
X91491905Y-124594048D01*
X91610952Y-124594048D01*
X91658571Y-124617857D01*
X91682381Y-124641667D01*
X91706190Y-124689286D01*
X91706190Y-124808333D01*
X91682381Y-124855952D01*
X91658571Y-124879762D01*
X94198571Y-123096428D02*
X94222381Y-123120238D01*
X94246190Y-123191666D01*
X94246190Y-123239285D01*
X94222381Y-123310714D01*
X94174762Y-123358333D01*
X94127143Y-123382142D01*
X94031905Y-123405952D01*
X93960476Y-123405952D01*
X93865238Y-123382142D01*
X93817619Y-123358333D01*
X93770000Y-123310714D01*
X93746190Y-123239285D01*
X93746190Y-123191666D01*
X93770000Y-123120238D01*
X93793810Y-123096428D01*
X94246190Y-122620238D02*
X94246190Y-122905952D01*
X94246190Y-122763095D02*
X93746190Y-122763095D01*
X93817619Y-122810714D01*
X93865238Y-122858333D01*
X93889048Y-122905952D01*
X93746190Y-122191667D02*
X93746190Y-122286905D01*
X93770000Y-122334524D01*
X93793810Y-122358333D01*
X93865238Y-122405952D01*
X93960476Y-122429762D01*
X94150952Y-122429762D01*
X94198571Y-122405952D01*
X94222381Y-122382143D01*
X94246190Y-122334524D01*
X94246190Y-122239286D01*
X94222381Y-122191667D01*
X94198571Y-122167857D01*
X94150952Y-122144048D01*
X94031905Y-122144048D01*
X93984286Y-122167857D01*
X93960476Y-122191667D01*
X93936667Y-122239286D01*
X93936667Y-122334524D01*
X93960476Y-122382143D01*
X93984286Y-122405952D01*
X94031905Y-122429762D01*
X109944048Y-121676190D02*
X109944048Y-122080952D01*
X109967857Y-122128571D01*
X109991667Y-122152381D01*
X110039286Y-122176190D01*
X110134524Y-122176190D01*
X110182143Y-122152381D01*
X110205952Y-122128571D01*
X110229762Y-122080952D01*
X110229762Y-121676190D01*
X110420239Y-121676190D02*
X110753572Y-121676190D01*
X110539286Y-122176190D01*
X119944048Y-121826190D02*
X119944048Y-122230952D01*
X119967857Y-122278571D01*
X119991667Y-122302381D01*
X120039286Y-122326190D01*
X120134524Y-122326190D01*
X120182143Y-122302381D01*
X120205952Y-122278571D01*
X120229762Y-122230952D01*
X120229762Y-121826190D01*
X120539286Y-122040476D02*
X120491667Y-122016667D01*
X120467858Y-121992857D01*
X120444048Y-121945238D01*
X120444048Y-121921429D01*
X120467858Y-121873810D01*
X120491667Y-121850000D01*
X120539286Y-121826190D01*
X120634524Y-121826190D01*
X120682143Y-121850000D01*
X120705953Y-121873810D01*
X120729762Y-121921429D01*
X120729762Y-121945238D01*
X120705953Y-121992857D01*
X120682143Y-122016667D01*
X120634524Y-122040476D01*
X120539286Y-122040476D01*
X120491667Y-122064286D01*
X120467858Y-122088095D01*
X120444048Y-122135714D01*
X120444048Y-122230952D01*
X120467858Y-122278571D01*
X120491667Y-122302381D01*
X120539286Y-122326190D01*
X120634524Y-122326190D01*
X120682143Y-122302381D01*
X120705953Y-122278571D01*
X120729762Y-122230952D01*
X120729762Y-122135714D01*
X120705953Y-122088095D01*
X120682143Y-122064286D01*
X120634524Y-122040476D01*
X86944048Y-121851190D02*
X86944048Y-122255952D01*
X86967857Y-122303571D01*
X86991667Y-122327381D01*
X87039286Y-122351190D01*
X87134524Y-122351190D01*
X87182143Y-122327381D01*
X87205952Y-122303571D01*
X87229762Y-122255952D01*
X87229762Y-121851190D01*
X87491667Y-122351190D02*
X87586905Y-122351190D01*
X87634524Y-122327381D01*
X87658334Y-122303571D01*
X87705953Y-122232143D01*
X87729762Y-122136905D01*
X87729762Y-121946429D01*
X87705953Y-121898810D01*
X87682143Y-121875000D01*
X87634524Y-121851190D01*
X87539286Y-121851190D01*
X87491667Y-121875000D01*
X87467858Y-121898810D01*
X87444048Y-121946429D01*
X87444048Y-122065476D01*
X87467858Y-122113095D01*
X87491667Y-122136905D01*
X87539286Y-122160714D01*
X87634524Y-122160714D01*
X87682143Y-122136905D01*
X87705953Y-122113095D01*
X87729762Y-122065476D01*
X141658571Y-125546428D02*
X141682381Y-125570238D01*
X141706190Y-125641666D01*
X141706190Y-125689285D01*
X141682381Y-125760714D01*
X141634762Y-125808333D01*
X141587143Y-125832142D01*
X141491905Y-125855952D01*
X141420476Y-125855952D01*
X141325238Y-125832142D01*
X141277619Y-125808333D01*
X141230000Y-125760714D01*
X141206190Y-125689285D01*
X141206190Y-125641666D01*
X141230000Y-125570238D01*
X141253810Y-125546428D01*
X141706190Y-125070238D02*
X141706190Y-125355952D01*
X141706190Y-125213095D02*
X141206190Y-125213095D01*
X141277619Y-125260714D01*
X141325238Y-125308333D01*
X141349048Y-125355952D01*
X141206190Y-124903571D02*
X141206190Y-124570238D01*
X141706190Y-124784524D01*
X144198571Y-123096428D02*
X144222381Y-123120238D01*
X144246190Y-123191666D01*
X144246190Y-123239285D01*
X144222381Y-123310714D01*
X144174762Y-123358333D01*
X144127143Y-123382142D01*
X144031905Y-123405952D01*
X143960476Y-123405952D01*
X143865238Y-123382142D01*
X143817619Y-123358333D01*
X143770000Y-123310714D01*
X143746190Y-123239285D01*
X143746190Y-123191666D01*
X143770000Y-123120238D01*
X143793810Y-123096428D01*
X144246190Y-122620238D02*
X144246190Y-122905952D01*
X144246190Y-122763095D02*
X143746190Y-122763095D01*
X143817619Y-122810714D01*
X143865238Y-122858333D01*
X143889048Y-122905952D01*
X143960476Y-122334524D02*
X143936667Y-122382143D01*
X143912857Y-122405952D01*
X143865238Y-122429762D01*
X143841429Y-122429762D01*
X143793810Y-122405952D01*
X143770000Y-122382143D01*
X143746190Y-122334524D01*
X143746190Y-122239286D01*
X143770000Y-122191667D01*
X143793810Y-122167857D01*
X143841429Y-122144048D01*
X143865238Y-122144048D01*
X143912857Y-122167857D01*
X143936667Y-122191667D01*
X143960476Y-122239286D01*
X143960476Y-122334524D01*
X143984286Y-122382143D01*
X144008095Y-122405952D01*
X144055714Y-122429762D01*
X144150952Y-122429762D01*
X144198571Y-122405952D01*
X144222381Y-122382143D01*
X144246190Y-122334524D01*
X144246190Y-122239286D01*
X144222381Y-122191667D01*
X144198571Y-122167857D01*
X144150952Y-122144048D01*
X144055714Y-122144048D01*
X144008095Y-122167857D01*
X143984286Y-122191667D01*
X143960476Y-122239286D01*
X136655953Y-121726190D02*
X136655953Y-122130952D01*
X136679762Y-122178571D01*
X136703572Y-122202381D01*
X136751191Y-122226190D01*
X136846429Y-122226190D01*
X136894048Y-122202381D01*
X136917857Y-122178571D01*
X136941667Y-122130952D01*
X136941667Y-121726190D01*
X137441667Y-122226190D02*
X137155953Y-122226190D01*
X137298810Y-122226190D02*
X137298810Y-121726190D01*
X137251191Y-121797619D01*
X137203572Y-121845238D01*
X137155953Y-121869048D01*
X137751191Y-121726190D02*
X137798810Y-121726190D01*
X137846429Y-121750000D01*
X137870238Y-121773810D01*
X137894048Y-121821429D01*
X137917857Y-121916667D01*
X137917857Y-122035714D01*
X137894048Y-122130952D01*
X137870238Y-122178571D01*
X137846429Y-122202381D01*
X137798810Y-122226190D01*
X137751191Y-122226190D01*
X137703572Y-122202381D01*
X137679762Y-122178571D01*
X137655953Y-122130952D01*
X137632143Y-122035714D01*
X137632143Y-121916667D01*
X137655953Y-121821429D01*
X137679762Y-121773810D01*
X137703572Y-121750000D01*
X137751191Y-121726190D01*
M02*
