G04 #@! TF.FileFunction,Copper,L1,Top,Plane*
%FSLAX46Y46*%
G04 Gerber Fmt 4.6, Leading zero omitted, Abs format (unit mm)*
G04 Created by KiCad (PCBNEW 4.0.7-e2-6376~58~ubuntu16.04.1) date Fri Aug  3 14:44:38 2018*
%MOMM*%
%LPD*%
G01*
G04 APERTURE LIST*
%ADD10C,0.100000*%
%ADD11C,1.050000*%
%ADD12R,1.050000X1.050000*%
%ADD13R,0.500000X1.250000*%
%ADD14R,0.500000X0.500000*%
%ADD15R,0.250000X0.250000*%
%ADD16R,1.250000X0.500000*%
%ADD17R,0.600000X0.500000*%
%ADD18R,0.700000X0.600000*%
%ADD19R,0.600000X0.400000*%
%ADD20R,3.600000X0.800000*%
%ADD21R,2.600000X0.700000*%
%ADD22R,2.600000X0.800000*%
%ADD23R,0.500000X0.600000*%
%ADD24C,0.600000*%
%ADD25C,0.500000*%
%ADD26C,0.250000*%
%ADD27C,0.300000*%
%ADD28C,0.400000*%
%ADD29C,0.351000*%
G04 APERTURE END LIST*
D10*
D11*
X130000000Y-86000000D03*
X146000000Y-86000000D03*
D12*
X148000000Y-86000000D03*
D11*
X134000000Y-86000000D03*
X132000000Y-86000000D03*
X144000000Y-86000000D03*
X142000000Y-86000000D03*
X136000000Y-86000000D03*
X138000000Y-86000000D03*
X140000000Y-86000000D03*
D13*
X132230000Y-80540000D03*
X129730000Y-80540000D03*
X127230000Y-80540000D03*
X141510000Y-80570000D03*
X139010000Y-80570000D03*
X136510000Y-80570000D03*
X150780000Y-80550000D03*
X148280000Y-80550000D03*
X145780000Y-80550000D03*
X145790000Y-113450000D03*
X148290000Y-113450000D03*
X150790000Y-113450000D03*
X127220000Y-113390000D03*
X129720000Y-113390000D03*
X132220000Y-113390000D03*
D14*
X139340000Y-97560000D03*
X138540000Y-97560000D03*
X137740000Y-97560000D03*
X136940000Y-97560000D03*
X136140000Y-97560000D03*
X136140000Y-96760000D03*
X136140000Y-95960000D03*
X136940000Y-95960000D03*
X137740000Y-95960000D03*
X138540000Y-95960000D03*
X139340000Y-95960000D03*
X139340000Y-96760000D03*
D15*
X139640000Y-97435000D03*
D10*
G36*
X157756485Y-88132602D02*
X156872602Y-89016485D01*
X156519049Y-88662932D01*
X157402932Y-87779049D01*
X157756485Y-88132602D01*
X157756485Y-88132602D01*
G37*
G36*
X155988718Y-86364835D02*
X155104835Y-87248718D01*
X154751282Y-86895165D01*
X155635165Y-86011282D01*
X155988718Y-86364835D01*
X155988718Y-86364835D01*
G37*
G36*
X154220951Y-84597068D02*
X153337068Y-85480951D01*
X152983515Y-85127398D01*
X153867398Y-84243515D01*
X154220951Y-84597068D01*
X154220951Y-84597068D01*
G37*
D16*
X157120000Y-99500000D03*
X157120000Y-97000000D03*
X157120000Y-94500000D03*
X120860000Y-94510000D03*
X120860000Y-97010000D03*
X120860000Y-99510000D03*
D13*
X136500000Y-113450000D03*
X139000000Y-113450000D03*
X141500000Y-113450000D03*
D10*
G36*
X120243515Y-105927398D02*
X121127398Y-105043515D01*
X121480951Y-105397068D01*
X120597068Y-106280951D01*
X120243515Y-105927398D01*
X120243515Y-105927398D01*
G37*
G36*
X122011282Y-107695165D02*
X122895165Y-106811282D01*
X123248718Y-107164835D01*
X122364835Y-108048718D01*
X122011282Y-107695165D01*
X122011282Y-107695165D01*
G37*
G36*
X123779049Y-109462932D02*
X124662932Y-108579049D01*
X125016485Y-108932602D01*
X124132602Y-109816485D01*
X123779049Y-109462932D01*
X123779049Y-109462932D01*
G37*
G36*
X153887398Y-109786485D02*
X153003515Y-108902602D01*
X153357068Y-108549049D01*
X154240951Y-109432932D01*
X153887398Y-109786485D01*
X153887398Y-109786485D01*
G37*
G36*
X155655165Y-108018718D02*
X154771282Y-107134835D01*
X155124835Y-106781282D01*
X156008718Y-107665165D01*
X155655165Y-108018718D01*
X155655165Y-108018718D01*
G37*
G36*
X157422932Y-106250951D02*
X156539049Y-105367068D01*
X156892602Y-105013515D01*
X157776485Y-105897398D01*
X157422932Y-106250951D01*
X157422932Y-106250951D01*
G37*
G36*
X124152602Y-84233515D02*
X125036485Y-85117398D01*
X124682932Y-85470951D01*
X123799049Y-84587068D01*
X124152602Y-84233515D01*
X124152602Y-84233515D01*
G37*
G36*
X122384835Y-86001282D02*
X123268718Y-86885165D01*
X122915165Y-87238718D01*
X122031282Y-86354835D01*
X122384835Y-86001282D01*
X122384835Y-86001282D01*
G37*
G36*
X120617068Y-87769049D02*
X121500951Y-88652932D01*
X121147398Y-89006485D01*
X120263515Y-88122602D01*
X120617068Y-87769049D01*
X120617068Y-87769049D01*
G37*
D17*
X139350000Y-99650000D03*
X140450000Y-99650000D03*
X140650000Y-93675000D03*
X139550000Y-93675000D03*
D18*
X151025000Y-96400000D03*
X151025000Y-97500000D03*
D19*
X151025000Y-94200000D03*
X151025000Y-95100000D03*
X134150000Y-97200000D03*
X134150000Y-96300000D03*
D11*
X130000000Y-108000000D03*
X146000000Y-108000000D03*
D12*
X148000000Y-108000000D03*
D11*
X134000000Y-108000000D03*
X132000000Y-108000000D03*
X144000000Y-108000000D03*
X142000000Y-108000000D03*
X136000000Y-108000000D03*
X138000000Y-108000000D03*
X140000000Y-108000000D03*
D19*
X102100000Y-98675000D03*
X102100000Y-99575000D03*
X102100000Y-96075000D03*
X102100000Y-96975000D03*
X102100000Y-93175000D03*
X102100000Y-94075000D03*
D20*
X107350000Y-91675000D03*
D21*
X106850000Y-97175000D03*
X106850000Y-98445000D03*
X106850000Y-99715000D03*
X106850000Y-95905000D03*
X106850000Y-94635000D03*
X112950000Y-94635000D03*
X112950000Y-99715000D03*
X112950000Y-98445000D03*
X112950000Y-97175000D03*
X112950000Y-95905000D03*
D22*
X112950000Y-91675000D03*
X112950000Y-102675000D03*
X106850000Y-102675000D03*
D23*
X170700000Y-109650000D03*
X170700000Y-110750000D03*
X170700000Y-113200000D03*
X170700000Y-112100000D03*
X102750000Y-125775000D03*
X102750000Y-124675000D03*
X102750000Y-122200000D03*
X102750000Y-123300000D03*
D14*
X168750000Y-112200000D03*
X167950000Y-112200000D03*
X167150000Y-112200000D03*
X166350000Y-112200000D03*
X165550000Y-112200000D03*
X165550000Y-111400000D03*
X165550000Y-110600000D03*
X166350000Y-110600000D03*
X167150000Y-110600000D03*
X167950000Y-110600000D03*
X168750000Y-110600000D03*
X168750000Y-111400000D03*
D15*
X169050000Y-112075000D03*
D14*
X100800000Y-124775000D03*
X100000000Y-124775000D03*
X99200000Y-124775000D03*
X98400000Y-124775000D03*
X97600000Y-124775000D03*
X97600000Y-123975000D03*
X97600000Y-123175000D03*
X98400000Y-123175000D03*
X99200000Y-123175000D03*
X100000000Y-123175000D03*
X100800000Y-123175000D03*
X100800000Y-123975000D03*
D15*
X101100000Y-124650000D03*
D23*
X115750000Y-125775000D03*
X115750000Y-124675000D03*
X115750000Y-122225000D03*
X115750000Y-123325000D03*
X125750000Y-125775000D03*
X125750000Y-124675000D03*
X125750000Y-122225000D03*
X125750000Y-123325000D03*
X92750000Y-125775000D03*
X92750000Y-124675000D03*
X92750000Y-122225000D03*
X92750000Y-123325000D03*
D14*
X113800000Y-124775000D03*
X113000000Y-124775000D03*
X112200000Y-124775000D03*
X111400000Y-124775000D03*
X110600000Y-124775000D03*
X110600000Y-123975000D03*
X110600000Y-123175000D03*
X111400000Y-123175000D03*
X112200000Y-123175000D03*
X113000000Y-123175000D03*
X113800000Y-123175000D03*
X113800000Y-123975000D03*
D15*
X114100000Y-124650000D03*
D14*
X123800000Y-124775000D03*
X123000000Y-124775000D03*
X122200000Y-124775000D03*
X121400000Y-124775000D03*
X120600000Y-124775000D03*
X120600000Y-123975000D03*
X120600000Y-123175000D03*
X121400000Y-123175000D03*
X122200000Y-123175000D03*
X123000000Y-123175000D03*
X123800000Y-123175000D03*
X123800000Y-123975000D03*
D15*
X124100000Y-124650000D03*
D14*
X90800000Y-124775000D03*
X90000000Y-124775000D03*
X89200000Y-124775000D03*
X88400000Y-124775000D03*
X87600000Y-124775000D03*
X87600000Y-123975000D03*
X87600000Y-123175000D03*
X88400000Y-123175000D03*
X89200000Y-123175000D03*
X90000000Y-123175000D03*
X90800000Y-123175000D03*
X90800000Y-123975000D03*
D15*
X91100000Y-124650000D03*
D23*
X142750000Y-125775000D03*
X142750000Y-124675000D03*
X142750000Y-122225000D03*
X142750000Y-123325000D03*
D14*
X140800000Y-124775000D03*
X140000000Y-124775000D03*
X139200000Y-124775000D03*
X138400000Y-124775000D03*
X137600000Y-124775000D03*
X137600000Y-123975000D03*
X137600000Y-123175000D03*
X138400000Y-123175000D03*
X139200000Y-123175000D03*
X140000000Y-123175000D03*
X140800000Y-123175000D03*
X140800000Y-123975000D03*
D15*
X141100000Y-124650000D03*
D24*
X142625000Y-99625000D03*
X130150000Y-101880000D03*
X134400000Y-101890000D03*
X126725000Y-112575000D03*
X151420000Y-80640000D03*
X133500000Y-80750000D03*
X142720000Y-80750000D03*
X156970000Y-90180000D03*
X156970000Y-100910000D03*
X152580000Y-110030000D03*
X144450000Y-113310000D03*
X134970000Y-113310000D03*
X121050000Y-103480000D03*
X125240000Y-84160000D03*
X121050000Y-93080000D03*
X133225000Y-93200000D03*
X153825000Y-93675000D03*
X127890000Y-93330000D03*
X132220000Y-93240000D03*
X126810000Y-106760000D03*
X153830000Y-104230000D03*
X132230000Y-110020000D03*
X140260000Y-110030000D03*
X150770000Y-107350000D03*
X136510000Y-83840000D03*
X127220000Y-86850000D03*
X124360000Y-91870000D03*
X124370000Y-99490000D03*
X151370000Y-87080000D03*
X144000000Y-83840000D03*
X151020000Y-98940000D03*
X134330000Y-93240000D03*
X131890000Y-92010000D03*
X137470000Y-94700000D03*
X124270000Y-105760000D03*
X139010000Y-111220000D03*
X124220000Y-88190000D03*
X123170000Y-97000000D03*
X148290000Y-111210000D03*
X153890000Y-105900000D03*
X154970000Y-97000000D03*
X153920000Y-88070000D03*
X139010000Y-82680000D03*
X129730000Y-82680000D03*
X148290000Y-82680000D03*
X129740000Y-111220000D03*
X138150000Y-94060000D03*
X130570000Y-93630000D03*
X122600000Y-88340000D03*
X122030000Y-98250000D03*
X124370000Y-107440000D03*
X130980000Y-112290000D03*
X140260000Y-112290000D03*
X149540000Y-112290000D03*
X155410000Y-105650000D03*
X155900000Y-95750000D03*
X153660000Y-86570000D03*
X137760000Y-81810000D03*
X147030000Y-81810000D03*
X128480000Y-81810000D03*
X128750000Y-96775000D03*
X108700000Y-99050000D03*
X103800000Y-102700000D03*
X109750000Y-93700000D03*
X103800000Y-91700000D03*
X111450000Y-98450000D03*
X111450000Y-95900000D03*
X104475000Y-98575000D03*
X108350000Y-97175000D03*
X103800000Y-97200000D03*
X103800000Y-94450000D03*
X169950000Y-113200000D03*
X166750000Y-113075000D03*
X169200000Y-109275000D03*
X164700000Y-111275000D03*
X167950000Y-109050000D03*
D25*
X142600000Y-99650000D02*
X140450000Y-99650000D01*
X142625000Y-99625000D02*
X142600000Y-99650000D01*
D26*
X139550000Y-93675000D02*
X139100000Y-93675000D01*
X139100000Y-93675000D02*
X138735000Y-93310000D01*
X134390000Y-101880000D02*
X130150000Y-101880000D01*
X134400000Y-101890000D02*
X134390000Y-101880000D01*
X134160000Y-96310000D02*
X134160000Y-94135000D01*
X134160000Y-94135000D02*
X133225000Y-93200000D01*
X138735000Y-93310000D02*
X136240000Y-93310000D01*
X134160000Y-95390000D02*
X134160000Y-96310000D01*
X136240000Y-93310000D02*
X134160000Y-95390000D01*
X136160000Y-96760000D02*
X135385000Y-96760000D01*
X134935000Y-96310000D02*
X134160000Y-96310000D01*
X135385000Y-96760000D02*
X134935000Y-96310000D01*
X136960000Y-97560000D02*
X136960000Y-97160000D01*
X136960000Y-97160000D02*
X136560000Y-96760000D01*
X137760000Y-97560000D02*
X137760000Y-97035000D01*
X137760000Y-97035000D02*
X137485000Y-96760000D01*
X139360000Y-96760000D02*
X138310000Y-96760000D01*
X136160000Y-96760000D02*
X136560000Y-96760000D01*
X136560000Y-96760000D02*
X137485000Y-96760000D01*
X137485000Y-96760000D02*
X138310000Y-96760000D01*
X138560000Y-97010000D02*
X138560000Y-97560000D01*
X138310000Y-96760000D02*
X138560000Y-97010000D01*
D25*
X127230000Y-113360000D02*
X127230000Y-113080000D01*
X127230000Y-113080000D02*
X126725000Y-112575000D01*
X150790000Y-80640000D02*
X151420000Y-80640000D01*
X132230000Y-80640000D02*
X133390000Y-80640000D01*
X133390000Y-80640000D02*
X133500000Y-80750000D01*
X141510000Y-80640000D02*
X142610000Y-80640000D01*
X142610000Y-80640000D02*
X142720000Y-80750000D01*
X157067767Y-88457767D02*
X157067767Y-90082233D01*
X157067767Y-90082233D02*
X156970000Y-90180000D01*
X157060000Y-99500000D02*
X157060000Y-100820000D01*
X157060000Y-100820000D02*
X156970000Y-100910000D01*
X153532233Y-109077767D02*
X152580000Y-110030000D01*
X145790000Y-113360000D02*
X144500000Y-113360000D01*
X144500000Y-113360000D02*
X144450000Y-113310000D01*
X136510000Y-113360000D02*
X135020000Y-113360000D01*
X135020000Y-113360000D02*
X134970000Y-113310000D01*
X120952233Y-105542233D02*
X120952233Y-103577767D01*
X120952233Y-103577767D02*
X121050000Y-103480000D01*
X124487767Y-84922233D02*
X124487767Y-84912233D01*
X124487767Y-84912233D02*
X125240000Y-84160000D01*
X121050000Y-93080000D02*
X120950000Y-93180000D01*
X120950000Y-93180000D02*
X120950000Y-94500000D01*
X152950000Y-93675000D02*
X153825000Y-93675000D01*
D27*
X151025000Y-94200000D02*
X151025000Y-94025000D01*
X151025000Y-94025000D02*
X151375000Y-93675000D01*
D25*
X140650000Y-93675000D02*
X151375000Y-93675000D01*
X151375000Y-93675000D02*
X152950000Y-93675000D01*
X152950000Y-93675000D02*
X153005000Y-93675000D01*
X153005000Y-93675000D02*
X153830000Y-94500000D01*
D27*
X140650000Y-93675000D02*
X140650000Y-92625000D01*
X132220000Y-93105000D02*
X132220000Y-93240000D01*
X133500000Y-91825000D02*
X132220000Y-93105000D01*
X139850000Y-91825000D02*
X133500000Y-91825000D01*
X140650000Y-92625000D02*
X139850000Y-91825000D01*
X139350000Y-99650000D02*
X139350000Y-97570000D01*
X139350000Y-97570000D02*
X139340000Y-97560000D01*
D26*
X139340000Y-95960000D02*
X139990000Y-95960000D01*
X140650000Y-95300000D02*
X140650000Y-93675000D01*
X139990000Y-95960000D02*
X140650000Y-95300000D01*
D27*
X139350000Y-97570000D02*
X139340000Y-97560000D01*
D26*
X139360000Y-97560000D02*
X139535000Y-97560000D01*
X139535000Y-97560000D02*
X139660000Y-97435000D01*
X132220000Y-93240000D02*
X131620000Y-93240000D01*
X131620000Y-93240000D02*
X130860000Y-92480000D01*
X130860000Y-92480000D02*
X128740000Y-92480000D01*
X128740000Y-92480000D02*
X127890000Y-93330000D01*
X139360000Y-95960000D02*
X139885000Y-95960000D01*
X139940000Y-97560000D02*
X139360000Y-97560000D01*
X140075000Y-97425000D02*
X139940000Y-97560000D01*
X140075000Y-96150000D02*
X140075000Y-97425000D01*
X139885000Y-95960000D02*
X140075000Y-96150000D01*
D25*
X124487767Y-109077767D02*
X124492233Y-109077767D01*
X124492233Y-109077767D02*
X126810000Y-106760000D01*
X157067767Y-105542233D02*
X157062233Y-105542233D01*
X157062233Y-105542233D02*
X155750000Y-104230000D01*
X155750000Y-104230000D02*
X153830000Y-104230000D01*
X153532233Y-84922233D02*
X153527767Y-84922233D01*
X153527767Y-84922233D02*
X151370000Y-87080000D01*
X132230000Y-113360000D02*
X132230000Y-110020000D01*
X141510000Y-113360000D02*
X141510000Y-111280000D01*
X141510000Y-111280000D02*
X140260000Y-110030000D01*
X157060000Y-94500000D02*
X153830000Y-94500000D01*
X150790000Y-113360000D02*
X150790000Y-107370000D01*
X150770000Y-107350000D02*
X150790000Y-107370000D01*
X136510000Y-83840000D02*
X144000000Y-83840000D01*
X144000000Y-83840000D02*
X145170000Y-83840000D01*
X145790000Y-83220000D02*
X145790000Y-80640000D01*
X145170000Y-83840000D02*
X145790000Y-83220000D01*
X136510000Y-80640000D02*
X136510000Y-83840000D01*
X127230000Y-80640000D02*
X127230000Y-86840000D01*
X127230000Y-86840000D02*
X127220000Y-86850000D01*
X120950000Y-99500000D02*
X124360000Y-99500000D01*
X124360000Y-91870000D02*
X120952233Y-88462233D01*
X124360000Y-99500000D02*
X124370000Y-99490000D01*
X120952233Y-88462233D02*
X120952233Y-88457767D01*
D27*
X151025000Y-95100000D02*
X151025000Y-96400000D01*
D25*
X151020000Y-98940000D02*
X151020000Y-97530000D01*
D27*
X137760000Y-95960000D02*
X137760000Y-94990000D01*
X137760000Y-94990000D02*
X137470000Y-94700000D01*
D25*
X122720000Y-107310000D02*
X124270000Y-105760000D01*
X139010000Y-113360000D02*
X139010000Y-111220000D01*
X122720000Y-86690000D02*
X124220000Y-88190000D01*
X122730000Y-86690000D02*
X122720000Y-86690000D01*
X123170000Y-97000000D02*
X120950000Y-97000000D01*
X122720000Y-107300000D02*
X122720000Y-107310000D01*
X129740000Y-111220000D02*
X129730000Y-113360000D01*
X148300000Y-111220000D02*
X148290000Y-113360000D01*
X148290000Y-111210000D02*
X148300000Y-111220000D01*
X155300000Y-107310000D02*
X153890000Y-105900000D01*
X154970000Y-97000000D02*
X157060000Y-97000000D01*
X153920000Y-88070000D02*
X155300000Y-86690000D01*
X139010000Y-80640000D02*
X139010000Y-82680000D01*
X129730000Y-80640000D02*
X129730000Y-82680000D01*
X148290000Y-82680000D02*
X148290000Y-80640000D01*
D27*
X138560000Y-95960000D02*
X138560000Y-94470000D01*
X138560000Y-94470000D02*
X138150000Y-94060000D01*
D26*
X134160000Y-97210000D02*
X134685000Y-97210000D01*
X135035000Y-97560000D02*
X136160000Y-97560000D01*
X134685000Y-97210000D02*
X135035000Y-97560000D01*
X129185000Y-97210000D02*
X134160000Y-97210000D01*
X128750000Y-96775000D02*
X129185000Y-97210000D01*
D28*
X106850000Y-98445000D02*
X106850000Y-99715000D01*
X106850000Y-98445000D02*
X108545000Y-98445000D01*
X108545000Y-98445000D02*
X108700000Y-98600000D01*
X108700000Y-98600000D02*
X108700000Y-99500000D01*
X108700000Y-99500000D02*
X108485000Y-99715000D01*
X108485000Y-99715000D02*
X106850000Y-99715000D01*
X103800000Y-102700000D02*
X103800000Y-102600000D01*
X103800000Y-102600000D02*
X105400000Y-101000000D01*
X105400000Y-101000000D02*
X106700000Y-101000000D01*
X106700000Y-101000000D02*
X106850000Y-100850000D01*
X106850000Y-100850000D02*
X106850000Y-99715000D01*
D27*
X106850000Y-99715000D02*
X106850000Y-100850000D01*
X105400000Y-101000000D02*
X103800000Y-102600000D01*
X106700000Y-101000000D02*
X105400000Y-101000000D01*
X106850000Y-100850000D02*
X106700000Y-101000000D01*
X106850000Y-99715000D02*
X108485000Y-99715000D01*
X108700000Y-99500000D02*
X108700000Y-99050000D01*
X108485000Y-99715000D02*
X108700000Y-99500000D01*
X108700000Y-98600000D02*
X108545000Y-98445000D01*
X108700000Y-99050000D02*
X108700000Y-98600000D01*
D28*
X109750000Y-93700000D02*
X109750000Y-98600000D01*
X109750000Y-98600000D02*
X110865000Y-99715000D01*
X110865000Y-99715000D02*
X112950000Y-99715000D01*
X109750000Y-93700000D02*
X110685000Y-94635000D01*
X110685000Y-94635000D02*
X112950000Y-94635000D01*
X103800000Y-91700000D02*
X103800000Y-92350000D01*
X103800000Y-92350000D02*
X104625000Y-93175000D01*
X109225000Y-93175000D02*
X109750000Y-93700000D01*
X104625000Y-93175000D02*
X109225000Y-93175000D01*
X102100000Y-93175000D02*
X101050000Y-93175000D01*
X101050000Y-93175000D02*
X101050000Y-93400000D01*
X102100000Y-96075000D02*
X101050000Y-96075000D01*
X101050000Y-96075000D02*
X101050000Y-95825000D01*
X103800000Y-91700000D02*
X101450000Y-91700000D01*
X101450000Y-91700000D02*
X101050000Y-92100000D01*
X101050000Y-92100000D02*
X101050000Y-98375000D01*
X101050000Y-98375000D02*
X101350000Y-98675000D01*
X101350000Y-98675000D02*
X102100000Y-98675000D01*
D27*
X112950000Y-99715000D02*
X110865000Y-99715000D01*
X110865000Y-99715000D02*
X109750000Y-98600000D01*
X110685000Y-94635000D02*
X112950000Y-94635000D01*
X109175000Y-93125000D02*
X109750000Y-93700000D01*
X104575000Y-93125000D02*
X109175000Y-93125000D01*
X103800000Y-92350000D02*
X104575000Y-93125000D01*
X101050000Y-93475000D02*
X101050000Y-92100000D01*
X101050000Y-92100000D02*
X101450000Y-91700000D01*
X102100000Y-98675000D02*
X101350000Y-98675000D01*
X101050000Y-98375000D02*
X101050000Y-95825000D01*
X101350000Y-98675000D02*
X101050000Y-98375000D01*
X101050000Y-93400000D02*
X101050000Y-93475000D01*
X101050000Y-93475000D02*
X101050000Y-95825000D01*
D28*
X111450000Y-98450000D02*
X112945000Y-98450000D01*
X112945000Y-98450000D02*
X112950000Y-98445000D01*
D27*
X111455000Y-98445000D02*
X112950000Y-98445000D01*
X111450000Y-98450000D02*
X111455000Y-98445000D01*
D28*
X111450000Y-95900000D02*
X112945000Y-95900000D01*
X112945000Y-95900000D02*
X112950000Y-95905000D01*
D27*
X112950000Y-95905000D02*
X111455000Y-95905000D01*
X111455000Y-95905000D02*
X111450000Y-95900000D01*
D28*
X102100000Y-99575000D02*
X103475000Y-99575000D01*
X103475000Y-99575000D02*
X104475000Y-98575000D01*
D27*
X103475000Y-99575000D02*
X104475000Y-98575000D01*
X108350000Y-97175000D02*
X106850000Y-97175000D01*
D28*
X103800000Y-97200000D02*
X103800000Y-97125000D01*
X103800000Y-97125000D02*
X105020000Y-95905000D01*
X105020000Y-95905000D02*
X106850000Y-95905000D01*
X102100000Y-96975000D02*
X103575000Y-96975000D01*
X103575000Y-96975000D02*
X103800000Y-97200000D01*
D27*
X106850000Y-95905000D02*
X105020000Y-95905000D01*
X105020000Y-95905000D02*
X103800000Y-97125000D01*
X103575000Y-96975000D02*
X103800000Y-97200000D01*
D28*
X102100000Y-94075000D02*
X103425000Y-94075000D01*
X103425000Y-94075000D02*
X103800000Y-94450000D01*
X103800000Y-94450000D02*
X104475000Y-94450000D01*
X104475000Y-94450000D02*
X104660000Y-94635000D01*
X104660000Y-94635000D02*
X106850000Y-94635000D01*
D27*
X106850000Y-94635000D02*
X104660000Y-94635000D01*
X104660000Y-94635000D02*
X104475000Y-94450000D01*
X103800000Y-94450000D02*
X103425000Y-94075000D01*
X170700000Y-113200000D02*
X169950000Y-113200000D01*
X168750000Y-112200000D02*
X169475000Y-112200000D01*
X169475000Y-112200000D02*
X170475000Y-113200000D01*
X170475000Y-113200000D02*
X170700000Y-113200000D01*
D26*
X168750000Y-112200000D02*
X168925000Y-112200000D01*
X168925000Y-112200000D02*
X169050000Y-112075000D01*
D27*
X168750000Y-110600000D02*
X169475000Y-110600000D01*
X170425000Y-109650000D02*
X170700000Y-109650000D01*
X169475000Y-110600000D02*
X170425000Y-109650000D01*
X166350000Y-112200000D02*
X166350000Y-111450000D01*
X166350000Y-111450000D02*
X166300000Y-111400000D01*
X167150000Y-112200000D02*
X167150000Y-111400000D01*
X167150000Y-111400000D02*
X167150000Y-111525000D01*
X167150000Y-111525000D02*
X167150000Y-111400000D01*
X167950000Y-112200000D02*
X167950000Y-111400000D01*
X167925000Y-111475000D02*
X167925000Y-111400000D01*
X167925000Y-111425000D02*
X167925000Y-111475000D01*
X167950000Y-111400000D02*
X167925000Y-111425000D01*
X165550000Y-111400000D02*
X166300000Y-111400000D01*
X166300000Y-111400000D02*
X166950000Y-111400000D01*
X166950000Y-111400000D02*
X167150000Y-111400000D01*
X167150000Y-111400000D02*
X167925000Y-111400000D01*
X167925000Y-111400000D02*
X168750000Y-111400000D01*
X166350000Y-112200000D02*
X167150000Y-112200000D01*
X167150000Y-112200000D02*
X167150000Y-112675000D01*
X167150000Y-112675000D02*
X166750000Y-113075000D01*
X166350000Y-112675000D02*
X166350000Y-112200000D01*
X166750000Y-113075000D02*
X166350000Y-112675000D01*
X170700000Y-112100000D02*
X170700000Y-111400000D01*
X168750000Y-111400000D02*
X170700000Y-111400000D01*
X170700000Y-111400000D02*
X170700000Y-110750000D01*
X167950000Y-110600000D02*
X167950000Y-110125000D01*
X168800000Y-109275000D02*
X169200000Y-109275000D01*
X167950000Y-110125000D02*
X168800000Y-109275000D01*
X164900000Y-112200000D02*
X165550000Y-112200000D01*
X164700000Y-112000000D02*
X164900000Y-112200000D01*
X164700000Y-111275000D02*
X164700000Y-112000000D01*
X167150000Y-109850000D02*
X167150000Y-110600000D01*
X167950000Y-109050000D02*
X167150000Y-109850000D01*
D29*
G36*
X126495185Y-81165000D02*
X126504500Y-81214505D01*
X126504500Y-86550895D01*
X126444635Y-86695067D01*
X126444366Y-87003580D01*
X126562180Y-87288712D01*
X126780141Y-87507054D01*
X127065067Y-87625365D01*
X127373580Y-87625634D01*
X127658712Y-87507820D01*
X127877054Y-87289859D01*
X127995365Y-87004933D01*
X127995540Y-86803905D01*
X129307110Y-86803905D01*
X129340724Y-87040968D01*
X129789269Y-87214023D01*
X130269897Y-87202254D01*
X130659276Y-87040968D01*
X130692890Y-86803905D01*
X130000000Y-86111016D01*
X129307110Y-86803905D01*
X127995540Y-86803905D01*
X127995634Y-86696420D01*
X127955500Y-86599288D01*
X127955500Y-85789269D01*
X128785977Y-85789269D01*
X128797746Y-86269897D01*
X128959032Y-86659276D01*
X129196095Y-86692890D01*
X129888984Y-86000000D01*
X130111016Y-86000000D01*
X130803905Y-86692890D01*
X131040968Y-86659276D01*
X131112866Y-86472923D01*
X131151323Y-86565997D01*
X131432522Y-86847688D01*
X131800115Y-87000326D01*
X132198139Y-87000673D01*
X132565997Y-86848677D01*
X132847688Y-86567478D01*
X133000187Y-86200220D01*
X133151323Y-86565997D01*
X133432522Y-86847688D01*
X133800115Y-87000326D01*
X134198139Y-87000673D01*
X134565997Y-86848677D01*
X134847688Y-86567478D01*
X135000187Y-86200220D01*
X135151323Y-86565997D01*
X135432522Y-86847688D01*
X135800115Y-87000326D01*
X136198139Y-87000673D01*
X136565997Y-86848677D01*
X136847688Y-86567478D01*
X137000187Y-86200220D01*
X137151323Y-86565997D01*
X137432522Y-86847688D01*
X137800115Y-87000326D01*
X138198139Y-87000673D01*
X138565997Y-86848677D01*
X138847688Y-86567478D01*
X139000187Y-86200220D01*
X139151323Y-86565997D01*
X139432522Y-86847688D01*
X139800115Y-87000326D01*
X140198139Y-87000673D01*
X140565997Y-86848677D01*
X140847688Y-86567478D01*
X141000187Y-86200220D01*
X141151323Y-86565997D01*
X141432522Y-86847688D01*
X141800115Y-87000326D01*
X142198139Y-87000673D01*
X142565997Y-86848677D01*
X142847688Y-86567478D01*
X143000187Y-86200220D01*
X143151323Y-86565997D01*
X143432522Y-86847688D01*
X143800115Y-87000326D01*
X144198139Y-87000673D01*
X144565997Y-86848677D01*
X144847688Y-86567478D01*
X145000187Y-86200220D01*
X145151323Y-86565997D01*
X145432522Y-86847688D01*
X145800115Y-87000326D01*
X146198139Y-87000673D01*
X146565997Y-86848677D01*
X146847688Y-86567478D01*
X146990185Y-86224307D01*
X146990185Y-86525000D01*
X147023341Y-86701210D01*
X147127481Y-86863047D01*
X147286380Y-86971618D01*
X147475000Y-87009815D01*
X148525000Y-87009815D01*
X148701210Y-86976659D01*
X148863047Y-86872519D01*
X148971618Y-86713620D01*
X149009815Y-86525000D01*
X149009815Y-85475000D01*
X148976659Y-85298790D01*
X148872519Y-85136953D01*
X148713620Y-85028382D01*
X148525000Y-84990185D01*
X147475000Y-84990185D01*
X147298790Y-85023341D01*
X147136953Y-85127481D01*
X147028382Y-85286380D01*
X146990185Y-85475000D01*
X146990185Y-85776478D01*
X146848677Y-85434003D01*
X146567478Y-85152312D01*
X146199885Y-84999674D01*
X145801861Y-84999327D01*
X145434003Y-85151323D01*
X145152312Y-85432522D01*
X144999813Y-85799780D01*
X144848677Y-85434003D01*
X144567478Y-85152312D01*
X144199885Y-84999674D01*
X143801861Y-84999327D01*
X143434003Y-85151323D01*
X143152312Y-85432522D01*
X142999813Y-85799780D01*
X142848677Y-85434003D01*
X142567478Y-85152312D01*
X142199885Y-84999674D01*
X141801861Y-84999327D01*
X141434003Y-85151323D01*
X141152312Y-85432522D01*
X140999813Y-85799780D01*
X140848677Y-85434003D01*
X140567478Y-85152312D01*
X140199885Y-84999674D01*
X139801861Y-84999327D01*
X139434003Y-85151323D01*
X139152312Y-85432522D01*
X138999813Y-85799780D01*
X138848677Y-85434003D01*
X138567478Y-85152312D01*
X138199885Y-84999674D01*
X137801861Y-84999327D01*
X137434003Y-85151323D01*
X137152312Y-85432522D01*
X136999813Y-85799780D01*
X136848677Y-85434003D01*
X136567478Y-85152312D01*
X136199885Y-84999674D01*
X135801861Y-84999327D01*
X135434003Y-85151323D01*
X135152312Y-85432522D01*
X134999813Y-85799780D01*
X134848677Y-85434003D01*
X134567478Y-85152312D01*
X134199885Y-84999674D01*
X133801861Y-84999327D01*
X133434003Y-85151323D01*
X133152312Y-85432522D01*
X132999813Y-85799780D01*
X132848677Y-85434003D01*
X132567478Y-85152312D01*
X132199885Y-84999674D01*
X131801861Y-84999327D01*
X131434003Y-85151323D01*
X131152312Y-85432522D01*
X131115607Y-85520918D01*
X131040968Y-85340724D01*
X130803905Y-85307110D01*
X130111016Y-86000000D01*
X129888984Y-86000000D01*
X129196095Y-85307110D01*
X128959032Y-85340724D01*
X128785977Y-85789269D01*
X127955500Y-85789269D01*
X127955500Y-85196095D01*
X129307110Y-85196095D01*
X130000000Y-85888984D01*
X130692890Y-85196095D01*
X130659276Y-84959032D01*
X130210731Y-84785977D01*
X129730103Y-84797746D01*
X129340724Y-84959032D01*
X129307110Y-85196095D01*
X127955500Y-85196095D01*
X127955500Y-82382265D01*
X128040141Y-82467054D01*
X128325067Y-82585365D01*
X128633580Y-82585634D01*
X128918712Y-82467820D01*
X129004500Y-82382182D01*
X129004500Y-82404978D01*
X128954635Y-82525067D01*
X128954366Y-82833580D01*
X129072180Y-83118712D01*
X129290141Y-83337054D01*
X129575067Y-83455365D01*
X129883580Y-83455634D01*
X130168712Y-83337820D01*
X130387054Y-83119859D01*
X130505365Y-82834933D01*
X130505634Y-82526420D01*
X130455500Y-82405086D01*
X130455500Y-81210998D01*
X130464815Y-81165000D01*
X130464815Y-80789375D01*
X131296500Y-80789375D01*
X131296500Y-81300956D01*
X131400556Y-81552171D01*
X131592828Y-81744443D01*
X131844043Y-81848500D01*
X131980625Y-81848500D01*
X132151500Y-81677625D01*
X132151500Y-80618500D01*
X132308500Y-80618500D01*
X132308500Y-81677625D01*
X132479375Y-81848500D01*
X132615957Y-81848500D01*
X132867172Y-81744443D01*
X133059444Y-81552171D01*
X133163500Y-81300956D01*
X133163500Y-80789375D01*
X132992625Y-80618500D01*
X132308500Y-80618500D01*
X132151500Y-80618500D01*
X131467375Y-80618500D01*
X131296500Y-80789375D01*
X130464815Y-80789375D01*
X130464815Y-80490500D01*
X135775185Y-80490500D01*
X135775185Y-81195000D01*
X135784500Y-81244505D01*
X135784500Y-83564978D01*
X135734635Y-83685067D01*
X135734366Y-83993580D01*
X135852180Y-84278712D01*
X136070141Y-84497054D01*
X136355067Y-84615365D01*
X136663580Y-84615634D01*
X136784914Y-84565500D01*
X143724978Y-84565500D01*
X143845067Y-84615365D01*
X144153580Y-84615634D01*
X144274914Y-84565500D01*
X145170000Y-84565500D01*
X145447637Y-84510275D01*
X145683006Y-84353006D01*
X146303006Y-83733006D01*
X146460275Y-83497637D01*
X146515500Y-83220000D01*
X146515500Y-82392283D01*
X146590141Y-82467054D01*
X146875067Y-82585365D01*
X147183580Y-82585634D01*
X147468712Y-82467820D01*
X147564500Y-82372199D01*
X147564500Y-82404978D01*
X147514635Y-82525067D01*
X147514366Y-82833580D01*
X147632180Y-83118712D01*
X147850141Y-83337054D01*
X148135067Y-83455365D01*
X148443580Y-83455634D01*
X148728712Y-83337820D01*
X148947054Y-83119859D01*
X149065365Y-82834933D01*
X149065634Y-82526420D01*
X149015500Y-82405086D01*
X149015500Y-80799375D01*
X149846500Y-80799375D01*
X149846500Y-81310956D01*
X149950556Y-81562171D01*
X150142828Y-81754443D01*
X150394043Y-81858500D01*
X150530625Y-81858500D01*
X150701500Y-81687625D01*
X150701500Y-80628500D01*
X150017375Y-80628500D01*
X149846500Y-80799375D01*
X149015500Y-80799375D01*
X149015500Y-80640000D01*
X149014815Y-80636556D01*
X149014815Y-80490500D01*
X150878500Y-80490500D01*
X150878500Y-80628500D01*
X150858500Y-80628500D01*
X150858500Y-81687625D01*
X151029375Y-81858500D01*
X151165957Y-81858500D01*
X151417172Y-81754443D01*
X151609444Y-81562171D01*
X151699500Y-81344755D01*
X151699500Y-82640000D01*
X151741404Y-82850668D01*
X151860738Y-83029262D01*
X153128378Y-84296903D01*
X153018658Y-84406623D01*
X153014761Y-84409227D01*
X151051463Y-86372525D01*
X150931288Y-86422180D01*
X150712946Y-86640141D01*
X150594635Y-86925067D01*
X150594366Y-87233580D01*
X150712180Y-87518712D01*
X150930141Y-87737054D01*
X151215067Y-87855365D01*
X151523580Y-87855634D01*
X151808712Y-87737820D01*
X152027054Y-87519859D01*
X152077400Y-87398612D01*
X152884481Y-86591531D01*
X152884366Y-86723580D01*
X153002180Y-87008712D01*
X153220141Y-87227054D01*
X153505067Y-87345365D01*
X153618524Y-87345464D01*
X153601463Y-87362525D01*
X153481288Y-87412180D01*
X153262946Y-87630141D01*
X153144635Y-87915067D01*
X153144366Y-88223580D01*
X153262180Y-88508712D01*
X153480141Y-88727054D01*
X153765067Y-88845365D01*
X154073580Y-88845634D01*
X154358712Y-88727820D01*
X154559908Y-88526975D01*
X155835549Y-88526975D01*
X155835549Y-88798888D01*
X155939605Y-89050103D01*
X156036183Y-89146681D01*
X156277837Y-89146681D01*
X157026751Y-88397767D01*
X156543002Y-87914018D01*
X156301348Y-87914018D01*
X156131877Y-88083488D01*
X155939606Y-88275760D01*
X155835549Y-88526975D01*
X154559908Y-88526975D01*
X154577054Y-88509859D01*
X154627400Y-88388612D01*
X155378848Y-87637164D01*
X155447651Y-87591534D01*
X155935330Y-87103855D01*
X158671476Y-89840000D01*
X157380738Y-91130738D01*
X157261404Y-91309332D01*
X157261404Y-91309333D01*
X157219500Y-91520000D01*
X157219500Y-93765185D01*
X156495000Y-93765185D01*
X156445495Y-93774500D01*
X154600413Y-93774500D01*
X154600634Y-93521420D01*
X154482820Y-93236288D01*
X154264859Y-93017946D01*
X153979933Y-92899635D01*
X153671420Y-92899366D01*
X153550086Y-92949500D01*
X141275500Y-92949500D01*
X141275500Y-92625000D01*
X141256029Y-92527113D01*
X141227887Y-92385631D01*
X141092295Y-92182705D01*
X140292295Y-91382705D01*
X140089369Y-91247113D01*
X139850000Y-91199500D01*
X133500000Y-91199500D01*
X133260632Y-91247113D01*
X133260630Y-91247114D01*
X133260631Y-91247114D01*
X133057704Y-91382705D01*
X132641763Y-91798647D01*
X132547820Y-91571288D01*
X132329859Y-91352946D01*
X132044933Y-91234635D01*
X131736420Y-91234366D01*
X131451288Y-91352180D01*
X131232946Y-91570141D01*
X131114635Y-91855067D01*
X131114559Y-91941752D01*
X131089802Y-91925210D01*
X130860000Y-91879499D01*
X130859995Y-91879500D01*
X128740005Y-91879500D01*
X128740000Y-91879499D01*
X128510198Y-91925210D01*
X128412791Y-91990296D01*
X128315382Y-92055382D01*
X128315380Y-92055385D01*
X127816329Y-92554436D01*
X127736420Y-92554366D01*
X127451288Y-92672180D01*
X127232946Y-92890141D01*
X127114635Y-93175067D01*
X127114366Y-93483580D01*
X127232180Y-93768712D01*
X127450141Y-93987054D01*
X127735067Y-94105365D01*
X128043580Y-94105634D01*
X128328712Y-93987820D01*
X128547054Y-93769859D01*
X128665365Y-93484933D01*
X128665436Y-93403800D01*
X128988735Y-93080500D01*
X130022779Y-93080500D01*
X129912946Y-93190141D01*
X129794635Y-93475067D01*
X129794366Y-93783580D01*
X129912180Y-94068712D01*
X130130141Y-94287054D01*
X130415067Y-94405365D01*
X130723580Y-94405634D01*
X131008712Y-94287820D01*
X131227054Y-94069859D01*
X131345365Y-93784933D01*
X131345383Y-93764845D01*
X131390199Y-93794790D01*
X131620000Y-93840500D01*
X131723686Y-93840500D01*
X131780141Y-93897054D01*
X132065067Y-94015365D01*
X132373580Y-94015634D01*
X132658712Y-93897820D01*
X132877054Y-93679859D01*
X132995365Y-93394933D01*
X132995366Y-93393580D01*
X133554366Y-93393580D01*
X133672180Y-93678712D01*
X133890141Y-93897054D01*
X134175067Y-94015365D01*
X134483580Y-94015634D01*
X134768712Y-93897820D01*
X134987054Y-93679859D01*
X135105365Y-93394933D01*
X135105634Y-93086420D01*
X134987820Y-92801288D01*
X134769859Y-92582946D01*
X134484933Y-92464635D01*
X134176420Y-92464366D01*
X133891288Y-92582180D01*
X133672946Y-92800141D01*
X133554635Y-93085067D01*
X133554366Y-93393580D01*
X132995366Y-93393580D01*
X132995523Y-93214068D01*
X133759091Y-92450500D01*
X139590910Y-92450500D01*
X139881910Y-92741500D01*
X139799375Y-92741500D01*
X139628500Y-92912375D01*
X139628500Y-93596500D01*
X139648500Y-93596500D01*
X139648500Y-93753500D01*
X139628500Y-93753500D01*
X139628500Y-94437625D01*
X139799375Y-94608500D01*
X139985957Y-94608500D01*
X140049500Y-94582180D01*
X140049500Y-95051264D01*
X139813529Y-95287235D01*
X139778620Y-95263382D01*
X139590000Y-95225185D01*
X139185500Y-95225185D01*
X139185500Y-94608500D01*
X139300625Y-94608500D01*
X139471500Y-94437625D01*
X139471500Y-93753500D01*
X139451500Y-93753500D01*
X139451500Y-93596500D01*
X139471500Y-93596500D01*
X139471500Y-92912375D01*
X139300625Y-92741500D01*
X139114043Y-92741500D01*
X138862828Y-92845557D01*
X138670556Y-93037829D01*
X138566500Y-93289044D01*
X138566500Y-93393247D01*
X138304933Y-93284635D01*
X137996420Y-93284366D01*
X137711288Y-93402180D01*
X137492946Y-93620141D01*
X137374635Y-93905067D01*
X137374618Y-93924417D01*
X137316420Y-93924366D01*
X137031288Y-94042180D01*
X136812946Y-94260141D01*
X136694635Y-94545067D01*
X136694366Y-94853580D01*
X136812180Y-95138712D01*
X136898502Y-95225185D01*
X136690000Y-95225185D01*
X136534492Y-95254446D01*
X136390000Y-95225185D01*
X135890000Y-95225185D01*
X135713790Y-95258341D01*
X135551953Y-95362481D01*
X135443382Y-95521380D01*
X135405185Y-95710000D01*
X135405185Y-96028200D01*
X135310557Y-96122828D01*
X135206500Y-96374043D01*
X135206500Y-96510625D01*
X135377375Y-96681500D01*
X135824249Y-96681500D01*
X135890000Y-96694815D01*
X136238500Y-96694815D01*
X136238500Y-96794885D01*
X136208200Y-96825185D01*
X135890000Y-96825185D01*
X135819236Y-96838500D01*
X135377375Y-96838500D01*
X135270055Y-96945820D01*
X135109618Y-96785382D01*
X135079846Y-96765489D01*
X135133500Y-96635957D01*
X135133500Y-96549375D01*
X134962625Y-96378500D01*
X134228500Y-96378500D01*
X134228500Y-96398500D01*
X134071500Y-96398500D01*
X134071500Y-96378500D01*
X133337375Y-96378500D01*
X133166500Y-96549375D01*
X133166500Y-96609500D01*
X129520709Y-96609500D01*
X129407820Y-96336288D01*
X129189859Y-96117946D01*
X128904933Y-95999635D01*
X128596420Y-95999366D01*
X128311288Y-96117180D01*
X128092946Y-96335141D01*
X127974635Y-96620067D01*
X127974366Y-96928580D01*
X128092180Y-97213712D01*
X128310141Y-97432054D01*
X128595067Y-97550365D01*
X128676200Y-97550436D01*
X128760382Y-97634618D01*
X128955198Y-97764790D01*
X129185000Y-97810501D01*
X129185005Y-97810500D01*
X133608520Y-97810500D01*
X133661380Y-97846618D01*
X133850000Y-97884815D01*
X134450000Y-97884815D01*
X134500986Y-97875221D01*
X134610380Y-97984615D01*
X134610382Y-97984618D01*
X134700474Y-98044815D01*
X134805198Y-98114790D01*
X135035000Y-98160501D01*
X135035005Y-98160500D01*
X135560707Y-98160500D01*
X135701380Y-98256618D01*
X135890000Y-98294815D01*
X136208200Y-98294815D01*
X136302829Y-98389444D01*
X136554044Y-98493500D01*
X136690625Y-98493500D01*
X136861500Y-98322625D01*
X136861500Y-98078738D01*
X136910557Y-98197172D01*
X137018500Y-98305115D01*
X137018500Y-98322625D01*
X137189375Y-98493500D01*
X137325956Y-98493500D01*
X137340000Y-98487683D01*
X137354044Y-98493500D01*
X137490625Y-98493500D01*
X137661500Y-98322625D01*
X137661500Y-98305115D01*
X137740000Y-98226615D01*
X137818500Y-98305115D01*
X137818500Y-98322625D01*
X137989375Y-98493500D01*
X138125956Y-98493500D01*
X138140000Y-98487683D01*
X138154044Y-98493500D01*
X138290625Y-98493500D01*
X138461500Y-98322625D01*
X138461500Y-98305115D01*
X138569443Y-98197172D01*
X138618500Y-98078738D01*
X138618500Y-98322625D01*
X138724500Y-98428625D01*
X138724500Y-99044407D01*
X138711953Y-99052481D01*
X138603382Y-99211380D01*
X138565185Y-99400000D01*
X138565185Y-99900000D01*
X138598341Y-100076210D01*
X138702481Y-100238047D01*
X138861380Y-100346618D01*
X139050000Y-100384815D01*
X139650000Y-100384815D01*
X139665318Y-100381933D01*
X139762828Y-100479443D01*
X140014043Y-100583500D01*
X140200625Y-100583500D01*
X140371500Y-100412625D01*
X140371500Y-99728500D01*
X140528500Y-99728500D01*
X140528500Y-100412625D01*
X140699375Y-100583500D01*
X140885957Y-100583500D01*
X141137172Y-100479443D01*
X141329444Y-100287171D01*
X141433500Y-100035956D01*
X141433500Y-99899375D01*
X141283500Y-99749375D01*
X155811500Y-99749375D01*
X155811500Y-99885957D01*
X155915557Y-100137172D01*
X156107829Y-100329444D01*
X156359044Y-100433500D01*
X156870625Y-100433500D01*
X157041500Y-100262625D01*
X157041500Y-99578500D01*
X155982375Y-99578500D01*
X155811500Y-99749375D01*
X141283500Y-99749375D01*
X141262625Y-99728500D01*
X140528500Y-99728500D01*
X140371500Y-99728500D01*
X140351500Y-99728500D01*
X140351500Y-99571500D01*
X140371500Y-99571500D01*
X140371500Y-98887375D01*
X140528500Y-98887375D01*
X140528500Y-99571500D01*
X141262625Y-99571500D01*
X141433500Y-99400625D01*
X141433500Y-99264044D01*
X141329444Y-99012829D01*
X141137172Y-98820557D01*
X140885957Y-98716500D01*
X140699375Y-98716500D01*
X140528500Y-98887375D01*
X140371500Y-98887375D01*
X140200625Y-98716500D01*
X140014043Y-98716500D01*
X139975500Y-98732465D01*
X139975500Y-98153440D01*
X140169802Y-98114790D01*
X140364618Y-97984618D01*
X140499618Y-97849618D01*
X140629790Y-97654802D01*
X140675501Y-97425000D01*
X140675500Y-97424995D01*
X140675500Y-96150005D01*
X140675501Y-96150000D01*
X140671143Y-96128093D01*
X141074618Y-95724618D01*
X141204790Y-95529802D01*
X141250501Y-95300000D01*
X141250500Y-95299995D01*
X141250500Y-94400500D01*
X150240279Y-94400500D01*
X150273341Y-94576210D01*
X150320580Y-94649621D01*
X150278382Y-94711380D01*
X150240185Y-94900000D01*
X150240185Y-95300000D01*
X150273341Y-95476210D01*
X150377481Y-95638047D01*
X150399500Y-95653092D01*
X150399500Y-95712233D01*
X150336953Y-95752481D01*
X150228382Y-95911380D01*
X150190185Y-96100000D01*
X150190185Y-96700000D01*
X150223341Y-96876210D01*
X150270580Y-96949621D01*
X150228382Y-97011380D01*
X150190185Y-97200000D01*
X150190185Y-97800000D01*
X150223341Y-97976210D01*
X150294500Y-98086793D01*
X150294500Y-98664978D01*
X150244635Y-98785067D01*
X150244366Y-99093580D01*
X150362180Y-99378712D01*
X150580141Y-99597054D01*
X150865067Y-99715365D01*
X151173580Y-99715634D01*
X151458712Y-99597820D01*
X151677054Y-99379859D01*
X151787429Y-99114043D01*
X155811500Y-99114043D01*
X155811500Y-99250625D01*
X155982375Y-99421500D01*
X157041500Y-99421500D01*
X157041500Y-98737375D01*
X156870625Y-98566500D01*
X156359044Y-98566500D01*
X156107829Y-98670556D01*
X155915557Y-98862828D01*
X155811500Y-99114043D01*
X151787429Y-99114043D01*
X151795365Y-99094933D01*
X151795634Y-98786420D01*
X151745500Y-98665086D01*
X151745500Y-98100022D01*
X151821618Y-97988620D01*
X151859815Y-97800000D01*
X151859815Y-97200000D01*
X151826659Y-97023790D01*
X151779420Y-96950379D01*
X151821618Y-96888620D01*
X151859815Y-96700000D01*
X151859815Y-96100000D01*
X151826659Y-95923790D01*
X151722519Y-95761953D01*
X151650500Y-95712745D01*
X151650500Y-95655593D01*
X151663047Y-95647519D01*
X151771618Y-95488620D01*
X151809815Y-95300000D01*
X151809815Y-94900000D01*
X151776659Y-94723790D01*
X151729420Y-94650379D01*
X151771618Y-94588620D01*
X151809714Y-94400500D01*
X152704488Y-94400500D01*
X153316994Y-95013006D01*
X153552363Y-95170275D01*
X153830000Y-95225500D01*
X155327735Y-95225500D01*
X155242946Y-95310141D01*
X155124635Y-95595067D01*
X155124366Y-95903580D01*
X155242180Y-96188712D01*
X155327818Y-96274500D01*
X155245022Y-96274500D01*
X155124933Y-96224635D01*
X154816420Y-96224366D01*
X154531288Y-96342180D01*
X154312946Y-96560141D01*
X154194635Y-96845067D01*
X154194366Y-97153580D01*
X154312180Y-97438712D01*
X154530141Y-97657054D01*
X154815067Y-97775365D01*
X155123580Y-97775634D01*
X155244914Y-97725500D01*
X156449002Y-97725500D01*
X156495000Y-97734815D01*
X157219500Y-97734815D01*
X157219500Y-98716375D01*
X157198500Y-98737375D01*
X157198500Y-99421500D01*
X157218500Y-99421500D01*
X157218500Y-99578500D01*
X157198500Y-99578500D01*
X157198500Y-100262625D01*
X157219500Y-100283625D01*
X157219500Y-102510000D01*
X157261404Y-102720668D01*
X157380738Y-102899262D01*
X158661476Y-104180000D01*
X157703098Y-105138379D01*
X157235418Y-104670699D01*
X157176355Y-104630343D01*
X156263006Y-103716994D01*
X156027637Y-103559725D01*
X155750000Y-103504500D01*
X154105022Y-103504500D01*
X153984933Y-103454635D01*
X153676420Y-103454366D01*
X153391288Y-103572180D01*
X153172946Y-103790141D01*
X153054635Y-104075067D01*
X153054366Y-104383580D01*
X153172180Y-104668712D01*
X153390141Y-104887054D01*
X153675067Y-105005365D01*
X153983580Y-105005634D01*
X154104914Y-104955500D01*
X155060060Y-104955500D01*
X154971288Y-104992180D01*
X154752946Y-105210141D01*
X154634635Y-105495067D01*
X154634527Y-105618515D01*
X154597475Y-105581463D01*
X154547820Y-105461288D01*
X154329859Y-105242946D01*
X154044933Y-105124635D01*
X153736420Y-105124366D01*
X153451288Y-105242180D01*
X153232946Y-105460141D01*
X153114635Y-105745067D01*
X153114366Y-106053580D01*
X153232180Y-106338712D01*
X153450141Y-106557054D01*
X153571388Y-106607400D01*
X154402527Y-107438539D01*
X154428466Y-107477651D01*
X154896146Y-107945331D01*
X151730738Y-111110738D01*
X151611404Y-111289332D01*
X151611404Y-111289333D01*
X151569500Y-111500000D01*
X151569500Y-113499500D01*
X151524815Y-113499500D01*
X151524815Y-112825000D01*
X151515500Y-112775495D01*
X151515500Y-108766646D01*
X152320015Y-108766646D01*
X152320015Y-109038559D01*
X152424072Y-109289774D01*
X152616343Y-109482046D01*
X152785814Y-109651516D01*
X153027468Y-109651516D01*
X153511217Y-109167767D01*
X152762303Y-108418853D01*
X152520649Y-108418853D01*
X152424071Y-108515431D01*
X152320015Y-108766646D01*
X151515500Y-108766646D01*
X151515500Y-108066183D01*
X152873319Y-108066183D01*
X152873319Y-108307837D01*
X153622233Y-109056751D01*
X154105982Y-108573002D01*
X154105982Y-108331348D01*
X153936512Y-108161877D01*
X153744240Y-107969606D01*
X153493025Y-107865549D01*
X153221112Y-107865549D01*
X152969897Y-107969605D01*
X152873319Y-108066183D01*
X151515500Y-108066183D01*
X151515500Y-107576856D01*
X151545365Y-107504933D01*
X151545634Y-107196420D01*
X151427820Y-106911288D01*
X151209859Y-106692946D01*
X150924933Y-106574635D01*
X150616420Y-106574366D01*
X150331288Y-106692180D01*
X150112946Y-106910141D01*
X149994635Y-107195067D01*
X149994366Y-107503580D01*
X150064500Y-107673317D01*
X150064500Y-111717735D01*
X149979859Y-111632946D01*
X149694933Y-111514635D01*
X149386420Y-111514366D01*
X149101288Y-111632180D01*
X149023218Y-111710114D01*
X149024369Y-111463662D01*
X149065365Y-111364933D01*
X149065634Y-111056420D01*
X148947820Y-110771288D01*
X148729859Y-110552946D01*
X148444933Y-110434635D01*
X148136420Y-110434366D01*
X147851288Y-110552180D01*
X147632946Y-110770141D01*
X147514635Y-111055067D01*
X147514366Y-111363580D01*
X147573156Y-111505864D01*
X147567271Y-112765318D01*
X147555185Y-112825000D01*
X147555185Y-113499500D01*
X142234815Y-113499500D01*
X142234815Y-113363444D01*
X142235500Y-113360000D01*
X142235500Y-112689044D01*
X144856500Y-112689044D01*
X144856500Y-113200625D01*
X145027375Y-113371500D01*
X145711500Y-113371500D01*
X145711500Y-112312375D01*
X145868500Y-112312375D01*
X145868500Y-113371500D01*
X146552625Y-113371500D01*
X146723500Y-113200625D01*
X146723500Y-112689044D01*
X146619444Y-112437829D01*
X146427172Y-112245557D01*
X146175957Y-112141500D01*
X146039375Y-112141500D01*
X145868500Y-112312375D01*
X145711500Y-112312375D01*
X145540625Y-112141500D01*
X145404043Y-112141500D01*
X145152828Y-112245557D01*
X144960556Y-112437829D01*
X144856500Y-112689044D01*
X142235500Y-112689044D01*
X142235500Y-111280000D01*
X142180275Y-111002363D01*
X142023006Y-110766994D01*
X140967475Y-109711463D01*
X140917820Y-109591288D01*
X140699859Y-109372946D01*
X140414933Y-109254635D01*
X140106420Y-109254366D01*
X139821288Y-109372180D01*
X139602946Y-109590141D01*
X139484635Y-109875067D01*
X139484366Y-110183580D01*
X139602180Y-110468712D01*
X139820141Y-110687054D01*
X139941388Y-110737400D01*
X140784500Y-111580512D01*
X140784500Y-111717735D01*
X140699859Y-111632946D01*
X140414933Y-111514635D01*
X140106420Y-111514366D01*
X139821288Y-111632180D01*
X139735500Y-111717818D01*
X139735500Y-111495022D01*
X139785365Y-111374933D01*
X139785634Y-111066420D01*
X139667820Y-110781288D01*
X139449859Y-110562946D01*
X139164933Y-110444635D01*
X138856420Y-110444366D01*
X138571288Y-110562180D01*
X138352946Y-110780141D01*
X138234635Y-111065067D01*
X138234366Y-111373580D01*
X138284500Y-111494914D01*
X138284500Y-112729621D01*
X138265185Y-112825000D01*
X138265185Y-113499500D01*
X132954815Y-113499500D01*
X132954815Y-113363444D01*
X132955500Y-113360000D01*
X132955500Y-112689044D01*
X135566500Y-112689044D01*
X135566500Y-113200625D01*
X135737375Y-113371500D01*
X136421500Y-113371500D01*
X136421500Y-112312375D01*
X136578500Y-112312375D01*
X136578500Y-113371500D01*
X137262625Y-113371500D01*
X137433500Y-113200625D01*
X137433500Y-112689044D01*
X137329444Y-112437829D01*
X137137172Y-112245557D01*
X136885957Y-112141500D01*
X136749375Y-112141500D01*
X136578500Y-112312375D01*
X136421500Y-112312375D01*
X136250625Y-112141500D01*
X136114043Y-112141500D01*
X135862828Y-112245557D01*
X135670556Y-112437829D01*
X135566500Y-112689044D01*
X132955500Y-112689044D01*
X132955500Y-110295022D01*
X133005365Y-110174933D01*
X133005634Y-109866420D01*
X132887820Y-109581288D01*
X132669859Y-109362946D01*
X132384933Y-109244635D01*
X132076420Y-109244366D01*
X131791288Y-109362180D01*
X131572946Y-109580141D01*
X131454635Y-109865067D01*
X131454366Y-110173580D01*
X131504500Y-110294914D01*
X131504500Y-111717735D01*
X131419859Y-111632946D01*
X131134933Y-111514635D01*
X130826420Y-111514366D01*
X130541288Y-111632180D01*
X130463218Y-111710114D01*
X130464208Y-111498133D01*
X130515365Y-111374933D01*
X130515634Y-111066420D01*
X130397820Y-110781288D01*
X130179859Y-110562946D01*
X129894933Y-110444635D01*
X129586420Y-110444366D01*
X129301288Y-110562180D01*
X129082946Y-110780141D01*
X128964635Y-111065067D01*
X128964366Y-111373580D01*
X129013222Y-111491821D01*
X129007794Y-112653354D01*
X128985185Y-112765000D01*
X128985185Y-113499500D01*
X128013625Y-113499500D01*
X127982625Y-113468500D01*
X127298500Y-113468500D01*
X127298500Y-113488500D01*
X127141500Y-113488500D01*
X127141500Y-113468500D01*
X127121500Y-113468500D01*
X127121500Y-113311500D01*
X127141500Y-113311500D01*
X127141500Y-112252375D01*
X127298500Y-112252375D01*
X127298500Y-113311500D01*
X127982625Y-113311500D01*
X128153500Y-113140625D01*
X128153500Y-112629044D01*
X128049444Y-112377829D01*
X127857172Y-112185557D01*
X127605957Y-112081500D01*
X127469375Y-112081500D01*
X127298500Y-112252375D01*
X127141500Y-112252375D01*
X126970625Y-112081500D01*
X126834043Y-112081500D01*
X126582828Y-112185557D01*
X126390556Y-112377829D01*
X126390500Y-112377964D01*
X126390500Y-111460000D01*
X126348596Y-111249333D01*
X126348596Y-111249332D01*
X126229262Y-111070738D01*
X126139265Y-110980741D01*
X126139263Y-110980738D01*
X124896622Y-109738097D01*
X125359301Y-109275418D01*
X125442802Y-109153210D01*
X126397873Y-108198139D01*
X128999327Y-108198139D01*
X129151323Y-108565997D01*
X129432522Y-108847688D01*
X129800115Y-109000326D01*
X130198139Y-109000673D01*
X130565997Y-108848677D01*
X130847688Y-108567478D01*
X131000187Y-108200220D01*
X131151323Y-108565997D01*
X131432522Y-108847688D01*
X131800115Y-109000326D01*
X132198139Y-109000673D01*
X132565997Y-108848677D01*
X132847688Y-108567478D01*
X133000187Y-108200220D01*
X133151323Y-108565997D01*
X133432522Y-108847688D01*
X133800115Y-109000326D01*
X134198139Y-109000673D01*
X134565997Y-108848677D01*
X134847688Y-108567478D01*
X135000187Y-108200220D01*
X135151323Y-108565997D01*
X135432522Y-108847688D01*
X135800115Y-109000326D01*
X136198139Y-109000673D01*
X136565997Y-108848677D01*
X136847688Y-108567478D01*
X137000187Y-108200220D01*
X137151323Y-108565997D01*
X137432522Y-108847688D01*
X137800115Y-109000326D01*
X138198139Y-109000673D01*
X138565997Y-108848677D01*
X138847688Y-108567478D01*
X139000187Y-108200220D01*
X139151323Y-108565997D01*
X139432522Y-108847688D01*
X139800115Y-109000326D01*
X140198139Y-109000673D01*
X140565997Y-108848677D01*
X140847688Y-108567478D01*
X141000187Y-108200220D01*
X141151323Y-108565997D01*
X141432522Y-108847688D01*
X141800115Y-109000326D01*
X142198139Y-109000673D01*
X142565997Y-108848677D01*
X142847688Y-108567478D01*
X143000187Y-108200220D01*
X143151323Y-108565997D01*
X143432522Y-108847688D01*
X143800115Y-109000326D01*
X144198139Y-109000673D01*
X144565997Y-108848677D01*
X144847688Y-108567478D01*
X145000187Y-108200220D01*
X145151323Y-108565997D01*
X145432522Y-108847688D01*
X145800115Y-109000326D01*
X146198139Y-109000673D01*
X146565997Y-108848677D01*
X146847688Y-108567478D01*
X146990185Y-108224307D01*
X146990185Y-108525000D01*
X147023341Y-108701210D01*
X147127481Y-108863047D01*
X147286380Y-108971618D01*
X147475000Y-109009815D01*
X148525000Y-109009815D01*
X148701210Y-108976659D01*
X148863047Y-108872519D01*
X148971618Y-108713620D01*
X149009815Y-108525000D01*
X149009815Y-107475000D01*
X148976659Y-107298790D01*
X148872519Y-107136953D01*
X148713620Y-107028382D01*
X148525000Y-106990185D01*
X147475000Y-106990185D01*
X147298790Y-107023341D01*
X147136953Y-107127481D01*
X147028382Y-107286380D01*
X146990185Y-107475000D01*
X146990185Y-107776478D01*
X146848677Y-107434003D01*
X146567478Y-107152312D01*
X146199885Y-106999674D01*
X145801861Y-106999327D01*
X145434003Y-107151323D01*
X145152312Y-107432522D01*
X144999813Y-107799780D01*
X144848677Y-107434003D01*
X144567478Y-107152312D01*
X144199885Y-106999674D01*
X143801861Y-106999327D01*
X143434003Y-107151323D01*
X143152312Y-107432522D01*
X142999813Y-107799780D01*
X142848677Y-107434003D01*
X142567478Y-107152312D01*
X142199885Y-106999674D01*
X141801861Y-106999327D01*
X141434003Y-107151323D01*
X141152312Y-107432522D01*
X140999813Y-107799780D01*
X140848677Y-107434003D01*
X140567478Y-107152312D01*
X140199885Y-106999674D01*
X139801861Y-106999327D01*
X139434003Y-107151323D01*
X139152312Y-107432522D01*
X138999813Y-107799780D01*
X138848677Y-107434003D01*
X138567478Y-107152312D01*
X138199885Y-106999674D01*
X137801861Y-106999327D01*
X137434003Y-107151323D01*
X137152312Y-107432522D01*
X136999813Y-107799780D01*
X136848677Y-107434003D01*
X136567478Y-107152312D01*
X136199885Y-106999674D01*
X135801861Y-106999327D01*
X135434003Y-107151323D01*
X135152312Y-107432522D01*
X134999813Y-107799780D01*
X134848677Y-107434003D01*
X134567478Y-107152312D01*
X134199885Y-106999674D01*
X133801861Y-106999327D01*
X133434003Y-107151323D01*
X133152312Y-107432522D01*
X132999813Y-107799780D01*
X132848677Y-107434003D01*
X132567478Y-107152312D01*
X132199885Y-106999674D01*
X131801861Y-106999327D01*
X131434003Y-107151323D01*
X131152312Y-107432522D01*
X130999813Y-107799780D01*
X130848677Y-107434003D01*
X130567478Y-107152312D01*
X130199885Y-106999674D01*
X129801861Y-106999327D01*
X129434003Y-107151323D01*
X129152312Y-107432522D01*
X128999674Y-107800115D01*
X128999327Y-108198139D01*
X126397873Y-108198139D01*
X127128537Y-107467475D01*
X127248712Y-107417820D01*
X127467054Y-107199859D01*
X127585365Y-106914933D01*
X127585634Y-106606420D01*
X127467820Y-106321288D01*
X127249859Y-106102946D01*
X126964933Y-105984635D01*
X126656420Y-105984366D01*
X126371288Y-106102180D01*
X126152946Y-106320141D01*
X126102600Y-106441388D01*
X125145536Y-107398452D01*
X125145634Y-107286420D01*
X125027820Y-107001288D01*
X124809859Y-106782946D01*
X124524933Y-106664635D01*
X124391493Y-106664519D01*
X124588537Y-106467475D01*
X124708712Y-106417820D01*
X124927054Y-106199859D01*
X125045365Y-105914933D01*
X125045634Y-105606420D01*
X124927820Y-105321288D01*
X124709859Y-105102946D01*
X124424933Y-104984635D01*
X124116420Y-104984366D01*
X123831288Y-105102180D01*
X123612946Y-105320141D01*
X123562600Y-105441388D01*
X122237131Y-106766857D01*
X122206994Y-106786994D01*
X122152973Y-106867842D01*
X122089670Y-106931145D01*
X120820758Y-105662233D01*
X120973249Y-105662233D01*
X121456998Y-106145982D01*
X121698652Y-106145982D01*
X121868123Y-105976512D01*
X122060394Y-105784240D01*
X122164451Y-105533025D01*
X122164451Y-105261112D01*
X122060395Y-105009897D01*
X121963817Y-104913319D01*
X121722163Y-104913319D01*
X120973249Y-105662233D01*
X120820758Y-105662233D01*
X119984339Y-104825814D01*
X120378484Y-104825814D01*
X120378484Y-105067468D01*
X120862233Y-105551217D01*
X121611147Y-104802303D01*
X121611147Y-104560649D01*
X121514569Y-104464071D01*
X121263354Y-104360015D01*
X120991441Y-104360015D01*
X120740226Y-104464072D01*
X120547954Y-104656343D01*
X120378484Y-104825814D01*
X119984339Y-104825814D01*
X119328524Y-104170000D01*
X120629262Y-102869262D01*
X120748596Y-102690668D01*
X120790500Y-102480000D01*
X120790500Y-100244815D01*
X121485000Y-100244815D01*
X121587651Y-100225500D01*
X124119061Y-100225500D01*
X124215067Y-100265365D01*
X124523580Y-100265634D01*
X124808712Y-100147820D01*
X125027054Y-99929859D01*
X125145365Y-99644933D01*
X125145634Y-99336420D01*
X125027820Y-99051288D01*
X124809859Y-98832946D01*
X124524933Y-98714635D01*
X124216420Y-98714366D01*
X124070884Y-98774500D01*
X122602265Y-98774500D01*
X122687054Y-98689859D01*
X122805365Y-98404933D01*
X122805634Y-98096420D01*
X122687820Y-97811288D01*
X122602182Y-97725500D01*
X122894978Y-97725500D01*
X123015067Y-97775365D01*
X123323580Y-97775634D01*
X123608712Y-97657820D01*
X123827054Y-97439859D01*
X123945365Y-97154933D01*
X123945634Y-96846420D01*
X123827820Y-96561288D01*
X123609859Y-96342946D01*
X123324933Y-96224635D01*
X123016420Y-96224366D01*
X122895086Y-96274500D01*
X120950000Y-96274500D01*
X120946556Y-96275185D01*
X120790500Y-96275185D01*
X120790500Y-95964043D01*
X133166500Y-95964043D01*
X133166500Y-96050625D01*
X133337375Y-96221500D01*
X134071500Y-96221500D01*
X134071500Y-95587375D01*
X134228500Y-95587375D01*
X134228500Y-96221500D01*
X134962625Y-96221500D01*
X135133500Y-96050625D01*
X135133500Y-95964043D01*
X135029443Y-95712828D01*
X134837171Y-95520556D01*
X134585956Y-95416500D01*
X134399375Y-95416500D01*
X134228500Y-95587375D01*
X134071500Y-95587375D01*
X133900625Y-95416500D01*
X133714044Y-95416500D01*
X133462829Y-95520556D01*
X133270557Y-95712828D01*
X133166500Y-95964043D01*
X120790500Y-95964043D01*
X120790500Y-94588500D01*
X120938500Y-94588500D01*
X120938500Y-95272625D01*
X121109375Y-95443500D01*
X121620956Y-95443500D01*
X121872171Y-95339444D01*
X122064443Y-95147172D01*
X122168500Y-94895957D01*
X122168500Y-94759375D01*
X121997625Y-94588500D01*
X120938500Y-94588500D01*
X120790500Y-94588500D01*
X120790500Y-93747375D01*
X120938500Y-93747375D01*
X120938500Y-94431500D01*
X121997625Y-94431500D01*
X122168500Y-94260625D01*
X122168500Y-94124043D01*
X122064443Y-93872828D01*
X121872171Y-93680556D01*
X121620956Y-93576500D01*
X121109375Y-93576500D01*
X120938500Y-93747375D01*
X120790500Y-93747375D01*
X120790500Y-91510000D01*
X120748596Y-91299333D01*
X120705366Y-91234635D01*
X120629263Y-91120738D01*
X119358524Y-89850000D01*
X120331903Y-88876622D01*
X120804582Y-89349301D01*
X120832072Y-89368084D01*
X123652525Y-92188537D01*
X123702180Y-92308712D01*
X123920141Y-92527054D01*
X124205067Y-92645365D01*
X124513580Y-92645634D01*
X124798712Y-92527820D01*
X125017054Y-92309859D01*
X125135365Y-92024933D01*
X125135634Y-91716420D01*
X125017820Y-91431288D01*
X124799859Y-91212946D01*
X124678612Y-91162600D01*
X122773709Y-89257697D01*
X156388853Y-89257697D01*
X156388853Y-89499351D01*
X156485431Y-89595929D01*
X156736646Y-89699985D01*
X157008559Y-89699985D01*
X157259774Y-89595928D01*
X157452046Y-89403657D01*
X157621516Y-89234186D01*
X157621516Y-88992532D01*
X157137767Y-88508783D01*
X156388853Y-89257697D01*
X122773709Y-89257697D01*
X122631540Y-89115528D01*
X122753580Y-89115634D01*
X123038712Y-88997820D01*
X123257054Y-88779859D01*
X123375365Y-88494933D01*
X123375473Y-88371485D01*
X123512525Y-88508537D01*
X123562180Y-88628712D01*
X123780141Y-88847054D01*
X124065067Y-88965365D01*
X124373580Y-88965634D01*
X124658712Y-88847820D01*
X124877054Y-88629859D01*
X124995365Y-88344933D01*
X124995634Y-88036420D01*
X124877820Y-87751288D01*
X124659859Y-87532946D01*
X124538612Y-87482600D01*
X123637473Y-86581461D01*
X123611534Y-86542349D01*
X123138855Y-86069670D01*
X123761526Y-85446998D01*
X123934018Y-85446998D01*
X123934018Y-85688652D01*
X124103488Y-85858123D01*
X124295760Y-86050394D01*
X124546975Y-86154451D01*
X124818888Y-86154451D01*
X125070103Y-86050395D01*
X125166681Y-85953817D01*
X125166681Y-85712163D01*
X124417767Y-84963249D01*
X123934018Y-85446998D01*
X123761526Y-85446998D01*
X124356291Y-84852233D01*
X124528783Y-84852233D01*
X125277697Y-85601147D01*
X125519351Y-85601147D01*
X125615929Y-85504569D01*
X125719985Y-85253354D01*
X125719985Y-84981441D01*
X125615928Y-84730226D01*
X125423657Y-84537954D01*
X125254186Y-84368484D01*
X125012532Y-84368484D01*
X124528783Y-84852233D01*
X124356291Y-84852233D01*
X126119262Y-83089262D01*
X126238596Y-82910668D01*
X126280500Y-82700000D01*
X126280500Y-80490500D01*
X126495185Y-80490500D01*
X126495185Y-81165000D01*
X126495185Y-81165000D01*
G37*
X126495185Y-81165000D02*
X126504500Y-81214505D01*
X126504500Y-86550895D01*
X126444635Y-86695067D01*
X126444366Y-87003580D01*
X126562180Y-87288712D01*
X126780141Y-87507054D01*
X127065067Y-87625365D01*
X127373580Y-87625634D01*
X127658712Y-87507820D01*
X127877054Y-87289859D01*
X127995365Y-87004933D01*
X127995540Y-86803905D01*
X129307110Y-86803905D01*
X129340724Y-87040968D01*
X129789269Y-87214023D01*
X130269897Y-87202254D01*
X130659276Y-87040968D01*
X130692890Y-86803905D01*
X130000000Y-86111016D01*
X129307110Y-86803905D01*
X127995540Y-86803905D01*
X127995634Y-86696420D01*
X127955500Y-86599288D01*
X127955500Y-85789269D01*
X128785977Y-85789269D01*
X128797746Y-86269897D01*
X128959032Y-86659276D01*
X129196095Y-86692890D01*
X129888984Y-86000000D01*
X130111016Y-86000000D01*
X130803905Y-86692890D01*
X131040968Y-86659276D01*
X131112866Y-86472923D01*
X131151323Y-86565997D01*
X131432522Y-86847688D01*
X131800115Y-87000326D01*
X132198139Y-87000673D01*
X132565997Y-86848677D01*
X132847688Y-86567478D01*
X133000187Y-86200220D01*
X133151323Y-86565997D01*
X133432522Y-86847688D01*
X133800115Y-87000326D01*
X134198139Y-87000673D01*
X134565997Y-86848677D01*
X134847688Y-86567478D01*
X135000187Y-86200220D01*
X135151323Y-86565997D01*
X135432522Y-86847688D01*
X135800115Y-87000326D01*
X136198139Y-87000673D01*
X136565997Y-86848677D01*
X136847688Y-86567478D01*
X137000187Y-86200220D01*
X137151323Y-86565997D01*
X137432522Y-86847688D01*
X137800115Y-87000326D01*
X138198139Y-87000673D01*
X138565997Y-86848677D01*
X138847688Y-86567478D01*
X139000187Y-86200220D01*
X139151323Y-86565997D01*
X139432522Y-86847688D01*
X139800115Y-87000326D01*
X140198139Y-87000673D01*
X140565997Y-86848677D01*
X140847688Y-86567478D01*
X141000187Y-86200220D01*
X141151323Y-86565997D01*
X141432522Y-86847688D01*
X141800115Y-87000326D01*
X142198139Y-87000673D01*
X142565997Y-86848677D01*
X142847688Y-86567478D01*
X143000187Y-86200220D01*
X143151323Y-86565997D01*
X143432522Y-86847688D01*
X143800115Y-87000326D01*
X144198139Y-87000673D01*
X144565997Y-86848677D01*
X144847688Y-86567478D01*
X145000187Y-86200220D01*
X145151323Y-86565997D01*
X145432522Y-86847688D01*
X145800115Y-87000326D01*
X146198139Y-87000673D01*
X146565997Y-86848677D01*
X146847688Y-86567478D01*
X146990185Y-86224307D01*
X146990185Y-86525000D01*
X147023341Y-86701210D01*
X147127481Y-86863047D01*
X147286380Y-86971618D01*
X147475000Y-87009815D01*
X148525000Y-87009815D01*
X148701210Y-86976659D01*
X148863047Y-86872519D01*
X148971618Y-86713620D01*
X149009815Y-86525000D01*
X149009815Y-85475000D01*
X148976659Y-85298790D01*
X148872519Y-85136953D01*
X148713620Y-85028382D01*
X148525000Y-84990185D01*
X147475000Y-84990185D01*
X147298790Y-85023341D01*
X147136953Y-85127481D01*
X147028382Y-85286380D01*
X146990185Y-85475000D01*
X146990185Y-85776478D01*
X146848677Y-85434003D01*
X146567478Y-85152312D01*
X146199885Y-84999674D01*
X145801861Y-84999327D01*
X145434003Y-85151323D01*
X145152312Y-85432522D01*
X144999813Y-85799780D01*
X144848677Y-85434003D01*
X144567478Y-85152312D01*
X144199885Y-84999674D01*
X143801861Y-84999327D01*
X143434003Y-85151323D01*
X143152312Y-85432522D01*
X142999813Y-85799780D01*
X142848677Y-85434003D01*
X142567478Y-85152312D01*
X142199885Y-84999674D01*
X141801861Y-84999327D01*
X141434003Y-85151323D01*
X141152312Y-85432522D01*
X140999813Y-85799780D01*
X140848677Y-85434003D01*
X140567478Y-85152312D01*
X140199885Y-84999674D01*
X139801861Y-84999327D01*
X139434003Y-85151323D01*
X139152312Y-85432522D01*
X138999813Y-85799780D01*
X138848677Y-85434003D01*
X138567478Y-85152312D01*
X138199885Y-84999674D01*
X137801861Y-84999327D01*
X137434003Y-85151323D01*
X137152312Y-85432522D01*
X136999813Y-85799780D01*
X136848677Y-85434003D01*
X136567478Y-85152312D01*
X136199885Y-84999674D01*
X135801861Y-84999327D01*
X135434003Y-85151323D01*
X135152312Y-85432522D01*
X134999813Y-85799780D01*
X134848677Y-85434003D01*
X134567478Y-85152312D01*
X134199885Y-84999674D01*
X133801861Y-84999327D01*
X133434003Y-85151323D01*
X133152312Y-85432522D01*
X132999813Y-85799780D01*
X132848677Y-85434003D01*
X132567478Y-85152312D01*
X132199885Y-84999674D01*
X131801861Y-84999327D01*
X131434003Y-85151323D01*
X131152312Y-85432522D01*
X131115607Y-85520918D01*
X131040968Y-85340724D01*
X130803905Y-85307110D01*
X130111016Y-86000000D01*
X129888984Y-86000000D01*
X129196095Y-85307110D01*
X128959032Y-85340724D01*
X128785977Y-85789269D01*
X127955500Y-85789269D01*
X127955500Y-85196095D01*
X129307110Y-85196095D01*
X130000000Y-85888984D01*
X130692890Y-85196095D01*
X130659276Y-84959032D01*
X130210731Y-84785977D01*
X129730103Y-84797746D01*
X129340724Y-84959032D01*
X129307110Y-85196095D01*
X127955500Y-85196095D01*
X127955500Y-82382265D01*
X128040141Y-82467054D01*
X128325067Y-82585365D01*
X128633580Y-82585634D01*
X128918712Y-82467820D01*
X129004500Y-82382182D01*
X129004500Y-82404978D01*
X128954635Y-82525067D01*
X128954366Y-82833580D01*
X129072180Y-83118712D01*
X129290141Y-83337054D01*
X129575067Y-83455365D01*
X129883580Y-83455634D01*
X130168712Y-83337820D01*
X130387054Y-83119859D01*
X130505365Y-82834933D01*
X130505634Y-82526420D01*
X130455500Y-82405086D01*
X130455500Y-81210998D01*
X130464815Y-81165000D01*
X130464815Y-80789375D01*
X131296500Y-80789375D01*
X131296500Y-81300956D01*
X131400556Y-81552171D01*
X131592828Y-81744443D01*
X131844043Y-81848500D01*
X131980625Y-81848500D01*
X132151500Y-81677625D01*
X132151500Y-80618500D01*
X132308500Y-80618500D01*
X132308500Y-81677625D01*
X132479375Y-81848500D01*
X132615957Y-81848500D01*
X132867172Y-81744443D01*
X133059444Y-81552171D01*
X133163500Y-81300956D01*
X133163500Y-80789375D01*
X132992625Y-80618500D01*
X132308500Y-80618500D01*
X132151500Y-80618500D01*
X131467375Y-80618500D01*
X131296500Y-80789375D01*
X130464815Y-80789375D01*
X130464815Y-80490500D01*
X135775185Y-80490500D01*
X135775185Y-81195000D01*
X135784500Y-81244505D01*
X135784500Y-83564978D01*
X135734635Y-83685067D01*
X135734366Y-83993580D01*
X135852180Y-84278712D01*
X136070141Y-84497054D01*
X136355067Y-84615365D01*
X136663580Y-84615634D01*
X136784914Y-84565500D01*
X143724978Y-84565500D01*
X143845067Y-84615365D01*
X144153580Y-84615634D01*
X144274914Y-84565500D01*
X145170000Y-84565500D01*
X145447637Y-84510275D01*
X145683006Y-84353006D01*
X146303006Y-83733006D01*
X146460275Y-83497637D01*
X146515500Y-83220000D01*
X146515500Y-82392283D01*
X146590141Y-82467054D01*
X146875067Y-82585365D01*
X147183580Y-82585634D01*
X147468712Y-82467820D01*
X147564500Y-82372199D01*
X147564500Y-82404978D01*
X147514635Y-82525067D01*
X147514366Y-82833580D01*
X147632180Y-83118712D01*
X147850141Y-83337054D01*
X148135067Y-83455365D01*
X148443580Y-83455634D01*
X148728712Y-83337820D01*
X148947054Y-83119859D01*
X149065365Y-82834933D01*
X149065634Y-82526420D01*
X149015500Y-82405086D01*
X149015500Y-80799375D01*
X149846500Y-80799375D01*
X149846500Y-81310956D01*
X149950556Y-81562171D01*
X150142828Y-81754443D01*
X150394043Y-81858500D01*
X150530625Y-81858500D01*
X150701500Y-81687625D01*
X150701500Y-80628500D01*
X150017375Y-80628500D01*
X149846500Y-80799375D01*
X149015500Y-80799375D01*
X149015500Y-80640000D01*
X149014815Y-80636556D01*
X149014815Y-80490500D01*
X150878500Y-80490500D01*
X150878500Y-80628500D01*
X150858500Y-80628500D01*
X150858500Y-81687625D01*
X151029375Y-81858500D01*
X151165957Y-81858500D01*
X151417172Y-81754443D01*
X151609444Y-81562171D01*
X151699500Y-81344755D01*
X151699500Y-82640000D01*
X151741404Y-82850668D01*
X151860738Y-83029262D01*
X153128378Y-84296903D01*
X153018658Y-84406623D01*
X153014761Y-84409227D01*
X151051463Y-86372525D01*
X150931288Y-86422180D01*
X150712946Y-86640141D01*
X150594635Y-86925067D01*
X150594366Y-87233580D01*
X150712180Y-87518712D01*
X150930141Y-87737054D01*
X151215067Y-87855365D01*
X151523580Y-87855634D01*
X151808712Y-87737820D01*
X152027054Y-87519859D01*
X152077400Y-87398612D01*
X152884481Y-86591531D01*
X152884366Y-86723580D01*
X153002180Y-87008712D01*
X153220141Y-87227054D01*
X153505067Y-87345365D01*
X153618524Y-87345464D01*
X153601463Y-87362525D01*
X153481288Y-87412180D01*
X153262946Y-87630141D01*
X153144635Y-87915067D01*
X153144366Y-88223580D01*
X153262180Y-88508712D01*
X153480141Y-88727054D01*
X153765067Y-88845365D01*
X154073580Y-88845634D01*
X154358712Y-88727820D01*
X154559908Y-88526975D01*
X155835549Y-88526975D01*
X155835549Y-88798888D01*
X155939605Y-89050103D01*
X156036183Y-89146681D01*
X156277837Y-89146681D01*
X157026751Y-88397767D01*
X156543002Y-87914018D01*
X156301348Y-87914018D01*
X156131877Y-88083488D01*
X155939606Y-88275760D01*
X155835549Y-88526975D01*
X154559908Y-88526975D01*
X154577054Y-88509859D01*
X154627400Y-88388612D01*
X155378848Y-87637164D01*
X155447651Y-87591534D01*
X155935330Y-87103855D01*
X158671476Y-89840000D01*
X157380738Y-91130738D01*
X157261404Y-91309332D01*
X157261404Y-91309333D01*
X157219500Y-91520000D01*
X157219500Y-93765185D01*
X156495000Y-93765185D01*
X156445495Y-93774500D01*
X154600413Y-93774500D01*
X154600634Y-93521420D01*
X154482820Y-93236288D01*
X154264859Y-93017946D01*
X153979933Y-92899635D01*
X153671420Y-92899366D01*
X153550086Y-92949500D01*
X141275500Y-92949500D01*
X141275500Y-92625000D01*
X141256029Y-92527113D01*
X141227887Y-92385631D01*
X141092295Y-92182705D01*
X140292295Y-91382705D01*
X140089369Y-91247113D01*
X139850000Y-91199500D01*
X133500000Y-91199500D01*
X133260632Y-91247113D01*
X133260630Y-91247114D01*
X133260631Y-91247114D01*
X133057704Y-91382705D01*
X132641763Y-91798647D01*
X132547820Y-91571288D01*
X132329859Y-91352946D01*
X132044933Y-91234635D01*
X131736420Y-91234366D01*
X131451288Y-91352180D01*
X131232946Y-91570141D01*
X131114635Y-91855067D01*
X131114559Y-91941752D01*
X131089802Y-91925210D01*
X130860000Y-91879499D01*
X130859995Y-91879500D01*
X128740005Y-91879500D01*
X128740000Y-91879499D01*
X128510198Y-91925210D01*
X128412791Y-91990296D01*
X128315382Y-92055382D01*
X128315380Y-92055385D01*
X127816329Y-92554436D01*
X127736420Y-92554366D01*
X127451288Y-92672180D01*
X127232946Y-92890141D01*
X127114635Y-93175067D01*
X127114366Y-93483580D01*
X127232180Y-93768712D01*
X127450141Y-93987054D01*
X127735067Y-94105365D01*
X128043580Y-94105634D01*
X128328712Y-93987820D01*
X128547054Y-93769859D01*
X128665365Y-93484933D01*
X128665436Y-93403800D01*
X128988735Y-93080500D01*
X130022779Y-93080500D01*
X129912946Y-93190141D01*
X129794635Y-93475067D01*
X129794366Y-93783580D01*
X129912180Y-94068712D01*
X130130141Y-94287054D01*
X130415067Y-94405365D01*
X130723580Y-94405634D01*
X131008712Y-94287820D01*
X131227054Y-94069859D01*
X131345365Y-93784933D01*
X131345383Y-93764845D01*
X131390199Y-93794790D01*
X131620000Y-93840500D01*
X131723686Y-93840500D01*
X131780141Y-93897054D01*
X132065067Y-94015365D01*
X132373580Y-94015634D01*
X132658712Y-93897820D01*
X132877054Y-93679859D01*
X132995365Y-93394933D01*
X132995366Y-93393580D01*
X133554366Y-93393580D01*
X133672180Y-93678712D01*
X133890141Y-93897054D01*
X134175067Y-94015365D01*
X134483580Y-94015634D01*
X134768712Y-93897820D01*
X134987054Y-93679859D01*
X135105365Y-93394933D01*
X135105634Y-93086420D01*
X134987820Y-92801288D01*
X134769859Y-92582946D01*
X134484933Y-92464635D01*
X134176420Y-92464366D01*
X133891288Y-92582180D01*
X133672946Y-92800141D01*
X133554635Y-93085067D01*
X133554366Y-93393580D01*
X132995366Y-93393580D01*
X132995523Y-93214068D01*
X133759091Y-92450500D01*
X139590910Y-92450500D01*
X139881910Y-92741500D01*
X139799375Y-92741500D01*
X139628500Y-92912375D01*
X139628500Y-93596500D01*
X139648500Y-93596500D01*
X139648500Y-93753500D01*
X139628500Y-93753500D01*
X139628500Y-94437625D01*
X139799375Y-94608500D01*
X139985957Y-94608500D01*
X140049500Y-94582180D01*
X140049500Y-95051264D01*
X139813529Y-95287235D01*
X139778620Y-95263382D01*
X139590000Y-95225185D01*
X139185500Y-95225185D01*
X139185500Y-94608500D01*
X139300625Y-94608500D01*
X139471500Y-94437625D01*
X139471500Y-93753500D01*
X139451500Y-93753500D01*
X139451500Y-93596500D01*
X139471500Y-93596500D01*
X139471500Y-92912375D01*
X139300625Y-92741500D01*
X139114043Y-92741500D01*
X138862828Y-92845557D01*
X138670556Y-93037829D01*
X138566500Y-93289044D01*
X138566500Y-93393247D01*
X138304933Y-93284635D01*
X137996420Y-93284366D01*
X137711288Y-93402180D01*
X137492946Y-93620141D01*
X137374635Y-93905067D01*
X137374618Y-93924417D01*
X137316420Y-93924366D01*
X137031288Y-94042180D01*
X136812946Y-94260141D01*
X136694635Y-94545067D01*
X136694366Y-94853580D01*
X136812180Y-95138712D01*
X136898502Y-95225185D01*
X136690000Y-95225185D01*
X136534492Y-95254446D01*
X136390000Y-95225185D01*
X135890000Y-95225185D01*
X135713790Y-95258341D01*
X135551953Y-95362481D01*
X135443382Y-95521380D01*
X135405185Y-95710000D01*
X135405185Y-96028200D01*
X135310557Y-96122828D01*
X135206500Y-96374043D01*
X135206500Y-96510625D01*
X135377375Y-96681500D01*
X135824249Y-96681500D01*
X135890000Y-96694815D01*
X136238500Y-96694815D01*
X136238500Y-96794885D01*
X136208200Y-96825185D01*
X135890000Y-96825185D01*
X135819236Y-96838500D01*
X135377375Y-96838500D01*
X135270055Y-96945820D01*
X135109618Y-96785382D01*
X135079846Y-96765489D01*
X135133500Y-96635957D01*
X135133500Y-96549375D01*
X134962625Y-96378500D01*
X134228500Y-96378500D01*
X134228500Y-96398500D01*
X134071500Y-96398500D01*
X134071500Y-96378500D01*
X133337375Y-96378500D01*
X133166500Y-96549375D01*
X133166500Y-96609500D01*
X129520709Y-96609500D01*
X129407820Y-96336288D01*
X129189859Y-96117946D01*
X128904933Y-95999635D01*
X128596420Y-95999366D01*
X128311288Y-96117180D01*
X128092946Y-96335141D01*
X127974635Y-96620067D01*
X127974366Y-96928580D01*
X128092180Y-97213712D01*
X128310141Y-97432054D01*
X128595067Y-97550365D01*
X128676200Y-97550436D01*
X128760382Y-97634618D01*
X128955198Y-97764790D01*
X129185000Y-97810501D01*
X129185005Y-97810500D01*
X133608520Y-97810500D01*
X133661380Y-97846618D01*
X133850000Y-97884815D01*
X134450000Y-97884815D01*
X134500986Y-97875221D01*
X134610380Y-97984615D01*
X134610382Y-97984618D01*
X134700474Y-98044815D01*
X134805198Y-98114790D01*
X135035000Y-98160501D01*
X135035005Y-98160500D01*
X135560707Y-98160500D01*
X135701380Y-98256618D01*
X135890000Y-98294815D01*
X136208200Y-98294815D01*
X136302829Y-98389444D01*
X136554044Y-98493500D01*
X136690625Y-98493500D01*
X136861500Y-98322625D01*
X136861500Y-98078738D01*
X136910557Y-98197172D01*
X137018500Y-98305115D01*
X137018500Y-98322625D01*
X137189375Y-98493500D01*
X137325956Y-98493500D01*
X137340000Y-98487683D01*
X137354044Y-98493500D01*
X137490625Y-98493500D01*
X137661500Y-98322625D01*
X137661500Y-98305115D01*
X137740000Y-98226615D01*
X137818500Y-98305115D01*
X137818500Y-98322625D01*
X137989375Y-98493500D01*
X138125956Y-98493500D01*
X138140000Y-98487683D01*
X138154044Y-98493500D01*
X138290625Y-98493500D01*
X138461500Y-98322625D01*
X138461500Y-98305115D01*
X138569443Y-98197172D01*
X138618500Y-98078738D01*
X138618500Y-98322625D01*
X138724500Y-98428625D01*
X138724500Y-99044407D01*
X138711953Y-99052481D01*
X138603382Y-99211380D01*
X138565185Y-99400000D01*
X138565185Y-99900000D01*
X138598341Y-100076210D01*
X138702481Y-100238047D01*
X138861380Y-100346618D01*
X139050000Y-100384815D01*
X139650000Y-100384815D01*
X139665318Y-100381933D01*
X139762828Y-100479443D01*
X140014043Y-100583500D01*
X140200625Y-100583500D01*
X140371500Y-100412625D01*
X140371500Y-99728500D01*
X140528500Y-99728500D01*
X140528500Y-100412625D01*
X140699375Y-100583500D01*
X140885957Y-100583500D01*
X141137172Y-100479443D01*
X141329444Y-100287171D01*
X141433500Y-100035956D01*
X141433500Y-99899375D01*
X141283500Y-99749375D01*
X155811500Y-99749375D01*
X155811500Y-99885957D01*
X155915557Y-100137172D01*
X156107829Y-100329444D01*
X156359044Y-100433500D01*
X156870625Y-100433500D01*
X157041500Y-100262625D01*
X157041500Y-99578500D01*
X155982375Y-99578500D01*
X155811500Y-99749375D01*
X141283500Y-99749375D01*
X141262625Y-99728500D01*
X140528500Y-99728500D01*
X140371500Y-99728500D01*
X140351500Y-99728500D01*
X140351500Y-99571500D01*
X140371500Y-99571500D01*
X140371500Y-98887375D01*
X140528500Y-98887375D01*
X140528500Y-99571500D01*
X141262625Y-99571500D01*
X141433500Y-99400625D01*
X141433500Y-99264044D01*
X141329444Y-99012829D01*
X141137172Y-98820557D01*
X140885957Y-98716500D01*
X140699375Y-98716500D01*
X140528500Y-98887375D01*
X140371500Y-98887375D01*
X140200625Y-98716500D01*
X140014043Y-98716500D01*
X139975500Y-98732465D01*
X139975500Y-98153440D01*
X140169802Y-98114790D01*
X140364618Y-97984618D01*
X140499618Y-97849618D01*
X140629790Y-97654802D01*
X140675501Y-97425000D01*
X140675500Y-97424995D01*
X140675500Y-96150005D01*
X140675501Y-96150000D01*
X140671143Y-96128093D01*
X141074618Y-95724618D01*
X141204790Y-95529802D01*
X141250501Y-95300000D01*
X141250500Y-95299995D01*
X141250500Y-94400500D01*
X150240279Y-94400500D01*
X150273341Y-94576210D01*
X150320580Y-94649621D01*
X150278382Y-94711380D01*
X150240185Y-94900000D01*
X150240185Y-95300000D01*
X150273341Y-95476210D01*
X150377481Y-95638047D01*
X150399500Y-95653092D01*
X150399500Y-95712233D01*
X150336953Y-95752481D01*
X150228382Y-95911380D01*
X150190185Y-96100000D01*
X150190185Y-96700000D01*
X150223341Y-96876210D01*
X150270580Y-96949621D01*
X150228382Y-97011380D01*
X150190185Y-97200000D01*
X150190185Y-97800000D01*
X150223341Y-97976210D01*
X150294500Y-98086793D01*
X150294500Y-98664978D01*
X150244635Y-98785067D01*
X150244366Y-99093580D01*
X150362180Y-99378712D01*
X150580141Y-99597054D01*
X150865067Y-99715365D01*
X151173580Y-99715634D01*
X151458712Y-99597820D01*
X151677054Y-99379859D01*
X151787429Y-99114043D01*
X155811500Y-99114043D01*
X155811500Y-99250625D01*
X155982375Y-99421500D01*
X157041500Y-99421500D01*
X157041500Y-98737375D01*
X156870625Y-98566500D01*
X156359044Y-98566500D01*
X156107829Y-98670556D01*
X155915557Y-98862828D01*
X155811500Y-99114043D01*
X151787429Y-99114043D01*
X151795365Y-99094933D01*
X151795634Y-98786420D01*
X151745500Y-98665086D01*
X151745500Y-98100022D01*
X151821618Y-97988620D01*
X151859815Y-97800000D01*
X151859815Y-97200000D01*
X151826659Y-97023790D01*
X151779420Y-96950379D01*
X151821618Y-96888620D01*
X151859815Y-96700000D01*
X151859815Y-96100000D01*
X151826659Y-95923790D01*
X151722519Y-95761953D01*
X151650500Y-95712745D01*
X151650500Y-95655593D01*
X151663047Y-95647519D01*
X151771618Y-95488620D01*
X151809815Y-95300000D01*
X151809815Y-94900000D01*
X151776659Y-94723790D01*
X151729420Y-94650379D01*
X151771618Y-94588620D01*
X151809714Y-94400500D01*
X152704488Y-94400500D01*
X153316994Y-95013006D01*
X153552363Y-95170275D01*
X153830000Y-95225500D01*
X155327735Y-95225500D01*
X155242946Y-95310141D01*
X155124635Y-95595067D01*
X155124366Y-95903580D01*
X155242180Y-96188712D01*
X155327818Y-96274500D01*
X155245022Y-96274500D01*
X155124933Y-96224635D01*
X154816420Y-96224366D01*
X154531288Y-96342180D01*
X154312946Y-96560141D01*
X154194635Y-96845067D01*
X154194366Y-97153580D01*
X154312180Y-97438712D01*
X154530141Y-97657054D01*
X154815067Y-97775365D01*
X155123580Y-97775634D01*
X155244914Y-97725500D01*
X156449002Y-97725500D01*
X156495000Y-97734815D01*
X157219500Y-97734815D01*
X157219500Y-98716375D01*
X157198500Y-98737375D01*
X157198500Y-99421500D01*
X157218500Y-99421500D01*
X157218500Y-99578500D01*
X157198500Y-99578500D01*
X157198500Y-100262625D01*
X157219500Y-100283625D01*
X157219500Y-102510000D01*
X157261404Y-102720668D01*
X157380738Y-102899262D01*
X158661476Y-104180000D01*
X157703098Y-105138379D01*
X157235418Y-104670699D01*
X157176355Y-104630343D01*
X156263006Y-103716994D01*
X156027637Y-103559725D01*
X155750000Y-103504500D01*
X154105022Y-103504500D01*
X153984933Y-103454635D01*
X153676420Y-103454366D01*
X153391288Y-103572180D01*
X153172946Y-103790141D01*
X153054635Y-104075067D01*
X153054366Y-104383580D01*
X153172180Y-104668712D01*
X153390141Y-104887054D01*
X153675067Y-105005365D01*
X153983580Y-105005634D01*
X154104914Y-104955500D01*
X155060060Y-104955500D01*
X154971288Y-104992180D01*
X154752946Y-105210141D01*
X154634635Y-105495067D01*
X154634527Y-105618515D01*
X154597475Y-105581463D01*
X154547820Y-105461288D01*
X154329859Y-105242946D01*
X154044933Y-105124635D01*
X153736420Y-105124366D01*
X153451288Y-105242180D01*
X153232946Y-105460141D01*
X153114635Y-105745067D01*
X153114366Y-106053580D01*
X153232180Y-106338712D01*
X153450141Y-106557054D01*
X153571388Y-106607400D01*
X154402527Y-107438539D01*
X154428466Y-107477651D01*
X154896146Y-107945331D01*
X151730738Y-111110738D01*
X151611404Y-111289332D01*
X151611404Y-111289333D01*
X151569500Y-111500000D01*
X151569500Y-113499500D01*
X151524815Y-113499500D01*
X151524815Y-112825000D01*
X151515500Y-112775495D01*
X151515500Y-108766646D01*
X152320015Y-108766646D01*
X152320015Y-109038559D01*
X152424072Y-109289774D01*
X152616343Y-109482046D01*
X152785814Y-109651516D01*
X153027468Y-109651516D01*
X153511217Y-109167767D01*
X152762303Y-108418853D01*
X152520649Y-108418853D01*
X152424071Y-108515431D01*
X152320015Y-108766646D01*
X151515500Y-108766646D01*
X151515500Y-108066183D01*
X152873319Y-108066183D01*
X152873319Y-108307837D01*
X153622233Y-109056751D01*
X154105982Y-108573002D01*
X154105982Y-108331348D01*
X153936512Y-108161877D01*
X153744240Y-107969606D01*
X153493025Y-107865549D01*
X153221112Y-107865549D01*
X152969897Y-107969605D01*
X152873319Y-108066183D01*
X151515500Y-108066183D01*
X151515500Y-107576856D01*
X151545365Y-107504933D01*
X151545634Y-107196420D01*
X151427820Y-106911288D01*
X151209859Y-106692946D01*
X150924933Y-106574635D01*
X150616420Y-106574366D01*
X150331288Y-106692180D01*
X150112946Y-106910141D01*
X149994635Y-107195067D01*
X149994366Y-107503580D01*
X150064500Y-107673317D01*
X150064500Y-111717735D01*
X149979859Y-111632946D01*
X149694933Y-111514635D01*
X149386420Y-111514366D01*
X149101288Y-111632180D01*
X149023218Y-111710114D01*
X149024369Y-111463662D01*
X149065365Y-111364933D01*
X149065634Y-111056420D01*
X148947820Y-110771288D01*
X148729859Y-110552946D01*
X148444933Y-110434635D01*
X148136420Y-110434366D01*
X147851288Y-110552180D01*
X147632946Y-110770141D01*
X147514635Y-111055067D01*
X147514366Y-111363580D01*
X147573156Y-111505864D01*
X147567271Y-112765318D01*
X147555185Y-112825000D01*
X147555185Y-113499500D01*
X142234815Y-113499500D01*
X142234815Y-113363444D01*
X142235500Y-113360000D01*
X142235500Y-112689044D01*
X144856500Y-112689044D01*
X144856500Y-113200625D01*
X145027375Y-113371500D01*
X145711500Y-113371500D01*
X145711500Y-112312375D01*
X145868500Y-112312375D01*
X145868500Y-113371500D01*
X146552625Y-113371500D01*
X146723500Y-113200625D01*
X146723500Y-112689044D01*
X146619444Y-112437829D01*
X146427172Y-112245557D01*
X146175957Y-112141500D01*
X146039375Y-112141500D01*
X145868500Y-112312375D01*
X145711500Y-112312375D01*
X145540625Y-112141500D01*
X145404043Y-112141500D01*
X145152828Y-112245557D01*
X144960556Y-112437829D01*
X144856500Y-112689044D01*
X142235500Y-112689044D01*
X142235500Y-111280000D01*
X142180275Y-111002363D01*
X142023006Y-110766994D01*
X140967475Y-109711463D01*
X140917820Y-109591288D01*
X140699859Y-109372946D01*
X140414933Y-109254635D01*
X140106420Y-109254366D01*
X139821288Y-109372180D01*
X139602946Y-109590141D01*
X139484635Y-109875067D01*
X139484366Y-110183580D01*
X139602180Y-110468712D01*
X139820141Y-110687054D01*
X139941388Y-110737400D01*
X140784500Y-111580512D01*
X140784500Y-111717735D01*
X140699859Y-111632946D01*
X140414933Y-111514635D01*
X140106420Y-111514366D01*
X139821288Y-111632180D01*
X139735500Y-111717818D01*
X139735500Y-111495022D01*
X139785365Y-111374933D01*
X139785634Y-111066420D01*
X139667820Y-110781288D01*
X139449859Y-110562946D01*
X139164933Y-110444635D01*
X138856420Y-110444366D01*
X138571288Y-110562180D01*
X138352946Y-110780141D01*
X138234635Y-111065067D01*
X138234366Y-111373580D01*
X138284500Y-111494914D01*
X138284500Y-112729621D01*
X138265185Y-112825000D01*
X138265185Y-113499500D01*
X132954815Y-113499500D01*
X132954815Y-113363444D01*
X132955500Y-113360000D01*
X132955500Y-112689044D01*
X135566500Y-112689044D01*
X135566500Y-113200625D01*
X135737375Y-113371500D01*
X136421500Y-113371500D01*
X136421500Y-112312375D01*
X136578500Y-112312375D01*
X136578500Y-113371500D01*
X137262625Y-113371500D01*
X137433500Y-113200625D01*
X137433500Y-112689044D01*
X137329444Y-112437829D01*
X137137172Y-112245557D01*
X136885957Y-112141500D01*
X136749375Y-112141500D01*
X136578500Y-112312375D01*
X136421500Y-112312375D01*
X136250625Y-112141500D01*
X136114043Y-112141500D01*
X135862828Y-112245557D01*
X135670556Y-112437829D01*
X135566500Y-112689044D01*
X132955500Y-112689044D01*
X132955500Y-110295022D01*
X133005365Y-110174933D01*
X133005634Y-109866420D01*
X132887820Y-109581288D01*
X132669859Y-109362946D01*
X132384933Y-109244635D01*
X132076420Y-109244366D01*
X131791288Y-109362180D01*
X131572946Y-109580141D01*
X131454635Y-109865067D01*
X131454366Y-110173580D01*
X131504500Y-110294914D01*
X131504500Y-111717735D01*
X131419859Y-111632946D01*
X131134933Y-111514635D01*
X130826420Y-111514366D01*
X130541288Y-111632180D01*
X130463218Y-111710114D01*
X130464208Y-111498133D01*
X130515365Y-111374933D01*
X130515634Y-111066420D01*
X130397820Y-110781288D01*
X130179859Y-110562946D01*
X129894933Y-110444635D01*
X129586420Y-110444366D01*
X129301288Y-110562180D01*
X129082946Y-110780141D01*
X128964635Y-111065067D01*
X128964366Y-111373580D01*
X129013222Y-111491821D01*
X129007794Y-112653354D01*
X128985185Y-112765000D01*
X128985185Y-113499500D01*
X128013625Y-113499500D01*
X127982625Y-113468500D01*
X127298500Y-113468500D01*
X127298500Y-113488500D01*
X127141500Y-113488500D01*
X127141500Y-113468500D01*
X127121500Y-113468500D01*
X127121500Y-113311500D01*
X127141500Y-113311500D01*
X127141500Y-112252375D01*
X127298500Y-112252375D01*
X127298500Y-113311500D01*
X127982625Y-113311500D01*
X128153500Y-113140625D01*
X128153500Y-112629044D01*
X128049444Y-112377829D01*
X127857172Y-112185557D01*
X127605957Y-112081500D01*
X127469375Y-112081500D01*
X127298500Y-112252375D01*
X127141500Y-112252375D01*
X126970625Y-112081500D01*
X126834043Y-112081500D01*
X126582828Y-112185557D01*
X126390556Y-112377829D01*
X126390500Y-112377964D01*
X126390500Y-111460000D01*
X126348596Y-111249333D01*
X126348596Y-111249332D01*
X126229262Y-111070738D01*
X126139265Y-110980741D01*
X126139263Y-110980738D01*
X124896622Y-109738097D01*
X125359301Y-109275418D01*
X125442802Y-109153210D01*
X126397873Y-108198139D01*
X128999327Y-108198139D01*
X129151323Y-108565997D01*
X129432522Y-108847688D01*
X129800115Y-109000326D01*
X130198139Y-109000673D01*
X130565997Y-108848677D01*
X130847688Y-108567478D01*
X131000187Y-108200220D01*
X131151323Y-108565997D01*
X131432522Y-108847688D01*
X131800115Y-109000326D01*
X132198139Y-109000673D01*
X132565997Y-108848677D01*
X132847688Y-108567478D01*
X133000187Y-108200220D01*
X133151323Y-108565997D01*
X133432522Y-108847688D01*
X133800115Y-109000326D01*
X134198139Y-109000673D01*
X134565997Y-108848677D01*
X134847688Y-108567478D01*
X135000187Y-108200220D01*
X135151323Y-108565997D01*
X135432522Y-108847688D01*
X135800115Y-109000326D01*
X136198139Y-109000673D01*
X136565997Y-108848677D01*
X136847688Y-108567478D01*
X137000187Y-108200220D01*
X137151323Y-108565997D01*
X137432522Y-108847688D01*
X137800115Y-109000326D01*
X138198139Y-109000673D01*
X138565997Y-108848677D01*
X138847688Y-108567478D01*
X139000187Y-108200220D01*
X139151323Y-108565997D01*
X139432522Y-108847688D01*
X139800115Y-109000326D01*
X140198139Y-109000673D01*
X140565997Y-108848677D01*
X140847688Y-108567478D01*
X141000187Y-108200220D01*
X141151323Y-108565997D01*
X141432522Y-108847688D01*
X141800115Y-109000326D01*
X142198139Y-109000673D01*
X142565997Y-108848677D01*
X142847688Y-108567478D01*
X143000187Y-108200220D01*
X143151323Y-108565997D01*
X143432522Y-108847688D01*
X143800115Y-109000326D01*
X144198139Y-109000673D01*
X144565997Y-108848677D01*
X144847688Y-108567478D01*
X145000187Y-108200220D01*
X145151323Y-108565997D01*
X145432522Y-108847688D01*
X145800115Y-109000326D01*
X146198139Y-109000673D01*
X146565997Y-108848677D01*
X146847688Y-108567478D01*
X146990185Y-108224307D01*
X146990185Y-108525000D01*
X147023341Y-108701210D01*
X147127481Y-108863047D01*
X147286380Y-108971618D01*
X147475000Y-109009815D01*
X148525000Y-109009815D01*
X148701210Y-108976659D01*
X148863047Y-108872519D01*
X148971618Y-108713620D01*
X149009815Y-108525000D01*
X149009815Y-107475000D01*
X148976659Y-107298790D01*
X148872519Y-107136953D01*
X148713620Y-107028382D01*
X148525000Y-106990185D01*
X147475000Y-106990185D01*
X147298790Y-107023341D01*
X147136953Y-107127481D01*
X147028382Y-107286380D01*
X146990185Y-107475000D01*
X146990185Y-107776478D01*
X146848677Y-107434003D01*
X146567478Y-107152312D01*
X146199885Y-106999674D01*
X145801861Y-106999327D01*
X145434003Y-107151323D01*
X145152312Y-107432522D01*
X144999813Y-107799780D01*
X144848677Y-107434003D01*
X144567478Y-107152312D01*
X144199885Y-106999674D01*
X143801861Y-106999327D01*
X143434003Y-107151323D01*
X143152312Y-107432522D01*
X142999813Y-107799780D01*
X142848677Y-107434003D01*
X142567478Y-107152312D01*
X142199885Y-106999674D01*
X141801861Y-106999327D01*
X141434003Y-107151323D01*
X141152312Y-107432522D01*
X140999813Y-107799780D01*
X140848677Y-107434003D01*
X140567478Y-107152312D01*
X140199885Y-106999674D01*
X139801861Y-106999327D01*
X139434003Y-107151323D01*
X139152312Y-107432522D01*
X138999813Y-107799780D01*
X138848677Y-107434003D01*
X138567478Y-107152312D01*
X138199885Y-106999674D01*
X137801861Y-106999327D01*
X137434003Y-107151323D01*
X137152312Y-107432522D01*
X136999813Y-107799780D01*
X136848677Y-107434003D01*
X136567478Y-107152312D01*
X136199885Y-106999674D01*
X135801861Y-106999327D01*
X135434003Y-107151323D01*
X135152312Y-107432522D01*
X134999813Y-107799780D01*
X134848677Y-107434003D01*
X134567478Y-107152312D01*
X134199885Y-106999674D01*
X133801861Y-106999327D01*
X133434003Y-107151323D01*
X133152312Y-107432522D01*
X132999813Y-107799780D01*
X132848677Y-107434003D01*
X132567478Y-107152312D01*
X132199885Y-106999674D01*
X131801861Y-106999327D01*
X131434003Y-107151323D01*
X131152312Y-107432522D01*
X130999813Y-107799780D01*
X130848677Y-107434003D01*
X130567478Y-107152312D01*
X130199885Y-106999674D01*
X129801861Y-106999327D01*
X129434003Y-107151323D01*
X129152312Y-107432522D01*
X128999674Y-107800115D01*
X128999327Y-108198139D01*
X126397873Y-108198139D01*
X127128537Y-107467475D01*
X127248712Y-107417820D01*
X127467054Y-107199859D01*
X127585365Y-106914933D01*
X127585634Y-106606420D01*
X127467820Y-106321288D01*
X127249859Y-106102946D01*
X126964933Y-105984635D01*
X126656420Y-105984366D01*
X126371288Y-106102180D01*
X126152946Y-106320141D01*
X126102600Y-106441388D01*
X125145536Y-107398452D01*
X125145634Y-107286420D01*
X125027820Y-107001288D01*
X124809859Y-106782946D01*
X124524933Y-106664635D01*
X124391493Y-106664519D01*
X124588537Y-106467475D01*
X124708712Y-106417820D01*
X124927054Y-106199859D01*
X125045365Y-105914933D01*
X125045634Y-105606420D01*
X124927820Y-105321288D01*
X124709859Y-105102946D01*
X124424933Y-104984635D01*
X124116420Y-104984366D01*
X123831288Y-105102180D01*
X123612946Y-105320141D01*
X123562600Y-105441388D01*
X122237131Y-106766857D01*
X122206994Y-106786994D01*
X122152973Y-106867842D01*
X122089670Y-106931145D01*
X120820758Y-105662233D01*
X120973249Y-105662233D01*
X121456998Y-106145982D01*
X121698652Y-106145982D01*
X121868123Y-105976512D01*
X122060394Y-105784240D01*
X122164451Y-105533025D01*
X122164451Y-105261112D01*
X122060395Y-105009897D01*
X121963817Y-104913319D01*
X121722163Y-104913319D01*
X120973249Y-105662233D01*
X120820758Y-105662233D01*
X119984339Y-104825814D01*
X120378484Y-104825814D01*
X120378484Y-105067468D01*
X120862233Y-105551217D01*
X121611147Y-104802303D01*
X121611147Y-104560649D01*
X121514569Y-104464071D01*
X121263354Y-104360015D01*
X120991441Y-104360015D01*
X120740226Y-104464072D01*
X120547954Y-104656343D01*
X120378484Y-104825814D01*
X119984339Y-104825814D01*
X119328524Y-104170000D01*
X120629262Y-102869262D01*
X120748596Y-102690668D01*
X120790500Y-102480000D01*
X120790500Y-100244815D01*
X121485000Y-100244815D01*
X121587651Y-100225500D01*
X124119061Y-100225500D01*
X124215067Y-100265365D01*
X124523580Y-100265634D01*
X124808712Y-100147820D01*
X125027054Y-99929859D01*
X125145365Y-99644933D01*
X125145634Y-99336420D01*
X125027820Y-99051288D01*
X124809859Y-98832946D01*
X124524933Y-98714635D01*
X124216420Y-98714366D01*
X124070884Y-98774500D01*
X122602265Y-98774500D01*
X122687054Y-98689859D01*
X122805365Y-98404933D01*
X122805634Y-98096420D01*
X122687820Y-97811288D01*
X122602182Y-97725500D01*
X122894978Y-97725500D01*
X123015067Y-97775365D01*
X123323580Y-97775634D01*
X123608712Y-97657820D01*
X123827054Y-97439859D01*
X123945365Y-97154933D01*
X123945634Y-96846420D01*
X123827820Y-96561288D01*
X123609859Y-96342946D01*
X123324933Y-96224635D01*
X123016420Y-96224366D01*
X122895086Y-96274500D01*
X120950000Y-96274500D01*
X120946556Y-96275185D01*
X120790500Y-96275185D01*
X120790500Y-95964043D01*
X133166500Y-95964043D01*
X133166500Y-96050625D01*
X133337375Y-96221500D01*
X134071500Y-96221500D01*
X134071500Y-95587375D01*
X134228500Y-95587375D01*
X134228500Y-96221500D01*
X134962625Y-96221500D01*
X135133500Y-96050625D01*
X135133500Y-95964043D01*
X135029443Y-95712828D01*
X134837171Y-95520556D01*
X134585956Y-95416500D01*
X134399375Y-95416500D01*
X134228500Y-95587375D01*
X134071500Y-95587375D01*
X133900625Y-95416500D01*
X133714044Y-95416500D01*
X133462829Y-95520556D01*
X133270557Y-95712828D01*
X133166500Y-95964043D01*
X120790500Y-95964043D01*
X120790500Y-94588500D01*
X120938500Y-94588500D01*
X120938500Y-95272625D01*
X121109375Y-95443500D01*
X121620956Y-95443500D01*
X121872171Y-95339444D01*
X122064443Y-95147172D01*
X122168500Y-94895957D01*
X122168500Y-94759375D01*
X121997625Y-94588500D01*
X120938500Y-94588500D01*
X120790500Y-94588500D01*
X120790500Y-93747375D01*
X120938500Y-93747375D01*
X120938500Y-94431500D01*
X121997625Y-94431500D01*
X122168500Y-94260625D01*
X122168500Y-94124043D01*
X122064443Y-93872828D01*
X121872171Y-93680556D01*
X121620956Y-93576500D01*
X121109375Y-93576500D01*
X120938500Y-93747375D01*
X120790500Y-93747375D01*
X120790500Y-91510000D01*
X120748596Y-91299333D01*
X120705366Y-91234635D01*
X120629263Y-91120738D01*
X119358524Y-89850000D01*
X120331903Y-88876622D01*
X120804582Y-89349301D01*
X120832072Y-89368084D01*
X123652525Y-92188537D01*
X123702180Y-92308712D01*
X123920141Y-92527054D01*
X124205067Y-92645365D01*
X124513580Y-92645634D01*
X124798712Y-92527820D01*
X125017054Y-92309859D01*
X125135365Y-92024933D01*
X125135634Y-91716420D01*
X125017820Y-91431288D01*
X124799859Y-91212946D01*
X124678612Y-91162600D01*
X122773709Y-89257697D01*
X156388853Y-89257697D01*
X156388853Y-89499351D01*
X156485431Y-89595929D01*
X156736646Y-89699985D01*
X157008559Y-89699985D01*
X157259774Y-89595928D01*
X157452046Y-89403657D01*
X157621516Y-89234186D01*
X157621516Y-88992532D01*
X157137767Y-88508783D01*
X156388853Y-89257697D01*
X122773709Y-89257697D01*
X122631540Y-89115528D01*
X122753580Y-89115634D01*
X123038712Y-88997820D01*
X123257054Y-88779859D01*
X123375365Y-88494933D01*
X123375473Y-88371485D01*
X123512525Y-88508537D01*
X123562180Y-88628712D01*
X123780141Y-88847054D01*
X124065067Y-88965365D01*
X124373580Y-88965634D01*
X124658712Y-88847820D01*
X124877054Y-88629859D01*
X124995365Y-88344933D01*
X124995634Y-88036420D01*
X124877820Y-87751288D01*
X124659859Y-87532946D01*
X124538612Y-87482600D01*
X123637473Y-86581461D01*
X123611534Y-86542349D01*
X123138855Y-86069670D01*
X123761526Y-85446998D01*
X123934018Y-85446998D01*
X123934018Y-85688652D01*
X124103488Y-85858123D01*
X124295760Y-86050394D01*
X124546975Y-86154451D01*
X124818888Y-86154451D01*
X125070103Y-86050395D01*
X125166681Y-85953817D01*
X125166681Y-85712163D01*
X124417767Y-84963249D01*
X123934018Y-85446998D01*
X123761526Y-85446998D01*
X124356291Y-84852233D01*
X124528783Y-84852233D01*
X125277697Y-85601147D01*
X125519351Y-85601147D01*
X125615929Y-85504569D01*
X125719985Y-85253354D01*
X125719985Y-84981441D01*
X125615928Y-84730226D01*
X125423657Y-84537954D01*
X125254186Y-84368484D01*
X125012532Y-84368484D01*
X124528783Y-84852233D01*
X124356291Y-84852233D01*
X126119262Y-83089262D01*
X126238596Y-82910668D01*
X126280500Y-82700000D01*
X126280500Y-80490500D01*
X126495185Y-80490500D01*
X126495185Y-81165000D01*
G36*
X137777375Y-97481500D02*
X137838500Y-97481500D01*
X137838500Y-97638500D01*
X137777375Y-97638500D01*
X137740000Y-97675875D01*
X137702625Y-97638500D01*
X137641500Y-97638500D01*
X137641500Y-97481500D01*
X137702625Y-97481500D01*
X137722625Y-97461500D01*
X137757375Y-97461500D01*
X137777375Y-97481500D01*
X137777375Y-97481500D01*
G37*
X137777375Y-97481500D02*
X137838500Y-97481500D01*
X137838500Y-97638500D01*
X137777375Y-97638500D01*
X137740000Y-97675875D01*
X137702625Y-97638500D01*
X137641500Y-97638500D01*
X137641500Y-97481500D01*
X137702625Y-97481500D01*
X137722625Y-97461500D01*
X137757375Y-97461500D01*
X137777375Y-97481500D01*
G36*
X139438500Y-96825185D02*
X139271800Y-96825185D01*
X139241500Y-96794885D01*
X139241500Y-96694815D01*
X139438500Y-96694815D01*
X139438500Y-96825185D01*
X139438500Y-96825185D01*
G37*
X139438500Y-96825185D02*
X139271800Y-96825185D01*
X139241500Y-96794885D01*
X139241500Y-96694815D01*
X139438500Y-96694815D01*
X139438500Y-96825185D01*
G36*
X140747375Y-80491500D02*
X141431500Y-80491500D01*
X141431500Y-80490500D01*
X141588500Y-80490500D01*
X141588500Y-80491500D01*
X142272625Y-80491500D01*
X142273625Y-80490500D01*
X145045185Y-80490500D01*
X145045185Y-81175000D01*
X145064500Y-81277651D01*
X145064500Y-82919488D01*
X144869488Y-83114500D01*
X144275022Y-83114500D01*
X144154933Y-83064635D01*
X143846420Y-83064366D01*
X143725086Y-83114500D01*
X139669279Y-83114500D01*
X139785365Y-82834933D01*
X139785634Y-82526420D01*
X139735500Y-82405086D01*
X139735500Y-81240998D01*
X139744815Y-81195000D01*
X139744815Y-80819375D01*
X140576500Y-80819375D01*
X140576500Y-81330956D01*
X140680556Y-81582171D01*
X140872828Y-81774443D01*
X141124043Y-81878500D01*
X141260625Y-81878500D01*
X141431500Y-81707625D01*
X141431500Y-80648500D01*
X141588500Y-80648500D01*
X141588500Y-81707625D01*
X141759375Y-81878500D01*
X141895957Y-81878500D01*
X142147172Y-81774443D01*
X142339444Y-81582171D01*
X142443500Y-81330956D01*
X142443500Y-80819375D01*
X142272625Y-80648500D01*
X141588500Y-80648500D01*
X141431500Y-80648500D01*
X140747375Y-80648500D01*
X140576500Y-80819375D01*
X139744815Y-80819375D01*
X139744815Y-80490500D01*
X140746375Y-80490500D01*
X140747375Y-80491500D01*
X140747375Y-80491500D01*
G37*
X140747375Y-80491500D02*
X141431500Y-80491500D01*
X141431500Y-80490500D01*
X141588500Y-80490500D01*
X141588500Y-80491500D01*
X142272625Y-80491500D01*
X142273625Y-80490500D01*
X145045185Y-80490500D01*
X145045185Y-81175000D01*
X145064500Y-81277651D01*
X145064500Y-82919488D01*
X144869488Y-83114500D01*
X144275022Y-83114500D01*
X144154933Y-83064635D01*
X143846420Y-83064366D01*
X143725086Y-83114500D01*
X139669279Y-83114500D01*
X139785365Y-82834933D01*
X139785634Y-82526420D01*
X139735500Y-82405086D01*
X139735500Y-81240998D01*
X139744815Y-81195000D01*
X139744815Y-80819375D01*
X140576500Y-80819375D01*
X140576500Y-81330956D01*
X140680556Y-81582171D01*
X140872828Y-81774443D01*
X141124043Y-81878500D01*
X141260625Y-81878500D01*
X141431500Y-81707625D01*
X141431500Y-80648500D01*
X141588500Y-80648500D01*
X141588500Y-81707625D01*
X141759375Y-81878500D01*
X141895957Y-81878500D01*
X142147172Y-81774443D01*
X142339444Y-81582171D01*
X142443500Y-81330956D01*
X142443500Y-80819375D01*
X142272625Y-80648500D01*
X141588500Y-80648500D01*
X141431500Y-80648500D01*
X140747375Y-80648500D01*
X140576500Y-80819375D01*
X139744815Y-80819375D01*
X139744815Y-80490500D01*
X140746375Y-80490500D01*
X140747375Y-80491500D01*
G36*
X105373790Y-90823341D02*
X105211953Y-90927481D01*
X105103382Y-91086380D01*
X105065185Y-91275000D01*
X105065185Y-92075000D01*
X105098341Y-92251210D01*
X105202481Y-92413047D01*
X105361380Y-92521618D01*
X105550000Y-92559815D01*
X109150000Y-92559815D01*
X109326210Y-92526659D01*
X109488047Y-92422519D01*
X109596618Y-92263620D01*
X109634815Y-92075000D01*
X109634815Y-91275000D01*
X109601659Y-91098790D01*
X109497519Y-90936953D01*
X109338620Y-90828382D01*
X109200936Y-90800500D01*
X111595180Y-90800500D01*
X111473790Y-90823341D01*
X111311953Y-90927481D01*
X111203382Y-91086380D01*
X111165185Y-91275000D01*
X111165185Y-92075000D01*
X111198341Y-92251210D01*
X111302481Y-92413047D01*
X111461380Y-92521618D01*
X111650000Y-92559815D01*
X114250000Y-92559815D01*
X114426210Y-92526659D01*
X114588047Y-92422519D01*
X114599500Y-92405757D01*
X114599500Y-93689952D01*
X114385956Y-93601500D01*
X113199375Y-93601500D01*
X113028500Y-93772375D01*
X113028500Y-94556500D01*
X113048500Y-94556500D01*
X113048500Y-94713500D01*
X113028500Y-94713500D01*
X113028500Y-94733500D01*
X112871500Y-94733500D01*
X112871500Y-94713500D01*
X111137375Y-94713500D01*
X110966500Y-94884375D01*
X110966500Y-95120957D01*
X111015920Y-95240266D01*
X111011288Y-95242180D01*
X110792946Y-95460141D01*
X110674635Y-95745067D01*
X110674366Y-96053580D01*
X110792180Y-96338712D01*
X111010141Y-96557054D01*
X111203211Y-96637223D01*
X111165185Y-96825000D01*
X111165185Y-97525000D01*
X111198341Y-97701210D01*
X111205296Y-97712018D01*
X111011288Y-97792180D01*
X110792946Y-98010141D01*
X110674635Y-98295067D01*
X110674366Y-98603580D01*
X110792180Y-98888712D01*
X111010141Y-99107054D01*
X111016019Y-99109495D01*
X110966500Y-99229043D01*
X110966500Y-99465625D01*
X111137375Y-99636500D01*
X112871500Y-99636500D01*
X112871500Y-99616500D01*
X113028500Y-99616500D01*
X113028500Y-99636500D01*
X113048500Y-99636500D01*
X113048500Y-99793500D01*
X113028500Y-99793500D01*
X113028500Y-100577625D01*
X113199375Y-100748500D01*
X114385956Y-100748500D01*
X114599500Y-100660048D01*
X114599500Y-101940032D01*
X114597519Y-101936953D01*
X114438620Y-101828382D01*
X114250000Y-101790185D01*
X111650000Y-101790185D01*
X111473790Y-101823341D01*
X111311953Y-101927481D01*
X111203382Y-102086380D01*
X111165185Y-102275000D01*
X111165185Y-103075000D01*
X111198341Y-103251210D01*
X111302481Y-103413047D01*
X111461380Y-103521618D01*
X111475612Y-103524500D01*
X108329565Y-103524500D01*
X108488047Y-103422519D01*
X108596618Y-103263620D01*
X108634815Y-103075000D01*
X108634815Y-102275000D01*
X108601659Y-102098790D01*
X108497519Y-101936953D01*
X108338620Y-101828382D01*
X108150000Y-101790185D01*
X105565116Y-101790185D01*
X105679801Y-101675500D01*
X106699995Y-101675500D01*
X106700000Y-101675501D01*
X106958503Y-101624081D01*
X107177651Y-101477651D01*
X107327651Y-101327651D01*
X107474081Y-101108503D01*
X107525500Y-100850000D01*
X107525500Y-100549815D01*
X108150000Y-100549815D01*
X108326210Y-100516659D01*
X108488047Y-100412519D01*
X108505937Y-100386336D01*
X108743503Y-100339081D01*
X108962651Y-100192651D01*
X109177651Y-99977651D01*
X109186521Y-99964375D01*
X110966500Y-99964375D01*
X110966500Y-100200957D01*
X111070557Y-100452172D01*
X111262829Y-100644444D01*
X111514044Y-100748500D01*
X112700625Y-100748500D01*
X112871500Y-100577625D01*
X112871500Y-99793500D01*
X111137375Y-99793500D01*
X110966500Y-99964375D01*
X109186521Y-99964375D01*
X109324081Y-99758503D01*
X109375501Y-99500000D01*
X109375500Y-99499995D01*
X109375500Y-99445436D01*
X109475365Y-99204933D01*
X109475634Y-98896420D01*
X109375500Y-98654077D01*
X109375500Y-98600000D01*
X109324081Y-98341497D01*
X109177651Y-98122349D01*
X109022651Y-97967349D01*
X108803503Y-97820919D01*
X108801111Y-97820443D01*
X109007054Y-97614859D01*
X109125365Y-97329933D01*
X109125634Y-97021420D01*
X109007820Y-96736288D01*
X108789859Y-96517946D01*
X108597723Y-96438164D01*
X108634815Y-96255000D01*
X108634815Y-95555000D01*
X108601659Y-95378790D01*
X108531223Y-95269329D01*
X108596618Y-95173620D01*
X108634815Y-94985000D01*
X108634815Y-94285000D01*
X108609234Y-94149043D01*
X110966500Y-94149043D01*
X110966500Y-94385625D01*
X111137375Y-94556500D01*
X112871500Y-94556500D01*
X112871500Y-93772375D01*
X112700625Y-93601500D01*
X111514044Y-93601500D01*
X111262829Y-93705556D01*
X111070557Y-93897828D01*
X110966500Y-94149043D01*
X108609234Y-94149043D01*
X108601659Y-94108790D01*
X108497519Y-93946953D01*
X108338620Y-93838382D01*
X108150000Y-93800185D01*
X105550000Y-93800185D01*
X105373790Y-93833341D01*
X105211953Y-93937481D01*
X105196908Y-93959500D01*
X104933421Y-93959500D01*
X104733503Y-93825919D01*
X104475000Y-93774499D01*
X104474995Y-93774500D01*
X104195436Y-93774500D01*
X103997692Y-93692390D01*
X103902651Y-93597349D01*
X103683503Y-93450919D01*
X103425000Y-93399499D01*
X103424995Y-93399500D01*
X103058625Y-93399500D01*
X102912625Y-93253500D01*
X102178500Y-93253500D01*
X102178500Y-93273500D01*
X102021500Y-93273500D01*
X102021500Y-93253500D01*
X101287375Y-93253500D01*
X101116500Y-93424375D01*
X101116500Y-93510957D01*
X101220557Y-93762172D01*
X101318250Y-93859865D01*
X101315185Y-93875000D01*
X101315185Y-94275000D01*
X101348341Y-94451210D01*
X101452481Y-94613047D01*
X101611380Y-94721618D01*
X101800000Y-94759815D01*
X102400000Y-94759815D01*
X102449505Y-94750500D01*
X103085072Y-94750500D01*
X103142180Y-94888712D01*
X103360141Y-95107054D01*
X103645067Y-95225365D01*
X103953580Y-95225634D01*
X104195923Y-95125500D01*
X104201579Y-95125500D01*
X104401497Y-95259081D01*
X104444386Y-95267612D01*
X104660000Y-95310501D01*
X104660005Y-95310500D01*
X104717226Y-95310500D01*
X104542349Y-95427349D01*
X104542347Y-95427352D01*
X103654405Y-96315294D01*
X103575000Y-96299499D01*
X103574995Y-96299500D01*
X103058625Y-96299500D01*
X102912625Y-96153500D01*
X102178500Y-96153500D01*
X102178500Y-96173500D01*
X102021500Y-96173500D01*
X102021500Y-96153500D01*
X101287375Y-96153500D01*
X101116500Y-96324375D01*
X101116500Y-96410957D01*
X101220557Y-96662172D01*
X101318250Y-96759865D01*
X101315185Y-96775000D01*
X101315185Y-97175000D01*
X101348341Y-97351210D01*
X101452481Y-97513047D01*
X101611380Y-97621618D01*
X101800000Y-97659815D01*
X102400000Y-97659815D01*
X102449505Y-97650500D01*
X103153947Y-97650500D01*
X103360141Y-97857054D01*
X103645067Y-97975365D01*
X103953580Y-97975634D01*
X103994789Y-97958607D01*
X103817946Y-98135141D01*
X103717389Y-98377309D01*
X103195198Y-98899500D01*
X103058625Y-98899500D01*
X102912625Y-98753500D01*
X102178500Y-98753500D01*
X102178500Y-98773500D01*
X102021500Y-98773500D01*
X102021500Y-98753500D01*
X101287375Y-98753500D01*
X101116500Y-98924375D01*
X101116500Y-99010957D01*
X101220557Y-99262172D01*
X101318250Y-99359865D01*
X101315185Y-99375000D01*
X101315185Y-99775000D01*
X101348341Y-99951210D01*
X101452481Y-100113047D01*
X101611380Y-100221618D01*
X101800000Y-100259815D01*
X102400000Y-100259815D01*
X102449505Y-100250500D01*
X103474995Y-100250500D01*
X103475000Y-100250501D01*
X103733503Y-100199081D01*
X103952651Y-100052651D01*
X104673036Y-99332265D01*
X104913712Y-99232820D01*
X105128629Y-99018278D01*
X105168777Y-99080671D01*
X105103382Y-99176380D01*
X105065185Y-99365000D01*
X105065185Y-100065000D01*
X105098341Y-100241210D01*
X105180085Y-100368243D01*
X105141497Y-100375919D01*
X104922349Y-100522349D01*
X104922347Y-100522352D01*
X103431549Y-102013149D01*
X103361288Y-102042180D01*
X103142946Y-102260141D01*
X103024635Y-102545067D01*
X103024366Y-102853580D01*
X103142180Y-103138712D01*
X103360141Y-103357054D01*
X103645067Y-103475365D01*
X103953580Y-103475634D01*
X104238712Y-103357820D01*
X104457054Y-103139859D01*
X104575365Y-102854933D01*
X104575430Y-102779871D01*
X105065185Y-102290117D01*
X105065185Y-103075000D01*
X105098341Y-103251210D01*
X105202481Y-103413047D01*
X105361380Y-103521618D01*
X105375612Y-103524500D01*
X101075500Y-103524500D01*
X101075500Y-98339043D01*
X101116500Y-98339043D01*
X101116500Y-98425625D01*
X101287375Y-98596500D01*
X102021500Y-98596500D01*
X102021500Y-97962375D01*
X102178500Y-97962375D01*
X102178500Y-98596500D01*
X102912625Y-98596500D01*
X103083500Y-98425625D01*
X103083500Y-98339043D01*
X102979443Y-98087828D01*
X102787171Y-97895556D01*
X102535956Y-97791500D01*
X102349375Y-97791500D01*
X102178500Y-97962375D01*
X102021500Y-97962375D01*
X101850625Y-97791500D01*
X101664044Y-97791500D01*
X101412829Y-97895556D01*
X101220557Y-98087828D01*
X101116500Y-98339043D01*
X101075500Y-98339043D01*
X101075500Y-95739043D01*
X101116500Y-95739043D01*
X101116500Y-95825625D01*
X101287375Y-95996500D01*
X102021500Y-95996500D01*
X102021500Y-95362375D01*
X102178500Y-95362375D01*
X102178500Y-95996500D01*
X102912625Y-95996500D01*
X103083500Y-95825625D01*
X103083500Y-95739043D01*
X102979443Y-95487828D01*
X102787171Y-95295556D01*
X102535956Y-95191500D01*
X102349375Y-95191500D01*
X102178500Y-95362375D01*
X102021500Y-95362375D01*
X101850625Y-95191500D01*
X101664044Y-95191500D01*
X101412829Y-95295556D01*
X101220557Y-95487828D01*
X101116500Y-95739043D01*
X101075500Y-95739043D01*
X101075500Y-92839043D01*
X101116500Y-92839043D01*
X101116500Y-92925625D01*
X101287375Y-93096500D01*
X102021500Y-93096500D01*
X102021500Y-92462375D01*
X102178500Y-92462375D01*
X102178500Y-93096500D01*
X102912625Y-93096500D01*
X103083500Y-92925625D01*
X103083500Y-92839043D01*
X102979443Y-92587828D01*
X102787171Y-92395556D01*
X102535956Y-92291500D01*
X102349375Y-92291500D01*
X102178500Y-92462375D01*
X102021500Y-92462375D01*
X101850625Y-92291500D01*
X101664044Y-92291500D01*
X101412829Y-92395556D01*
X101220557Y-92587828D01*
X101116500Y-92839043D01*
X101075500Y-92839043D01*
X101075500Y-90800500D01*
X105495180Y-90800500D01*
X105373790Y-90823341D01*
X105373790Y-90823341D01*
G37*
X105373790Y-90823341D02*
X105211953Y-90927481D01*
X105103382Y-91086380D01*
X105065185Y-91275000D01*
X105065185Y-92075000D01*
X105098341Y-92251210D01*
X105202481Y-92413047D01*
X105361380Y-92521618D01*
X105550000Y-92559815D01*
X109150000Y-92559815D01*
X109326210Y-92526659D01*
X109488047Y-92422519D01*
X109596618Y-92263620D01*
X109634815Y-92075000D01*
X109634815Y-91275000D01*
X109601659Y-91098790D01*
X109497519Y-90936953D01*
X109338620Y-90828382D01*
X109200936Y-90800500D01*
X111595180Y-90800500D01*
X111473790Y-90823341D01*
X111311953Y-90927481D01*
X111203382Y-91086380D01*
X111165185Y-91275000D01*
X111165185Y-92075000D01*
X111198341Y-92251210D01*
X111302481Y-92413047D01*
X111461380Y-92521618D01*
X111650000Y-92559815D01*
X114250000Y-92559815D01*
X114426210Y-92526659D01*
X114588047Y-92422519D01*
X114599500Y-92405757D01*
X114599500Y-93689952D01*
X114385956Y-93601500D01*
X113199375Y-93601500D01*
X113028500Y-93772375D01*
X113028500Y-94556500D01*
X113048500Y-94556500D01*
X113048500Y-94713500D01*
X113028500Y-94713500D01*
X113028500Y-94733500D01*
X112871500Y-94733500D01*
X112871500Y-94713500D01*
X111137375Y-94713500D01*
X110966500Y-94884375D01*
X110966500Y-95120957D01*
X111015920Y-95240266D01*
X111011288Y-95242180D01*
X110792946Y-95460141D01*
X110674635Y-95745067D01*
X110674366Y-96053580D01*
X110792180Y-96338712D01*
X111010141Y-96557054D01*
X111203211Y-96637223D01*
X111165185Y-96825000D01*
X111165185Y-97525000D01*
X111198341Y-97701210D01*
X111205296Y-97712018D01*
X111011288Y-97792180D01*
X110792946Y-98010141D01*
X110674635Y-98295067D01*
X110674366Y-98603580D01*
X110792180Y-98888712D01*
X111010141Y-99107054D01*
X111016019Y-99109495D01*
X110966500Y-99229043D01*
X110966500Y-99465625D01*
X111137375Y-99636500D01*
X112871500Y-99636500D01*
X112871500Y-99616500D01*
X113028500Y-99616500D01*
X113028500Y-99636500D01*
X113048500Y-99636500D01*
X113048500Y-99793500D01*
X113028500Y-99793500D01*
X113028500Y-100577625D01*
X113199375Y-100748500D01*
X114385956Y-100748500D01*
X114599500Y-100660048D01*
X114599500Y-101940032D01*
X114597519Y-101936953D01*
X114438620Y-101828382D01*
X114250000Y-101790185D01*
X111650000Y-101790185D01*
X111473790Y-101823341D01*
X111311953Y-101927481D01*
X111203382Y-102086380D01*
X111165185Y-102275000D01*
X111165185Y-103075000D01*
X111198341Y-103251210D01*
X111302481Y-103413047D01*
X111461380Y-103521618D01*
X111475612Y-103524500D01*
X108329565Y-103524500D01*
X108488047Y-103422519D01*
X108596618Y-103263620D01*
X108634815Y-103075000D01*
X108634815Y-102275000D01*
X108601659Y-102098790D01*
X108497519Y-101936953D01*
X108338620Y-101828382D01*
X108150000Y-101790185D01*
X105565116Y-101790185D01*
X105679801Y-101675500D01*
X106699995Y-101675500D01*
X106700000Y-101675501D01*
X106958503Y-101624081D01*
X107177651Y-101477651D01*
X107327651Y-101327651D01*
X107474081Y-101108503D01*
X107525500Y-100850000D01*
X107525500Y-100549815D01*
X108150000Y-100549815D01*
X108326210Y-100516659D01*
X108488047Y-100412519D01*
X108505937Y-100386336D01*
X108743503Y-100339081D01*
X108962651Y-100192651D01*
X109177651Y-99977651D01*
X109186521Y-99964375D01*
X110966500Y-99964375D01*
X110966500Y-100200957D01*
X111070557Y-100452172D01*
X111262829Y-100644444D01*
X111514044Y-100748500D01*
X112700625Y-100748500D01*
X112871500Y-100577625D01*
X112871500Y-99793500D01*
X111137375Y-99793500D01*
X110966500Y-99964375D01*
X109186521Y-99964375D01*
X109324081Y-99758503D01*
X109375501Y-99500000D01*
X109375500Y-99499995D01*
X109375500Y-99445436D01*
X109475365Y-99204933D01*
X109475634Y-98896420D01*
X109375500Y-98654077D01*
X109375500Y-98600000D01*
X109324081Y-98341497D01*
X109177651Y-98122349D01*
X109022651Y-97967349D01*
X108803503Y-97820919D01*
X108801111Y-97820443D01*
X109007054Y-97614859D01*
X109125365Y-97329933D01*
X109125634Y-97021420D01*
X109007820Y-96736288D01*
X108789859Y-96517946D01*
X108597723Y-96438164D01*
X108634815Y-96255000D01*
X108634815Y-95555000D01*
X108601659Y-95378790D01*
X108531223Y-95269329D01*
X108596618Y-95173620D01*
X108634815Y-94985000D01*
X108634815Y-94285000D01*
X108609234Y-94149043D01*
X110966500Y-94149043D01*
X110966500Y-94385625D01*
X111137375Y-94556500D01*
X112871500Y-94556500D01*
X112871500Y-93772375D01*
X112700625Y-93601500D01*
X111514044Y-93601500D01*
X111262829Y-93705556D01*
X111070557Y-93897828D01*
X110966500Y-94149043D01*
X108609234Y-94149043D01*
X108601659Y-94108790D01*
X108497519Y-93946953D01*
X108338620Y-93838382D01*
X108150000Y-93800185D01*
X105550000Y-93800185D01*
X105373790Y-93833341D01*
X105211953Y-93937481D01*
X105196908Y-93959500D01*
X104933421Y-93959500D01*
X104733503Y-93825919D01*
X104475000Y-93774499D01*
X104474995Y-93774500D01*
X104195436Y-93774500D01*
X103997692Y-93692390D01*
X103902651Y-93597349D01*
X103683503Y-93450919D01*
X103425000Y-93399499D01*
X103424995Y-93399500D01*
X103058625Y-93399500D01*
X102912625Y-93253500D01*
X102178500Y-93253500D01*
X102178500Y-93273500D01*
X102021500Y-93273500D01*
X102021500Y-93253500D01*
X101287375Y-93253500D01*
X101116500Y-93424375D01*
X101116500Y-93510957D01*
X101220557Y-93762172D01*
X101318250Y-93859865D01*
X101315185Y-93875000D01*
X101315185Y-94275000D01*
X101348341Y-94451210D01*
X101452481Y-94613047D01*
X101611380Y-94721618D01*
X101800000Y-94759815D01*
X102400000Y-94759815D01*
X102449505Y-94750500D01*
X103085072Y-94750500D01*
X103142180Y-94888712D01*
X103360141Y-95107054D01*
X103645067Y-95225365D01*
X103953580Y-95225634D01*
X104195923Y-95125500D01*
X104201579Y-95125500D01*
X104401497Y-95259081D01*
X104444386Y-95267612D01*
X104660000Y-95310501D01*
X104660005Y-95310500D01*
X104717226Y-95310500D01*
X104542349Y-95427349D01*
X104542347Y-95427352D01*
X103654405Y-96315294D01*
X103575000Y-96299499D01*
X103574995Y-96299500D01*
X103058625Y-96299500D01*
X102912625Y-96153500D01*
X102178500Y-96153500D01*
X102178500Y-96173500D01*
X102021500Y-96173500D01*
X102021500Y-96153500D01*
X101287375Y-96153500D01*
X101116500Y-96324375D01*
X101116500Y-96410957D01*
X101220557Y-96662172D01*
X101318250Y-96759865D01*
X101315185Y-96775000D01*
X101315185Y-97175000D01*
X101348341Y-97351210D01*
X101452481Y-97513047D01*
X101611380Y-97621618D01*
X101800000Y-97659815D01*
X102400000Y-97659815D01*
X102449505Y-97650500D01*
X103153947Y-97650500D01*
X103360141Y-97857054D01*
X103645067Y-97975365D01*
X103953580Y-97975634D01*
X103994789Y-97958607D01*
X103817946Y-98135141D01*
X103717389Y-98377309D01*
X103195198Y-98899500D01*
X103058625Y-98899500D01*
X102912625Y-98753500D01*
X102178500Y-98753500D01*
X102178500Y-98773500D01*
X102021500Y-98773500D01*
X102021500Y-98753500D01*
X101287375Y-98753500D01*
X101116500Y-98924375D01*
X101116500Y-99010957D01*
X101220557Y-99262172D01*
X101318250Y-99359865D01*
X101315185Y-99375000D01*
X101315185Y-99775000D01*
X101348341Y-99951210D01*
X101452481Y-100113047D01*
X101611380Y-100221618D01*
X101800000Y-100259815D01*
X102400000Y-100259815D01*
X102449505Y-100250500D01*
X103474995Y-100250500D01*
X103475000Y-100250501D01*
X103733503Y-100199081D01*
X103952651Y-100052651D01*
X104673036Y-99332265D01*
X104913712Y-99232820D01*
X105128629Y-99018278D01*
X105168777Y-99080671D01*
X105103382Y-99176380D01*
X105065185Y-99365000D01*
X105065185Y-100065000D01*
X105098341Y-100241210D01*
X105180085Y-100368243D01*
X105141497Y-100375919D01*
X104922349Y-100522349D01*
X104922347Y-100522352D01*
X103431549Y-102013149D01*
X103361288Y-102042180D01*
X103142946Y-102260141D01*
X103024635Y-102545067D01*
X103024366Y-102853580D01*
X103142180Y-103138712D01*
X103360141Y-103357054D01*
X103645067Y-103475365D01*
X103953580Y-103475634D01*
X104238712Y-103357820D01*
X104457054Y-103139859D01*
X104575365Y-102854933D01*
X104575430Y-102779871D01*
X105065185Y-102290117D01*
X105065185Y-103075000D01*
X105098341Y-103251210D01*
X105202481Y-103413047D01*
X105361380Y-103521618D01*
X105375612Y-103524500D01*
X101075500Y-103524500D01*
X101075500Y-98339043D01*
X101116500Y-98339043D01*
X101116500Y-98425625D01*
X101287375Y-98596500D01*
X102021500Y-98596500D01*
X102021500Y-97962375D01*
X102178500Y-97962375D01*
X102178500Y-98596500D01*
X102912625Y-98596500D01*
X103083500Y-98425625D01*
X103083500Y-98339043D01*
X102979443Y-98087828D01*
X102787171Y-97895556D01*
X102535956Y-97791500D01*
X102349375Y-97791500D01*
X102178500Y-97962375D01*
X102021500Y-97962375D01*
X101850625Y-97791500D01*
X101664044Y-97791500D01*
X101412829Y-97895556D01*
X101220557Y-98087828D01*
X101116500Y-98339043D01*
X101075500Y-98339043D01*
X101075500Y-95739043D01*
X101116500Y-95739043D01*
X101116500Y-95825625D01*
X101287375Y-95996500D01*
X102021500Y-95996500D01*
X102021500Y-95362375D01*
X102178500Y-95362375D01*
X102178500Y-95996500D01*
X102912625Y-95996500D01*
X103083500Y-95825625D01*
X103083500Y-95739043D01*
X102979443Y-95487828D01*
X102787171Y-95295556D01*
X102535956Y-95191500D01*
X102349375Y-95191500D01*
X102178500Y-95362375D01*
X102021500Y-95362375D01*
X101850625Y-95191500D01*
X101664044Y-95191500D01*
X101412829Y-95295556D01*
X101220557Y-95487828D01*
X101116500Y-95739043D01*
X101075500Y-95739043D01*
X101075500Y-92839043D01*
X101116500Y-92839043D01*
X101116500Y-92925625D01*
X101287375Y-93096500D01*
X102021500Y-93096500D01*
X102021500Y-92462375D01*
X102178500Y-92462375D01*
X102178500Y-93096500D01*
X102912625Y-93096500D01*
X103083500Y-92925625D01*
X103083500Y-92839043D01*
X102979443Y-92587828D01*
X102787171Y-92395556D01*
X102535956Y-92291500D01*
X102349375Y-92291500D01*
X102178500Y-92462375D01*
X102021500Y-92462375D01*
X101850625Y-92291500D01*
X101664044Y-92291500D01*
X101412829Y-92395556D01*
X101220557Y-92587828D01*
X101116500Y-92839043D01*
X101075500Y-92839043D01*
X101075500Y-90800500D01*
X105495180Y-90800500D01*
X105373790Y-90823341D01*
M02*
